<?xml version="1.0" encoding="UTF-8" standalone="no"?>
<!DOCTYPE svg PUBLIC "-//W3C//DTD SVG 1.1//EN"
 "http://www.w3.org/Graphics/SVG/1.1/DTD/svg11.dtd">
<!-- Generated by graphviz version 2.38.0 (20140413.2041)
 -->
<!-- Title: %3 Pages: 1 -->
<svg width="1072pt" height="44pt"
 viewBox="0.00 0.00 1072.00 44.00" xmlns="http://www.w3.org/2000/svg" xmlns:xlink="http://www.w3.org/1999/xlink">
<g id="graph0" class="graph" transform="scale(1 1) rotate(0) translate(4 40)">
<title>%3</title>
<polygon fill="white" stroke="none" points="-4,4 -4,-40 1068,-40 1068,4 -4,4"/>
<!-- 1 -->
<g id="node1" class="node"><title>1</title>
<ellipse fill="powderblue" stroke="black" cx="107" cy="-18" rx="18" ry="18"/>
<text text-anchor="middle" x="107" y="-14.9" font-family="arial" font-size="12.00">P0</text>
</g>
<!-- 2 -->
<g id="node2" class="node"><title>2</title>
<ellipse fill="powderblue" stroke="black" cx="210" cy="-18" rx="18" ry="18"/>
<text text-anchor="middle" x="210" y="-14.9" font-family="arial" font-size="12.00">P1</text>
</g>
<!-- 1&#45;&gt;2 -->
<g id="edge1" class="edge"><title>1&#45;&gt;2</title>
<path fill="none" stroke="black" d="M125.133,-18C140.586,-18 163.584,-18 181.591,-18"/>
<polygon fill="black" stroke="black" points="181.783,-21.5001 191.783,-18 181.783,-14.5001 181.783,-21.5001"/>
<text text-anchor="middle" x="158.5" y="-21.4" font-family="arial" font-size="12.00">0.667</text>
</g>
<!-- 3 -->
<g id="node3" class="node"><title>3</title>
<ellipse fill="powderblue" stroke="black" cx="313" cy="-18" rx="18" ry="18"/>
<text text-anchor="middle" x="313" y="-14.9" font-family="arial" font-size="12.00">P2</text>
</g>
<!-- 2&#45;&gt;3 -->
<g id="edge2" class="edge"><title>2&#45;&gt;3</title>
<path fill="none" stroke="black" d="M228.133,-18C243.586,-18 266.584,-18 284.591,-18"/>
<polygon fill="black" stroke="black" points="284.783,-21.5001 294.783,-18 284.783,-14.5001 284.783,-21.5001"/>
<text text-anchor="middle" x="261.5" y="-21.4" font-family="arial" font-size="12.00">0.167</text>
</g>
<!-- 4 -->
<g id="node4" class="node"><title>4</title>
<ellipse fill="powderblue" stroke="black" cx="416" cy="-18" rx="18" ry="18"/>
<text text-anchor="middle" x="416" y="-14.9" font-family="arial" font-size="12.00">P3</text>
</g>
<!-- 3&#45;&gt;4 -->
<g id="edge3" class="edge"><title>3&#45;&gt;4</title>
<path fill="none" stroke="black" d="M331.133,-18C346.586,-18 369.584,-18 387.591,-18"/>
<polygon fill="black" stroke="black" points="387.783,-21.5001 397.783,-18 387.783,-14.5001 387.783,-21.5001"/>
<text text-anchor="middle" x="364.5" y="-21.4" font-family="arial" font-size="12.00">0.333</text>
</g>
<!-- 5 -->
<g id="node5" class="node"><title>5</title>
<ellipse fill="powderblue" stroke="black" cx="519" cy="-18" rx="18" ry="18"/>
<text text-anchor="middle" x="519" y="-14.9" font-family="arial" font-size="12.00">P4</text>
</g>
<!-- 4&#45;&gt;5 -->
<g id="edge4" class="edge"><title>4&#45;&gt;5</title>
<path fill="none" stroke="black" d="M434.133,-18C449.586,-18 472.584,-18 490.591,-18"/>
<polygon fill="black" stroke="black" points="490.783,-21.5001 500.783,-18 490.783,-14.5001 490.783,-21.5001"/>
<text text-anchor="middle" x="467.5" y="-21.4" font-family="arial" font-size="12.00">0.167</text>
</g>
<!-- 6 -->
<g id="node6" class="node"><title>6</title>
<ellipse fill="powderblue" stroke="black" cx="628" cy="-18" rx="18" ry="18"/>
<text text-anchor="middle" x="628" y="-14.9" font-family="arial" font-size="12.00">P5</text>
</g>
<!-- 5&#45;&gt;6 -->
<g id="edge5" class="edge"><title>5&#45;&gt;6</title>
<path fill="none" stroke="black" d="M537.191,-18C554.039,-18 579.982,-18 599.661,-18"/>
<polygon fill="black" stroke="black" points="599.851,-21.5001 609.851,-18 599.851,-14.5001 599.851,-21.5001"/>
<text text-anchor="middle" x="573.5" y="-21.4" font-family="arial" font-size="12.00">0.0833</text>
</g>
<!-- 7 -->
<g id="node7" class="node"><title>7</title>
<ellipse fill="powderblue" stroke="black" cx="731" cy="-18" rx="18" ry="18"/>
<text text-anchor="middle" x="731" y="-14.9" font-family="arial" font-size="12.00">P6</text>
</g>
<!-- 6&#45;&gt;7 -->
<g id="edge6" class="edge"><title>6&#45;&gt;7</title>
<path fill="none" stroke="black" d="M646.133,-18C661.586,-18 684.584,-18 702.591,-18"/>
<polygon fill="black" stroke="black" points="702.783,-21.5001 712.783,-18 702.783,-14.5001 702.783,-21.5001"/>
<text text-anchor="middle" x="679.5" y="-21.4" font-family="arial" font-size="12.00">0.125</text>
</g>
<!-- 8 -->
<g id="node8" class="node"><title>8</title>
<ellipse fill="powderblue" stroke="black" cx="834" cy="-18" rx="18" ry="18"/>
<text text-anchor="middle" x="834" y="-14.9" font-family="arial" font-size="12.00">P7</text>
</g>
<!-- 7&#45;&gt;8 -->
<g id="edge7" class="edge"><title>7&#45;&gt;8</title>
<path fill="none" stroke="black" d="M749.133,-18C764.586,-18 787.584,-18 805.591,-18"/>
<polygon fill="black" stroke="black" points="805.783,-21.5001 815.783,-18 805.783,-14.5001 805.783,-21.5001"/>
<text text-anchor="middle" x="782.5" y="-21.4" font-family="arial" font-size="12.00">0.125</text>
</g>
<!-- 9 -->
<g id="node9" class="node"><title>9</title>
<ellipse fill="powderblue" stroke="black" cx="937" cy="-18" rx="18" ry="18"/>
<text text-anchor="middle" x="937" y="-14.9" font-family="arial" font-size="12.00">P8</text>
</g>
<!-- 8&#45;&gt;9 -->
<g id="edge8" class="edge"><title>8&#45;&gt;9</title>
<path fill="none" stroke="black" d="M852.133,-18C867.586,-18 890.584,-18 908.591,-18"/>
<polygon fill="black" stroke="black" points="908.783,-21.5001 918.783,-18 908.783,-14.5001 908.783,-21.5001"/>
<text text-anchor="middle" x="885.5" y="-21.4" font-family="arial" font-size="12.00">0.188</text>
</g>
<!-- 11 -->
<g id="node11" class="node"><title>11</title>
<ellipse fill="darksalmon" stroke="black" cx="1046" cy="-18" rx="18" ry="18"/>
<text text-anchor="middle" x="1046" y="-14.9" font-family="arial" font-size="12.00">Sink</text>
</g>
<!-- 9&#45;&gt;11 -->
<g id="edge10" class="edge"><title>9&#45;&gt;11</title>
<path fill="none" stroke="black" d="M955.191,-18C972.039,-18 997.982,-18 1017.66,-18"/>
<polygon fill="black" stroke="black" points="1017.85,-21.5001 1027.85,-18 1017.85,-14.5001 1017.85,-21.5001"/>
<text text-anchor="middle" x="991.5" y="-21.4" font-family="arial" font-size="12.00">0.0625</text>
</g>
<!-- 10 -->
<g id="node10" class="node"><title>10</title>
<ellipse fill="forestgreen" stroke="black" cx="18" cy="-18" rx="18" ry="18"/>
<text text-anchor="middle" x="18" y="-15.5" font-family="arial" font-size="10.00">Source</text>
</g>
<!-- 10&#45;&gt;1 -->
<g id="edge9" class="edge"><title>10&#45;&gt;1</title>
<path fill="none" stroke="black" d="M36.1884,-18C48.3426,-18 64.8865,-18 78.8185,-18"/>
<polygon fill="black" stroke="black" points="78.8473,-21.5001 88.8473,-18 78.8473,-14.5001 78.8473,-21.5001"/>
<text text-anchor="middle" x="62.5" y="-21.4" font-family="arial" font-size="12.00">1.0</text>
</g>
</g>
</svg>
