<?xml version="1.0" encoding="UTF-8" standalone="no"?>
<!DOCTYPE svg PUBLIC "-//W3C//DTD SVG 1.1//EN"
 "http://www.w3.org/Graphics/SVG/1.1/DTD/svg11.dtd">
<!-- Generated by graphviz version 2.38.0 (20140413.2041)
 -->
<!-- Title: %3 Pages: 1 -->
<svg width="695pt" height="157pt"
 viewBox="0.00 0.00 695.00 157.00" xmlns="http://www.w3.org/2000/svg" xmlns:xlink="http://www.w3.org/1999/xlink">
<g id="graph0" class="graph" transform="scale(1 1) rotate(0) translate(4 153)">
<title>%3</title>
<polygon fill="white" stroke="none" points="-4,4 -4,-153 691,-153 691,4 -4,4"/>
<!-- 1 -->
<g id="node1" class="node"><title>1</title>
<ellipse fill="powderblue" stroke="black" cx="107" cy="-81" rx="18" ry="18"/>
<text text-anchor="middle" x="107" y="-77.9" font-family="arial" font-size="12.00">P0</text>
</g>
<!-- 3 -->
<g id="node3" class="node"><title>3</title>
<ellipse fill="powderblue" stroke="black" cx="196" cy="-23" rx="18" ry="18"/>
<text text-anchor="middle" x="196" y="-19.9" font-family="arial" font-size="12.00">P2</text>
</g>
<!-- 1&#45;&gt;3 -->
<g id="edge1" class="edge"><title>1&#45;&gt;3</title>
<path fill="none" stroke="black" d="M122.366,-71.4225C135.841,-62.4391 156.219,-48.8538 171.964,-38.3571"/>
<polygon fill="black" stroke="black" points="174.233,-41.051 180.612,-32.5917 170.35,-35.2266 174.233,-41.051"/>
<text text-anchor="middle" x="151.5" y="-60.4" font-family="arial" font-size="12.00">3.0</text>
</g>
<!-- 4 -->
<g id="node4" class="node"><title>4</title>
<ellipse fill="powderblue" stroke="black" cx="196" cy="-131" rx="18" ry="18"/>
<text text-anchor="middle" x="196" y="-127.9" font-family="arial" font-size="12.00">P3</text>
</g>
<!-- 1&#45;&gt;4 -->
<g id="edge3" class="edge"><title>1&#45;&gt;4</title>
<path fill="none" stroke="black" d="M123.154,-89.7093C136.378,-97.3092 155.792,-108.467 171.106,-117.268"/>
<polygon fill="black" stroke="black" points="169.605,-120.442 180.019,-122.39 173.093,-114.373 169.605,-120.442"/>
<text text-anchor="middle" x="151.5" y="-113.4" font-family="arial" font-size="12.00">2.5</text>
</g>
<!-- 5 -->
<g id="node5" class="node"><title>5</title>
<ellipse fill="powderblue" stroke="black" cx="196" cy="-77" rx="18" ry="18"/>
<text text-anchor="middle" x="196" y="-73.9" font-family="arial" font-size="12.00">P4</text>
</g>
<!-- 1&#45;&gt;5 -->
<g id="edge4" class="edge"><title>1&#45;&gt;5</title>
<path fill="none" stroke="black" d="M125.188,-80.2097C137.343,-79.6509 153.886,-78.8903 167.818,-78.2497"/>
<polygon fill="black" stroke="black" points="168.019,-81.7443 177.847,-77.7886 167.697,-74.7517 168.019,-81.7443"/>
<text text-anchor="middle" x="151.5" y="-82.4" font-family="arial" font-size="12.00">1.0</text>
</g>
<!-- 2 -->
<g id="node2" class="node"><title>2</title>
<ellipse fill="powderblue" stroke="black" cx="107" cy="-18" rx="18" ry="18"/>
<text text-anchor="middle" x="107" y="-14.9" font-family="arial" font-size="12.00">P1</text>
</g>
<!-- 2&#45;&gt;3 -->
<g id="edge2" class="edge"><title>2&#45;&gt;3</title>
<path fill="none" stroke="black" d="M124.901,-15.5773C135.092,-14.4762 148.318,-13.682 160,-15 162.75,-15.3103 165.6,-15.7537 168.431,-16.2747"/>
<polygon fill="black" stroke="black" points="167.886,-19.7372 178.397,-18.4021 169.348,-12.8914 167.886,-19.7372"/>
<text text-anchor="middle" x="151.5" y="-18.4" font-family="arial" font-size="12.00">1.0</text>
</g>
<!-- 6 -->
<g id="node6" class="node"><title>6</title>
<ellipse fill="powderblue" stroke="black" cx="299" cy="-77" rx="18" ry="18"/>
<text text-anchor="middle" x="299" y="-73.9" font-family="arial" font-size="12.00">P5</text>
</g>
<!-- 3&#45;&gt;6 -->
<g id="edge5" class="edge"><title>3&#45;&gt;6</title>
<path fill="none" stroke="black" d="M212.34,-31.2014C228.674,-39.9346 254.751,-53.8766 273.847,-64.0863"/>
<polygon fill="black" stroke="black" points="272.378,-67.2699 282.847,-68.8983 275.678,-61.0968 272.378,-67.2699"/>
<text text-anchor="middle" x="247.5" y="-60.4" font-family="arial" font-size="12.00">2.0</text>
</g>
<!-- 4&#45;&gt;6 -->
<g id="edge6" class="edge"><title>4&#45;&gt;6</title>
<path fill="none" stroke="black" d="M212.34,-122.799C228.674,-114.065 254.751,-100.123 273.847,-89.9137"/>
<polygon fill="black" stroke="black" points="275.678,-92.9032 282.847,-85.1017 272.378,-86.7301 275.678,-92.9032"/>
<text text-anchor="middle" x="247.5" y="-114.4" font-family="arial" font-size="12.00">0.833</text>
</g>
<!-- 5&#45;&gt;6 -->
<g id="edge7" class="edge"><title>5&#45;&gt;6</title>
<path fill="none" stroke="black" d="M214.133,-77C229.586,-77 252.584,-77 270.591,-77"/>
<polygon fill="black" stroke="black" points="270.783,-80.5001 280.783,-77 270.783,-73.5001 270.783,-80.5001"/>
<text text-anchor="middle" x="247.5" y="-80.4" font-family="arial" font-size="12.00">1.0</text>
</g>
<!-- 7 -->
<g id="node7" class="node"><title>7</title>
<ellipse fill="powderblue" stroke="black" cx="388" cy="-77" rx="18" ry="18"/>
<text text-anchor="middle" x="388" y="-73.9" font-family="arial" font-size="12.00">P6</text>
</g>
<!-- 6&#45;&gt;7 -->
<g id="edge8" class="edge"><title>6&#45;&gt;7</title>
<path fill="none" stroke="black" d="M317.188,-77C329.343,-77 345.886,-77 359.818,-77"/>
<polygon fill="black" stroke="black" points="359.847,-80.5001 369.847,-77 359.847,-73.5001 359.847,-80.5001"/>
<text text-anchor="middle" x="343.5" y="-80.4" font-family="arial" font-size="12.00">0.5</text>
</g>
<!-- 8 -->
<g id="node8" class="node"><title>8</title>
<ellipse fill="powderblue" stroke="black" cx="477" cy="-77" rx="18" ry="18"/>
<text text-anchor="middle" x="477" y="-73.9" font-family="arial" font-size="12.00">P7</text>
</g>
<!-- 7&#45;&gt;8 -->
<g id="edge9" class="edge"><title>7&#45;&gt;8</title>
<path fill="none" stroke="black" d="M406.188,-77C418.343,-77 434.886,-77 448.818,-77"/>
<polygon fill="black" stroke="black" points="448.847,-80.5001 458.847,-77 448.847,-73.5001 448.847,-80.5001"/>
<text text-anchor="middle" x="432.5" y="-80.4" font-family="arial" font-size="12.00">0.5</text>
</g>
<!-- 9 -->
<g id="node9" class="node"><title>9</title>
<ellipse fill="powderblue" stroke="black" cx="566" cy="-77" rx="18" ry="18"/>
<text text-anchor="middle" x="566" y="-73.9" font-family="arial" font-size="12.00">P8</text>
</g>
<!-- 8&#45;&gt;9 -->
<g id="edge10" class="edge"><title>8&#45;&gt;9</title>
<path fill="none" stroke="black" d="M495.188,-77C507.343,-77 523.886,-77 537.818,-77"/>
<polygon fill="black" stroke="black" points="537.847,-80.5001 547.847,-77 537.847,-73.5001 537.847,-80.5001"/>
<text text-anchor="middle" x="521.5" y="-80.4" font-family="arial" font-size="12.00">0.5</text>
</g>
<!-- 11 -->
<g id="node11" class="node"><title>11</title>
<ellipse fill="darksalmon" stroke="black" cx="669" cy="-77" rx="18" ry="18"/>
<text text-anchor="middle" x="669" y="-73.9" font-family="arial" font-size="12.00">Sink</text>
</g>
<!-- 9&#45;&gt;11 -->
<g id="edge13" class="edge"><title>9&#45;&gt;11</title>
<path fill="none" stroke="black" d="M584.133,-77C599.586,-77 622.584,-77 640.591,-77"/>
<polygon fill="black" stroke="black" points="640.783,-80.5001 650.783,-77 640.783,-73.5001 640.783,-80.5001"/>
<text text-anchor="middle" x="617.5" y="-80.4" font-family="arial" font-size="12.00">0.667</text>
</g>
<!-- 10 -->
<g id="node10" class="node"><title>10</title>
<ellipse fill="forestgreen" stroke="black" cx="18" cy="-44" rx="18" ry="18"/>
<text text-anchor="middle" x="18" y="-41.5" font-family="arial" font-size="10.00">Source</text>
</g>
<!-- 10&#45;&gt;1 -->
<g id="edge12" class="edge"><title>10&#45;&gt;1</title>
<path fill="none" stroke="black" d="M34.9571,-50.7864C47.7114,-56.2106 65.8322,-63.9172 80.5802,-70.1893"/>
<polygon fill="black" stroke="black" points="79.5719,-73.5638 90.144,-74.2567 82.3115,-67.1221 79.5719,-73.5638"/>
<text text-anchor="middle" x="62.5" y="-68.4" font-family="arial" font-size="12.00">1.0</text>
</g>
<!-- 10&#45;&gt;2 -->
<g id="edge11" class="edge"><title>10&#45;&gt;2</title>
<path fill="none" stroke="black" d="M35.3072,-38.1545C41.1726,-36.1195 47.857,-33.8777 54,-32 62.1725,-29.5019 71.1384,-27.0029 79.2891,-24.8221"/>
<polygon fill="black" stroke="black" points="80.2752,-28.1819 89.0564,-22.254 78.4951,-21.412 80.2752,-28.1819"/>
<text text-anchor="middle" x="62.5" y="-35.4" font-family="arial" font-size="12.00">1.0</text>
</g>
</g>
</svg>
