<?xml version="1.0" encoding="UTF-8" standalone="no"?>
<!DOCTYPE svg PUBLIC "-//W3C//DTD SVG 1.1//EN"
 "http://www.w3.org/Graphics/SVG/1.1/DTD/svg11.dtd">
<!-- Generated by graphviz version 2.38.0 (20140413.2041)
 -->
<!-- Title: %3 Pages: 1 -->
<svg width="702pt" height="152pt"
 viewBox="0.00 0.00 702.00 152.00" xmlns="http://www.w3.org/2000/svg" xmlns:xlink="http://www.w3.org/1999/xlink">
<g id="graph0" class="graph" transform="scale(1 1) rotate(0) translate(4 148)">
<title>%3</title>
<polygon fill="white" stroke="none" points="-4,4 -4,-148 698,-148 698,4 -4,4"/>
<!-- 1 -->
<g id="node1" class="node"><title>1</title>
<ellipse fill="powderblue" stroke="black" cx="107" cy="-94" rx="18" ry="18"/>
<text text-anchor="middle" x="107" y="-90.9" font-family="arial" font-size="12.00">P0</text>
</g>
<!-- 2 -->
<g id="node2" class="node"><title>2</title>
<ellipse fill="powderblue" stroke="black" cx="196" cy="-94" rx="18" ry="18"/>
<text text-anchor="middle" x="196" y="-90.9" font-family="arial" font-size="12.00">P1</text>
</g>
<!-- 1&#45;&gt;2 -->
<g id="edge1" class="edge"><title>1&#45;&gt;2</title>
<path fill="none" stroke="black" d="M125.188,-94C137.343,-94 153.886,-94 167.818,-94"/>
<polygon fill="black" stroke="black" points="167.847,-97.5001 177.847,-94 167.847,-90.5001 167.847,-97.5001"/>
<text text-anchor="middle" x="151.5" y="-97.4" font-family="arial" font-size="12.00">0.5</text>
</g>
<!-- 3 -->
<g id="node3" class="node"><title>3</title>
<ellipse fill="powderblue" stroke="black" cx="285" cy="-126" rx="18" ry="18"/>
<text text-anchor="middle" x="285" y="-122.9" font-family="arial" font-size="12.00">P2</text>
</g>
<!-- 2&#45;&gt;3 -->
<g id="edge2" class="edge"><title>2&#45;&gt;3</title>
<path fill="none" stroke="black" d="M213.364,-100.019C226.002,-104.667 243.727,-111.187 258.26,-116.532"/>
<polygon fill="black" stroke="black" points="257.116,-119.841 267.709,-120.008 259.532,-113.271 257.116,-119.841"/>
<text text-anchor="middle" x="240.5" y="-115.4" font-family="arial" font-size="12.00">0.5</text>
</g>
<!-- 4 -->
<g id="node4" class="node"><title>4</title>
<ellipse fill="powderblue" stroke="black" cx="285" cy="-72" rx="18" ry="18"/>
<text text-anchor="middle" x="285" y="-68.9" font-family="arial" font-size="12.00">P3</text>
</g>
<!-- 2&#45;&gt;4 -->
<g id="edge3" class="edge"><title>2&#45;&gt;4</title>
<path fill="none" stroke="black" d="M213.774,-89.7582C226.171,-86.6234 243.296,-82.293 257.531,-78.6933"/>
<polygon fill="black" stroke="black" points="258.44,-82.0736 267.277,-76.2288 256.724,-75.2872 258.44,-82.0736"/>
<text text-anchor="middle" x="240.5" y="-88.4" font-family="arial" font-size="12.00">0.5</text>
</g>
<!-- 5 -->
<g id="node5" class="node"><title>5</title>
<ellipse fill="powderblue" stroke="black" cx="381" cy="-126" rx="18" ry="18"/>
<text text-anchor="middle" x="381" y="-122.9" font-family="arial" font-size="12.00">P4</text>
</g>
<!-- 3&#45;&gt;5 -->
<g id="edge4" class="edge"><title>3&#45;&gt;5</title>
<path fill="none" stroke="black" d="M303.241,-126C317.022,-126 336.6,-126 352.535,-126"/>
<polygon fill="black" stroke="black" points="352.868,-129.5 362.868,-126 352.868,-122.5 352.868,-129.5"/>
<text text-anchor="middle" x="333" y="-129.4" font-family="arial" font-size="12.00">1.25</text>
</g>
<!-- 6 -->
<g id="node6" class="node"><title>6</title>
<ellipse fill="powderblue" stroke="black" cx="381" cy="-72" rx="18" ry="18"/>
<text text-anchor="middle" x="381" y="-68.9" font-family="arial" font-size="12.00">P5</text>
</g>
<!-- 4&#45;&gt;6 -->
<g id="edge5" class="edge"><title>4&#45;&gt;6</title>
<path fill="none" stroke="black" d="M303.241,-72C317.022,-72 336.6,-72 352.535,-72"/>
<polygon fill="black" stroke="black" points="352.868,-75.5001 362.868,-72 352.868,-68.5001 352.868,-75.5001"/>
<text text-anchor="middle" x="333" y="-75.4" font-family="arial" font-size="12.00">0.5</text>
</g>
<!-- 7 -->
<g id="node7" class="node"><title>7</title>
<ellipse fill="powderblue" stroke="black" cx="381" cy="-18" rx="18" ry="18"/>
<text text-anchor="middle" x="381" y="-14.9" font-family="arial" font-size="12.00">P6</text>
</g>
<!-- 4&#45;&gt;7 -->
<g id="edge6" class="edge"><title>4&#45;&gt;7</title>
<path fill="none" stroke="black" d="M301.103,-63.324C315.903,-54.8215 338.694,-41.7288 355.982,-31.7975"/>
<polygon fill="black" stroke="black" points="358.007,-34.6707 364.935,-26.6545 354.52,-28.6009 358.007,-34.6707"/>
<text text-anchor="middle" x="333" y="-55.4" font-family="arial" font-size="12.00">0.25</text>
</g>
<!-- 8 -->
<g id="node8" class="node"><title>8</title>
<ellipse fill="powderblue" stroke="black" cx="484" cy="-72" rx="18" ry="18"/>
<text text-anchor="middle" x="484" y="-68.9" font-family="arial" font-size="12.00">P7</text>
</g>
<!-- 5&#45;&gt;8 -->
<g id="edge7" class="edge"><title>5&#45;&gt;8</title>
<path fill="none" stroke="black" d="M397.34,-117.799C413.674,-109.065 439.751,-95.1234 458.847,-84.9137"/>
<polygon fill="black" stroke="black" points="460.678,-87.9032 467.847,-80.1017 457.378,-81.7301 460.678,-87.9032"/>
<text text-anchor="middle" x="432.5" y="-109.4" font-family="arial" font-size="12.00">2.92</text>
</g>
<!-- 6&#45;&gt;8 -->
<g id="edge8" class="edge"><title>6&#45;&gt;8</title>
<path fill="none" stroke="black" d="M399.133,-72C414.586,-72 437.584,-72 455.591,-72"/>
<polygon fill="black" stroke="black" points="455.783,-75.5001 465.783,-72 455.783,-68.5001 455.783,-75.5001"/>
<text text-anchor="middle" x="432.5" y="-75.4" font-family="arial" font-size="12.00">1.0</text>
</g>
<!-- 7&#45;&gt;8 -->
<g id="edge9" class="edge"><title>7&#45;&gt;8</title>
<path fill="none" stroke="black" d="M397.34,-26.2014C413.674,-34.9346 439.751,-48.8766 458.847,-59.0863"/>
<polygon fill="black" stroke="black" points="457.378,-62.2699 467.847,-63.8983 460.678,-56.0968 457.378,-62.2699"/>
<text text-anchor="middle" x="432.5" y="-56.4" font-family="arial" font-size="12.00">0.188</text>
</g>
<!-- 9 -->
<g id="node9" class="node"><title>9</title>
<ellipse fill="powderblue" stroke="black" cx="580" cy="-72" rx="18" ry="18"/>
<text text-anchor="middle" x="580" y="-68.9" font-family="arial" font-size="12.00">P8</text>
</g>
<!-- 8&#45;&gt;9 -->
<g id="edge10" class="edge"><title>8&#45;&gt;9</title>
<path fill="none" stroke="black" d="M502.241,-72C516.022,-72 535.6,-72 551.535,-72"/>
<polygon fill="black" stroke="black" points="551.868,-75.5001 561.868,-72 551.868,-68.5001 551.868,-75.5001"/>
<text text-anchor="middle" x="532" y="-75.4" font-family="arial" font-size="12.00">0.25</text>
</g>
<!-- 11 -->
<g id="node11" class="node"><title>11</title>
<ellipse fill="darksalmon" stroke="black" cx="676" cy="-72" rx="18" ry="18"/>
<text text-anchor="middle" x="676" y="-68.9" font-family="arial" font-size="12.00">Sink</text>
</g>
<!-- 9&#45;&gt;11 -->
<g id="edge12" class="edge"><title>9&#45;&gt;11</title>
<path fill="none" stroke="black" d="M598.241,-72C612.022,-72 631.6,-72 647.535,-72"/>
<polygon fill="black" stroke="black" points="647.868,-75.5001 657.868,-72 647.868,-68.5001 647.868,-75.5001"/>
<text text-anchor="middle" x="628" y="-75.4" font-family="arial" font-size="12.00">0.25</text>
</g>
<!-- 10 -->
<g id="node10" class="node"><title>10</title>
<ellipse fill="forestgreen" stroke="black" cx="18" cy="-94" rx="18" ry="18"/>
<text text-anchor="middle" x="18" y="-91.5" font-family="arial" font-size="10.00">Source</text>
</g>
<!-- 10&#45;&gt;1 -->
<g id="edge11" class="edge"><title>10&#45;&gt;1</title>
<path fill="none" stroke="black" d="M36.1884,-94C48.3426,-94 64.8865,-94 78.8185,-94"/>
<polygon fill="black" stroke="black" points="78.8473,-97.5001 88.8473,-94 78.8473,-90.5001 78.8473,-97.5001"/>
<text text-anchor="middle" x="62.5" y="-97.4" font-family="arial" font-size="12.00">1.0</text>
</g>
</g>
</svg>
