<?xml version="1.0" encoding="UTF-8" standalone="no"?>
<!DOCTYPE svg PUBLIC "-//W3C//DTD SVG 1.1//EN"
 "http://www.w3.org/Graphics/SVG/1.1/DTD/svg11.dtd">
<!-- Generated by graphviz version 2.38.0 (20140413.2041)
 -->
<!-- Title: %3 Pages: 1 -->
<svg width="769pt" height="147pt"
 viewBox="0.00 0.00 769.00 147.00" xmlns="http://www.w3.org/2000/svg" xmlns:xlink="http://www.w3.org/1999/xlink">
<g id="graph0" class="graph" transform="scale(1 1) rotate(0) translate(4 143)">
<title>%3</title>
<polygon fill="white" stroke="none" points="-4,4 -4,-143 765,-143 765,4 -4,4"/>
<!-- 1 -->
<g id="node1" class="node"><title>1</title>
<ellipse fill="powderblue" stroke="black" cx="107" cy="-72" rx="18" ry="18"/>
<text text-anchor="middle" x="107" y="-68.9" font-family="arial" font-size="12.00">P0</text>
</g>
<!-- 3 -->
<g id="node3" class="node"><title>3</title>
<ellipse fill="powderblue" stroke="black" cx="210" cy="-121" rx="18" ry="18"/>
<text text-anchor="middle" x="210" y="-117.9" font-family="arial" font-size="12.00">P2</text>
</g>
<!-- 1&#45;&gt;3 -->
<g id="edge1" class="edge"><title>1&#45;&gt;3</title>
<path fill="none" stroke="black" d="M123.781,-79.6562C139.939,-87.4953 165.288,-99.7932 184.144,-108.941"/>
<polygon fill="black" stroke="black" points="182.805,-112.182 193.33,-113.398 185.86,-105.884 182.805,-112.182"/>
<text text-anchor="middle" x="158.5" y="-106.4" font-family="arial" font-size="12.00">0.667</text>
</g>
<!-- 5 -->
<g id="node5" class="node"><title>5</title>
<ellipse fill="powderblue" stroke="black" cx="313" cy="-72" rx="18" ry="18"/>
<text text-anchor="middle" x="313" y="-68.9" font-family="arial" font-size="12.00">P4</text>
</g>
<!-- 1&#45;&gt;5 -->
<g id="edge3" class="edge"><title>1&#45;&gt;5</title>
<path fill="none" stroke="black" d="M125.042,-72C160.367,-72 241.839,-72 284.625,-72"/>
<polygon fill="black" stroke="black" points="284.863,-75.5001 294.863,-72 284.863,-68.5001 284.863,-75.5001"/>
<text text-anchor="middle" x="210" y="-75.4" font-family="arial" font-size="12.00">2.0</text>
</g>
<!-- 2 -->
<g id="node2" class="node"><title>2</title>
<ellipse fill="powderblue" stroke="black" cx="107" cy="-18" rx="18" ry="18"/>
<text text-anchor="middle" x="107" y="-14.9" font-family="arial" font-size="12.00">P1</text>
</g>
<!-- 4 -->
<g id="node4" class="node"><title>4</title>
<ellipse fill="powderblue" stroke="black" cx="210" cy="-18" rx="18" ry="18"/>
<text text-anchor="middle" x="210" y="-14.9" font-family="arial" font-size="12.00">P3</text>
</g>
<!-- 2&#45;&gt;4 -->
<g id="edge2" class="edge"><title>2&#45;&gt;4</title>
<path fill="none" stroke="black" d="M125.133,-18C140.586,-18 163.584,-18 181.591,-18"/>
<polygon fill="black" stroke="black" points="181.783,-21.5001 191.783,-18 181.783,-14.5001 181.783,-21.5001"/>
<text text-anchor="middle" x="158.5" y="-21.4" font-family="arial" font-size="12.00">0.5</text>
</g>
<!-- 3&#45;&gt;5 -->
<g id="edge4" class="edge"><title>3&#45;&gt;5</title>
<path fill="none" stroke="black" d="M226.781,-113.344C242.939,-105.505 268.288,-93.2068 287.144,-84.0588"/>
<polygon fill="black" stroke="black" points="288.86,-87.1164 296.33,-79.6025 285.805,-80.8185 288.86,-87.1164"/>
<text text-anchor="middle" x="261.5" y="-106.4" font-family="arial" font-size="12.00">0.167</text>
</g>
<!-- 4&#45;&gt;5 -->
<g id="edge5" class="edge"><title>4&#45;&gt;5</title>
<path fill="none" stroke="black" d="M227.3,-23.2856C241.016,-28.0531 260.909,-35.7295 277,-45 281.7,-47.7082 286.474,-50.9793 290.921,-54.2961"/>
<polygon fill="black" stroke="black" points="288.935,-57.1865 298.967,-60.5945 293.25,-51.6744 288.935,-57.1865"/>
<text text-anchor="middle" x="261.5" y="-48.4" font-family="arial" font-size="12.00">1.25</text>
</g>
<!-- 6 -->
<g id="node6" class="node"><title>6</title>
<ellipse fill="powderblue" stroke="black" cx="422" cy="-72" rx="18" ry="18"/>
<text text-anchor="middle" x="422" y="-68.9" font-family="arial" font-size="12.00">P5</text>
</g>
<!-- 5&#45;&gt;6 -->
<g id="edge6" class="edge"><title>5&#45;&gt;6</title>
<path fill="none" stroke="black" d="M331.191,-72C348.039,-72 373.982,-72 393.661,-72"/>
<polygon fill="black" stroke="black" points="393.851,-75.5001 403.851,-72 393.851,-68.5001 393.851,-75.5001"/>
<text text-anchor="middle" x="367.5" y="-75.4" font-family="arial" font-size="12.00">0.0714</text>
</g>
<!-- 7 -->
<g id="node7" class="node"><title>7</title>
<ellipse fill="powderblue" stroke="black" cx="531" cy="-104" rx="18" ry="18"/>
<text text-anchor="middle" x="531" y="-100.9" font-family="arial" font-size="12.00">P6</text>
</g>
<!-- 6&#45;&gt;7 -->
<g id="edge7" class="edge"><title>6&#45;&gt;7</title>
<path fill="none" stroke="black" d="M439.719,-77C456.837,-82.1194 483.691,-90.1507 503.667,-96.1248"/>
<polygon fill="black" stroke="black" points="502.815,-99.523 513.399,-99.0351 504.821,-92.8165 502.815,-99.523"/>
<text text-anchor="middle" x="476.5" y="-95.4" font-family="arial" font-size="12.00">0.0714</text>
</g>
<!-- 8 -->
<g id="node8" class="node"><title>8</title>
<ellipse fill="powderblue" stroke="black" cx="531" cy="-50" rx="18" ry="18"/>
<text text-anchor="middle" x="531" y="-46.9" font-family="arial" font-size="12.00">P7</text>
</g>
<!-- 6&#45;&gt;8 -->
<g id="edge8" class="edge"><title>6&#45;&gt;8</title>
<path fill="none" stroke="black" d="M439.71,-68.0636C445.494,-66.7322 452.024,-65.2637 458,-64 472.844,-60.8612 489.467,-57.6115 502.998,-55.034"/>
<polygon fill="black" stroke="black" points="503.917,-58.4223 513.093,-53.126 502.617,-51.5441 503.917,-58.4223"/>
<text text-anchor="middle" x="476.5" y="-67.4" font-family="arial" font-size="12.00">0.107</text>
</g>
<!-- 9 -->
<g id="node9" class="node"><title>9</title>
<ellipse fill="powderblue" stroke="black" cx="640" cy="-79" rx="18" ry="18"/>
<text text-anchor="middle" x="640" y="-75.9" font-family="arial" font-size="12.00">P8</text>
</g>
<!-- 7&#45;&gt;9 -->
<g id="edge9" class="edge"><title>7&#45;&gt;9</title>
<path fill="none" stroke="black" d="M548.719,-100.094C565.758,-96.1126 592.445,-89.8773 612.392,-85.2168"/>
<polygon fill="black" stroke="black" points="613.457,-88.5623 622.399,-82.8788 611.865,-81.7459 613.457,-88.5623"/>
<text text-anchor="middle" x="585.5" y="-98.4" font-family="arial" font-size="12.00">0.0476</text>
</g>
<!-- 8&#45;&gt;9 -->
<g id="edge10" class="edge"><title>8&#45;&gt;9</title>
<path fill="none" stroke="black" d="M548.719,-54.5312C565.837,-59.1707 592.691,-66.4491 612.667,-71.8631"/>
<polygon fill="black" stroke="black" points="611.831,-75.2627 622.399,-74.5006 613.662,-68.5065 611.831,-75.2627"/>
<text text-anchor="middle" x="585.5" y="-71.4" font-family="arial" font-size="12.00">0.107</text>
</g>
<!-- 11 -->
<g id="node11" class="node"><title>11</title>
<ellipse fill="darksalmon" stroke="black" cx="743" cy="-79" rx="18" ry="18"/>
<text text-anchor="middle" x="743" y="-75.9" font-family="arial" font-size="12.00">Sink</text>
</g>
<!-- 9&#45;&gt;11 -->
<g id="edge13" class="edge"><title>9&#45;&gt;11</title>
<path fill="none" stroke="black" d="M658.133,-79C673.586,-79 696.584,-79 714.591,-79"/>
<polygon fill="black" stroke="black" points="714.783,-82.5001 724.783,-79 714.783,-75.5001 714.783,-82.5001"/>
<text text-anchor="middle" x="691.5" y="-82.4" font-family="arial" font-size="12.00">0.107</text>
</g>
<!-- 10 -->
<g id="node10" class="node"><title>10</title>
<ellipse fill="forestgreen" stroke="black" cx="18" cy="-44" rx="18" ry="18"/>
<text text-anchor="middle" x="18" y="-41.5" font-family="arial" font-size="10.00">Source</text>
</g>
<!-- 10&#45;&gt;1 -->
<g id="edge12" class="edge"><title>10&#45;&gt;1</title>
<path fill="none" stroke="black" d="M35.364,-49.2666C47.8803,-53.2948 65.387,-58.9292 79.84,-63.5807"/>
<polygon fill="black" stroke="black" points="79.1179,-67.025 89.7093,-66.757 81.2625,-60.3616 79.1179,-67.025"/>
<text text-anchor="middle" x="62.5" y="-63.4" font-family="arial" font-size="12.00">1.0</text>
</g>
<!-- 10&#45;&gt;2 -->
<g id="edge11" class="edge"><title>10&#45;&gt;2</title>
<path fill="none" stroke="black" d="M35.3072,-38.1545C41.1726,-36.1195 47.857,-33.8777 54,-32 62.1725,-29.5019 71.1384,-27.0029 79.2891,-24.8221"/>
<polygon fill="black" stroke="black" points="80.2752,-28.1819 89.0564,-22.254 78.4951,-21.412 80.2752,-28.1819"/>
<text text-anchor="middle" x="62.5" y="-35.4" font-family="arial" font-size="12.00">1.0</text>
</g>
</g>
</svg>
