<?xml version="1.0" encoding="UTF-8" standalone="no"?>
<!DOCTYPE svg PUBLIC "-//W3C//DTD SVG 1.1//EN"
 "http://www.w3.org/Graphics/SVG/1.1/DTD/svg11.dtd">
<!-- Generated by graphviz version 2.38.0 (20140413.2041)
 -->
<!-- Title: %3 Pages: 1 -->
<svg width="736pt" height="116pt"
 viewBox="0.00 0.00 736.00 116.00" xmlns="http://www.w3.org/2000/svg" xmlns:xlink="http://www.w3.org/1999/xlink">
<g id="graph0" class="graph" transform="scale(1 1) rotate(0) translate(4 112)">
<title>%3</title>
<polygon fill="white" stroke="none" points="-4,4 -4,-112 732,-112 732,4 -4,4"/>
<!-- 1 -->
<g id="node1" class="node"><title>1</title>
<ellipse fill="powderblue" stroke="black" cx="107" cy="-90" rx="18" ry="18"/>
<text text-anchor="middle" x="107" y="-86.9" font-family="arial" font-size="12.00">P0</text>
</g>
<!-- 4 -->
<g id="node4" class="node"><title>4</title>
<ellipse fill="powderblue" stroke="black" cx="196" cy="-90" rx="18" ry="18"/>
<text text-anchor="middle" x="196" y="-86.9" font-family="arial" font-size="12.00">P3</text>
</g>
<!-- 1&#45;&gt;4 -->
<g id="edge2" class="edge"><title>1&#45;&gt;4</title>
<path fill="none" stroke="black" d="M125.188,-90C137.343,-90 153.886,-90 167.818,-90"/>
<polygon fill="black" stroke="black" points="167.847,-93.5001 177.847,-90 167.847,-86.5001 167.847,-93.5001"/>
<text text-anchor="middle" x="151.5" y="-93.4" font-family="arial" font-size="12.00">2.0</text>
</g>
<!-- 2 -->
<g id="node2" class="node"><title>2</title>
<ellipse fill="powderblue" stroke="black" cx="107" cy="-36" rx="18" ry="18"/>
<text text-anchor="middle" x="107" y="-32.9" font-family="arial" font-size="12.00">P1</text>
</g>
<!-- 3 -->
<g id="node3" class="node"><title>3</title>
<ellipse fill="powderblue" stroke="black" cx="196" cy="-36" rx="18" ry="18"/>
<text text-anchor="middle" x="196" y="-32.9" font-family="arial" font-size="12.00">P2</text>
</g>
<!-- 2&#45;&gt;3 -->
<g id="edge1" class="edge"><title>2&#45;&gt;3</title>
<path fill="none" stroke="black" d="M125.188,-36C137.343,-36 153.886,-36 167.818,-36"/>
<polygon fill="black" stroke="black" points="167.847,-39.5001 177.847,-36 167.847,-32.5001 167.847,-39.5001"/>
<text text-anchor="middle" x="151.5" y="-39.4" font-family="arial" font-size="12.00">0.5</text>
</g>
<!-- 5 -->
<g id="node5" class="node"><title>5</title>
<ellipse fill="powderblue" stroke="black" cx="305" cy="-72" rx="18" ry="18"/>
<text text-anchor="middle" x="305" y="-68.9" font-family="arial" font-size="12.00">P4</text>
</g>
<!-- 3&#45;&gt;5 -->
<g id="edge3" class="edge"><title>3&#45;&gt;5</title>
<path fill="none" stroke="black" d="M213.251,-41.4676C230.455,-47.256 257.862,-56.4771 278.06,-63.2726"/>
<polygon fill="black" stroke="black" points="277.002,-66.6093 287.596,-66.4809 279.234,-59.9747 277.002,-66.6093"/>
<text text-anchor="middle" x="250.5" y="-62.4" font-family="arial" font-size="12.00">0.5</text>
</g>
<!-- 6 -->
<g id="node6" class="node"><title>6</title>
<ellipse fill="powderblue" stroke="black" cx="305" cy="-18" rx="18" ry="18"/>
<text text-anchor="middle" x="305" y="-14.9" font-family="arial" font-size="12.00">P5</text>
</g>
<!-- 3&#45;&gt;6 -->
<g id="edge5" class="edge"><title>3&#45;&gt;6</title>
<path fill="none" stroke="black" d="M211.791,-27.0332C217.835,-23.8523 225.033,-20.6535 232,-19 246.492,-15.5605 263.091,-15.106 276.696,-15.603"/>
<polygon fill="black" stroke="black" points="276.69,-19.1079 286.868,-16.1668 277.077,-12.1187 276.69,-19.1079"/>
<text text-anchor="middle" x="250.5" y="-22.4" font-family="arial" font-size="12.00">0.0833</text>
</g>
<!-- 4&#45;&gt;5 -->
<g id="edge4" class="edge"><title>4&#45;&gt;5</title>
<path fill="none" stroke="black" d="M214.191,-87.108C231.217,-84.2439 257.531,-79.8171 277.283,-76.4945"/>
<polygon fill="black" stroke="black" points="277.923,-79.936 287.204,-74.8255 276.762,-73.033 277.923,-79.936"/>
<text text-anchor="middle" x="250.5" y="-86.4" font-family="arial" font-size="12.00">4.0</text>
</g>
<!-- 7 -->
<g id="node7" class="node"><title>7</title>
<ellipse fill="powderblue" stroke="black" cx="401" cy="-47" rx="18" ry="18"/>
<text text-anchor="middle" x="401" y="-43.9" font-family="arial" font-size="12.00">P6</text>
</g>
<!-- 5&#45;&gt;7 -->
<g id="edge6" class="edge"><title>5&#45;&gt;7</title>
<path fill="none" stroke="black" d="M322.805,-67.5305C336.841,-63.7977 357.106,-58.408 373.351,-54.0874"/>
<polygon fill="black" stroke="black" points="374.576,-57.3835 383.34,-51.4308 372.777,-50.6187 374.576,-57.3835"/>
<text text-anchor="middle" x="353" y="-65.4" font-family="arial" font-size="12.00">0.5</text>
</g>
<!-- 6&#45;&gt;7 -->
<g id="edge7" class="edge"><title>6&#45;&gt;7</title>
<path fill="none" stroke="black" d="M322.374,-23.0514C336.574,-27.4324 357.382,-33.8517 373.88,-38.9418"/>
<polygon fill="black" stroke="black" points="372.911,-42.3056 383.499,-41.9092 374.975,-35.6166 372.911,-42.3056"/>
<text text-anchor="middle" x="353" y="-39.4" font-family="arial" font-size="12.00">0.25</text>
</g>
<!-- 8 -->
<g id="node8" class="node"><title>8</title>
<ellipse fill="powderblue" stroke="black" cx="504" cy="-47" rx="18" ry="18"/>
<text text-anchor="middle" x="504" y="-43.9" font-family="arial" font-size="12.00">P7</text>
</g>
<!-- 7&#45;&gt;8 -->
<g id="edge8" class="edge"><title>7&#45;&gt;8</title>
<path fill="none" stroke="black" d="M419.133,-47C434.586,-47 457.584,-47 475.591,-47"/>
<polygon fill="black" stroke="black" points="475.783,-50.5001 485.783,-47 475.783,-43.5001 475.783,-50.5001"/>
<text text-anchor="middle" x="452.5" y="-50.4" font-family="arial" font-size="12.00">0.125</text>
</g>
<!-- 9 -->
<g id="node9" class="node"><title>9</title>
<ellipse fill="powderblue" stroke="black" cx="607" cy="-47" rx="18" ry="18"/>
<text text-anchor="middle" x="607" y="-43.9" font-family="arial" font-size="12.00">P8</text>
</g>
<!-- 8&#45;&gt;9 -->
<g id="edge9" class="edge"><title>8&#45;&gt;9</title>
<path fill="none" stroke="black" d="M522.133,-47C537.586,-47 560.584,-47 578.591,-47"/>
<polygon fill="black" stroke="black" points="578.783,-50.5001 588.783,-47 578.783,-43.5001 578.783,-50.5001"/>
<text text-anchor="middle" x="555.5" y="-50.4" font-family="arial" font-size="12.00">0.375</text>
</g>
<!-- 11 -->
<g id="node11" class="node"><title>11</title>
<ellipse fill="darksalmon" stroke="black" cx="710" cy="-47" rx="18" ry="18"/>
<text text-anchor="middle" x="710" y="-43.9" font-family="arial" font-size="12.00">Sink</text>
</g>
<!-- 9&#45;&gt;11 -->
<g id="edge12" class="edge"><title>9&#45;&gt;11</title>
<path fill="none" stroke="black" d="M625.133,-47C640.586,-47 663.584,-47 681.591,-47"/>
<polygon fill="black" stroke="black" points="681.783,-50.5001 691.783,-47 681.783,-43.5001 681.783,-50.5001"/>
<text text-anchor="middle" x="658.5" y="-50.4" font-family="arial" font-size="12.00">0.375</text>
</g>
<!-- 10 -->
<g id="node10" class="node"><title>10</title>
<ellipse fill="forestgreen" stroke="black" cx="18" cy="-62" rx="18" ry="18"/>
<text text-anchor="middle" x="18" y="-59.5" font-family="arial" font-size="10.00">Source</text>
</g>
<!-- 10&#45;&gt;1 -->
<g id="edge11" class="edge"><title>10&#45;&gt;1</title>
<path fill="none" stroke="black" d="M35.364,-67.2666C47.8803,-71.2948 65.387,-76.9292 79.84,-81.5807"/>
<polygon fill="black" stroke="black" points="79.1179,-85.025 89.7093,-84.757 81.2625,-78.3616 79.1179,-85.025"/>
<text text-anchor="middle" x="62.5" y="-81.4" font-family="arial" font-size="12.00">1.0</text>
</g>
<!-- 10&#45;&gt;2 -->
<g id="edge10" class="edge"><title>10&#45;&gt;2</title>
<path fill="none" stroke="black" d="M35.3072,-56.1545C41.1726,-54.1195 47.857,-51.8777 54,-50 62.1725,-47.5019 71.1384,-45.0029 79.2891,-42.8221"/>
<polygon fill="black" stroke="black" points="80.2752,-46.1819 89.0564,-40.254 78.4951,-39.412 80.2752,-46.1819"/>
<text text-anchor="middle" x="62.5" y="-53.4" font-family="arial" font-size="12.00">1.0</text>
</g>
</g>
</svg>
