<?xml version="1.0" encoding="UTF-8" standalone="no"?>
<!DOCTYPE svg PUBLIC "-//W3C//DTD SVG 1.1//EN"
 "http://www.w3.org/Graphics/SVG/1.1/DTD/svg11.dtd">
<!-- Generated by graphviz version 2.38.0 (20140413.2041)
 -->
<!-- Title: %3 Pages: 1 -->
<svg width="716pt" height="123pt"
 viewBox="0.00 0.00 716.00 123.00" xmlns="http://www.w3.org/2000/svg" xmlns:xlink="http://www.w3.org/1999/xlink">
<g id="graph0" class="graph" transform="scale(1 1) rotate(0) translate(4 119)">
<title>%3</title>
<polygon fill="white" stroke="none" points="-4,4 -4,-119 712,-119 712,4 -4,4"/>
<!-- 1 -->
<g id="node1" class="node"><title>1</title>
<ellipse fill="powderblue" stroke="black" cx="107" cy="-40" rx="18" ry="18"/>
<text text-anchor="middle" x="107" y="-36.9" font-family="arial" font-size="12.00">P0</text>
</g>
<!-- 2 -->
<g id="node2" class="node"><title>2</title>
<ellipse fill="powderblue" stroke="black" cx="203" cy="-72" rx="18" ry="18"/>
<text text-anchor="middle" x="203" y="-68.9" font-family="arial" font-size="12.00">P1</text>
</g>
<!-- 1&#45;&gt;2 -->
<g id="edge1" class="edge"><title>1&#45;&gt;2</title>
<path fill="none" stroke="black" d="M124.374,-45.574C138.661,-50.4379 159.637,-57.5786 176.183,-63.2114"/>
<polygon fill="black" stroke="black" points="175.22,-66.5805 185.814,-66.4899 177.476,-59.9539 175.22,-66.5805"/>
<text text-anchor="middle" x="155" y="-62.4" font-family="arial" font-size="12.00">1.67</text>
</g>
<!-- 3 -->
<g id="node3" class="node"><title>3</title>
<ellipse fill="powderblue" stroke="black" cx="203" cy="-18" rx="18" ry="18"/>
<text text-anchor="middle" x="203" y="-14.9" font-family="arial" font-size="12.00">P2</text>
</g>
<!-- 1&#45;&gt;3 -->
<g id="edge2" class="edge"><title>1&#45;&gt;3</title>
<path fill="none" stroke="black" d="M124.805,-36.0668C138.841,-32.782 159.106,-28.039 175.351,-24.237"/>
<polygon fill="black" stroke="black" points="176.401,-27.5859 185.34,-21.8991 174.806,-20.7701 176.401,-27.5859"/>
<text text-anchor="middle" x="155" y="-35.4" font-family="arial" font-size="12.00">0.75</text>
</g>
<!-- 4 -->
<g id="node4" class="node"><title>4</title>
<ellipse fill="powderblue" stroke="black" cx="299" cy="-47" rx="18" ry="18"/>
<text text-anchor="middle" x="299" y="-43.9" font-family="arial" font-size="12.00">P3</text>
</g>
<!-- 2&#45;&gt;4 -->
<g id="edge3" class="edge"><title>2&#45;&gt;4</title>
<path fill="none" stroke="black" d="M220.805,-67.5305C234.841,-63.7977 255.106,-58.408 271.351,-54.0874"/>
<polygon fill="black" stroke="black" points="272.576,-57.3835 281.34,-51.4308 270.777,-50.6187 272.576,-57.3835"/>
<text text-anchor="middle" x="251" y="-65.4" font-family="arial" font-size="12.00">1.25</text>
</g>
<!-- 3&#45;&gt;4 -->
<g id="edge4" class="edge"><title>3&#45;&gt;4</title>
<path fill="none" stroke="black" d="M220.374,-23.0514C234.574,-27.4324 255.382,-33.8517 271.88,-38.9418"/>
<polygon fill="black" stroke="black" points="270.911,-42.3056 281.499,-41.9092 272.975,-35.6166 270.911,-42.3056"/>
<text text-anchor="middle" x="251" y="-39.4" font-family="arial" font-size="12.00">3.0</text>
</g>
<!-- 5 -->
<g id="node5" class="node"><title>5</title>
<ellipse fill="powderblue" stroke="black" cx="388" cy="-79" rx="18" ry="18"/>
<text text-anchor="middle" x="388" y="-75.9" font-family="arial" font-size="12.00">P4</text>
</g>
<!-- 4&#45;&gt;5 -->
<g id="edge5" class="edge"><title>4&#45;&gt;5</title>
<path fill="none" stroke="black" d="M316.364,-53.019C329.002,-57.6673 346.727,-64.1871 361.26,-69.5325"/>
<polygon fill="black" stroke="black" points="360.116,-72.8408 370.709,-73.008 362.532,-66.2711 360.116,-72.8408"/>
<text text-anchor="middle" x="343.5" y="-68.4" font-family="arial" font-size="12.00">2.5</text>
</g>
<!-- 6 -->
<g id="node6" class="node"><title>6</title>
<ellipse fill="powderblue" stroke="black" cx="388" cy="-25" rx="18" ry="18"/>
<text text-anchor="middle" x="388" y="-21.9" font-family="arial" font-size="12.00">P5</text>
</g>
<!-- 4&#45;&gt;6 -->
<g id="edge6" class="edge"><title>4&#45;&gt;6</title>
<path fill="none" stroke="black" d="M316.774,-42.7582C329.171,-39.6234 346.296,-35.293 360.531,-31.6933"/>
<polygon fill="black" stroke="black" points="361.44,-35.0736 370.277,-29.2288 359.724,-28.2872 361.44,-35.0736"/>
<text text-anchor="middle" x="343.5" y="-41.4" font-family="arial" font-size="12.00">1.0</text>
</g>
<!-- 7 -->
<g id="node7" class="node"><title>7</title>
<ellipse fill="powderblue" stroke="black" cx="484" cy="-43" rx="18" ry="18"/>
<text text-anchor="middle" x="484" y="-39.9" font-family="arial" font-size="12.00">P6</text>
</g>
<!-- 5&#45;&gt;7 -->
<g id="edge7" class="edge"><title>5&#45;&gt;7</title>
<path fill="none" stroke="black" d="M404.946,-72.8931C419.26,-67.4109 440.531,-59.2647 457.254,-52.8602"/>
<polygon fill="black" stroke="black" points="458.889,-55.9819 466.976,-49.1369 456.386,-49.4449 458.889,-55.9819"/>
<text text-anchor="middle" x="436" y="-68.4" font-family="arial" font-size="12.00">1.67</text>
</g>
<!-- 8 -->
<g id="node8" class="node"><title>8</title>
<ellipse fill="powderblue" stroke="black" cx="484" cy="-97" rx="18" ry="18"/>
<text text-anchor="middle" x="484" y="-93.9" font-family="arial" font-size="12.00">P7</text>
</g>
<!-- 5&#45;&gt;8 -->
<g id="edge9" class="edge"><title>5&#45;&gt;8</title>
<path fill="none" stroke="black" d="M405.805,-82.218C419.754,-84.8891 439.856,-88.7384 456.05,-91.8393"/>
<polygon fill="black" stroke="black" points="455.543,-95.3059 466.023,-93.7491 456.86,-88.4308 455.543,-95.3059"/>
<text text-anchor="middle" x="436" y="-93.4" font-family="arial" font-size="12.00">2.5</text>
</g>
<!-- 6&#45;&gt;7 -->
<g id="edge8" class="edge"><title>6&#45;&gt;7</title>
<path fill="none" stroke="black" d="M406.028,-23.3619C417.946,-22.6802 434.15,-22.6906 448,-26 451.7,-26.8841 455.466,-28.2018 459.089,-29.7196"/>
<polygon fill="black" stroke="black" points="457.671,-32.9206 468.206,-34.0442 460.671,-26.5961 457.671,-32.9206"/>
<text text-anchor="middle" x="436" y="-29.4" font-family="arial" font-size="12.00">3.0</text>
</g>
<!-- 9 -->
<g id="node9" class="node"><title>9</title>
<ellipse fill="powderblue" stroke="black" cx="587" cy="-72" rx="18" ry="18"/>
<text text-anchor="middle" x="587" y="-68.9" font-family="arial" font-size="12.00">P8</text>
</g>
<!-- 7&#45;&gt;9 -->
<g id="edge10" class="edge"><title>7&#45;&gt;9</title>
<path fill="none" stroke="black" d="M501.678,-47.7888C517.395,-52.3014 541.2,-59.1366 559.513,-64.3949"/>
<polygon fill="black" stroke="black" points="558.72,-67.8084 569.297,-67.2041 560.651,-61.0802 558.72,-67.8084"/>
<text text-anchor="middle" x="535.5" y="-64.4" font-family="arial" font-size="12.00">0.556</text>
</g>
<!-- 8&#45;&gt;9 -->
<g id="edge11" class="edge"><title>8&#45;&gt;9</title>
<path fill="none" stroke="black" d="M501.678,-92.8718C517.395,-88.9815 541.2,-83.0891 559.513,-78.5561"/>
<polygon fill="black" stroke="black" points="560.431,-81.9347 569.297,-76.1344 558.749,-75.1397 560.431,-81.9347"/>
<text text-anchor="middle" x="535.5" y="-91.4" font-family="arial" font-size="12.00">1.67</text>
</g>
<!-- 11 -->
<g id="node11" class="node"><title>11</title>
<ellipse fill="darksalmon" stroke="black" cx="690" cy="-72" rx="18" ry="18"/>
<text text-anchor="middle" x="690" y="-68.9" font-family="arial" font-size="12.00">Sink</text>
</g>
<!-- 9&#45;&gt;11 -->
<g id="edge13" class="edge"><title>9&#45;&gt;11</title>
<path fill="none" stroke="black" d="M605.133,-72C620.586,-72 643.584,-72 661.591,-72"/>
<polygon fill="black" stroke="black" points="661.783,-75.5001 671.783,-72 661.783,-68.5001 661.783,-75.5001"/>
<text text-anchor="middle" x="638.5" y="-75.4" font-family="arial" font-size="12.00">0.833</text>
</g>
<!-- 10 -->
<g id="node10" class="node"><title>10</title>
<ellipse fill="forestgreen" stroke="black" cx="18" cy="-40" rx="18" ry="18"/>
<text text-anchor="middle" x="18" y="-37.5" font-family="arial" font-size="10.00">Source</text>
</g>
<!-- 10&#45;&gt;1 -->
<g id="edge12" class="edge"><title>10&#45;&gt;1</title>
<path fill="none" stroke="black" d="M36.1884,-40C48.3426,-40 64.8865,-40 78.8185,-40"/>
<polygon fill="black" stroke="black" points="78.8473,-43.5001 88.8473,-40 78.8473,-36.5001 78.8473,-43.5001"/>
<text text-anchor="middle" x="62.5" y="-43.4" font-family="arial" font-size="12.00">1.0</text>
</g>
</g>
</svg>
