<?xml version="1.0" encoding="UTF-8" standalone="no"?>
<!DOCTYPE svg PUBLIC "-//W3C//DTD SVG 1.1//EN"
 "http://www.w3.org/Graphics/SVG/1.1/DTD/svg11.dtd">
<!-- Generated by graphviz version 2.38.0 (20140413.2041)
 -->
<!-- Title: %3 Pages: 1 -->
<svg width="674pt" height="123pt"
 viewBox="0.00 0.00 674.00 123.00" xmlns="http://www.w3.org/2000/svg" xmlns:xlink="http://www.w3.org/1999/xlink">
<g id="graph0" class="graph" transform="scale(1 1) rotate(0) translate(4 119)">
<title>%3</title>
<polygon fill="white" stroke="none" points="-4,4 -4,-119 670,-119 670,4 -4,4"/>
<!-- 1 -->
<g id="node1" class="node"><title>1</title>
<ellipse fill="powderblue" stroke="black" cx="107" cy="-40" rx="18" ry="18"/>
<text text-anchor="middle" x="107" y="-36.9" font-family="arial" font-size="12.00">P0</text>
</g>
<!-- 2 -->
<g id="node2" class="node"><title>2</title>
<ellipse fill="powderblue" stroke="black" cx="196" cy="-40" rx="18" ry="18"/>
<text text-anchor="middle" x="196" y="-36.9" font-family="arial" font-size="12.00">P1</text>
</g>
<!-- 1&#45;&gt;2 -->
<g id="edge1" class="edge"><title>1&#45;&gt;2</title>
<path fill="none" stroke="black" d="M125.188,-40C137.343,-40 153.886,-40 167.818,-40"/>
<polygon fill="black" stroke="black" points="167.847,-43.5001 177.847,-40 167.847,-36.5001 167.847,-43.5001"/>
<text text-anchor="middle" x="151.5" y="-43.4" font-family="arial" font-size="12.00">1.0</text>
</g>
<!-- 3 -->
<g id="node3" class="node"><title>3</title>
<ellipse fill="powderblue" stroke="black" cx="285" cy="-72" rx="18" ry="18"/>
<text text-anchor="middle" x="285" y="-68.9" font-family="arial" font-size="12.00">P2</text>
</g>
<!-- 2&#45;&gt;3 -->
<g id="edge2" class="edge"><title>2&#45;&gt;3</title>
<path fill="none" stroke="black" d="M213.364,-46.019C226.002,-50.6673 243.727,-57.1871 258.26,-62.5325"/>
<polygon fill="black" stroke="black" points="257.116,-65.8408 267.709,-66.008 259.532,-59.2711 257.116,-65.8408"/>
<text text-anchor="middle" x="240.5" y="-61.4" font-family="arial" font-size="12.00">2.0</text>
</g>
<!-- 4 -->
<g id="node4" class="node"><title>4</title>
<ellipse fill="powderblue" stroke="black" cx="285" cy="-18" rx="18" ry="18"/>
<text text-anchor="middle" x="285" y="-14.9" font-family="arial" font-size="12.00">P3</text>
</g>
<!-- 2&#45;&gt;4 -->
<g id="edge3" class="edge"><title>2&#45;&gt;4</title>
<path fill="none" stroke="black" d="M213.774,-35.7582C226.171,-32.6234 243.296,-28.293 257.531,-24.6933"/>
<polygon fill="black" stroke="black" points="258.44,-28.0736 267.277,-22.2288 256.724,-21.2872 258.44,-28.0736"/>
<text text-anchor="middle" x="240.5" y="-34.4" font-family="arial" font-size="12.00">2.0</text>
</g>
<!-- 5 -->
<g id="node5" class="node"><title>5</title>
<ellipse fill="powderblue" stroke="black" cx="374" cy="-36" rx="18" ry="18"/>
<text text-anchor="middle" x="374" y="-32.9" font-family="arial" font-size="12.00">P4</text>
</g>
<!-- 3&#45;&gt;5 -->
<g id="edge4" class="edge"><title>3&#45;&gt;5</title>
<path fill="none" stroke="black" d="M301.957,-65.397C314.711,-60.1194 332.832,-52.6211 347.58,-46.5186"/>
<polygon fill="black" stroke="black" points="349.242,-49.6187 357.144,-42.5611 346.566,-43.1506 349.242,-49.6187"/>
<text text-anchor="middle" x="329.5" y="-60.4" font-family="arial" font-size="12.00">1.0</text>
</g>
<!-- 6 -->
<g id="node6" class="node"><title>6</title>
<ellipse fill="powderblue" stroke="black" cx="374" cy="-90" rx="18" ry="18"/>
<text text-anchor="middle" x="374" y="-86.9" font-family="arial" font-size="12.00">P5</text>
</g>
<!-- 3&#45;&gt;6 -->
<g id="edge6" class="edge"><title>3&#45;&gt;6</title>
<path fill="none" stroke="black" d="M302.774,-75.4706C315.051,-78.0105 331.964,-81.5098 346.116,-84.4378"/>
<polygon fill="black" stroke="black" points="345.775,-87.9414 356.277,-86.5401 347.194,-81.0865 345.775,-87.9414"/>
<text text-anchor="middle" x="329.5" y="-85.4" font-family="arial" font-size="12.00">0.8</text>
</g>
<!-- 4&#45;&gt;5 -->
<g id="edge5" class="edge"><title>4&#45;&gt;5</title>
<path fill="none" stroke="black" d="M303.096,-16.4962C313.355,-16.0439 326.586,-16.2589 338,-19 341.699,-19.8883 345.464,-21.2084 349.087,-22.7273"/>
<polygon fill="black" stroke="black" points="347.669,-25.9283 358.204,-27.0524 350.669,-19.6039 347.669,-25.9283"/>
<text text-anchor="middle" x="329.5" y="-22.4" font-family="arial" font-size="12.00">2.0</text>
</g>
<!-- 7 -->
<g id="node7" class="node"><title>7</title>
<ellipse fill="powderblue" stroke="black" cx="463" cy="-65" rx="18" ry="18"/>
<text text-anchor="middle" x="463" y="-61.9" font-family="arial" font-size="12.00">P6</text>
</g>
<!-- 5&#45;&gt;7 -->
<g id="edge7" class="edge"><title>5&#45;&gt;7</title>
<path fill="none" stroke="black" d="M391.364,-41.4547C403.88,-45.6268 421.387,-51.4623 435.84,-56.28"/>
<polygon fill="black" stroke="black" points="435.116,-59.7278 445.709,-59.5698 437.329,-53.087 435.116,-59.7278"/>
<text text-anchor="middle" x="418.5" y="-56.4" font-family="arial" font-size="12.00">4.0</text>
</g>
<!-- 6&#45;&gt;7 -->
<g id="edge8" class="edge"><title>6&#45;&gt;7</title>
<path fill="none" stroke="black" d="M391.774,-85.1797C404.251,-81.5946 421.516,-76.6334 435.805,-72.5274"/>
<polygon fill="black" stroke="black" points="436.928,-75.8464 445.572,-69.7207 434.994,-69.1187 436.928,-75.8464"/>
<text text-anchor="middle" x="418.5" y="-82.4" font-family="arial" font-size="12.00">1.6</text>
</g>
<!-- 8 -->
<g id="node8" class="node"><title>8</title>
<ellipse fill="powderblue" stroke="black" cx="552" cy="-97" rx="18" ry="18"/>
<text text-anchor="middle" x="552" y="-93.9" font-family="arial" font-size="12.00">P7</text>
</g>
<!-- 7&#45;&gt;8 -->
<g id="edge9" class="edge"><title>7&#45;&gt;8</title>
<path fill="none" stroke="black" d="M480.364,-71.019C493.002,-75.6673 510.727,-82.1871 525.26,-87.5325"/>
<polygon fill="black" stroke="black" points="524.116,-90.8408 534.709,-91.008 526.532,-84.2711 524.116,-90.8408"/>
<text text-anchor="middle" x="507.5" y="-86.4" font-family="arial" font-size="12.00">4.0</text>
</g>
<!-- 9 -->
<g id="node9" class="node"><title>9</title>
<ellipse fill="powderblue" stroke="black" cx="552" cy="-43" rx="18" ry="18"/>
<text text-anchor="middle" x="552" y="-39.9" font-family="arial" font-size="12.00">P8</text>
</g>
<!-- 7&#45;&gt;9 -->
<g id="edge10" class="edge"><title>7&#45;&gt;9</title>
<path fill="none" stroke="black" d="M480.774,-60.7582C493.171,-57.6234 510.296,-53.293 524.531,-49.6933"/>
<polygon fill="black" stroke="black" points="525.44,-53.0736 534.277,-47.2288 523.724,-46.2872 525.44,-53.0736"/>
<text text-anchor="middle" x="507.5" y="-58.4" font-family="arial" font-size="12.00">4.0</text>
</g>
<!-- 11 -->
<g id="node11" class="node"><title>11</title>
<ellipse fill="darksalmon" stroke="black" cx="648" cy="-72" rx="18" ry="18"/>
<text text-anchor="middle" x="648" y="-68.9" font-family="arial" font-size="12.00">Sink</text>
</g>
<!-- 8&#45;&gt;11 -->
<g id="edge13" class="edge"><title>8&#45;&gt;11</title>
<path fill="none" stroke="black" d="M569.805,-92.5305C583.841,-88.7977 604.106,-83.408 620.351,-79.0874"/>
<polygon fill="black" stroke="black" points="621.576,-82.3835 630.34,-76.4308 619.777,-75.6187 621.576,-82.3835"/>
<text text-anchor="middle" x="600" y="-90.4" font-family="arial" font-size="12.00">1.0</text>
</g>
<!-- 9&#45;&gt;11 -->
<g id="edge12" class="edge"><title>9&#45;&gt;11</title>
<path fill="none" stroke="black" d="M569.374,-48.0514C583.574,-52.4324 604.382,-58.8517 620.88,-63.9418"/>
<polygon fill="black" stroke="black" points="619.911,-67.3056 630.499,-66.9092 621.975,-60.6166 619.911,-67.3056"/>
<text text-anchor="middle" x="600" y="-63.4" font-family="arial" font-size="12.00">20.0</text>
</g>
<!-- 10 -->
<g id="node10" class="node"><title>10</title>
<ellipse fill="forestgreen" stroke="black" cx="18" cy="-40" rx="18" ry="18"/>
<text text-anchor="middle" x="18" y="-37.5" font-family="arial" font-size="10.00">Source</text>
</g>
<!-- 10&#45;&gt;1 -->
<g id="edge11" class="edge"><title>10&#45;&gt;1</title>
<path fill="none" stroke="black" d="M36.1884,-40C48.3426,-40 64.8865,-40 78.8185,-40"/>
<polygon fill="black" stroke="black" points="78.8473,-43.5001 88.8473,-40 78.8473,-36.5001 78.8473,-43.5001"/>
<text text-anchor="middle" x="62.5" y="-43.4" font-family="arial" font-size="12.00">1.0</text>
</g>
</g>
</svg>
