<?xml version="1.0" encoding="UTF-8" standalone="no"?>
<!DOCTYPE svg PUBLIC "-//W3C//DTD SVG 1.1//EN"
 "http://www.w3.org/Graphics/SVG/1.1/DTD/svg11.dtd">
<!-- Generated by graphviz version 2.38.0 (20140413.2041)
 -->
<!-- Title: %3 Pages: 1 -->
<svg width="715pt" height="152pt"
 viewBox="0.00 0.00 715.00 152.00" xmlns="http://www.w3.org/2000/svg" xmlns:xlink="http://www.w3.org/1999/xlink">
<g id="graph0" class="graph" transform="scale(1 1) rotate(0) translate(4 148)">
<title>%3</title>
<polygon fill="white" stroke="none" points="-4,4 -4,-148 711,-148 711,4 -4,4"/>
<!-- 1 -->
<g id="node1" class="node"><title>1</title>
<ellipse fill="powderblue" stroke="black" cx="107" cy="-97" rx="18" ry="18"/>
<text text-anchor="middle" x="107" y="-93.9" font-family="arial" font-size="12.00">P0</text>
</g>
<!-- 3 -->
<g id="node3" class="node"><title>3</title>
<ellipse fill="powderblue" stroke="black" cx="203" cy="-72" rx="18" ry="18"/>
<text text-anchor="middle" x="203" y="-68.9" font-family="arial" font-size="12.00">P2</text>
</g>
<!-- 1&#45;&gt;3 -->
<g id="edge1" class="edge"><title>1&#45;&gt;3</title>
<path fill="none" stroke="black" d="M124.805,-92.5305C138.841,-88.7977 159.106,-83.408 175.351,-79.0874"/>
<polygon fill="black" stroke="black" points="176.576,-82.3835 185.34,-76.4308 174.777,-75.6187 176.576,-82.3835"/>
<text text-anchor="middle" x="155" y="-90.4" font-family="arial" font-size="12.00">0.75</text>
</g>
<!-- 2 -->
<g id="node2" class="node"><title>2</title>
<ellipse fill="powderblue" stroke="black" cx="107" cy="-43" rx="18" ry="18"/>
<text text-anchor="middle" x="107" y="-39.9" font-family="arial" font-size="12.00">P1</text>
</g>
<!-- 2&#45;&gt;3 -->
<g id="edge2" class="edge"><title>2&#45;&gt;3</title>
<path fill="none" stroke="black" d="M124.374,-48.0514C138.574,-52.4324 159.382,-58.8517 175.88,-63.9418"/>
<polygon fill="black" stroke="black" points="174.911,-67.3056 185.499,-66.9092 176.975,-60.6166 174.911,-67.3056"/>
<text text-anchor="middle" x="155" y="-63.4" font-family="arial" font-size="12.00">1.0</text>
</g>
<!-- 4 -->
<g id="node4" class="node"><title>4</title>
<ellipse fill="powderblue" stroke="black" cx="292" cy="-72" rx="18" ry="18"/>
<text text-anchor="middle" x="292" y="-68.9" font-family="arial" font-size="12.00">P3</text>
</g>
<!-- 3&#45;&gt;4 -->
<g id="edge3" class="edge"><title>3&#45;&gt;4</title>
<path fill="none" stroke="black" d="M221.188,-72C233.343,-72 249.886,-72 263.818,-72"/>
<polygon fill="black" stroke="black" points="263.847,-75.5001 273.847,-72 263.847,-68.5001 263.847,-75.5001"/>
<text text-anchor="middle" x="247.5" y="-75.4" font-family="arial" font-size="12.00">1.5</text>
</g>
<!-- 5 -->
<g id="node5" class="node"><title>5</title>
<ellipse fill="powderblue" stroke="black" cx="381" cy="-72" rx="18" ry="18"/>
<text text-anchor="middle" x="381" y="-68.9" font-family="arial" font-size="12.00">P4</text>
</g>
<!-- 4&#45;&gt;5 -->
<g id="edge4" class="edge"><title>4&#45;&gt;5</title>
<path fill="none" stroke="black" d="M310.188,-72C322.343,-72 338.886,-72 352.818,-72"/>
<polygon fill="black" stroke="black" points="352.847,-75.5001 362.847,-72 352.847,-68.5001 352.847,-75.5001"/>
<text text-anchor="middle" x="336.5" y="-75.4" font-family="arial" font-size="12.00">4.5</text>
</g>
<!-- 6 -->
<g id="node6" class="node"><title>6</title>
<ellipse fill="powderblue" stroke="black" cx="477" cy="-126" rx="18" ry="18"/>
<text text-anchor="middle" x="477" y="-122.9" font-family="arial" font-size="12.00">P5</text>
</g>
<!-- 5&#45;&gt;6 -->
<g id="edge5" class="edge"><title>5&#45;&gt;6</title>
<path fill="none" stroke="black" d="M397.103,-80.676C411.903,-89.1785 434.694,-102.271 451.982,-112.203"/>
<polygon fill="black" stroke="black" points="450.52,-115.399 460.935,-117.345 454.007,-109.329 450.52,-115.399"/>
<text text-anchor="middle" x="429" y="-108.4" font-family="arial" font-size="12.00">1.12</text>
</g>
<!-- 7 -->
<g id="node7" class="node"><title>7</title>
<ellipse fill="powderblue" stroke="black" cx="477" cy="-72" rx="18" ry="18"/>
<text text-anchor="middle" x="477" y="-68.9" font-family="arial" font-size="12.00">P6</text>
</g>
<!-- 5&#45;&gt;7 -->
<g id="edge6" class="edge"><title>5&#45;&gt;7</title>
<path fill="none" stroke="black" d="M399.241,-72C413.022,-72 432.6,-72 448.535,-72"/>
<polygon fill="black" stroke="black" points="448.868,-75.5001 458.868,-72 448.868,-68.5001 448.868,-75.5001"/>
<text text-anchor="middle" x="429" y="-75.4" font-family="arial" font-size="12.00">13.5</text>
</g>
<!-- 8 -->
<g id="node8" class="node"><title>8</title>
<ellipse fill="powderblue" stroke="black" cx="477" cy="-18" rx="18" ry="18"/>
<text text-anchor="middle" x="477" y="-14.9" font-family="arial" font-size="12.00">P7</text>
</g>
<!-- 5&#45;&gt;8 -->
<g id="edge7" class="edge"><title>5&#45;&gt;8</title>
<path fill="none" stroke="black" d="M397.103,-63.324C411.903,-54.8215 434.694,-41.7288 451.982,-31.7975"/>
<polygon fill="black" stroke="black" points="454.007,-34.6707 460.935,-26.6545 450.52,-28.6009 454.007,-34.6707"/>
<text text-anchor="middle" x="429" y="-55.4" font-family="arial" font-size="12.00">2.25</text>
</g>
<!-- 9 -->
<g id="node9" class="node"><title>9</title>
<ellipse fill="powderblue" stroke="black" cx="580" cy="-72" rx="18" ry="18"/>
<text text-anchor="middle" x="580" y="-68.9" font-family="arial" font-size="12.00">P8</text>
</g>
<!-- 6&#45;&gt;9 -->
<g id="edge8" class="edge"><title>6&#45;&gt;9</title>
<path fill="none" stroke="black" d="M493.34,-117.799C509.674,-109.065 535.751,-95.1234 554.847,-84.9137"/>
<polygon fill="black" stroke="black" points="556.678,-87.9032 563.847,-80.1017 553.378,-81.7301 556.678,-87.9032"/>
<text text-anchor="middle" x="528.5" y="-109.4" font-family="arial" font-size="12.00">0.562</text>
</g>
<!-- 7&#45;&gt;9 -->
<g id="edge9" class="edge"><title>7&#45;&gt;9</title>
<path fill="none" stroke="black" d="M495.133,-72C510.586,-72 533.584,-72 551.591,-72"/>
<polygon fill="black" stroke="black" points="551.783,-75.5001 561.783,-72 551.783,-68.5001 551.783,-75.5001"/>
<text text-anchor="middle" x="528.5" y="-75.4" font-family="arial" font-size="12.00">33.8</text>
</g>
<!-- 8&#45;&gt;9 -->
<g id="edge10" class="edge"><title>8&#45;&gt;9</title>
<path fill="none" stroke="black" d="M493.34,-26.2014C509.674,-34.9346 535.751,-48.8766 554.847,-59.0863"/>
<polygon fill="black" stroke="black" points="553.378,-62.2699 563.847,-63.8983 556.678,-56.0968 553.378,-62.2699"/>
<text text-anchor="middle" x="528.5" y="-56.4" font-family="arial" font-size="12.00">2.25</text>
</g>
<!-- 11 -->
<g id="node11" class="node"><title>11</title>
<ellipse fill="darksalmon" stroke="black" cx="689" cy="-72" rx="18" ry="18"/>
<text text-anchor="middle" x="689" y="-68.9" font-family="arial" font-size="12.00">Sink</text>
</g>
<!-- 9&#45;&gt;11 -->
<g id="edge13" class="edge"><title>9&#45;&gt;11</title>
<path fill="none" stroke="black" d="M598.191,-72C615.039,-72 640.982,-72 660.661,-72"/>
<polygon fill="black" stroke="black" points="660.851,-75.5001 670.851,-72 660.851,-68.5001 660.851,-75.5001"/>
<text text-anchor="middle" x="634.5" y="-75.4" font-family="arial" font-size="12.00">0.0804</text>
</g>
<!-- 10 -->
<g id="node10" class="node"><title>10</title>
<ellipse fill="forestgreen" stroke="black" cx="18" cy="-69" rx="18" ry="18"/>
<text text-anchor="middle" x="18" y="-66.5" font-family="arial" font-size="10.00">Source</text>
</g>
<!-- 10&#45;&gt;1 -->
<g id="edge12" class="edge"><title>10&#45;&gt;1</title>
<path fill="none" stroke="black" d="M35.364,-74.2666C47.8803,-78.2948 65.387,-83.9292 79.84,-88.5807"/>
<polygon fill="black" stroke="black" points="79.1179,-92.025 89.7093,-91.757 81.2625,-85.3616 79.1179,-92.025"/>
<text text-anchor="middle" x="62.5" y="-88.4" font-family="arial" font-size="12.00">1.0</text>
</g>
<!-- 10&#45;&gt;2 -->
<g id="edge11" class="edge"><title>10&#45;&gt;2</title>
<path fill="none" stroke="black" d="M35.3072,-63.1545C41.1726,-61.1195 47.857,-58.8777 54,-57 62.1725,-54.5019 71.1384,-52.0029 79.2891,-49.8221"/>
<polygon fill="black" stroke="black" points="80.2752,-53.1819 89.0564,-47.254 78.4951,-46.412 80.2752,-53.1819"/>
<text text-anchor="middle" x="62.5" y="-60.4" font-family="arial" font-size="12.00">1.0</text>
</g>
</g>
</svg>
