<?xml version="1.0" encoding="UTF-8" standalone="no"?>
<!DOCTYPE svg PUBLIC "-//W3C//DTD SVG 1.1//EN"
 "http://www.w3.org/Graphics/SVG/1.1/DTD/svg11.dtd">
<!-- Generated by graphviz version 2.38.0 (20140413.2041)
 -->
<!-- Title: %3 Pages: 1 -->
<svg width="723pt" height="146pt"
 viewBox="0.00 0.00 723.00 146.00" xmlns="http://www.w3.org/2000/svg" xmlns:xlink="http://www.w3.org/1999/xlink">
<g id="graph0" class="graph" transform="scale(1 1) rotate(0) translate(4 142)">
<title>%3</title>
<polygon fill="white" stroke="none" points="-4,4 -4,-142 719,-142 719,4 -4,4"/>
<!-- 1 -->
<g id="node1" class="node"><title>1</title>
<ellipse fill="powderblue" stroke="black" cx="107" cy="-120" rx="18" ry="18"/>
<text text-anchor="middle" x="107" y="-116.9" font-family="arial" font-size="12.00">P0</text>
</g>
<!-- 6 -->
<g id="node6" class="node"><title>6</title>
<ellipse fill="powderblue" stroke="black" cx="395" cy="-120" rx="18" ry="18"/>
<text text-anchor="middle" x="395" y="-116.9" font-family="arial" font-size="12.00">P5</text>
</g>
<!-- 1&#45;&gt;6 -->
<g id="edge4" class="edge"><title>1&#45;&gt;6</title>
<path fill="none" stroke="black" d="M125.034,-120C172.709,-120 307.815,-120 366.37,-120"/>
<polygon fill="black" stroke="black" points="366.694,-123.5 376.694,-120 366.694,-116.5 366.694,-123.5"/>
<text text-anchor="middle" x="247.5" y="-123.4" font-family="arial" font-size="12.00">0.333</text>
</g>
<!-- 2 -->
<g id="node2" class="node"><title>2</title>
<ellipse fill="powderblue" stroke="black" cx="107" cy="-66" rx="18" ry="18"/>
<text text-anchor="middle" x="107" y="-62.9" font-family="arial" font-size="12.00">P1</text>
</g>
<!-- 3 -->
<g id="node3" class="node"><title>3</title>
<ellipse fill="powderblue" stroke="black" cx="196" cy="-66" rx="18" ry="18"/>
<text text-anchor="middle" x="196" y="-62.9" font-family="arial" font-size="12.00">P2</text>
</g>
<!-- 2&#45;&gt;3 -->
<g id="edge1" class="edge"><title>2&#45;&gt;3</title>
<path fill="none" stroke="black" d="M125.188,-66C137.343,-66 153.886,-66 167.818,-66"/>
<polygon fill="black" stroke="black" points="167.847,-69.5001 177.847,-66 167.847,-62.5001 167.847,-69.5001"/>
<text text-anchor="middle" x="151.5" y="-69.4" font-family="arial" font-size="12.00">2.0</text>
</g>
<!-- 4 -->
<g id="node4" class="node"><title>4</title>
<ellipse fill="powderblue" stroke="black" cx="299" cy="-72" rx="18" ry="18"/>
<text text-anchor="middle" x="299" y="-68.9" font-family="arial" font-size="12.00">P3</text>
</g>
<!-- 3&#45;&gt;4 -->
<g id="edge2" class="edge"><title>3&#45;&gt;4</title>
<path fill="none" stroke="black" d="M214.133,-67.0178C229.586,-67.9358 252.584,-69.302 270.591,-70.3717"/>
<polygon fill="black" stroke="black" points="270.593,-73.8779 280.783,-70.9772 271.008,-66.8902 270.593,-73.8779"/>
<text text-anchor="middle" x="247.5" y="-73.4" font-family="arial" font-size="12.00">1.0</text>
</g>
<!-- 5 -->
<g id="node5" class="node"><title>5</title>
<ellipse fill="powderblue" stroke="black" cx="299" cy="-18" rx="18" ry="18"/>
<text text-anchor="middle" x="299" y="-14.9" font-family="arial" font-size="12.00">P4</text>
</g>
<!-- 3&#45;&gt;5 -->
<g id="edge3" class="edge"><title>3&#45;&gt;5</title>
<path fill="none" stroke="black" d="M212.781,-58.5C228.939,-50.821 254.288,-38.774 273.144,-29.8127"/>
<polygon fill="black" stroke="black" points="274.8,-32.901 282.33,-25.4473 271.795,-26.5786 274.8,-32.901"/>
<text text-anchor="middle" x="247.5" y="-53.4" font-family="arial" font-size="12.00">2.0</text>
</g>
<!-- 7 -->
<g id="node7" class="node"><title>7</title>
<ellipse fill="powderblue" stroke="black" cx="395" cy="-66" rx="18" ry="18"/>
<text text-anchor="middle" x="395" y="-62.9" font-family="arial" font-size="12.00">P6</text>
</g>
<!-- 4&#45;&gt;7 -->
<g id="edge5" class="edge"><title>4&#45;&gt;7</title>
<path fill="none" stroke="black" d="M317.241,-70.8995C331.022,-70.0199 350.6,-68.7702 366.535,-67.7531"/>
<polygon fill="black" stroke="black" points="367.112,-71.2235 376.868,-67.0935 366.666,-64.2377 367.112,-71.2235"/>
<text text-anchor="middle" x="347" y="-73.4" font-family="arial" font-size="12.00">0.5</text>
</g>
<!-- 5&#45;&gt;7 -->
<g id="edge6" class="edge"><title>5&#45;&gt;7</title>
<path fill="none" stroke="black" d="M315.522,-25.9262C330.169,-33.4053 352.363,-44.7385 369.416,-53.4465"/>
<polygon fill="black" stroke="black" points="368.269,-56.7906 378.767,-58.2213 371.452,-50.5563 368.269,-56.7906"/>
<text text-anchor="middle" x="347" y="-51.4" font-family="arial" font-size="12.00">4.67</text>
</g>
<!-- 8 -->
<g id="node8" class="node"><title>8</title>
<ellipse fill="powderblue" stroke="black" cx="491" cy="-95" rx="18" ry="18"/>
<text text-anchor="middle" x="491" y="-91.9" font-family="arial" font-size="12.00">P7</text>
</g>
<!-- 6&#45;&gt;8 -->
<g id="edge7" class="edge"><title>6&#45;&gt;8</title>
<path fill="none" stroke="black" d="M412.805,-115.531C426.841,-111.798 447.106,-106.408 463.351,-102.087"/>
<polygon fill="black" stroke="black" points="464.576,-105.384 473.34,-99.4308 462.777,-98.6187 464.576,-105.384"/>
<text text-anchor="middle" x="443" y="-113.4" font-family="arial" font-size="12.00">1.67</text>
</g>
<!-- 7&#45;&gt;8 -->
<g id="edge8" class="edge"><title>7&#45;&gt;8</title>
<path fill="none" stroke="black" d="M412.374,-71.0514C426.574,-75.4324 447.382,-81.8517 463.88,-86.9418"/>
<polygon fill="black" stroke="black" points="462.911,-90.3056 473.499,-89.9092 464.975,-83.6166 462.911,-90.3056"/>
<text text-anchor="middle" x="443" y="-86.4" font-family="arial" font-size="12.00">0.5</text>
</g>
<!-- 9 -->
<g id="node9" class="node"><title>9</title>
<ellipse fill="powderblue" stroke="black" cx="594" cy="-95" rx="18" ry="18"/>
<text text-anchor="middle" x="594" y="-91.9" font-family="arial" font-size="12.00">P8</text>
</g>
<!-- 8&#45;&gt;9 -->
<g id="edge9" class="edge"><title>8&#45;&gt;9</title>
<path fill="none" stroke="black" d="M509.133,-95C524.586,-95 547.584,-95 565.591,-95"/>
<polygon fill="black" stroke="black" points="565.783,-98.5001 575.783,-95 565.783,-91.5001 565.783,-98.5001"/>
<text text-anchor="middle" x="542.5" y="-98.4" font-family="arial" font-size="12.00">0.375</text>
</g>
<!-- 11 -->
<g id="node11" class="node"><title>11</title>
<ellipse fill="darksalmon" stroke="black" cx="697" cy="-95" rx="18" ry="18"/>
<text text-anchor="middle" x="697" y="-91.9" font-family="arial" font-size="12.00">Sink</text>
</g>
<!-- 9&#45;&gt;11 -->
<g id="edge12" class="edge"><title>9&#45;&gt;11</title>
<path fill="none" stroke="black" d="M612.133,-95C627.586,-95 650.584,-95 668.591,-95"/>
<polygon fill="black" stroke="black" points="668.783,-98.5001 678.783,-95 668.783,-91.5001 668.783,-98.5001"/>
<text text-anchor="middle" x="645.5" y="-98.4" font-family="arial" font-size="12.00">0.125</text>
</g>
<!-- 10 -->
<g id="node10" class="node"><title>10</title>
<ellipse fill="forestgreen" stroke="black" cx="18" cy="-92" rx="18" ry="18"/>
<text text-anchor="middle" x="18" y="-89.5" font-family="arial" font-size="10.00">Source</text>
</g>
<!-- 10&#45;&gt;1 -->
<g id="edge11" class="edge"><title>10&#45;&gt;1</title>
<path fill="none" stroke="black" d="M35.364,-97.2666C47.8803,-101.295 65.387,-106.929 79.84,-111.581"/>
<polygon fill="black" stroke="black" points="79.1179,-115.025 89.7093,-114.757 81.2625,-108.362 79.1179,-115.025"/>
<text text-anchor="middle" x="62.5" y="-111.4" font-family="arial" font-size="12.00">1.0</text>
</g>
<!-- 10&#45;&gt;2 -->
<g id="edge10" class="edge"><title>10&#45;&gt;2</title>
<path fill="none" stroke="black" d="M35.3072,-86.1545C41.1726,-84.1195 47.857,-81.8777 54,-80 62.1725,-77.5019 71.1384,-75.0029 79.2891,-72.8221"/>
<polygon fill="black" stroke="black" points="80.2752,-76.1819 89.0564,-70.254 78.4951,-69.412 80.2752,-76.1819"/>
<text text-anchor="middle" x="62.5" y="-83.4" font-family="arial" font-size="12.00">1.0</text>
</g>
</g>
</svg>
