<?xml version="1.0" encoding="UTF-8" standalone="no"?>
<!DOCTYPE svg PUBLIC "-//W3C//DTD SVG 1.1//EN"
 "http://www.w3.org/Graphics/SVG/1.1/DTD/svg11.dtd">
<!-- Generated by graphviz version 2.38.0 (20140413.2041)
 -->
<!-- Title: %3 Pages: 1 -->
<svg width="833pt" height="105pt"
 viewBox="0.00 0.00 833.00 105.00" xmlns="http://www.w3.org/2000/svg" xmlns:xlink="http://www.w3.org/1999/xlink">
<g id="graph0" class="graph" transform="scale(1 1) rotate(0) translate(4 101)">
<title>%3</title>
<polygon fill="white" stroke="none" points="-4,4 -4,-101 829,-101 829,4 -4,4"/>
<!-- 1 -->
<g id="node1" class="node"><title>1</title>
<ellipse fill="powderblue" stroke="black" cx="107" cy="-40" rx="18" ry="18"/>
<text text-anchor="middle" x="107" y="-36.9" font-family="arial" font-size="12.00">P0</text>
</g>
<!-- 2 -->
<g id="node2" class="node"><title>2</title>
<ellipse fill="powderblue" stroke="black" cx="196" cy="-72" rx="18" ry="18"/>
<text text-anchor="middle" x="196" y="-68.9" font-family="arial" font-size="12.00">P1</text>
</g>
<!-- 1&#45;&gt;2 -->
<g id="edge1" class="edge"><title>1&#45;&gt;2</title>
<path fill="none" stroke="black" d="M124.364,-46.019C137.002,-50.6673 154.727,-57.1871 169.26,-62.5325"/>
<polygon fill="black" stroke="black" points="168.116,-65.8408 178.709,-66.008 170.532,-59.2711 168.116,-65.8408"/>
<text text-anchor="middle" x="151.5" y="-61.4" font-family="arial" font-size="12.00">4.0</text>
</g>
<!-- 3 -->
<g id="node3" class="node"><title>3</title>
<ellipse fill="powderblue" stroke="black" cx="196" cy="-18" rx="18" ry="18"/>
<text text-anchor="middle" x="196" y="-14.9" font-family="arial" font-size="12.00">P2</text>
</g>
<!-- 1&#45;&gt;3 -->
<g id="edge2" class="edge"><title>1&#45;&gt;3</title>
<path fill="none" stroke="black" d="M124.774,-35.7582C137.171,-32.6234 154.296,-28.293 168.531,-24.6933"/>
<polygon fill="black" stroke="black" points="169.44,-28.0736 178.277,-22.2288 167.724,-21.2872 169.44,-28.0736"/>
<text text-anchor="middle" x="151.5" y="-34.4" font-family="arial" font-size="12.00">2.0</text>
</g>
<!-- 4 -->
<g id="node4" class="node"><title>4</title>
<ellipse fill="powderblue" stroke="black" cx="299" cy="-47" rx="18" ry="18"/>
<text text-anchor="middle" x="299" y="-43.9" font-family="arial" font-size="12.00">P3</text>
</g>
<!-- 2&#45;&gt;4 -->
<g id="edge3" class="edge"><title>2&#45;&gt;4</title>
<path fill="none" stroke="black" d="M213.678,-67.8718C229.395,-63.9815 253.2,-58.0891 271.513,-53.5561"/>
<polygon fill="black" stroke="black" points="272.431,-56.9347 281.297,-51.1344 270.749,-50.1397 272.431,-56.9347"/>
<text text-anchor="middle" x="247.5" y="-66.4" font-family="arial" font-size="12.00">4.0</text>
</g>
<!-- 3&#45;&gt;4 -->
<g id="edge4" class="edge"><title>3&#45;&gt;4</title>
<path fill="none" stroke="black" d="M213.678,-22.7888C229.395,-27.3014 253.2,-34.1366 271.513,-39.3949"/>
<polygon fill="black" stroke="black" points="270.72,-42.8084 281.297,-42.2041 272.651,-36.0802 270.72,-42.8084"/>
<text text-anchor="middle" x="247.5" y="-40.4" font-family="arial" font-size="12.00">0.667</text>
</g>
<!-- 5 -->
<g id="node5" class="node"><title>5</title>
<ellipse fill="powderblue" stroke="black" cx="402" cy="-47" rx="18" ry="18"/>
<text text-anchor="middle" x="402" y="-43.9" font-family="arial" font-size="12.00">P4</text>
</g>
<!-- 4&#45;&gt;5 -->
<g id="edge5" class="edge"><title>4&#45;&gt;5</title>
<path fill="none" stroke="black" d="M317.133,-47C332.586,-47 355.584,-47 373.591,-47"/>
<polygon fill="black" stroke="black" points="373.783,-50.5001 383.783,-47 373.783,-43.5001 373.783,-50.5001"/>
<text text-anchor="middle" x="350.5" y="-50.4" font-family="arial" font-size="12.00">0.333</text>
</g>
<!-- 6 -->
<g id="node6" class="node"><title>6</title>
<ellipse fill="powderblue" stroke="black" cx="505" cy="-79" rx="18" ry="18"/>
<text text-anchor="middle" x="505" y="-75.9" font-family="arial" font-size="12.00">P5</text>
</g>
<!-- 5&#45;&gt;6 -->
<g id="edge6" class="edge"><title>5&#45;&gt;6</title>
<path fill="none" stroke="black" d="M419.678,-52.2841C435.562,-57.3168 459.709,-64.9671 478.098,-70.7933"/>
<polygon fill="black" stroke="black" points="477.042,-74.1303 487.632,-73.8142 479.156,-67.4572 477.042,-74.1303"/>
<text text-anchor="middle" x="453.5" y="-70.4" font-family="arial" font-size="12.00">2.0</text>
</g>
<!-- 7 -->
<g id="node7" class="node"><title>7</title>
<ellipse fill="powderblue" stroke="black" cx="505" cy="-25" rx="18" ry="18"/>
<text text-anchor="middle" x="505" y="-21.9" font-family="arial" font-size="12.00">P6</text>
</g>
<!-- 5&#45;&gt;7 -->
<g id="edge7" class="edge"><title>5&#45;&gt;7</title>
<path fill="none" stroke="black" d="M419.723,-43.1215C425.507,-41.7948 432.035,-40.3144 438,-39 450.917,-36.154 465.28,-33.0947 477.301,-30.5641"/>
<polygon fill="black" stroke="black" points="478.097,-33.9733 487.166,-28.495 476.66,-27.1224 478.097,-33.9733"/>
<text text-anchor="middle" x="453.5" y="-42.4" font-family="arial" font-size="12.00">0.667</text>
</g>
<!-- 8 -->
<g id="node8" class="node"><title>8</title>
<ellipse fill="powderblue" stroke="black" cx="608" cy="-54" rx="18" ry="18"/>
<text text-anchor="middle" x="608" y="-50.9" font-family="arial" font-size="12.00">P7</text>
</g>
<!-- 6&#45;&gt;8 -->
<g id="edge8" class="edge"><title>6&#45;&gt;8</title>
<path fill="none" stroke="black" d="M522.678,-74.8718C538.395,-70.9815 562.2,-65.0891 580.513,-60.5561"/>
<polygon fill="black" stroke="black" points="581.431,-63.9347 590.297,-58.1344 579.749,-57.1397 581.431,-63.9347"/>
<text text-anchor="middle" x="556.5" y="-73.4" font-family="arial" font-size="12.00">1.5</text>
</g>
<!-- 7&#45;&gt;8 -->
<g id="edge9" class="edge"><title>7&#45;&gt;8</title>
<path fill="none" stroke="black" d="M522.678,-29.7888C538.395,-34.3014 562.2,-41.1366 580.513,-46.3949"/>
<polygon fill="black" stroke="black" points="579.72,-49.8084 590.297,-49.2041 581.651,-43.0802 579.72,-49.8084"/>
<text text-anchor="middle" x="556.5" y="-46.4" font-family="arial" font-size="12.00">0.333</text>
</g>
<!-- 9 -->
<g id="node9" class="node"><title>9</title>
<ellipse fill="powderblue" stroke="black" cx="711" cy="-54" rx="18" ry="18"/>
<text text-anchor="middle" x="711" y="-50.9" font-family="arial" font-size="12.00">P8</text>
</g>
<!-- 8&#45;&gt;9 -->
<g id="edge10" class="edge"><title>8&#45;&gt;9</title>
<path fill="none" stroke="black" d="M626.133,-54C641.586,-54 664.584,-54 682.591,-54"/>
<polygon fill="black" stroke="black" points="682.783,-57.5001 692.783,-54 682.783,-50.5001 682.783,-57.5001"/>
<text text-anchor="middle" x="659.5" y="-57.4" font-family="arial" font-size="12.00">0.667</text>
</g>
<!-- 11 -->
<g id="node11" class="node"><title>11</title>
<ellipse fill="darksalmon" stroke="black" cx="807" cy="-54" rx="18" ry="18"/>
<text text-anchor="middle" x="807" y="-50.9" font-family="arial" font-size="12.00">Sink</text>
</g>
<!-- 9&#45;&gt;11 -->
<g id="edge12" class="edge"><title>9&#45;&gt;11</title>
<path fill="none" stroke="black" d="M729.241,-54C743.022,-54 762.6,-54 778.535,-54"/>
<polygon fill="black" stroke="black" points="778.868,-57.5001 788.868,-54 778.868,-50.5001 778.868,-57.5001"/>
<text text-anchor="middle" x="759" y="-57.4" font-family="arial" font-size="12.00">1.33</text>
</g>
<!-- 10 -->
<g id="node10" class="node"><title>10</title>
<ellipse fill="forestgreen" stroke="black" cx="18" cy="-40" rx="18" ry="18"/>
<text text-anchor="middle" x="18" y="-37.5" font-family="arial" font-size="10.00">Source</text>
</g>
<!-- 10&#45;&gt;1 -->
<g id="edge11" class="edge"><title>10&#45;&gt;1</title>
<path fill="none" stroke="black" d="M36.1884,-40C48.3426,-40 64.8865,-40 78.8185,-40"/>
<polygon fill="black" stroke="black" points="78.8473,-43.5001 88.8473,-40 78.8473,-36.5001 78.8473,-43.5001"/>
<text text-anchor="middle" x="62.5" y="-43.4" font-family="arial" font-size="12.00">1.0</text>
</g>
</g>
</svg>
