<?xml version="1.0" encoding="UTF-8" standalone="no"?>
<!DOCTYPE svg PUBLIC "-//W3C//DTD SVG 1.1//EN"
 "http://www.w3.org/Graphics/SVG/1.1/DTD/svg11.dtd">
<!-- Generated by graphviz version 2.38.0 (20140413.2041)
 -->
<!-- Title: %3 Pages: 1 -->
<svg width="751pt" height="152pt"
 viewBox="0.00 0.00 751.00 152.00" xmlns="http://www.w3.org/2000/svg" xmlns:xlink="http://www.w3.org/1999/xlink">
<g id="graph0" class="graph" transform="scale(1 1) rotate(0) translate(4 148)">
<title>%3</title>
<polygon fill="white" stroke="none" points="-4,4 -4,-148 747,-148 747,4 -4,4"/>
<!-- 1 -->
<g id="node1" class="node"><title>1</title>
<ellipse fill="powderblue" stroke="black" cx="107" cy="-72" rx="18" ry="18"/>
<text text-anchor="middle" x="107" y="-68.9" font-family="arial" font-size="12.00">P0</text>
</g>
<!-- 2 -->
<g id="node2" class="node"><title>2</title>
<ellipse fill="powderblue" stroke="black" cx="210" cy="-126" rx="18" ry="18"/>
<text text-anchor="middle" x="210" y="-122.9" font-family="arial" font-size="12.00">P1</text>
</g>
<!-- 1&#45;&gt;2 -->
<g id="edge1" class="edge"><title>1&#45;&gt;2</title>
<path fill="none" stroke="black" d="M123.34,-80.2014C139.674,-88.9346 165.751,-102.877 184.847,-113.086"/>
<polygon fill="black" stroke="black" points="183.378,-116.27 193.847,-117.898 186.678,-110.097 183.378,-116.27"/>
<text text-anchor="middle" x="158.5" y="-109.4" font-family="arial" font-size="12.00">0.667</text>
</g>
<!-- 3 -->
<g id="node3" class="node"><title>3</title>
<ellipse fill="powderblue" stroke="black" cx="210" cy="-72" rx="18" ry="18"/>
<text text-anchor="middle" x="210" y="-68.9" font-family="arial" font-size="12.00">P2</text>
</g>
<!-- 1&#45;&gt;3 -->
<g id="edge2" class="edge"><title>1&#45;&gt;3</title>
<path fill="none" stroke="black" d="M125.133,-72C140.586,-72 163.584,-72 181.591,-72"/>
<polygon fill="black" stroke="black" points="181.783,-75.5001 191.783,-72 181.783,-68.5001 181.783,-75.5001"/>
<text text-anchor="middle" x="158.5" y="-75.4" font-family="arial" font-size="12.00">0.2</text>
</g>
<!-- 4 -->
<g id="node4" class="node"><title>4</title>
<ellipse fill="powderblue" stroke="black" cx="210" cy="-18" rx="18" ry="18"/>
<text text-anchor="middle" x="210" y="-14.9" font-family="arial" font-size="12.00">P3</text>
</g>
<!-- 1&#45;&gt;4 -->
<g id="edge3" class="edge"><title>1&#45;&gt;4</title>
<path fill="none" stroke="black" d="M123.34,-63.7986C139.674,-55.0654 165.751,-41.1234 184.847,-30.9137"/>
<polygon fill="black" stroke="black" points="186.678,-33.9032 193.847,-26.1017 183.378,-27.7301 186.678,-33.9032"/>
<text text-anchor="middle" x="158.5" y="-56.4" font-family="arial" font-size="12.00">0.667</text>
</g>
<!-- 5 -->
<g id="node5" class="node"><title>5</title>
<ellipse fill="powderblue" stroke="black" cx="313" cy="-72" rx="18" ry="18"/>
<text text-anchor="middle" x="313" y="-68.9" font-family="arial" font-size="12.00">P4</text>
</g>
<!-- 2&#45;&gt;5 -->
<g id="edge4" class="edge"><title>2&#45;&gt;5</title>
<path fill="none" stroke="black" d="M226.34,-117.799C242.674,-109.065 268.751,-95.1234 287.847,-84.9137"/>
<polygon fill="black" stroke="black" points="289.678,-87.9032 296.847,-80.1017 286.378,-81.7301 289.678,-87.9032"/>
<text text-anchor="middle" x="261.5" y="-109.4" font-family="arial" font-size="12.00">0.4</text>
</g>
<!-- 3&#45;&gt;5 -->
<g id="edge5" class="edge"><title>3&#45;&gt;5</title>
<path fill="none" stroke="black" d="M228.133,-72C243.586,-72 266.584,-72 284.591,-72"/>
<polygon fill="black" stroke="black" points="284.783,-75.5001 294.783,-72 284.783,-68.5001 284.783,-75.5001"/>
<text text-anchor="middle" x="261.5" y="-75.4" font-family="arial" font-size="12.00">1.0</text>
</g>
<!-- 4&#45;&gt;5 -->
<g id="edge6" class="edge"><title>4&#45;&gt;5</title>
<path fill="none" stroke="black" d="M226.34,-26.2014C242.674,-34.9346 268.751,-48.8766 287.847,-59.0863"/>
<polygon fill="black" stroke="black" points="286.378,-62.2699 296.847,-63.8983 289.678,-56.0968 286.378,-62.2699"/>
<text text-anchor="middle" x="261.5" y="-56.4" font-family="arial" font-size="12.00">0.111</text>
</g>
<!-- 6 -->
<g id="node6" class="node"><title>6</title>
<ellipse fill="powderblue" stroke="black" cx="416" cy="-104" rx="18" ry="18"/>
<text text-anchor="middle" x="416" y="-100.9" font-family="arial" font-size="12.00">P5</text>
</g>
<!-- 5&#45;&gt;6 -->
<g id="edge7" class="edge"><title>5&#45;&gt;6</title>
<path fill="none" stroke="black" d="M330.678,-77.2841C346.562,-82.3168 370.709,-89.9671 389.098,-95.7933"/>
<polygon fill="black" stroke="black" points="388.042,-99.1303 398.632,-98.8142 390.156,-92.4572 388.042,-99.1303"/>
<text text-anchor="middle" x="364.5" y="-95.4" font-family="arial" font-size="12.00">0.133</text>
</g>
<!-- 7 -->
<g id="node7" class="node"><title>7</title>
<ellipse fill="powderblue" stroke="black" cx="416" cy="-50" rx="18" ry="18"/>
<text text-anchor="middle" x="416" y="-46.9" font-family="arial" font-size="12.00">P6</text>
</g>
<!-- 5&#45;&gt;7 -->
<g id="edge8" class="edge"><title>5&#45;&gt;7</title>
<path fill="none" stroke="black" d="M330.723,-68.1215C336.507,-66.7948 343.035,-65.3144 349,-64 361.917,-61.154 376.28,-58.0947 388.301,-55.5641"/>
<polygon fill="black" stroke="black" points="389.097,-58.9733 398.166,-53.495 387.66,-52.1224 389.097,-58.9733"/>
<text text-anchor="middle" x="364.5" y="-67.4" font-family="arial" font-size="12.00">0.222</text>
</g>
<!-- 8 -->
<g id="node8" class="node"><title>8</title>
<ellipse fill="powderblue" stroke="black" cx="519" cy="-79" rx="18" ry="18"/>
<text text-anchor="middle" x="519" y="-75.9" font-family="arial" font-size="12.00">P7</text>
</g>
<!-- 6&#45;&gt;8 -->
<g id="edge9" class="edge"><title>6&#45;&gt;8</title>
<path fill="none" stroke="black" d="M433.678,-99.8718C449.395,-95.9815 473.2,-90.0891 491.513,-85.5561"/>
<polygon fill="black" stroke="black" points="492.431,-88.9347 501.297,-83.1344 490.749,-82.1397 492.431,-88.9347"/>
<text text-anchor="middle" x="467.5" y="-98.4" font-family="arial" font-size="12.00">0.267</text>
</g>
<!-- 7&#45;&gt;8 -->
<g id="edge10" class="edge"><title>7&#45;&gt;8</title>
<path fill="none" stroke="black" d="M433.678,-54.7888C449.395,-59.3014 473.2,-66.1366 491.513,-71.3949"/>
<polygon fill="black" stroke="black" points="490.72,-74.8084 501.297,-74.2041 492.651,-68.0802 490.72,-74.8084"/>
<text text-anchor="middle" x="467.5" y="-72.4" font-family="arial" font-size="12.00">0.444</text>
</g>
<!-- 9 -->
<g id="node9" class="node"><title>9</title>
<ellipse fill="powderblue" stroke="black" cx="622" cy="-79" rx="18" ry="18"/>
<text text-anchor="middle" x="622" y="-75.9" font-family="arial" font-size="12.00">P8</text>
</g>
<!-- 8&#45;&gt;9 -->
<g id="edge11" class="edge"><title>8&#45;&gt;9</title>
<path fill="none" stroke="black" d="M537.133,-79C552.586,-79 575.584,-79 593.591,-79"/>
<polygon fill="black" stroke="black" points="593.783,-82.5001 603.783,-79 593.783,-75.5001 593.783,-82.5001"/>
<text text-anchor="middle" x="570.5" y="-82.4" font-family="arial" font-size="12.00">0.333</text>
</g>
<!-- 11 -->
<g id="node11" class="node"><title>11</title>
<ellipse fill="darksalmon" stroke="black" cx="725" cy="-79" rx="18" ry="18"/>
<text text-anchor="middle" x="725" y="-75.9" font-family="arial" font-size="12.00">Sink</text>
</g>
<!-- 9&#45;&gt;11 -->
<g id="edge13" class="edge"><title>9&#45;&gt;11</title>
<path fill="none" stroke="black" d="M640.133,-79C655.586,-79 678.584,-79 696.591,-79"/>
<polygon fill="black" stroke="black" points="696.783,-82.5001 706.783,-79 696.783,-75.5001 696.783,-82.5001"/>
<text text-anchor="middle" x="673.5" y="-82.4" font-family="arial" font-size="12.00">0.833</text>
</g>
<!-- 10 -->
<g id="node10" class="node"><title>10</title>
<ellipse fill="forestgreen" stroke="black" cx="18" cy="-72" rx="18" ry="18"/>
<text text-anchor="middle" x="18" y="-69.5" font-family="arial" font-size="10.00">Source</text>
</g>
<!-- 10&#45;&gt;1 -->
<g id="edge12" class="edge"><title>10&#45;&gt;1</title>
<path fill="none" stroke="black" d="M36.1884,-72C48.3426,-72 64.8865,-72 78.8185,-72"/>
<polygon fill="black" stroke="black" points="78.8473,-75.5001 88.8473,-72 78.8473,-68.5001 78.8473,-75.5001"/>
<text text-anchor="middle" x="62.5" y="-75.4" font-family="arial" font-size="12.00">1.0</text>
</g>
</g>
</svg>
