<?xml version="1.0" encoding="UTF-8" standalone="no"?>
<!DOCTYPE svg PUBLIC "-//W3C//DTD SVG 1.1//EN"
 "http://www.w3.org/Graphics/SVG/1.1/DTD/svg11.dtd">
<!-- Generated by graphviz version 2.38.0 (20140413.2041)
 -->
<!-- Title: %3 Pages: 1 -->
<svg width="729pt" height="112pt"
 viewBox="0.00 0.00 729.00 112.00" xmlns="http://www.w3.org/2000/svg" xmlns:xlink="http://www.w3.org/1999/xlink">
<g id="graph0" class="graph" transform="scale(1 1) rotate(0) translate(4 108)">
<title>%3</title>
<polygon fill="white" stroke="none" points="-4,4 -4,-108 725,-108 725,4 -4,4"/>
<!-- 1 -->
<g id="node1" class="node"><title>1</title>
<ellipse fill="powderblue" stroke="black" cx="107" cy="-40" rx="18" ry="18"/>
<text text-anchor="middle" x="107" y="-36.9" font-family="arial" font-size="12.00">P0</text>
</g>
<!-- 2 -->
<g id="node2" class="node"><title>2</title>
<ellipse fill="powderblue" stroke="black" cx="196" cy="-72" rx="18" ry="18"/>
<text text-anchor="middle" x="196" y="-68.9" font-family="arial" font-size="12.00">P1</text>
</g>
<!-- 1&#45;&gt;2 -->
<g id="edge1" class="edge"><title>1&#45;&gt;2</title>
<path fill="none" stroke="black" d="M124.364,-46.019C137.002,-50.6673 154.727,-57.1871 169.26,-62.5325"/>
<polygon fill="black" stroke="black" points="168.116,-65.8408 178.709,-66.008 170.532,-59.2711 168.116,-65.8408"/>
<text text-anchor="middle" x="151.5" y="-61.4" font-family="arial" font-size="12.00">1.0</text>
</g>
<!-- 3 -->
<g id="node3" class="node"><title>3</title>
<ellipse fill="powderblue" stroke="black" cx="196" cy="-18" rx="18" ry="18"/>
<text text-anchor="middle" x="196" y="-14.9" font-family="arial" font-size="12.00">P2</text>
</g>
<!-- 1&#45;&gt;3 -->
<g id="edge2" class="edge"><title>1&#45;&gt;3</title>
<path fill="none" stroke="black" d="M124.774,-35.7582C137.171,-32.6234 154.296,-28.293 168.531,-24.6933"/>
<polygon fill="black" stroke="black" points="169.44,-28.0736 178.277,-22.2288 167.724,-21.2872 169.44,-28.0736"/>
<text text-anchor="middle" x="151.5" y="-34.4" font-family="arial" font-size="12.00">2.0</text>
</g>
<!-- 4 -->
<g id="node4" class="node"><title>4</title>
<ellipse fill="powderblue" stroke="black" cx="285" cy="-47" rx="18" ry="18"/>
<text text-anchor="middle" x="285" y="-43.9" font-family="arial" font-size="12.00">P3</text>
</g>
<!-- 2&#45;&gt;4 -->
<g id="edge3" class="edge"><title>2&#45;&gt;4</title>
<path fill="none" stroke="black" d="M213.774,-67.1797C226.251,-63.5946 243.516,-58.6334 257.805,-54.5274"/>
<polygon fill="black" stroke="black" points="258.928,-57.8464 267.572,-51.7207 256.994,-51.1187 258.928,-57.8464"/>
<text text-anchor="middle" x="240.5" y="-64.4" font-family="arial" font-size="12.00">2.5</text>
</g>
<!-- 3&#45;&gt;4 -->
<g id="edge4" class="edge"><title>3&#45;&gt;4</title>
<path fill="none" stroke="black" d="M213.364,-23.4547C225.88,-27.6268 243.387,-33.4623 257.84,-38.28"/>
<polygon fill="black" stroke="black" points="257.116,-41.7278 267.709,-41.5698 259.329,-35.087 257.116,-41.7278"/>
<text text-anchor="middle" x="240.5" y="-39.4" font-family="arial" font-size="12.00">2.0</text>
</g>
<!-- 5 -->
<g id="node5" class="node"><title>5</title>
<ellipse fill="powderblue" stroke="black" cx="388" cy="-79" rx="18" ry="18"/>
<text text-anchor="middle" x="388" y="-75.9" font-family="arial" font-size="12.00">P4</text>
</g>
<!-- 4&#45;&gt;5 -->
<g id="edge5" class="edge"><title>4&#45;&gt;5</title>
<path fill="none" stroke="black" d="M302.678,-52.2841C318.562,-57.3168 342.709,-64.9671 361.098,-70.7933"/>
<polygon fill="black" stroke="black" points="360.042,-74.1303 370.632,-73.8142 362.156,-67.4572 360.042,-74.1303"/>
<text text-anchor="middle" x="336.5" y="-70.4" font-family="arial" font-size="12.00">0.5</text>
</g>
<!-- 6 -->
<g id="node6" class="node"><title>6</title>
<ellipse fill="powderblue" stroke="black" cx="388" cy="-25" rx="18" ry="18"/>
<text text-anchor="middle" x="388" y="-21.9" font-family="arial" font-size="12.00">P5</text>
</g>
<!-- 4&#45;&gt;6 -->
<g id="edge6" class="edge"><title>4&#45;&gt;6</title>
<path fill="none" stroke="black" d="M302.723,-43.1215C308.507,-41.7948 315.035,-40.3144 321,-39 333.917,-36.154 348.28,-33.0947 360.301,-30.5641"/>
<polygon fill="black" stroke="black" points="361.097,-33.9733 370.166,-28.495 359.66,-27.1224 361.097,-33.9733"/>
<text text-anchor="middle" x="336.5" y="-42.4" font-family="arial" font-size="12.00">0.667</text>
</g>
<!-- 7 -->
<g id="node7" class="node"><title>7</title>
<ellipse fill="powderblue" stroke="black" cx="491" cy="-54" rx="18" ry="18"/>
<text text-anchor="middle" x="491" y="-50.9" font-family="arial" font-size="12.00">P6</text>
</g>
<!-- 5&#45;&gt;7 -->
<g id="edge7" class="edge"><title>5&#45;&gt;7</title>
<path fill="none" stroke="black" d="M405.678,-74.8718C421.395,-70.9815 445.2,-65.0891 463.513,-60.5561"/>
<polygon fill="black" stroke="black" points="464.431,-63.9347 473.297,-58.1344 462.749,-57.1397 464.431,-63.9347"/>
<text text-anchor="middle" x="439.5" y="-73.4" font-family="arial" font-size="12.00">0.3</text>
</g>
<!-- 6&#45;&gt;7 -->
<g id="edge8" class="edge"><title>6&#45;&gt;7</title>
<path fill="none" stroke="black" d="M405.678,-29.7888C421.395,-34.3014 445.2,-41.1366 463.513,-46.3949"/>
<polygon fill="black" stroke="black" points="462.72,-49.8084 473.297,-49.2041 464.651,-43.0802 462.72,-49.8084"/>
<text text-anchor="middle" x="439.5" y="-46.4" font-family="arial" font-size="12.00">0.167</text>
</g>
<!-- 8 -->
<g id="node8" class="node"><title>8</title>
<ellipse fill="powderblue" stroke="black" cx="600" cy="-86" rx="18" ry="18"/>
<text text-anchor="middle" x="600" y="-82.9" font-family="arial" font-size="12.00">P7</text>
</g>
<!-- 7&#45;&gt;8 -->
<g id="edge9" class="edge"><title>7&#45;&gt;8</title>
<path fill="none" stroke="black" d="M508.719,-59C525.837,-64.1194 552.691,-72.1507 572.667,-78.1248"/>
<polygon fill="black" stroke="black" points="571.815,-81.523 582.399,-81.0351 573.821,-74.8165 571.815,-81.523"/>
<text text-anchor="middle" x="545.5" y="-77.4" font-family="arial" font-size="12.00">0.3</text>
</g>
<!-- 9 -->
<g id="node9" class="node"><title>9</title>
<ellipse fill="powderblue" stroke="black" cx="600" cy="-32" rx="18" ry="18"/>
<text text-anchor="middle" x="600" y="-28.9" font-family="arial" font-size="12.00">P8</text>
</g>
<!-- 7&#45;&gt;9 -->
<g id="edge10" class="edge"><title>7&#45;&gt;9</title>
<path fill="none" stroke="black" d="M508.71,-50.0636C514.494,-48.7322 521.024,-47.2637 527,-46 541.844,-42.8612 558.467,-39.6115 571.998,-37.034"/>
<polygon fill="black" stroke="black" points="572.917,-40.4223 582.093,-35.126 571.617,-33.5441 572.917,-40.4223"/>
<text text-anchor="middle" x="545.5" y="-49.4" font-family="arial" font-size="12.00">0.0556</text>
</g>
<!-- 11 -->
<g id="node11" class="node"><title>11</title>
<ellipse fill="darksalmon" stroke="black" cx="703" cy="-61" rx="18" ry="18"/>
<text text-anchor="middle" x="703" y="-57.9" font-family="arial" font-size="12.00">Sink</text>
</g>
<!-- 8&#45;&gt;11 -->
<g id="edge13" class="edge"><title>8&#45;&gt;11</title>
<path fill="none" stroke="black" d="M617.678,-81.8718C633.395,-77.9815 657.2,-72.0891 675.513,-67.5561"/>
<polygon fill="black" stroke="black" points="676.431,-70.9347 685.297,-65.1344 674.749,-64.1397 676.431,-70.9347"/>
<text text-anchor="middle" x="651.5" y="-80.4" font-family="arial" font-size="12.00">0.075</text>
</g>
<!-- 9&#45;&gt;11 -->
<g id="edge12" class="edge"><title>9&#45;&gt;11</title>
<path fill="none" stroke="black" d="M617.678,-36.7888C633.395,-41.3014 657.2,-48.1366 675.513,-53.3949"/>
<polygon fill="black" stroke="black" points="674.72,-56.8084 685.297,-56.2041 676.651,-50.0802 674.72,-56.8084"/>
<text text-anchor="middle" x="651.5" y="-53.4" font-family="arial" font-size="12.00">0.139</text>
</g>
<!-- 10 -->
<g id="node10" class="node"><title>10</title>
<ellipse fill="forestgreen" stroke="black" cx="18" cy="-40" rx="18" ry="18"/>
<text text-anchor="middle" x="18" y="-37.5" font-family="arial" font-size="10.00">Source</text>
</g>
<!-- 10&#45;&gt;1 -->
<g id="edge11" class="edge"><title>10&#45;&gt;1</title>
<path fill="none" stroke="black" d="M36.1884,-40C48.3426,-40 64.8865,-40 78.8185,-40"/>
<polygon fill="black" stroke="black" points="78.8473,-43.5001 88.8473,-40 78.8473,-36.5001 78.8473,-43.5001"/>
<text text-anchor="middle" x="62.5" y="-43.4" font-family="arial" font-size="12.00">1.0</text>
</g>
</g>
</svg>
