<?xml version="1.0" encoding="UTF-8" standalone="no"?>
<!DOCTYPE svg PUBLIC "-//W3C//DTD SVG 1.1//EN"
 "http://www.w3.org/Graphics/SVG/1.1/DTD/svg11.dtd">
<!-- Generated by graphviz version 2.38.0 (20140413.2041)
 -->
<!-- Title: %3 Pages: 1 -->
<svg width="695pt" height="152pt"
 viewBox="0.00 0.00 695.00 152.00" xmlns="http://www.w3.org/2000/svg" xmlns:xlink="http://www.w3.org/1999/xlink">
<g id="graph0" class="graph" transform="scale(1 1) rotate(0) translate(4 148)">
<title>%3</title>
<polygon fill="white" stroke="none" points="-4,4 -4,-148 691,-148 691,4 -4,4"/>
<!-- 1 -->
<g id="node1" class="node"><title>1</title>
<ellipse fill="powderblue" stroke="black" cx="107" cy="-72" rx="18" ry="18"/>
<text text-anchor="middle" x="107" y="-68.9" font-family="arial" font-size="12.00">P0</text>
</g>
<!-- 2 -->
<g id="node2" class="node"><title>2</title>
<ellipse fill="powderblue" stroke="black" cx="196" cy="-126" rx="18" ry="18"/>
<text text-anchor="middle" x="196" y="-122.9" font-family="arial" font-size="12.00">P1</text>
</g>
<!-- 1&#45;&gt;2 -->
<g id="edge1" class="edge"><title>1&#45;&gt;2</title>
<path fill="none" stroke="black" d="M122.758,-81.1604C136.132,-89.4612 156.066,-101.834 171.608,-111.481"/>
<polygon fill="black" stroke="black" points="169.827,-114.495 180.169,-116.795 173.519,-108.547 169.827,-114.495"/>
<text text-anchor="middle" x="151.5" y="-106.4" font-family="arial" font-size="12.00">1.5</text>
</g>
<!-- 3 -->
<g id="node3" class="node"><title>3</title>
<ellipse fill="powderblue" stroke="black" cx="196" cy="-72" rx="18" ry="18"/>
<text text-anchor="middle" x="196" y="-68.9" font-family="arial" font-size="12.00">P2</text>
</g>
<!-- 1&#45;&gt;3 -->
<g id="edge2" class="edge"><title>1&#45;&gt;3</title>
<path fill="none" stroke="black" d="M125.188,-72C137.343,-72 153.886,-72 167.818,-72"/>
<polygon fill="black" stroke="black" points="167.847,-75.5001 177.847,-72 167.847,-68.5001 167.847,-75.5001"/>
<text text-anchor="middle" x="151.5" y="-75.4" font-family="arial" font-size="12.00">1.0</text>
</g>
<!-- 4 -->
<g id="node4" class="node"><title>4</title>
<ellipse fill="powderblue" stroke="black" cx="196" cy="-18" rx="18" ry="18"/>
<text text-anchor="middle" x="196" y="-14.9" font-family="arial" font-size="12.00">P3</text>
</g>
<!-- 1&#45;&gt;4 -->
<g id="edge3" class="edge"><title>1&#45;&gt;4</title>
<path fill="none" stroke="black" d="M122.758,-62.8396C136.132,-54.5388 156.066,-42.1662 171.608,-32.519"/>
<polygon fill="black" stroke="black" points="173.519,-35.4527 180.169,-27.2053 169.827,-29.5052 173.519,-35.4527"/>
<text text-anchor="middle" x="151.5" y="-53.4" font-family="arial" font-size="12.00">1.0</text>
</g>
<!-- 5 -->
<g id="node5" class="node"><title>5</title>
<ellipse fill="powderblue" stroke="black" cx="285" cy="-72" rx="18" ry="18"/>
<text text-anchor="middle" x="285" y="-68.9" font-family="arial" font-size="12.00">P4</text>
</g>
<!-- 2&#45;&gt;5 -->
<g id="edge4" class="edge"><title>2&#45;&gt;5</title>
<path fill="none" stroke="black" d="M211.758,-116.84C225.132,-108.539 245.066,-96.1662 260.608,-86.519"/>
<polygon fill="black" stroke="black" points="262.519,-89.4527 269.169,-81.2053 258.827,-83.5052 262.519,-89.4527"/>
<text text-anchor="middle" x="240.5" y="-106.4" font-family="arial" font-size="12.00">4.5</text>
</g>
<!-- 3&#45;&gt;5 -->
<g id="edge5" class="edge"><title>3&#45;&gt;5</title>
<path fill="none" stroke="black" d="M214.188,-72C226.343,-72 242.886,-72 256.818,-72"/>
<polygon fill="black" stroke="black" points="256.847,-75.5001 266.847,-72 256.847,-68.5001 256.847,-75.5001"/>
<text text-anchor="middle" x="240.5" y="-75.4" font-family="arial" font-size="12.00">1.0</text>
</g>
<!-- 4&#45;&gt;5 -->
<g id="edge6" class="edge"><title>4&#45;&gt;5</title>
<path fill="none" stroke="black" d="M211.758,-27.1604C225.132,-35.4612 245.066,-47.8338 260.608,-57.481"/>
<polygon fill="black" stroke="black" points="258.827,-60.4948 269.169,-62.7947 262.519,-54.5473 258.827,-60.4948"/>
<text text-anchor="middle" x="240.5" y="-53.4" font-family="arial" font-size="12.00">0.5</text>
</g>
<!-- 6 -->
<g id="node6" class="node"><title>6</title>
<ellipse fill="powderblue" stroke="black" cx="374" cy="-72" rx="18" ry="18"/>
<text text-anchor="middle" x="374" y="-68.9" font-family="arial" font-size="12.00">P5</text>
</g>
<!-- 5&#45;&gt;6 -->
<g id="edge7" class="edge"><title>5&#45;&gt;6</title>
<path fill="none" stroke="black" d="M303.188,-72C315.343,-72 331.886,-72 345.818,-72"/>
<polygon fill="black" stroke="black" points="345.847,-75.5001 355.847,-72 345.847,-68.5001 345.847,-75.5001"/>
<text text-anchor="middle" x="329.5" y="-75.4" font-family="arial" font-size="12.00">0.5</text>
</g>
<!-- 7 -->
<g id="node7" class="node"><title>7</title>
<ellipse fill="powderblue" stroke="black" cx="470" cy="-72" rx="18" ry="18"/>
<text text-anchor="middle" x="470" y="-68.9" font-family="arial" font-size="12.00">P6</text>
</g>
<!-- 6&#45;&gt;7 -->
<g id="edge8" class="edge"><title>6&#45;&gt;7</title>
<path fill="none" stroke="black" d="M392.241,-72C406.022,-72 425.6,-72 441.535,-72"/>
<polygon fill="black" stroke="black" points="441.868,-75.5001 451.868,-72 441.868,-68.5001 441.868,-75.5001"/>
<text text-anchor="middle" x="422" y="-75.4" font-family="arial" font-size="12.00">0.75</text>
</g>
<!-- 8 -->
<g id="node8" class="node"><title>8</title>
<ellipse fill="powderblue" stroke="black" cx="566" cy="-104" rx="18" ry="18"/>
<text text-anchor="middle" x="566" y="-100.9" font-family="arial" font-size="12.00">P7</text>
</g>
<!-- 7&#45;&gt;8 -->
<g id="edge9" class="edge"><title>7&#45;&gt;8</title>
<path fill="none" stroke="black" d="M487.374,-77.574C501.661,-82.4379 522.637,-89.5786 539.183,-95.2114"/>
<polygon fill="black" stroke="black" points="538.22,-98.5805 548.814,-98.4899 540.476,-91.9539 538.22,-98.5805"/>
<text text-anchor="middle" x="518" y="-94.4" font-family="arial" font-size="12.00">0.75</text>
</g>
<!-- 9 -->
<g id="node9" class="node"><title>9</title>
<ellipse fill="powderblue" stroke="black" cx="566" cy="-50" rx="18" ry="18"/>
<text text-anchor="middle" x="566" y="-46.9" font-family="arial" font-size="12.00">P8</text>
</g>
<!-- 7&#45;&gt;9 -->
<g id="edge10" class="edge"><title>7&#45;&gt;9</title>
<path fill="none" stroke="black" d="M487.805,-68.0668C501.841,-64.782 522.106,-60.039 538.351,-56.237"/>
<polygon fill="black" stroke="black" points="539.401,-59.5859 548.34,-53.8991 537.806,-52.7701 539.401,-59.5859"/>
<text text-anchor="middle" x="518" y="-67.4" font-family="arial" font-size="12.00">0.5</text>
</g>
<!-- 11 -->
<g id="node11" class="node"><title>11</title>
<ellipse fill="darksalmon" stroke="black" cx="669" cy="-79" rx="18" ry="18"/>
<text text-anchor="middle" x="669" y="-75.9" font-family="arial" font-size="12.00">Sink</text>
</g>
<!-- 8&#45;&gt;11 -->
<g id="edge13" class="edge"><title>8&#45;&gt;11</title>
<path fill="none" stroke="black" d="M583.678,-99.8718C599.395,-95.9815 623.2,-90.0891 641.513,-85.5561"/>
<polygon fill="black" stroke="black" points="642.431,-88.9347 651.297,-83.1344 640.749,-82.1397 642.431,-88.9347"/>
<text text-anchor="middle" x="617.5" y="-98.4" font-family="arial" font-size="12.00">0.375</text>
</g>
<!-- 9&#45;&gt;11 -->
<g id="edge12" class="edge"><title>9&#45;&gt;11</title>
<path fill="none" stroke="black" d="M583.678,-54.7888C599.395,-59.3014 623.2,-66.1366 641.513,-71.3949"/>
<polygon fill="black" stroke="black" points="640.72,-74.8084 651.297,-74.2041 642.651,-68.0802 640.72,-74.8084"/>
<text text-anchor="middle" x="617.5" y="-72.4" font-family="arial" font-size="12.00">0.375</text>
</g>
<!-- 10 -->
<g id="node10" class="node"><title>10</title>
<ellipse fill="forestgreen" stroke="black" cx="18" cy="-72" rx="18" ry="18"/>
<text text-anchor="middle" x="18" y="-69.5" font-family="arial" font-size="10.00">Source</text>
</g>
<!-- 10&#45;&gt;1 -->
<g id="edge11" class="edge"><title>10&#45;&gt;1</title>
<path fill="none" stroke="black" d="M36.1884,-72C48.3426,-72 64.8865,-72 78.8185,-72"/>
<polygon fill="black" stroke="black" points="78.8473,-75.5001 88.8473,-72 78.8473,-68.5001 78.8473,-75.5001"/>
<text text-anchor="middle" x="62.5" y="-75.4" font-family="arial" font-size="12.00">1.0</text>
</g>
</g>
</svg>
