<?xml version="1.0" encoding="UTF-8" standalone="no"?>
<!DOCTYPE svg PUBLIC "-//W3C//DTD SVG 1.1//EN"
 "http://www.w3.org/Graphics/SVG/1.1/DTD/svg11.dtd">
<!-- Generated by graphviz version 2.38.0 (20140413.2041)
 -->
<!-- Title: %3 Pages: 1 -->
<svg width="730pt" height="152pt"
 viewBox="0.00 0.00 730.00 152.00" xmlns="http://www.w3.org/2000/svg" xmlns:xlink="http://www.w3.org/1999/xlink">
<g id="graph0" class="graph" transform="scale(1 1) rotate(0) translate(4 148)">
<title>%3</title>
<polygon fill="white" stroke="none" points="-4,4 -4,-148 726,-148 726,4 -4,4"/>
<!-- 1 -->
<g id="node1" class="node"><title>1</title>
<ellipse fill="powderblue" stroke="black" cx="107" cy="-40" rx="18" ry="18"/>
<text text-anchor="middle" x="107" y="-36.9" font-family="arial" font-size="12.00">P0</text>
</g>
<!-- 2 -->
<g id="node2" class="node"><title>2</title>
<ellipse fill="powderblue" stroke="black" cx="196" cy="-40" rx="18" ry="18"/>
<text text-anchor="middle" x="196" y="-36.9" font-family="arial" font-size="12.00">P1</text>
</g>
<!-- 1&#45;&gt;2 -->
<g id="edge1" class="edge"><title>1&#45;&gt;2</title>
<path fill="none" stroke="black" d="M125.188,-40C137.343,-40 153.886,-40 167.818,-40"/>
<polygon fill="black" stroke="black" points="167.847,-43.5001 177.847,-40 167.847,-36.5001 167.847,-43.5001"/>
<text text-anchor="middle" x="151.5" y="-43.4" font-family="arial" font-size="12.00">2.0</text>
</g>
<!-- 3 -->
<g id="node3" class="node"><title>3</title>
<ellipse fill="powderblue" stroke="black" cx="292" cy="-40" rx="18" ry="18"/>
<text text-anchor="middle" x="292" y="-36.9" font-family="arial" font-size="12.00">P2</text>
</g>
<!-- 2&#45;&gt;3 -->
<g id="edge2" class="edge"><title>2&#45;&gt;3</title>
<path fill="none" stroke="black" d="M214.241,-40C228.022,-40 247.6,-40 263.535,-40"/>
<polygon fill="black" stroke="black" points="263.868,-43.5001 273.868,-40 263.868,-36.5001 263.868,-43.5001"/>
<text text-anchor="middle" x="244" y="-43.4" font-family="arial" font-size="12.00">1.33</text>
</g>
<!-- 4 -->
<g id="node4" class="node"><title>4</title>
<ellipse fill="powderblue" stroke="black" cx="395" cy="-72" rx="18" ry="18"/>
<text text-anchor="middle" x="395" y="-68.9" font-family="arial" font-size="12.00">P3</text>
</g>
<!-- 3&#45;&gt;4 -->
<g id="edge3" class="edge"><title>3&#45;&gt;4</title>
<path fill="none" stroke="black" d="M309.678,-45.2841C325.562,-50.3168 349.709,-57.9671 368.098,-63.7933"/>
<polygon fill="black" stroke="black" points="367.042,-67.1303 377.632,-66.8142 369.156,-60.4572 367.042,-67.1303"/>
<text text-anchor="middle" x="343.5" y="-63.4" font-family="arial" font-size="12.00">1.33</text>
</g>
<!-- 5 -->
<g id="node5" class="node"><title>5</title>
<ellipse fill="powderblue" stroke="black" cx="395" cy="-18" rx="18" ry="18"/>
<text text-anchor="middle" x="395" y="-14.9" font-family="arial" font-size="12.00">P4</text>
</g>
<!-- 3&#45;&gt;5 -->
<g id="edge4" class="edge"><title>3&#45;&gt;5</title>
<path fill="none" stroke="black" d="M309.723,-36.1215C315.507,-34.7948 322.035,-33.3144 328,-32 340.917,-29.154 355.28,-26.0947 367.301,-23.5641"/>
<polygon fill="black" stroke="black" points="368.097,-26.9733 377.166,-21.495 366.66,-20.1224 368.097,-26.9733"/>
<text text-anchor="middle" x="343.5" y="-35.4" font-family="arial" font-size="12.00">0.667</text>
</g>
<!-- 7 -->
<g id="node7" class="node"><title>7</title>
<ellipse fill="powderblue" stroke="black" cx="498" cy="-126" rx="18" ry="18"/>
<text text-anchor="middle" x="498" y="-122.9" font-family="arial" font-size="12.00">P6</text>
</g>
<!-- 4&#45;&gt;7 -->
<g id="edge6" class="edge"><title>4&#45;&gt;7</title>
<path fill="none" stroke="black" d="M411.34,-80.2014C427.674,-88.9346 453.751,-102.877 472.847,-113.086"/>
<polygon fill="black" stroke="black" points="471.378,-116.27 481.847,-117.898 474.678,-110.097 471.378,-116.27"/>
<text text-anchor="middle" x="446.5" y="-109.4" font-family="arial" font-size="12.00">2.67</text>
</g>
<!-- 8 -->
<g id="node8" class="node"><title>8</title>
<ellipse fill="powderblue" stroke="black" cx="498" cy="-72" rx="18" ry="18"/>
<text text-anchor="middle" x="498" y="-68.9" font-family="arial" font-size="12.00">P7</text>
</g>
<!-- 4&#45;&gt;8 -->
<g id="edge7" class="edge"><title>4&#45;&gt;8</title>
<path fill="none" stroke="black" d="M413.133,-72C428.586,-72 451.584,-72 469.591,-72"/>
<polygon fill="black" stroke="black" points="469.783,-75.5001 479.783,-72 469.783,-68.5001 469.783,-75.5001"/>
<text text-anchor="middle" x="446.5" y="-75.4" font-family="arial" font-size="12.00">1.33</text>
</g>
<!-- 6 -->
<g id="node6" class="node"><title>6</title>
<ellipse fill="powderblue" stroke="black" cx="498" cy="-18" rx="18" ry="18"/>
<text text-anchor="middle" x="498" y="-14.9" font-family="arial" font-size="12.00">P5</text>
</g>
<!-- 5&#45;&gt;6 -->
<g id="edge5" class="edge"><title>5&#45;&gt;6</title>
<path fill="none" stroke="black" d="M413.133,-18C428.586,-18 451.584,-18 469.591,-18"/>
<polygon fill="black" stroke="black" points="469.783,-21.5001 479.783,-18 469.783,-14.5001 469.783,-21.5001"/>
<text text-anchor="middle" x="446.5" y="-21.4" font-family="arial" font-size="12.00">0.889</text>
</g>
<!-- 9 -->
<g id="node9" class="node"><title>9</title>
<ellipse fill="powderblue" stroke="black" cx="601" cy="-72" rx="18" ry="18"/>
<text text-anchor="middle" x="601" y="-68.9" font-family="arial" font-size="12.00">P8</text>
</g>
<!-- 6&#45;&gt;9 -->
<g id="edge8" class="edge"><title>6&#45;&gt;9</title>
<path fill="none" stroke="black" d="M514.34,-26.2014C530.674,-34.9346 556.751,-48.8766 575.847,-59.0863"/>
<polygon fill="black" stroke="black" points="574.378,-62.2699 584.847,-63.8983 577.678,-56.0968 574.378,-62.2699"/>
<text text-anchor="middle" x="549.5" y="-55.4" font-family="arial" font-size="12.00">0.593</text>
</g>
<!-- 7&#45;&gt;9 -->
<g id="edge9" class="edge"><title>7&#45;&gt;9</title>
<path fill="none" stroke="black" d="M514.34,-117.799C530.674,-109.065 556.751,-95.1234 575.847,-84.9137"/>
<polygon fill="black" stroke="black" points="577.678,-87.9032 584.847,-80.1017 574.378,-81.7301 577.678,-87.9032"/>
<text text-anchor="middle" x="549.5" y="-109.4" font-family="arial" font-size="12.00">21.3</text>
</g>
<!-- 8&#45;&gt;9 -->
<g id="edge10" class="edge"><title>8&#45;&gt;9</title>
<path fill="none" stroke="black" d="M516.133,-72C531.586,-72 554.584,-72 572.591,-72"/>
<polygon fill="black" stroke="black" points="572.783,-75.5001 582.783,-72 572.783,-68.5001 572.783,-75.5001"/>
<text text-anchor="middle" x="549.5" y="-75.4" font-family="arial" font-size="12.00">0.667</text>
</g>
<!-- 11 -->
<g id="node11" class="node"><title>11</title>
<ellipse fill="darksalmon" stroke="black" cx="704" cy="-72" rx="18" ry="18"/>
<text text-anchor="middle" x="704" y="-68.9" font-family="arial" font-size="12.00">Sink</text>
</g>
<!-- 9&#45;&gt;11 -->
<g id="edge12" class="edge"><title>9&#45;&gt;11</title>
<path fill="none" stroke="black" d="M619.133,-72C634.586,-72 657.584,-72 675.591,-72"/>
<polygon fill="black" stroke="black" points="675.783,-75.5001 685.783,-72 675.783,-68.5001 675.783,-75.5001"/>
<text text-anchor="middle" x="652.5" y="-75.4" font-family="arial" font-size="12.00">0.296</text>
</g>
<!-- 10 -->
<g id="node10" class="node"><title>10</title>
<ellipse fill="forestgreen" stroke="black" cx="18" cy="-40" rx="18" ry="18"/>
<text text-anchor="middle" x="18" y="-37.5" font-family="arial" font-size="10.00">Source</text>
</g>
<!-- 10&#45;&gt;1 -->
<g id="edge11" class="edge"><title>10&#45;&gt;1</title>
<path fill="none" stroke="black" d="M36.1884,-40C48.3426,-40 64.8865,-40 78.8185,-40"/>
<polygon fill="black" stroke="black" points="78.8473,-43.5001 88.8473,-40 78.8473,-36.5001 78.8473,-43.5001"/>
<text text-anchor="middle" x="62.5" y="-43.4" font-family="arial" font-size="12.00">1.0</text>
</g>
</g>
</svg>
