<?xml version="1.0" encoding="UTF-8" standalone="no"?>
<!DOCTYPE svg PUBLIC "-//W3C//DTD SVG 1.1//EN"
 "http://www.w3.org/Graphics/SVG/1.1/DTD/svg11.dtd">
<!-- Generated by graphviz version 2.38.0 (20140413.2041)
 -->
<!-- Title: %3 Pages: 1 -->
<svg width="871pt" height="152pt"
 viewBox="0.00 0.00 871.00 152.00" xmlns="http://www.w3.org/2000/svg" xmlns:xlink="http://www.w3.org/1999/xlink">
<g id="graph0" class="graph" transform="scale(1 1) rotate(0) translate(4 148)">
<title>%3</title>
<polygon fill="white" stroke="none" points="-4,4 -4,-148 867,-148 867,4 -4,4"/>
<!-- 1 -->
<g id="node1" class="node"><title>1</title>
<ellipse fill="powderblue" stroke="black" cx="107" cy="-72" rx="18" ry="18"/>
<text text-anchor="middle" x="107" y="-68.9" font-family="arial" font-size="12.00">P0</text>
</g>
<!-- 2 -->
<g id="node2" class="node"><title>2</title>
<ellipse fill="powderblue" stroke="black" cx="196" cy="-72" rx="18" ry="18"/>
<text text-anchor="middle" x="196" y="-68.9" font-family="arial" font-size="12.00">P1</text>
</g>
<!-- 1&#45;&gt;2 -->
<g id="edge1" class="edge"><title>1&#45;&gt;2</title>
<path fill="none" stroke="black" d="M125.188,-72C137.343,-72 153.886,-72 167.818,-72"/>
<polygon fill="black" stroke="black" points="167.847,-75.5001 177.847,-72 167.847,-68.5001 167.847,-75.5001"/>
<text text-anchor="middle" x="151.5" y="-75.4" font-family="arial" font-size="12.00">0.5</text>
</g>
<!-- 3 -->
<g id="node3" class="node"><title>3</title>
<ellipse fill="powderblue" stroke="black" cx="299" cy="-72" rx="18" ry="18"/>
<text text-anchor="middle" x="299" y="-68.9" font-family="arial" font-size="12.00">P2</text>
</g>
<!-- 2&#45;&gt;3 -->
<g id="edge2" class="edge"><title>2&#45;&gt;3</title>
<path fill="none" stroke="black" d="M214.133,-72C229.586,-72 252.584,-72 270.591,-72"/>
<polygon fill="black" stroke="black" points="270.783,-75.5001 280.783,-72 270.783,-68.5001 270.783,-75.5001"/>
<text text-anchor="middle" x="247.5" y="-75.4" font-family="arial" font-size="12.00">0.167</text>
</g>
<!-- 4 -->
<g id="node4" class="node"><title>4</title>
<ellipse fill="powderblue" stroke="black" cx="402" cy="-72" rx="18" ry="18"/>
<text text-anchor="middle" x="402" y="-68.9" font-family="arial" font-size="12.00">P3</text>
</g>
<!-- 3&#45;&gt;4 -->
<g id="edge3" class="edge"><title>3&#45;&gt;4</title>
<path fill="none" stroke="black" d="M317.133,-72C332.586,-72 355.584,-72 373.591,-72"/>
<polygon fill="black" stroke="black" points="373.783,-75.5001 383.783,-72 373.783,-68.5001 373.783,-75.5001"/>
<text text-anchor="middle" x="350.5" y="-75.4" font-family="arial" font-size="12.00">0.167</text>
</g>
<!-- 5 -->
<g id="node5" class="node"><title>5</title>
<ellipse fill="powderblue" stroke="black" cx="511" cy="-126" rx="18" ry="18"/>
<text text-anchor="middle" x="511" y="-122.9" font-family="arial" font-size="12.00">P4</text>
</g>
<!-- 4&#45;&gt;5 -->
<g id="edge4" class="edge"><title>4&#45;&gt;5</title>
<path fill="none" stroke="black" d="M418.33,-79.7369C435.89,-88.5988 464.897,-103.238 485.577,-113.675"/>
<polygon fill="black" stroke="black" points="484.193,-116.897 494.698,-118.277 487.347,-110.647 484.193,-116.897"/>
<text text-anchor="middle" x="456.5" y="-109.4" font-family="arial" font-size="12.00">0.417</text>
</g>
<!-- 6 -->
<g id="node6" class="node"><title>6</title>
<ellipse fill="powderblue" stroke="black" cx="511" cy="-72" rx="18" ry="18"/>
<text text-anchor="middle" x="511" y="-68.9" font-family="arial" font-size="12.00">P5</text>
</g>
<!-- 4&#45;&gt;6 -->
<g id="edge5" class="edge"><title>4&#45;&gt;6</title>
<path fill="none" stroke="black" d="M420.191,-72C437.039,-72 462.982,-72 482.661,-72"/>
<polygon fill="black" stroke="black" points="482.851,-75.5001 492.851,-72 482.851,-68.5001 482.851,-75.5001"/>
<text text-anchor="middle" x="456.5" y="-75.4" font-family="arial" font-size="12.00">0.0476</text>
</g>
<!-- 7 -->
<g id="node7" class="node"><title>7</title>
<ellipse fill="powderblue" stroke="black" cx="511" cy="-18" rx="18" ry="18"/>
<text text-anchor="middle" x="511" y="-14.9" font-family="arial" font-size="12.00">P6</text>
</g>
<!-- 4&#45;&gt;7 -->
<g id="edge6" class="edge"><title>4&#45;&gt;7</title>
<path fill="none" stroke="black" d="M418.33,-64.2631C435.89,-55.4012 464.897,-40.7623 485.577,-30.3254"/>
<polygon fill="black" stroke="black" points="487.347,-33.3527 494.698,-25.7225 484.193,-27.1034 487.347,-33.3527"/>
<text text-anchor="middle" x="456.5" y="-56.4" font-family="arial" font-size="12.00">0.0556</text>
</g>
<!-- 8 -->
<g id="node8" class="node"><title>8</title>
<ellipse fill="powderblue" stroke="black" cx="620" cy="-72" rx="18" ry="18"/>
<text text-anchor="middle" x="620" y="-68.9" font-family="arial" font-size="12.00">P7</text>
</g>
<!-- 5&#45;&gt;8 -->
<g id="edge7" class="edge"><title>5&#45;&gt;8</title>
<path fill="none" stroke="black" d="M527.33,-118.263C544.89,-109.401 573.897,-94.7623 594.577,-84.3254"/>
<polygon fill="black" stroke="black" points="596.347,-87.3527 603.698,-79.7225 593.193,-81.1034 596.347,-87.3527"/>
<text text-anchor="middle" x="565.5" y="-109.4" font-family="arial" font-size="12.00">0.139</text>
</g>
<!-- 6&#45;&gt;8 -->
<g id="edge8" class="edge"><title>6&#45;&gt;8</title>
<path fill="none" stroke="black" d="M529.191,-72C546.039,-72 571.982,-72 591.661,-72"/>
<polygon fill="black" stroke="black" points="591.851,-75.5001 601.851,-72 591.851,-68.5001 591.851,-75.5001"/>
<text text-anchor="middle" x="565.5" y="-75.4" font-family="arial" font-size="12.00">0.19</text>
</g>
<!-- 7&#45;&gt;8 -->
<g id="edge9" class="edge"><title>7&#45;&gt;8</title>
<path fill="none" stroke="black" d="M527.33,-25.7369C544.89,-34.5988 573.897,-49.2377 594.577,-59.6746"/>
<polygon fill="black" stroke="black" points="593.193,-62.8966 603.698,-64.2775 596.347,-56.6473 593.193,-62.8966"/>
<text text-anchor="middle" x="565.5" y="-56.4" font-family="arial" font-size="12.00">0.0556</text>
</g>
<!-- 9 -->
<g id="node9" class="node"><title>9</title>
<ellipse fill="powderblue" stroke="black" cx="729" cy="-72" rx="18" ry="18"/>
<text text-anchor="middle" x="729" y="-68.9" font-family="arial" font-size="12.00">P8</text>
</g>
<!-- 8&#45;&gt;9 -->
<g id="edge10" class="edge"><title>8&#45;&gt;9</title>
<path fill="none" stroke="black" d="M638.191,-72C655.039,-72 680.982,-72 700.661,-72"/>
<polygon fill="black" stroke="black" points="700.851,-75.5001 710.851,-72 700.851,-68.5001 700.851,-75.5001"/>
<text text-anchor="middle" x="674.5" y="-75.4" font-family="arial" font-size="12.00">0.0278</text>
</g>
<!-- 11 -->
<g id="node11" class="node"><title>11</title>
<ellipse fill="darksalmon" stroke="black" cx="845" cy="-72" rx="18" ry="18"/>
<text text-anchor="middle" x="845" y="-68.9" font-family="arial" font-size="12.00">Sink</text>
</g>
<!-- 9&#45;&gt;11 -->
<g id="edge12" class="edge"><title>9&#45;&gt;11</title>
<path fill="none" stroke="black" d="M747.314,-72C765.751,-72 795.184,-72 816.738,-72"/>
<polygon fill="black" stroke="black" points="816.896,-75.5001 826.896,-72 816.896,-68.5001 816.896,-75.5001"/>
<text text-anchor="middle" x="787" y="-75.4" font-family="arial" font-size="12.00">0.00926</text>
</g>
<!-- 10 -->
<g id="node10" class="node"><title>10</title>
<ellipse fill="forestgreen" stroke="black" cx="18" cy="-72" rx="18" ry="18"/>
<text text-anchor="middle" x="18" y="-69.5" font-family="arial" font-size="10.00">Source</text>
</g>
<!-- 10&#45;&gt;1 -->
<g id="edge11" class="edge"><title>10&#45;&gt;1</title>
<path fill="none" stroke="black" d="M36.1884,-72C48.3426,-72 64.8865,-72 78.8185,-72"/>
<polygon fill="black" stroke="black" points="78.8473,-75.5001 88.8473,-72 78.8473,-68.5001 78.8473,-75.5001"/>
<text text-anchor="middle" x="62.5" y="-75.4" font-family="arial" font-size="12.00">1.0</text>
</g>
</g>
</svg>
