<?xml version="1.0" encoding="UTF-8" standalone="no"?>
<!DOCTYPE svg PUBLIC "-//W3C//DTD SVG 1.1//EN"
 "http://www.w3.org/Graphics/SVG/1.1/DTD/svg11.dtd">
<!-- Generated by graphviz version 2.38.0 (20140413.2041)
 -->
<!-- Title: %3 Pages: 1 -->
<svg width="708pt" height="152pt"
 viewBox="0.00 0.00 708.00 152.00" xmlns="http://www.w3.org/2000/svg" xmlns:xlink="http://www.w3.org/1999/xlink">
<g id="graph0" class="graph" transform="scale(1 1) rotate(0) translate(4 148)">
<title>%3</title>
<polygon fill="white" stroke="none" points="-4,4 -4,-148 704,-148 704,4 -4,4"/>
<!-- 1 -->
<g id="node1" class="node"><title>1</title>
<ellipse fill="powderblue" stroke="black" cx="107" cy="-97" rx="18" ry="18"/>
<text text-anchor="middle" x="107" y="-93.9" font-family="arial" font-size="12.00">P0</text>
</g>
<!-- 3 -->
<g id="node3" class="node"><title>3</title>
<ellipse fill="powderblue" stroke="black" cx="196" cy="-72" rx="18" ry="18"/>
<text text-anchor="middle" x="196" y="-68.9" font-family="arial" font-size="12.00">P2</text>
</g>
<!-- 1&#45;&gt;3 -->
<g id="edge1" class="edge"><title>1&#45;&gt;3</title>
<path fill="none" stroke="black" d="M124.774,-92.1797C137.251,-88.5946 154.516,-83.6334 168.805,-79.5274"/>
<polygon fill="black" stroke="black" points="169.928,-82.8464 178.572,-76.7207 167.994,-76.1187 169.928,-82.8464"/>
<text text-anchor="middle" x="151.5" y="-89.4" font-family="arial" font-size="12.00">3.0</text>
</g>
<!-- 2 -->
<g id="node2" class="node"><title>2</title>
<ellipse fill="powderblue" stroke="black" cx="107" cy="-43" rx="18" ry="18"/>
<text text-anchor="middle" x="107" y="-39.9" font-family="arial" font-size="12.00">P1</text>
</g>
<!-- 2&#45;&gt;3 -->
<g id="edge2" class="edge"><title>2&#45;&gt;3</title>
<path fill="none" stroke="black" d="M124.364,-48.4547C136.88,-52.6268 154.387,-58.4623 168.84,-63.28"/>
<polygon fill="black" stroke="black" points="168.116,-66.7278 178.709,-66.5698 170.329,-60.087 168.116,-66.7278"/>
<text text-anchor="middle" x="151.5" y="-63.4" font-family="arial" font-size="12.00">1.0</text>
</g>
<!-- 4 -->
<g id="node4" class="node"><title>4</title>
<ellipse fill="powderblue" stroke="black" cx="285" cy="-72" rx="18" ry="18"/>
<text text-anchor="middle" x="285" y="-68.9" font-family="arial" font-size="12.00">P3</text>
</g>
<!-- 3&#45;&gt;4 -->
<g id="edge3" class="edge"><title>3&#45;&gt;4</title>
<path fill="none" stroke="black" d="M214.188,-72C226.343,-72 242.886,-72 256.818,-72"/>
<polygon fill="black" stroke="black" points="256.847,-75.5001 266.847,-72 256.847,-68.5001 256.847,-75.5001"/>
<text text-anchor="middle" x="240.5" y="-75.4" font-family="arial" font-size="12.00">1.0</text>
</g>
<!-- 5 -->
<g id="node5" class="node"><title>5</title>
<ellipse fill="powderblue" stroke="black" cx="374" cy="-72" rx="18" ry="18"/>
<text text-anchor="middle" x="374" y="-68.9" font-family="arial" font-size="12.00">P4</text>
</g>
<!-- 4&#45;&gt;5 -->
<g id="edge4" class="edge"><title>4&#45;&gt;5</title>
<path fill="none" stroke="black" d="M303.188,-72C315.343,-72 331.886,-72 345.818,-72"/>
<polygon fill="black" stroke="black" points="345.847,-75.5001 355.847,-72 345.847,-68.5001 345.847,-75.5001"/>
<text text-anchor="middle" x="329.5" y="-75.4" font-family="arial" font-size="12.00">1.0</text>
</g>
<!-- 6 -->
<g id="node6" class="node"><title>6</title>
<ellipse fill="powderblue" stroke="black" cx="470" cy="-72" rx="18" ry="18"/>
<text text-anchor="middle" x="470" y="-68.9" font-family="arial" font-size="12.00">P5</text>
</g>
<!-- 5&#45;&gt;6 -->
<g id="edge5" class="edge"><title>5&#45;&gt;6</title>
<path fill="none" stroke="black" d="M392.241,-72C406.022,-72 425.6,-72 441.535,-72"/>
<polygon fill="black" stroke="black" points="441.868,-75.5001 451.868,-72 441.868,-68.5001 441.868,-75.5001"/>
<text text-anchor="middle" x="422" y="-75.4" font-family="arial" font-size="12.00">0.25</text>
</g>
<!-- 7 -->
<g id="node7" class="node"><title>7</title>
<ellipse fill="powderblue" stroke="black" cx="573" cy="-126" rx="18" ry="18"/>
<text text-anchor="middle" x="573" y="-122.9" font-family="arial" font-size="12.00">P6</text>
</g>
<!-- 6&#45;&gt;7 -->
<g id="edge6" class="edge"><title>6&#45;&gt;7</title>
<path fill="none" stroke="black" d="M486.34,-80.2014C502.674,-88.9346 528.751,-102.877 547.847,-113.086"/>
<polygon fill="black" stroke="black" points="546.378,-116.27 556.847,-117.898 549.678,-110.097 546.378,-116.27"/>
<text text-anchor="middle" x="521.5" y="-109.4" font-family="arial" font-size="12.00">0.125</text>
</g>
<!-- 8 -->
<g id="node8" class="node"><title>8</title>
<ellipse fill="powderblue" stroke="black" cx="573" cy="-72" rx="18" ry="18"/>
<text text-anchor="middle" x="573" y="-68.9" font-family="arial" font-size="12.00">P7</text>
</g>
<!-- 6&#45;&gt;8 -->
<g id="edge7" class="edge"><title>6&#45;&gt;8</title>
<path fill="none" stroke="black" d="M488.133,-72C503.586,-72 526.584,-72 544.591,-72"/>
<polygon fill="black" stroke="black" points="544.783,-75.5001 554.783,-72 544.783,-68.5001 544.783,-75.5001"/>
<text text-anchor="middle" x="521.5" y="-75.4" font-family="arial" font-size="12.00">0.25</text>
</g>
<!-- 9 -->
<g id="node9" class="node"><title>9</title>
<ellipse fill="powderblue" stroke="black" cx="573" cy="-18" rx="18" ry="18"/>
<text text-anchor="middle" x="573" y="-14.9" font-family="arial" font-size="12.00">P8</text>
</g>
<!-- 6&#45;&gt;9 -->
<g id="edge8" class="edge"><title>6&#45;&gt;9</title>
<path fill="none" stroke="black" d="M486.34,-63.7986C502.674,-55.0654 528.751,-41.1234 547.847,-30.9137"/>
<polygon fill="black" stroke="black" points="549.678,-33.9032 556.847,-26.1017 546.378,-27.7301 549.678,-33.9032"/>
<text text-anchor="middle" x="521.5" y="-56.4" font-family="arial" font-size="12.00">0.625</text>
</g>
<!-- 11 -->
<g id="node11" class="node"><title>11</title>
<ellipse fill="darksalmon" stroke="black" cx="682" cy="-72" rx="18" ry="18"/>
<text text-anchor="middle" x="682" y="-68.9" font-family="arial" font-size="12.00">Sink</text>
</g>
<!-- 7&#45;&gt;11 -->
<g id="edge13" class="edge"><title>7&#45;&gt;11</title>
<path fill="none" stroke="black" d="M589.33,-118.263C606.89,-109.401 635.897,-94.7623 656.577,-84.3254"/>
<polygon fill="black" stroke="black" points="658.347,-87.3527 665.698,-79.7225 655.193,-81.1034 658.347,-87.3527"/>
<text text-anchor="middle" x="627.5" y="-109.4" font-family="arial" font-size="12.00">0.0417</text>
</g>
<!-- 8&#45;&gt;11 -->
<g id="edge12" class="edge"><title>8&#45;&gt;11</title>
<path fill="none" stroke="black" d="M591.191,-72C608.039,-72 633.982,-72 653.661,-72"/>
<polygon fill="black" stroke="black" points="653.851,-75.5001 663.851,-72 653.851,-68.5001 653.851,-75.5001"/>
<text text-anchor="middle" x="627.5" y="-75.4" font-family="arial" font-size="12.00">0.0833</text>
</g>
<!-- 9&#45;&gt;11 -->
<g id="edge11" class="edge"><title>9&#45;&gt;11</title>
<path fill="none" stroke="black" d="M589.33,-25.7369C606.89,-34.5988 635.897,-49.2377 656.577,-59.6746"/>
<polygon fill="black" stroke="black" points="655.193,-62.8966 665.698,-64.2775 658.347,-56.6473 655.193,-62.8966"/>
<text text-anchor="middle" x="627.5" y="-56.4" font-family="arial" font-size="12.00">0.625</text>
</g>
<!-- 10 -->
<g id="node10" class="node"><title>10</title>
<ellipse fill="forestgreen" stroke="black" cx="18" cy="-69" rx="18" ry="18"/>
<text text-anchor="middle" x="18" y="-66.5" font-family="arial" font-size="10.00">Source</text>
</g>
<!-- 10&#45;&gt;1 -->
<g id="edge10" class="edge"><title>10&#45;&gt;1</title>
<path fill="none" stroke="black" d="M35.364,-74.2666C47.8803,-78.2948 65.387,-83.9292 79.84,-88.5807"/>
<polygon fill="black" stroke="black" points="79.1179,-92.025 89.7093,-91.757 81.2625,-85.3616 79.1179,-92.025"/>
<text text-anchor="middle" x="62.5" y="-88.4" font-family="arial" font-size="12.00">1.0</text>
</g>
<!-- 10&#45;&gt;2 -->
<g id="edge9" class="edge"><title>10&#45;&gt;2</title>
<path fill="none" stroke="black" d="M35.3072,-63.1545C41.1726,-61.1195 47.857,-58.8777 54,-57 62.1725,-54.5019 71.1384,-52.0029 79.2891,-49.8221"/>
<polygon fill="black" stroke="black" points="80.2752,-53.1819 89.0564,-47.254 78.4951,-46.412 80.2752,-53.1819"/>
<text text-anchor="middle" x="62.5" y="-60.4" font-family="arial" font-size="12.00">1.0</text>
</g>
</g>
</svg>
