<?xml version="1.0" encoding="UTF-8" standalone="no"?>
<!DOCTYPE svg PUBLIC "-//W3C//DTD SVG 1.1//EN"
 "http://www.w3.org/Graphics/SVG/1.1/DTD/svg11.dtd">
<!-- Generated by graphviz version 2.38.0 (20140413.2041)
 -->
<!-- Title: %3 Pages: 1 -->
<svg width="775pt" height="152pt"
 viewBox="0.00 0.00 775.00 152.00" xmlns="http://www.w3.org/2000/svg" xmlns:xlink="http://www.w3.org/1999/xlink">
<g id="graph0" class="graph" transform="scale(1 1) rotate(0) translate(4 148)">
<title>%3</title>
<polygon fill="white" stroke="none" points="-4,4 -4,-148 771,-148 771,4 -4,4"/>
<!-- 1 -->
<g id="node1" class="node"><title>1</title>
<ellipse fill="powderblue" stroke="black" cx="107" cy="-72" rx="18" ry="18"/>
<text text-anchor="middle" x="107" y="-68.9" font-family="arial" font-size="12.00">P0</text>
</g>
<!-- 2 -->
<g id="node2" class="node"><title>2</title>
<ellipse fill="powderblue" stroke="black" cx="210" cy="-72" rx="18" ry="18"/>
<text text-anchor="middle" x="210" y="-68.9" font-family="arial" font-size="12.00">P1</text>
</g>
<!-- 1&#45;&gt;2 -->
<g id="edge1" class="edge"><title>1&#45;&gt;2</title>
<path fill="none" stroke="black" d="M125.133,-72C140.586,-72 163.584,-72 181.591,-72"/>
<polygon fill="black" stroke="black" points="181.783,-75.5001 191.783,-72 181.783,-68.5001 181.783,-75.5001"/>
<text text-anchor="middle" x="158.5" y="-75.4" font-family="arial" font-size="12.00">0.167</text>
</g>
<!-- 3 -->
<g id="node3" class="node"><title>3</title>
<ellipse fill="powderblue" stroke="black" cx="319" cy="-72" rx="18" ry="18"/>
<text text-anchor="middle" x="319" y="-68.9" font-family="arial" font-size="12.00">P2</text>
</g>
<!-- 2&#45;&gt;3 -->
<g id="edge2" class="edge"><title>2&#45;&gt;3</title>
<path fill="none" stroke="black" d="M228.191,-72C245.039,-72 270.982,-72 290.661,-72"/>
<polygon fill="black" stroke="black" points="290.851,-75.5001 300.851,-72 290.851,-68.5001 290.851,-75.5001"/>
<text text-anchor="middle" x="264.5" y="-75.4" font-family="arial" font-size="12.00">0.0833</text>
</g>
<!-- 4 -->
<g id="node4" class="node"><title>4</title>
<ellipse fill="powderblue" stroke="black" cx="422" cy="-126" rx="18" ry="18"/>
<text text-anchor="middle" x="422" y="-122.9" font-family="arial" font-size="12.00">P3</text>
</g>
<!-- 3&#45;&gt;4 -->
<g id="edge3" class="edge"><title>3&#45;&gt;4</title>
<path fill="none" stroke="black" d="M335.34,-80.2014C351.674,-88.9346 377.751,-102.877 396.847,-113.086"/>
<polygon fill="black" stroke="black" points="395.378,-116.27 405.847,-117.898 398.678,-110.097 395.378,-116.27"/>
<text text-anchor="middle" x="370.5" y="-109.4" font-family="arial" font-size="12.00">0.167</text>
</g>
<!-- 5 -->
<g id="node5" class="node"><title>5</title>
<ellipse fill="powderblue" stroke="black" cx="422" cy="-72" rx="18" ry="18"/>
<text text-anchor="middle" x="422" y="-68.9" font-family="arial" font-size="12.00">P4</text>
</g>
<!-- 3&#45;&gt;5 -->
<g id="edge4" class="edge"><title>3&#45;&gt;5</title>
<path fill="none" stroke="black" d="M337.133,-72C352.586,-72 375.584,-72 393.591,-72"/>
<polygon fill="black" stroke="black" points="393.783,-75.5001 403.783,-72 393.783,-68.5001 393.783,-75.5001"/>
<text text-anchor="middle" x="370.5" y="-75.4" font-family="arial" font-size="12.00">0.167</text>
</g>
<!-- 6 -->
<g id="node6" class="node"><title>6</title>
<ellipse fill="powderblue" stroke="black" cx="422" cy="-18" rx="18" ry="18"/>
<text text-anchor="middle" x="422" y="-14.9" font-family="arial" font-size="12.00">P5</text>
</g>
<!-- 3&#45;&gt;6 -->
<g id="edge5" class="edge"><title>3&#45;&gt;6</title>
<path fill="none" stroke="black" d="M335.34,-63.7986C351.674,-55.0654 377.751,-41.1234 396.847,-30.9137"/>
<polygon fill="black" stroke="black" points="398.678,-33.9032 405.847,-26.1017 395.378,-27.7301 398.678,-33.9032"/>
<text text-anchor="middle" x="370.5" y="-56.4" font-family="arial" font-size="12.00">0.139</text>
</g>
<!-- 7 -->
<g id="node7" class="node"><title>7</title>
<ellipse fill="powderblue" stroke="black" cx="531" cy="-72" rx="18" ry="18"/>
<text text-anchor="middle" x="531" y="-68.9" font-family="arial" font-size="12.00">P6</text>
</g>
<!-- 4&#45;&gt;7 -->
<g id="edge6" class="edge"><title>4&#45;&gt;7</title>
<path fill="none" stroke="black" d="M438.33,-118.263C455.89,-109.401 484.897,-94.7623 505.577,-84.3254"/>
<polygon fill="black" stroke="black" points="507.347,-87.3527 514.698,-79.7225 504.193,-81.1034 507.347,-87.3527"/>
<text text-anchor="middle" x="476.5" y="-109.4" font-family="arial" font-size="12.00">0.0556</text>
</g>
<!-- 5&#45;&gt;7 -->
<g id="edge7" class="edge"><title>5&#45;&gt;7</title>
<path fill="none" stroke="black" d="M440.191,-72C457.039,-72 482.982,-72 502.661,-72"/>
<polygon fill="black" stroke="black" points="502.851,-75.5001 512.851,-72 502.851,-68.5001 502.851,-75.5001"/>
<text text-anchor="middle" x="476.5" y="-75.4" font-family="arial" font-size="12.00">0.333</text>
</g>
<!-- 6&#45;&gt;7 -->
<g id="edge8" class="edge"><title>6&#45;&gt;7</title>
<path fill="none" stroke="black" d="M438.33,-25.7369C455.89,-34.5988 484.897,-49.2377 505.577,-59.6746"/>
<polygon fill="black" stroke="black" points="504.193,-62.8966 514.698,-64.2775 507.347,-56.6473 504.193,-62.8966"/>
<text text-anchor="middle" x="476.5" y="-56.4" font-family="arial" font-size="12.00">0.278</text>
</g>
<!-- 8 -->
<g id="node8" class="node"><title>8</title>
<ellipse fill="powderblue" stroke="black" cx="640" cy="-104" rx="18" ry="18"/>
<text text-anchor="middle" x="640" y="-100.9" font-family="arial" font-size="12.00">P7</text>
</g>
<!-- 7&#45;&gt;8 -->
<g id="edge9" class="edge"><title>7&#45;&gt;8</title>
<path fill="none" stroke="black" d="M548.719,-77C565.837,-82.1194 592.691,-90.1507 612.667,-96.1248"/>
<polygon fill="black" stroke="black" points="611.815,-99.523 622.399,-99.0351 613.821,-92.8165 611.815,-99.523"/>
<text text-anchor="middle" x="585.5" y="-95.4" font-family="arial" font-size="12.00">0.0278</text>
</g>
<!-- 9 -->
<g id="node9" class="node"><title>9</title>
<ellipse fill="powderblue" stroke="black" cx="640" cy="-50" rx="18" ry="18"/>
<text text-anchor="middle" x="640" y="-46.9" font-family="arial" font-size="12.00">P8</text>
</g>
<!-- 7&#45;&gt;9 -->
<g id="edge10" class="edge"><title>7&#45;&gt;9</title>
<path fill="none" stroke="black" d="M548.71,-68.0636C554.494,-66.7322 561.024,-65.2637 567,-64 581.844,-60.8612 598.467,-57.6115 611.998,-55.034"/>
<polygon fill="black" stroke="black" points="612.917,-58.4223 622.093,-53.126 611.617,-51.5441 612.917,-58.4223"/>
<text text-anchor="middle" x="585.5" y="-67.4" font-family="arial" font-size="12.00">0.278</text>
</g>
<!-- 11 -->
<g id="node11" class="node"><title>11</title>
<ellipse fill="darksalmon" stroke="black" cx="749" cy="-79" rx="18" ry="18"/>
<text text-anchor="middle" x="749" y="-75.9" font-family="arial" font-size="12.00">Sink</text>
</g>
<!-- 8&#45;&gt;11 -->
<g id="edge13" class="edge"><title>8&#45;&gt;11</title>
<path fill="none" stroke="black" d="M657.719,-100.094C674.758,-96.1126 701.445,-89.8773 721.392,-85.2168"/>
<polygon fill="black" stroke="black" points="722.457,-88.5623 731.399,-82.8788 720.865,-81.7459 722.457,-88.5623"/>
<text text-anchor="middle" x="694.5" y="-98.4" font-family="arial" font-size="12.00">0.0694</text>
</g>
<!-- 9&#45;&gt;11 -->
<g id="edge12" class="edge"><title>9&#45;&gt;11</title>
<path fill="none" stroke="black" d="M657.719,-54.5312C674.837,-59.1707 701.691,-66.4491 721.667,-71.8631"/>
<polygon fill="black" stroke="black" points="720.831,-75.2627 731.399,-74.5006 722.662,-68.5065 720.831,-75.2627"/>
<text text-anchor="middle" x="694.5" y="-72.4" font-family="arial" font-size="12.00">0.139</text>
</g>
<!-- 10 -->
<g id="node10" class="node"><title>10</title>
<ellipse fill="forestgreen" stroke="black" cx="18" cy="-72" rx="18" ry="18"/>
<text text-anchor="middle" x="18" y="-69.5" font-family="arial" font-size="10.00">Source</text>
</g>
<!-- 10&#45;&gt;1 -->
<g id="edge11" class="edge"><title>10&#45;&gt;1</title>
<path fill="none" stroke="black" d="M36.1884,-72C48.3426,-72 64.8865,-72 78.8185,-72"/>
<polygon fill="black" stroke="black" points="78.8473,-75.5001 88.8473,-72 78.8473,-68.5001 78.8473,-75.5001"/>
<text text-anchor="middle" x="62.5" y="-75.4" font-family="arial" font-size="12.00">1.0</text>
</g>
</g>
</svg>
