<?xml version="1.0" encoding="UTF-8" standalone="no"?>
<!DOCTYPE svg PUBLIC "-//W3C//DTD SVG 1.1//EN"
 "http://www.w3.org/Graphics/SVG/1.1/DTD/svg11.dtd">
<!-- Generated by graphviz version 2.38.0 (20140413.2041)
 -->
<!-- Title: %3 Pages: 1 -->
<svg width="674pt" height="152pt"
 viewBox="0.00 0.00 674.00 152.00" xmlns="http://www.w3.org/2000/svg" xmlns:xlink="http://www.w3.org/1999/xlink">
<g id="graph0" class="graph" transform="scale(1 1) rotate(0) translate(4 148)">
<title>%3</title>
<polygon fill="white" stroke="none" points="-4,4 -4,-148 670,-148 670,4 -4,4"/>
<!-- 1 -->
<g id="node1" class="node"><title>1</title>
<ellipse fill="powderblue" stroke="black" cx="107" cy="-126" rx="18" ry="18"/>
<text text-anchor="middle" x="107" y="-122.9" font-family="arial" font-size="12.00">P0</text>
</g>
<!-- 5 -->
<g id="node5" class="node"><title>5</title>
<ellipse fill="powderblue" stroke="black" cx="285" cy="-126" rx="18" ry="18"/>
<text text-anchor="middle" x="285" y="-122.9" font-family="arial" font-size="12.00">P4</text>
</g>
<!-- 1&#45;&gt;5 -->
<g id="edge3" class="edge"><title>1&#45;&gt;5</title>
<path fill="none" stroke="black" d="M125.196,-126C155.767,-126 219.805,-126 256.538,-126"/>
<polygon fill="black" stroke="black" points="256.993,-129.5 266.993,-126 256.993,-122.5 256.993,-129.5"/>
<text text-anchor="middle" x="196" y="-129.4" font-family="arial" font-size="12.00">2.0</text>
</g>
<!-- 2 -->
<g id="node2" class="node"><title>2</title>
<ellipse fill="powderblue" stroke="black" cx="107" cy="-72" rx="18" ry="18"/>
<text text-anchor="middle" x="107" y="-68.9" font-family="arial" font-size="12.00">P1</text>
</g>
<!-- 3 -->
<g id="node3" class="node"><title>3</title>
<ellipse fill="powderblue" stroke="black" cx="196" cy="-72" rx="18" ry="18"/>
<text text-anchor="middle" x="196" y="-68.9" font-family="arial" font-size="12.00">P2</text>
</g>
<!-- 2&#45;&gt;3 -->
<g id="edge1" class="edge"><title>2&#45;&gt;3</title>
<path fill="none" stroke="black" d="M125.188,-72C137.343,-72 153.886,-72 167.818,-72"/>
<polygon fill="black" stroke="black" points="167.847,-75.5001 177.847,-72 167.847,-68.5001 167.847,-75.5001"/>
<text text-anchor="middle" x="151.5" y="-75.4" font-family="arial" font-size="12.00">1.5</text>
</g>
<!-- 4 -->
<g id="node4" class="node"><title>4</title>
<ellipse fill="powderblue" stroke="black" cx="285" cy="-72" rx="18" ry="18"/>
<text text-anchor="middle" x="285" y="-68.9" font-family="arial" font-size="12.00">P3</text>
</g>
<!-- 3&#45;&gt;4 -->
<g id="edge2" class="edge"><title>3&#45;&gt;4</title>
<path fill="none" stroke="black" d="M214.188,-72C226.343,-72 242.886,-72 256.818,-72"/>
<polygon fill="black" stroke="black" points="256.847,-75.5001 266.847,-72 256.847,-68.5001 256.847,-75.5001"/>
<text text-anchor="middle" x="240.5" y="-75.4" font-family="arial" font-size="12.00">4.5</text>
</g>
<!-- 6 -->
<g id="node6" class="node"><title>6</title>
<ellipse fill="powderblue" stroke="black" cx="285" cy="-18" rx="18" ry="18"/>
<text text-anchor="middle" x="285" y="-14.9" font-family="arial" font-size="12.00">P5</text>
</g>
<!-- 3&#45;&gt;6 -->
<g id="edge4" class="edge"><title>3&#45;&gt;6</title>
<path fill="none" stroke="black" d="M211.758,-62.8396C225.132,-54.5388 245.066,-42.1662 260.608,-32.519"/>
<polygon fill="black" stroke="black" points="262.519,-35.4527 269.169,-27.2053 258.827,-29.5052 262.519,-35.4527"/>
<text text-anchor="middle" x="240.5" y="-53.4" font-family="arial" font-size="12.00">0.9</text>
</g>
<!-- 7 -->
<g id="node7" class="node"><title>7</title>
<ellipse fill="powderblue" stroke="black" cx="374" cy="-72" rx="18" ry="18"/>
<text text-anchor="middle" x="374" y="-68.9" font-family="arial" font-size="12.00">P6</text>
</g>
<!-- 4&#45;&gt;7 -->
<g id="edge5" class="edge"><title>4&#45;&gt;7</title>
<path fill="none" stroke="black" d="M303.188,-72C315.343,-72 331.886,-72 345.818,-72"/>
<polygon fill="black" stroke="black" points="345.847,-75.5001 355.847,-72 345.847,-68.5001 345.847,-75.5001"/>
<text text-anchor="middle" x="329.5" y="-75.4" font-family="arial" font-size="12.00">1.5</text>
</g>
<!-- 5&#45;&gt;7 -->
<g id="edge6" class="edge"><title>5&#45;&gt;7</title>
<path fill="none" stroke="black" d="M300.758,-116.84C314.132,-108.539 334.066,-96.1662 349.608,-86.519"/>
<polygon fill="black" stroke="black" points="351.519,-89.4527 358.169,-81.2053 347.827,-83.5052 351.519,-89.4527"/>
<text text-anchor="middle" x="329.5" y="-106.4" font-family="arial" font-size="12.00">1.0</text>
</g>
<!-- 6&#45;&gt;7 -->
<g id="edge7" class="edge"><title>6&#45;&gt;7</title>
<path fill="none" stroke="black" d="M300.758,-27.1604C314.132,-35.4612 334.066,-47.8338 349.608,-57.481"/>
<polygon fill="black" stroke="black" points="347.827,-60.4948 358.169,-62.7947 351.519,-54.5473 347.827,-60.4948"/>
<text text-anchor="middle" x="329.5" y="-53.4" font-family="arial" font-size="12.00">1.8</text>
</g>
<!-- 8 -->
<g id="node8" class="node"><title>8</title>
<ellipse fill="powderblue" stroke="black" cx="463" cy="-72" rx="18" ry="18"/>
<text text-anchor="middle" x="463" y="-68.9" font-family="arial" font-size="12.00">P7</text>
</g>
<!-- 7&#45;&gt;8 -->
<g id="edge8" class="edge"><title>7&#45;&gt;8</title>
<path fill="none" stroke="black" d="M392.188,-72C404.343,-72 420.886,-72 434.818,-72"/>
<polygon fill="black" stroke="black" points="434.847,-75.5001 444.847,-72 434.847,-68.5001 434.847,-75.5001"/>
<text text-anchor="middle" x="418.5" y="-75.4" font-family="arial" font-size="12.00">0.5</text>
</g>
<!-- 9 -->
<g id="node9" class="node"><title>9</title>
<ellipse fill="powderblue" stroke="black" cx="552" cy="-72" rx="18" ry="18"/>
<text text-anchor="middle" x="552" y="-68.9" font-family="arial" font-size="12.00">P8</text>
</g>
<!-- 8&#45;&gt;9 -->
<g id="edge9" class="edge"><title>8&#45;&gt;9</title>
<path fill="none" stroke="black" d="M481.188,-72C493.343,-72 509.886,-72 523.818,-72"/>
<polygon fill="black" stroke="black" points="523.847,-75.5001 533.847,-72 523.847,-68.5001 523.847,-75.5001"/>
<text text-anchor="middle" x="507.5" y="-75.4" font-family="arial" font-size="12.00">1.0</text>
</g>
<!-- 11 -->
<g id="node11" class="node"><title>11</title>
<ellipse fill="darksalmon" stroke="black" cx="648" cy="-72" rx="18" ry="18"/>
<text text-anchor="middle" x="648" y="-68.9" font-family="arial" font-size="12.00">Sink</text>
</g>
<!-- 9&#45;&gt;11 -->
<g id="edge12" class="edge"><title>9&#45;&gt;11</title>
<path fill="none" stroke="black" d="M570.241,-72C584.022,-72 603.6,-72 619.535,-72"/>
<polygon fill="black" stroke="black" points="619.868,-75.5001 629.868,-72 619.868,-68.5001 619.868,-75.5001"/>
<text text-anchor="middle" x="600" y="-75.4" font-family="arial" font-size="12.00">1.67</text>
</g>
<!-- 10 -->
<g id="node10" class="node"><title>10</title>
<ellipse fill="forestgreen" stroke="black" cx="18" cy="-98" rx="18" ry="18"/>
<text text-anchor="middle" x="18" y="-95.5" font-family="arial" font-size="10.00">Source</text>
</g>
<!-- 10&#45;&gt;1 -->
<g id="edge11" class="edge"><title>10&#45;&gt;1</title>
<path fill="none" stroke="black" d="M35.364,-103.267C47.8803,-107.295 65.387,-112.929 79.84,-117.581"/>
<polygon fill="black" stroke="black" points="79.1179,-121.025 89.7093,-120.757 81.2625,-114.362 79.1179,-121.025"/>
<text text-anchor="middle" x="62.5" y="-117.4" font-family="arial" font-size="12.00">1.0</text>
</g>
<!-- 10&#45;&gt;2 -->
<g id="edge10" class="edge"><title>10&#45;&gt;2</title>
<path fill="none" stroke="black" d="M35.3072,-92.1545C41.1726,-90.1195 47.857,-87.8777 54,-86 62.1725,-83.5019 71.1384,-81.0029 79.2891,-78.8221"/>
<polygon fill="black" stroke="black" points="80.2752,-82.1819 89.0564,-76.254 78.4951,-75.412 80.2752,-82.1819"/>
<text text-anchor="middle" x="62.5" y="-89.4" font-family="arial" font-size="12.00">1.0</text>
</g>
</g>
</svg>
