<?xml version="1.0" encoding="UTF-8" standalone="no"?>
<!DOCTYPE svg PUBLIC "-//W3C//DTD SVG 1.1//EN"
 "http://www.w3.org/Graphics/SVG/1.1/DTD/svg11.dtd">
<!-- Generated by graphviz version 2.38.0 (20140413.2041)
 -->
<!-- Title: %3 Pages: 1 -->
<svg width="715pt" height="152pt"
 viewBox="0.00 0.00 715.00 152.00" xmlns="http://www.w3.org/2000/svg" xmlns:xlink="http://www.w3.org/1999/xlink">
<g id="graph0" class="graph" transform="scale(1 1) rotate(0) translate(4 148)">
<title>%3</title>
<polygon fill="white" stroke="none" points="-4,4 -4,-148 711,-148 711,4 -4,4"/>
<!-- 1 -->
<g id="node1" class="node"><title>1</title>
<ellipse fill="powderblue" stroke="black" cx="107" cy="-72" rx="18" ry="18"/>
<text text-anchor="middle" x="107" y="-68.9" font-family="arial" font-size="12.00">P0</text>
</g>
<!-- 2 -->
<g id="node2" class="node"><title>2</title>
<ellipse fill="powderblue" stroke="black" cx="196" cy="-72" rx="18" ry="18"/>
<text text-anchor="middle" x="196" y="-68.9" font-family="arial" font-size="12.00">P1</text>
</g>
<!-- 1&#45;&gt;2 -->
<g id="edge1" class="edge"><title>1&#45;&gt;2</title>
<path fill="none" stroke="black" d="M125.188,-72C137.343,-72 153.886,-72 167.818,-72"/>
<polygon fill="black" stroke="black" points="167.847,-75.5001 177.847,-72 167.847,-68.5001 167.847,-75.5001"/>
<text text-anchor="middle" x="151.5" y="-75.4" font-family="arial" font-size="12.00">1.5</text>
</g>
<!-- 3 -->
<g id="node3" class="node"><title>3</title>
<ellipse fill="powderblue" stroke="black" cx="285" cy="-126" rx="18" ry="18"/>
<text text-anchor="middle" x="285" y="-122.9" font-family="arial" font-size="12.00">P2</text>
</g>
<!-- 2&#45;&gt;3 -->
<g id="edge2" class="edge"><title>2&#45;&gt;3</title>
<path fill="none" stroke="black" d="M211.758,-81.1604C225.132,-89.4612 245.066,-101.834 260.608,-111.481"/>
<polygon fill="black" stroke="black" points="258.827,-114.495 269.169,-116.795 262.519,-108.547 258.827,-114.495"/>
<text text-anchor="middle" x="240.5" y="-106.4" font-family="arial" font-size="12.00">6.0</text>
</g>
<!-- 4 -->
<g id="node4" class="node"><title>4</title>
<ellipse fill="powderblue" stroke="black" cx="285" cy="-72" rx="18" ry="18"/>
<text text-anchor="middle" x="285" y="-68.9" font-family="arial" font-size="12.00">P3</text>
</g>
<!-- 2&#45;&gt;4 -->
<g id="edge3" class="edge"><title>2&#45;&gt;4</title>
<path fill="none" stroke="black" d="M214.188,-72C226.343,-72 242.886,-72 256.818,-72"/>
<polygon fill="black" stroke="black" points="256.847,-75.5001 266.847,-72 256.847,-68.5001 256.847,-75.5001"/>
<text text-anchor="middle" x="240.5" y="-75.4" font-family="arial" font-size="12.00">1.5</text>
</g>
<!-- 5 -->
<g id="node5" class="node"><title>5</title>
<ellipse fill="powderblue" stroke="black" cx="285" cy="-18" rx="18" ry="18"/>
<text text-anchor="middle" x="285" y="-14.9" font-family="arial" font-size="12.00">P4</text>
</g>
<!-- 2&#45;&gt;5 -->
<g id="edge4" class="edge"><title>2&#45;&gt;5</title>
<path fill="none" stroke="black" d="M211.758,-62.8396C225.132,-54.5388 245.066,-42.1662 260.608,-32.519"/>
<polygon fill="black" stroke="black" points="262.519,-35.4527 269.169,-27.2053 258.827,-29.5052 262.519,-35.4527"/>
<text text-anchor="middle" x="240.5" y="-53.4" font-family="arial" font-size="12.00">1.5</text>
</g>
<!-- 6 -->
<g id="node6" class="node"><title>6</title>
<ellipse fill="powderblue" stroke="black" cx="381" cy="-72" rx="18" ry="18"/>
<text text-anchor="middle" x="381" y="-68.9" font-family="arial" font-size="12.00">P5</text>
</g>
<!-- 3&#45;&gt;6 -->
<g id="edge5" class="edge"><title>3&#45;&gt;6</title>
<path fill="none" stroke="black" d="M301.103,-117.324C315.903,-108.822 338.694,-95.7288 355.982,-85.7975"/>
<polygon fill="black" stroke="black" points="358.007,-88.6707 364.935,-80.6545 354.52,-82.6009 358.007,-88.6707"/>
<text text-anchor="middle" x="333" y="-108.4" font-family="arial" font-size="12.00">15.0</text>
</g>
<!-- 4&#45;&gt;6 -->
<g id="edge6" class="edge"><title>4&#45;&gt;6</title>
<path fill="none" stroke="black" d="M303.241,-72C317.022,-72 336.6,-72 352.535,-72"/>
<polygon fill="black" stroke="black" points="352.868,-75.5001 362.868,-72 352.868,-68.5001 352.868,-75.5001"/>
<text text-anchor="middle" x="333" y="-75.4" font-family="arial" font-size="12.00">0.75</text>
</g>
<!-- 5&#45;&gt;6 -->
<g id="edge7" class="edge"><title>5&#45;&gt;6</title>
<path fill="none" stroke="black" d="M301.103,-26.676C315.903,-35.1785 338.694,-48.2712 355.982,-58.2025"/>
<polygon fill="black" stroke="black" points="354.52,-61.3991 364.935,-63.3455 358.007,-55.3293 354.52,-61.3991"/>
<text text-anchor="middle" x="333" y="-55.4" font-family="arial" font-size="12.00">1.5</text>
</g>
<!-- 7 -->
<g id="node7" class="node"><title>7</title>
<ellipse fill="powderblue" stroke="black" cx="477" cy="-72" rx="18" ry="18"/>
<text text-anchor="middle" x="477" y="-68.9" font-family="arial" font-size="12.00">P6</text>
</g>
<!-- 6&#45;&gt;7 -->
<g id="edge8" class="edge"><title>6&#45;&gt;7</title>
<path fill="none" stroke="black" d="M399.241,-72C413.022,-72 432.6,-72 448.535,-72"/>
<polygon fill="black" stroke="black" points="448.868,-75.5001 458.868,-72 448.868,-68.5001 448.868,-75.5001"/>
<text text-anchor="middle" x="429" y="-75.4" font-family="arial" font-size="12.00">0.25</text>
</g>
<!-- 8 -->
<g id="node8" class="node"><title>8</title>
<ellipse fill="powderblue" stroke="black" cx="580" cy="-104" rx="18" ry="18"/>
<text text-anchor="middle" x="580" y="-100.9" font-family="arial" font-size="12.00">P7</text>
</g>
<!-- 7&#45;&gt;8 -->
<g id="edge9" class="edge"><title>7&#45;&gt;8</title>
<path fill="none" stroke="black" d="M494.678,-77.2841C510.562,-82.3168 534.709,-89.9671 553.098,-95.7933"/>
<polygon fill="black" stroke="black" points="552.042,-99.1303 562.632,-98.8142 554.156,-92.4572 552.042,-99.1303"/>
<text text-anchor="middle" x="528.5" y="-95.4" font-family="arial" font-size="12.00">0.125</text>
</g>
<!-- 9 -->
<g id="node9" class="node"><title>9</title>
<ellipse fill="powderblue" stroke="black" cx="580" cy="-50" rx="18" ry="18"/>
<text text-anchor="middle" x="580" y="-46.9" font-family="arial" font-size="12.00">P8</text>
</g>
<!-- 7&#45;&gt;9 -->
<g id="edge10" class="edge"><title>7&#45;&gt;9</title>
<path fill="none" stroke="black" d="M494.723,-68.1215C500.507,-66.7948 507.035,-65.3144 513,-64 525.917,-61.154 540.28,-58.0947 552.301,-55.5641"/>
<polygon fill="black" stroke="black" points="553.097,-58.9733 562.166,-53.495 551.66,-52.1224 553.097,-58.9733"/>
<text text-anchor="middle" x="528.5" y="-67.4" font-family="arial" font-size="12.00">0.25</text>
</g>
<!-- 11 -->
<g id="node11" class="node"><title>11</title>
<ellipse fill="darksalmon" stroke="black" cx="689" cy="-79" rx="18" ry="18"/>
<text text-anchor="middle" x="689" y="-75.9" font-family="arial" font-size="12.00">Sink</text>
</g>
<!-- 8&#45;&gt;11 -->
<g id="edge13" class="edge"><title>8&#45;&gt;11</title>
<path fill="none" stroke="black" d="M597.719,-100.094C614.758,-96.1126 641.445,-89.8773 661.392,-85.2168"/>
<polygon fill="black" stroke="black" points="662.457,-88.5623 671.399,-82.8788 660.865,-81.7459 662.457,-88.5623"/>
<text text-anchor="middle" x="634.5" y="-98.4" font-family="arial" font-size="12.00">0.0417</text>
</g>
<!-- 9&#45;&gt;11 -->
<g id="edge12" class="edge"><title>9&#45;&gt;11</title>
<path fill="none" stroke="black" d="M597.719,-54.5312C614.837,-59.1707 641.691,-66.4491 661.667,-71.8631"/>
<polygon fill="black" stroke="black" points="660.831,-75.2627 671.399,-74.5006 662.662,-68.5065 660.831,-75.2627"/>
<text text-anchor="middle" x="634.5" y="-72.4" font-family="arial" font-size="12.00">0.05</text>
</g>
<!-- 10 -->
<g id="node10" class="node"><title>10</title>
<ellipse fill="forestgreen" stroke="black" cx="18" cy="-72" rx="18" ry="18"/>
<text text-anchor="middle" x="18" y="-69.5" font-family="arial" font-size="10.00">Source</text>
</g>
<!-- 10&#45;&gt;1 -->
<g id="edge11" class="edge"><title>10&#45;&gt;1</title>
<path fill="none" stroke="black" d="M36.1884,-72C48.3426,-72 64.8865,-72 78.8185,-72"/>
<polygon fill="black" stroke="black" points="78.8473,-75.5001 88.8473,-72 78.8473,-68.5001 78.8473,-75.5001"/>
<text text-anchor="middle" x="62.5" y="-75.4" font-family="arial" font-size="12.00">1.0</text>
</g>
</g>
</svg>
