<?xml version="1.0" encoding="UTF-8" standalone="no"?>
<!DOCTYPE svg PUBLIC "-//W3C//DTD SVG 1.1//EN"
 "http://www.w3.org/Graphics/SVG/1.1/DTD/svg11.dtd">
<!-- Generated by graphviz version 2.38.0 (20140413.2041)
 -->
<!-- Title: %3 Pages: 1 -->
<svg width="681pt" height="112pt"
 viewBox="0.00 0.00 681.00 112.00" xmlns="http://www.w3.org/2000/svg" xmlns:xlink="http://www.w3.org/1999/xlink">
<g id="graph0" class="graph" transform="scale(1 1) rotate(0) translate(4 108)">
<title>%3</title>
<polygon fill="white" stroke="none" points="-4,4 -4,-108 677,-108 677,4 -4,4"/>
<!-- 1 -->
<g id="node1" class="node"><title>1</title>
<ellipse fill="powderblue" stroke="black" cx="107" cy="-72" rx="18" ry="18"/>
<text text-anchor="middle" x="107" y="-68.9" font-family="arial" font-size="12.00">P0</text>
</g>
<!-- 3 -->
<g id="node3" class="node"><title>3</title>
<ellipse fill="powderblue" stroke="black" cx="196" cy="-47" rx="18" ry="18"/>
<text text-anchor="middle" x="196" y="-43.9" font-family="arial" font-size="12.00">P2</text>
</g>
<!-- 1&#45;&gt;3 -->
<g id="edge1" class="edge"><title>1&#45;&gt;3</title>
<path fill="none" stroke="black" d="M124.774,-67.1797C137.251,-63.5946 154.516,-58.6334 168.805,-54.5274"/>
<polygon fill="black" stroke="black" points="169.928,-57.8464 178.572,-51.7207 167.994,-51.1187 169.928,-57.8464"/>
<text text-anchor="middle" x="151.5" y="-64.4" font-family="arial" font-size="12.00">0.5</text>
</g>
<!-- 2 -->
<g id="node2" class="node"><title>2</title>
<ellipse fill="powderblue" stroke="black" cx="107" cy="-18" rx="18" ry="18"/>
<text text-anchor="middle" x="107" y="-14.9" font-family="arial" font-size="12.00">P1</text>
</g>
<!-- 2&#45;&gt;3 -->
<g id="edge2" class="edge"><title>2&#45;&gt;3</title>
<path fill="none" stroke="black" d="M124.364,-23.4547C136.88,-27.6268 154.387,-33.4623 168.84,-38.28"/>
<polygon fill="black" stroke="black" points="168.116,-41.7278 178.709,-41.5698 170.329,-35.087 168.116,-41.7278"/>
<text text-anchor="middle" x="151.5" y="-38.4" font-family="arial" font-size="12.00">1.0</text>
</g>
<!-- 4 -->
<g id="node4" class="node"><title>4</title>
<ellipse fill="powderblue" stroke="black" cx="285" cy="-47" rx="18" ry="18"/>
<text text-anchor="middle" x="285" y="-43.9" font-family="arial" font-size="12.00">P3</text>
</g>
<!-- 3&#45;&gt;4 -->
<g id="edge3" class="edge"><title>3&#45;&gt;4</title>
<path fill="none" stroke="black" d="M214.188,-47C226.343,-47 242.886,-47 256.818,-47"/>
<polygon fill="black" stroke="black" points="256.847,-50.5001 266.847,-47 256.847,-43.5001 256.847,-50.5001"/>
<text text-anchor="middle" x="240.5" y="-50.4" font-family="arial" font-size="12.00">1.0</text>
</g>
<!-- 5 -->
<g id="node5" class="node"><title>5</title>
<ellipse fill="powderblue" stroke="black" cx="374" cy="-79" rx="18" ry="18"/>
<text text-anchor="middle" x="374" y="-75.9" font-family="arial" font-size="12.00">P4</text>
</g>
<!-- 4&#45;&gt;5 -->
<g id="edge4" class="edge"><title>4&#45;&gt;5</title>
<path fill="none" stroke="black" d="M302.364,-53.019C315.002,-57.6673 332.727,-64.1871 347.26,-69.5325"/>
<polygon fill="black" stroke="black" points="346.116,-72.8408 356.709,-73.008 348.532,-66.2711 346.116,-72.8408"/>
<text text-anchor="middle" x="329.5" y="-68.4" font-family="arial" font-size="12.00">0.6</text>
</g>
<!-- 6 -->
<g id="node6" class="node"><title>6</title>
<ellipse fill="powderblue" stroke="black" cx="374" cy="-25" rx="18" ry="18"/>
<text text-anchor="middle" x="374" y="-21.9" font-family="arial" font-size="12.00">P5</text>
</g>
<!-- 4&#45;&gt;6 -->
<g id="edge5" class="edge"><title>4&#45;&gt;6</title>
<path fill="none" stroke="black" d="M302.774,-42.7582C315.171,-39.6234 332.296,-35.293 346.531,-31.6933"/>
<polygon fill="black" stroke="black" points="347.44,-35.0736 356.277,-29.2288 345.724,-28.2872 347.44,-35.0736"/>
<text text-anchor="middle" x="329.5" y="-40.4" font-family="arial" font-size="12.00">3.0</text>
</g>
<!-- 7 -->
<g id="node7" class="node"><title>7</title>
<ellipse fill="powderblue" stroke="black" cx="463" cy="-54" rx="18" ry="18"/>
<text text-anchor="middle" x="463" y="-50.9" font-family="arial" font-size="12.00">P6</text>
</g>
<!-- 5&#45;&gt;7 -->
<g id="edge6" class="edge"><title>5&#45;&gt;7</title>
<path fill="none" stroke="black" d="M391.774,-74.1797C404.251,-70.5946 421.516,-65.6334 435.805,-61.5274"/>
<polygon fill="black" stroke="black" points="436.928,-64.8464 445.572,-58.7207 434.994,-58.1187 436.928,-64.8464"/>
<text text-anchor="middle" x="418.5" y="-71.4" font-family="arial" font-size="12.00">0.4</text>
</g>
<!-- 6&#45;&gt;7 -->
<g id="edge7" class="edge"><title>6&#45;&gt;7</title>
<path fill="none" stroke="black" d="M391.364,-30.4547C403.88,-34.6268 421.387,-40.4623 435.84,-45.28"/>
<polygon fill="black" stroke="black" points="435.116,-48.7278 445.709,-48.5698 437.329,-42.087 435.116,-48.7278"/>
<text text-anchor="middle" x="418.5" y="-45.4" font-family="arial" font-size="12.00">4.0</text>
</g>
<!-- 8 -->
<g id="node8" class="node"><title>8</title>
<ellipse fill="powderblue" stroke="black" cx="559" cy="-86" rx="18" ry="18"/>
<text text-anchor="middle" x="559" y="-82.9" font-family="arial" font-size="12.00">P7</text>
</g>
<!-- 7&#45;&gt;8 -->
<g id="edge8" class="edge"><title>7&#45;&gt;8</title>
<path fill="none" stroke="black" d="M480.374,-59.574C494.661,-64.4379 515.637,-71.5786 532.183,-77.2114"/>
<polygon fill="black" stroke="black" points="531.22,-80.5805 541.814,-80.4899 533.476,-73.9539 531.22,-80.5805"/>
<text text-anchor="middle" x="511" y="-76.4" font-family="arial" font-size="12.00">0.4</text>
</g>
<!-- 9 -->
<g id="node9" class="node"><title>9</title>
<ellipse fill="powderblue" stroke="black" cx="559" cy="-32" rx="18" ry="18"/>
<text text-anchor="middle" x="559" y="-28.9" font-family="arial" font-size="12.00">P8</text>
</g>
<!-- 7&#45;&gt;9 -->
<g id="edge9" class="edge"><title>7&#45;&gt;9</title>
<path fill="none" stroke="black" d="M480.805,-50.0668C494.841,-46.782 515.106,-42.039 531.351,-38.237"/>
<polygon fill="black" stroke="black" points="532.401,-41.5859 541.34,-35.8991 530.806,-34.7701 532.401,-41.5859"/>
<text text-anchor="middle" x="511" y="-48.4" font-family="arial" font-size="12.00">16.0</text>
</g>
<!-- 11 -->
<g id="node11" class="node"><title>11</title>
<ellipse fill="darksalmon" stroke="black" cx="655" cy="-61" rx="18" ry="18"/>
<text text-anchor="middle" x="655" y="-57.9" font-family="arial" font-size="12.00">Sink</text>
</g>
<!-- 8&#45;&gt;11 -->
<g id="edge13" class="edge"><title>8&#45;&gt;11</title>
<path fill="none" stroke="black" d="M576.805,-81.5305C590.841,-77.7977 611.106,-72.408 627.351,-68.0874"/>
<polygon fill="black" stroke="black" points="628.576,-71.3835 637.34,-65.4308 626.777,-64.6187 628.576,-71.3835"/>
<text text-anchor="middle" x="607" y="-79.4" font-family="arial" font-size="12.00">0.1</text>
</g>
<!-- 9&#45;&gt;11 -->
<g id="edge12" class="edge"><title>9&#45;&gt;11</title>
<path fill="none" stroke="black" d="M576.374,-37.0514C590.574,-41.4324 611.382,-47.8517 627.88,-52.9418"/>
<polygon fill="black" stroke="black" points="626.911,-56.3056 637.499,-55.9092 628.975,-49.6166 626.911,-56.3056"/>
<text text-anchor="middle" x="607" y="-52.4" font-family="arial" font-size="12.00">48.0</text>
</g>
<!-- 10 -->
<g id="node10" class="node"><title>10</title>
<ellipse fill="forestgreen" stroke="black" cx="18" cy="-44" rx="18" ry="18"/>
<text text-anchor="middle" x="18" y="-41.5" font-family="arial" font-size="10.00">Source</text>
</g>
<!-- 10&#45;&gt;1 -->
<g id="edge11" class="edge"><title>10&#45;&gt;1</title>
<path fill="none" stroke="black" d="M35.364,-49.2666C47.8803,-53.2948 65.387,-58.9292 79.84,-63.5807"/>
<polygon fill="black" stroke="black" points="79.1179,-67.025 89.7093,-66.757 81.2625,-60.3616 79.1179,-67.025"/>
<text text-anchor="middle" x="62.5" y="-63.4" font-family="arial" font-size="12.00">1.0</text>
</g>
<!-- 10&#45;&gt;2 -->
<g id="edge10" class="edge"><title>10&#45;&gt;2</title>
<path fill="none" stroke="black" d="M35.3072,-38.1545C41.1726,-36.1195 47.857,-33.8777 54,-32 62.1725,-29.5019 71.1384,-27.0029 79.2891,-24.8221"/>
<polygon fill="black" stroke="black" points="80.2752,-28.1819 89.0564,-22.254 78.4951,-21.412 80.2752,-28.1819"/>
<text text-anchor="middle" x="62.5" y="-35.4" font-family="arial" font-size="12.00">1.0</text>
</g>
</g>
</svg>
