<?xml version="1.0" encoding="UTF-8" standalone="no"?>
<!DOCTYPE svg PUBLIC "-//W3C//DTD SVG 1.1//EN"
 "http://www.w3.org/Graphics/SVG/1.1/DTD/svg11.dtd">
<!-- Generated by graphviz version 2.38.0 (20140413.2041)
 -->
<!-- Title: %3 Pages: 1 -->
<svg width="833pt" height="105pt"
 viewBox="0.00 0.00 833.00 105.00" xmlns="http://www.w3.org/2000/svg" xmlns:xlink="http://www.w3.org/1999/xlink">
<g id="graph0" class="graph" transform="scale(1 1) rotate(0) translate(4 101)">
<title>%3</title>
<polygon fill="white" stroke="none" points="-4,4 -4,-101 829,-101 829,4 -4,4"/>
<!-- 1 -->
<g id="node1" class="node"><title>1</title>
<ellipse fill="powderblue" stroke="black" cx="107" cy="-40" rx="18" ry="18"/>
<text text-anchor="middle" x="107" y="-36.9" font-family="arial" font-size="12.00">P0</text>
</g>
<!-- 2 -->
<g id="node2" class="node"><title>2</title>
<ellipse fill="powderblue" stroke="black" cx="203" cy="-40" rx="18" ry="18"/>
<text text-anchor="middle" x="203" y="-36.9" font-family="arial" font-size="12.00">P1</text>
</g>
<!-- 1&#45;&gt;2 -->
<g id="edge1" class="edge"><title>1&#45;&gt;2</title>
<path fill="none" stroke="black" d="M125.241,-40C139.022,-40 158.6,-40 174.535,-40"/>
<polygon fill="black" stroke="black" points="174.868,-43.5001 184.868,-40 174.868,-36.5001 174.868,-43.5001"/>
<text text-anchor="middle" x="155" y="-43.4" font-family="arial" font-size="12.00">0.75</text>
</g>
<!-- 3 -->
<g id="node3" class="node"><title>3</title>
<ellipse fill="powderblue" stroke="black" cx="299" cy="-40" rx="18" ry="18"/>
<text text-anchor="middle" x="299" y="-36.9" font-family="arial" font-size="12.00">P2</text>
</g>
<!-- 2&#45;&gt;3 -->
<g id="edge2" class="edge"><title>2&#45;&gt;3</title>
<path fill="none" stroke="black" d="M221.241,-40C235.022,-40 254.6,-40 270.535,-40"/>
<polygon fill="black" stroke="black" points="270.868,-43.5001 280.868,-40 270.868,-36.5001 270.868,-43.5001"/>
<text text-anchor="middle" x="251" y="-43.4" font-family="arial" font-size="12.00">0.25</text>
</g>
<!-- 4 -->
<g id="node4" class="node"><title>4</title>
<ellipse fill="powderblue" stroke="black" cx="395" cy="-72" rx="18" ry="18"/>
<text text-anchor="middle" x="395" y="-68.9" font-family="arial" font-size="12.00">P3</text>
</g>
<!-- 3&#45;&gt;4 -->
<g id="edge3" class="edge"><title>3&#45;&gt;4</title>
<path fill="none" stroke="black" d="M316.374,-45.574C330.661,-50.4379 351.637,-57.5786 368.183,-63.2114"/>
<polygon fill="black" stroke="black" points="367.22,-66.5805 377.814,-66.4899 369.476,-59.9539 367.22,-66.5805"/>
<text text-anchor="middle" x="347" y="-62.4" font-family="arial" font-size="12.00">0.5</text>
</g>
<!-- 5 -->
<g id="node5" class="node"><title>5</title>
<ellipse fill="powderblue" stroke="black" cx="395" cy="-18" rx="18" ry="18"/>
<text text-anchor="middle" x="395" y="-14.9" font-family="arial" font-size="12.00">P4</text>
</g>
<!-- 3&#45;&gt;5 -->
<g id="edge4" class="edge"><title>3&#45;&gt;5</title>
<path fill="none" stroke="black" d="M316.805,-36.0668C330.841,-32.782 351.106,-28.039 367.351,-24.237"/>
<polygon fill="black" stroke="black" points="368.401,-27.5859 377.34,-21.8991 366.806,-20.7701 368.401,-27.5859"/>
<text text-anchor="middle" x="347" y="-35.4" font-family="arial" font-size="12.00">0.25</text>
</g>
<!-- 6 -->
<g id="node6" class="node"><title>6</title>
<ellipse fill="powderblue" stroke="black" cx="498" cy="-47" rx="18" ry="18"/>
<text text-anchor="middle" x="498" y="-43.9" font-family="arial" font-size="12.00">P5</text>
</g>
<!-- 4&#45;&gt;6 -->
<g id="edge5" class="edge"><title>4&#45;&gt;6</title>
<path fill="none" stroke="black" d="M412.678,-67.8718C428.395,-63.9815 452.2,-58.0891 470.513,-53.5561"/>
<polygon fill="black" stroke="black" points="471.431,-56.9347 480.297,-51.1344 469.749,-50.1397 471.431,-56.9347"/>
<text text-anchor="middle" x="446.5" y="-66.4" font-family="arial" font-size="12.00">0.667</text>
</g>
<!-- 5&#45;&gt;6 -->
<g id="edge6" class="edge"><title>5&#45;&gt;6</title>
<path fill="none" stroke="black" d="M412.678,-22.7888C428.395,-27.3014 452.2,-34.1366 470.513,-39.3949"/>
<polygon fill="black" stroke="black" points="469.72,-42.8084 480.297,-42.2041 471.651,-36.0802 469.72,-42.8084"/>
<text text-anchor="middle" x="446.5" y="-40.4" font-family="arial" font-size="12.00">0.375</text>
</g>
<!-- 7 -->
<g id="node7" class="node"><title>7</title>
<ellipse fill="powderblue" stroke="black" cx="601" cy="-47" rx="18" ry="18"/>
<text text-anchor="middle" x="601" y="-43.9" font-family="arial" font-size="12.00">P6</text>
</g>
<!-- 6&#45;&gt;7 -->
<g id="edge7" class="edge"><title>6&#45;&gt;7</title>
<path fill="none" stroke="black" d="M516.133,-47C531.586,-47 554.584,-47 572.591,-47"/>
<polygon fill="black" stroke="black" points="572.783,-50.5001 582.783,-47 572.783,-43.5001 572.783,-50.5001"/>
<text text-anchor="middle" x="549.5" y="-50.4" font-family="arial" font-size="12.00">0.222</text>
</g>
<!-- 8 -->
<g id="node8" class="node"><title>8</title>
<ellipse fill="powderblue" stroke="black" cx="704" cy="-79" rx="18" ry="18"/>
<text text-anchor="middle" x="704" y="-75.9" font-family="arial" font-size="12.00">P7</text>
</g>
<!-- 7&#45;&gt;8 -->
<g id="edge8" class="edge"><title>7&#45;&gt;8</title>
<path fill="none" stroke="black" d="M618.678,-52.2841C634.562,-57.3168 658.709,-64.9671 677.098,-70.7933"/>
<polygon fill="black" stroke="black" points="676.042,-74.1303 686.632,-73.8142 678.156,-67.4572 676.042,-74.1303"/>
<text text-anchor="middle" x="652.5" y="-70.4" font-family="arial" font-size="12.00">0.389</text>
</g>
<!-- 9 -->
<g id="node9" class="node"><title>9</title>
<ellipse fill="powderblue" stroke="black" cx="704" cy="-25" rx="18" ry="18"/>
<text text-anchor="middle" x="704" y="-21.9" font-family="arial" font-size="12.00">P8</text>
</g>
<!-- 7&#45;&gt;9 -->
<g id="edge9" class="edge"><title>7&#45;&gt;9</title>
<path fill="none" stroke="black" d="M618.723,-43.1215C624.507,-41.7948 631.035,-40.3144 637,-39 649.917,-36.154 664.28,-33.0947 676.301,-30.5641"/>
<polygon fill="black" stroke="black" points="677.097,-33.9733 686.166,-28.495 675.66,-27.1224 677.097,-33.9733"/>
<text text-anchor="middle" x="652.5" y="-42.4" font-family="arial" font-size="12.00">0.167</text>
</g>
<!-- 11 -->
<g id="node11" class="node"><title>11</title>
<ellipse fill="darksalmon" stroke="black" cx="807" cy="-54" rx="18" ry="18"/>
<text text-anchor="middle" x="807" y="-50.9" font-family="arial" font-size="12.00">Sink</text>
</g>
<!-- 8&#45;&gt;11 -->
<g id="edge12" class="edge"><title>8&#45;&gt;11</title>
<path fill="none" stroke="black" d="M721.678,-74.8718C737.395,-70.9815 761.2,-65.0891 779.513,-60.5561"/>
<polygon fill="black" stroke="black" points="780.431,-63.9347 789.297,-58.1344 778.749,-57.1397 780.431,-63.9347"/>
<text text-anchor="middle" x="755.5" y="-73.4" font-family="arial" font-size="12.00">0.389</text>
</g>
<!-- 9&#45;&gt;11 -->
<g id="edge11" class="edge"><title>9&#45;&gt;11</title>
<path fill="none" stroke="black" d="M721.678,-29.7888C737.395,-34.3014 761.2,-41.1366 779.513,-46.3949"/>
<polygon fill="black" stroke="black" points="778.72,-49.8084 789.297,-49.2041 780.651,-43.0802 778.72,-49.8084"/>
<text text-anchor="middle" x="755.5" y="-46.4" font-family="arial" font-size="12.00">0.167</text>
</g>
<!-- 10 -->
<g id="node10" class="node"><title>10</title>
<ellipse fill="forestgreen" stroke="black" cx="18" cy="-40" rx="18" ry="18"/>
<text text-anchor="middle" x="18" y="-37.5" font-family="arial" font-size="10.00">Source</text>
</g>
<!-- 10&#45;&gt;1 -->
<g id="edge10" class="edge"><title>10&#45;&gt;1</title>
<path fill="none" stroke="black" d="M36.1884,-40C48.3426,-40 64.8865,-40 78.8185,-40"/>
<polygon fill="black" stroke="black" points="78.8473,-43.5001 88.8473,-40 78.8473,-36.5001 78.8473,-43.5001"/>
<text text-anchor="middle" x="62.5" y="-43.4" font-family="arial" font-size="12.00">1.0</text>
</g>
</g>
</svg>
