<?xml version="1.0" encoding="UTF-8" standalone="no"?>
<!DOCTYPE svg PUBLIC "-//W3C//DTD SVG 1.1//EN"
 "http://www.w3.org/Graphics/SVG/1.1/DTD/svg11.dtd">
<!-- Generated by graphviz version 2.38.0 (20140413.2041)
 -->
<!-- Title: %3 Pages: 1 -->
<svg width="702pt" height="160pt"
 viewBox="0.00 0.00 702.00 160.00" xmlns="http://www.w3.org/2000/svg" xmlns:xlink="http://www.w3.org/1999/xlink">
<g id="graph0" class="graph" transform="scale(1 1) rotate(0) translate(4 156)">
<title>%3</title>
<polygon fill="white" stroke="none" points="-4,4 -4,-156 698,-156 698,4 -4,4"/>
<!-- 1 -->
<g id="node1" class="node"><title>1</title>
<ellipse fill="powderblue" stroke="black" cx="107" cy="-72" rx="18" ry="18"/>
<text text-anchor="middle" x="107" y="-68.9" font-family="arial" font-size="12.00">P0</text>
</g>
<!-- 2 -->
<g id="node2" class="node"><title>2</title>
<ellipse fill="powderblue" stroke="black" cx="196" cy="-72" rx="18" ry="18"/>
<text text-anchor="middle" x="196" y="-68.9" font-family="arial" font-size="12.00">P1</text>
</g>
<!-- 1&#45;&gt;2 -->
<g id="edge1" class="edge"><title>1&#45;&gt;2</title>
<path fill="none" stroke="black" d="M125.188,-72C137.343,-72 153.886,-72 167.818,-72"/>
<polygon fill="black" stroke="black" points="167.847,-75.5001 177.847,-72 167.847,-68.5001 167.847,-75.5001"/>
<text text-anchor="middle" x="151.5" y="-75.4" font-family="arial" font-size="12.00">1.0</text>
</g>
<!-- 3 -->
<g id="node3" class="node"><title>3</title>
<ellipse fill="powderblue" stroke="black" cx="285" cy="-72" rx="18" ry="18"/>
<text text-anchor="middle" x="285" y="-68.9" font-family="arial" font-size="12.00">P2</text>
</g>
<!-- 2&#45;&gt;3 -->
<g id="edge2" class="edge"><title>2&#45;&gt;3</title>
<path fill="none" stroke="black" d="M214.188,-72C226.343,-72 242.886,-72 256.818,-72"/>
<polygon fill="black" stroke="black" points="256.847,-75.5001 266.847,-72 256.847,-68.5001 256.847,-75.5001"/>
<text text-anchor="middle" x="240.5" y="-75.4" font-family="arial" font-size="12.00">2.0</text>
</g>
<!-- 4 -->
<g id="node4" class="node"><title>4</title>
<ellipse fill="powderblue" stroke="black" cx="374" cy="-72" rx="18" ry="18"/>
<text text-anchor="middle" x="374" y="-68.9" font-family="arial" font-size="12.00">P3</text>
</g>
<!-- 3&#45;&gt;4 -->
<g id="edge3" class="edge"><title>3&#45;&gt;4</title>
<path fill="none" stroke="black" d="M303.188,-72C315.343,-72 331.886,-72 345.818,-72"/>
<polygon fill="black" stroke="black" points="345.847,-75.5001 355.847,-72 345.847,-68.5001 345.847,-75.5001"/>
<text text-anchor="middle" x="329.5" y="-75.4" font-family="arial" font-size="12.00">4.0</text>
</g>
<!-- 5 -->
<g id="node5" class="node"><title>5</title>
<ellipse fill="powderblue" stroke="black" cx="470" cy="-126" rx="18" ry="18"/>
<text text-anchor="middle" x="470" y="-122.9" font-family="arial" font-size="12.00">P4</text>
</g>
<!-- 4&#45;&gt;5 -->
<g id="edge4" class="edge"><title>4&#45;&gt;5</title>
<path fill="none" stroke="black" d="M390.103,-80.676C404.903,-89.1785 427.694,-102.271 444.982,-112.203"/>
<polygon fill="black" stroke="black" points="443.52,-115.399 453.935,-117.345 447.007,-109.329 443.52,-115.399"/>
<text text-anchor="middle" x="422" y="-108.4" font-family="arial" font-size="12.00">2.0</text>
</g>
<!-- 6 -->
<g id="node6" class="node"><title>6</title>
<ellipse fill="powderblue" stroke="black" cx="470" cy="-72" rx="18" ry="18"/>
<text text-anchor="middle" x="470" y="-68.9" font-family="arial" font-size="12.00">P5</text>
</g>
<!-- 4&#45;&gt;6 -->
<g id="edge5" class="edge"><title>4&#45;&gt;6</title>
<path fill="none" stroke="black" d="M392.241,-72C406.022,-72 425.6,-72 441.535,-72"/>
<polygon fill="black" stroke="black" points="441.868,-75.5001 451.868,-72 441.868,-68.5001 441.868,-75.5001"/>
<text text-anchor="middle" x="422" y="-75.4" font-family="arial" font-size="12.00">4.0</text>
</g>
<!-- 7 -->
<g id="node7" class="node"><title>7</title>
<ellipse fill="powderblue" stroke="black" cx="470" cy="-18" rx="18" ry="18"/>
<text text-anchor="middle" x="470" y="-14.9" font-family="arial" font-size="12.00">P6</text>
</g>
<!-- 4&#45;&gt;7 -->
<g id="edge6" class="edge"><title>4&#45;&gt;7</title>
<path fill="none" stroke="black" d="M390.103,-63.324C404.903,-54.8215 427.694,-41.7288 444.982,-31.7975"/>
<polygon fill="black" stroke="black" points="447.007,-34.6707 453.935,-26.6545 443.52,-28.6009 447.007,-34.6707"/>
<text text-anchor="middle" x="422" y="-55.4" font-family="arial" font-size="12.00">1.33</text>
</g>
<!-- 8 -->
<g id="node8" class="node"><title>8</title>
<ellipse fill="powderblue" stroke="black" cx="573" cy="-71" rx="18" ry="18"/>
<text text-anchor="middle" x="573" y="-67.9" font-family="arial" font-size="12.00">P7</text>
</g>
<!-- 5&#45;&gt;8 -->
<g id="edge7" class="edge"><title>5&#45;&gt;8</title>
<path fill="none" stroke="black" d="M486.34,-117.647C502.674,-108.752 528.751,-94.5516 547.847,-84.1528"/>
<polygon fill="black" stroke="black" points="549.738,-87.108 556.847,-79.2517 546.391,-80.9604 549.738,-87.108"/>
<text text-anchor="middle" x="521.5" y="-109.4" font-family="arial" font-size="12.00">0.667</text>
</g>
<!-- 9 -->
<g id="node9" class="node"><title>9</title>
<ellipse fill="powderblue" stroke="black" cx="573" cy="-134" rx="18" ry="18"/>
<text text-anchor="middle" x="573" y="-130.9" font-family="arial" font-size="12.00">P8</text>
</g>
<!-- 5&#45;&gt;9 -->
<g id="edge10" class="edge"><title>5&#45;&gt;9</title>
<path fill="none" stroke="black" d="M488.133,-127.357C503.586,-128.581 526.584,-130.403 544.591,-131.829"/>
<polygon fill="black" stroke="black" points="544.538,-135.336 554.783,-132.636 545.09,-128.357 544.538,-135.336"/>
<text text-anchor="middle" x="521.5" y="-134.4" font-family="arial" font-size="12.00">3.0</text>
</g>
<!-- 6&#45;&gt;8 -->
<g id="edge8" class="edge"><title>6&#45;&gt;8</title>
<path fill="none" stroke="black" d="M488.056,-69.6569C493.751,-68.9798 500.138,-68.3339 506,-68 519.755,-67.2165 523.235,-67.4111 537,-68 539.559,-68.1095 542.221,-68.2638 544.882,-68.4453"/>
<polygon fill="black" stroke="black" points="544.683,-71.9404 554.929,-69.2425 545.237,-64.9623 544.683,-71.9404"/>
<text text-anchor="middle" x="521.5" y="-71.4" font-family="arial" font-size="12.00">2.0</text>
</g>
<!-- 7&#45;&gt;8 -->
<g id="edge9" class="edge"><title>7&#45;&gt;8</title>
<path fill="none" stroke="black" d="M486.594,-25.494C500.047,-32.0312 519.945,-41.8722 537,-51 540.644,-52.9504 544.47,-55.0654 548.2,-57.1653"/>
<polygon fill="black" stroke="black" points="546.694,-60.3356 557.114,-62.2514 550.163,-54.2556 546.694,-60.3356"/>
<text text-anchor="middle" x="521.5" y="-54.4" font-family="arial" font-size="12.00">0.444</text>
</g>
<!-- 11 -->
<g id="node11" class="node"><title>11</title>
<ellipse fill="darksalmon" stroke="black" cx="676" cy="-105" rx="18" ry="18"/>
<text text-anchor="middle" x="676" y="-101.9" font-family="arial" font-size="12.00">Sink</text>
</g>
<!-- 8&#45;&gt;11 -->
<g id="edge13" class="edge"><title>8&#45;&gt;11</title>
<path fill="none" stroke="black" d="M590.227,-76.4627C606.13,-81.8161 630.618,-90.0596 649.194,-96.3127"/>
<polygon fill="black" stroke="black" points="648.219,-99.6775 658.813,-99.5509 650.452,-93.0433 648.219,-99.6775"/>
<text text-anchor="middle" x="624.5" y="-96.4" font-family="arial" font-size="12.00">0.111</text>
</g>
<!-- 9&#45;&gt;11 -->
<g id="edge12" class="edge"><title>9&#45;&gt;11</title>
<path fill="none" stroke="black" d="M590.678,-129.211C606.395,-124.699 630.2,-117.863 648.513,-112.605"/>
<polygon fill="black" stroke="black" points="649.651,-115.92 658.297,-109.796 647.72,-109.192 649.651,-115.92"/>
<text text-anchor="middle" x="624.5" y="-126.4" font-family="arial" font-size="12.00">4.5</text>
</g>
<!-- 10 -->
<g id="node10" class="node"><title>10</title>
<ellipse fill="forestgreen" stroke="black" cx="18" cy="-72" rx="18" ry="18"/>
<text text-anchor="middle" x="18" y="-69.5" font-family="arial" font-size="10.00">Source</text>
</g>
<!-- 10&#45;&gt;1 -->
<g id="edge11" class="edge"><title>10&#45;&gt;1</title>
<path fill="none" stroke="black" d="M36.1884,-72C48.3426,-72 64.8865,-72 78.8185,-72"/>
<polygon fill="black" stroke="black" points="78.8473,-75.5001 88.8473,-72 78.8473,-68.5001 78.8473,-75.5001"/>
<text text-anchor="middle" x="62.5" y="-75.4" font-family="arial" font-size="12.00">1.0</text>
</g>
</g>
</svg>
