<?xml version="1.0" encoding="UTF-8" standalone="no"?>
<!DOCTYPE svg PUBLIC "-//W3C//DTD SVG 1.1//EN"
 "http://www.w3.org/Graphics/SVG/1.1/DTD/svg11.dtd">
<!-- Generated by graphviz version 2.38.0 (20140413.2041)
 -->
<!-- Title: %3 Pages: 1 -->
<svg width="744pt" height="160pt"
 viewBox="0.00 0.00 744.00 160.00" xmlns="http://www.w3.org/2000/svg" xmlns:xlink="http://www.w3.org/1999/xlink">
<g id="graph0" class="graph" transform="scale(1 1) rotate(0) translate(4 156)">
<title>%3</title>
<polygon fill="white" stroke="none" points="-4,4 -4,-156 740,-156 740,4 -4,4"/>
<!-- 1 -->
<g id="node1" class="node"><title>1</title>
<ellipse fill="powderblue" stroke="black" cx="107" cy="-72" rx="18" ry="18"/>
<text text-anchor="middle" x="107" y="-68.9" font-family="arial" font-size="12.00">P0</text>
</g>
<!-- 2 -->
<g id="node2" class="node"><title>2</title>
<ellipse fill="powderblue" stroke="black" cx="203" cy="-72" rx="18" ry="18"/>
<text text-anchor="middle" x="203" y="-68.9" font-family="arial" font-size="12.00">P1</text>
</g>
<!-- 1&#45;&gt;2 -->
<g id="edge1" class="edge"><title>1&#45;&gt;2</title>
<path fill="none" stroke="black" d="M125.241,-72C139.022,-72 158.6,-72 174.535,-72"/>
<polygon fill="black" stroke="black" points="174.868,-75.5001 184.868,-72 174.868,-68.5001 174.868,-75.5001"/>
<text text-anchor="middle" x="155" y="-75.4" font-family="arial" font-size="12.00">1.67</text>
</g>
<!-- 3 -->
<g id="node3" class="node"><title>3</title>
<ellipse fill="powderblue" stroke="black" cx="306" cy="-72" rx="18" ry="18"/>
<text text-anchor="middle" x="306" y="-68.9" font-family="arial" font-size="12.00">P2</text>
</g>
<!-- 2&#45;&gt;3 -->
<g id="edge2" class="edge"><title>2&#45;&gt;3</title>
<path fill="none" stroke="black" d="M221.133,-72C236.586,-72 259.584,-72 277.591,-72"/>
<polygon fill="black" stroke="black" points="277.783,-75.5001 287.783,-72 277.783,-68.5001 277.783,-75.5001"/>
<text text-anchor="middle" x="254.5" y="-75.4" font-family="arial" font-size="12.00">0.833</text>
</g>
<!-- 4 -->
<g id="node4" class="node"><title>4</title>
<ellipse fill="powderblue" stroke="black" cx="409" cy="-126" rx="18" ry="18"/>
<text text-anchor="middle" x="409" y="-122.9" font-family="arial" font-size="12.00">P3</text>
</g>
<!-- 3&#45;&gt;4 -->
<g id="edge3" class="edge"><title>3&#45;&gt;4</title>
<path fill="none" stroke="black" d="M322.34,-80.2014C338.674,-88.9346 364.751,-102.877 383.847,-113.086"/>
<polygon fill="black" stroke="black" points="382.378,-116.27 392.847,-117.898 385.678,-110.097 382.378,-116.27"/>
<text text-anchor="middle" x="357.5" y="-109.4" font-family="arial" font-size="12.00">0.833</text>
</g>
<!-- 5 -->
<g id="node5" class="node"><title>5</title>
<ellipse fill="powderblue" stroke="black" cx="409" cy="-72" rx="18" ry="18"/>
<text text-anchor="middle" x="409" y="-68.9" font-family="arial" font-size="12.00">P4</text>
</g>
<!-- 3&#45;&gt;5 -->
<g id="edge4" class="edge"><title>3&#45;&gt;5</title>
<path fill="none" stroke="black" d="M324.133,-72C339.586,-72 362.584,-72 380.591,-72"/>
<polygon fill="black" stroke="black" points="380.783,-75.5001 390.783,-72 380.783,-68.5001 380.783,-75.5001"/>
<text text-anchor="middle" x="357.5" y="-75.4" font-family="arial" font-size="12.00">0.625</text>
</g>
<!-- 6 -->
<g id="node6" class="node"><title>6</title>
<ellipse fill="powderblue" stroke="black" cx="409" cy="-18" rx="18" ry="18"/>
<text text-anchor="middle" x="409" y="-14.9" font-family="arial" font-size="12.00">P5</text>
</g>
<!-- 3&#45;&gt;6 -->
<g id="edge5" class="edge"><title>3&#45;&gt;6</title>
<path fill="none" stroke="black" d="M322.34,-63.7986C338.674,-55.0654 364.751,-41.1234 383.847,-30.9137"/>
<polygon fill="black" stroke="black" points="385.678,-33.9032 392.847,-26.1017 382.378,-27.7301 385.678,-33.9032"/>
<text text-anchor="middle" x="357.5" y="-56.4" font-family="arial" font-size="12.00">1.67</text>
</g>
<!-- 7 -->
<g id="node7" class="node"><title>7</title>
<ellipse fill="powderblue" stroke="black" cx="512" cy="-71" rx="18" ry="18"/>
<text text-anchor="middle" x="512" y="-67.9" font-family="arial" font-size="12.00">P6</text>
</g>
<!-- 4&#45;&gt;7 -->
<g id="edge6" class="edge"><title>4&#45;&gt;7</title>
<path fill="none" stroke="black" d="M425.34,-117.647C441.674,-108.752 467.751,-94.5516 486.847,-84.1528"/>
<polygon fill="black" stroke="black" points="488.738,-87.108 495.847,-79.2517 485.391,-80.9604 488.738,-87.108"/>
<text text-anchor="middle" x="460.5" y="-109.4" font-family="arial" font-size="12.00">0.833</text>
</g>
<!-- 8 -->
<g id="node8" class="node"><title>8</title>
<ellipse fill="powderblue" stroke="black" cx="512" cy="-134" rx="18" ry="18"/>
<text text-anchor="middle" x="512" y="-130.9" font-family="arial" font-size="12.00">P7</text>
</g>
<!-- 4&#45;&gt;8 -->
<g id="edge9" class="edge"><title>4&#45;&gt;8</title>
<path fill="none" stroke="black" d="M427.133,-127.357C442.586,-128.581 465.584,-130.403 483.591,-131.829"/>
<polygon fill="black" stroke="black" points="483.538,-135.336 493.783,-132.636 484.09,-128.357 483.538,-135.336"/>
<text text-anchor="middle" x="460.5" y="-134.4" font-family="arial" font-size="12.00">0.417</text>
</g>
<!-- 5&#45;&gt;7 -->
<g id="edge7" class="edge"><title>5&#45;&gt;7</title>
<path fill="none" stroke="black" d="M427.056,-69.6569C432.751,-68.9798 439.138,-68.3339 445,-68 458.755,-67.2165 462.235,-67.4111 476,-68 478.559,-68.1095 481.221,-68.2638 483.882,-68.4453"/>
<polygon fill="black" stroke="black" points="483.683,-71.9404 493.929,-69.2425 484.237,-64.9623 483.683,-71.9404"/>
<text text-anchor="middle" x="460.5" y="-71.4" font-family="arial" font-size="12.00">0.417</text>
</g>
<!-- 6&#45;&gt;7 -->
<g id="edge8" class="edge"><title>6&#45;&gt;7</title>
<path fill="none" stroke="black" d="M425.594,-25.494C439.047,-32.0312 458.945,-41.8722 476,-51 479.644,-52.9504 483.47,-55.0654 487.2,-57.1653"/>
<polygon fill="black" stroke="black" points="485.694,-60.3356 496.114,-62.2514 489.163,-54.2556 485.694,-60.3356"/>
<text text-anchor="middle" x="460.5" y="-54.4" font-family="arial" font-size="12.00">2.22</text>
</g>
<!-- 9 -->
<g id="node9" class="node"><title>9</title>
<ellipse fill="powderblue" stroke="black" cx="615" cy="-105" rx="18" ry="18"/>
<text text-anchor="middle" x="615" y="-101.9" font-family="arial" font-size="12.00">P8</text>
</g>
<!-- 7&#45;&gt;9 -->
<g id="edge10" class="edge"><title>7&#45;&gt;9</title>
<path fill="none" stroke="black" d="M529.227,-76.4627C545.13,-81.8161 569.618,-90.0596 588.194,-96.3127"/>
<polygon fill="black" stroke="black" points="587.219,-99.6775 597.813,-99.5509 589.452,-93.0433 587.219,-99.6775"/>
<text text-anchor="middle" x="563.5" y="-96.4" font-family="arial" font-size="12.00">0.417</text>
</g>
<!-- 8&#45;&gt;9 -->
<g id="edge11" class="edge"><title>8&#45;&gt;9</title>
<path fill="none" stroke="black" d="M529.678,-129.211C545.395,-124.699 569.2,-117.863 587.513,-112.605"/>
<polygon fill="black" stroke="black" points="588.651,-115.92 597.297,-109.796 586.72,-109.192 588.651,-115.92"/>
<text text-anchor="middle" x="563.5" y="-126.4" font-family="arial" font-size="12.00">0.833</text>
</g>
<!-- 11 -->
<g id="node11" class="node"><title>11</title>
<ellipse fill="darksalmon" stroke="black" cx="718" cy="-105" rx="18" ry="18"/>
<text text-anchor="middle" x="718" y="-101.9" font-family="arial" font-size="12.00">Sink</text>
</g>
<!-- 9&#45;&gt;11 -->
<g id="edge13" class="edge"><title>9&#45;&gt;11</title>
<path fill="none" stroke="black" d="M633.133,-105C648.586,-105 671.584,-105 689.591,-105"/>
<polygon fill="black" stroke="black" points="689.783,-108.5 699.783,-105 689.783,-101.5 689.783,-108.5"/>
<text text-anchor="middle" x="666.5" y="-108.4" font-family="arial" font-size="12.00">0.167</text>
</g>
<!-- 10 -->
<g id="node10" class="node"><title>10</title>
<ellipse fill="forestgreen" stroke="black" cx="18" cy="-72" rx="18" ry="18"/>
<text text-anchor="middle" x="18" y="-69.5" font-family="arial" font-size="10.00">Source</text>
</g>
<!-- 10&#45;&gt;1 -->
<g id="edge12" class="edge"><title>10&#45;&gt;1</title>
<path fill="none" stroke="black" d="M36.1884,-72C48.3426,-72 64.8865,-72 78.8185,-72"/>
<polygon fill="black" stroke="black" points="78.8473,-75.5001 88.8473,-72 78.8473,-68.5001 78.8473,-75.5001"/>
<text text-anchor="middle" x="62.5" y="-75.4" font-family="arial" font-size="12.00">1.0</text>
</g>
</g>
</svg>
