<?xml version="1.0" encoding="UTF-8" standalone="no"?>
<!DOCTYPE svg PUBLIC "-//W3C//DTD SVG 1.1//EN"
 "http://www.w3.org/Graphics/SVG/1.1/DTD/svg11.dtd">
<!-- Generated by graphviz version 2.38.0 (20140413.2041)
 -->
<!-- Title: %3 Pages: 1 -->
<svg width="788pt" height="206pt"
 viewBox="0.00 0.00 788.00 206.00" xmlns="http://www.w3.org/2000/svg" xmlns:xlink="http://www.w3.org/1999/xlink">
<g id="graph0" class="graph" transform="scale(1 1) rotate(0) translate(4 202)">
<title>%3</title>
<polygon fill="white" stroke="none" points="-4,4 -4,-202 784,-202 784,4 -4,4"/>
<!-- 1 -->
<g id="node1" class="node"><title>1</title>
<ellipse fill="powderblue" stroke="black" cx="107" cy="-94" rx="18" ry="18"/>
<text text-anchor="middle" x="107" y="-90.9" font-family="arial" font-size="12.00">P0</text>
</g>
<!-- 2 -->
<g id="node2" class="node"><title>2</title>
<ellipse fill="powderblue" stroke="black" cx="210" cy="-180" rx="18" ry="18"/>
<text text-anchor="middle" x="210" y="-176.9" font-family="arial" font-size="12.00">P1</text>
</g>
<!-- 1&#45;&gt;2 -->
<g id="edge1" class="edge"><title>1&#45;&gt;2</title>
<path fill="none" stroke="black" d="M119.464,-107.212C126.059,-114.526 134.667,-123.604 143,-131 156.615,-143.084 173.049,-155.292 186.112,-164.5"/>
<polygon fill="black" stroke="black" points="184.332,-167.525 194.541,-170.357 188.326,-161.776 184.332,-167.525"/>
<text text-anchor="middle" x="158.5" y="-157.4" font-family="arial" font-size="12.00">1.0</text>
</g>
<!-- 3 -->
<g id="node3" class="node"><title>3</title>
<ellipse fill="powderblue" stroke="black" cx="210" cy="-126" rx="18" ry="18"/>
<text text-anchor="middle" x="210" y="-122.9" font-family="arial" font-size="12.00">P2</text>
</g>
<!-- 1&#45;&gt;3 -->
<g id="edge2" class="edge"><title>1&#45;&gt;3</title>
<path fill="none" stroke="black" d="M124.678,-99.2841C140.562,-104.317 164.709,-111.967 183.098,-117.793"/>
<polygon fill="black" stroke="black" points="182.042,-121.13 192.632,-120.814 184.156,-114.457 182.042,-121.13"/>
<text text-anchor="middle" x="158.5" y="-117.4" font-family="arial" font-size="12.00">0.167</text>
</g>
<!-- 4 -->
<g id="node4" class="node"><title>4</title>
<ellipse fill="powderblue" stroke="black" cx="210" cy="-72" rx="18" ry="18"/>
<text text-anchor="middle" x="210" y="-68.9" font-family="arial" font-size="12.00">P3</text>
</g>
<!-- 1&#45;&gt;4 -->
<g id="edge3" class="edge"><title>1&#45;&gt;4</title>
<path fill="none" stroke="black" d="M124.723,-90.1215C130.507,-88.7948 137.035,-87.3144 143,-86 155.917,-83.154 170.28,-80.0947 182.301,-77.5641"/>
<polygon fill="black" stroke="black" points="183.097,-80.9733 192.166,-75.495 181.66,-74.1224 183.097,-80.9733"/>
<text text-anchor="middle" x="158.5" y="-89.4" font-family="arial" font-size="12.00">0.75</text>
</g>
<!-- 5 -->
<g id="node5" class="node"><title>5</title>
<ellipse fill="powderblue" stroke="black" cx="210" cy="-18" rx="18" ry="18"/>
<text text-anchor="middle" x="210" y="-14.9" font-family="arial" font-size="12.00">P4</text>
</g>
<!-- 1&#45;&gt;5 -->
<g id="edge4" class="edge"><title>1&#45;&gt;5</title>
<path fill="none" stroke="black" d="M120.632,-82.1159C127.144,-76.1703 135.315,-68.9847 143,-63 156.735,-52.3037 172.87,-41.2771 185.748,-32.8162"/>
<polygon fill="black" stroke="black" points="187.99,-35.5333 194.469,-27.1501 184.177,-29.6634 187.99,-35.5333"/>
<text text-anchor="middle" x="158.5" y="-66.4" font-family="arial" font-size="12.00">1.75</text>
</g>
<!-- 6 -->
<g id="node6" class="node"><title>6</title>
<ellipse fill="powderblue" stroke="black" cx="319" cy="-98" rx="18" ry="18"/>
<text text-anchor="middle" x="319" y="-94.9" font-family="arial" font-size="12.00">P5</text>
</g>
<!-- 2&#45;&gt;6 -->
<g id="edge5" class="edge"><title>2&#45;&gt;6</title>
<path fill="none" stroke="black" d="M225.958,-171.479C240.967,-162.649 264.456,-148.053 283,-133 288.558,-128.488 294.206,-123.206 299.296,-118.133"/>
<polygon fill="black" stroke="black" points="301.808,-120.569 306.279,-110.964 296.794,-115.685 301.808,-120.569"/>
<text text-anchor="middle" x="264.5" y="-161.4" font-family="arial" font-size="12.00">2.0</text>
</g>
<!-- 3&#45;&gt;6 -->
<g id="edge6" class="edge"><title>3&#45;&gt;6</title>
<path fill="none" stroke="black" d="M227.719,-121.625C244.837,-117.146 271.691,-110.118 291.667,-104.891"/>
<polygon fill="black" stroke="black" points="292.61,-108.262 301.399,-102.344 290.838,-101.49 292.61,-108.262"/>
<text text-anchor="middle" x="264.5" y="-119.4" font-family="arial" font-size="12.00">0.0833</text>
</g>
<!-- 4&#45;&gt;6 -->
<g id="edge7" class="edge"><title>4&#45;&gt;6</title>
<path fill="none" stroke="black" d="M228.026,-74.6278C242.712,-77.0563 264.424,-81.0349 283,-86 286.006,-86.8034 289.127,-87.7324 292.213,-88.7107"/>
<polygon fill="black" stroke="black" points="291.169,-92.052 301.763,-91.9104 293.393,-85.4147 291.169,-92.052"/>
<text text-anchor="middle" x="264.5" y="-89.4" font-family="arial" font-size="12.00">0.25</text>
</g>
<!-- 5&#45;&gt;6 -->
<g id="edge8" class="edge"><title>5&#45;&gt;6</title>
<path fill="none" stroke="black" d="M226.339,-25.9026C241.434,-34.01 264.801,-47.4625 283,-62 288.674,-66.5326 294.362,-71.9278 299.454,-77.1441"/>
<polygon fill="black" stroke="black" points="297.012,-79.6568 306.416,-84.5373 302.108,-74.8578 297.012,-79.6568"/>
<text text-anchor="middle" x="264.5" y="-65.4" font-family="arial" font-size="12.00">0.875</text>
</g>
<!-- 7 -->
<g id="node7" class="node"><title>7</title>
<ellipse fill="powderblue" stroke="black" cx="428" cy="-98" rx="18" ry="18"/>
<text text-anchor="middle" x="428" y="-94.9" font-family="arial" font-size="12.00">P6</text>
</g>
<!-- 6&#45;&gt;7 -->
<g id="edge9" class="edge"><title>6&#45;&gt;7</title>
<path fill="none" stroke="black" d="M337.191,-98C354.039,-98 379.982,-98 399.661,-98"/>
<polygon fill="black" stroke="black" points="399.851,-101.5 409.851,-98 399.851,-94.5001 399.851,-101.5"/>
<text text-anchor="middle" x="373.5" y="-101.4" font-family="arial" font-size="12.00">0.0417</text>
</g>
<!-- 8 -->
<g id="node8" class="node"><title>8</title>
<ellipse fill="powderblue" stroke="black" cx="537" cy="-98" rx="18" ry="18"/>
<text text-anchor="middle" x="537" y="-94.9" font-family="arial" font-size="12.00">P7</text>
</g>
<!-- 7&#45;&gt;8 -->
<g id="edge10" class="edge"><title>7&#45;&gt;8</title>
<path fill="none" stroke="black" d="M446.191,-98C463.039,-98 488.982,-98 508.661,-98"/>
<polygon fill="black" stroke="black" points="508.851,-101.5 518.851,-98 508.851,-94.5001 508.851,-101.5"/>
<text text-anchor="middle" x="482.5" y="-101.4" font-family="arial" font-size="12.00">0.0625</text>
</g>
<!-- 9 -->
<g id="node9" class="node"><title>9</title>
<ellipse fill="powderblue" stroke="black" cx="646" cy="-98" rx="18" ry="18"/>
<text text-anchor="middle" x="646" y="-94.9" font-family="arial" font-size="12.00">P8</text>
</g>
<!-- 8&#45;&gt;9 -->
<g id="edge11" class="edge"><title>8&#45;&gt;9</title>
<path fill="none" stroke="black" d="M555.191,-98C572.039,-98 597.982,-98 617.661,-98"/>
<polygon fill="black" stroke="black" points="617.851,-101.5 627.851,-98 617.851,-94.5001 617.851,-101.5"/>
<text text-anchor="middle" x="591.5" y="-101.4" font-family="arial" font-size="12.00">0.0104</text>
</g>
<!-- 11 -->
<g id="node11" class="node"><title>11</title>
<ellipse fill="darksalmon" stroke="black" cx="762" cy="-98" rx="18" ry="18"/>
<text text-anchor="middle" x="762" y="-94.9" font-family="arial" font-size="12.00">Sink</text>
</g>
<!-- 9&#45;&gt;11 -->
<g id="edge13" class="edge"><title>9&#45;&gt;11</title>
<path fill="none" stroke="black" d="M664.314,-98C682.751,-98 712.184,-98 733.738,-98"/>
<polygon fill="black" stroke="black" points="733.896,-101.5 743.896,-98 733.896,-94.5001 733.896,-101.5"/>
<text text-anchor="middle" x="704" y="-101.4" font-family="arial" font-size="12.00">0.00625</text>
</g>
<!-- 10 -->
<g id="node10" class="node"><title>10</title>
<ellipse fill="forestgreen" stroke="black" cx="18" cy="-94" rx="18" ry="18"/>
<text text-anchor="middle" x="18" y="-91.5" font-family="arial" font-size="10.00">Source</text>
</g>
<!-- 10&#45;&gt;1 -->
<g id="edge12" class="edge"><title>10&#45;&gt;1</title>
<path fill="none" stroke="black" d="M36.1884,-94C48.3426,-94 64.8865,-94 78.8185,-94"/>
<polygon fill="black" stroke="black" points="78.8473,-97.5001 88.8473,-94 78.8473,-90.5001 78.8473,-97.5001"/>
<text text-anchor="middle" x="62.5" y="-97.4" font-family="arial" font-size="12.00">1.0</text>
</g>
</g>
</svg>
