<?xml version="1.0" encoding="UTF-8" standalone="no"?>
<!DOCTYPE svg PUBLIC "-//W3C//DTD SVG 1.1//EN"
 "http://www.w3.org/Graphics/SVG/1.1/DTD/svg11.dtd">
<!-- Generated by graphviz version 2.38.0 (20140413.2041)
 -->
<!-- Title: %3 Pages: 1 -->
<svg width="695pt" height="112pt"
 viewBox="0.00 0.00 695.00 112.00" xmlns="http://www.w3.org/2000/svg" xmlns:xlink="http://www.w3.org/1999/xlink">
<g id="graph0" class="graph" transform="scale(1 1) rotate(0) translate(4 108)">
<title>%3</title>
<polygon fill="white" stroke="none" points="-4,4 -4,-108 691,-108 691,4 -4,4"/>
<!-- 1 -->
<g id="node1" class="node"><title>1</title>
<ellipse fill="powderblue" stroke="black" cx="107" cy="-72" rx="18" ry="18"/>
<text text-anchor="middle" x="107" y="-68.9" font-family="arial" font-size="12.00">P0</text>
</g>
<!-- 3 -->
<g id="node3" class="node"><title>3</title>
<ellipse fill="powderblue" stroke="black" cx="196" cy="-47" rx="18" ry="18"/>
<text text-anchor="middle" x="196" y="-43.9" font-family="arial" font-size="12.00">P2</text>
</g>
<!-- 1&#45;&gt;3 -->
<g id="edge1" class="edge"><title>1&#45;&gt;3</title>
<path fill="none" stroke="black" d="M124.774,-67.1797C137.251,-63.5946 154.516,-58.6334 168.805,-54.5274"/>
<polygon fill="black" stroke="black" points="169.928,-57.8464 178.572,-51.7207 167.994,-51.1187 169.928,-57.8464"/>
<text text-anchor="middle" x="151.5" y="-64.4" font-family="arial" font-size="12.00">3.0</text>
</g>
<!-- 2 -->
<g id="node2" class="node"><title>2</title>
<ellipse fill="powderblue" stroke="black" cx="107" cy="-18" rx="18" ry="18"/>
<text text-anchor="middle" x="107" y="-14.9" font-family="arial" font-size="12.00">P1</text>
</g>
<!-- 2&#45;&gt;3 -->
<g id="edge2" class="edge"><title>2&#45;&gt;3</title>
<path fill="none" stroke="black" d="M124.364,-23.4547C136.88,-27.6268 154.387,-33.4623 168.84,-38.28"/>
<polygon fill="black" stroke="black" points="168.116,-41.7278 178.709,-41.5698 170.329,-35.087 168.116,-41.7278"/>
<text text-anchor="middle" x="151.5" y="-38.4" font-family="arial" font-size="12.00">0.5</text>
</g>
<!-- 4 -->
<g id="node4" class="node"><title>4</title>
<ellipse fill="powderblue" stroke="black" cx="285" cy="-79" rx="18" ry="18"/>
<text text-anchor="middle" x="285" y="-75.9" font-family="arial" font-size="12.00">P3</text>
</g>
<!-- 3&#45;&gt;4 -->
<g id="edge3" class="edge"><title>3&#45;&gt;4</title>
<path fill="none" stroke="black" d="M213.364,-53.019C226.002,-57.6673 243.727,-64.1871 258.26,-69.5325"/>
<polygon fill="black" stroke="black" points="257.116,-72.8408 267.709,-73.008 259.532,-66.2711 257.116,-72.8408"/>
<text text-anchor="middle" x="240.5" y="-68.4" font-family="arial" font-size="12.00">1.0</text>
</g>
<!-- 5 -->
<g id="node5" class="node"><title>5</title>
<ellipse fill="powderblue" stroke="black" cx="285" cy="-25" rx="18" ry="18"/>
<text text-anchor="middle" x="285" y="-21.9" font-family="arial" font-size="12.00">P4</text>
</g>
<!-- 3&#45;&gt;5 -->
<g id="edge4" class="edge"><title>3&#45;&gt;5</title>
<path fill="none" stroke="black" d="M213.774,-42.7582C226.171,-39.6234 243.296,-35.293 257.531,-31.6933"/>
<polygon fill="black" stroke="black" points="258.44,-35.0736 267.277,-29.2288 256.724,-28.2872 258.44,-35.0736"/>
<text text-anchor="middle" x="240.5" y="-40.4" font-family="arial" font-size="12.00">0.5</text>
</g>
<!-- 6 -->
<g id="node6" class="node"><title>6</title>
<ellipse fill="powderblue" stroke="black" cx="374" cy="-54" rx="18" ry="18"/>
<text text-anchor="middle" x="374" y="-50.9" font-family="arial" font-size="12.00">P5</text>
</g>
<!-- 4&#45;&gt;6 -->
<g id="edge5" class="edge"><title>4&#45;&gt;6</title>
<path fill="none" stroke="black" d="M302.774,-74.1797C315.251,-70.5946 332.516,-65.6334 346.805,-61.5274"/>
<polygon fill="black" stroke="black" points="347.928,-64.8464 356.572,-58.7207 345.994,-58.1187 347.928,-64.8464"/>
<text text-anchor="middle" x="329.5" y="-71.4" font-family="arial" font-size="12.00">1.0</text>
</g>
<!-- 5&#45;&gt;6 -->
<g id="edge6" class="edge"><title>5&#45;&gt;6</title>
<path fill="none" stroke="black" d="M302.364,-30.4547C314.88,-34.6268 332.387,-40.4623 346.84,-45.28"/>
<polygon fill="black" stroke="black" points="346.116,-48.7278 356.709,-48.5698 348.329,-42.087 346.116,-48.7278"/>
<text text-anchor="middle" x="329.5" y="-45.4" font-family="arial" font-size="12.00">0.5</text>
</g>
<!-- 7 -->
<g id="node7" class="node"><title>7</title>
<ellipse fill="powderblue" stroke="black" cx="463" cy="-86" rx="18" ry="18"/>
<text text-anchor="middle" x="463" y="-82.9" font-family="arial" font-size="12.00">P6</text>
</g>
<!-- 6&#45;&gt;7 -->
<g id="edge7" class="edge"><title>6&#45;&gt;7</title>
<path fill="none" stroke="black" d="M391.364,-60.019C404.002,-64.6673 421.727,-71.1871 436.26,-76.5325"/>
<polygon fill="black" stroke="black" points="435.116,-79.8408 445.709,-80.008 437.532,-73.2711 435.116,-79.8408"/>
<text text-anchor="middle" x="418.5" y="-75.4" font-family="arial" font-size="12.00">2.0</text>
</g>
<!-- 8 -->
<g id="node8" class="node"><title>8</title>
<ellipse fill="powderblue" stroke="black" cx="463" cy="-32" rx="18" ry="18"/>
<text text-anchor="middle" x="463" y="-28.9" font-family="arial" font-size="12.00">P7</text>
</g>
<!-- 6&#45;&gt;8 -->
<g id="edge8" class="edge"><title>6&#45;&gt;8</title>
<path fill="none" stroke="black" d="M391.774,-49.7582C404.171,-46.6234 421.296,-42.293 435.531,-38.6933"/>
<polygon fill="black" stroke="black" points="436.44,-42.0736 445.277,-36.2288 434.724,-35.2872 436.44,-42.0736"/>
<text text-anchor="middle" x="418.5" y="-47.4" font-family="arial" font-size="12.00">1.0</text>
</g>
<!-- 9 -->
<g id="node9" class="node"><title>9</title>
<ellipse fill="powderblue" stroke="black" cx="566" cy="-61" rx="18" ry="18"/>
<text text-anchor="middle" x="566" y="-57.9" font-family="arial" font-size="12.00">P8</text>
</g>
<!-- 7&#45;&gt;9 -->
<g id="edge9" class="edge"><title>7&#45;&gt;9</title>
<path fill="none" stroke="black" d="M480.678,-81.8718C496.395,-77.9815 520.2,-72.0891 538.513,-67.5561"/>
<polygon fill="black" stroke="black" points="539.431,-70.9347 548.297,-65.1344 537.749,-64.1397 539.431,-70.9347"/>
<text text-anchor="middle" x="514.5" y="-80.4" font-family="arial" font-size="12.00">4.0</text>
</g>
<!-- 8&#45;&gt;9 -->
<g id="edge10" class="edge"><title>8&#45;&gt;9</title>
<path fill="none" stroke="black" d="M480.678,-36.7888C496.395,-41.3014 520.2,-48.1366 538.513,-53.3949"/>
<polygon fill="black" stroke="black" points="537.72,-56.8084 548.297,-56.2041 539.651,-50.0802 537.72,-56.8084"/>
<text text-anchor="middle" x="514.5" y="-53.4" font-family="arial" font-size="12.00">0.333</text>
</g>
<!-- 11 -->
<g id="node11" class="node"><title>11</title>
<ellipse fill="darksalmon" stroke="black" cx="669" cy="-61" rx="18" ry="18"/>
<text text-anchor="middle" x="669" y="-57.9" font-family="arial" font-size="12.00">Sink</text>
</g>
<!-- 9&#45;&gt;11 -->
<g id="edge13" class="edge"><title>9&#45;&gt;11</title>
<path fill="none" stroke="black" d="M584.133,-61C599.586,-61 622.584,-61 640.591,-61"/>
<polygon fill="black" stroke="black" points="640.783,-64.5001 650.783,-61 640.783,-57.5001 640.783,-64.5001"/>
<text text-anchor="middle" x="617.5" y="-64.4" font-family="arial" font-size="12.00">0.667</text>
</g>
<!-- 10 -->
<g id="node10" class="node"><title>10</title>
<ellipse fill="forestgreen" stroke="black" cx="18" cy="-44" rx="18" ry="18"/>
<text text-anchor="middle" x="18" y="-41.5" font-family="arial" font-size="10.00">Source</text>
</g>
<!-- 10&#45;&gt;1 -->
<g id="edge12" class="edge"><title>10&#45;&gt;1</title>
<path fill="none" stroke="black" d="M35.364,-49.2666C47.8803,-53.2948 65.387,-58.9292 79.84,-63.5807"/>
<polygon fill="black" stroke="black" points="79.1179,-67.025 89.7093,-66.757 81.2625,-60.3616 79.1179,-67.025"/>
<text text-anchor="middle" x="62.5" y="-63.4" font-family="arial" font-size="12.00">1.0</text>
</g>
<!-- 10&#45;&gt;2 -->
<g id="edge11" class="edge"><title>10&#45;&gt;2</title>
<path fill="none" stroke="black" d="M35.3072,-38.1545C41.1726,-36.1195 47.857,-33.8777 54,-32 62.1725,-29.5019 71.1384,-27.0029 79.2891,-24.8221"/>
<polygon fill="black" stroke="black" points="80.2752,-28.1819 89.0564,-22.254 78.4951,-21.412 80.2752,-28.1819"/>
<text text-anchor="middle" x="62.5" y="-35.4" font-family="arial" font-size="12.00">1.0</text>
</g>
</g>
</svg>
