<?xml version="1.0" encoding="UTF-8" standalone="no"?>
<!DOCTYPE svg PUBLIC "-//W3C//DTD SVG 1.1//EN"
 "http://www.w3.org/Graphics/SVG/1.1/DTD/svg11.dtd">
<!-- Generated by graphviz version 2.38.0 (20140413.2041)
 -->
<!-- Title: %3 Pages: 1 -->
<svg width="723pt" height="123pt"
 viewBox="0.00 0.00 723.00 123.00" xmlns="http://www.w3.org/2000/svg" xmlns:xlink="http://www.w3.org/1999/xlink">
<g id="graph0" class="graph" transform="scale(1 1) rotate(0) translate(4 119)">
<title>%3</title>
<polygon fill="white" stroke="none" points="-4,4 -4,-119 719,-119 719,4 -4,4"/>
<!-- 1 -->
<g id="node1" class="node"><title>1</title>
<ellipse fill="powderblue" stroke="black" cx="107" cy="-40" rx="18" ry="18"/>
<text text-anchor="middle" x="107" y="-36.9" font-family="arial" font-size="12.00">P0</text>
</g>
<!-- 2 -->
<g id="node2" class="node"><title>2</title>
<ellipse fill="powderblue" stroke="black" cx="196" cy="-72" rx="18" ry="18"/>
<text text-anchor="middle" x="196" y="-68.9" font-family="arial" font-size="12.00">P1</text>
</g>
<!-- 1&#45;&gt;2 -->
<g id="edge1" class="edge"><title>1&#45;&gt;2</title>
<path fill="none" stroke="black" d="M124.364,-46.019C137.002,-50.6673 154.727,-57.1871 169.26,-62.5325"/>
<polygon fill="black" stroke="black" points="168.116,-65.8408 178.709,-66.008 170.532,-59.2711 168.116,-65.8408"/>
<text text-anchor="middle" x="151.5" y="-61.4" font-family="arial" font-size="12.00">1.0</text>
</g>
<!-- 3 -->
<g id="node3" class="node"><title>3</title>
<ellipse fill="powderblue" stroke="black" cx="196" cy="-18" rx="18" ry="18"/>
<text text-anchor="middle" x="196" y="-14.9" font-family="arial" font-size="12.00">P2</text>
</g>
<!-- 1&#45;&gt;3 -->
<g id="edge2" class="edge"><title>1&#45;&gt;3</title>
<path fill="none" stroke="black" d="M124.774,-35.7582C137.171,-32.6234 154.296,-28.293 168.531,-24.6933"/>
<polygon fill="black" stroke="black" points="169.44,-28.0736 178.277,-22.2288 167.724,-21.2872 169.44,-28.0736"/>
<text text-anchor="middle" x="151.5" y="-34.4" font-family="arial" font-size="12.00">0.5</text>
</g>
<!-- 4 -->
<g id="node4" class="node"><title>4</title>
<ellipse fill="powderblue" stroke="black" cx="292" cy="-36" rx="18" ry="18"/>
<text text-anchor="middle" x="292" y="-32.9" font-family="arial" font-size="12.00">P3</text>
</g>
<!-- 2&#45;&gt;4 -->
<g id="edge3" class="edge"><title>2&#45;&gt;4</title>
<path fill="none" stroke="black" d="M212.946,-65.8931C227.26,-60.4109 248.531,-52.2647 265.254,-45.8602"/>
<polygon fill="black" stroke="black" points="266.889,-48.9819 274.976,-42.1369 264.386,-42.4449 266.889,-48.9819"/>
<text text-anchor="middle" x="244" y="-61.4" font-family="arial" font-size="12.00">1.0</text>
</g>
<!-- 5 -->
<g id="node5" class="node"><title>5</title>
<ellipse fill="powderblue" stroke="black" cx="292" cy="-90" rx="18" ry="18"/>
<text text-anchor="middle" x="292" y="-86.9" font-family="arial" font-size="12.00">P4</text>
</g>
<!-- 2&#45;&gt;5 -->
<g id="edge5" class="edge"><title>2&#45;&gt;5</title>
<path fill="none" stroke="black" d="M213.805,-75.218C227.754,-77.8891 247.856,-81.7384 264.05,-84.8393"/>
<polygon fill="black" stroke="black" points="263.543,-88.3059 274.023,-86.7491 264.86,-81.4308 263.543,-88.3059"/>
<text text-anchor="middle" x="244" y="-86.4" font-family="arial" font-size="12.00">1.0</text>
</g>
<!-- 3&#45;&gt;4 -->
<g id="edge4" class="edge"><title>3&#45;&gt;4</title>
<path fill="none" stroke="black" d="M214.028,-16.3619C225.946,-15.6802 242.15,-15.6906 256,-19 259.7,-19.8841 263.466,-21.2018 267.089,-22.7196"/>
<polygon fill="black" stroke="black" points="265.671,-25.9206 276.206,-27.0442 268.671,-19.5961 265.671,-25.9206"/>
<text text-anchor="middle" x="244" y="-22.4" font-family="arial" font-size="12.00">0.25</text>
</g>
<!-- 6 -->
<g id="node6" class="node"><title>6</title>
<ellipse fill="powderblue" stroke="black" cx="388" cy="-65" rx="18" ry="18"/>
<text text-anchor="middle" x="388" y="-61.9" font-family="arial" font-size="12.00">P5</text>
</g>
<!-- 4&#45;&gt;6 -->
<g id="edge6" class="edge"><title>4&#45;&gt;6</title>
<path fill="none" stroke="black" d="M309.374,-41.0514C323.574,-45.4324 344.382,-51.8517 360.88,-56.9418"/>
<polygon fill="black" stroke="black" points="359.911,-60.3056 370.499,-59.9092 361.975,-53.6166 359.911,-60.3056"/>
<text text-anchor="middle" x="340" y="-56.4" font-family="arial" font-size="12.00">0.25</text>
</g>
<!-- 5&#45;&gt;6 -->
<g id="edge7" class="edge"><title>5&#45;&gt;6</title>
<path fill="none" stroke="black" d="M309.805,-85.5305C323.841,-81.7977 344.106,-76.408 360.351,-72.0874"/>
<polygon fill="black" stroke="black" points="361.576,-75.3835 370.34,-69.4308 359.777,-68.6187 361.576,-75.3835"/>
<text text-anchor="middle" x="340" y="-83.4" font-family="arial" font-size="12.00">4.0</text>
</g>
<!-- 7 -->
<g id="node7" class="node"><title>7</title>
<ellipse fill="powderblue" stroke="black" cx="491" cy="-97" rx="18" ry="18"/>
<text text-anchor="middle" x="491" y="-93.9" font-family="arial" font-size="12.00">P6</text>
</g>
<!-- 6&#45;&gt;7 -->
<g id="edge8" class="edge"><title>6&#45;&gt;7</title>
<path fill="none" stroke="black" d="M405.678,-70.2841C421.562,-75.3168 445.709,-82.9671 464.098,-88.7933"/>
<polygon fill="black" stroke="black" points="463.042,-92.1303 473.632,-91.8142 465.156,-85.4572 463.042,-92.1303"/>
<text text-anchor="middle" x="439.5" y="-88.4" font-family="arial" font-size="12.00">0.333</text>
</g>
<!-- 8 -->
<g id="node8" class="node"><title>8</title>
<ellipse fill="powderblue" stroke="black" cx="491" cy="-43" rx="18" ry="18"/>
<text text-anchor="middle" x="491" y="-39.9" font-family="arial" font-size="12.00">P7</text>
</g>
<!-- 6&#45;&gt;8 -->
<g id="edge9" class="edge"><title>6&#45;&gt;8</title>
<path fill="none" stroke="black" d="M405.723,-61.1215C411.507,-59.7948 418.035,-58.3144 424,-57 436.917,-54.154 451.28,-51.0947 463.301,-48.5641"/>
<polygon fill="black" stroke="black" points="464.097,-51.9733 473.166,-46.495 462.66,-45.1224 464.097,-51.9733"/>
<text text-anchor="middle" x="439.5" y="-60.4" font-family="arial" font-size="12.00">0.375</text>
</g>
<!-- 9 -->
<g id="node9" class="node"><title>9</title>
<ellipse fill="powderblue" stroke="black" cx="594" cy="-72" rx="18" ry="18"/>
<text text-anchor="middle" x="594" y="-68.9" font-family="arial" font-size="12.00">P8</text>
</g>
<!-- 7&#45;&gt;9 -->
<g id="edge10" class="edge"><title>7&#45;&gt;9</title>
<path fill="none" stroke="black" d="M508.678,-92.8718C524.395,-88.9815 548.2,-83.0891 566.513,-78.5561"/>
<polygon fill="black" stroke="black" points="567.431,-81.9347 576.297,-76.1344 565.749,-75.1397 567.431,-81.9347"/>
<text text-anchor="middle" x="542.5" y="-91.4" font-family="arial" font-size="12.00">0.833</text>
</g>
<!-- 8&#45;&gt;9 -->
<g id="edge11" class="edge"><title>8&#45;&gt;9</title>
<path fill="none" stroke="black" d="M508.678,-47.7888C524.395,-52.3014 548.2,-59.1366 566.513,-64.3949"/>
<polygon fill="black" stroke="black" points="565.72,-67.8084 576.297,-67.2041 567.651,-61.0802 565.72,-67.8084"/>
<text text-anchor="middle" x="542.5" y="-64.4" font-family="arial" font-size="12.00">1.5</text>
</g>
<!-- 11 -->
<g id="node11" class="node"><title>11</title>
<ellipse fill="darksalmon" stroke="black" cx="697" cy="-72" rx="18" ry="18"/>
<text text-anchor="middle" x="697" y="-68.9" font-family="arial" font-size="12.00">Sink</text>
</g>
<!-- 9&#45;&gt;11 -->
<g id="edge13" class="edge"><title>9&#45;&gt;11</title>
<path fill="none" stroke="black" d="M612.133,-72C627.586,-72 650.584,-72 668.591,-72"/>
<polygon fill="black" stroke="black" points="668.783,-75.5001 678.783,-72 668.783,-68.5001 668.783,-75.5001"/>
<text text-anchor="middle" x="645.5" y="-75.4" font-family="arial" font-size="12.00">0.417</text>
</g>
<!-- 10 -->
<g id="node10" class="node"><title>10</title>
<ellipse fill="forestgreen" stroke="black" cx="18" cy="-40" rx="18" ry="18"/>
<text text-anchor="middle" x="18" y="-37.5" font-family="arial" font-size="10.00">Source</text>
</g>
<!-- 10&#45;&gt;1 -->
<g id="edge12" class="edge"><title>10&#45;&gt;1</title>
<path fill="none" stroke="black" d="M36.1884,-40C48.3426,-40 64.8865,-40 78.8185,-40"/>
<polygon fill="black" stroke="black" points="78.8473,-43.5001 88.8473,-40 78.8473,-36.5001 78.8473,-43.5001"/>
<text text-anchor="middle" x="62.5" y="-43.4" font-family="arial" font-size="12.00">1.0</text>
</g>
</g>
</svg>
