<?xml version="1.0" encoding="UTF-8" standalone="no"?>
<!DOCTYPE svg PUBLIC "-//W3C//DTD SVG 1.1//EN"
 "http://www.w3.org/Graphics/SVG/1.1/DTD/svg11.dtd">
<!-- Generated by graphviz version 2.38.0 (20140413.2041)
 -->
<!-- Title: %3 Pages: 1 -->
<svg width="798pt" height="105pt"
 viewBox="0.00 0.00 798.00 105.00" xmlns="http://www.w3.org/2000/svg" xmlns:xlink="http://www.w3.org/1999/xlink">
<g id="graph0" class="graph" transform="scale(1 1) rotate(0) translate(4 101)">
<title>%3</title>
<polygon fill="white" stroke="none" points="-4,4 -4,-101 794,-101 794,4 -4,4"/>
<!-- 1 -->
<g id="node1" class="node"><title>1</title>
<ellipse fill="powderblue" stroke="black" cx="107" cy="-40" rx="18" ry="18"/>
<text text-anchor="middle" x="107" y="-36.9" font-family="arial" font-size="12.00">P0</text>
</g>
<!-- 2 -->
<g id="node2" class="node"><title>2</title>
<ellipse fill="powderblue" stroke="black" cx="196" cy="-40" rx="18" ry="18"/>
<text text-anchor="middle" x="196" y="-36.9" font-family="arial" font-size="12.00">P1</text>
</g>
<!-- 1&#45;&gt;2 -->
<g id="edge1" class="edge"><title>1&#45;&gt;2</title>
<path fill="none" stroke="black" d="M125.188,-40C137.343,-40 153.886,-40 167.818,-40"/>
<polygon fill="black" stroke="black" points="167.847,-43.5001 177.847,-40 167.847,-36.5001 167.847,-43.5001"/>
<text text-anchor="middle" x="151.5" y="-43.4" font-family="arial" font-size="12.00">2.0</text>
</g>
<!-- 3 -->
<g id="node3" class="node"><title>3</title>
<ellipse fill="powderblue" stroke="black" cx="299" cy="-72" rx="18" ry="18"/>
<text text-anchor="middle" x="299" y="-68.9" font-family="arial" font-size="12.00">P2</text>
</g>
<!-- 2&#45;&gt;3 -->
<g id="edge2" class="edge"><title>2&#45;&gt;3</title>
<path fill="none" stroke="black" d="M213.678,-45.2841C229.562,-50.3168 253.709,-57.9671 272.098,-63.7933"/>
<polygon fill="black" stroke="black" points="271.042,-67.1303 281.632,-66.8142 273.156,-60.4572 271.042,-67.1303"/>
<text text-anchor="middle" x="247.5" y="-63.4" font-family="arial" font-size="12.00">2.0</text>
</g>
<!-- 4 -->
<g id="node4" class="node"><title>4</title>
<ellipse fill="powderblue" stroke="black" cx="299" cy="-18" rx="18" ry="18"/>
<text text-anchor="middle" x="299" y="-14.9" font-family="arial" font-size="12.00">P3</text>
</g>
<!-- 2&#45;&gt;4 -->
<g id="edge3" class="edge"><title>2&#45;&gt;4</title>
<path fill="none" stroke="black" d="M213.723,-36.1215C219.507,-34.7948 226.035,-33.3144 232,-32 244.917,-29.154 259.28,-26.0947 271.301,-23.5641"/>
<polygon fill="black" stroke="black" points="272.097,-26.9733 281.166,-21.495 270.66,-20.1224 272.097,-26.9733"/>
<text text-anchor="middle" x="247.5" y="-35.4" font-family="arial" font-size="12.00">0.667</text>
</g>
<!-- 5 -->
<g id="node5" class="node"><title>5</title>
<ellipse fill="powderblue" stroke="black" cx="388" cy="-47" rx="18" ry="18"/>
<text text-anchor="middle" x="388" y="-43.9" font-family="arial" font-size="12.00">P4</text>
</g>
<!-- 3&#45;&gt;5 -->
<g id="edge4" class="edge"><title>3&#45;&gt;5</title>
<path fill="none" stroke="black" d="M316.774,-67.1797C329.251,-63.5946 346.516,-58.6334 360.805,-54.5274"/>
<polygon fill="black" stroke="black" points="361.928,-57.8464 370.572,-51.7207 359.994,-51.1187 361.928,-57.8464"/>
<text text-anchor="middle" x="343.5" y="-64.4" font-family="arial" font-size="12.00">2.0</text>
</g>
<!-- 4&#45;&gt;5 -->
<g id="edge5" class="edge"><title>4&#45;&gt;5</title>
<path fill="none" stroke="black" d="M316.364,-23.4547C328.88,-27.6268 346.387,-33.4623 360.84,-38.28"/>
<polygon fill="black" stroke="black" points="360.116,-41.7278 370.709,-41.5698 362.329,-35.087 360.116,-41.7278"/>
<text text-anchor="middle" x="343.5" y="-39.4" font-family="arial" font-size="12.00">2.0</text>
</g>
<!-- 6 -->
<g id="node6" class="node"><title>6</title>
<ellipse fill="powderblue" stroke="black" cx="477" cy="-79" rx="18" ry="18"/>
<text text-anchor="middle" x="477" y="-75.9" font-family="arial" font-size="12.00">P5</text>
</g>
<!-- 5&#45;&gt;6 -->
<g id="edge6" class="edge"><title>5&#45;&gt;6</title>
<path fill="none" stroke="black" d="M405.364,-53.019C418.002,-57.6673 435.727,-64.1871 450.26,-69.5325"/>
<polygon fill="black" stroke="black" points="449.116,-72.8408 459.709,-73.008 451.532,-66.2711 449.116,-72.8408"/>
<text text-anchor="middle" x="432.5" y="-68.4" font-family="arial" font-size="12.00">4.0</text>
</g>
<!-- 7 -->
<g id="node7" class="node"><title>7</title>
<ellipse fill="powderblue" stroke="black" cx="477" cy="-25" rx="18" ry="18"/>
<text text-anchor="middle" x="477" y="-21.9" font-family="arial" font-size="12.00">P6</text>
</g>
<!-- 5&#45;&gt;7 -->
<g id="edge7" class="edge"><title>5&#45;&gt;7</title>
<path fill="none" stroke="black" d="M405.774,-42.7582C418.171,-39.6234 435.296,-35.293 449.531,-31.6933"/>
<polygon fill="black" stroke="black" points="450.44,-35.0736 459.277,-29.2288 448.724,-28.2872 450.44,-35.0736"/>
<text text-anchor="middle" x="432.5" y="-41.4" font-family="arial" font-size="12.00">2.5</text>
</g>
<!-- 8 -->
<g id="node8" class="node"><title>8</title>
<ellipse fill="powderblue" stroke="black" cx="566" cy="-54" rx="18" ry="18"/>
<text text-anchor="middle" x="566" y="-50.9" font-family="arial" font-size="12.00">P7</text>
</g>
<!-- 6&#45;&gt;8 -->
<g id="edge8" class="edge"><title>6&#45;&gt;8</title>
<path fill="none" stroke="black" d="M494.774,-74.1797C507.251,-70.5946 524.516,-65.6334 538.805,-61.5274"/>
<polygon fill="black" stroke="black" points="539.928,-64.8464 548.572,-58.7207 537.994,-58.1187 539.928,-64.8464"/>
<text text-anchor="middle" x="521.5" y="-71.4" font-family="arial" font-size="12.00">2.0</text>
</g>
<!-- 7&#45;&gt;8 -->
<g id="edge9" class="edge"><title>7&#45;&gt;8</title>
<path fill="none" stroke="black" d="M494.364,-30.4547C506.88,-34.6268 524.387,-40.4623 538.84,-45.28"/>
<polygon fill="black" stroke="black" points="538.116,-48.7278 548.709,-48.5698 540.329,-42.087 538.116,-48.7278"/>
<text text-anchor="middle" x="521.5" y="-45.4" font-family="arial" font-size="12.00">5.0</text>
</g>
<!-- 9 -->
<g id="node9" class="node"><title>9</title>
<ellipse fill="powderblue" stroke="black" cx="669" cy="-54" rx="18" ry="18"/>
<text text-anchor="middle" x="669" y="-50.9" font-family="arial" font-size="12.00">P8</text>
</g>
<!-- 8&#45;&gt;9 -->
<g id="edge10" class="edge"><title>8&#45;&gt;9</title>
<path fill="none" stroke="black" d="M584.133,-54C599.586,-54 622.584,-54 640.591,-54"/>
<polygon fill="black" stroke="black" points="640.783,-57.5001 650.783,-54 640.783,-50.5001 640.783,-57.5001"/>
<text text-anchor="middle" x="617.5" y="-57.4" font-family="arial" font-size="12.00">0.667</text>
</g>
<!-- 11 -->
<g id="node11" class="node"><title>11</title>
<ellipse fill="darksalmon" stroke="black" cx="772" cy="-54" rx="18" ry="18"/>
<text text-anchor="middle" x="772" y="-50.9" font-family="arial" font-size="12.00">Sink</text>
</g>
<!-- 9&#45;&gt;11 -->
<g id="edge12" class="edge"><title>9&#45;&gt;11</title>
<path fill="none" stroke="black" d="M687.133,-54C702.586,-54 725.584,-54 743.591,-54"/>
<polygon fill="black" stroke="black" points="743.783,-57.5001 753.783,-54 743.783,-50.5001 743.783,-57.5001"/>
<text text-anchor="middle" x="720.5" y="-57.4" font-family="arial" font-size="12.00">0.667</text>
</g>
<!-- 10 -->
<g id="node10" class="node"><title>10</title>
<ellipse fill="forestgreen" stroke="black" cx="18" cy="-40" rx="18" ry="18"/>
<text text-anchor="middle" x="18" y="-37.5" font-family="arial" font-size="10.00">Source</text>
</g>
<!-- 10&#45;&gt;1 -->
<g id="edge11" class="edge"><title>10&#45;&gt;1</title>
<path fill="none" stroke="black" d="M36.1884,-40C48.3426,-40 64.8865,-40 78.8185,-40"/>
<polygon fill="black" stroke="black" points="78.8473,-43.5001 88.8473,-40 78.8473,-36.5001 78.8473,-43.5001"/>
<text text-anchor="middle" x="62.5" y="-43.4" font-family="arial" font-size="12.00">1.0</text>
</g>
</g>
</svg>
