<?xml version="1.0" encoding="UTF-8" standalone="no"?>
<!DOCTYPE svg PUBLIC "-//W3C//DTD SVG 1.1//EN"
 "http://www.w3.org/Graphics/SVG/1.1/DTD/svg11.dtd">
<!-- Generated by graphviz version 2.38.0 (20140413.2041)
 -->
<!-- Title: %3 Pages: 1 -->
<svg width="729pt" height="123pt"
 viewBox="0.00 0.00 729.00 123.00" xmlns="http://www.w3.org/2000/svg" xmlns:xlink="http://www.w3.org/1999/xlink">
<g id="graph0" class="graph" transform="scale(1 1) rotate(0) translate(4 119)">
<title>%3</title>
<polygon fill="white" stroke="none" points="-4,4 -4,-119 725,-119 725,4 -4,4"/>
<!-- 1 -->
<g id="node1" class="node"><title>1</title>
<ellipse fill="powderblue" stroke="black" cx="107" cy="-72" rx="18" ry="18"/>
<text text-anchor="middle" x="107" y="-68.9" font-family="arial" font-size="12.00">P0</text>
</g>
<!-- 3 -->
<g id="node3" class="node"><title>3</title>
<ellipse fill="powderblue" stroke="black" cx="210" cy="-47" rx="18" ry="18"/>
<text text-anchor="middle" x="210" y="-43.9" font-family="arial" font-size="12.00">P2</text>
</g>
<!-- 1&#45;&gt;3 -->
<g id="edge1" class="edge"><title>1&#45;&gt;3</title>
<path fill="none" stroke="black" d="M124.678,-67.8718C140.395,-63.9815 164.2,-58.0891 182.513,-53.5561"/>
<polygon fill="black" stroke="black" points="183.431,-56.9347 192.297,-51.1344 181.749,-50.1397 183.431,-56.9347"/>
<text text-anchor="middle" x="158.5" y="-66.4" font-family="arial" font-size="12.00">1.0</text>
</g>
<!-- 2 -->
<g id="node2" class="node"><title>2</title>
<ellipse fill="powderblue" stroke="black" cx="107" cy="-18" rx="18" ry="18"/>
<text text-anchor="middle" x="107" y="-14.9" font-family="arial" font-size="12.00">P1</text>
</g>
<!-- 2&#45;&gt;3 -->
<g id="edge2" class="edge"><title>2&#45;&gt;3</title>
<path fill="none" stroke="black" d="M124.678,-22.7888C140.395,-27.3014 164.2,-34.1366 182.513,-39.3949"/>
<polygon fill="black" stroke="black" points="181.72,-42.8084 192.297,-42.2041 183.651,-36.0802 181.72,-42.8084"/>
<text text-anchor="middle" x="158.5" y="-39.4" font-family="arial" font-size="12.00">0.667</text>
</g>
<!-- 4 -->
<g id="node4" class="node"><title>4</title>
<ellipse fill="powderblue" stroke="black" cx="299" cy="-47" rx="18" ry="18"/>
<text text-anchor="middle" x="299" y="-43.9" font-family="arial" font-size="12.00">P3</text>
</g>
<!-- 3&#45;&gt;4 -->
<g id="edge3" class="edge"><title>3&#45;&gt;4</title>
<path fill="none" stroke="black" d="M228.188,-47C240.343,-47 256.886,-47 270.818,-47"/>
<polygon fill="black" stroke="black" points="270.847,-50.5001 280.847,-47 270.847,-43.5001 270.847,-50.5001"/>
<text text-anchor="middle" x="254.5" y="-50.4" font-family="arial" font-size="12.00">1.5</text>
</g>
<!-- 5 -->
<g id="node5" class="node"><title>5</title>
<ellipse fill="powderblue" stroke="black" cx="395" cy="-79" rx="18" ry="18"/>
<text text-anchor="middle" x="395" y="-75.9" font-family="arial" font-size="12.00">P4</text>
</g>
<!-- 4&#45;&gt;5 -->
<g id="edge4" class="edge"><title>4&#45;&gt;5</title>
<path fill="none" stroke="black" d="M316.374,-52.574C330.661,-57.4379 351.637,-64.5786 368.183,-70.2114"/>
<polygon fill="black" stroke="black" points="367.22,-73.5805 377.814,-73.4899 369.476,-66.9539 367.22,-73.5805"/>
<text text-anchor="middle" x="347" y="-69.4" font-family="arial" font-size="12.00">0.75</text>
</g>
<!-- 6 -->
<g id="node6" class="node"><title>6</title>
<ellipse fill="powderblue" stroke="black" cx="395" cy="-25" rx="18" ry="18"/>
<text text-anchor="middle" x="395" y="-21.9" font-family="arial" font-size="12.00">P5</text>
</g>
<!-- 4&#45;&gt;6 -->
<g id="edge5" class="edge"><title>4&#45;&gt;6</title>
<path fill="none" stroke="black" d="M316.805,-43.0668C330.841,-39.782 351.106,-35.039 367.351,-31.237"/>
<polygon fill="black" stroke="black" points="368.401,-34.5859 377.34,-28.8991 366.806,-27.7701 368.401,-34.5859"/>
<text text-anchor="middle" x="347" y="-41.4" font-family="arial" font-size="12.00">0.5</text>
</g>
<!-- 7 -->
<g id="node7" class="node"><title>7</title>
<ellipse fill="powderblue" stroke="black" cx="498" cy="-43" rx="18" ry="18"/>
<text text-anchor="middle" x="498" y="-39.9" font-family="arial" font-size="12.00">P6</text>
</g>
<!-- 5&#45;&gt;7 -->
<g id="edge6" class="edge"><title>5&#45;&gt;7</title>
<path fill="none" stroke="black" d="M412.227,-73.216C428.13,-67.5477 452.618,-58.8192 471.194,-52.1983"/>
<polygon fill="black" stroke="black" points="472.568,-55.424 480.813,-48.7697 470.218,-48.8304 472.568,-55.424"/>
<text text-anchor="middle" x="446.5" y="-69.4" font-family="arial" font-size="12.00">0.5</text>
</g>
<!-- 8 -->
<g id="node8" class="node"><title>8</title>
<ellipse fill="powderblue" stroke="black" cx="498" cy="-97" rx="18" ry="18"/>
<text text-anchor="middle" x="498" y="-93.9" font-family="arial" font-size="12.00">P7</text>
</g>
<!-- 5&#45;&gt;8 -->
<g id="edge8" class="edge"><title>5&#45;&gt;8</title>
<path fill="none" stroke="black" d="M413.133,-82.0535C428.753,-84.8372 452.081,-88.9946 470.172,-92.2187"/>
<polygon fill="black" stroke="black" points="469.661,-95.6827 480.12,-93.9916 470.889,-88.7913 469.661,-95.6827"/>
<text text-anchor="middle" x="446.5" y="-93.4" font-family="arial" font-size="12.00">0.45</text>
</g>
<!-- 6&#45;&gt;7 -->
<g id="edge7" class="edge"><title>6&#45;&gt;7</title>
<path fill="none" stroke="black" d="M413.07,-23.2496C426.545,-22.3457 445.724,-22.1262 462,-26 465.701,-26.8808 469.467,-28.1966 473.091,-29.7135"/>
<polygon fill="black" stroke="black" points="471.672,-32.9145 482.207,-34.0378 474.672,-26.5899 471.672,-32.9145"/>
<text text-anchor="middle" x="446.5" y="-29.4" font-family="arial" font-size="12.00">0.333</text>
</g>
<!-- 9 -->
<g id="node9" class="node"><title>9</title>
<ellipse fill="powderblue" stroke="black" cx="594" cy="-72" rx="18" ry="18"/>
<text text-anchor="middle" x="594" y="-68.9" font-family="arial" font-size="12.00">P8</text>
</g>
<!-- 7&#45;&gt;9 -->
<g id="edge9" class="edge"><title>7&#45;&gt;9</title>
<path fill="none" stroke="black" d="M515.374,-48.0514C529.574,-52.4324 550.382,-58.8517 566.88,-63.9418"/>
<polygon fill="black" stroke="black" points="565.911,-67.3056 576.499,-66.9092 567.975,-60.6166 565.911,-67.3056"/>
<text text-anchor="middle" x="546" y="-63.4" font-family="arial" font-size="12.00">1.25</text>
</g>
<!-- 8&#45;&gt;9 -->
<g id="edge10" class="edge"><title>8&#45;&gt;9</title>
<path fill="none" stroke="black" d="M515.805,-92.5305C529.841,-88.7977 550.106,-83.408 566.351,-79.0874"/>
<polygon fill="black" stroke="black" points="567.576,-82.3835 576.34,-76.4308 565.777,-75.6187 567.576,-82.3835"/>
<text text-anchor="middle" x="546" y="-90.4" font-family="arial" font-size="12.00">0.09</text>
</g>
<!-- 11 -->
<g id="node11" class="node"><title>11</title>
<ellipse fill="darksalmon" stroke="black" cx="703" cy="-72" rx="18" ry="18"/>
<text text-anchor="middle" x="703" y="-68.9" font-family="arial" font-size="12.00">Sink</text>
</g>
<!-- 9&#45;&gt;11 -->
<g id="edge13" class="edge"><title>9&#45;&gt;11</title>
<path fill="none" stroke="black" d="M612.191,-72C629.039,-72 654.982,-72 674.661,-72"/>
<polygon fill="black" stroke="black" points="674.851,-75.5001 684.851,-72 674.851,-68.5001 674.851,-75.5001"/>
<text text-anchor="middle" x="648.5" y="-75.4" font-family="arial" font-size="12.00">0.0129</text>
</g>
<!-- 10 -->
<g id="node10" class="node"><title>10</title>
<ellipse fill="forestgreen" stroke="black" cx="18" cy="-44" rx="18" ry="18"/>
<text text-anchor="middle" x="18" y="-41.5" font-family="arial" font-size="10.00">Source</text>
</g>
<!-- 10&#45;&gt;1 -->
<g id="edge12" class="edge"><title>10&#45;&gt;1</title>
<path fill="none" stroke="black" d="M35.364,-49.2666C47.8803,-53.2948 65.387,-58.9292 79.84,-63.5807"/>
<polygon fill="black" stroke="black" points="79.1179,-67.025 89.7093,-66.757 81.2625,-60.3616 79.1179,-67.025"/>
<text text-anchor="middle" x="62.5" y="-63.4" font-family="arial" font-size="12.00">1.0</text>
</g>
<!-- 10&#45;&gt;2 -->
<g id="edge11" class="edge"><title>10&#45;&gt;2</title>
<path fill="none" stroke="black" d="M35.3072,-38.1545C41.1726,-36.1195 47.857,-33.8777 54,-32 62.1725,-29.5019 71.1384,-27.0029 79.2891,-24.8221"/>
<polygon fill="black" stroke="black" points="80.2752,-28.1819 89.0564,-22.254 78.4951,-21.412 80.2752,-28.1819"/>
<text text-anchor="middle" x="62.5" y="-35.4" font-family="arial" font-size="12.00">1.0</text>
</g>
</g>
</svg>
