<?xml version="1.0" encoding="UTF-8" standalone="no"?>
<!DOCTYPE svg PUBLIC "-//W3C//DTD SVG 1.1//EN"
 "http://www.w3.org/Graphics/SVG/1.1/DTD/svg11.dtd">
<!-- Generated by graphviz version 2.38.0 (20140413.2041)
 -->
<!-- Title: %3 Pages: 1 -->
<svg width="688pt" height="157pt"
 viewBox="0.00 0.00 688.00 157.00" xmlns="http://www.w3.org/2000/svg" xmlns:xlink="http://www.w3.org/1999/xlink">
<g id="graph0" class="graph" transform="scale(1 1) rotate(0) translate(4 153)">
<title>%3</title>
<polygon fill="white" stroke="none" points="-4,4 -4,-153 684,-153 684,4 -4,4"/>
<!-- 1 -->
<g id="node1" class="node"><title>1</title>
<ellipse fill="powderblue" stroke="black" cx="107" cy="-40" rx="18" ry="18"/>
<text text-anchor="middle" x="107" y="-36.9" font-family="arial" font-size="12.00">P0</text>
</g>
<!-- 2 -->
<g id="node2" class="node"><title>2</title>
<ellipse fill="powderblue" stroke="black" cx="196" cy="-40" rx="18" ry="18"/>
<text text-anchor="middle" x="196" y="-36.9" font-family="arial" font-size="12.00">P1</text>
</g>
<!-- 1&#45;&gt;2 -->
<g id="edge1" class="edge"><title>1&#45;&gt;2</title>
<path fill="none" stroke="black" d="M125.188,-40C137.343,-40 153.886,-40 167.818,-40"/>
<polygon fill="black" stroke="black" points="167.847,-43.5001 177.847,-40 167.847,-36.5001 167.847,-43.5001"/>
<text text-anchor="middle" x="151.5" y="-43.4" font-family="arial" font-size="12.00">0.5</text>
</g>
<!-- 3 -->
<g id="node3" class="node"><title>3</title>
<ellipse fill="powderblue" stroke="black" cx="285" cy="-40" rx="18" ry="18"/>
<text text-anchor="middle" x="285" y="-36.9" font-family="arial" font-size="12.00">P2</text>
</g>
<!-- 2&#45;&gt;3 -->
<g id="edge2" class="edge"><title>2&#45;&gt;3</title>
<path fill="none" stroke="black" d="M214.188,-40C226.343,-40 242.886,-40 256.818,-40"/>
<polygon fill="black" stroke="black" points="256.847,-43.5001 266.847,-40 256.847,-36.5001 256.847,-43.5001"/>
<text text-anchor="middle" x="240.5" y="-43.4" font-family="arial" font-size="12.00">1.5</text>
</g>
<!-- 4 -->
<g id="node4" class="node"><title>4</title>
<ellipse fill="powderblue" stroke="black" cx="374" cy="-81" rx="18" ry="18"/>
<text text-anchor="middle" x="374" y="-77.9" font-family="arial" font-size="12.00">P3</text>
</g>
<!-- 3&#45;&gt;4 -->
<g id="edge3" class="edge"><title>3&#45;&gt;4</title>
<path fill="none" stroke="black" d="M301.554,-47.33C314.464,-53.414 333.069,-62.1819 348.057,-69.2452"/>
<polygon fill="black" stroke="black" points="346.75,-72.4983 357.287,-73.5952 349.734,-66.1662 346.75,-72.4983"/>
<text text-anchor="middle" x="329.5" y="-67.4" font-family="arial" font-size="12.00">1.5</text>
</g>
<!-- 5 -->
<g id="node5" class="node"><title>5</title>
<ellipse fill="powderblue" stroke="black" cx="374" cy="-18" rx="18" ry="18"/>
<text text-anchor="middle" x="374" y="-14.9" font-family="arial" font-size="12.00">P4</text>
</g>
<!-- 3&#45;&gt;5 -->
<g id="edge4" class="edge"><title>3&#45;&gt;5</title>
<path fill="none" stroke="black" d="M302.774,-35.7582C315.171,-32.6234 332.296,-28.293 346.531,-24.6933"/>
<polygon fill="black" stroke="black" points="347.44,-28.0736 356.277,-22.2288 345.724,-21.2872 347.44,-28.0736"/>
<text text-anchor="middle" x="329.5" y="-34.4" font-family="arial" font-size="12.00">1.5</text>
</g>
<!-- 6 -->
<g id="node6" class="node"><title>6</title>
<ellipse fill="powderblue" stroke="black" cx="470" cy="-23" rx="18" ry="18"/>
<text text-anchor="middle" x="470" y="-19.9" font-family="arial" font-size="12.00">P5</text>
</g>
<!-- 4&#45;&gt;6 -->
<g id="edge5" class="edge"><title>4&#45;&gt;6</title>
<path fill="none" stroke="black" d="M389.688,-71.9375C404.638,-62.7129 428.042,-48.272 445.558,-37.4641"/>
<polygon fill="black" stroke="black" points="447.433,-40.42 454.105,-32.1903 443.757,-34.4628 447.433,-40.42"/>
<text text-anchor="middle" x="422" y="-61.4" font-family="arial" font-size="12.00">0.5</text>
</g>
<!-- 7 -->
<g id="node7" class="node"><title>7</title>
<ellipse fill="powderblue" stroke="black" cx="470" cy="-131" rx="18" ry="18"/>
<text text-anchor="middle" x="470" y="-127.9" font-family="arial" font-size="12.00">P6</text>
</g>
<!-- 4&#45;&gt;7 -->
<g id="edge7" class="edge"><title>4&#45;&gt;7</title>
<path fill="none" stroke="black" d="M390.522,-89.2565C405.306,-97.12 427.778,-109.074 444.893,-118.177"/>
<polygon fill="black" stroke="black" points="443.294,-121.291 453.767,-122.897 446.582,-115.111 443.294,-121.291"/>
<text text-anchor="middle" x="422" y="-114.4" font-family="arial" font-size="12.00">2.25</text>
</g>
<!-- 8 -->
<g id="node8" class="node"><title>8</title>
<ellipse fill="powderblue" stroke="black" cx="470" cy="-77" rx="18" ry="18"/>
<text text-anchor="middle" x="470" y="-73.9" font-family="arial" font-size="12.00">P7</text>
</g>
<!-- 4&#45;&gt;8 -->
<g id="edge8" class="edge"><title>4&#45;&gt;8</title>
<path fill="none" stroke="black" d="M392.241,-80.2663C406.022,-79.6799 425.6,-78.8468 441.535,-78.1687"/>
<polygon fill="black" stroke="black" points="442.026,-81.6511 451.868,-77.729 441.728,-74.6574 442.026,-81.6511"/>
<text text-anchor="middle" x="422" y="-82.4" font-family="arial" font-size="12.00">2.0</text>
</g>
<!-- 5&#45;&gt;6 -->
<g id="edge6" class="edge"><title>5&#45;&gt;6</title>
<path fill="none" stroke="black" d="M392.085,-15.6639C403.89,-14.4088 419.936,-13.4131 434,-15 436.75,-15.3103 439.6,-15.7537 442.431,-16.2747"/>
<polygon fill="black" stroke="black" points="441.886,-19.7372 452.397,-18.4021 443.348,-12.8914 441.886,-19.7372"/>
<text text-anchor="middle" x="422" y="-18.4" font-family="arial" font-size="12.00">0.6</text>
</g>
<!-- 9 -->
<g id="node9" class="node"><title>9</title>
<ellipse fill="powderblue" stroke="black" cx="566" cy="-77" rx="18" ry="18"/>
<text text-anchor="middle" x="566" y="-73.9" font-family="arial" font-size="12.00">P8</text>
</g>
<!-- 6&#45;&gt;9 -->
<g id="edge9" class="edge"><title>6&#45;&gt;9</title>
<path fill="none" stroke="black" d="M486.103,-31.676C500.903,-40.1785 523.694,-53.2712 540.982,-63.2025"/>
<polygon fill="black" stroke="black" points="539.52,-66.3991 549.935,-68.3455 543.007,-60.3293 539.52,-66.3991"/>
<text text-anchor="middle" x="518" y="-59.4" font-family="arial" font-size="12.00">1.0</text>
</g>
<!-- 7&#45;&gt;9 -->
<g id="edge10" class="edge"><title>7&#45;&gt;9</title>
<path fill="none" stroke="black" d="M486.103,-122.324C500.903,-113.822 523.694,-100.729 540.982,-90.7975"/>
<polygon fill="black" stroke="black" points="543.007,-93.6707 549.935,-85.6545 539.52,-87.6009 543.007,-93.6707"/>
<text text-anchor="middle" x="518" y="-113.4" font-family="arial" font-size="12.00">0.75</text>
</g>
<!-- 8&#45;&gt;9 -->
<g id="edge11" class="edge"><title>8&#45;&gt;9</title>
<path fill="none" stroke="black" d="M488.241,-77C502.022,-77 521.6,-77 537.535,-77"/>
<polygon fill="black" stroke="black" points="537.868,-80.5001 547.868,-77 537.868,-73.5001 537.868,-80.5001"/>
<text text-anchor="middle" x="518" y="-80.4" font-family="arial" font-size="12.00">1.0</text>
</g>
<!-- 11 -->
<g id="node11" class="node"><title>11</title>
<ellipse fill="darksalmon" stroke="black" cx="662" cy="-77" rx="18" ry="18"/>
<text text-anchor="middle" x="662" y="-73.9" font-family="arial" font-size="12.00">Sink</text>
</g>
<!-- 9&#45;&gt;11 -->
<g id="edge13" class="edge"><title>9&#45;&gt;11</title>
<path fill="none" stroke="black" d="M584.241,-77C598.022,-77 617.6,-77 633.535,-77"/>
<polygon fill="black" stroke="black" points="633.868,-80.5001 643.868,-77 633.868,-73.5001 633.868,-80.5001"/>
<text text-anchor="middle" x="614" y="-80.4" font-family="arial" font-size="12.00">0.25</text>
</g>
<!-- 10 -->
<g id="node10" class="node"><title>10</title>
<ellipse fill="forestgreen" stroke="black" cx="18" cy="-40" rx="18" ry="18"/>
<text text-anchor="middle" x="18" y="-37.5" font-family="arial" font-size="10.00">Source</text>
</g>
<!-- 10&#45;&gt;1 -->
<g id="edge12" class="edge"><title>10&#45;&gt;1</title>
<path fill="none" stroke="black" d="M36.1884,-40C48.3426,-40 64.8865,-40 78.8185,-40"/>
<polygon fill="black" stroke="black" points="78.8473,-43.5001 88.8473,-40 78.8473,-36.5001 78.8473,-43.5001"/>
<text text-anchor="middle" x="62.5" y="-43.4" font-family="arial" font-size="12.00">1.0</text>
</g>
</g>
</svg>
