<?xml version="1.0" encoding="UTF-8" standalone="no"?>
<!DOCTYPE svg PUBLIC "-//W3C//DTD SVG 1.1//EN"
 "http://www.w3.org/Graphics/SVG/1.1/DTD/svg11.dtd">
<!-- Generated by graphviz version 2.38.0 (20140413.2041)
 -->
<!-- Title: %3 Pages: 1 -->
<svg width="750pt" height="152pt"
 viewBox="0.00 0.00 750.00 152.00" xmlns="http://www.w3.org/2000/svg" xmlns:xlink="http://www.w3.org/1999/xlink">
<g id="graph0" class="graph" transform="scale(1 1) rotate(0) translate(4 148)">
<title>%3</title>
<polygon fill="white" stroke="none" points="-4,4 -4,-148 746,-148 746,4 -4,4"/>
<!-- 1 -->
<g id="node1" class="node"><title>1</title>
<ellipse fill="powderblue" stroke="black" cx="107" cy="-72" rx="18" ry="18"/>
<text text-anchor="middle" x="107" y="-68.9" font-family="arial" font-size="12.00">P0</text>
</g>
<!-- 2 -->
<g id="node2" class="node"><title>2</title>
<ellipse fill="powderblue" stroke="black" cx="196" cy="-126" rx="18" ry="18"/>
<text text-anchor="middle" x="196" y="-122.9" font-family="arial" font-size="12.00">P1</text>
</g>
<!-- 1&#45;&gt;2 -->
<g id="edge1" class="edge"><title>1&#45;&gt;2</title>
<path fill="none" stroke="black" d="M122.758,-81.1604C136.132,-89.4612 156.066,-101.834 171.608,-111.481"/>
<polygon fill="black" stroke="black" points="169.827,-114.495 180.169,-116.795 173.519,-108.547 169.827,-114.495"/>
<text text-anchor="middle" x="151.5" y="-106.4" font-family="arial" font-size="12.00">1.0</text>
</g>
<!-- 3 -->
<g id="node3" class="node"><title>3</title>
<ellipse fill="powderblue" stroke="black" cx="196" cy="-72" rx="18" ry="18"/>
<text text-anchor="middle" x="196" y="-68.9" font-family="arial" font-size="12.00">P2</text>
</g>
<!-- 1&#45;&gt;3 -->
<g id="edge2" class="edge"><title>1&#45;&gt;3</title>
<path fill="none" stroke="black" d="M125.188,-72C137.343,-72 153.886,-72 167.818,-72"/>
<polygon fill="black" stroke="black" points="167.847,-75.5001 177.847,-72 167.847,-68.5001 167.847,-75.5001"/>
<text text-anchor="middle" x="151.5" y="-75.4" font-family="arial" font-size="12.00">1.5</text>
</g>
<!-- 4 -->
<g id="node4" class="node"><title>4</title>
<ellipse fill="powderblue" stroke="black" cx="196" cy="-18" rx="18" ry="18"/>
<text text-anchor="middle" x="196" y="-14.9" font-family="arial" font-size="12.00">P3</text>
</g>
<!-- 1&#45;&gt;4 -->
<g id="edge3" class="edge"><title>1&#45;&gt;4</title>
<path fill="none" stroke="black" d="M122.758,-62.8396C136.132,-54.5388 156.066,-42.1662 171.608,-32.519"/>
<polygon fill="black" stroke="black" points="173.519,-35.4527 180.169,-27.2053 169.827,-29.5052 173.519,-35.4527"/>
<text text-anchor="middle" x="151.5" y="-53.4" font-family="arial" font-size="12.00">1.0</text>
</g>
<!-- 5 -->
<g id="node5" class="node"><title>5</title>
<ellipse fill="powderblue" stroke="black" cx="299" cy="-72" rx="18" ry="18"/>
<text text-anchor="middle" x="299" y="-68.9" font-family="arial" font-size="12.00">P4</text>
</g>
<!-- 2&#45;&gt;5 -->
<g id="edge4" class="edge"><title>2&#45;&gt;5</title>
<path fill="none" stroke="black" d="M212.34,-117.799C228.674,-109.065 254.751,-95.1234 273.847,-84.9137"/>
<polygon fill="black" stroke="black" points="275.678,-87.9032 282.847,-80.1017 272.378,-81.7301 275.678,-87.9032"/>
<text text-anchor="middle" x="247.5" y="-109.4" font-family="arial" font-size="12.00">0.333</text>
</g>
<!-- 3&#45;&gt;5 -->
<g id="edge5" class="edge"><title>3&#45;&gt;5</title>
<path fill="none" stroke="black" d="M214.133,-72C229.586,-72 252.584,-72 270.591,-72"/>
<polygon fill="black" stroke="black" points="270.783,-75.5001 280.783,-72 270.783,-68.5001 270.783,-75.5001"/>
<text text-anchor="middle" x="247.5" y="-75.4" font-family="arial" font-size="12.00">1.5</text>
</g>
<!-- 4&#45;&gt;5 -->
<g id="edge6" class="edge"><title>4&#45;&gt;5</title>
<path fill="none" stroke="black" d="M212.34,-26.2014C228.674,-34.9346 254.751,-48.8766 273.847,-59.0863"/>
<polygon fill="black" stroke="black" points="272.378,-62.2699 282.847,-63.8983 275.678,-56.0968 272.378,-62.2699"/>
<text text-anchor="middle" x="247.5" y="-56.4" font-family="arial" font-size="12.00">2.0</text>
</g>
<!-- 6 -->
<g id="node6" class="node"><title>6</title>
<ellipse fill="powderblue" stroke="black" cx="402" cy="-72" rx="18" ry="18"/>
<text text-anchor="middle" x="402" y="-68.9" font-family="arial" font-size="12.00">P5</text>
</g>
<!-- 5&#45;&gt;6 -->
<g id="edge7" class="edge"><title>5&#45;&gt;6</title>
<path fill="none" stroke="black" d="M317.133,-72C332.586,-72 355.584,-72 373.591,-72"/>
<polygon fill="black" stroke="black" points="373.783,-75.5001 383.783,-72 373.783,-68.5001 373.783,-75.5001"/>
<text text-anchor="middle" x="350.5" y="-75.4" font-family="arial" font-size="12.00">0.111</text>
</g>
<!-- 7 -->
<g id="node7" class="node"><title>7</title>
<ellipse fill="powderblue" stroke="black" cx="505" cy="-104" rx="18" ry="18"/>
<text text-anchor="middle" x="505" y="-100.9" font-family="arial" font-size="12.00">P6</text>
</g>
<!-- 6&#45;&gt;7 -->
<g id="edge8" class="edge"><title>6&#45;&gt;7</title>
<path fill="none" stroke="black" d="M419.678,-77.2841C435.562,-82.3168 459.709,-89.9671 478.098,-95.7933"/>
<polygon fill="black" stroke="black" points="477.042,-99.1303 487.632,-98.8142 479.156,-92.4572 477.042,-99.1303"/>
<text text-anchor="middle" x="453.5" y="-95.4" font-family="arial" font-size="12.00">0.333</text>
</g>
<!-- 8 -->
<g id="node8" class="node"><title>8</title>
<ellipse fill="powderblue" stroke="black" cx="505" cy="-50" rx="18" ry="18"/>
<text text-anchor="middle" x="505" y="-46.9" font-family="arial" font-size="12.00">P7</text>
</g>
<!-- 6&#45;&gt;8 -->
<g id="edge9" class="edge"><title>6&#45;&gt;8</title>
<path fill="none" stroke="black" d="M419.723,-68.1215C425.507,-66.7948 432.035,-65.3144 438,-64 450.917,-61.154 465.28,-58.0947 477.301,-55.5641"/>
<polygon fill="black" stroke="black" points="478.097,-58.9733 487.166,-53.495 476.66,-52.1224 478.097,-58.9733"/>
<text text-anchor="middle" x="453.5" y="-67.4" font-family="arial" font-size="12.00">0.111</text>
</g>
<!-- 9 -->
<g id="node9" class="node"><title>9</title>
<ellipse fill="powderblue" stroke="black" cx="608" cy="-79" rx="18" ry="18"/>
<text text-anchor="middle" x="608" y="-75.9" font-family="arial" font-size="12.00">P8</text>
</g>
<!-- 7&#45;&gt;9 -->
<g id="edge10" class="edge"><title>7&#45;&gt;9</title>
<path fill="none" stroke="black" d="M522.678,-99.8718C538.395,-95.9815 562.2,-90.0891 580.513,-85.5561"/>
<polygon fill="black" stroke="black" points="581.431,-88.9347 590.297,-83.1344 579.749,-82.1397 581.431,-88.9347"/>
<text text-anchor="middle" x="556.5" y="-98.4" font-family="arial" font-size="12.00">0.2</text>
</g>
<!-- 8&#45;&gt;9 -->
<g id="edge11" class="edge"><title>8&#45;&gt;9</title>
<path fill="none" stroke="black" d="M522.678,-54.7888C538.395,-59.3014 562.2,-66.1366 580.513,-71.3949"/>
<polygon fill="black" stroke="black" points="579.72,-74.8084 590.297,-74.2041 581.651,-68.0802 579.72,-74.8084"/>
<text text-anchor="middle" x="556.5" y="-72.4" font-family="arial" font-size="12.00">0.037</text>
</g>
<!-- 11 -->
<g id="node11" class="node"><title>11</title>
<ellipse fill="darksalmon" stroke="black" cx="724" cy="-79" rx="18" ry="18"/>
<text text-anchor="middle" x="724" y="-75.9" font-family="arial" font-size="12.00">Sink</text>
</g>
<!-- 9&#45;&gt;11 -->
<g id="edge13" class="edge"><title>9&#45;&gt;11</title>
<path fill="none" stroke="black" d="M626.314,-79C644.751,-79 674.184,-79 695.738,-79"/>
<polygon fill="black" stroke="black" points="695.896,-82.5001 705.896,-79 695.896,-75.5001 695.896,-82.5001"/>
<text text-anchor="middle" x="666" y="-82.4" font-family="arial" font-size="12.00">0.00926</text>
</g>
<!-- 10 -->
<g id="node10" class="node"><title>10</title>
<ellipse fill="forestgreen" stroke="black" cx="18" cy="-72" rx="18" ry="18"/>
<text text-anchor="middle" x="18" y="-69.5" font-family="arial" font-size="10.00">Source</text>
</g>
<!-- 10&#45;&gt;1 -->
<g id="edge12" class="edge"><title>10&#45;&gt;1</title>
<path fill="none" stroke="black" d="M36.1884,-72C48.3426,-72 64.8865,-72 78.8185,-72"/>
<polygon fill="black" stroke="black" points="78.8473,-75.5001 88.8473,-72 78.8473,-68.5001 78.8473,-75.5001"/>
<text text-anchor="middle" x="62.5" y="-75.4" font-family="arial" font-size="12.00">1.0</text>
</g>
</g>
</svg>
