<?xml version="1.0" encoding="UTF-8" standalone="no"?>
<!DOCTYPE svg PUBLIC "-//W3C//DTD SVG 1.1//EN"
 "http://www.w3.org/Graphics/SVG/1.1/DTD/svg11.dtd">
<!-- Generated by graphviz version 2.38.0 (20140413.2041)
 -->
<!-- Title: %3 Pages: 1 -->
<svg width="730pt" height="160pt"
 viewBox="0.00 0.00 730.00 160.00" xmlns="http://www.w3.org/2000/svg" xmlns:xlink="http://www.w3.org/1999/xlink">
<g id="graph0" class="graph" transform="scale(1 1) rotate(0) translate(4 156)">
<title>%3</title>
<polygon fill="white" stroke="none" points="-4,4 -4,-156 726,-156 726,4 -4,4"/>
<!-- 1 -->
<g id="node1" class="node"><title>1</title>
<ellipse fill="powderblue" stroke="black" cx="107" cy="-72" rx="18" ry="18"/>
<text text-anchor="middle" x="107" y="-68.9" font-family="arial" font-size="12.00">P0</text>
</g>
<!-- 2 -->
<g id="node2" class="node"><title>2</title>
<ellipse fill="powderblue" stroke="black" cx="203" cy="-126" rx="18" ry="18"/>
<text text-anchor="middle" x="203" y="-122.9" font-family="arial" font-size="12.00">P1</text>
</g>
<!-- 1&#45;&gt;2 -->
<g id="edge1" class="edge"><title>1&#45;&gt;2</title>
<path fill="none" stroke="black" d="M123.103,-80.676C137.903,-89.1785 160.694,-102.271 177.982,-112.203"/>
<polygon fill="black" stroke="black" points="176.52,-115.399 186.935,-117.345 180.007,-109.329 176.52,-115.399"/>
<text text-anchor="middle" x="155" y="-108.4" font-family="arial" font-size="12.00">2.5</text>
</g>
<!-- 3 -->
<g id="node3" class="node"><title>3</title>
<ellipse fill="powderblue" stroke="black" cx="203" cy="-72" rx="18" ry="18"/>
<text text-anchor="middle" x="203" y="-68.9" font-family="arial" font-size="12.00">P2</text>
</g>
<!-- 1&#45;&gt;3 -->
<g id="edge2" class="edge"><title>1&#45;&gt;3</title>
<path fill="none" stroke="black" d="M125.241,-72C139.022,-72 158.6,-72 174.535,-72"/>
<polygon fill="black" stroke="black" points="174.868,-75.5001 184.868,-72 174.868,-68.5001 174.868,-75.5001"/>
<text text-anchor="middle" x="155" y="-75.4" font-family="arial" font-size="12.00">2.5</text>
</g>
<!-- 4 -->
<g id="node4" class="node"><title>4</title>
<ellipse fill="powderblue" stroke="black" cx="203" cy="-18" rx="18" ry="18"/>
<text text-anchor="middle" x="203" y="-14.9" font-family="arial" font-size="12.00">P3</text>
</g>
<!-- 1&#45;&gt;4 -->
<g id="edge3" class="edge"><title>1&#45;&gt;4</title>
<path fill="none" stroke="black" d="M123.103,-63.324C137.903,-54.8215 160.694,-41.7288 177.982,-31.7975"/>
<polygon fill="black" stroke="black" points="180.007,-34.6707 186.935,-26.6545 176.52,-28.6009 180.007,-34.6707"/>
<text text-anchor="middle" x="155" y="-55.4" font-family="arial" font-size="12.00">0.75</text>
</g>
<!-- 5 -->
<g id="node5" class="node"><title>5</title>
<ellipse fill="powderblue" stroke="black" cx="306" cy="-71" rx="18" ry="18"/>
<text text-anchor="middle" x="306" y="-67.9" font-family="arial" font-size="12.00">P4</text>
</g>
<!-- 2&#45;&gt;5 -->
<g id="edge4" class="edge"><title>2&#45;&gt;5</title>
<path fill="none" stroke="black" d="M219.34,-117.647C235.674,-108.752 261.751,-94.5516 280.847,-84.1528"/>
<polygon fill="black" stroke="black" points="282.738,-87.108 289.847,-79.2517 279.391,-80.9604 282.738,-87.108"/>
<text text-anchor="middle" x="254.5" y="-109.4" font-family="arial" font-size="12.00">0.833</text>
</g>
<!-- 6 -->
<g id="node6" class="node"><title>6</title>
<ellipse fill="powderblue" stroke="black" cx="306" cy="-134" rx="18" ry="18"/>
<text text-anchor="middle" x="306" y="-130.9" font-family="arial" font-size="12.00">P5</text>
</g>
<!-- 2&#45;&gt;6 -->
<g id="edge7" class="edge"><title>2&#45;&gt;6</title>
<path fill="none" stroke="black" d="M221.133,-127.357C236.586,-128.581 259.584,-130.403 277.591,-131.829"/>
<polygon fill="black" stroke="black" points="277.538,-135.336 287.783,-132.636 278.09,-128.357 277.538,-135.336"/>
<text text-anchor="middle" x="254.5" y="-134.4" font-family="arial" font-size="12.00">6.25</text>
</g>
<!-- 3&#45;&gt;5 -->
<g id="edge5" class="edge"><title>3&#45;&gt;5</title>
<path fill="none" stroke="black" d="M221.056,-69.6569C226.751,-68.9798 233.138,-68.3339 239,-68 252.755,-67.2165 256.235,-67.4111 270,-68 272.559,-68.1095 275.221,-68.2638 277.882,-68.4453"/>
<polygon fill="black" stroke="black" points="277.683,-71.9404 287.929,-69.2425 278.237,-64.9623 277.683,-71.9404"/>
<text text-anchor="middle" x="254.5" y="-71.4" font-family="arial" font-size="12.00">2.5</text>
</g>
<!-- 4&#45;&gt;5 -->
<g id="edge6" class="edge"><title>4&#45;&gt;5</title>
<path fill="none" stroke="black" d="M219.594,-25.494C233.047,-32.0312 252.945,-41.8722 270,-51 273.644,-52.9504 277.47,-55.0654 281.2,-57.1653"/>
<polygon fill="black" stroke="black" points="279.694,-60.3356 290.114,-62.2514 283.163,-54.2556 279.694,-60.3356"/>
<text text-anchor="middle" x="254.5" y="-54.4" font-family="arial" font-size="12.00">2.25</text>
</g>
<!-- 7 -->
<g id="node7" class="node"><title>7</title>
<ellipse fill="powderblue" stroke="black" cx="402" cy="-105" rx="18" ry="18"/>
<text text-anchor="middle" x="402" y="-101.9" font-family="arial" font-size="12.00">P6</text>
</g>
<!-- 5&#45;&gt;7 -->
<g id="edge8" class="edge"><title>5&#45;&gt;7</title>
<path fill="none" stroke="black" d="M323.374,-76.9223C337.661,-82.0902 358.637,-89.6772 375.183,-95.6621"/>
<polygon fill="black" stroke="black" points="374.22,-99.0354 384.814,-99.1455 376.601,-92.4528 374.22,-99.0354"/>
<text text-anchor="middle" x="354" y="-95.4" font-family="arial" font-size="12.00">3.12</text>
</g>
<!-- 6&#45;&gt;7 -->
<g id="edge9" class="edge"><title>6&#45;&gt;7</title>
<path fill="none" stroke="black" d="M323.374,-128.949C337.574,-124.568 358.382,-118.148 374.88,-113.058"/>
<polygon fill="black" stroke="black" points="375.975,-116.383 384.499,-110.091 373.911,-109.694 375.975,-116.383"/>
<text text-anchor="middle" x="354" y="-125.4" font-family="arial" font-size="12.00">3.12</text>
</g>
<!-- 8 -->
<g id="node8" class="node"><title>8</title>
<ellipse fill="powderblue" stroke="black" cx="505" cy="-105" rx="18" ry="18"/>
<text text-anchor="middle" x="505" y="-101.9" font-family="arial" font-size="12.00">P7</text>
</g>
<!-- 7&#45;&gt;8 -->
<g id="edge10" class="edge"><title>7&#45;&gt;8</title>
<path fill="none" stroke="black" d="M420.133,-105C435.586,-105 458.584,-105 476.591,-105"/>
<polygon fill="black" stroke="black" points="476.783,-108.5 486.783,-105 476.783,-101.5 476.783,-108.5"/>
<text text-anchor="middle" x="453.5" y="-108.4" font-family="arial" font-size="12.00">0.781</text>
</g>
<!-- 9 -->
<g id="node9" class="node"><title>9</title>
<ellipse fill="powderblue" stroke="black" cx="608" cy="-105" rx="18" ry="18"/>
<text text-anchor="middle" x="608" y="-101.9" font-family="arial" font-size="12.00">P8</text>
</g>
<!-- 8&#45;&gt;9 -->
<g id="edge11" class="edge"><title>8&#45;&gt;9</title>
<path fill="none" stroke="black" d="M523.133,-105C538.586,-105 561.584,-105 579.591,-105"/>
<polygon fill="black" stroke="black" points="579.783,-108.5 589.783,-105 579.783,-101.5 579.783,-108.5"/>
<text text-anchor="middle" x="556.5" y="-108.4" font-family="arial" font-size="12.00">0.781</text>
</g>
<!-- 11 -->
<g id="node11" class="node"><title>11</title>
<ellipse fill="darksalmon" stroke="black" cx="704" cy="-105" rx="18" ry="18"/>
<text text-anchor="middle" x="704" y="-101.9" font-family="arial" font-size="12.00">Sink</text>
</g>
<!-- 9&#45;&gt;11 -->
<g id="edge13" class="edge"><title>9&#45;&gt;11</title>
<path fill="none" stroke="black" d="M626.241,-105C640.022,-105 659.6,-105 675.535,-105"/>
<polygon fill="black" stroke="black" points="675.868,-108.5 685.868,-105 675.868,-101.5 675.868,-108.5"/>
<text text-anchor="middle" x="656" y="-108.4" font-family="arial" font-size="12.00">1.17</text>
</g>
<!-- 10 -->
<g id="node10" class="node"><title>10</title>
<ellipse fill="forestgreen" stroke="black" cx="18" cy="-72" rx="18" ry="18"/>
<text text-anchor="middle" x="18" y="-69.5" font-family="arial" font-size="10.00">Source</text>
</g>
<!-- 10&#45;&gt;1 -->
<g id="edge12" class="edge"><title>10&#45;&gt;1</title>
<path fill="none" stroke="black" d="M36.1884,-72C48.3426,-72 64.8865,-72 78.8185,-72"/>
<polygon fill="black" stroke="black" points="78.8473,-75.5001 88.8473,-72 78.8473,-68.5001 78.8473,-75.5001"/>
<text text-anchor="middle" x="62.5" y="-75.4" font-family="arial" font-size="12.00">1.0</text>
</g>
</g>
</svg>
