<?xml version="1.0" encoding="UTF-8" standalone="no"?>
<!DOCTYPE svg PUBLIC "-//W3C//DTD SVG 1.1//EN"
 "http://www.w3.org/Graphics/SVG/1.1/DTD/svg11.dtd">
<!-- Generated by graphviz version 2.38.0 (20140413.2041)
 -->
<!-- Title: %3 Pages: 1 -->
<svg width="775pt" height="152pt"
 viewBox="0.00 0.00 775.00 152.00" xmlns="http://www.w3.org/2000/svg" xmlns:xlink="http://www.w3.org/1999/xlink">
<g id="graph0" class="graph" transform="scale(1 1) rotate(0) translate(4 148)">
<title>%3</title>
<polygon fill="white" stroke="none" points="-4,4 -4,-148 771,-148 771,4 -4,4"/>
<!-- 1 -->
<g id="node1" class="node"><title>1</title>
<ellipse fill="powderblue" stroke="black" cx="107" cy="-72" rx="18" ry="18"/>
<text text-anchor="middle" x="107" y="-68.9" font-family="arial" font-size="12.00">P0</text>
</g>
<!-- 2 -->
<g id="node2" class="node"><title>2</title>
<ellipse fill="powderblue" stroke="black" cx="210" cy="-126" rx="18" ry="18"/>
<text text-anchor="middle" x="210" y="-122.9" font-family="arial" font-size="12.00">P1</text>
</g>
<!-- 1&#45;&gt;2 -->
<g id="edge1" class="edge"><title>1&#45;&gt;2</title>
<path fill="none" stroke="black" d="M123.34,-80.2014C139.674,-88.9346 165.751,-102.877 184.847,-113.086"/>
<polygon fill="black" stroke="black" points="183.378,-116.27 193.847,-117.898 186.678,-110.097 183.378,-116.27"/>
<text text-anchor="middle" x="158.5" y="-109.4" font-family="arial" font-size="12.00">0.5</text>
</g>
<!-- 3 -->
<g id="node3" class="node"><title>3</title>
<ellipse fill="powderblue" stroke="black" cx="210" cy="-72" rx="18" ry="18"/>
<text text-anchor="middle" x="210" y="-68.9" font-family="arial" font-size="12.00">P2</text>
</g>
<!-- 1&#45;&gt;3 -->
<g id="edge2" class="edge"><title>1&#45;&gt;3</title>
<path fill="none" stroke="black" d="M125.133,-72C140.586,-72 163.584,-72 181.591,-72"/>
<polygon fill="black" stroke="black" points="181.783,-75.5001 191.783,-72 181.783,-68.5001 181.783,-75.5001"/>
<text text-anchor="middle" x="158.5" y="-75.4" font-family="arial" font-size="12.00">1.0</text>
</g>
<!-- 4 -->
<g id="node4" class="node"><title>4</title>
<ellipse fill="powderblue" stroke="black" cx="210" cy="-18" rx="18" ry="18"/>
<text text-anchor="middle" x="210" y="-14.9" font-family="arial" font-size="12.00">P3</text>
</g>
<!-- 1&#45;&gt;4 -->
<g id="edge3" class="edge"><title>1&#45;&gt;4</title>
<path fill="none" stroke="black" d="M123.34,-63.7986C139.674,-55.0654 165.751,-41.1234 184.847,-30.9137"/>
<polygon fill="black" stroke="black" points="186.678,-33.9032 193.847,-26.1017 183.378,-27.7301 186.678,-33.9032"/>
<text text-anchor="middle" x="158.5" y="-56.4" font-family="arial" font-size="12.00">0.167</text>
</g>
<!-- 6 -->
<g id="node6" class="node"><title>6</title>
<ellipse fill="powderblue" stroke="black" cx="313" cy="-72" rx="18" ry="18"/>
<text text-anchor="middle" x="313" y="-68.9" font-family="arial" font-size="12.00">P5</text>
</g>
<!-- 2&#45;&gt;6 -->
<g id="edge5" class="edge"><title>2&#45;&gt;6</title>
<path fill="none" stroke="black" d="M226.34,-117.799C242.674,-109.065 268.751,-95.1234 287.847,-84.9137"/>
<polygon fill="black" stroke="black" points="289.678,-87.9032 296.847,-80.1017 286.378,-81.7301 289.678,-87.9032"/>
<text text-anchor="middle" x="261.5" y="-109.4" font-family="arial" font-size="12.00">0.25</text>
</g>
<!-- 3&#45;&gt;6 -->
<g id="edge6" class="edge"><title>3&#45;&gt;6</title>
<path fill="none" stroke="black" d="M228.133,-72C243.586,-72 266.584,-72 284.591,-72"/>
<polygon fill="black" stroke="black" points="284.783,-75.5001 294.783,-72 284.783,-68.5001 284.783,-75.5001"/>
<text text-anchor="middle" x="261.5" y="-75.4" font-family="arial" font-size="12.00">0.2</text>
</g>
<!-- 5 -->
<g id="node5" class="node"><title>5</title>
<ellipse fill="powderblue" stroke="black" cx="313" cy="-18" rx="18" ry="18"/>
<text text-anchor="middle" x="313" y="-14.9" font-family="arial" font-size="12.00">P4</text>
</g>
<!-- 4&#45;&gt;5 -->
<g id="edge4" class="edge"><title>4&#45;&gt;5</title>
<path fill="none" stroke="black" d="M228.133,-18C243.586,-18 266.584,-18 284.591,-18"/>
<polygon fill="black" stroke="black" points="284.783,-21.5001 294.783,-18 284.783,-14.5001 284.783,-21.5001"/>
<text text-anchor="middle" x="261.5" y="-21.4" font-family="arial" font-size="12.00">0.167</text>
</g>
<!-- 7 -->
<g id="node7" class="node"><title>7</title>
<ellipse fill="powderblue" stroke="black" cx="422" cy="-47" rx="18" ry="18"/>
<text text-anchor="middle" x="422" y="-43.9" font-family="arial" font-size="12.00">P6</text>
</g>
<!-- 5&#45;&gt;7 -->
<g id="edge7" class="edge"><title>5&#45;&gt;7</title>
<path fill="none" stroke="black" d="M330.719,-22.5312C347.837,-27.1707 374.691,-34.4491 394.667,-39.8631"/>
<polygon fill="black" stroke="black" points="393.831,-43.2627 404.399,-42.5006 395.662,-36.5065 393.831,-43.2627"/>
<text text-anchor="middle" x="367.5" y="-40.4" font-family="arial" font-size="12.00">0.0833</text>
</g>
<!-- 6&#45;&gt;7 -->
<g id="edge8" class="edge"><title>6&#45;&gt;7</title>
<path fill="none" stroke="black" d="M330.719,-68.0938C347.758,-64.1126 374.445,-57.8773 394.392,-53.2168"/>
<polygon fill="black" stroke="black" points="395.457,-56.5623 404.399,-50.8788 393.865,-49.7459 395.457,-56.5623"/>
<text text-anchor="middle" x="367.5" y="-67.4" font-family="arial" font-size="12.00">0.0833</text>
</g>
<!-- 8 -->
<g id="node8" class="node"><title>8</title>
<ellipse fill="powderblue" stroke="black" cx="531" cy="-47" rx="18" ry="18"/>
<text text-anchor="middle" x="531" y="-43.9" font-family="arial" font-size="12.00">P7</text>
</g>
<!-- 7&#45;&gt;8 -->
<g id="edge9" class="edge"><title>7&#45;&gt;8</title>
<path fill="none" stroke="black" d="M440.191,-47C457.039,-47 482.982,-47 502.661,-47"/>
<polygon fill="black" stroke="black" points="502.851,-50.5001 512.851,-47 502.851,-43.5001 502.851,-50.5001"/>
<text text-anchor="middle" x="476.5" y="-50.4" font-family="arial" font-size="12.00">0.0417</text>
</g>
<!-- 9 -->
<g id="node9" class="node"><title>9</title>
<ellipse fill="powderblue" stroke="black" cx="640" cy="-47" rx="18" ry="18"/>
<text text-anchor="middle" x="640" y="-43.9" font-family="arial" font-size="12.00">P8</text>
</g>
<!-- 8&#45;&gt;9 -->
<g id="edge10" class="edge"><title>8&#45;&gt;9</title>
<path fill="none" stroke="black" d="M549.191,-47C566.039,-47 591.982,-47 611.661,-47"/>
<polygon fill="black" stroke="black" points="611.851,-50.5001 621.851,-47 611.851,-43.5001 611.851,-50.5001"/>
<text text-anchor="middle" x="585.5" y="-50.4" font-family="arial" font-size="12.00">0.0417</text>
</g>
<!-- 11 -->
<g id="node11" class="node"><title>11</title>
<ellipse fill="darksalmon" stroke="black" cx="749" cy="-47" rx="18" ry="18"/>
<text text-anchor="middle" x="749" y="-43.9" font-family="arial" font-size="12.00">Sink</text>
</g>
<!-- 9&#45;&gt;11 -->
<g id="edge12" class="edge"><title>9&#45;&gt;11</title>
<path fill="none" stroke="black" d="M658.191,-47C675.039,-47 700.982,-47 720.661,-47"/>
<polygon fill="black" stroke="black" points="720.851,-50.5001 730.851,-47 720.851,-43.5001 720.851,-50.5001"/>
<text text-anchor="middle" x="694.5" y="-50.4" font-family="arial" font-size="12.00">0.0139</text>
</g>
<!-- 10 -->
<g id="node10" class="node"><title>10</title>
<ellipse fill="forestgreen" stroke="black" cx="18" cy="-72" rx="18" ry="18"/>
<text text-anchor="middle" x="18" y="-69.5" font-family="arial" font-size="10.00">Source</text>
</g>
<!-- 10&#45;&gt;1 -->
<g id="edge11" class="edge"><title>10&#45;&gt;1</title>
<path fill="none" stroke="black" d="M36.1884,-72C48.3426,-72 64.8865,-72 78.8185,-72"/>
<polygon fill="black" stroke="black" points="78.8473,-75.5001 88.8473,-72 78.8473,-68.5001 78.8473,-75.5001"/>
<text text-anchor="middle" x="62.5" y="-75.4" font-family="arial" font-size="12.00">1.0</text>
</g>
</g>
</svg>
