<?xml version="1.0" encoding="UTF-8" standalone="no"?>
<!DOCTYPE svg PUBLIC "-//W3C//DTD SVG 1.1//EN"
 "http://www.w3.org/Graphics/SVG/1.1/DTD/svg11.dtd">
<!-- Generated by graphviz version 2.38.0 (20140413.2041)
 -->
<!-- Title: %3 Pages: 1 -->
<svg width="751pt" height="152pt"
 viewBox="0.00 0.00 751.00 152.00" xmlns="http://www.w3.org/2000/svg" xmlns:xlink="http://www.w3.org/1999/xlink">
<g id="graph0" class="graph" transform="scale(1 1) rotate(0) translate(4 148)">
<title>%3</title>
<polygon fill="white" stroke="none" points="-4,4 -4,-148 747,-148 747,4 -4,4"/>
<!-- 1 -->
<g id="node1" class="node"><title>1</title>
<ellipse fill="powderblue" stroke="black" cx="107" cy="-65" rx="18" ry="18"/>
<text text-anchor="middle" x="107" y="-61.9" font-family="arial" font-size="12.00">P0</text>
</g>
<!-- 2 -->
<g id="node2" class="node"><title>2</title>
<ellipse fill="powderblue" stroke="black" cx="210" cy="-97" rx="18" ry="18"/>
<text text-anchor="middle" x="210" y="-93.9" font-family="arial" font-size="12.00">P1</text>
</g>
<!-- 1&#45;&gt;2 -->
<g id="edge1" class="edge"><title>1&#45;&gt;2</title>
<path fill="none" stroke="black" d="M124.678,-70.2841C140.562,-75.3168 164.709,-82.9671 183.098,-88.7933"/>
<polygon fill="black" stroke="black" points="182.042,-92.1303 192.632,-91.8142 184.156,-85.4572 182.042,-92.1303"/>
<text text-anchor="middle" x="158.5" y="-88.4" font-family="arial" font-size="12.00">0.667</text>
</g>
<!-- 3 -->
<g id="node3" class="node"><title>3</title>
<ellipse fill="powderblue" stroke="black" cx="210" cy="-43" rx="18" ry="18"/>
<text text-anchor="middle" x="210" y="-39.9" font-family="arial" font-size="12.00">P2</text>
</g>
<!-- 1&#45;&gt;3 -->
<g id="edge2" class="edge"><title>1&#45;&gt;3</title>
<path fill="none" stroke="black" d="M124.723,-61.1215C130.507,-59.7948 137.035,-58.3144 143,-57 155.917,-54.154 170.28,-51.0947 182.301,-48.5641"/>
<polygon fill="black" stroke="black" points="183.097,-51.9733 192.166,-46.495 181.66,-45.1224 183.097,-51.9733"/>
<text text-anchor="middle" x="158.5" y="-60.4" font-family="arial" font-size="12.00">3.0</text>
</g>
<!-- 4 -->
<g id="node4" class="node"><title>4</title>
<ellipse fill="powderblue" stroke="black" cx="313" cy="-72" rx="18" ry="18"/>
<text text-anchor="middle" x="313" y="-68.9" font-family="arial" font-size="12.00">P3</text>
</g>
<!-- 2&#45;&gt;4 -->
<g id="edge3" class="edge"><title>2&#45;&gt;4</title>
<path fill="none" stroke="black" d="M227.678,-92.8718C243.395,-88.9815 267.2,-83.0891 285.513,-78.5561"/>
<polygon fill="black" stroke="black" points="286.431,-81.9347 295.297,-76.1344 284.749,-75.1397 286.431,-81.9347"/>
<text text-anchor="middle" x="261.5" y="-91.4" font-family="arial" font-size="12.00">0.667</text>
</g>
<!-- 3&#45;&gt;4 -->
<g id="edge4" class="edge"><title>3&#45;&gt;4</title>
<path fill="none" stroke="black" d="M227.678,-47.7888C243.395,-52.3014 267.2,-59.1366 285.513,-64.3949"/>
<polygon fill="black" stroke="black" points="284.72,-67.8084 295.297,-67.2041 286.651,-61.0802 284.72,-67.8084"/>
<text text-anchor="middle" x="261.5" y="-65.4" font-family="arial" font-size="12.00">0.6</text>
</g>
<!-- 5 -->
<g id="node5" class="node"><title>5</title>
<ellipse fill="powderblue" stroke="black" cx="416" cy="-126" rx="18" ry="18"/>
<text text-anchor="middle" x="416" y="-122.9" font-family="arial" font-size="12.00">P4</text>
</g>
<!-- 4&#45;&gt;5 -->
<g id="edge5" class="edge"><title>4&#45;&gt;5</title>
<path fill="none" stroke="black" d="M329.34,-80.2014C345.674,-88.9346 371.751,-102.877 390.847,-113.086"/>
<polygon fill="black" stroke="black" points="389.378,-116.27 399.847,-117.898 392.678,-110.097 389.378,-116.27"/>
<text text-anchor="middle" x="364.5" y="-109.4" font-family="arial" font-size="12.00">1.5</text>
</g>
<!-- 6 -->
<g id="node6" class="node"><title>6</title>
<ellipse fill="powderblue" stroke="black" cx="416" cy="-72" rx="18" ry="18"/>
<text text-anchor="middle" x="416" y="-68.9" font-family="arial" font-size="12.00">P5</text>
</g>
<!-- 4&#45;&gt;6 -->
<g id="edge6" class="edge"><title>4&#45;&gt;6</title>
<path fill="none" stroke="black" d="M331.133,-72C346.586,-72 369.584,-72 387.591,-72"/>
<polygon fill="black" stroke="black" points="387.783,-75.5001 397.783,-72 387.783,-68.5001 387.783,-75.5001"/>
<text text-anchor="middle" x="364.5" y="-75.4" font-family="arial" font-size="12.00">0.222</text>
</g>
<!-- 7 -->
<g id="node7" class="node"><title>7</title>
<ellipse fill="powderblue" stroke="black" cx="416" cy="-18" rx="18" ry="18"/>
<text text-anchor="middle" x="416" y="-14.9" font-family="arial" font-size="12.00">P6</text>
</g>
<!-- 4&#45;&gt;7 -->
<g id="edge7" class="edge"><title>4&#45;&gt;7</title>
<path fill="none" stroke="black" d="M329.34,-63.7986C345.674,-55.0654 371.751,-41.1234 390.847,-30.9137"/>
<polygon fill="black" stroke="black" points="392.678,-33.9032 399.847,-26.1017 389.378,-27.7301 392.678,-33.9032"/>
<text text-anchor="middle" x="364.5" y="-56.4" font-family="arial" font-size="12.00">0.167</text>
</g>
<!-- 8 -->
<g id="node8" class="node"><title>8</title>
<ellipse fill="powderblue" stroke="black" cx="519" cy="-72" rx="18" ry="18"/>
<text text-anchor="middle" x="519" y="-68.9" font-family="arial" font-size="12.00">P7</text>
</g>
<!-- 5&#45;&gt;8 -->
<g id="edge8" class="edge"><title>5&#45;&gt;8</title>
<path fill="none" stroke="black" d="M432.34,-117.799C448.674,-109.065 474.751,-95.1234 493.847,-84.9137"/>
<polygon fill="black" stroke="black" points="495.678,-87.9032 502.847,-80.1017 492.378,-81.7301 495.678,-87.9032"/>
<text text-anchor="middle" x="467.5" y="-109.4" font-family="arial" font-size="12.00">3.0</text>
</g>
<!-- 6&#45;&gt;8 -->
<g id="edge9" class="edge"><title>6&#45;&gt;8</title>
<path fill="none" stroke="black" d="M434.133,-72C449.586,-72 472.584,-72 490.591,-72"/>
<polygon fill="black" stroke="black" points="490.783,-75.5001 500.783,-72 490.783,-68.5001 490.783,-75.5001"/>
<text text-anchor="middle" x="467.5" y="-75.4" font-family="arial" font-size="12.00">0.444</text>
</g>
<!-- 7&#45;&gt;8 -->
<g id="edge10" class="edge"><title>7&#45;&gt;8</title>
<path fill="none" stroke="black" d="M432.34,-26.2014C448.674,-34.9346 474.751,-48.8766 493.847,-59.0863"/>
<polygon fill="black" stroke="black" points="492.378,-62.2699 502.847,-63.8983 495.678,-56.0968 492.378,-62.2699"/>
<text text-anchor="middle" x="467.5" y="-56.4" font-family="arial" font-size="12.00">0.5</text>
</g>
<!-- 9 -->
<g id="node9" class="node"><title>9</title>
<ellipse fill="powderblue" stroke="black" cx="622" cy="-72" rx="18" ry="18"/>
<text text-anchor="middle" x="622" y="-68.9" font-family="arial" font-size="12.00">P8</text>
</g>
<!-- 8&#45;&gt;9 -->
<g id="edge11" class="edge"><title>8&#45;&gt;9</title>
<path fill="none" stroke="black" d="M537.133,-72C552.586,-72 575.584,-72 593.591,-72"/>
<polygon fill="black" stroke="black" points="593.783,-75.5001 603.783,-72 593.783,-68.5001 593.783,-75.5001"/>
<text text-anchor="middle" x="570.5" y="-75.4" font-family="arial" font-size="12.00">0.889</text>
</g>
<!-- 11 -->
<g id="node11" class="node"><title>11</title>
<ellipse fill="darksalmon" stroke="black" cx="725" cy="-72" rx="18" ry="18"/>
<text text-anchor="middle" x="725" y="-68.9" font-family="arial" font-size="12.00">Sink</text>
</g>
<!-- 9&#45;&gt;11 -->
<g id="edge13" class="edge"><title>9&#45;&gt;11</title>
<path fill="none" stroke="black" d="M640.133,-72C655.586,-72 678.584,-72 696.591,-72"/>
<polygon fill="black" stroke="black" points="696.783,-75.5001 706.783,-72 696.783,-68.5001 696.783,-75.5001"/>
<text text-anchor="middle" x="673.5" y="-75.4" font-family="arial" font-size="12.00">0.296</text>
</g>
<!-- 10 -->
<g id="node10" class="node"><title>10</title>
<ellipse fill="forestgreen" stroke="black" cx="18" cy="-65" rx="18" ry="18"/>
<text text-anchor="middle" x="18" y="-62.5" font-family="arial" font-size="10.00">Source</text>
</g>
<!-- 10&#45;&gt;1 -->
<g id="edge12" class="edge"><title>10&#45;&gt;1</title>
<path fill="none" stroke="black" d="M36.1884,-65C48.3426,-65 64.8865,-65 78.8185,-65"/>
<polygon fill="black" stroke="black" points="78.8473,-68.5001 88.8473,-65 78.8473,-61.5001 78.8473,-68.5001"/>
<text text-anchor="middle" x="62.5" y="-68.4" font-family="arial" font-size="12.00">1.0</text>
</g>
</g>
</svg>
