<?xml version="1.0" encoding="UTF-8" standalone="no"?>
<!DOCTYPE svg PUBLIC "-//W3C//DTD SVG 1.1//EN"
 "http://www.w3.org/Graphics/SVG/1.1/DTD/svg11.dtd">
<!-- Generated by graphviz version 2.38.0 (20140413.2041)
 -->
<!-- Title: %3 Pages: 1 -->
<svg width="716pt" height="160pt"
 viewBox="0.00 0.00 716.00 160.00" xmlns="http://www.w3.org/2000/svg" xmlns:xlink="http://www.w3.org/1999/xlink">
<g id="graph0" class="graph" transform="scale(1 1) rotate(0) translate(4 156)">
<title>%3</title>
<polygon fill="white" stroke="none" points="-4,4 -4,-156 712,-156 712,4 -4,4"/>
<!-- 1 -->
<g id="node1" class="node"><title>1</title>
<ellipse fill="powderblue" stroke="black" cx="107" cy="-72" rx="18" ry="18"/>
<text text-anchor="middle" x="107" y="-68.9" font-family="arial" font-size="12.00">P0</text>
</g>
<!-- 2 -->
<g id="node2" class="node"><title>2</title>
<ellipse fill="powderblue" stroke="black" cx="203" cy="-72" rx="18" ry="18"/>
<text text-anchor="middle" x="203" y="-68.9" font-family="arial" font-size="12.00">P1</text>
</g>
<!-- 1&#45;&gt;2 -->
<g id="edge1" class="edge"><title>1&#45;&gt;2</title>
<path fill="none" stroke="black" d="M125.241,-72C139.022,-72 158.6,-72 174.535,-72"/>
<polygon fill="black" stroke="black" points="174.868,-75.5001 184.868,-72 174.868,-68.5001 174.868,-75.5001"/>
<text text-anchor="middle" x="155" y="-75.4" font-family="arial" font-size="12.00">1.33</text>
</g>
<!-- 3 -->
<g id="node3" class="node"><title>3</title>
<ellipse fill="powderblue" stroke="black" cx="299" cy="-72" rx="18" ry="18"/>
<text text-anchor="middle" x="299" y="-68.9" font-family="arial" font-size="12.00">P2</text>
</g>
<!-- 2&#45;&gt;3 -->
<g id="edge2" class="edge"><title>2&#45;&gt;3</title>
<path fill="none" stroke="black" d="M221.241,-72C235.022,-72 254.6,-72 270.535,-72"/>
<polygon fill="black" stroke="black" points="270.868,-75.5001 280.868,-72 270.868,-68.5001 270.868,-75.5001"/>
<text text-anchor="middle" x="251" y="-75.4" font-family="arial" font-size="12.00">2.67</text>
</g>
<!-- 4 -->
<g id="node4" class="node"><title>4</title>
<ellipse fill="powderblue" stroke="black" cx="395" cy="-72" rx="18" ry="18"/>
<text text-anchor="middle" x="395" y="-68.9" font-family="arial" font-size="12.00">P3</text>
</g>
<!-- 3&#45;&gt;4 -->
<g id="edge3" class="edge"><title>3&#45;&gt;4</title>
<path fill="none" stroke="black" d="M317.241,-72C331.022,-72 350.6,-72 366.535,-72"/>
<polygon fill="black" stroke="black" points="366.868,-75.5001 376.868,-72 366.868,-68.5001 366.868,-75.5001"/>
<text text-anchor="middle" x="347" y="-75.4" font-family="arial" font-size="12.00">5.33</text>
</g>
<!-- 5 -->
<g id="node5" class="node"><title>5</title>
<ellipse fill="powderblue" stroke="black" cx="491" cy="-126" rx="18" ry="18"/>
<text text-anchor="middle" x="491" y="-122.9" font-family="arial" font-size="12.00">P4</text>
</g>
<!-- 4&#45;&gt;5 -->
<g id="edge4" class="edge"><title>4&#45;&gt;5</title>
<path fill="none" stroke="black" d="M411.103,-80.676C425.903,-89.1785 448.694,-102.271 465.982,-112.203"/>
<polygon fill="black" stroke="black" points="464.52,-115.399 474.935,-117.345 468.007,-109.329 464.52,-115.399"/>
<text text-anchor="middle" x="443" y="-108.4" font-family="arial" font-size="12.00">5.33</text>
</g>
<!-- 6 -->
<g id="node6" class="node"><title>6</title>
<ellipse fill="powderblue" stroke="black" cx="491" cy="-72" rx="18" ry="18"/>
<text text-anchor="middle" x="491" y="-68.9" font-family="arial" font-size="12.00">P5</text>
</g>
<!-- 4&#45;&gt;6 -->
<g id="edge5" class="edge"><title>4&#45;&gt;6</title>
<path fill="none" stroke="black" d="M413.241,-72C427.022,-72 446.6,-72 462.535,-72"/>
<polygon fill="black" stroke="black" points="462.868,-75.5001 472.868,-72 462.868,-68.5001 462.868,-75.5001"/>
<text text-anchor="middle" x="443" y="-75.4" font-family="arial" font-size="12.00">5.33</text>
</g>
<!-- 7 -->
<g id="node7" class="node"><title>7</title>
<ellipse fill="powderblue" stroke="black" cx="491" cy="-18" rx="18" ry="18"/>
<text text-anchor="middle" x="491" y="-14.9" font-family="arial" font-size="12.00">P6</text>
</g>
<!-- 4&#45;&gt;7 -->
<g id="edge6" class="edge"><title>4&#45;&gt;7</title>
<path fill="none" stroke="black" d="M411.103,-63.324C425.903,-54.8215 448.694,-41.7288 465.982,-31.7975"/>
<polygon fill="black" stroke="black" points="468.007,-34.6707 474.935,-26.6545 464.52,-28.6009 468.007,-34.6707"/>
<text text-anchor="middle" x="443" y="-55.4" font-family="arial" font-size="12.00">3.56</text>
</g>
<!-- 8 -->
<g id="node8" class="node"><title>8</title>
<ellipse fill="powderblue" stroke="black" cx="587" cy="-71" rx="18" ry="18"/>
<text text-anchor="middle" x="587" y="-67.9" font-family="arial" font-size="12.00">P7</text>
</g>
<!-- 5&#45;&gt;8 -->
<g id="edge7" class="edge"><title>5&#45;&gt;8</title>
<path fill="none" stroke="black" d="M507.103,-117.163C521.903,-108.503 544.694,-95.1683 561.982,-85.053"/>
<polygon fill="black" stroke="black" points="564.071,-87.8858 570.935,-79.8148 560.536,-81.844 564.071,-87.8858"/>
<text text-anchor="middle" x="539" y="-108.4" font-family="arial" font-size="12.00">3.2</text>
</g>
<!-- 9 -->
<g id="node9" class="node"><title>9</title>
<ellipse fill="powderblue" stroke="black" cx="587" cy="-134" rx="18" ry="18"/>
<text text-anchor="middle" x="587" y="-130.9" font-family="arial" font-size="12.00">P8</text>
</g>
<!-- 5&#45;&gt;9 -->
<g id="edge10" class="edge"><title>5&#45;&gt;9</title>
<path fill="none" stroke="black" d="M509.241,-127.467C523.022,-128.64 542.6,-130.306 558.535,-131.663"/>
<polygon fill="black" stroke="black" points="558.607,-135.181 568.868,-132.542 559.201,-128.206 558.607,-135.181"/>
<text text-anchor="middle" x="539" y="-133.4" font-family="arial" font-size="12.00">5.33</text>
</g>
<!-- 6&#45;&gt;8 -->
<g id="edge8" class="edge"><title>6&#45;&gt;8</title>
<path fill="none" stroke="black" d="M509.056,-69.6569C514.751,-68.9798 521.138,-68.3339 527,-68 537.377,-67.4089 548.785,-67.756 558.78,-68.391"/>
<polygon fill="black" stroke="black" points="558.721,-71.8965 568.957,-69.1624 559.25,-64.9165 558.721,-71.8965"/>
<text text-anchor="middle" x="539" y="-71.4" font-family="arial" font-size="12.00">3.56</text>
</g>
<!-- 7&#45;&gt;8 -->
<g id="edge9" class="edge"><title>7&#45;&gt;8</title>
<path fill="none" stroke="black" d="M507.056,-26.3714C518.991,-33.0194 536.084,-42.5669 551,-51 554.598,-53.0343 558.399,-55.1945 562.118,-57.3142"/>
<polygon fill="black" stroke="black" points="560.61,-60.4837 571.029,-62.4052 564.082,-54.4056 560.61,-60.4837"/>
<text text-anchor="middle" x="539" y="-54.4" font-family="arial" font-size="12.00">2.37</text>
</g>
<!-- 11 -->
<g id="node11" class="node"><title>11</title>
<ellipse fill="darksalmon" stroke="black" cx="690" cy="-105" rx="18" ry="18"/>
<text text-anchor="middle" x="690" y="-101.9" font-family="arial" font-size="12.00">Sink</text>
</g>
<!-- 8&#45;&gt;11 -->
<g id="edge13" class="edge"><title>8&#45;&gt;11</title>
<path fill="none" stroke="black" d="M604.227,-76.4627C620.13,-81.8161 644.618,-90.0596 663.194,-96.3127"/>
<polygon fill="black" stroke="black" points="662.219,-99.6775 672.813,-99.5509 664.452,-93.0433 662.219,-99.6775"/>
<text text-anchor="middle" x="638.5" y="-96.4" font-family="arial" font-size="12.00">0.593</text>
</g>
<!-- 9&#45;&gt;11 -->
<g id="edge12" class="edge"><title>9&#45;&gt;11</title>
<path fill="none" stroke="black" d="M604.678,-129.211C620.395,-124.699 644.2,-117.863 662.513,-112.605"/>
<polygon fill="black" stroke="black" points="663.651,-115.92 672.297,-109.796 661.72,-109.192 663.651,-115.92"/>
<text text-anchor="middle" x="638.5" y="-126.4" font-family="arial" font-size="12.00">1.33</text>
</g>
<!-- 10 -->
<g id="node10" class="node"><title>10</title>
<ellipse fill="forestgreen" stroke="black" cx="18" cy="-72" rx="18" ry="18"/>
<text text-anchor="middle" x="18" y="-69.5" font-family="arial" font-size="10.00">Source</text>
</g>
<!-- 10&#45;&gt;1 -->
<g id="edge11" class="edge"><title>10&#45;&gt;1</title>
<path fill="none" stroke="black" d="M36.1884,-72C48.3426,-72 64.8865,-72 78.8185,-72"/>
<polygon fill="black" stroke="black" points="78.8473,-75.5001 88.8473,-72 78.8473,-68.5001 78.8473,-75.5001"/>
<text text-anchor="middle" x="62.5" y="-75.4" font-family="arial" font-size="12.00">1.0</text>
</g>
</g>
</svg>
