<?xml version="1.0" encoding="UTF-8" standalone="no"?>
<!DOCTYPE svg PUBLIC "-//W3C//DTD SVG 1.1//EN"
 "http://www.w3.org/Graphics/SVG/1.1/DTD/svg11.dtd">
<!-- Generated by graphviz version 2.38.0 (20140413.2041)
 -->
<!-- Title: %3 Pages: 1 -->
<svg width="681pt" height="116pt"
 viewBox="0.00 0.00 681.00 116.00" xmlns="http://www.w3.org/2000/svg" xmlns:xlink="http://www.w3.org/1999/xlink">
<g id="graph0" class="graph" transform="scale(1 1) rotate(0) translate(4 112)">
<title>%3</title>
<polygon fill="white" stroke="none" points="-4,4 -4,-112 677,-112 677,4 -4,4"/>
<!-- 1 -->
<g id="node1" class="node"><title>1</title>
<ellipse fill="powderblue" stroke="black" cx="107" cy="-40" rx="18" ry="18"/>
<text text-anchor="middle" x="107" y="-36.9" font-family="arial" font-size="12.00">P0</text>
</g>
<!-- 2 -->
<g id="node2" class="node"><title>2</title>
<ellipse fill="powderblue" stroke="black" cx="196" cy="-72" rx="18" ry="18"/>
<text text-anchor="middle" x="196" y="-68.9" font-family="arial" font-size="12.00">P1</text>
</g>
<!-- 1&#45;&gt;2 -->
<g id="edge1" class="edge"><title>1&#45;&gt;2</title>
<path fill="none" stroke="black" d="M124.364,-46.019C137.002,-50.6673 154.727,-57.1871 169.26,-62.5325"/>
<polygon fill="black" stroke="black" points="168.116,-65.8408 178.709,-66.008 170.532,-59.2711 168.116,-65.8408"/>
<text text-anchor="middle" x="151.5" y="-61.4" font-family="arial" font-size="12.00">3.0</text>
</g>
<!-- 3 -->
<g id="node3" class="node"><title>3</title>
<ellipse fill="powderblue" stroke="black" cx="196" cy="-18" rx="18" ry="18"/>
<text text-anchor="middle" x="196" y="-14.9" font-family="arial" font-size="12.00">P2</text>
</g>
<!-- 1&#45;&gt;3 -->
<g id="edge2" class="edge"><title>1&#45;&gt;3</title>
<path fill="none" stroke="black" d="M124.774,-35.7582C137.171,-32.6234 154.296,-28.293 168.531,-24.6933"/>
<polygon fill="black" stroke="black" points="169.44,-28.0736 178.277,-22.2288 167.724,-21.2872 169.44,-28.0736"/>
<text text-anchor="middle" x="151.5" y="-34.4" font-family="arial" font-size="12.00">2.5</text>
</g>
<!-- 4 -->
<g id="node4" class="node"><title>4</title>
<ellipse fill="powderblue" stroke="black" cx="292" cy="-27" rx="18" ry="18"/>
<text text-anchor="middle" x="292" y="-23.9" font-family="arial" font-size="12.00">P3</text>
</g>
<!-- 2&#45;&gt;4 -->
<g id="edge3" class="edge"><title>2&#45;&gt;4</title>
<path fill="none" stroke="black" d="M212.522,-64.5692C227.081,-57.5993 249.099,-47.059 266.111,-38.915"/>
<polygon fill="black" stroke="black" points="267.946,-41.9168 275.455,-34.4419 264.924,-35.603 267.946,-41.9168"/>
<text text-anchor="middle" x="244" y="-57.4" font-family="arial" font-size="12.00">6.0</text>
</g>
<!-- 5 -->
<g id="node5" class="node"><title>5</title>
<ellipse fill="powderblue" stroke="black" cx="292" cy="-90" rx="18" ry="18"/>
<text text-anchor="middle" x="292" y="-86.9" font-family="arial" font-size="12.00">P4</text>
</g>
<!-- 2&#45;&gt;5 -->
<g id="edge5" class="edge"><title>2&#45;&gt;5</title>
<path fill="none" stroke="black" d="M213.805,-75.218C227.754,-77.8891 247.856,-81.7384 264.05,-84.8393"/>
<polygon fill="black" stroke="black" points="263.543,-88.3059 274.023,-86.7491 264.86,-81.4308 263.543,-88.3059"/>
<text text-anchor="middle" x="244" y="-86.4" font-family="arial" font-size="12.00">0.75</text>
</g>
<!-- 3&#45;&gt;4 -->
<g id="edge4" class="edge"><title>3&#45;&gt;4</title>
<path fill="none" stroke="black" d="M214.105,-17.3554C225.917,-17.1385 241.966,-17.2959 256,-19 258.748,-19.3336 261.595,-19.7922 264.425,-20.3224"/>
<polygon fill="black" stroke="black" points="263.878,-23.7846 274.39,-22.4609 265.347,-16.9404 263.878,-23.7846"/>
<text text-anchor="middle" x="244" y="-22.4" font-family="arial" font-size="12.00">7.5</text>
</g>
<!-- 6 -->
<g id="node6" class="node"><title>6</title>
<ellipse fill="powderblue" stroke="black" cx="381" cy="-72" rx="18" ry="18"/>
<text text-anchor="middle" x="381" y="-68.9" font-family="arial" font-size="12.00">P5</text>
</g>
<!-- 4&#45;&gt;6 -->
<g id="edge6" class="edge"><title>4&#45;&gt;6</title>
<path fill="none" stroke="black" d="M308.554,-35.0451C321.544,-41.7642 340.3,-51.4656 355.336,-59.2426"/>
<polygon fill="black" stroke="black" points="354.091,-62.539 364.581,-64.0246 357.307,-56.3215 354.091,-62.539"/>
<text text-anchor="middle" x="336.5" y="-56.4" font-family="arial" font-size="12.00">3.0</text>
</g>
<!-- 7 -->
<g id="node7" class="node"><title>7</title>
<ellipse fill="powderblue" stroke="black" cx="381" cy="-18" rx="18" ry="18"/>
<text text-anchor="middle" x="381" y="-14.9" font-family="arial" font-size="12.00">P6</text>
</g>
<!-- 4&#45;&gt;7 -->
<g id="edge8" class="edge"><title>4&#45;&gt;7</title>
<path fill="none" stroke="black" d="M309.611,-22.4688C315.387,-21.0897 321.937,-19.7432 328,-19 335.887,-18.0332 344.496,-17.613 352.399,-17.4777"/>
<polygon fill="black" stroke="black" points="352.615,-20.9771 362.604,-17.4454 352.593,-13.9772 352.615,-20.9771"/>
<text text-anchor="middle" x="336.5" y="-22.4" font-family="arial" font-size="12.00">1.2</text>
</g>
<!-- 5&#45;&gt;6 -->
<g id="edge7" class="edge"><title>5&#45;&gt;6</title>
<path fill="none" stroke="black" d="M309.774,-86.5294C322.051,-83.9895 338.964,-80.4902 353.116,-77.5622"/>
<polygon fill="black" stroke="black" points="354.194,-80.9135 363.277,-75.4599 352.775,-74.0586 354.194,-80.9135"/>
<text text-anchor="middle" x="336.5" y="-85.4" font-family="arial" font-size="12.00">1.5</text>
</g>
<!-- 8 -->
<g id="node8" class="node"><title>8</title>
<ellipse fill="powderblue" stroke="black" cx="470" cy="-47" rx="18" ry="18"/>
<text text-anchor="middle" x="470" y="-43.9" font-family="arial" font-size="12.00">P7</text>
</g>
<!-- 6&#45;&gt;8 -->
<g id="edge9" class="edge"><title>6&#45;&gt;8</title>
<path fill="none" stroke="black" d="M398.774,-67.1797C411.251,-63.5946 428.516,-58.6334 442.805,-54.5274"/>
<polygon fill="black" stroke="black" points="443.928,-57.8464 452.572,-51.7207 441.994,-51.1187 443.928,-57.8464"/>
<text text-anchor="middle" x="425.5" y="-64.4" font-family="arial" font-size="12.00">6.0</text>
</g>
<!-- 7&#45;&gt;8 -->
<g id="edge10" class="edge"><title>7&#45;&gt;8</title>
<path fill="none" stroke="black" d="M398.364,-23.4547C410.88,-27.6268 428.387,-33.4623 442.84,-38.28"/>
<polygon fill="black" stroke="black" points="442.116,-41.7278 452.709,-41.5698 444.329,-35.087 442.116,-41.7278"/>
<text text-anchor="middle" x="425.5" y="-39.4" font-family="arial" font-size="12.00">1.2</text>
</g>
<!-- 9 -->
<g id="node9" class="node"><title>9</title>
<ellipse fill="powderblue" stroke="black" cx="559" cy="-47" rx="18" ry="18"/>
<text text-anchor="middle" x="559" y="-43.9" font-family="arial" font-size="12.00">P8</text>
</g>
<!-- 8&#45;&gt;9 -->
<g id="edge11" class="edge"><title>8&#45;&gt;9</title>
<path fill="none" stroke="black" d="M488.188,-47C500.343,-47 516.886,-47 530.818,-47"/>
<polygon fill="black" stroke="black" points="530.847,-50.5001 540.847,-47 530.847,-43.5001 530.847,-50.5001"/>
<text text-anchor="middle" x="514.5" y="-50.4" font-family="arial" font-size="12.00">4.8</text>
</g>
<!-- 11 -->
<g id="node11" class="node"><title>11</title>
<ellipse fill="darksalmon" stroke="black" cx="655" cy="-47" rx="18" ry="18"/>
<text text-anchor="middle" x="655" y="-43.9" font-family="arial" font-size="12.00">Sink</text>
</g>
<!-- 9&#45;&gt;11 -->
<g id="edge13" class="edge"><title>9&#45;&gt;11</title>
<path fill="none" stroke="black" d="M577.241,-47C591.022,-47 610.6,-47 626.535,-47"/>
<polygon fill="black" stroke="black" points="626.868,-50.5001 636.868,-47 626.868,-43.5001 626.868,-50.5001"/>
<text text-anchor="middle" x="607" y="-50.4" font-family="arial" font-size="12.00">19.2</text>
</g>
<!-- 10 -->
<g id="node10" class="node"><title>10</title>
<ellipse fill="forestgreen" stroke="black" cx="18" cy="-40" rx="18" ry="18"/>
<text text-anchor="middle" x="18" y="-37.5" font-family="arial" font-size="10.00">Source</text>
</g>
<!-- 10&#45;&gt;1 -->
<g id="edge12" class="edge"><title>10&#45;&gt;1</title>
<path fill="none" stroke="black" d="M36.1884,-40C48.3426,-40 64.8865,-40 78.8185,-40"/>
<polygon fill="black" stroke="black" points="78.8473,-43.5001 88.8473,-40 78.8473,-36.5001 78.8473,-43.5001"/>
<text text-anchor="middle" x="62.5" y="-43.4" font-family="arial" font-size="12.00">1.0</text>
</g>
</g>
</svg>
