<?xml version="1.0" encoding="UTF-8" standalone="no"?>
<!DOCTYPE svg PUBLIC "-//W3C//DTD SVG 1.1//EN"
 "http://www.w3.org/Graphics/SVG/1.1/DTD/svg11.dtd">
<!-- Generated by graphviz version 2.38.0 (20140413.2041)
 -->
<!-- Title: %3 Pages: 1 -->
<svg width="805pt" height="98pt"
 viewBox="0.00 0.00 805.00 98.00" xmlns="http://www.w3.org/2000/svg" xmlns:xlink="http://www.w3.org/1999/xlink">
<g id="graph0" class="graph" transform="scale(1 1) rotate(0) translate(4 94)">
<title>%3</title>
<polygon fill="white" stroke="none" points="-4,4 -4,-94 801,-94 801,4 -4,4"/>
<!-- 1 -->
<g id="node1" class="node"><title>1</title>
<ellipse fill="powderblue" stroke="black" cx="107" cy="-40" rx="18" ry="18"/>
<text text-anchor="middle" x="107" y="-36.9" font-family="arial" font-size="12.00">P0</text>
</g>
<!-- 2 -->
<g id="node2" class="node"><title>2</title>
<ellipse fill="powderblue" stroke="black" cx="196" cy="-72" rx="18" ry="18"/>
<text text-anchor="middle" x="196" y="-68.9" font-family="arial" font-size="12.00">P1</text>
</g>
<!-- 1&#45;&gt;2 -->
<g id="edge1" class="edge"><title>1&#45;&gt;2</title>
<path fill="none" stroke="black" d="M124.364,-46.019C137.002,-50.6673 154.727,-57.1871 169.26,-62.5325"/>
<polygon fill="black" stroke="black" points="168.116,-65.8408 178.709,-66.008 170.532,-59.2711 168.116,-65.8408"/>
<text text-anchor="middle" x="151.5" y="-61.4" font-family="arial" font-size="12.00">4.0</text>
</g>
<!-- 3 -->
<g id="node3" class="node"><title>3</title>
<ellipse fill="powderblue" stroke="black" cx="196" cy="-18" rx="18" ry="18"/>
<text text-anchor="middle" x="196" y="-14.9" font-family="arial" font-size="12.00">P2</text>
</g>
<!-- 1&#45;&gt;3 -->
<g id="edge2" class="edge"><title>1&#45;&gt;3</title>
<path fill="none" stroke="black" d="M124.774,-35.7582C137.171,-32.6234 154.296,-28.293 168.531,-24.6933"/>
<polygon fill="black" stroke="black" points="169.44,-28.0736 178.277,-22.2288 167.724,-21.2872 169.44,-28.0736"/>
<text text-anchor="middle" x="151.5" y="-34.4" font-family="arial" font-size="12.00">0.4</text>
</g>
<!-- 4 -->
<g id="node4" class="node"><title>4</title>
<ellipse fill="powderblue" stroke="black" cx="292" cy="-72" rx="18" ry="18"/>
<text text-anchor="middle" x="292" y="-68.9" font-family="arial" font-size="12.00">P3</text>
</g>
<!-- 2&#45;&gt;4 -->
<g id="edge3" class="edge"><title>2&#45;&gt;4</title>
<path fill="none" stroke="black" d="M214.241,-72C228.022,-72 247.6,-72 263.535,-72"/>
<polygon fill="black" stroke="black" points="263.868,-75.5001 273.868,-72 263.868,-68.5001 263.868,-75.5001"/>
<text text-anchor="middle" x="244" y="-75.4" font-family="arial" font-size="12.00">8.0</text>
</g>
<!-- 5 -->
<g id="node5" class="node"><title>5</title>
<ellipse fill="powderblue" stroke="black" cx="292" cy="-18" rx="18" ry="18"/>
<text text-anchor="middle" x="292" y="-14.9" font-family="arial" font-size="12.00">P4</text>
</g>
<!-- 3&#45;&gt;5 -->
<g id="edge4" class="edge"><title>3&#45;&gt;5</title>
<path fill="none" stroke="black" d="M214.241,-18C228.022,-18 247.6,-18 263.535,-18"/>
<polygon fill="black" stroke="black" points="263.868,-21.5001 273.868,-18 263.868,-14.5001 263.868,-21.5001"/>
<text text-anchor="middle" x="244" y="-21.4" font-family="arial" font-size="12.00">0.08</text>
</g>
<!-- 6 -->
<g id="node6" class="node"><title>6</title>
<ellipse fill="powderblue" stroke="black" cx="388" cy="-47" rx="18" ry="18"/>
<text text-anchor="middle" x="388" y="-43.9" font-family="arial" font-size="12.00">P5</text>
</g>
<!-- 4&#45;&gt;6 -->
<g id="edge5" class="edge"><title>4&#45;&gt;6</title>
<path fill="none" stroke="black" d="M309.805,-67.5305C323.841,-63.7977 344.106,-58.408 360.351,-54.0874"/>
<polygon fill="black" stroke="black" points="361.576,-57.3835 370.34,-51.4308 359.777,-50.6187 361.576,-57.3835"/>
<text text-anchor="middle" x="340" y="-65.4" font-family="arial" font-size="12.00">16.0</text>
</g>
<!-- 5&#45;&gt;6 -->
<g id="edge6" class="edge"><title>5&#45;&gt;6</title>
<path fill="none" stroke="black" d="M309.374,-23.0514C323.574,-27.4324 344.382,-33.8517 360.88,-38.9418"/>
<polygon fill="black" stroke="black" points="359.911,-42.3056 370.499,-41.9092 361.975,-35.6166 359.911,-42.3056"/>
<text text-anchor="middle" x="340" y="-39.4" font-family="arial" font-size="12.00">0.08</text>
</g>
<!-- 7 -->
<g id="node7" class="node"><title>7</title>
<ellipse fill="powderblue" stroke="black" cx="484" cy="-47" rx="18" ry="18"/>
<text text-anchor="middle" x="484" y="-43.9" font-family="arial" font-size="12.00">P6</text>
</g>
<!-- 6&#45;&gt;7 -->
<g id="edge7" class="edge"><title>6&#45;&gt;7</title>
<path fill="none" stroke="black" d="M406.241,-47C420.022,-47 439.6,-47 455.535,-47"/>
<polygon fill="black" stroke="black" points="455.868,-50.5001 465.868,-47 455.868,-43.5001 455.868,-50.5001"/>
<text text-anchor="middle" x="436" y="-50.4" font-family="arial" font-size="12.00">0.48</text>
</g>
<!-- 8 -->
<g id="node8" class="node"><title>8</title>
<ellipse fill="powderblue" stroke="black" cx="580" cy="-47" rx="18" ry="18"/>
<text text-anchor="middle" x="580" y="-43.9" font-family="arial" font-size="12.00">P7</text>
</g>
<!-- 7&#45;&gt;8 -->
<g id="edge8" class="edge"><title>7&#45;&gt;8</title>
<path fill="none" stroke="black" d="M502.241,-47C516.022,-47 535.6,-47 551.535,-47"/>
<polygon fill="black" stroke="black" points="551.868,-50.5001 561.868,-47 551.868,-43.5001 551.868,-50.5001"/>
<text text-anchor="middle" x="532" y="-50.4" font-family="arial" font-size="12.00">0.12</text>
</g>
<!-- 9 -->
<g id="node9" class="node"><title>9</title>
<ellipse fill="powderblue" stroke="black" cx="676" cy="-47" rx="18" ry="18"/>
<text text-anchor="middle" x="676" y="-43.9" font-family="arial" font-size="12.00">P8</text>
</g>
<!-- 8&#45;&gt;9 -->
<g id="edge9" class="edge"><title>8&#45;&gt;9</title>
<path fill="none" stroke="black" d="M598.241,-47C612.022,-47 631.6,-47 647.535,-47"/>
<polygon fill="black" stroke="black" points="647.868,-50.5001 657.868,-47 647.868,-43.5001 647.868,-50.5001"/>
<text text-anchor="middle" x="628" y="-50.4" font-family="arial" font-size="12.00">0.16</text>
</g>
<!-- 11 -->
<g id="node11" class="node"><title>11</title>
<ellipse fill="darksalmon" stroke="black" cx="779" cy="-47" rx="18" ry="18"/>
<text text-anchor="middle" x="779" y="-43.9" font-family="arial" font-size="12.00">Sink</text>
</g>
<!-- 9&#45;&gt;11 -->
<g id="edge11" class="edge"><title>9&#45;&gt;11</title>
<path fill="none" stroke="black" d="M694.133,-47C709.586,-47 732.584,-47 750.591,-47"/>
<polygon fill="black" stroke="black" points="750.783,-50.5001 760.783,-47 750.783,-43.5001 750.783,-50.5001"/>
<text text-anchor="middle" x="727.5" y="-50.4" font-family="arial" font-size="12.00">0.213</text>
</g>
<!-- 10 -->
<g id="node10" class="node"><title>10</title>
<ellipse fill="forestgreen" stroke="black" cx="18" cy="-40" rx="18" ry="18"/>
<text text-anchor="middle" x="18" y="-37.5" font-family="arial" font-size="10.00">Source</text>
</g>
<!-- 10&#45;&gt;1 -->
<g id="edge10" class="edge"><title>10&#45;&gt;1</title>
<path fill="none" stroke="black" d="M36.1884,-40C48.3426,-40 64.8865,-40 78.8185,-40"/>
<polygon fill="black" stroke="black" points="78.8473,-43.5001 88.8473,-40 78.8473,-36.5001 78.8473,-43.5001"/>
<text text-anchor="middle" x="62.5" y="-43.4" font-family="arial" font-size="12.00">1.0</text>
</g>
</g>
</svg>
