<?xml version="1.0" encoding="UTF-8" standalone="no"?>
<!DOCTYPE svg PUBLIC "-//W3C//DTD SVG 1.1//EN"
 "http://www.w3.org/Graphics/SVG/1.1/DTD/svg11.dtd">
<!-- Generated by graphviz version 2.38.0 (20140413.2041)
 -->
<!-- Title: %3 Pages: 1 -->
<svg width="812pt" height="152pt"
 viewBox="0.00 0.00 812.00 152.00" xmlns="http://www.w3.org/2000/svg" xmlns:xlink="http://www.w3.org/1999/xlink">
<g id="graph0" class="graph" transform="scale(1 1) rotate(0) translate(4 148)">
<title>%3</title>
<polygon fill="white" stroke="none" points="-4,4 -4,-148 808,-148 808,4 -4,4"/>
<!-- 1 -->
<g id="node1" class="node"><title>1</title>
<ellipse fill="powderblue" stroke="black" cx="107" cy="-72" rx="18" ry="18"/>
<text text-anchor="middle" x="107" y="-68.9" font-family="arial" font-size="12.00">P0</text>
</g>
<!-- 2 -->
<g id="node2" class="node"><title>2</title>
<ellipse fill="powderblue" stroke="black" cx="196" cy="-72" rx="18" ry="18"/>
<text text-anchor="middle" x="196" y="-68.9" font-family="arial" font-size="12.00">P1</text>
</g>
<!-- 1&#45;&gt;2 -->
<g id="edge1" class="edge"><title>1&#45;&gt;2</title>
<path fill="none" stroke="black" d="M125.188,-72C137.343,-72 153.886,-72 167.818,-72"/>
<polygon fill="black" stroke="black" points="167.847,-75.5001 177.847,-72 167.847,-68.5001 167.847,-75.5001"/>
<text text-anchor="middle" x="151.5" y="-75.4" font-family="arial" font-size="12.00">0.5</text>
</g>
<!-- 3 -->
<g id="node3" class="node"><title>3</title>
<ellipse fill="powderblue" stroke="black" cx="292" cy="-72" rx="18" ry="18"/>
<text text-anchor="middle" x="292" y="-68.9" font-family="arial" font-size="12.00">P2</text>
</g>
<!-- 2&#45;&gt;3 -->
<g id="edge2" class="edge"><title>2&#45;&gt;3</title>
<path fill="none" stroke="black" d="M214.241,-72C228.022,-72 247.6,-72 263.535,-72"/>
<polygon fill="black" stroke="black" points="263.868,-75.5001 273.868,-72 263.868,-68.5001 263.868,-75.5001"/>
<text text-anchor="middle" x="244" y="-75.4" font-family="arial" font-size="12.00">0.25</text>
</g>
<!-- 4 -->
<g id="node4" class="node"><title>4</title>
<ellipse fill="powderblue" stroke="black" cx="395" cy="-126" rx="18" ry="18"/>
<text text-anchor="middle" x="395" y="-122.9" font-family="arial" font-size="12.00">P3</text>
</g>
<!-- 3&#45;&gt;4 -->
<g id="edge3" class="edge"><title>3&#45;&gt;4</title>
<path fill="none" stroke="black" d="M308.34,-80.2014C324.674,-88.9346 350.751,-102.877 369.847,-113.086"/>
<polygon fill="black" stroke="black" points="368.378,-116.27 378.847,-117.898 371.678,-110.097 368.378,-116.27"/>
<text text-anchor="middle" x="343.5" y="-109.4" font-family="arial" font-size="12.00">0.625</text>
</g>
<!-- 5 -->
<g id="node5" class="node"><title>5</title>
<ellipse fill="powderblue" stroke="black" cx="395" cy="-72" rx="18" ry="18"/>
<text text-anchor="middle" x="395" y="-68.9" font-family="arial" font-size="12.00">P4</text>
</g>
<!-- 3&#45;&gt;5 -->
<g id="edge4" class="edge"><title>3&#45;&gt;5</title>
<path fill="none" stroke="black" d="M310.133,-72C325.586,-72 348.584,-72 366.591,-72"/>
<polygon fill="black" stroke="black" points="366.783,-75.5001 376.783,-72 366.783,-68.5001 366.783,-75.5001"/>
<text text-anchor="middle" x="343.5" y="-75.4" font-family="arial" font-size="12.00">0.25</text>
</g>
<!-- 6 -->
<g id="node6" class="node"><title>6</title>
<ellipse fill="powderblue" stroke="black" cx="395" cy="-18" rx="18" ry="18"/>
<text text-anchor="middle" x="395" y="-14.9" font-family="arial" font-size="12.00">P5</text>
</g>
<!-- 3&#45;&gt;6 -->
<g id="edge5" class="edge"><title>3&#45;&gt;6</title>
<path fill="none" stroke="black" d="M308.34,-63.7986C324.674,-55.0654 350.751,-41.1234 369.847,-30.9137"/>
<polygon fill="black" stroke="black" points="371.678,-33.9032 378.847,-26.1017 368.378,-27.7301 371.678,-33.9032"/>
<text text-anchor="middle" x="343.5" y="-56.4" font-family="arial" font-size="12.00">0.5</text>
</g>
<!-- 7 -->
<g id="node7" class="node"><title>7</title>
<ellipse fill="powderblue" stroke="black" cx="498" cy="-72" rx="18" ry="18"/>
<text text-anchor="middle" x="498" y="-68.9" font-family="arial" font-size="12.00">P6</text>
</g>
<!-- 4&#45;&gt;7 -->
<g id="edge6" class="edge"><title>4&#45;&gt;7</title>
<path fill="none" stroke="black" d="M411.34,-117.799C427.674,-109.065 453.751,-95.1234 472.847,-84.9137"/>
<polygon fill="black" stroke="black" points="474.678,-87.9032 481.847,-80.1017 471.378,-81.7301 474.678,-87.9032"/>
<text text-anchor="middle" x="446.5" y="-109.4" font-family="arial" font-size="12.00">0.208</text>
</g>
<!-- 5&#45;&gt;7 -->
<g id="edge7" class="edge"><title>5&#45;&gt;7</title>
<path fill="none" stroke="black" d="M413.133,-72C428.586,-72 451.584,-72 469.591,-72"/>
<polygon fill="black" stroke="black" points="469.783,-75.5001 479.783,-72 469.783,-68.5001 469.783,-75.5001"/>
<text text-anchor="middle" x="446.5" y="-75.4" font-family="arial" font-size="12.00">0.25</text>
</g>
<!-- 6&#45;&gt;7 -->
<g id="edge8" class="edge"><title>6&#45;&gt;7</title>
<path fill="none" stroke="black" d="M411.34,-26.2014C427.674,-34.9346 453.751,-48.8766 472.847,-59.0863"/>
<polygon fill="black" stroke="black" points="471.378,-62.2699 481.847,-63.8983 474.678,-56.0968 471.378,-62.2699"/>
<text text-anchor="middle" x="446.5" y="-56.4" font-family="arial" font-size="12.00">0.2</text>
</g>
<!-- 8 -->
<g id="node8" class="node"><title>8</title>
<ellipse fill="powderblue" stroke="black" cx="594" cy="-72" rx="18" ry="18"/>
<text text-anchor="middle" x="594" y="-68.9" font-family="arial" font-size="12.00">P7</text>
</g>
<!-- 7&#45;&gt;8 -->
<g id="edge9" class="edge"><title>7&#45;&gt;8</title>
<path fill="none" stroke="black" d="M516.241,-72C530.022,-72 549.6,-72 565.535,-72"/>
<polygon fill="black" stroke="black" points="565.868,-75.5001 575.868,-72 565.868,-68.5001 565.868,-75.5001"/>
<text text-anchor="middle" x="546" y="-75.4" font-family="arial" font-size="12.00">0.25</text>
</g>
<!-- 9 -->
<g id="node9" class="node"><title>9</title>
<ellipse fill="powderblue" stroke="black" cx="690" cy="-72" rx="18" ry="18"/>
<text text-anchor="middle" x="690" y="-68.9" font-family="arial" font-size="12.00">P8</text>
</g>
<!-- 8&#45;&gt;9 -->
<g id="edge10" class="edge"><title>8&#45;&gt;9</title>
<path fill="none" stroke="black" d="M612.241,-72C626.022,-72 645.6,-72 661.535,-72"/>
<polygon fill="black" stroke="black" points="661.868,-75.5001 671.868,-72 661.868,-68.5001 661.868,-75.5001"/>
<text text-anchor="middle" x="642" y="-75.4" font-family="arial" font-size="12.00">0.15</text>
</g>
<!-- 11 -->
<g id="node11" class="node"><title>11</title>
<ellipse fill="darksalmon" stroke="black" cx="786" cy="-72" rx="18" ry="18"/>
<text text-anchor="middle" x="786" y="-68.9" font-family="arial" font-size="12.00">Sink</text>
</g>
<!-- 9&#45;&gt;11 -->
<g id="edge12" class="edge"><title>9&#45;&gt;11</title>
<path fill="none" stroke="black" d="M708.241,-72C722.022,-72 741.6,-72 757.535,-72"/>
<polygon fill="black" stroke="black" points="757.868,-75.5001 767.868,-72 757.868,-68.5001 757.868,-75.5001"/>
<text text-anchor="middle" x="738" y="-75.4" font-family="arial" font-size="12.00">0.45</text>
</g>
<!-- 10 -->
<g id="node10" class="node"><title>10</title>
<ellipse fill="forestgreen" stroke="black" cx="18" cy="-72" rx="18" ry="18"/>
<text text-anchor="middle" x="18" y="-69.5" font-family="arial" font-size="10.00">Source</text>
</g>
<!-- 10&#45;&gt;1 -->
<g id="edge11" class="edge"><title>10&#45;&gt;1</title>
<path fill="none" stroke="black" d="M36.1884,-72C48.3426,-72 64.8865,-72 78.8185,-72"/>
<polygon fill="black" stroke="black" points="78.8473,-75.5001 88.8473,-72 78.8473,-68.5001 78.8473,-75.5001"/>
<text text-anchor="middle" x="62.5" y="-75.4" font-family="arial" font-size="12.00">1.0</text>
</g>
</g>
</svg>
