<?xml version="1.0" encoding="UTF-8" standalone="no"?>
<!DOCTYPE svg PUBLIC "-//W3C//DTD SVG 1.1//EN"
 "http://www.w3.org/Graphics/SVG/1.1/DTD/svg11.dtd">
<!-- Generated by graphviz version 2.38.0 (20140413.2041)
 -->
<!-- Title: %3 Pages: 1 -->
<svg width="770pt" height="105pt"
 viewBox="0.00 0.00 770.00 105.00" xmlns="http://www.w3.org/2000/svg" xmlns:xlink="http://www.w3.org/1999/xlink">
<g id="graph0" class="graph" transform="scale(1 1) rotate(0) translate(4 101)">
<title>%3</title>
<polygon fill="white" stroke="none" points="-4,4 -4,-101 766,-101 766,4 -4,4"/>
<!-- 1 -->
<g id="node1" class="node"><title>1</title>
<ellipse fill="powderblue" stroke="black" cx="107" cy="-72" rx="18" ry="18"/>
<text text-anchor="middle" x="107" y="-68.9" font-family="arial" font-size="12.00">P0</text>
</g>
<!-- 3 -->
<g id="node3" class="node"><title>3</title>
<ellipse fill="powderblue" stroke="black" cx="203" cy="-47" rx="18" ry="18"/>
<text text-anchor="middle" x="203" y="-43.9" font-family="arial" font-size="12.00">P2</text>
</g>
<!-- 1&#45;&gt;3 -->
<g id="edge1" class="edge"><title>1&#45;&gt;3</title>
<path fill="none" stroke="black" d="M124.805,-67.5305C138.841,-63.7977 159.106,-58.408 175.351,-54.0874"/>
<polygon fill="black" stroke="black" points="176.576,-57.3835 185.34,-51.4308 174.777,-50.6187 176.576,-57.3835"/>
<text text-anchor="middle" x="155" y="-65.4" font-family="arial" font-size="12.00">0.25</text>
</g>
<!-- 2 -->
<g id="node2" class="node"><title>2</title>
<ellipse fill="powderblue" stroke="black" cx="107" cy="-18" rx="18" ry="18"/>
<text text-anchor="middle" x="107" y="-14.9" font-family="arial" font-size="12.00">P1</text>
</g>
<!-- 2&#45;&gt;3 -->
<g id="edge2" class="edge"><title>2&#45;&gt;3</title>
<path fill="none" stroke="black" d="M124.374,-23.0514C138.574,-27.4324 159.382,-33.8517 175.88,-38.9418"/>
<polygon fill="black" stroke="black" points="174.911,-42.3056 185.499,-41.9092 176.975,-35.6166 174.911,-42.3056"/>
<text text-anchor="middle" x="155" y="-38.4" font-family="arial" font-size="12.00">0.6</text>
</g>
<!-- 4 -->
<g id="node4" class="node"><title>4</title>
<ellipse fill="powderblue" stroke="black" cx="299" cy="-47" rx="18" ry="18"/>
<text text-anchor="middle" x="299" y="-43.9" font-family="arial" font-size="12.00">P3</text>
</g>
<!-- 3&#45;&gt;4 -->
<g id="edge3" class="edge"><title>3&#45;&gt;4</title>
<path fill="none" stroke="black" d="M221.241,-47C235.022,-47 254.6,-47 270.535,-47"/>
<polygon fill="black" stroke="black" points="270.868,-50.5001 280.868,-47 270.868,-43.5001 270.868,-50.5001"/>
<text text-anchor="middle" x="251" y="-50.4" font-family="arial" font-size="12.00">0.25</text>
</g>
<!-- 5 -->
<g id="node5" class="node"><title>5</title>
<ellipse fill="powderblue" stroke="black" cx="388" cy="-47" rx="18" ry="18"/>
<text text-anchor="middle" x="388" y="-43.9" font-family="arial" font-size="12.00">P4</text>
</g>
<!-- 4&#45;&gt;5 -->
<g id="edge4" class="edge"><title>4&#45;&gt;5</title>
<path fill="none" stroke="black" d="M317.188,-47C329.343,-47 345.886,-47 359.818,-47"/>
<polygon fill="black" stroke="black" points="359.847,-50.5001 369.847,-47 359.847,-43.5001 359.847,-50.5001"/>
<text text-anchor="middle" x="343.5" y="-50.4" font-family="arial" font-size="12.00">1.0</text>
</g>
<!-- 6 -->
<g id="node6" class="node"><title>6</title>
<ellipse fill="powderblue" stroke="black" cx="477" cy="-79" rx="18" ry="18"/>
<text text-anchor="middle" x="477" y="-75.9" font-family="arial" font-size="12.00">P5</text>
</g>
<!-- 5&#45;&gt;6 -->
<g id="edge5" class="edge"><title>5&#45;&gt;6</title>
<path fill="none" stroke="black" d="M405.364,-53.019C418.002,-57.6673 435.727,-64.1871 450.26,-69.5325"/>
<polygon fill="black" stroke="black" points="449.116,-72.8408 459.709,-73.008 451.532,-66.2711 449.116,-72.8408"/>
<text text-anchor="middle" x="432.5" y="-68.4" font-family="arial" font-size="12.00">3.0</text>
</g>
<!-- 7 -->
<g id="node7" class="node"><title>7</title>
<ellipse fill="powderblue" stroke="black" cx="477" cy="-25" rx="18" ry="18"/>
<text text-anchor="middle" x="477" y="-21.9" font-family="arial" font-size="12.00">P6</text>
</g>
<!-- 5&#45;&gt;7 -->
<g id="edge6" class="edge"><title>5&#45;&gt;7</title>
<path fill="none" stroke="black" d="M405.774,-42.7582C418.171,-39.6234 435.296,-35.293 449.531,-31.6933"/>
<polygon fill="black" stroke="black" points="450.44,-35.0736 459.277,-29.2288 448.724,-28.2872 450.44,-35.0736"/>
<text text-anchor="middle" x="432.5" y="-40.4" font-family="arial" font-size="12.00">0.5</text>
</g>
<!-- 8 -->
<g id="node8" class="node"><title>8</title>
<ellipse fill="powderblue" stroke="black" cx="566" cy="-54" rx="18" ry="18"/>
<text text-anchor="middle" x="566" y="-50.9" font-family="arial" font-size="12.00">P7</text>
</g>
<!-- 6&#45;&gt;8 -->
<g id="edge7" class="edge"><title>6&#45;&gt;8</title>
<path fill="none" stroke="black" d="M494.774,-74.1797C507.251,-70.5946 524.516,-65.6334 538.805,-61.5274"/>
<polygon fill="black" stroke="black" points="539.928,-64.8464 548.572,-58.7207 537.994,-58.1187 539.928,-64.8464"/>
<text text-anchor="middle" x="521.5" y="-71.4" font-family="arial" font-size="12.00">6.0</text>
</g>
<!-- 7&#45;&gt;8 -->
<g id="edge8" class="edge"><title>7&#45;&gt;8</title>
<path fill="none" stroke="black" d="M494.364,-30.4547C506.88,-34.6268 524.387,-40.4623 538.84,-45.28"/>
<polygon fill="black" stroke="black" points="538.116,-48.7278 548.709,-48.5698 540.329,-42.087 538.116,-48.7278"/>
<text text-anchor="middle" x="521.5" y="-45.4" font-family="arial" font-size="12.00">0.3</text>
</g>
<!-- 9 -->
<g id="node9" class="node"><title>9</title>
<ellipse fill="powderblue" stroke="black" cx="655" cy="-54" rx="18" ry="18"/>
<text text-anchor="middle" x="655" y="-50.9" font-family="arial" font-size="12.00">P8</text>
</g>
<!-- 8&#45;&gt;9 -->
<g id="edge9" class="edge"><title>8&#45;&gt;9</title>
<path fill="none" stroke="black" d="M584.188,-54C596.343,-54 612.886,-54 626.818,-54"/>
<polygon fill="black" stroke="black" points="626.847,-57.5001 636.847,-54 626.847,-50.5001 626.847,-57.5001"/>
<text text-anchor="middle" x="610.5" y="-57.4" font-family="arial" font-size="12.00">0.9</text>
</g>
<!-- 11 -->
<g id="node11" class="node"><title>11</title>
<ellipse fill="darksalmon" stroke="black" cx="744" cy="-54" rx="18" ry="18"/>
<text text-anchor="middle" x="744" y="-50.9" font-family="arial" font-size="12.00">Sink</text>
</g>
<!-- 9&#45;&gt;11 -->
<g id="edge12" class="edge"><title>9&#45;&gt;11</title>
<path fill="none" stroke="black" d="M673.188,-54C685.343,-54 701.886,-54 715.818,-54"/>
<polygon fill="black" stroke="black" points="715.847,-57.5001 725.847,-54 715.847,-50.5001 715.847,-57.5001"/>
<text text-anchor="middle" x="699.5" y="-57.4" font-family="arial" font-size="12.00">1.8</text>
</g>
<!-- 10 -->
<g id="node10" class="node"><title>10</title>
<ellipse fill="forestgreen" stroke="black" cx="18" cy="-44" rx="18" ry="18"/>
<text text-anchor="middle" x="18" y="-41.5" font-family="arial" font-size="10.00">Source</text>
</g>
<!-- 10&#45;&gt;1 -->
<g id="edge11" class="edge"><title>10&#45;&gt;1</title>
<path fill="none" stroke="black" d="M35.364,-49.2666C47.8803,-53.2948 65.387,-58.9292 79.84,-63.5807"/>
<polygon fill="black" stroke="black" points="79.1179,-67.025 89.7093,-66.757 81.2625,-60.3616 79.1179,-67.025"/>
<text text-anchor="middle" x="62.5" y="-63.4" font-family="arial" font-size="12.00">1.0</text>
</g>
<!-- 10&#45;&gt;2 -->
<g id="edge10" class="edge"><title>10&#45;&gt;2</title>
<path fill="none" stroke="black" d="M35.3072,-38.1545C41.1726,-36.1195 47.857,-33.8777 54,-32 62.1725,-29.5019 71.1384,-27.0029 79.2891,-24.8221"/>
<polygon fill="black" stroke="black" points="80.2752,-28.1819 89.0564,-22.254 78.4951,-21.412 80.2752,-28.1819"/>
<text text-anchor="middle" x="62.5" y="-35.4" font-family="arial" font-size="12.00">1.0</text>
</g>
</g>
</svg>
