<?xml version="1.0" encoding="UTF-8" standalone="no"?>
<!DOCTYPE svg PUBLIC "-//W3C//DTD SVG 1.1//EN"
 "http://www.w3.org/Graphics/SVG/1.1/DTD/svg11.dtd">
<!-- Generated by graphviz version 2.38.0 (20140413.2041)
 -->
<!-- Title: %3 Pages: 1 -->
<svg width="688pt" height="152pt"
 viewBox="0.00 0.00 688.00 152.00" xmlns="http://www.w3.org/2000/svg" xmlns:xlink="http://www.w3.org/1999/xlink">
<g id="graph0" class="graph" transform="scale(1 1) rotate(0) translate(4 148)">
<title>%3</title>
<polygon fill="white" stroke="none" points="-4,4 -4,-148 684,-148 684,4 -4,4"/>
<!-- 1 -->
<g id="node1" class="node"><title>1</title>
<ellipse fill="powderblue" stroke="black" cx="107" cy="-65" rx="18" ry="18"/>
<text text-anchor="middle" x="107" y="-61.9" font-family="arial" font-size="12.00">P0</text>
</g>
<!-- 2 -->
<g id="node2" class="node"><title>2</title>
<ellipse fill="powderblue" stroke="black" cx="196" cy="-65" rx="18" ry="18"/>
<text text-anchor="middle" x="196" y="-61.9" font-family="arial" font-size="12.00">P1</text>
</g>
<!-- 1&#45;&gt;2 -->
<g id="edge1" class="edge"><title>1&#45;&gt;2</title>
<path fill="none" stroke="black" d="M125.188,-65C137.343,-65 153.886,-65 167.818,-65"/>
<polygon fill="black" stroke="black" points="167.847,-68.5001 177.847,-65 167.847,-61.5001 167.847,-68.5001"/>
<text text-anchor="middle" x="151.5" y="-68.4" font-family="arial" font-size="12.00">1.0</text>
</g>
<!-- 3 -->
<g id="node3" class="node"><title>3</title>
<ellipse fill="powderblue" stroke="black" cx="285" cy="-97" rx="18" ry="18"/>
<text text-anchor="middle" x="285" y="-93.9" font-family="arial" font-size="12.00">P2</text>
</g>
<!-- 2&#45;&gt;3 -->
<g id="edge2" class="edge"><title>2&#45;&gt;3</title>
<path fill="none" stroke="black" d="M213.364,-71.019C226.002,-75.6673 243.727,-82.1871 258.26,-87.5325"/>
<polygon fill="black" stroke="black" points="257.116,-90.8408 267.709,-91.008 259.532,-84.2711 257.116,-90.8408"/>
<text text-anchor="middle" x="240.5" y="-86.4" font-family="arial" font-size="12.00">2.0</text>
</g>
<!-- 4 -->
<g id="node4" class="node"><title>4</title>
<ellipse fill="powderblue" stroke="black" cx="285" cy="-43" rx="18" ry="18"/>
<text text-anchor="middle" x="285" y="-39.9" font-family="arial" font-size="12.00">P3</text>
</g>
<!-- 2&#45;&gt;4 -->
<g id="edge3" class="edge"><title>2&#45;&gt;4</title>
<path fill="none" stroke="black" d="M213.774,-60.7582C226.171,-57.6234 243.296,-53.293 257.531,-49.6933"/>
<polygon fill="black" stroke="black" points="258.44,-53.0736 267.277,-47.2288 256.724,-46.2872 258.44,-53.0736"/>
<text text-anchor="middle" x="240.5" y="-59.4" font-family="arial" font-size="12.00">1.0</text>
</g>
<!-- 5 -->
<g id="node5" class="node"><title>5</title>
<ellipse fill="powderblue" stroke="black" cx="374" cy="-72" rx="18" ry="18"/>
<text text-anchor="middle" x="374" y="-68.9" font-family="arial" font-size="12.00">P4</text>
</g>
<!-- 3&#45;&gt;5 -->
<g id="edge4" class="edge"><title>3&#45;&gt;5</title>
<path fill="none" stroke="black" d="M302.774,-92.1797C315.251,-88.5946 332.516,-83.6334 346.805,-79.5274"/>
<polygon fill="black" stroke="black" points="347.928,-82.8464 356.572,-76.7207 345.994,-76.1187 347.928,-82.8464"/>
<text text-anchor="middle" x="329.5" y="-89.4" font-family="arial" font-size="12.00">8.0</text>
</g>
<!-- 4&#45;&gt;5 -->
<g id="edge5" class="edge"><title>4&#45;&gt;5</title>
<path fill="none" stroke="black" d="M302.364,-48.4547C314.88,-52.6268 332.387,-58.4623 346.84,-63.28"/>
<polygon fill="black" stroke="black" points="346.116,-66.7278 356.709,-66.5698 348.329,-60.087 346.116,-66.7278"/>
<text text-anchor="middle" x="329.5" y="-64.4" font-family="arial" font-size="12.00">1.0</text>
</g>
<!-- 6 -->
<g id="node6" class="node"><title>6</title>
<ellipse fill="powderblue" stroke="black" cx="463" cy="-126" rx="18" ry="18"/>
<text text-anchor="middle" x="463" y="-122.9" font-family="arial" font-size="12.00">P5</text>
</g>
<!-- 5&#45;&gt;6 -->
<g id="edge6" class="edge"><title>5&#45;&gt;6</title>
<path fill="none" stroke="black" d="M389.758,-81.1604C403.132,-89.4612 423.066,-101.834 438.608,-111.481"/>
<polygon fill="black" stroke="black" points="436.827,-114.495 447.169,-116.795 440.519,-108.547 436.827,-114.495"/>
<text text-anchor="middle" x="418.5" y="-106.4" font-family="arial" font-size="12.00">2.0</text>
</g>
<!-- 7 -->
<g id="node7" class="node"><title>7</title>
<ellipse fill="powderblue" stroke="black" cx="463" cy="-72" rx="18" ry="18"/>
<text text-anchor="middle" x="463" y="-68.9" font-family="arial" font-size="12.00">P6</text>
</g>
<!-- 5&#45;&gt;7 -->
<g id="edge7" class="edge"><title>5&#45;&gt;7</title>
<path fill="none" stroke="black" d="M392.188,-72C404.343,-72 420.886,-72 434.818,-72"/>
<polygon fill="black" stroke="black" points="434.847,-75.5001 444.847,-72 434.847,-68.5001 434.847,-75.5001"/>
<text text-anchor="middle" x="418.5" y="-75.4" font-family="arial" font-size="12.00">5.0</text>
</g>
<!-- 8 -->
<g id="node8" class="node"><title>8</title>
<ellipse fill="powderblue" stroke="black" cx="463" cy="-18" rx="18" ry="18"/>
<text text-anchor="middle" x="463" y="-14.9" font-family="arial" font-size="12.00">P7</text>
</g>
<!-- 5&#45;&gt;8 -->
<g id="edge8" class="edge"><title>5&#45;&gt;8</title>
<path fill="none" stroke="black" d="M389.758,-62.8396C403.132,-54.5388 423.066,-42.1662 438.608,-32.519"/>
<polygon fill="black" stroke="black" points="440.519,-35.4527 447.169,-27.2053 436.827,-29.5052 440.519,-35.4527"/>
<text text-anchor="middle" x="418.5" y="-53.4" font-family="arial" font-size="12.00">8.0</text>
</g>
<!-- 9 -->
<g id="node9" class="node"><title>9</title>
<ellipse fill="powderblue" stroke="black" cx="559" cy="-72" rx="18" ry="18"/>
<text text-anchor="middle" x="559" y="-68.9" font-family="arial" font-size="12.00">P8</text>
</g>
<!-- 6&#45;&gt;9 -->
<g id="edge9" class="edge"><title>6&#45;&gt;9</title>
<path fill="none" stroke="black" d="M479.103,-117.324C493.903,-108.822 516.694,-95.7288 533.982,-85.7975"/>
<polygon fill="black" stroke="black" points="536.007,-88.6707 542.935,-80.6545 532.52,-82.6009 536.007,-88.6707"/>
<text text-anchor="middle" x="511" y="-108.4" font-family="arial" font-size="12.00">1.0</text>
</g>
<!-- 7&#45;&gt;9 -->
<g id="edge10" class="edge"><title>7&#45;&gt;9</title>
<path fill="none" stroke="black" d="M481.241,-72C495.022,-72 514.6,-72 530.535,-72"/>
<polygon fill="black" stroke="black" points="530.868,-75.5001 540.868,-72 530.868,-68.5001 530.868,-75.5001"/>
<text text-anchor="middle" x="511" y="-75.4" font-family="arial" font-size="12.00">5.0</text>
</g>
<!-- 8&#45;&gt;9 -->
<g id="edge11" class="edge"><title>8&#45;&gt;9</title>
<path fill="none" stroke="black" d="M479.103,-26.676C493.903,-35.1785 516.694,-48.2712 533.982,-58.2025"/>
<polygon fill="black" stroke="black" points="532.52,-61.3991 542.935,-63.3455 536.007,-55.3293 532.52,-61.3991"/>
<text text-anchor="middle" x="511" y="-55.4" font-family="arial" font-size="12.00">2.67</text>
</g>
<!-- 11 -->
<g id="node11" class="node"><title>11</title>
<ellipse fill="darksalmon" stroke="black" cx="662" cy="-72" rx="18" ry="18"/>
<text text-anchor="middle" x="662" y="-68.9" font-family="arial" font-size="12.00">Sink</text>
</g>
<!-- 9&#45;&gt;11 -->
<g id="edge13" class="edge"><title>9&#45;&gt;11</title>
<path fill="none" stroke="black" d="M577.133,-72C592.586,-72 615.584,-72 633.591,-72"/>
<polygon fill="black" stroke="black" points="633.783,-75.5001 643.783,-72 633.783,-68.5001 633.783,-75.5001"/>
<text text-anchor="middle" x="610.5" y="-75.4" font-family="arial" font-size="12.00">0.667</text>
</g>
<!-- 10 -->
<g id="node10" class="node"><title>10</title>
<ellipse fill="forestgreen" stroke="black" cx="18" cy="-65" rx="18" ry="18"/>
<text text-anchor="middle" x="18" y="-62.5" font-family="arial" font-size="10.00">Source</text>
</g>
<!-- 10&#45;&gt;1 -->
<g id="edge12" class="edge"><title>10&#45;&gt;1</title>
<path fill="none" stroke="black" d="M36.1884,-65C48.3426,-65 64.8865,-65 78.8185,-65"/>
<polygon fill="black" stroke="black" points="78.8473,-68.5001 88.8473,-65 78.8473,-61.5001 78.8473,-68.5001"/>
<text text-anchor="middle" x="62.5" y="-68.4" font-family="arial" font-size="12.00">1.0</text>
</g>
</g>
</svg>
