<?xml version="1.0" encoding="UTF-8" standalone="no"?>
<!DOCTYPE svg PUBLIC "-//W3C//DTD SVG 1.1//EN"
 "http://www.w3.org/Graphics/SVG/1.1/DTD/svg11.dtd">
<!-- Generated by graphviz version 2.38.0 (20140413.2041)
 -->
<!-- Title: %3 Pages: 1 -->
<svg width="743pt" height="112pt"
 viewBox="0.00 0.00 743.00 112.00" xmlns="http://www.w3.org/2000/svg" xmlns:xlink="http://www.w3.org/1999/xlink">
<g id="graph0" class="graph" transform="scale(1 1) rotate(0) translate(4 108)">
<title>%3</title>
<polygon fill="white" stroke="none" points="-4,4 -4,-108 739,-108 739,4 -4,4"/>
<!-- 1 -->
<g id="node1" class="node"><title>1</title>
<ellipse fill="powderblue" stroke="black" cx="107" cy="-72" rx="18" ry="18"/>
<text text-anchor="middle" x="107" y="-68.9" font-family="arial" font-size="12.00">P0</text>
</g>
<!-- 3 -->
<g id="node3" class="node"><title>3</title>
<ellipse fill="powderblue" stroke="black" cx="196" cy="-47" rx="18" ry="18"/>
<text text-anchor="middle" x="196" y="-43.9" font-family="arial" font-size="12.00">P2</text>
</g>
<!-- 1&#45;&gt;3 -->
<g id="edge1" class="edge"><title>1&#45;&gt;3</title>
<path fill="none" stroke="black" d="M124.774,-67.1797C137.251,-63.5946 154.516,-58.6334 168.805,-54.5274"/>
<polygon fill="black" stroke="black" points="169.928,-57.8464 178.572,-51.7207 167.994,-51.1187 169.928,-57.8464"/>
<text text-anchor="middle" x="151.5" y="-64.4" font-family="arial" font-size="12.00">0.5</text>
</g>
<!-- 2 -->
<g id="node2" class="node"><title>2</title>
<ellipse fill="powderblue" stroke="black" cx="107" cy="-18" rx="18" ry="18"/>
<text text-anchor="middle" x="107" y="-14.9" font-family="arial" font-size="12.00">P1</text>
</g>
<!-- 2&#45;&gt;3 -->
<g id="edge2" class="edge"><title>2&#45;&gt;3</title>
<path fill="none" stroke="black" d="M124.364,-23.4547C136.88,-27.6268 154.387,-33.4623 168.84,-38.28"/>
<polygon fill="black" stroke="black" points="168.116,-41.7278 178.709,-41.5698 170.329,-35.087 168.116,-41.7278"/>
<text text-anchor="middle" x="151.5" y="-38.4" font-family="arial" font-size="12.00">1.5</text>
</g>
<!-- 4 -->
<g id="node4" class="node"><title>4</title>
<ellipse fill="powderblue" stroke="black" cx="299" cy="-79" rx="18" ry="18"/>
<text text-anchor="middle" x="299" y="-75.9" font-family="arial" font-size="12.00">P3</text>
</g>
<!-- 3&#45;&gt;4 -->
<g id="edge3" class="edge"><title>3&#45;&gt;4</title>
<path fill="none" stroke="black" d="M213.678,-52.2841C229.562,-57.3168 253.709,-64.9671 272.098,-70.7933"/>
<polygon fill="black" stroke="black" points="271.042,-74.1303 281.632,-73.8142 273.156,-67.4572 271.042,-74.1303"/>
<text text-anchor="middle" x="247.5" y="-70.4" font-family="arial" font-size="12.00">0.25</text>
</g>
<!-- 5 -->
<g id="node5" class="node"><title>5</title>
<ellipse fill="powderblue" stroke="black" cx="299" cy="-25" rx="18" ry="18"/>
<text text-anchor="middle" x="299" y="-21.9" font-family="arial" font-size="12.00">P4</text>
</g>
<!-- 3&#45;&gt;5 -->
<g id="edge4" class="edge"><title>3&#45;&gt;5</title>
<path fill="none" stroke="black" d="M213.723,-43.1215C219.507,-41.7948 226.035,-40.3144 232,-39 244.917,-36.154 259.28,-33.0947 271.301,-30.5641"/>
<polygon fill="black" stroke="black" points="272.097,-33.9733 281.166,-28.495 270.66,-27.1224 272.097,-33.9733"/>
<text text-anchor="middle" x="247.5" y="-42.4" font-family="arial" font-size="12.00">0.333</text>
</g>
<!-- 6 -->
<g id="node6" class="node"><title>6</title>
<ellipse fill="powderblue" stroke="black" cx="402" cy="-54" rx="18" ry="18"/>
<text text-anchor="middle" x="402" y="-50.9" font-family="arial" font-size="12.00">P5</text>
</g>
<!-- 4&#45;&gt;6 -->
<g id="edge5" class="edge"><title>4&#45;&gt;6</title>
<path fill="none" stroke="black" d="M316.678,-74.8718C332.395,-70.9815 356.2,-65.0891 374.513,-60.5561"/>
<polygon fill="black" stroke="black" points="375.431,-63.9347 384.297,-58.1344 373.749,-57.1397 375.431,-63.9347"/>
<text text-anchor="middle" x="350.5" y="-73.4" font-family="arial" font-size="12.00">0.375</text>
</g>
<!-- 5&#45;&gt;6 -->
<g id="edge6" class="edge"><title>5&#45;&gt;6</title>
<path fill="none" stroke="black" d="M316.678,-29.7888C332.395,-34.3014 356.2,-41.1366 374.513,-46.3949"/>
<polygon fill="black" stroke="black" points="373.72,-49.8084 384.297,-49.2041 375.651,-43.0802 373.72,-49.8084"/>
<text text-anchor="middle" x="350.5" y="-46.4" font-family="arial" font-size="12.00">0.167</text>
</g>
<!-- 7 -->
<g id="node7" class="node"><title>7</title>
<ellipse fill="powderblue" stroke="black" cx="505" cy="-86" rx="18" ry="18"/>
<text text-anchor="middle" x="505" y="-82.9" font-family="arial" font-size="12.00">P6</text>
</g>
<!-- 6&#45;&gt;7 -->
<g id="edge7" class="edge"><title>6&#45;&gt;7</title>
<path fill="none" stroke="black" d="M419.678,-59.2841C435.562,-64.3168 459.709,-71.9671 478.098,-77.7933"/>
<polygon fill="black" stroke="black" points="477.042,-81.1303 487.632,-80.8142 479.156,-74.4572 477.042,-81.1303"/>
<text text-anchor="middle" x="453.5" y="-77.4" font-family="arial" font-size="12.00">0.25</text>
</g>
<!-- 8 -->
<g id="node8" class="node"><title>8</title>
<ellipse fill="powderblue" stroke="black" cx="505" cy="-32" rx="18" ry="18"/>
<text text-anchor="middle" x="505" y="-28.9" font-family="arial" font-size="12.00">P7</text>
</g>
<!-- 6&#45;&gt;8 -->
<g id="edge8" class="edge"><title>6&#45;&gt;8</title>
<path fill="none" stroke="black" d="M419.723,-50.1215C425.507,-48.7948 432.035,-47.3144 438,-46 450.917,-43.154 465.28,-40.0947 477.301,-37.5641"/>
<polygon fill="black" stroke="black" points="478.097,-40.9733 487.166,-35.495 476.66,-34.1224 478.097,-40.9733"/>
<text text-anchor="middle" x="453.5" y="-49.4" font-family="arial" font-size="12.00">0.188</text>
</g>
<!-- 9 -->
<g id="node9" class="node"><title>9</title>
<ellipse fill="powderblue" stroke="black" cx="608" cy="-61" rx="18" ry="18"/>
<text text-anchor="middle" x="608" y="-57.9" font-family="arial" font-size="12.00">P8</text>
</g>
<!-- 7&#45;&gt;9 -->
<g id="edge9" class="edge"><title>7&#45;&gt;9</title>
<path fill="none" stroke="black" d="M522.678,-81.8718C538.395,-77.9815 562.2,-72.0891 580.513,-67.5561"/>
<polygon fill="black" stroke="black" points="581.431,-70.9347 590.297,-65.1344 579.749,-64.1397 581.431,-70.9347"/>
<text text-anchor="middle" x="556.5" y="-80.4" font-family="arial" font-size="12.00">0.125</text>
</g>
<!-- 8&#45;&gt;9 -->
<g id="edge10" class="edge"><title>8&#45;&gt;9</title>
<path fill="none" stroke="black" d="M522.678,-36.7888C538.395,-41.3014 562.2,-48.1366 580.513,-53.3949"/>
<polygon fill="black" stroke="black" points="579.72,-56.8084 590.297,-56.2041 581.651,-50.0802 579.72,-56.8084"/>
<text text-anchor="middle" x="556.5" y="-53.4" font-family="arial" font-size="12.00">0.156</text>
</g>
<!-- 11 -->
<g id="node11" class="node"><title>11</title>
<ellipse fill="darksalmon" stroke="black" cx="717" cy="-61" rx="18" ry="18"/>
<text text-anchor="middle" x="717" y="-57.9" font-family="arial" font-size="12.00">Sink</text>
</g>
<!-- 9&#45;&gt;11 -->
<g id="edge13" class="edge"><title>9&#45;&gt;11</title>
<path fill="none" stroke="black" d="M626.191,-61C643.039,-61 668.982,-61 688.661,-61"/>
<polygon fill="black" stroke="black" points="688.851,-64.5001 698.851,-61 688.851,-57.5001 688.851,-64.5001"/>
<text text-anchor="middle" x="662.5" y="-64.4" font-family="arial" font-size="12.00">0.0312</text>
</g>
<!-- 10 -->
<g id="node10" class="node"><title>10</title>
<ellipse fill="forestgreen" stroke="black" cx="18" cy="-44" rx="18" ry="18"/>
<text text-anchor="middle" x="18" y="-41.5" font-family="arial" font-size="10.00">Source</text>
</g>
<!-- 10&#45;&gt;1 -->
<g id="edge12" class="edge"><title>10&#45;&gt;1</title>
<path fill="none" stroke="black" d="M35.364,-49.2666C47.8803,-53.2948 65.387,-58.9292 79.84,-63.5807"/>
<polygon fill="black" stroke="black" points="79.1179,-67.025 89.7093,-66.757 81.2625,-60.3616 79.1179,-67.025"/>
<text text-anchor="middle" x="62.5" y="-63.4" font-family="arial" font-size="12.00">1.0</text>
</g>
<!-- 10&#45;&gt;2 -->
<g id="edge11" class="edge"><title>10&#45;&gt;2</title>
<path fill="none" stroke="black" d="M35.3072,-38.1545C41.1726,-36.1195 47.857,-33.8777 54,-32 62.1725,-29.5019 71.1384,-27.0029 79.2891,-24.8221"/>
<polygon fill="black" stroke="black" points="80.2752,-28.1819 89.0564,-22.254 78.4951,-21.412 80.2752,-28.1819"/>
<text text-anchor="middle" x="62.5" y="-35.4" font-family="arial" font-size="12.00">1.0</text>
</g>
</g>
</svg>
