<?xml version="1.0" encoding="UTF-8" standalone="no"?>
<!DOCTYPE svg PUBLIC "-//W3C//DTD SVG 1.1//EN"
 "http://www.w3.org/Graphics/SVG/1.1/DTD/svg11.dtd">
<!-- Generated by graphviz version 2.38.0 (20140413.2041)
 -->
<!-- Title: %3 Pages: 1 -->
<svg width="741pt" height="152pt"
 viewBox="0.00 0.00 741.00 152.00" xmlns="http://www.w3.org/2000/svg" xmlns:xlink="http://www.w3.org/1999/xlink">
<g id="graph0" class="graph" transform="scale(1 1) rotate(0) translate(4 148)">
<title>%3</title>
<polygon fill="white" stroke="none" points="-4,4 -4,-148 737,-148 737,4 -4,4"/>
<!-- 1 -->
<g id="node1" class="node"><title>1</title>
<ellipse fill="powderblue" stroke="black" cx="107" cy="-65" rx="18" ry="18"/>
<text text-anchor="middle" x="107" y="-61.9" font-family="arial" font-size="12.00">P0</text>
</g>
<!-- 2 -->
<g id="node2" class="node"><title>2</title>
<ellipse fill="powderblue" stroke="black" cx="196" cy="-65" rx="18" ry="18"/>
<text text-anchor="middle" x="196" y="-61.9" font-family="arial" font-size="12.00">P1</text>
</g>
<!-- 1&#45;&gt;2 -->
<g id="edge1" class="edge"><title>1&#45;&gt;2</title>
<path fill="none" stroke="black" d="M125.188,-65C137.343,-65 153.886,-65 167.818,-65"/>
<polygon fill="black" stroke="black" points="167.847,-68.5001 177.847,-65 167.847,-61.5001 167.847,-68.5001"/>
<text text-anchor="middle" x="151.5" y="-68.4" font-family="arial" font-size="12.00">0.5</text>
</g>
<!-- 3 -->
<g id="node3" class="node"><title>3</title>
<ellipse fill="powderblue" stroke="black" cx="292" cy="-65" rx="18" ry="18"/>
<text text-anchor="middle" x="292" y="-61.9" font-family="arial" font-size="12.00">P2</text>
</g>
<!-- 2&#45;&gt;3 -->
<g id="edge2" class="edge"><title>2&#45;&gt;3</title>
<path fill="none" stroke="black" d="M214.241,-65C228.022,-65 247.6,-65 263.535,-65"/>
<polygon fill="black" stroke="black" points="263.868,-68.5001 273.868,-65 263.868,-61.5001 263.868,-68.5001"/>
<text text-anchor="middle" x="244" y="-68.4" font-family="arial" font-size="12.00">0.25</text>
</g>
<!-- 4 -->
<g id="node4" class="node"><title>4</title>
<ellipse fill="powderblue" stroke="black" cx="388" cy="-97" rx="18" ry="18"/>
<text text-anchor="middle" x="388" y="-93.9" font-family="arial" font-size="12.00">P3</text>
</g>
<!-- 3&#45;&gt;4 -->
<g id="edge3" class="edge"><title>3&#45;&gt;4</title>
<path fill="none" stroke="black" d="M309.374,-70.574C323.661,-75.4379 344.637,-82.5786 361.183,-88.2114"/>
<polygon fill="black" stroke="black" points="360.22,-91.5805 370.814,-91.4899 362.476,-84.9539 360.22,-91.5805"/>
<text text-anchor="middle" x="340" y="-87.4" font-family="arial" font-size="12.00">0.25</text>
</g>
<!-- 5 -->
<g id="node5" class="node"><title>5</title>
<ellipse fill="powderblue" stroke="black" cx="388" cy="-43" rx="18" ry="18"/>
<text text-anchor="middle" x="388" y="-39.9" font-family="arial" font-size="12.00">P4</text>
</g>
<!-- 3&#45;&gt;5 -->
<g id="edge4" class="edge"><title>3&#45;&gt;5</title>
<path fill="none" stroke="black" d="M309.805,-61.0668C323.841,-57.782 344.106,-53.039 360.351,-49.237"/>
<polygon fill="black" stroke="black" points="361.401,-52.5859 370.34,-46.8991 359.806,-45.7701 361.401,-52.5859"/>
<text text-anchor="middle" x="340" y="-60.4" font-family="arial" font-size="12.00">0.25</text>
</g>
<!-- 6 -->
<g id="node6" class="node"><title>6</title>
<ellipse fill="powderblue" stroke="black" cx="497" cy="-72" rx="18" ry="18"/>
<text text-anchor="middle" x="497" y="-68.9" font-family="arial" font-size="12.00">P5</text>
</g>
<!-- 4&#45;&gt;6 -->
<g id="edge5" class="edge"><title>4&#45;&gt;6</title>
<path fill="none" stroke="black" d="M405.719,-93.0938C422.758,-89.1126 449.445,-82.8773 469.392,-78.2168"/>
<polygon fill="black" stroke="black" points="470.457,-81.5623 479.399,-75.8788 468.865,-74.7459 470.457,-81.5623"/>
<text text-anchor="middle" x="442.5" y="-91.4" font-family="arial" font-size="12.00">0.0625</text>
</g>
<!-- 5&#45;&gt;6 -->
<g id="edge6" class="edge"><title>5&#45;&gt;6</title>
<path fill="none" stroke="black" d="M405.719,-47.5312C422.837,-52.1707 449.691,-59.4491 469.667,-64.8631"/>
<polygon fill="black" stroke="black" points="468.831,-68.2627 479.399,-67.5006 470.662,-61.5065 468.831,-68.2627"/>
<text text-anchor="middle" x="442.5" y="-65.4" font-family="arial" font-size="12.00">0.0833</text>
</g>
<!-- 7 -->
<g id="node7" class="node"><title>7</title>
<ellipse fill="powderblue" stroke="black" cx="606" cy="-126" rx="18" ry="18"/>
<text text-anchor="middle" x="606" y="-122.9" font-family="arial" font-size="12.00">P6</text>
</g>
<!-- 6&#45;&gt;7 -->
<g id="edge7" class="edge"><title>6&#45;&gt;7</title>
<path fill="none" stroke="black" d="M513.33,-79.7369C530.89,-88.5988 559.897,-103.238 580.577,-113.675"/>
<polygon fill="black" stroke="black" points="579.193,-116.897 589.698,-118.277 582.347,-110.647 579.193,-116.897"/>
<text text-anchor="middle" x="551.5" y="-109.4" font-family="arial" font-size="12.00">0.0625</text>
</g>
<!-- 8 -->
<g id="node8" class="node"><title>8</title>
<ellipse fill="powderblue" stroke="black" cx="606" cy="-72" rx="18" ry="18"/>
<text text-anchor="middle" x="606" y="-68.9" font-family="arial" font-size="12.00">P7</text>
</g>
<!-- 6&#45;&gt;8 -->
<g id="edge8" class="edge"><title>6&#45;&gt;8</title>
<path fill="none" stroke="black" d="M515.191,-72C532.039,-72 557.982,-72 577.661,-72"/>
<polygon fill="black" stroke="black" points="577.851,-75.5001 587.851,-72 577.851,-68.5001 577.851,-75.5001"/>
<text text-anchor="middle" x="551.5" y="-75.4" font-family="arial" font-size="12.00">0.0625</text>
</g>
<!-- 9 -->
<g id="node9" class="node"><title>9</title>
<ellipse fill="powderblue" stroke="black" cx="606" cy="-18" rx="18" ry="18"/>
<text text-anchor="middle" x="606" y="-14.9" font-family="arial" font-size="12.00">P8</text>
</g>
<!-- 6&#45;&gt;9 -->
<g id="edge9" class="edge"><title>6&#45;&gt;9</title>
<path fill="none" stroke="black" d="M513.33,-64.2631C530.89,-55.4012 559.897,-40.7623 580.577,-30.3254"/>
<polygon fill="black" stroke="black" points="582.347,-33.3527 589.698,-25.7225 579.193,-27.1034 582.347,-33.3527"/>
<text text-anchor="middle" x="551.5" y="-56.4" font-family="arial" font-size="12.00">0.0312</text>
</g>
<!-- 11 -->
<g id="node11" class="node"><title>11</title>
<ellipse fill="darksalmon" stroke="black" cx="715" cy="-72" rx="18" ry="18"/>
<text text-anchor="middle" x="715" y="-68.9" font-family="arial" font-size="12.00">Sink</text>
</g>
<!-- 7&#45;&gt;11 -->
<g id="edge13" class="edge"><title>7&#45;&gt;11</title>
<path fill="none" stroke="black" d="M622.33,-118.263C639.89,-109.401 668.897,-94.7623 689.577,-84.3254"/>
<polygon fill="black" stroke="black" points="691.347,-87.3527 698.698,-79.7225 688.193,-81.1034 691.347,-87.3527"/>
<text text-anchor="middle" x="660.5" y="-109.4" font-family="arial" font-size="12.00">0.0312</text>
</g>
<!-- 8&#45;&gt;11 -->
<g id="edge12" class="edge"><title>8&#45;&gt;11</title>
<path fill="none" stroke="black" d="M624.191,-72C641.039,-72 666.982,-72 686.661,-72"/>
<polygon fill="black" stroke="black" points="686.851,-75.5001 696.851,-72 686.851,-68.5001 686.851,-75.5001"/>
<text text-anchor="middle" x="660.5" y="-75.4" font-family="arial" font-size="12.00">0.05</text>
</g>
<!-- 9&#45;&gt;11 -->
<g id="edge11" class="edge"><title>9&#45;&gt;11</title>
<path fill="none" stroke="black" d="M622.33,-25.7369C639.89,-34.5988 668.897,-49.2377 689.577,-59.6746"/>
<polygon fill="black" stroke="black" points="688.193,-62.8966 698.698,-64.2775 691.347,-56.6473 688.193,-62.8966"/>
<text text-anchor="middle" x="660.5" y="-56.4" font-family="arial" font-size="12.00">0.0312</text>
</g>
<!-- 10 -->
<g id="node10" class="node"><title>10</title>
<ellipse fill="forestgreen" stroke="black" cx="18" cy="-65" rx="18" ry="18"/>
<text text-anchor="middle" x="18" y="-62.5" font-family="arial" font-size="10.00">Source</text>
</g>
<!-- 10&#45;&gt;1 -->
<g id="edge10" class="edge"><title>10&#45;&gt;1</title>
<path fill="none" stroke="black" d="M36.1884,-65C48.3426,-65 64.8865,-65 78.8185,-65"/>
<polygon fill="black" stroke="black" points="78.8473,-68.5001 88.8473,-65 78.8473,-61.5001 78.8473,-68.5001"/>
<text text-anchor="middle" x="62.5" y="-68.4" font-family="arial" font-size="12.00">1.0</text>
</g>
</g>
</svg>
