<?xml version="1.0" encoding="UTF-8" standalone="no"?>
<!DOCTYPE svg PUBLIC "-//W3C//DTD SVG 1.1//EN"
 "http://www.w3.org/Graphics/SVG/1.1/DTD/svg11.dtd">
<!-- Generated by graphviz version 2.38.0 (20140413.2041)
 -->
<!-- Title: %3 Pages: 1 -->
<svg width="784pt" height="116pt"
 viewBox="0.00 0.00 784.00 116.00" xmlns="http://www.w3.org/2000/svg" xmlns:xlink="http://www.w3.org/1999/xlink">
<g id="graph0" class="graph" transform="scale(1 1) rotate(0) translate(4 112)">
<title>%3</title>
<polygon fill="white" stroke="none" points="-4,4 -4,-112 780,-112 780,4 -4,4"/>
<!-- 1 -->
<g id="node1" class="node"><title>1</title>
<ellipse fill="powderblue" stroke="black" cx="107" cy="-40" rx="18" ry="18"/>
<text text-anchor="middle" x="107" y="-36.9" font-family="arial" font-size="12.00">P0</text>
</g>
<!-- 2 -->
<g id="node2" class="node"><title>2</title>
<ellipse fill="powderblue" stroke="black" cx="203" cy="-40" rx="18" ry="18"/>
<text text-anchor="middle" x="203" y="-36.9" font-family="arial" font-size="12.00">P1</text>
</g>
<!-- 1&#45;&gt;2 -->
<g id="edge1" class="edge"><title>1&#45;&gt;2</title>
<path fill="none" stroke="black" d="M125.241,-40C139.022,-40 158.6,-40 174.535,-40"/>
<polygon fill="black" stroke="black" points="174.868,-43.5001 184.868,-40 174.868,-36.5001 174.868,-43.5001"/>
<text text-anchor="middle" x="155" y="-43.4" font-family="arial" font-size="12.00">0.25</text>
</g>
<!-- 3 -->
<g id="node3" class="node"><title>3</title>
<ellipse fill="powderblue" stroke="black" cx="299" cy="-40" rx="18" ry="18"/>
<text text-anchor="middle" x="299" y="-36.9" font-family="arial" font-size="12.00">P2</text>
</g>
<!-- 2&#45;&gt;3 -->
<g id="edge2" class="edge"><title>2&#45;&gt;3</title>
<path fill="none" stroke="black" d="M221.241,-40C235.022,-40 254.6,-40 270.535,-40"/>
<polygon fill="black" stroke="black" points="270.868,-43.5001 280.868,-40 270.868,-36.5001 270.868,-43.5001"/>
<text text-anchor="middle" x="251" y="-43.4" font-family="arial" font-size="12.00">0.25</text>
</g>
<!-- 4 -->
<g id="node4" class="node"><title>4</title>
<ellipse fill="powderblue" stroke="black" cx="395" cy="-40" rx="18" ry="18"/>
<text text-anchor="middle" x="395" y="-36.9" font-family="arial" font-size="12.00">P3</text>
</g>
<!-- 3&#45;&gt;4 -->
<g id="edge3" class="edge"><title>3&#45;&gt;4</title>
<path fill="none" stroke="black" d="M317.241,-40C331.022,-40 350.6,-40 366.535,-40"/>
<polygon fill="black" stroke="black" points="366.868,-43.5001 376.868,-40 366.868,-36.5001 366.868,-43.5001"/>
<text text-anchor="middle" x="347" y="-43.4" font-family="arial" font-size="12.00">0.25</text>
</g>
<!-- 5 -->
<g id="node5" class="node"><title>5</title>
<ellipse fill="powderblue" stroke="black" cx="484" cy="-72" rx="18" ry="18"/>
<text text-anchor="middle" x="484" y="-68.9" font-family="arial" font-size="12.00">P4</text>
</g>
<!-- 4&#45;&gt;5 -->
<g id="edge4" class="edge"><title>4&#45;&gt;5</title>
<path fill="none" stroke="black" d="M412.364,-46.019C425.002,-50.6673 442.727,-57.1871 457.26,-62.5325"/>
<polygon fill="black" stroke="black" points="456.116,-65.8408 466.709,-66.008 458.532,-59.2711 456.116,-65.8408"/>
<text text-anchor="middle" x="439.5" y="-61.4" font-family="arial" font-size="12.00">1.0</text>
</g>
<!-- 6 -->
<g id="node6" class="node"><title>6</title>
<ellipse fill="powderblue" stroke="black" cx="484" cy="-18" rx="18" ry="18"/>
<text text-anchor="middle" x="484" y="-14.9" font-family="arial" font-size="12.00">P5</text>
</g>
<!-- 4&#45;&gt;6 -->
<g id="edge5" class="edge"><title>4&#45;&gt;6</title>
<path fill="none" stroke="black" d="M412.774,-35.7582C425.171,-32.6234 442.296,-28.293 456.531,-24.6933"/>
<polygon fill="black" stroke="black" points="457.44,-28.0736 466.277,-22.2288 455.724,-21.2872 457.44,-28.0736"/>
<text text-anchor="middle" x="439.5" y="-34.4" font-family="arial" font-size="12.00">0.5</text>
</g>
<!-- 7 -->
<g id="node7" class="node"><title>7</title>
<ellipse fill="powderblue" stroke="black" cx="573" cy="-36" rx="18" ry="18"/>
<text text-anchor="middle" x="573" y="-32.9" font-family="arial" font-size="12.00">P6</text>
</g>
<!-- 5&#45;&gt;7 -->
<g id="edge6" class="edge"><title>5&#45;&gt;7</title>
<path fill="none" stroke="black" d="M500.957,-65.397C513.711,-60.1194 531.832,-52.6211 546.58,-46.5186"/>
<polygon fill="black" stroke="black" points="548.242,-49.6187 556.144,-42.5611 545.566,-43.1506 548.242,-49.6187"/>
<text text-anchor="middle" x="528.5" y="-60.4" font-family="arial" font-size="12.00">0.6</text>
</g>
<!-- 8 -->
<g id="node8" class="node"><title>8</title>
<ellipse fill="powderblue" stroke="black" cx="573" cy="-90" rx="18" ry="18"/>
<text text-anchor="middle" x="573" y="-86.9" font-family="arial" font-size="12.00">P7</text>
</g>
<!-- 5&#45;&gt;8 -->
<g id="edge8" class="edge"><title>5&#45;&gt;8</title>
<path fill="none" stroke="black" d="M501.774,-75.4706C514.051,-78.0105 530.964,-81.5098 545.116,-84.4378"/>
<polygon fill="black" stroke="black" points="544.775,-87.9414 555.277,-86.5401 546.194,-81.0865 544.775,-87.9414"/>
<text text-anchor="middle" x="528.5" y="-85.4" font-family="arial" font-size="12.00">1.5</text>
</g>
<!-- 6&#45;&gt;7 -->
<g id="edge7" class="edge"><title>6&#45;&gt;7</title>
<path fill="none" stroke="black" d="M502.096,-16.4962C512.355,-16.0439 525.586,-16.2589 537,-19 540.699,-19.8883 544.464,-21.2084 548.087,-22.7273"/>
<polygon fill="black" stroke="black" points="546.669,-25.9283 557.204,-27.0524 549.669,-19.6039 546.669,-25.9283"/>
<text text-anchor="middle" x="528.5" y="-22.4" font-family="arial" font-size="12.00">0.5</text>
</g>
<!-- 9 -->
<g id="node9" class="node"><title>9</title>
<ellipse fill="powderblue" stroke="black" cx="662" cy="-65" rx="18" ry="18"/>
<text text-anchor="middle" x="662" y="-61.9" font-family="arial" font-size="12.00">P8</text>
</g>
<!-- 7&#45;&gt;9 -->
<g id="edge9" class="edge"><title>7&#45;&gt;9</title>
<path fill="none" stroke="black" d="M590.364,-41.4547C602.88,-45.6268 620.387,-51.4623 634.84,-56.28"/>
<polygon fill="black" stroke="black" points="634.116,-59.7278 644.709,-59.5698 636.329,-53.087 634.116,-59.7278"/>
<text text-anchor="middle" x="617.5" y="-56.4" font-family="arial" font-size="12.00">1.0</text>
</g>
<!-- 8&#45;&gt;9 -->
<g id="edge10" class="edge"><title>8&#45;&gt;9</title>
<path fill="none" stroke="black" d="M590.774,-85.1797C603.251,-81.5946 620.516,-76.6334 634.805,-72.5274"/>
<polygon fill="black" stroke="black" points="635.928,-75.8464 644.572,-69.7207 633.994,-69.1187 635.928,-75.8464"/>
<text text-anchor="middle" x="617.5" y="-82.4" font-family="arial" font-size="12.00">0.3</text>
</g>
<!-- 11 -->
<g id="node11" class="node"><title>11</title>
<ellipse fill="darksalmon" stroke="black" cx="758" cy="-65" rx="18" ry="18"/>
<text text-anchor="middle" x="758" y="-61.9" font-family="arial" font-size="12.00">Sink</text>
</g>
<!-- 9&#45;&gt;11 -->
<g id="edge12" class="edge"><title>9&#45;&gt;11</title>
<path fill="none" stroke="black" d="M680.241,-65C694.022,-65 713.6,-65 729.535,-65"/>
<polygon fill="black" stroke="black" points="729.868,-68.5001 739.868,-65 729.868,-61.5001 729.868,-68.5001"/>
<text text-anchor="middle" x="710" y="-68.4" font-family="arial" font-size="12.00">0.15</text>
</g>
<!-- 10 -->
<g id="node10" class="node"><title>10</title>
<ellipse fill="forestgreen" stroke="black" cx="18" cy="-40" rx="18" ry="18"/>
<text text-anchor="middle" x="18" y="-37.5" font-family="arial" font-size="10.00">Source</text>
</g>
<!-- 10&#45;&gt;1 -->
<g id="edge11" class="edge"><title>10&#45;&gt;1</title>
<path fill="none" stroke="black" d="M36.1884,-40C48.3426,-40 64.8865,-40 78.8185,-40"/>
<polygon fill="black" stroke="black" points="78.8473,-43.5001 88.8473,-40 78.8473,-36.5001 78.8473,-43.5001"/>
<text text-anchor="middle" x="62.5" y="-43.4" font-family="arial" font-size="12.00">1.0</text>
</g>
</g>
</svg>
