<?xml version="1.0" encoding="UTF-8" standalone="no"?>
<!DOCTYPE svg PUBLIC "-//W3C//DTD SVG 1.1//EN"
 "http://www.w3.org/Graphics/SVG/1.1/DTD/svg11.dtd">
<!-- Generated by graphviz version 2.38.0 (20140413.2041)
 -->
<!-- Title: %3 Pages: 1 -->
<svg width="716pt" height="116pt"
 viewBox="0.00 0.00 716.00 116.00" xmlns="http://www.w3.org/2000/svg" xmlns:xlink="http://www.w3.org/1999/xlink">
<g id="graph0" class="graph" transform="scale(1 1) rotate(0) translate(4 112)">
<title>%3</title>
<polygon fill="white" stroke="none" points="-4,4 -4,-112 712,-112 712,4 -4,4"/>
<!-- 1 -->
<g id="node1" class="node"><title>1</title>
<ellipse fill="powderblue" stroke="black" cx="107" cy="-58" rx="18" ry="18"/>
<text text-anchor="middle" x="107" y="-54.9" font-family="arial" font-size="12.00">P0</text>
</g>
<!-- 2 -->
<g id="node2" class="node"><title>2</title>
<ellipse fill="powderblue" stroke="black" cx="203" cy="-58" rx="18" ry="18"/>
<text text-anchor="middle" x="203" y="-54.9" font-family="arial" font-size="12.00">P1</text>
</g>
<!-- 1&#45;&gt;2 -->
<g id="edge1" class="edge"><title>1&#45;&gt;2</title>
<path fill="none" stroke="black" d="M125.241,-58C139.022,-58 158.6,-58 174.535,-58"/>
<polygon fill="black" stroke="black" points="174.868,-61.5001 184.868,-58 174.868,-54.5001 174.868,-61.5001"/>
<text text-anchor="middle" x="155" y="-61.4" font-family="arial" font-size="12.00">0.75</text>
</g>
<!-- 3 -->
<g id="node3" class="node"><title>3</title>
<ellipse fill="powderblue" stroke="black" cx="299" cy="-90" rx="18" ry="18"/>
<text text-anchor="middle" x="299" y="-86.9" font-family="arial" font-size="12.00">P2</text>
</g>
<!-- 2&#45;&gt;3 -->
<g id="edge2" class="edge"><title>2&#45;&gt;3</title>
<path fill="none" stroke="black" d="M220.374,-63.574C234.661,-68.4379 255.637,-75.5786 272.183,-81.2114"/>
<polygon fill="black" stroke="black" points="271.22,-84.5805 281.814,-84.4899 273.476,-77.9539 271.22,-84.5805"/>
<text text-anchor="middle" x="251" y="-80.4" font-family="arial" font-size="12.00">0.75</text>
</g>
<!-- 4 -->
<g id="node4" class="node"><title>4</title>
<ellipse fill="powderblue" stroke="black" cx="299" cy="-36" rx="18" ry="18"/>
<text text-anchor="middle" x="299" y="-32.9" font-family="arial" font-size="12.00">P3</text>
</g>
<!-- 2&#45;&gt;4 -->
<g id="edge3" class="edge"><title>2&#45;&gt;4</title>
<path fill="none" stroke="black" d="M220.805,-54.0668C234.841,-50.782 255.106,-46.039 271.351,-42.237"/>
<polygon fill="black" stroke="black" points="272.401,-45.5859 281.34,-39.8991 270.806,-38.7701 272.401,-45.5859"/>
<text text-anchor="middle" x="251" y="-53.4" font-family="arial" font-size="12.00">0.75</text>
</g>
<!-- 6 -->
<g id="node6" class="node"><title>6</title>
<ellipse fill="powderblue" stroke="black" cx="402" cy="-90" rx="18" ry="18"/>
<text text-anchor="middle" x="402" y="-86.9" font-family="arial" font-size="12.00">P5</text>
</g>
<!-- 3&#45;&gt;6 -->
<g id="edge5" class="edge"><title>3&#45;&gt;6</title>
<path fill="none" stroke="black" d="M317.133,-90C332.586,-90 355.584,-90 373.591,-90"/>
<polygon fill="black" stroke="black" points="373.783,-93.5001 383.783,-90 373.783,-86.5001 373.783,-93.5001"/>
<text text-anchor="middle" x="350.5" y="-93.4" font-family="arial" font-size="12.00">1.0</text>
</g>
<!-- 5 -->
<g id="node5" class="node"><title>5</title>
<ellipse fill="powderblue" stroke="black" cx="402" cy="-36" rx="18" ry="18"/>
<text text-anchor="middle" x="402" y="-32.9" font-family="arial" font-size="12.00">P4</text>
</g>
<!-- 4&#45;&gt;5 -->
<g id="edge4" class="edge"><title>4&#45;&gt;5</title>
<path fill="none" stroke="black" d="M317.133,-36C332.586,-36 355.584,-36 373.591,-36"/>
<polygon fill="black" stroke="black" points="373.783,-39.5001 383.783,-36 373.783,-32.5001 373.783,-39.5001"/>
<text text-anchor="middle" x="350.5" y="-39.4" font-family="arial" font-size="12.00">0.375</text>
</g>
<!-- 7 -->
<g id="node7" class="node"><title>7</title>
<ellipse fill="powderblue" stroke="black" cx="505" cy="-72" rx="18" ry="18"/>
<text text-anchor="middle" x="505" y="-68.9" font-family="arial" font-size="12.00">P6</text>
</g>
<!-- 5&#45;&gt;7 -->
<g id="edge6" class="edge"><title>5&#45;&gt;7</title>
<path fill="none" stroke="black" d="M419.227,-41.784C435.13,-47.4523 459.618,-56.1808 478.194,-62.8017"/>
<polygon fill="black" stroke="black" points="477.218,-66.1696 487.813,-66.2303 479.568,-59.576 477.218,-66.1696"/>
<text text-anchor="middle" x="453.5" y="-62.4" font-family="arial" font-size="12.00">1.88</text>
</g>
<!-- 8 -->
<g id="node8" class="node"><title>8</title>
<ellipse fill="powderblue" stroke="black" cx="505" cy="-18" rx="18" ry="18"/>
<text text-anchor="middle" x="505" y="-14.9" font-family="arial" font-size="12.00">P7</text>
</g>
<!-- 5&#45;&gt;8 -->
<g id="edge8" class="edge"><title>5&#45;&gt;8</title>
<path fill="none" stroke="black" d="M417.793,-27.0378C423.836,-23.8575 431.034,-20.6579 438,-19 450.462,-16.0341 464.624,-15.4677 476.626,-15.7707"/>
<polygon fill="black" stroke="black" points="476.779,-19.2815 486.93,-16.2496 477.104,-12.289 476.779,-19.2815"/>
<text text-anchor="middle" x="453.5" y="-22.4" font-family="arial" font-size="12.00">0.375</text>
</g>
<!-- 6&#45;&gt;7 -->
<g id="edge7" class="edge"><title>6&#45;&gt;7</title>
<path fill="none" stroke="black" d="M420.133,-86.9465C435.753,-84.1628 459.081,-80.0054 477.172,-76.7813"/>
<polygon fill="black" stroke="black" points="477.889,-80.2087 487.12,-75.0084 476.661,-73.3173 477.889,-80.2087"/>
<text text-anchor="middle" x="453.5" y="-86.4" font-family="arial" font-size="12.00">1.0</text>
</g>
<!-- 9 -->
<g id="node9" class="node"><title>9</title>
<ellipse fill="powderblue" stroke="black" cx="601" cy="-47" rx="18" ry="18"/>
<text text-anchor="middle" x="601" y="-43.9" font-family="arial" font-size="12.00">P8</text>
</g>
<!-- 7&#45;&gt;9 -->
<g id="edge9" class="edge"><title>7&#45;&gt;9</title>
<path fill="none" stroke="black" d="M522.805,-67.5305C536.841,-63.7977 557.106,-58.408 573.351,-54.0874"/>
<polygon fill="black" stroke="black" points="574.576,-57.3835 583.34,-51.4308 572.777,-50.6187 574.576,-57.3835"/>
<text text-anchor="middle" x="553" y="-65.4" font-family="arial" font-size="12.00">2.0</text>
</g>
<!-- 8&#45;&gt;9 -->
<g id="edge10" class="edge"><title>8&#45;&gt;9</title>
<path fill="none" stroke="black" d="M522.374,-23.0514C536.574,-27.4324 557.382,-33.8517 573.88,-38.9418"/>
<polygon fill="black" stroke="black" points="572.911,-42.3056 583.499,-41.9092 574.975,-35.6166 572.911,-42.3056"/>
<text text-anchor="middle" x="553" y="-39.4" font-family="arial" font-size="12.00">0.75</text>
</g>
<!-- 11 -->
<g id="node11" class="node"><title>11</title>
<ellipse fill="darksalmon" stroke="black" cx="690" cy="-47" rx="18" ry="18"/>
<text text-anchor="middle" x="690" y="-43.9" font-family="arial" font-size="12.00">Sink</text>
</g>
<!-- 9&#45;&gt;11 -->
<g id="edge12" class="edge"><title>9&#45;&gt;11</title>
<path fill="none" stroke="black" d="M619.188,-47C631.343,-47 647.886,-47 661.818,-47"/>
<polygon fill="black" stroke="black" points="661.847,-50.5001 671.847,-47 661.847,-43.5001 661.847,-50.5001"/>
<text text-anchor="middle" x="645.5" y="-50.4" font-family="arial" font-size="12.00">0.4</text>
</g>
<!-- 10 -->
<g id="node10" class="node"><title>10</title>
<ellipse fill="forestgreen" stroke="black" cx="18" cy="-58" rx="18" ry="18"/>
<text text-anchor="middle" x="18" y="-55.5" font-family="arial" font-size="10.00">Source</text>
</g>
<!-- 10&#45;&gt;1 -->
<g id="edge11" class="edge"><title>10&#45;&gt;1</title>
<path fill="none" stroke="black" d="M36.1884,-58C48.3426,-58 64.8865,-58 78.8185,-58"/>
<polygon fill="black" stroke="black" points="78.8473,-61.5001 88.8473,-58 78.8473,-54.5001 78.8473,-61.5001"/>
<text text-anchor="middle" x="62.5" y="-61.4" font-family="arial" font-size="12.00">1.0</text>
</g>
</g>
</svg>
