<?xml version="1.0" encoding="UTF-8" standalone="no"?>
<!DOCTYPE svg PUBLIC "-//W3C//DTD SVG 1.1//EN"
 "http://www.w3.org/Graphics/SVG/1.1/DTD/svg11.dtd">
<!-- Generated by graphviz version 2.38.0 (20140413.2041)
 -->
<!-- Title: %3 Pages: 1 -->
<svg width="776pt" height="116pt"
 viewBox="0.00 0.00 776.00 116.00" xmlns="http://www.w3.org/2000/svg" xmlns:xlink="http://www.w3.org/1999/xlink">
<g id="graph0" class="graph" transform="scale(1 1) rotate(0) translate(4 112)">
<title>%3</title>
<polygon fill="white" stroke="none" points="-4,4 -4,-112 772,-112 772,4 -4,4"/>
<!-- 1 -->
<g id="node1" class="node"><title>1</title>
<ellipse fill="powderblue" stroke="black" cx="107" cy="-40" rx="18" ry="18"/>
<text text-anchor="middle" x="107" y="-36.9" font-family="arial" font-size="12.00">P0</text>
</g>
<!-- 2 -->
<g id="node2" class="node"><title>2</title>
<ellipse fill="powderblue" stroke="black" cx="210" cy="-40" rx="18" ry="18"/>
<text text-anchor="middle" x="210" y="-36.9" font-family="arial" font-size="12.00">P1</text>
</g>
<!-- 1&#45;&gt;2 -->
<g id="edge1" class="edge"><title>1&#45;&gt;2</title>
<path fill="none" stroke="black" d="M125.133,-40C140.586,-40 163.584,-40 181.591,-40"/>
<polygon fill="black" stroke="black" points="181.783,-43.5001 191.783,-40 181.783,-36.5001 181.783,-43.5001"/>
<text text-anchor="middle" x="158.5" y="-43.4" font-family="arial" font-size="12.00">0.667</text>
</g>
<!-- 3 -->
<g id="node3" class="node"><title>3</title>
<ellipse fill="powderblue" stroke="black" cx="313" cy="-40" rx="18" ry="18"/>
<text text-anchor="middle" x="313" y="-36.9" font-family="arial" font-size="12.00">P2</text>
</g>
<!-- 2&#45;&gt;3 -->
<g id="edge2" class="edge"><title>2&#45;&gt;3</title>
<path fill="none" stroke="black" d="M228.133,-40C243.586,-40 266.584,-40 284.591,-40"/>
<polygon fill="black" stroke="black" points="284.783,-43.5001 294.783,-40 284.783,-36.5001 284.783,-43.5001"/>
<text text-anchor="middle" x="261.5" y="-43.4" font-family="arial" font-size="12.00">0.667</text>
</g>
<!-- 4 -->
<g id="node4" class="node"><title>4</title>
<ellipse fill="powderblue" stroke="black" cx="422" cy="-72" rx="18" ry="18"/>
<text text-anchor="middle" x="422" y="-68.9" font-family="arial" font-size="12.00">P3</text>
</g>
<!-- 3&#45;&gt;4 -->
<g id="edge3" class="edge"><title>3&#45;&gt;4</title>
<path fill="none" stroke="black" d="M330.719,-45C347.837,-50.1194 374.691,-58.1507 394.667,-64.1248"/>
<polygon fill="black" stroke="black" points="393.815,-67.523 404.399,-67.0351 395.821,-60.8165 393.815,-67.523"/>
<text text-anchor="middle" x="367.5" y="-63.4" font-family="arial" font-size="12.00">0.0952</text>
</g>
<!-- 5 -->
<g id="node5" class="node"><title>5</title>
<ellipse fill="powderblue" stroke="black" cx="422" cy="-18" rx="18" ry="18"/>
<text text-anchor="middle" x="422" y="-14.9" font-family="arial" font-size="12.00">P4</text>
</g>
<!-- 3&#45;&gt;5 -->
<g id="edge4" class="edge"><title>3&#45;&gt;5</title>
<path fill="none" stroke="black" d="M330.71,-36.0636C336.494,-34.7322 343.024,-33.2637 349,-32 363.844,-28.8612 380.467,-25.6115 393.998,-23.034"/>
<polygon fill="black" stroke="black" points="394.917,-26.4223 404.093,-21.126 393.617,-19.5441 394.917,-26.4223"/>
<text text-anchor="middle" x="367.5" y="-35.4" font-family="arial" font-size="12.00">0.667</text>
</g>
<!-- 6 -->
<g id="node6" class="node"><title>6</title>
<ellipse fill="powderblue" stroke="black" cx="525" cy="-27" rx="18" ry="18"/>
<text text-anchor="middle" x="525" y="-23.9" font-family="arial" font-size="12.00">P5</text>
</g>
<!-- 4&#45;&gt;6 -->
<g id="edge5" class="edge"><title>4&#45;&gt;6</title>
<path fill="none" stroke="black" d="M438.781,-64.9688C454.939,-57.7697 480.288,-46.4756 499.144,-38.0744"/>
<polygon fill="black" stroke="black" points="500.62,-41.2487 508.33,-33.9819 497.771,-34.8547 500.62,-41.2487"/>
<text text-anchor="middle" x="473.5" y="-59.4" font-family="arial" font-size="12.00">0.019</text>
</g>
<!-- 7 -->
<g id="node7" class="node"><title>7</title>
<ellipse fill="powderblue" stroke="black" cx="525" cy="-90" rx="18" ry="18"/>
<text text-anchor="middle" x="525" y="-86.9" font-family="arial" font-size="12.00">P6</text>
</g>
<!-- 4&#45;&gt;7 -->
<g id="edge7" class="edge"><title>4&#45;&gt;7</title>
<path fill="none" stroke="black" d="M440.133,-75.0535C455.753,-77.8372 479.081,-81.9946 497.172,-85.2187"/>
<polygon fill="black" stroke="black" points="496.661,-88.6827 507.12,-86.9916 497.889,-81.7913 496.661,-88.6827"/>
<text text-anchor="middle" x="473.5" y="-86.4" font-family="arial" font-size="12.00">0.286</text>
</g>
<!-- 5&#45;&gt;6 -->
<g id="edge6" class="edge"><title>5&#45;&gt;6</title>
<path fill="none" stroke="black" d="M440.16,-17.2797C453.52,-16.9552 472.503,-17.0119 489,-19 491.748,-19.3312 494.596,-19.7881 497.426,-20.3173"/>
<polygon fill="black" stroke="black" points="496.879,-23.7795 507.391,-22.4547 498.347,-16.9352 496.879,-23.7795"/>
<text text-anchor="middle" x="473.5" y="-22.4" font-family="arial" font-size="12.00">0.667</text>
</g>
<!-- 8 -->
<g id="node8" class="node"><title>8</title>
<ellipse fill="powderblue" stroke="black" cx="641" cy="-72" rx="18" ry="18"/>
<text text-anchor="middle" x="641" y="-68.9" font-family="arial" font-size="12.00">P7</text>
</g>
<!-- 6&#45;&gt;8 -->
<g id="edge8" class="edge"><title>6&#45;&gt;8</title>
<path fill="none" stroke="black" d="M542.333,-33.4474C561.233,-40.9079 592.58,-53.2815 614.653,-61.9947"/>
<polygon fill="black" stroke="black" points="613.478,-65.2935 624.064,-65.7096 616.048,-58.7824 613.478,-65.2935"/>
<text text-anchor="middle" x="583" y="-60.4" font-family="arial" font-size="12.00">0.00635</text>
</g>
<!-- 9 -->
<g id="node9" class="node"><title>9</title>
<ellipse fill="powderblue" stroke="black" cx="641" cy="-18" rx="18" ry="18"/>
<text text-anchor="middle" x="641" y="-14.9" font-family="arial" font-size="12.00">P8</text>
</g>
<!-- 6&#45;&gt;9 -->
<g id="edge10" class="edge"><title>6&#45;&gt;9</title>
<path fill="none" stroke="black" d="M542.608,-22.446C548.384,-21.0652 554.935,-19.7233 561,-19 578.097,-16.9612 597.422,-16.6815 612.68,-16.9258"/>
<polygon fill="black" stroke="black" points="612.897,-20.4322 622.98,-17.1788 613.069,-13.4343 612.897,-20.4322"/>
<text text-anchor="middle" x="583" y="-22.4" font-family="arial" font-size="12.00">0.667</text>
</g>
<!-- 7&#45;&gt;8 -->
<g id="edge9" class="edge"><title>7&#45;&gt;8</title>
<path fill="none" stroke="black" d="M542.821,-87.344C561.344,-84.4194 591.383,-79.6763 613.166,-76.2369"/>
<polygon fill="black" stroke="black" points="613.778,-79.6837 623.11,-74.6669 612.686,-72.7694 613.778,-79.6837"/>
<text text-anchor="middle" x="583" y="-87.4" font-family="arial" font-size="12.00">0.19</text>
</g>
<!-- 11 -->
<g id="node11" class="node"><title>11</title>
<ellipse fill="darksalmon" stroke="black" cx="750" cy="-47" rx="18" ry="18"/>
<text text-anchor="middle" x="750" y="-43.9" font-family="arial" font-size="12.00">Sink</text>
</g>
<!-- 8&#45;&gt;11 -->
<g id="edge13" class="edge"><title>8&#45;&gt;11</title>
<path fill="none" stroke="black" d="M658.719,-68.0938C675.758,-64.1126 702.445,-57.8773 722.392,-53.2168"/>
<polygon fill="black" stroke="black" points="723.457,-56.5623 732.399,-50.8788 721.865,-49.7459 723.457,-56.5623"/>
<text text-anchor="middle" x="695.5" y="-66.4" font-family="arial" font-size="12.00">0.0127</text>
</g>
<!-- 9&#45;&gt;11 -->
<g id="edge12" class="edge"><title>9&#45;&gt;11</title>
<path fill="none" stroke="black" d="M658.719,-22.5312C675.837,-27.1707 702.691,-34.4491 722.667,-39.8631"/>
<polygon fill="black" stroke="black" points="721.831,-43.2627 732.399,-42.5006 723.662,-36.5065 721.831,-43.2627"/>
<text text-anchor="middle" x="695.5" y="-40.4" font-family="arial" font-size="12.00">2.0</text>
</g>
<!-- 10 -->
<g id="node10" class="node"><title>10</title>
<ellipse fill="forestgreen" stroke="black" cx="18" cy="-40" rx="18" ry="18"/>
<text text-anchor="middle" x="18" y="-37.5" font-family="arial" font-size="10.00">Source</text>
</g>
<!-- 10&#45;&gt;1 -->
<g id="edge11" class="edge"><title>10&#45;&gt;1</title>
<path fill="none" stroke="black" d="M36.1884,-40C48.3426,-40 64.8865,-40 78.8185,-40"/>
<polygon fill="black" stroke="black" points="78.8473,-43.5001 88.8473,-40 78.8473,-36.5001 78.8473,-43.5001"/>
<text text-anchor="middle" x="62.5" y="-43.4" font-family="arial" font-size="12.00">1.0</text>
</g>
</g>
</svg>
