<?xml version="1.0" encoding="UTF-8" standalone="no"?>
<!DOCTYPE svg PUBLIC "-//W3C//DTD SVG 1.1//EN"
 "http://www.w3.org/Graphics/SVG/1.1/DTD/svg11.dtd">
<!-- Generated by graphviz version 2.38.0 (20140413.2041)
 -->
<!-- Title: %3 Pages: 1 -->
<svg width="859pt" height="116pt"
 viewBox="0.00 0.00 859.00 116.00" xmlns="http://www.w3.org/2000/svg" xmlns:xlink="http://www.w3.org/1999/xlink">
<g id="graph0" class="graph" transform="scale(1 1) rotate(0) translate(4 112)">
<title>%3</title>
<polygon fill="white" stroke="none" points="-4,4 -4,-112 855,-112 855,4 -4,4"/>
<!-- 1 -->
<g id="node1" class="node"><title>1</title>
<ellipse fill="powderblue" stroke="black" cx="107" cy="-40" rx="18" ry="18"/>
<text text-anchor="middle" x="107" y="-36.9" font-family="arial" font-size="12.00">P0</text>
</g>
<!-- 2 -->
<g id="node2" class="node"><title>2</title>
<ellipse fill="powderblue" stroke="black" cx="203" cy="-40" rx="18" ry="18"/>
<text text-anchor="middle" x="203" y="-36.9" font-family="arial" font-size="12.00">P1</text>
</g>
<!-- 1&#45;&gt;2 -->
<g id="edge1" class="edge"><title>1&#45;&gt;2</title>
<path fill="none" stroke="black" d="M125.241,-40C139.022,-40 158.6,-40 174.535,-40"/>
<polygon fill="black" stroke="black" points="174.868,-43.5001 184.868,-40 174.868,-36.5001 174.868,-43.5001"/>
<text text-anchor="middle" x="155" y="-43.4" font-family="arial" font-size="12.00">1.33</text>
</g>
<!-- 3 -->
<g id="node3" class="node"><title>3</title>
<ellipse fill="powderblue" stroke="black" cx="306" cy="-40" rx="18" ry="18"/>
<text text-anchor="middle" x="306" y="-36.9" font-family="arial" font-size="12.00">P2</text>
</g>
<!-- 2&#45;&gt;3 -->
<g id="edge2" class="edge"><title>2&#45;&gt;3</title>
<path fill="none" stroke="black" d="M221.133,-40C236.586,-40 259.584,-40 277.591,-40"/>
<polygon fill="black" stroke="black" points="277.783,-43.5001 287.783,-40 277.783,-36.5001 277.783,-43.5001"/>
<text text-anchor="middle" x="254.5" y="-43.4" font-family="arial" font-size="12.00">0.667</text>
</g>
<!-- 4 -->
<g id="node4" class="node"><title>4</title>
<ellipse fill="powderblue" stroke="black" cx="409" cy="-40" rx="18" ry="18"/>
<text text-anchor="middle" x="409" y="-36.9" font-family="arial" font-size="12.00">P3</text>
</g>
<!-- 3&#45;&gt;4 -->
<g id="edge3" class="edge"><title>3&#45;&gt;4</title>
<path fill="none" stroke="black" d="M324.133,-40C339.586,-40 362.584,-40 380.591,-40"/>
<polygon fill="black" stroke="black" points="380.783,-43.5001 390.783,-40 380.783,-36.5001 380.783,-43.5001"/>
<text text-anchor="middle" x="357.5" y="-43.4" font-family="arial" font-size="12.00">0.667</text>
</g>
<!-- 5 -->
<g id="node5" class="node"><title>5</title>
<ellipse fill="powderblue" stroke="black" cx="512" cy="-72" rx="18" ry="18"/>
<text text-anchor="middle" x="512" y="-68.9" font-family="arial" font-size="12.00">P4</text>
</g>
<!-- 4&#45;&gt;5 -->
<g id="edge4" class="edge"><title>4&#45;&gt;5</title>
<path fill="none" stroke="black" d="M426.678,-45.2841C442.562,-50.3168 466.709,-57.9671 485.098,-63.7933"/>
<polygon fill="black" stroke="black" points="484.042,-67.1303 494.632,-66.8142 486.156,-60.4572 484.042,-67.1303"/>
<text text-anchor="middle" x="460.5" y="-63.4" font-family="arial" font-size="12.00">0.333</text>
</g>
<!-- 6 -->
<g id="node6" class="node"><title>6</title>
<ellipse fill="powderblue" stroke="black" cx="512" cy="-18" rx="18" ry="18"/>
<text text-anchor="middle" x="512" y="-14.9" font-family="arial" font-size="12.00">P5</text>
</g>
<!-- 4&#45;&gt;6 -->
<g id="edge5" class="edge"><title>4&#45;&gt;6</title>
<path fill="none" stroke="black" d="M426.723,-36.1215C432.507,-34.7948 439.035,-33.3144 445,-32 457.917,-29.154 472.28,-26.0947 484.301,-23.5641"/>
<polygon fill="black" stroke="black" points="485.097,-26.9733 494.166,-21.495 483.66,-20.1224 485.097,-26.9733"/>
<text text-anchor="middle" x="460.5" y="-35.4" font-family="arial" font-size="12.00">2.0</text>
</g>
<!-- 7 -->
<g id="node7" class="node"><title>7</title>
<ellipse fill="powderblue" stroke="black" cx="615" cy="-36" rx="18" ry="18"/>
<text text-anchor="middle" x="615" y="-32.9" font-family="arial" font-size="12.00">P6</text>
</g>
<!-- 5&#45;&gt;7 -->
<g id="edge6" class="edge"><title>5&#45;&gt;7</title>
<path fill="none" stroke="black" d="M529.227,-66.216C545.13,-60.5477 569.618,-51.8192 588.194,-45.1983"/>
<polygon fill="black" stroke="black" points="589.568,-48.424 597.813,-41.7697 587.218,-41.8304 589.568,-48.424"/>
<text text-anchor="middle" x="563.5" y="-62.4" font-family="arial" font-size="12.00">0.667</text>
</g>
<!-- 8 -->
<g id="node8" class="node"><title>8</title>
<ellipse fill="powderblue" stroke="black" cx="615" cy="-90" rx="18" ry="18"/>
<text text-anchor="middle" x="615" y="-86.9" font-family="arial" font-size="12.00">P7</text>
</g>
<!-- 5&#45;&gt;8 -->
<g id="edge8" class="edge"><title>5&#45;&gt;8</title>
<path fill="none" stroke="black" d="M530.133,-75.0535C545.753,-77.8372 569.081,-81.9946 587.172,-85.2187"/>
<polygon fill="black" stroke="black" points="586.661,-88.6827 597.12,-86.9916 587.889,-81.7913 586.661,-88.6827"/>
<text text-anchor="middle" x="563.5" y="-86.4" font-family="arial" font-size="12.00">0.167</text>
</g>
<!-- 6&#45;&gt;7 -->
<g id="edge7" class="edge"><title>6&#45;&gt;7</title>
<path fill="none" stroke="black" d="M530.07,-16.2496C543.545,-15.3457 562.724,-15.1262 579,-19 582.701,-19.8808 586.467,-21.1966 590.091,-22.7135"/>
<polygon fill="black" stroke="black" points="588.672,-25.9145 599.207,-27.0378 591.672,-19.5899 588.672,-25.9145"/>
<text text-anchor="middle" x="563.5" y="-22.4" font-family="arial" font-size="12.00">4.0</text>
</g>
<!-- 9 -->
<g id="node9" class="node"><title>9</title>
<ellipse fill="powderblue" stroke="black" cx="724" cy="-65" rx="18" ry="18"/>
<text text-anchor="middle" x="724" y="-61.9" font-family="arial" font-size="12.00">P8</text>
</g>
<!-- 7&#45;&gt;9 -->
<g id="edge9" class="edge"><title>7&#45;&gt;9</title>
<path fill="none" stroke="black" d="M632.719,-40.5312C649.837,-45.1707 676.691,-52.4491 696.667,-57.8631"/>
<polygon fill="black" stroke="black" points="695.831,-61.2627 706.399,-60.5006 697.662,-54.5065 695.831,-61.2627"/>
<text text-anchor="middle" x="669.5" y="-57.4" font-family="arial" font-size="12.00">0.222</text>
</g>
<!-- 8&#45;&gt;9 -->
<g id="edge10" class="edge"><title>8&#45;&gt;9</title>
<path fill="none" stroke="black" d="M632.719,-86.0938C649.758,-82.1126 676.445,-75.8773 696.392,-71.2168"/>
<polygon fill="black" stroke="black" points="697.457,-74.5623 706.399,-68.8788 695.865,-67.7459 697.457,-74.5623"/>
<text text-anchor="middle" x="669.5" y="-84.4" font-family="arial" font-size="12.00">0.0556</text>
</g>
<!-- 11 -->
<g id="node11" class="node"><title>11</title>
<ellipse fill="darksalmon" stroke="black" cx="833" cy="-65" rx="18" ry="18"/>
<text text-anchor="middle" x="833" y="-61.9" font-family="arial" font-size="12.00">Sink</text>
</g>
<!-- 9&#45;&gt;11 -->
<g id="edge12" class="edge"><title>9&#45;&gt;11</title>
<path fill="none" stroke="black" d="M742.191,-65C759.039,-65 784.982,-65 804.661,-65"/>
<polygon fill="black" stroke="black" points="804.851,-68.5001 814.851,-65 804.851,-61.5001 804.851,-68.5001"/>
<text text-anchor="middle" x="778.5" y="-68.4" font-family="arial" font-size="12.00">0.0185</text>
</g>
<!-- 10 -->
<g id="node10" class="node"><title>10</title>
<ellipse fill="forestgreen" stroke="black" cx="18" cy="-40" rx="18" ry="18"/>
<text text-anchor="middle" x="18" y="-37.5" font-family="arial" font-size="10.00">Source</text>
</g>
<!-- 10&#45;&gt;1 -->
<g id="edge11" class="edge"><title>10&#45;&gt;1</title>
<path fill="none" stroke="black" d="M36.1884,-40C48.3426,-40 64.8865,-40 78.8185,-40"/>
<polygon fill="black" stroke="black" points="78.8473,-43.5001 88.8473,-40 78.8473,-36.5001 78.8473,-43.5001"/>
<text text-anchor="middle" x="62.5" y="-43.4" font-family="arial" font-size="12.00">1.0</text>
</g>
</g>
</svg>
