<?xml version="1.0" encoding="UTF-8" standalone="no"?>
<!DOCTYPE svg PUBLIC "-//W3C//DTD SVG 1.1//EN"
 "http://www.w3.org/Graphics/SVG/1.1/DTD/svg11.dtd">
<!-- Generated by graphviz version 2.38.0 (20140413.2041)
 -->
<!-- Title: %3 Pages: 1 -->
<svg width="798pt" height="105pt"
 viewBox="0.00 0.00 798.00 105.00" xmlns="http://www.w3.org/2000/svg" xmlns:xlink="http://www.w3.org/1999/xlink">
<g id="graph0" class="graph" transform="scale(1 1) rotate(0) translate(4 101)">
<title>%3</title>
<polygon fill="white" stroke="none" points="-4,4 -4,-101 794,-101 794,4 -4,4"/>
<!-- 1 -->
<g id="node1" class="node"><title>1</title>
<ellipse fill="powderblue" stroke="black" cx="107" cy="-72" rx="18" ry="18"/>
<text text-anchor="middle" x="107" y="-68.9" font-family="arial" font-size="12.00">P0</text>
</g>
<!-- 3 -->
<g id="node3" class="node"><title>3</title>
<ellipse fill="powderblue" stroke="black" cx="196" cy="-47" rx="18" ry="18"/>
<text text-anchor="middle" x="196" y="-43.9" font-family="arial" font-size="12.00">P2</text>
</g>
<!-- 1&#45;&gt;3 -->
<g id="edge1" class="edge"><title>1&#45;&gt;3</title>
<path fill="none" stroke="black" d="M124.774,-67.1797C137.251,-63.5946 154.516,-58.6334 168.805,-54.5274"/>
<polygon fill="black" stroke="black" points="169.928,-57.8464 178.572,-51.7207 167.994,-51.1187 169.928,-57.8464"/>
<text text-anchor="middle" x="151.5" y="-64.4" font-family="arial" font-size="12.00">3.0</text>
</g>
<!-- 2 -->
<g id="node2" class="node"><title>2</title>
<ellipse fill="powderblue" stroke="black" cx="107" cy="-18" rx="18" ry="18"/>
<text text-anchor="middle" x="107" y="-14.9" font-family="arial" font-size="12.00">P1</text>
</g>
<!-- 2&#45;&gt;3 -->
<g id="edge2" class="edge"><title>2&#45;&gt;3</title>
<path fill="none" stroke="black" d="M124.364,-23.4547C136.88,-27.6268 154.387,-33.4623 168.84,-38.28"/>
<polygon fill="black" stroke="black" points="168.116,-41.7278 178.709,-41.5698 170.329,-35.087 168.116,-41.7278"/>
<text text-anchor="middle" x="151.5" y="-38.4" font-family="arial" font-size="12.00">1.5</text>
</g>
<!-- 4 -->
<g id="node4" class="node"><title>4</title>
<ellipse fill="powderblue" stroke="black" cx="292" cy="-47" rx="18" ry="18"/>
<text text-anchor="middle" x="292" y="-43.9" font-family="arial" font-size="12.00">P3</text>
</g>
<!-- 3&#45;&gt;4 -->
<g id="edge3" class="edge"><title>3&#45;&gt;4</title>
<path fill="none" stroke="black" d="M214.241,-47C228.022,-47 247.6,-47 263.535,-47"/>
<polygon fill="black" stroke="black" points="263.868,-50.5001 273.868,-47 263.868,-43.5001 263.868,-50.5001"/>
<text text-anchor="middle" x="244" y="-50.4" font-family="arial" font-size="12.00">0.75</text>
</g>
<!-- 5 -->
<g id="node5" class="node"><title>5</title>
<ellipse fill="powderblue" stroke="black" cx="388" cy="-79" rx="18" ry="18"/>
<text text-anchor="middle" x="388" y="-75.9" font-family="arial" font-size="12.00">P4</text>
</g>
<!-- 4&#45;&gt;5 -->
<g id="edge4" class="edge"><title>4&#45;&gt;5</title>
<path fill="none" stroke="black" d="M309.374,-52.574C323.661,-57.4379 344.637,-64.5786 361.183,-70.2114"/>
<polygon fill="black" stroke="black" points="360.22,-73.5805 370.814,-73.4899 362.476,-66.9539 360.22,-73.5805"/>
<text text-anchor="middle" x="340" y="-69.4" font-family="arial" font-size="12.00">0.75</text>
</g>
<!-- 6 -->
<g id="node6" class="node"><title>6</title>
<ellipse fill="powderblue" stroke="black" cx="388" cy="-25" rx="18" ry="18"/>
<text text-anchor="middle" x="388" y="-21.9" font-family="arial" font-size="12.00">P5</text>
</g>
<!-- 4&#45;&gt;6 -->
<g id="edge5" class="edge"><title>4&#45;&gt;6</title>
<path fill="none" stroke="black" d="M309.805,-43.0668C323.841,-39.782 344.106,-35.039 360.351,-31.237"/>
<polygon fill="black" stroke="black" points="361.401,-34.5859 370.34,-28.8991 359.806,-27.7701 361.401,-34.5859"/>
<text text-anchor="middle" x="340" y="-41.4" font-family="arial" font-size="12.00">1.0</text>
</g>
<!-- 7 -->
<g id="node7" class="node"><title>7</title>
<ellipse fill="powderblue" stroke="black" cx="484" cy="-54" rx="18" ry="18"/>
<text text-anchor="middle" x="484" y="-50.9" font-family="arial" font-size="12.00">P6</text>
</g>
<!-- 5&#45;&gt;7 -->
<g id="edge6" class="edge"><title>5&#45;&gt;7</title>
<path fill="none" stroke="black" d="M405.805,-74.5305C419.841,-70.7977 440.106,-65.408 456.351,-61.0874"/>
<polygon fill="black" stroke="black" points="457.576,-64.3835 466.34,-58.4308 455.777,-57.6187 457.576,-64.3835"/>
<text text-anchor="middle" x="436" y="-72.4" font-family="arial" font-size="12.00">3.75</text>
</g>
<!-- 6&#45;&gt;7 -->
<g id="edge7" class="edge"><title>6&#45;&gt;7</title>
<path fill="none" stroke="black" d="M405.374,-30.0514C419.574,-34.4324 440.382,-40.8517 456.88,-45.9418"/>
<polygon fill="black" stroke="black" points="455.911,-49.3056 466.499,-48.9092 457.975,-42.6166 455.911,-49.3056"/>
<text text-anchor="middle" x="436" y="-45.4" font-family="arial" font-size="12.00">4.0</text>
</g>
<!-- 8 -->
<g id="node8" class="node"><title>8</title>
<ellipse fill="powderblue" stroke="black" cx="580" cy="-54" rx="18" ry="18"/>
<text text-anchor="middle" x="580" y="-50.9" font-family="arial" font-size="12.00">P7</text>
</g>
<!-- 7&#45;&gt;8 -->
<g id="edge8" class="edge"><title>7&#45;&gt;8</title>
<path fill="none" stroke="black" d="M502.241,-54C516.022,-54 535.6,-54 551.535,-54"/>
<polygon fill="black" stroke="black" points="551.868,-57.5001 561.868,-54 551.868,-50.5001 551.868,-57.5001"/>
<text text-anchor="middle" x="532" y="-57.4" font-family="arial" font-size="12.00">3.75</text>
</g>
<!-- 9 -->
<g id="node9" class="node"><title>9</title>
<ellipse fill="powderblue" stroke="black" cx="676" cy="-54" rx="18" ry="18"/>
<text text-anchor="middle" x="676" y="-50.9" font-family="arial" font-size="12.00">P8</text>
</g>
<!-- 8&#45;&gt;9 -->
<g id="edge9" class="edge"><title>8&#45;&gt;9</title>
<path fill="none" stroke="black" d="M598.241,-54C612.022,-54 631.6,-54 647.535,-54"/>
<polygon fill="black" stroke="black" points="647.868,-57.5001 657.868,-54 647.868,-50.5001 647.868,-57.5001"/>
<text text-anchor="middle" x="628" y="-57.4" font-family="arial" font-size="12.00">18.8</text>
</g>
<!-- 11 -->
<g id="node11" class="node"><title>11</title>
<ellipse fill="darksalmon" stroke="black" cx="772" cy="-54" rx="18" ry="18"/>
<text text-anchor="middle" x="772" y="-50.9" font-family="arial" font-size="12.00">Sink</text>
</g>
<!-- 9&#45;&gt;11 -->
<g id="edge12" class="edge"><title>9&#45;&gt;11</title>
<path fill="none" stroke="black" d="M694.241,-54C708.022,-54 727.6,-54 743.535,-54"/>
<polygon fill="black" stroke="black" points="743.868,-57.5001 753.868,-54 743.868,-50.5001 743.868,-57.5001"/>
<text text-anchor="middle" x="724" y="-57.4" font-family="arial" font-size="12.00">18.8</text>
</g>
<!-- 10 -->
<g id="node10" class="node"><title>10</title>
<ellipse fill="forestgreen" stroke="black" cx="18" cy="-44" rx="18" ry="18"/>
<text text-anchor="middle" x="18" y="-41.5" font-family="arial" font-size="10.00">Source</text>
</g>
<!-- 10&#45;&gt;1 -->
<g id="edge11" class="edge"><title>10&#45;&gt;1</title>
<path fill="none" stroke="black" d="M35.364,-49.2666C47.8803,-53.2948 65.387,-58.9292 79.84,-63.5807"/>
<polygon fill="black" stroke="black" points="79.1179,-67.025 89.7093,-66.757 81.2625,-60.3616 79.1179,-67.025"/>
<text text-anchor="middle" x="62.5" y="-63.4" font-family="arial" font-size="12.00">1.0</text>
</g>
<!-- 10&#45;&gt;2 -->
<g id="edge10" class="edge"><title>10&#45;&gt;2</title>
<path fill="none" stroke="black" d="M35.3072,-38.1545C41.1726,-36.1195 47.857,-33.8777 54,-32 62.1725,-29.5019 71.1384,-27.0029 79.2891,-24.8221"/>
<polygon fill="black" stroke="black" points="80.2752,-28.1819 89.0564,-22.254 78.4951,-21.412 80.2752,-28.1819"/>
<text text-anchor="middle" x="62.5" y="-35.4" font-family="arial" font-size="12.00">1.0</text>
</g>
</g>
</svg>
