<?xml version="1.0" encoding="UTF-8" standalone="no"?>
<!DOCTYPE svg PUBLIC "-//W3C//DTD SVG 1.1//EN"
 "http://www.w3.org/Graphics/SVG/1.1/DTD/svg11.dtd">
<!-- Generated by graphviz version 2.38.0 (20140413.2041)
 -->
<!-- Title: %3 Pages: 1 -->
<svg width="798pt" height="105pt"
 viewBox="0.00 0.00 798.00 105.00" xmlns="http://www.w3.org/2000/svg" xmlns:xlink="http://www.w3.org/1999/xlink">
<g id="graph0" class="graph" transform="scale(1 1) rotate(0) translate(4 101)">
<title>%3</title>
<polygon fill="white" stroke="none" points="-4,4 -4,-101 794,-101 794,4 -4,4"/>
<!-- 1 -->
<g id="node1" class="node"><title>1</title>
<ellipse fill="powderblue" stroke="black" cx="107" cy="-40" rx="18" ry="18"/>
<text text-anchor="middle" x="107" y="-36.9" font-family="arial" font-size="12.00">P0</text>
</g>
<!-- 2 -->
<g id="node2" class="node"><title>2</title>
<ellipse fill="powderblue" stroke="black" cx="196" cy="-40" rx="18" ry="18"/>
<text text-anchor="middle" x="196" y="-36.9" font-family="arial" font-size="12.00">P1</text>
</g>
<!-- 1&#45;&gt;2 -->
<g id="edge1" class="edge"><title>1&#45;&gt;2</title>
<path fill="none" stroke="black" d="M125.188,-40C137.343,-40 153.886,-40 167.818,-40"/>
<polygon fill="black" stroke="black" points="167.847,-43.5001 177.847,-40 167.847,-36.5001 167.847,-43.5001"/>
<text text-anchor="middle" x="151.5" y="-43.4" font-family="arial" font-size="12.00">1.0</text>
</g>
<!-- 3 -->
<g id="node3" class="node"><title>3</title>
<ellipse fill="powderblue" stroke="black" cx="285" cy="-40" rx="18" ry="18"/>
<text text-anchor="middle" x="285" y="-36.9" font-family="arial" font-size="12.00">P2</text>
</g>
<!-- 2&#45;&gt;3 -->
<g id="edge2" class="edge"><title>2&#45;&gt;3</title>
<path fill="none" stroke="black" d="M214.188,-40C226.343,-40 242.886,-40 256.818,-40"/>
<polygon fill="black" stroke="black" points="256.847,-43.5001 266.847,-40 256.847,-36.5001 256.847,-43.5001"/>
<text text-anchor="middle" x="240.5" y="-43.4" font-family="arial" font-size="12.00">0.6</text>
</g>
<!-- 4 -->
<g id="node4" class="node"><title>4</title>
<ellipse fill="powderblue" stroke="black" cx="374" cy="-72" rx="18" ry="18"/>
<text text-anchor="middle" x="374" y="-68.9" font-family="arial" font-size="12.00">P3</text>
</g>
<!-- 3&#45;&gt;4 -->
<g id="edge3" class="edge"><title>3&#45;&gt;4</title>
<path fill="none" stroke="black" d="M302.364,-46.019C315.002,-50.6673 332.727,-57.1871 347.26,-62.5325"/>
<polygon fill="black" stroke="black" points="346.116,-65.8408 356.709,-66.008 348.532,-59.2711 346.116,-65.8408"/>
<text text-anchor="middle" x="329.5" y="-61.4" font-family="arial" font-size="12.00">0.6</text>
</g>
<!-- 5 -->
<g id="node5" class="node"><title>5</title>
<ellipse fill="powderblue" stroke="black" cx="374" cy="-18" rx="18" ry="18"/>
<text text-anchor="middle" x="374" y="-14.9" font-family="arial" font-size="12.00">P4</text>
</g>
<!-- 3&#45;&gt;5 -->
<g id="edge4" class="edge"><title>3&#45;&gt;5</title>
<path fill="none" stroke="black" d="M302.774,-35.7582C315.171,-32.6234 332.296,-28.293 346.531,-24.6933"/>
<polygon fill="black" stroke="black" points="347.44,-28.0736 356.277,-22.2288 345.724,-21.2872 347.44,-28.0736"/>
<text text-anchor="middle" x="329.5" y="-34.4" font-family="arial" font-size="12.00">0.6</text>
</g>
<!-- 6 -->
<g id="node6" class="node"><title>6</title>
<ellipse fill="powderblue" stroke="black" cx="470" cy="-47" rx="18" ry="18"/>
<text text-anchor="middle" x="470" y="-43.9" font-family="arial" font-size="12.00">P5</text>
</g>
<!-- 4&#45;&gt;6 -->
<g id="edge5" class="edge"><title>4&#45;&gt;6</title>
<path fill="none" stroke="black" d="M391.805,-67.5305C405.841,-63.7977 426.106,-58.408 442.351,-54.0874"/>
<polygon fill="black" stroke="black" points="443.576,-57.3835 452.34,-51.4308 441.777,-50.6187 443.576,-57.3835"/>
<text text-anchor="middle" x="422" y="-65.4" font-family="arial" font-size="12.00">0.2</text>
</g>
<!-- 5&#45;&gt;6 -->
<g id="edge6" class="edge"><title>5&#45;&gt;6</title>
<path fill="none" stroke="black" d="M391.374,-23.0514C405.574,-27.4324 426.382,-33.8517 442.88,-38.9418"/>
<polygon fill="black" stroke="black" points="441.911,-42.3056 452.499,-41.9092 443.975,-35.6166 441.911,-42.3056"/>
<text text-anchor="middle" x="422" y="-39.4" font-family="arial" font-size="12.00">0.12</text>
</g>
<!-- 7 -->
<g id="node7" class="node"><title>7</title>
<ellipse fill="powderblue" stroke="black" cx="566" cy="-79" rx="18" ry="18"/>
<text text-anchor="middle" x="566" y="-75.9" font-family="arial" font-size="12.00">P6</text>
</g>
<!-- 6&#45;&gt;7 -->
<g id="edge7" class="edge"><title>6&#45;&gt;7</title>
<path fill="none" stroke="black" d="M487.374,-52.574C501.661,-57.4379 522.637,-64.5786 539.183,-70.2114"/>
<polygon fill="black" stroke="black" points="538.22,-73.5805 548.814,-73.4899 540.476,-66.9539 538.22,-73.5805"/>
<text text-anchor="middle" x="518" y="-69.4" font-family="arial" font-size="12.00">0.3</text>
</g>
<!-- 8 -->
<g id="node8" class="node"><title>8</title>
<ellipse fill="powderblue" stroke="black" cx="566" cy="-25" rx="18" ry="18"/>
<text text-anchor="middle" x="566" y="-21.9" font-family="arial" font-size="12.00">P7</text>
</g>
<!-- 6&#45;&gt;8 -->
<g id="edge8" class="edge"><title>6&#45;&gt;8</title>
<path fill="none" stroke="black" d="M487.805,-43.0668C501.841,-39.782 522.106,-35.039 538.351,-31.237"/>
<polygon fill="black" stroke="black" points="539.401,-34.5859 548.34,-28.8991 537.806,-27.7701 539.401,-34.5859"/>
<text text-anchor="middle" x="518" y="-42.4" font-family="arial" font-size="12.00">0.06</text>
</g>
<!-- 9 -->
<g id="node9" class="node"><title>9</title>
<ellipse fill="powderblue" stroke="black" cx="669" cy="-54" rx="18" ry="18"/>
<text text-anchor="middle" x="669" y="-50.9" font-family="arial" font-size="12.00">P8</text>
</g>
<!-- 7&#45;&gt;9 -->
<g id="edge9" class="edge"><title>7&#45;&gt;9</title>
<path fill="none" stroke="black" d="M583.678,-74.8718C599.395,-70.9815 623.2,-65.0891 641.513,-60.5561"/>
<polygon fill="black" stroke="black" points="642.431,-63.9347 651.297,-58.1344 640.749,-57.1397 642.431,-63.9347"/>
<text text-anchor="middle" x="617.5" y="-73.4" font-family="arial" font-size="12.00">0.3</text>
</g>
<!-- 8&#45;&gt;9 -->
<g id="edge10" class="edge"><title>8&#45;&gt;9</title>
<path fill="none" stroke="black" d="M583.678,-29.7888C599.395,-34.3014 623.2,-41.1366 641.513,-46.3949"/>
<polygon fill="black" stroke="black" points="640.72,-49.8084 651.297,-49.2041 642.651,-43.0802 640.72,-49.8084"/>
<text text-anchor="middle" x="617.5" y="-46.4" font-family="arial" font-size="12.00">0.036</text>
</g>
<!-- 11 -->
<g id="node11" class="node"><title>11</title>
<ellipse fill="darksalmon" stroke="black" cx="772" cy="-54" rx="18" ry="18"/>
<text text-anchor="middle" x="772" y="-50.9" font-family="arial" font-size="12.00">Sink</text>
</g>
<!-- 9&#45;&gt;11 -->
<g id="edge12" class="edge"><title>9&#45;&gt;11</title>
<path fill="none" stroke="black" d="M687.133,-54C702.586,-54 725.584,-54 743.591,-54"/>
<polygon fill="black" stroke="black" points="743.783,-57.5001 753.783,-54 743.783,-50.5001 743.783,-57.5001"/>
<text text-anchor="middle" x="720.5" y="-57.4" font-family="arial" font-size="12.00">0.036</text>
</g>
<!-- 10 -->
<g id="node10" class="node"><title>10</title>
<ellipse fill="forestgreen" stroke="black" cx="18" cy="-40" rx="18" ry="18"/>
<text text-anchor="middle" x="18" y="-37.5" font-family="arial" font-size="10.00">Source</text>
</g>
<!-- 10&#45;&gt;1 -->
<g id="edge11" class="edge"><title>10&#45;&gt;1</title>
<path fill="none" stroke="black" d="M36.1884,-40C48.3426,-40 64.8865,-40 78.8185,-40"/>
<polygon fill="black" stroke="black" points="78.8473,-43.5001 88.8473,-40 78.8473,-36.5001 78.8473,-43.5001"/>
<text text-anchor="middle" x="62.5" y="-43.4" font-family="arial" font-size="12.00">1.0</text>
</g>
</g>
</svg>
