<?xml version="1.0" encoding="UTF-8" standalone="no"?>
<!DOCTYPE svg PUBLIC "-//W3C//DTD SVG 1.1//EN"
 "http://www.w3.org/Graphics/SVG/1.1/DTD/svg11.dtd">
<!-- Generated by graphviz version 2.38.0 (20140413.2041)
 -->
<!-- Title: %3 Pages: 1 -->
<svg width="737pt" height="116pt"
 viewBox="0.00 0.00 737.00 116.00" xmlns="http://www.w3.org/2000/svg" xmlns:xlink="http://www.w3.org/1999/xlink">
<g id="graph0" class="graph" transform="scale(1 1) rotate(0) translate(4 112)">
<title>%3</title>
<polygon fill="white" stroke="none" points="-4,4 -4,-112 733,-112 733,4 -4,4"/>
<!-- 1 -->
<g id="node1" class="node"><title>1</title>
<ellipse fill="powderblue" stroke="black" cx="107" cy="-40" rx="18" ry="18"/>
<text text-anchor="middle" x="107" y="-36.9" font-family="arial" font-size="12.00">P0</text>
</g>
<!-- 2 -->
<g id="node2" class="node"><title>2</title>
<ellipse fill="powderblue" stroke="black" cx="210" cy="-40" rx="18" ry="18"/>
<text text-anchor="middle" x="210" y="-36.9" font-family="arial" font-size="12.00">P1</text>
</g>
<!-- 1&#45;&gt;2 -->
<g id="edge1" class="edge"><title>1&#45;&gt;2</title>
<path fill="none" stroke="black" d="M125.133,-40C140.586,-40 163.584,-40 181.591,-40"/>
<polygon fill="black" stroke="black" points="181.783,-43.5001 191.783,-40 181.783,-36.5001 181.783,-43.5001"/>
<text text-anchor="middle" x="158.5" y="-43.4" font-family="arial" font-size="12.00">0.667</text>
</g>
<!-- 3 -->
<g id="node3" class="node"><title>3</title>
<ellipse fill="powderblue" stroke="black" cx="313" cy="-72" rx="18" ry="18"/>
<text text-anchor="middle" x="313" y="-68.9" font-family="arial" font-size="12.00">P2</text>
</g>
<!-- 2&#45;&gt;3 -->
<g id="edge2" class="edge"><title>2&#45;&gt;3</title>
<path fill="none" stroke="black" d="M227.678,-45.2841C243.562,-50.3168 267.709,-57.9671 286.098,-63.7933"/>
<polygon fill="black" stroke="black" points="285.042,-67.1303 295.632,-66.8142 287.156,-60.4572 285.042,-67.1303"/>
<text text-anchor="middle" x="261.5" y="-63.4" font-family="arial" font-size="12.00">1.33</text>
</g>
<!-- 4 -->
<g id="node4" class="node"><title>4</title>
<ellipse fill="powderblue" stroke="black" cx="313" cy="-18" rx="18" ry="18"/>
<text text-anchor="middle" x="313" y="-14.9" font-family="arial" font-size="12.00">P3</text>
</g>
<!-- 2&#45;&gt;4 -->
<g id="edge3" class="edge"><title>2&#45;&gt;4</title>
<path fill="none" stroke="black" d="M227.723,-36.1215C233.507,-34.7948 240.035,-33.3144 246,-32 258.917,-29.154 273.28,-26.0947 285.301,-23.5641"/>
<polygon fill="black" stroke="black" points="286.097,-26.9733 295.166,-21.495 284.66,-20.1224 286.097,-26.9733"/>
<text text-anchor="middle" x="261.5" y="-35.4" font-family="arial" font-size="12.00">0.667</text>
</g>
<!-- 5 -->
<g id="node5" class="node"><title>5</title>
<ellipse fill="powderblue" stroke="black" cx="416" cy="-27" rx="18" ry="18"/>
<text text-anchor="middle" x="416" y="-23.9" font-family="arial" font-size="12.00">P4</text>
</g>
<!-- 3&#45;&gt;5 -->
<g id="edge4" class="edge"><title>3&#45;&gt;5</title>
<path fill="none" stroke="black" d="M329.781,-64.9688C345.939,-57.7697 371.288,-46.4756 390.144,-38.0744"/>
<polygon fill="black" stroke="black" points="391.62,-41.2487 399.33,-33.9819 388.771,-34.8547 391.62,-41.2487"/>
<text text-anchor="middle" x="364.5" y="-59.4" font-family="arial" font-size="12.00">2.0</text>
</g>
<!-- 6 -->
<g id="node6" class="node"><title>6</title>
<ellipse fill="powderblue" stroke="black" cx="416" cy="-90" rx="18" ry="18"/>
<text text-anchor="middle" x="416" y="-86.9" font-family="arial" font-size="12.00">P5</text>
</g>
<!-- 3&#45;&gt;6 -->
<g id="edge6" class="edge"><title>3&#45;&gt;6</title>
<path fill="none" stroke="black" d="M331.133,-75.0535C346.753,-77.8372 370.081,-81.9946 388.172,-85.2187"/>
<polygon fill="black" stroke="black" points="387.661,-88.6827 398.12,-86.9916 388.889,-81.7913 387.661,-88.6827"/>
<text text-anchor="middle" x="364.5" y="-86.4" font-family="arial" font-size="12.00">1.33</text>
</g>
<!-- 4&#45;&gt;5 -->
<g id="edge5" class="edge"><title>4&#45;&gt;5</title>
<path fill="none" stroke="black" d="M331.16,-17.2797C344.52,-16.9552 363.503,-17.0119 380,-19 382.748,-19.3312 385.596,-19.7881 388.426,-20.3173"/>
<polygon fill="black" stroke="black" points="387.879,-23.7795 398.391,-22.4547 389.347,-16.9352 387.879,-23.7795"/>
<text text-anchor="middle" x="364.5" y="-22.4" font-family="arial" font-size="12.00">0.333</text>
</g>
<!-- 7 -->
<g id="node7" class="node"><title>7</title>
<ellipse fill="powderblue" stroke="black" cx="519" cy="-72" rx="18" ry="18"/>
<text text-anchor="middle" x="519" y="-68.9" font-family="arial" font-size="12.00">P6</text>
</g>
<!-- 5&#45;&gt;7 -->
<g id="edge7" class="edge"><title>5&#45;&gt;7</title>
<path fill="none" stroke="black" d="M432.781,-34.0312C448.939,-41.2303 474.288,-52.5244 493.144,-60.9256"/>
<polygon fill="black" stroke="black" points="491.771,-64.1453 502.33,-65.0181 494.62,-57.7513 491.771,-64.1453"/>
<text text-anchor="middle" x="467.5" y="-59.4" font-family="arial" font-size="12.00">1.0</text>
</g>
<!-- 8 -->
<g id="node8" class="node"><title>8</title>
<ellipse fill="powderblue" stroke="black" cx="519" cy="-18" rx="18" ry="18"/>
<text text-anchor="middle" x="519" y="-14.9" font-family="arial" font-size="12.00">P7</text>
</g>
<!-- 5&#45;&gt;8 -->
<g id="edge9" class="edge"><title>5&#45;&gt;8</title>
<path fill="none" stroke="black" d="M433.609,-22.4547C439.385,-21.0745 445.935,-19.7308 452,-19 464.631,-17.4779 478.718,-17.0879 490.624,-17.1343"/>
<polygon fill="black" stroke="black" points="490.791,-20.6369 500.84,-17.2797 490.891,-13.6377 490.791,-20.6369"/>
<text text-anchor="middle" x="467.5" y="-22.4" font-family="arial" font-size="12.00">0.667</text>
</g>
<!-- 6&#45;&gt;7 -->
<g id="edge8" class="edge"><title>6&#45;&gt;7</title>
<path fill="none" stroke="black" d="M434.133,-86.9465C449.753,-84.1628 473.081,-80.0054 491.172,-76.7813"/>
<polygon fill="black" stroke="black" points="491.889,-80.2087 501.12,-75.0084 490.661,-73.3173 491.889,-80.2087"/>
<text text-anchor="middle" x="467.5" y="-86.4" font-family="arial" font-size="12.00">0.667</text>
</g>
<!-- 9 -->
<g id="node9" class="node"><title>9</title>
<ellipse fill="powderblue" stroke="black" cx="615" cy="-47" rx="18" ry="18"/>
<text text-anchor="middle" x="615" y="-43.9" font-family="arial" font-size="12.00">P8</text>
</g>
<!-- 7&#45;&gt;9 -->
<g id="edge10" class="edge"><title>7&#45;&gt;9</title>
<path fill="none" stroke="black" d="M536.805,-67.5305C550.841,-63.7977 571.106,-58.408 587.351,-54.0874"/>
<polygon fill="black" stroke="black" points="588.576,-57.3835 597.34,-51.4308 586.777,-50.6187 588.576,-57.3835"/>
<text text-anchor="middle" x="567" y="-65.4" font-family="arial" font-size="12.00">1.0</text>
</g>
<!-- 8&#45;&gt;9 -->
<g id="edge11" class="edge"><title>8&#45;&gt;9</title>
<path fill="none" stroke="black" d="M536.374,-23.0514C550.574,-27.4324 571.382,-33.8517 587.88,-38.9418"/>
<polygon fill="black" stroke="black" points="586.911,-42.3056 597.499,-41.9092 588.975,-35.6166 586.911,-42.3056"/>
<text text-anchor="middle" x="567" y="-39.4" font-family="arial" font-size="12.00">0.19</text>
</g>
<!-- 11 -->
<g id="node11" class="node"><title>11</title>
<ellipse fill="darksalmon" stroke="black" cx="711" cy="-47" rx="18" ry="18"/>
<text text-anchor="middle" x="711" y="-43.9" font-family="arial" font-size="12.00">Sink</text>
</g>
<!-- 9&#45;&gt;11 -->
<g id="edge13" class="edge"><title>9&#45;&gt;11</title>
<path fill="none" stroke="black" d="M633.241,-47C647.022,-47 666.6,-47 682.535,-47"/>
<polygon fill="black" stroke="black" points="682.868,-50.5001 692.868,-47 682.868,-43.5001 682.868,-50.5001"/>
<text text-anchor="middle" x="663" y="-50.4" font-family="arial" font-size="12.00">0.19</text>
</g>
<!-- 10 -->
<g id="node10" class="node"><title>10</title>
<ellipse fill="forestgreen" stroke="black" cx="18" cy="-40" rx="18" ry="18"/>
<text text-anchor="middle" x="18" y="-37.5" font-family="arial" font-size="10.00">Source</text>
</g>
<!-- 10&#45;&gt;1 -->
<g id="edge12" class="edge"><title>10&#45;&gt;1</title>
<path fill="none" stroke="black" d="M36.1884,-40C48.3426,-40 64.8865,-40 78.8185,-40"/>
<polygon fill="black" stroke="black" points="78.8473,-43.5001 88.8473,-40 78.8473,-36.5001 78.8473,-43.5001"/>
<text text-anchor="middle" x="62.5" y="-43.4" font-family="arial" font-size="12.00">1.0</text>
</g>
</g>
</svg>
