<?xml version="1.0" encoding="UTF-8" standalone="no"?>
<!-- Generated by graphviz version 2.38.0 (20140413.2041)
 -->

<!-- Title: %3 Pages: 1 -->

<svg
   xmlns:dc="http://purl.org/dc/elements/1.1/"
   xmlns:cc="http://creativecommons.org/ns#"
   xmlns:rdf="http://www.w3.org/1999/02/22-rdf-syntax-ns#"
   xmlns:svg="http://www.w3.org/2000/svg"
   xmlns="http://www.w3.org/2000/svg"
   xmlns:sodipodi="http://sodipodi.sourceforge.net/DTD/sodipodi-0.dtd"
   xmlns:inkscape="http://www.inkscape.org/namespaces/inkscape"
   width="1359.8406pt"
   height="451.57712pt"
   viewBox="0 0 1359.8406 451.57712"
   version="1.1"
   id="svg691"
   sodipodi:docname="dag0001.svg"
   inkscape:version="0.92.1 r">
  <metadata
     id="metadata697">
    <rdf:RDF>
      <cc:Work
         rdf:about="">
        <dc:format>image/svg+xml</dc:format>
        <dc:type
           rdf:resource="http://purl.org/dc/dcmitype/StillImage" />
      </cc:Work>
    </rdf:RDF>
  </metadata>
  <defs
     id="defs695" />
  <sodipodi:namedview
     pagecolor="#ffffff"
     bordercolor="#666666"
     borderopacity="1"
     objecttolerance="10"
     gridtolerance="10"
     guidetolerance="10"
     inkscape:pageopacity="0"
     inkscape:pageshadow="2"
     inkscape:window-width="1920"
     inkscape:window-height="1022"
     id="namedview693"
     showgrid="false"
     inkscape:zoom="0.88438144"
     inkscape:cx="793.03801"
     inkscape:cy="467.01452"
     inkscape:window-x="0"
     inkscape:window-y="30"
     inkscape:window-maximized="1"
     inkscape:current-layer="svg691" />
  <g
     class="node"
     id="node1"
     transform="translate(-18.139358,488.75)"
     style="stroke-width:1.5;stroke-miterlimit:4;stroke-dasharray:none">
    <title
       id="title6">1</title>
    <circle
       style="fill:#b0e0e6;stroke:#000000;stroke-width:1.5;stroke-miterlimit:4;stroke-dasharray:none"
       r="18"
       id="ellipse8"
       cy="-190"
       cx="107" />
    <text
       style="font-size:12px;font-family:arial;text-anchor:middle;stroke-width:1.5;stroke-miterlimit:4;stroke-dasharray:none"
       id="text10"
       font-size="12.00"
       y="-186.89999"
       x="107">P0</text>
  </g>
  <g
     class="node"
     id="node2"
     transform="translate(-18.139358,488.75)"
     style="stroke-width:1.5;stroke-miterlimit:4;stroke-dasharray:none">
    <title
       id="title13">2</title>
    <circle
       style="fill:#b0e0e6;stroke:#000000;stroke-width:1.5;stroke-miterlimit:4;stroke-dasharray:none"
       r="18"
       id="ellipse15"
       cy="-390"
       cx="196" />
    <text
       style="font-size:12px;font-family:arial;text-anchor:middle;stroke-width:1.5;stroke-miterlimit:4;stroke-dasharray:none"
       id="text17"
       font-size="12.00"
       y="-386.89999"
       x="196">P1</text>
  </g>
  <path
     d="M 96.980642,282.383 C 112.12064,247.577 147.61164,165.989 165.75464,124.28"
     id="path22"
     inkscape:connector-curvature="0"
     style="fill:none;stroke:#000000;stroke-width:1.5;stroke-miterlimit:4;stroke-dasharray:none" />
  <polygon
     points="180.706,-365.914 187.904,-373.688 187.125,-363.121 "
     id="polygon24"
     style="fill:#000000;stroke:#000000;stroke-width:1.5;stroke-miterlimit:4;stroke-dasharray:none"
     transform="translate(-18.139358,488.75)" />
  <g
     class="node"
     id="node3"
     transform="translate(-18.139358,488.75)"
     style="stroke-width:1.5;stroke-miterlimit:4;stroke-dasharray:none">
    <title
       id="title29">3</title>
    <circle
       style="fill:#b0e0e6;stroke:#000000;stroke-width:1.5;stroke-miterlimit:4;stroke-dasharray:none"
       r="18"
       id="ellipse31"
       cy="-217"
       cx="196" />
    <text
       style="font-size:12px;font-family:arial;text-anchor:middle;stroke-width:1.5;stroke-miterlimit:4;stroke-dasharray:none"
       id="text33"
       font-size="12.00"
       y="-213.89999"
       x="196">P2</text>
  </g>
  <path
     d="m 106.22464,293.672 c 12.516,-3.885 30.023,-9.318 44.476,-13.803"
     id="path38"
     inkscape:connector-curvature="0"
     style="fill:none;stroke:#000000;stroke-width:1.5;stroke-miterlimit:4;stroke-dasharray:none" />
  <polygon
     points="168.121,-212.323 178.709,-211.944 170.196,-205.637 "
     id="polygon40"
     style="fill:#000000;stroke:#000000;stroke-width:1.5;stroke-miterlimit:4;stroke-dasharray:none"
     transform="translate(-18.139358,488.75)" />
  <g
     class="node"
     id="node5"
     transform="translate(-18.139358,488.75)"
     style="stroke-width:1.5;stroke-miterlimit:4;stroke-dasharray:none">
    <title
       id="title45">5</title>
    <circle
       style="fill:#b0e0e6;stroke:#000000;stroke-width:1.5;stroke-miterlimit:4;stroke-dasharray:none"
       r="18"
       id="ellipse47"
       cy="-110"
       cx="381" />
    <text
       style="font-size:12px;font-family:arial;text-anchor:middle;stroke-width:1.5;stroke-miterlimit:4;stroke-dasharray:none"
       id="text49"
       font-size="12.00"
       y="-106.9"
       x="381">P4</text>
  </g>
  <path
     d="m 100.83864,312.239 c 6.318,6.876 14.817,14.767 24.022,19.511 69.728,35.937 164.054,44.451 209.831,46.429"
     id="path54"
     inkscape:connector-curvature="0"
     style="fill:none;stroke:#000000;stroke-width:1.5;stroke-miterlimit:4;stroke-dasharray:none" />
  <polygon
     points="352.999,-114.067 362.867,-110.21 352.748,-107.071 "
     id="polygon56"
     style="fill:#000000;stroke:#000000;stroke-width:1.5;stroke-miterlimit:4;stroke-dasharray:none"
     transform="translate(-18.139358,488.75)" />
  <g
     class="node"
     id="node7"
     transform="translate(-18.139358,488.75)"
     style="stroke-width:1.5;stroke-miterlimit:4;stroke-dasharray:none">
    <title
       id="title61">7</title>
    <circle
       style="fill:#b0e0e6;stroke:#000000;stroke-width:1.5;stroke-miterlimit:4;stroke-dasharray:none"
       r="18"
       id="ellipse63"
       cy="-229"
       cx="477" />
    <text
       style="font-size:12px;font-family:arial;text-anchor:middle;stroke-width:1.5;stroke-miterlimit:4;stroke-dasharray:none"
       id="text65"
       font-size="12.00"
       y="-225.89999"
       x="477">P6</text>
  </g>
  <path
     d="m 105.98664,304.451 c 17.294,5.596 45.674,13.299 70.874,13.299 0,0 0,0 187,0 29.434,0 57.364,-20.851 75.013,-37.549"
     id="path70"
     inkscape:connector-curvature="0"
     style="fill:none;stroke:#000000;stroke-width:1.5;stroke-miterlimit:4;stroke-dasharray:none" />
  <polygon
     points="454.801,-211.284 464.367,-215.839 459.729,-206.313 "
     id="polygon72"
     style="fill:#000000;stroke:#000000;stroke-width:1.5;stroke-miterlimit:4;stroke-dasharray:none"
     transform="translate(-18.139358,488.75)" />
  <g
     class="node"
     id="node10"
     transform="translate(-18.139358,488.75)"
     style="stroke-width:1.5;stroke-miterlimit:4;stroke-dasharray:none">
    <title
       id="title77">10</title>
    <circle
       style="fill:#b0e0e6;stroke:#000000;stroke-width:1.5;stroke-miterlimit:4;stroke-dasharray:none"
       r="18"
       id="ellipse79"
       cy="-398"
       cx="573" />
    <text
       style="font-size:12px;font-family:arial;text-anchor:middle;stroke-width:1.5;stroke-miterlimit:4;stroke-dasharray:none"
       id="text81"
       font-size="12.00"
       y="-394.89999"
       x="573">P9</text>
  </g>
  <path
     d="m 191.60264,86.904 c 16.039,-13.63 45.042,-34.154 74.258,-34.154 0,0 0,0 146,0 42.049,0 88.793,15.741 116.771,26.961"
     id="path86"
     inkscape:connector-curvature="0"
     style="fill:none;stroke:#000000;stroke-width:1.5;stroke-miterlimit:4;stroke-dasharray:none" />
  <polygon
     points="548.281,-412.202 556.186,-405.148 545.607,-405.733 "
     id="polygon88"
     style="fill:#000000;stroke:#000000;stroke-width:1.5;stroke-miterlimit:4;stroke-dasharray:none"
     transform="translate(-18.139358,488.75)" />
  <g
     class="node"
     id="node4"
     transform="translate(-18.139358,488.75)"
     style="stroke-width:1.5;stroke-miterlimit:4;stroke-dasharray:none">
    <title
       id="title93">4</title>
    <circle
       style="fill:#b0e0e6;stroke:#000000;stroke-width:1.5;stroke-miterlimit:4;stroke-dasharray:none"
       r="18"
       id="ellipse95"
       cy="-258"
       cx="285" />
    <text
       style="font-size:12px;font-family:arial;text-anchor:middle;stroke-width:1.5;stroke-miterlimit:4;stroke-dasharray:none"
       id="text97"
       font-size="12.00"
       y="-254.89999"
       x="285">P3</text>
  </g>
  <path
     d="m 194.41464,264.42 c 12.91,-6.084 31.515,-14.852 46.503,-21.915"
     id="path102"
     inkscape:connector-curvature="0"
     style="fill:none;stroke:#000000;stroke-width:1.5;stroke-miterlimit:4;stroke-dasharray:none" />
  <polygon
     points="257.75,-249.498 268.287,-250.595 260.734,-243.166 "
     id="polygon104"
     style="fill:#000000;stroke:#000000;stroke-width:1.5;stroke-miterlimit:4;stroke-dasharray:none"
     transform="translate(-18.139358,488.75)" />
  <path
     d="m 195.89364,271.017 c 46.793,-2.012 177.615,-7.639 234.722,-10.095"
     id="path111"
     inkscape:connector-curvature="0"
     style="fill:none;stroke:#000000;stroke-width:1.5;stroke-miterlimit:4;stroke-dasharray:none" />
  <polygon
     points="448.695,-231.329 458.836,-228.262 448.995,-224.335 "
     id="polygon113"
     style="fill:#000000;stroke:#000000;stroke-width:1.5;stroke-miterlimit:4;stroke-dasharray:none"
     transform="translate(-18.139358,488.75)" />
  <path
     d="m 273.39864,247.645 c 5.949,16.938 16.34,43.403 29.462,64.105 11.132,17.562 26.799,35.118 39.192,47.85"
     id="path120"
     inkscape:connector-curvature="0"
     style="fill:none;stroke:#000000;stroke-width:1.5;stroke-miterlimit:4;stroke-dasharray:none" />
  <polygon
     points="362.844,-131.447 367.414,-121.888 357.881,-126.51 "
     id="polygon122"
     style="fill:#000000;stroke:#000000;stroke-width:1.5;stroke-miterlimit:4;stroke-dasharray:none"
     transform="translate(-18.139358,488.75)" />
  <g
     class="node"
     id="node6"
     transform="translate(-18.139358,488.75)"
     style="stroke-width:1.5;stroke-miterlimit:4;stroke-dasharray:none">
    <title
       id="title127">6</title>
    <circle
       style="fill:#b0e0e6;stroke:#000000;stroke-width:1.5;stroke-miterlimit:4;stroke-dasharray:none"
       r="18"
       id="ellipse129"
       cy="-307"
       cx="381" />
    <text
       style="font-size:12px;font-family:arial;text-anchor:middle;stroke-width:1.5;stroke-miterlimit:4;stroke-dasharray:none"
       id="text131"
       font-size="12.00"
       y="-303.89999"
       x="381">P5</text>
  </g>
  <path
     d="m 283.38264,222.659 c 14.784,-7.707 37.256,-19.421 54.371,-28.342"
     id="path136"
     inkscape:connector-curvature="0"
     style="fill:none;stroke:#000000;stroke-width:1.5;stroke-miterlimit:4;stroke-dasharray:none" />
  <polygon
     points="354.281,-297.54 364.767,-299.059 357.517,-291.333 "
     id="polygon138"
     style="fill:#000000;stroke:#000000;stroke-width:1.5;stroke-miterlimit:4;stroke-dasharray:none"
     transform="translate(-18.139358,488.75)" />
  <path
     d="m 284.72164,233.324 c 33.028,5.041 106.484,16.252 146.277,22.326"
     id="path145"
     inkscape:connector-curvature="0"
     style="fill:none;stroke:#000000;stroke-width:1.5;stroke-miterlimit:4;stroke-dasharray:none" />
  <polygon
     points="449.819,-236.537 459.177,-231.568 448.763,-229.617 "
     id="polygon147"
     style="fill:#000000;stroke:#000000;stroke-width:1.5;stroke-miterlimit:4;stroke-dasharray:none"
     transform="translate(-18.139358,488.75)" />
  <path
     d="m 277.15864,215.783 c 6.489,-9.762 15.745,-22.426 25.702,-32.033 16.324,-15.751 21.644,-18.99 42,-29 61.895,-30.435 141.255,-49.915 182.079,-58.653"
     id="path154"
     inkscape:connector-curvature="0"
     style="fill:none;stroke:#000000;stroke-width:1.5;stroke-miterlimit:4;stroke-dasharray:none" />
  <polygon
     points="544.555,-396.119 555.06,-394.739 545.987,-389.267 "
     id="polygon156"
     style="fill:#000000;stroke:#000000;stroke-width:1.5;stroke-miterlimit:4;stroke-dasharray:none"
     transform="translate(-18.139358,488.75)" />
  <g
     class="node"
     id="node9"
     transform="translate(-18.139358,488.75)"
     style="stroke-width:1.5;stroke-miterlimit:4;stroke-dasharray:none">
    <title
       id="title161">9</title>
    <circle
       style="fill:#b0e0e6;stroke:#000000;stroke-width:1.5;stroke-miterlimit:4;stroke-dasharray:none"
       r="18"
       id="ellipse163"
       cy="-253"
       cx="573" />
    <text
       style="font-size:12px;font-family:arial;text-anchor:middle;stroke-width:1.5;stroke-miterlimit:4;stroke-dasharray:none"
       id="text165"
       font-size="12.00"
       y="-249.89999"
       x="573">P8</text>
  </g>
  <path
     d="m 380.53864,383.906 c 31.027,8.4686 98.107,21.3431 138.322,-11.156 16.741,-13.529 26.97,-72.807 31.753,-108.809"
     id="path170"
     inkscape:connector-curvature="0"
     style="fill:none;stroke:#000000;stroke-width:1.5;stroke-miterlimit:4;stroke-dasharray:none" />
  <polygon
     points="565.335,-225.678 570.063,-235.159 572.279,-224.799 "
     id="polygon172"
     style="fill:#000000;stroke:#000000;stroke-width:1.5;stroke-miterlimit:4;stroke-dasharray:none"
     transform="translate(-18.139358,488.75)" />
  <path
     d="m 378.96364,189.899 c 12.422,7.062 30.155,17.989 43.897,29.851 6.147,5.306 12.204,11.69 17.506,17.785"
     id="path179"
     inkscape:connector-curvature="0"
     style="fill:none;stroke:#000000;stroke-width:1.5;stroke-miterlimit:4;stroke-dasharray:none" />
  <polygon
     points="461.47,-253.126 465.206,-243.212 456.103,-248.633 "
     id="polygon181"
     style="fill:#000000;stroke:#000000;stroke-width:1.5;stroke-miterlimit:4;stroke-dasharray:none"
     transform="translate(-18.139358,488.75)" />
  <g
     class="node"
     id="node8"
     transform="translate(-18.139358,488.75)"
     style="stroke-width:1.5;stroke-miterlimit:4;stroke-dasharray:none">
    <title
       id="title186">8</title>
    <circle
       style="fill:#b0e0e6;stroke:#000000;stroke-width:1.5;stroke-miterlimit:4;stroke-dasharray:none"
       r="18"
       id="ellipse188"
       cy="-314"
       cx="477" />
    <text
       style="font-size:12px;font-family:arial;text-anchor:middle;stroke-width:1.5;stroke-miterlimit:4;stroke-dasharray:none"
       id="text190"
       font-size="12.00"
       y="-310.89999"
       x="477">P7</text>
  </g>
  <path
     d="m 381.10164,180.466 c 13.781,-1.026 33.359,-2.484 49.294,-3.671"
     id="path195"
     inkscape:connector-curvature="0"
     style="fill:none;stroke:#000000;stroke-width:1.5;stroke-miterlimit:4;stroke-dasharray:none" />
  <polygon
     points="448.636,-315.472 458.868,-312.724 449.156,-308.491 "
     id="polygon197"
     style="fill:#000000;stroke:#000000;stroke-width:1.5;stroke-miterlimit:4;stroke-dasharray:none"
     transform="translate(-18.139358,488.75)" />
  <g
     class="node"
     id="node11"
     transform="translate(-18.139358,488.75)"
     style="stroke-width:1.5;stroke-miterlimit:4;stroke-dasharray:none">
    <title
       id="title202">11</title>
    <circle
       style="fill:#b0e0e6;stroke:#000000;stroke-width:1.5;stroke-miterlimit:4;stroke-dasharray:none"
       r="18"
       id="ellipse204"
       cy="-123"
       cx="669" />
    <text
       style="font-size:12px;font-family:arial;text-anchor:middle;stroke-width:1.5;stroke-miterlimit:4;stroke-dasharray:none"
       id="text206"
       font-size="12.00"
       y="-119.9"
       x="669">P10</text>
  </g>
  <path
     d="m 371.62364,197.509 c 11.932,22.715 36.838,64.625 69.237,89.241 56.827,43.175 139.924,65.096 182.178,74.012"
     id="path211"
     inkscape:connector-curvature="0"
     style="fill:none;stroke:#000000;stroke-width:1.5;stroke-miterlimit:4;stroke-dasharray:none" />
  <polygon
     points="642.134,-131.365 651.24,-125.949 640.745,-124.505 "
     id="polygon213"
     style="fill:#000000;stroke:#000000;stroke-width:1.5;stroke-miterlimit:4;stroke-dasharray:none"
     transform="translate(-18.139358,488.75)" />
  <g
     class="node"
     id="node12"
     transform="translate(-18.139358,488.75)"
     style="stroke-width:1.5;stroke-miterlimit:4;stroke-dasharray:none">
    <title
       id="title218">12</title>
    <circle
       style="fill:#b0e0e6;stroke:#000000;stroke-width:1.5;stroke-miterlimit:4;stroke-dasharray:none"
       r="18"
       id="ellipse220"
       cy="-470"
       cx="669" />
    <text
       style="font-size:12px;font-family:arial;text-anchor:middle;stroke-width:1.5;stroke-miterlimit:4;stroke-dasharray:none"
       id="text222"
       font-size="12.00"
       y="-466.89999"
       x="669">P11</text>
  </g>
  <path
     d="m 377.54764,170.857 c 28.413,-22.253 96.399,-73.647 159.313,-107.107 28.583,-15.201 63.459,-28.335 86.838,-36.425"
     id="path227"
     inkscape:connector-curvature="0"
     style="fill:none;stroke:#000000;stroke-width:1.5;stroke-miterlimit:4;stroke-dasharray:none" />
  <polygon
     points="640.81,-464.772 651.405,-464.676 643.062,-458.144 "
     id="polygon229"
     style="fill:#000000;stroke:#000000;stroke-width:1.5;stroke-miterlimit:4;stroke-dasharray:none"
     transform="translate(-18.139358,488.75)" />
  <path
     d="m 476.66564,255.459 c 14.036,-3.583 34.301,-8.757 50.546,-12.905"
     id="path236"
     inkscape:connector-curvature="0"
     style="fill:none;stroke:#000000;stroke-width:1.5;stroke-miterlimit:4;stroke-dasharray:none" />
  <polygon
     points="544.785,-249.664 555.34,-248.746 546.517,-242.881 "
     id="polygon238"
     style="fill:#000000;stroke:#000000;stroke-width:1.5;stroke-miterlimit:4;stroke-dasharray:none"
     transform="translate(-18.139358,488.75)" />
  <g
     class="node"
     id="node14"
     transform="translate(-18.139358,488.75)"
     style="stroke-width:1.5;stroke-miterlimit:4;stroke-dasharray:none">
    <title
       id="title243">14</title>
    <circle
       style="fill:#b0e0e6;stroke:#000000;stroke-width:1.5;stroke-miterlimit:4;stroke-dasharray:none"
       r="18"
       id="ellipse245"
       cy="-236"
       cx="765" />
    <text
       style="font-size:12px;font-family:arial;text-anchor:middle;stroke-width:1.5;stroke-miterlimit:4;stroke-dasharray:none"
       id="text247"
       font-size="12.00"
       y="-232.89999"
       x="765">P13</text>
  </g>
  <path
     d="m 477.06664,261.858 c 28.606,3.23 87.757,8.747 137.794,5.892 36.157,-2.063 77.654,-7.305 104.083,-11.009"
     id="path252"
     inkscape:connector-curvature="0"
     style="fill:none;stroke:#000000;stroke-width:1.5;stroke-miterlimit:4;stroke-dasharray:none" />
  <polygon
     points="736.701,-235.49 747.095,-233.44 737.691,-228.56 "
     id="polygon254"
     style="fill:#000000;stroke:#000000;stroke-width:1.5;stroke-miterlimit:4;stroke-dasharray:none"
     transform="translate(-18.139358,488.75)" />
  <path
     d="m 472.93064,163.07 c 15.574,-13.917 41.79,-37.344 60.153,-53.753"
     id="path261"
     inkscape:connector-curvature="0"
     style="fill:none;stroke:#000000;stroke-width:1.5;stroke-miterlimit:4;stroke-dasharray:none" />
  <polygon
     points="549.252,-382.366 559.041,-386.419 553.916,-377.146 "
     id="polygon263"
     style="fill:#000000;stroke:#000000;stroke-width:1.5;stroke-miterlimit:4;stroke-dasharray:none"
     transform="translate(-18.139358,488.75)" />
  <g
     class="node"
     id="node16"
     transform="translate(-18.139358,488.75)"
     style="stroke-width:1.5;stroke-miterlimit:4;stroke-dasharray:none">
    <title
       id="title268">16</title>
    <circle
       style="fill:#b0e0e6;stroke:#000000;stroke-width:1.5;stroke-miterlimit:4;stroke-dasharray:none"
       r="18"
       id="ellipse270"
       cy="-121"
       cx="765" />
    <text
       style="font-size:12px;font-family:arial;text-anchor:middle;stroke-width:1.5;stroke-miterlimit:4;stroke-dasharray:none"
       id="text272"
       font-size="12.00"
       y="-117.9"
       x="765">P15</text>
  </g>
  <path
     d="m 477.03964,173.005 c 30.121,-2.219 93.468,-3.08 137.821,22.745 31.127,18.124 89.208,105.741 116.335,148.47"
     id="path277"
     inkscape:connector-curvature="0"
     style="fill:none;stroke:#000000;stroke-width:1.5;stroke-miterlimit:4;stroke-dasharray:none" />
  <polygon
     points="752.408,-146.219 754.784,-135.895 746.488,-142.484 "
     id="polygon279"
     style="fill:#000000;stroke:#000000;stroke-width:1.5;stroke-miterlimit:4;stroke-dasharray:none"
     transform="translate(-18.139358,488.75)" />
  <path
     d="m 560.73664,253.102 c 5.433,17.293 15.431,44.029 30.124,63.648 5.571,7.439 22.611,21.336 36.955,32.436"
     id="path286"
     inkscape:connector-curvature="0"
     style="fill:none;stroke:#000000;stroke-width:1.5;stroke-miterlimit:4;stroke-dasharray:none" />
  <polygon
     points="648.167,-142.279 653.982,-133.422 643.913,-136.72 "
     id="polygon288"
     style="fill:#000000;stroke:#000000;stroke-width:1.5;stroke-miterlimit:4;stroke-dasharray:none"
     transform="translate(-18.139358,488.75)" />
  <path
     d="m 572.72764,232.731 c 13.661,-3.384 32.212,-10.303 42.133,-23.981 20.749,-28.606 7.527,-124.249 18,-158 0.828,-2.668 1.88,-5.373 3.054,-8.023"
     id="path295"
     inkscape:connector-curvature="0"
     style="fill:none;stroke:#000000;stroke-width:1.5;stroke-miterlimit:4;stroke-dasharray:none" />
  <polygon
     points="651.046,-447.833 658.654,-455.207 657.305,-444.698 "
     id="polygon297"
     style="fill:#000000;stroke:#000000;stroke-width:1.5;stroke-miterlimit:4;stroke-dasharray:none"
     transform="translate(-18.139358,488.75)" />
  <g
     class="node"
     id="node13"
     transform="translate(-18.139358,488.75)"
     style="stroke-width:1.5;stroke-miterlimit:4;stroke-dasharray:none">
    <title
       id="title302">13</title>
    <circle
       style="fill:#b0e0e6;stroke:#000000;stroke-width:1.5;stroke-miterlimit:4;stroke-dasharray:none"
       r="18"
       id="ellipse304"
       cy="-365"
       cx="669" />
    <text
       style="font-size:12px;font-family:arial;text-anchor:middle;stroke-width:1.5;stroke-miterlimit:4;stroke-dasharray:none"
       id="text306"
       font-size="12.00"
       y="-361.89999"
       x="669">P12</text>
  </g>
  <path
     d="m 571.18364,243.795 c 12.891,5.536 31.171,10.356 43.677,0.955 28.365,-21.323 34.833,-64.23 35.767,-92.791"
     id="path311"
     inkscape:connector-curvature="0"
     style="fill:none;stroke:#000000;stroke-width:1.5;stroke-miterlimit:4;stroke-dasharray:none" />
  <polygon
     points="665.269,-337.003 668.888,-346.96 672.269,-336.919 "
     id="polygon313"
     style="fill:#000000;stroke:#000000;stroke-width:1.5;stroke-miterlimit:4;stroke-dasharray:none"
     transform="translate(-18.139358,488.75)" />
  <path
     d="m 572.23464,96.498 c 14.287,5.016 35.263,12.38 51.809,18.189"
     id="path320"
     inkscape:connector-curvature="0"
     style="fill:none;stroke:#000000;stroke-width:1.5;stroke-miterlimit:4;stroke-dasharray:none" />
  <polygon
     points="643.538,-377.297 651.814,-370.682 641.219,-370.692 "
     id="polygon322"
     style="fill:#000000;stroke:#000000;stroke-width:1.5;stroke-miterlimit:4;stroke-dasharray:none"
     transform="translate(-18.139358,488.75)" />
  <g
     class="node"
     id="node15"
     transform="translate(-18.139358,488.75)"
     style="stroke-width:1.5;stroke-miterlimit:4;stroke-dasharray:none">
    <title
       id="title327">15</title>
    <circle
       style="fill:#b0e0e6;stroke:#000000;stroke-width:1.5;stroke-miterlimit:4;stroke-dasharray:none"
       r="18"
       id="ellipse329"
       cy="-365"
       cx="765" />
    <text
       style="font-size:12px;font-family:arial;text-anchor:middle;stroke-width:1.5;stroke-miterlimit:4;stroke-dasharray:none"
       id="text331"
       font-size="12.00"
       y="-361.89999"
       x="765">P14</text>
  </g>
  <path
     d="m 572.91764,88.158 c 11.792,-1.44 27.834,-2.703 41.943,-1.408 43.4,3.985 54.955,5.345 96,20 3.412,1.218 6.93,2.672 10.36,4.209"
     id="path336"
     inkscape:connector-curvature="0"
     style="fill:none;stroke:#000000;stroke-width:1.5;stroke-miterlimit:4;stroke-dasharray:none" />
  <polygon
     points="741.117,-380.831 748.633,-373.364 738.101,-374.514 "
     id="polygon338"
     style="fill:#000000;stroke:#000000;stroke-width:1.5;stroke-miterlimit:4;stroke-dasharray:none"
     transform="translate(-18.139358,488.75)" />
  <path
     d="m 669.10164,366.117 c 13.781,0.293 33.359,0.71 49.294,1.049"
     id="path345"
     inkscape:connector-curvature="0"
     style="fill:none;stroke:#000000;stroke-width:1.5;stroke-miterlimit:4;stroke-dasharray:none" />
  <polygon
     points="736.945,-125.077 746.868,-121.365 736.796,-118.078 "
     id="polygon347"
     style="fill:#000000;stroke:#000000;stroke-width:1.5;stroke-miterlimit:4;stroke-dasharray:none"
     transform="translate(-18.139358,488.75)" />
  <g
     class="node"
     id="node17"
     transform="translate(-18.139358,488.75)"
     style="stroke-width:1.5;stroke-miterlimit:4;stroke-dasharray:none">
    <title
       id="title352">17</title>
    <circle
       style="fill:#b0e0e6;stroke:#000000;stroke-width:1.5;stroke-miterlimit:4;stroke-dasharray:none"
       r="18"
       id="ellipse354"
       cy="-171"
       cx="861" />
    <text
       style="font-size:12px;font-family:arial;text-anchor:middle;stroke-width:1.5;stroke-miterlimit:4;stroke-dasharray:none"
       id="text356"
       font-size="12.00"
       y="-167.89999"
       x="861">P16</text>
  </g>
  <path
     d="m 666.83864,357.434 c 6.069,-3.092 13.236,-6.399 20.022,-8.684 43.506,-14.648 96.336,-23.389 127.729,-27.689"
     id="path361"
     inkscape:connector-curvature="0"
     style="fill:none;stroke:#000000;stroke-width:1.5;stroke-miterlimit:4;stroke-dasharray:none" />
  <polygon
     points="832.517,-171.191 842.889,-169.027 833.431,-164.251 "
     id="polygon363"
     style="fill:#000000;stroke:#000000;stroke-width:1.5;stroke-miterlimit:4;stroke-dasharray:none"
     transform="translate(-18.139358,488.75)" />
  <g
     class="node"
     id="node20"
     transform="translate(-18.139358,488.75)"
     style="stroke-width:1.5;stroke-miterlimit:4;stroke-dasharray:none">
    <title
       id="title368">20</title>
    <circle
       style="fill:#b0e0e6;stroke:#000000;stroke-width:1.5;stroke-miterlimit:4;stroke-dasharray:none"
       r="18"
       id="ellipse370"
       cy="-456"
       cx="964" />
    <text
       style="font-size:12px;font-family:arial;text-anchor:middle;stroke-width:1.5;stroke-miterlimit:4;stroke-dasharray:none"
       id="text372"
       font-size="12.00"
       y="-452.89999"
       x="964">P19</text>
  </g>
  <path
     d="m 668.87964,19.563 c 48.752,2.33 189.225,9.042 248.777,11.887"
     id="path377"
     inkscape:connector-curvature="0"
     style="fill:none;stroke:#000000;stroke-width:1.5;stroke-miterlimit:4;stroke-dasharray:none" />
  <polygon
     points="936.112,-460.789 945.934,-456.815 935.778,-453.797 "
     id="polygon379"
     style="fill:#000000;stroke:#000000;stroke-width:1.5;stroke-miterlimit:4;stroke-dasharray:none"
     transform="translate(-18.139358,488.75)" />
  <path
     d="m 662.27964,138.048 c 16.233,22.278 47.704,65.467 67.057,92.025"
     id="path386"
     inkscape:connector-curvature="0"
     style="fill:none;stroke:#000000;stroke-width:1.5;stroke-miterlimit:4;stroke-dasharray:none" />
  <polygon
     points="750.474,-260.505 753.535,-250.362 744.817,-256.383 "
     id="polygon388"
     style="fill:#000000;stroke:#000000;stroke-width:1.5;stroke-miterlimit:4;stroke-dasharray:none"
     transform="translate(-18.139358,488.75)" />
  <path
     d="m 669.10164,123.75 c 13.781,0 33.359,0 49.294,0"
     id="path395"
     inkscape:connector-curvature="0"
     style="fill:none;stroke:#000000;stroke-width:1.5;stroke-miterlimit:4;stroke-dasharray:none" />
  <polygon
     points="736.868,-368.5 746.868,-365 736.868,-361.5 "
     id="polygon397"
     style="fill:#000000;stroke:#000000;stroke-width:1.5;stroke-miterlimit:4;stroke-dasharray:none"
     transform="translate(-18.139358,488.75)" />
  <g
     class="node"
     id="node18"
     transform="translate(-18.139358,488.75)"
     style="stroke-width:1.5;stroke-miterlimit:4;stroke-dasharray:none">
    <title
       id="title402">18</title>
    <circle
       style="fill:#b0e0e6;stroke:#000000;stroke-width:1.5;stroke-miterlimit:4;stroke-dasharray:none"
       r="18"
       id="ellipse404"
       cy="-419"
       cx="861" />
    <text
       style="font-size:12px;font-family:arial;text-anchor:middle;stroke-width:1.5;stroke-miterlimit:4;stroke-dasharray:none"
       id="text406"
       font-size="12.00"
       y="-415.89999"
       x="861">P17</text>
  </g>
  <path
     d="m 667.31764,115.626 c 6.011,-2.995 13.012,-6.286 19.543,-8.876 41.554,-16.478 52.285,-20.66 96,-30 10.223,-2.184 21.598,-3.736 31.611,-4.814"
     id="path411"
     inkscape:connector-curvature="0"
     style="fill:none;stroke:#000000;stroke-width:1.5;stroke-miterlimit:4;stroke-dasharray:none" />
  <polygon
     points="832.531,-420.323 842.823,-417.805 833.208,-413.355 "
     id="polygon413"
     style="fill:#000000;stroke:#000000;stroke-width:1.5;stroke-miterlimit:4;stroke-dasharray:none"
     transform="translate(-18.139358,488.75)" />
  <path
     d="m 761.28864,263.537 c 6.431,5.054 14.299,11.079 21.572,16.213 11.509,8.124 24.658,16.661 35.617,23.581"
     id="path420"
     inkscape:connector-curvature="0"
     style="fill:none;stroke:#000000;stroke-width:1.5;stroke-miterlimit:4;stroke-dasharray:none" />
  <polygon
     points="838.605,-188.304 845.224,-180.031 834.89,-182.371 "
     id="polygon422"
     style="fill:#000000;stroke:#000000;stroke-width:1.5;stroke-miterlimit:4;stroke-dasharray:none"
     transform="translate(-18.139358,488.75)" />
  <g
     class="node"
     id="node22"
     transform="translate(-18.139358,488.75)"
     style="stroke-width:1.5;stroke-miterlimit:4;stroke-dasharray:none">
    <title
       id="title427">22</title>
    <circle
       style="fill:#b0e0e6;stroke:#000000;stroke-width:1.5;stroke-miterlimit:4;stroke-dasharray:none"
       r="18"
       id="ellipse429"
       cy="-195"
       cx="1073" />
    <text
       style="font-size:12px;font-family:arial;text-anchor:middle;stroke-width:1.5;stroke-miterlimit:4;stroke-dasharray:none"
       id="text431"
       font-size="12.00"
       y="-191.89999"
       x="1073">P21</text>
  </g>
  <path
     d="m 764.84964,253.484 c 42.966,2.103 159.283,9.335 254.01096,29.266 2.92,0.615 5.95,1.373 8.94,2.202"
     id="path436"
     inkscape:connector-curvature="0"
     style="fill:none;stroke:#000000;stroke-width:1.5;stroke-miterlimit:4;stroke-dasharray:none" />
  <polygon
     points="1047.24,-207.062 1055.79,-200.815 1045.21,-200.363 "
     id="polygon438"
     style="fill:#000000;stroke:#000000;stroke-width:1.5;stroke-miterlimit:4;stroke-dasharray:none"
     transform="translate(-18.139358,488.75)" />
  <g
     class="node"
     id="node23"
     transform="translate(-18.139358,488.75)"
     style="stroke-width:1.5;stroke-miterlimit:4;stroke-dasharray:none">
    <title
       id="title443">23</title>
    <circle
       style="fill:#b0e0e6;stroke:#000000;stroke-width:1.5;stroke-miterlimit:4;stroke-dasharray:none"
       r="18"
       id="ellipse445"
       cy="-282"
       cx="1182" />
    <text
       style="font-size:12px;font-family:arial;text-anchor:middle;stroke-width:1.5;stroke-miterlimit:4;stroke-dasharray:none"
       id="text447"
       font-size="12.00"
       y="-278.89999"
       x="1182">P22</text>
  </g>
  <path
     d="m 761.18464,241.379 c 17.366,-13.622 49.244,-34.629 80.676,-34.629 0,0 0,0 213.99996,0 27.17,0 58.23,0 79.86,0"
     id="path452"
     inkscape:connector-curvature="0"
     style="fill:none;stroke:#000000;stroke-width:1.5;stroke-miterlimit:4;stroke-dasharray:none" />
  <polygon
     points="1153.95,-285.5 1163.95,-282 1153.95,-278.5 "
     id="polygon454"
     style="fill:#000000;stroke:#000000;stroke-width:1.5;stroke-miterlimit:4;stroke-dasharray:none"
     transform="translate(-18.139358,488.75)" />
  <path
     d="m 762.96364,115.074 c 14.8,-8.502 37.591,-21.595 54.879,-31.527"
     id="path461"
     inkscape:connector-curvature="0"
     style="fill:none;stroke:#000000;stroke-width:1.5;stroke-miterlimit:4;stroke-dasharray:none" />
  <polygon
     points="834.52,-408.399 844.935,-410.345 838.007,-402.329 "
     id="polygon463"
     style="fill:#000000;stroke:#000000;stroke-width:1.5;stroke-miterlimit:4;stroke-dasharray:none"
     transform="translate(-18.139358,488.75)" />
  <path
     d="m 763.76364,130.504 c 5.943,2.42 12.782,5.082 19.097,7.246 79.179,27.132 110.471,6.932 181,52 32.47,20.749 59.76996,56.668 75.50996,80.385"
     id="path470"
     inkscape:connector-curvature="0"
     style="fill:none;stroke:#000000;stroke-width:1.5;stroke-miterlimit:4;stroke-dasharray:none" />
  <polygon
     points="1060.48,-220.478 1062.97,-210.18 1054.6,-216.677 "
     id="polygon472"
     style="fill:#000000;stroke:#000000;stroke-width:1.5;stroke-miterlimit:4;stroke-dasharray:none"
     transform="translate(-18.139358,488.75)" />
  <path
     d="m 764.98664,124.814 c 29.666,2.007 92.469,6.975 144.874,15.936 98.17996,16.789 123.05996,21.867 217.99996,52 3.18,1.01 6.48,2.173 9.73,3.388"
     id="path479"
     inkscape:connector-curvature="0"
     style="fill:none;stroke:#000000;stroke-width:1.5;stroke-miterlimit:4;stroke-dasharray:none" />
  <polygon
     points="1157.12,-295.827 1165.15,-288.911 1154.56,-289.312 "
     id="polygon481"
     style="fill:#000000;stroke:#000000;stroke-width:1.5;stroke-miterlimit:4;stroke-dasharray:none"
     transform="translate(-18.139358,488.75)" />
  <g
     class="node"
     id="node24"
     transform="translate(-18.139358,488.75)"
     style="stroke-width:1.5;stroke-miterlimit:4;stroke-dasharray:none">
    <title
       id="title486">24</title>
    <circle
       style="fill:#b0e0e6;stroke:#000000;stroke-width:1.5;stroke-miterlimit:4;stroke-dasharray:none"
       r="18"
       id="ellipse488"
       cy="-137"
       cx="1182" />
    <text
       style="font-size:12px;font-family:arial;text-anchor:middle;stroke-width:1.5;stroke-miterlimit:4;stroke-dasharray:none"
       id="text490"
       font-size="12.00"
       y="-133.89999"
       x="1182">P23</text>
  </g>
  <path
     d="m 752.49264,382.01328 c 10.107,22.2099 37.496,68.81385 89.368,68.81385 0,0 0,0 159.49996,0 68.93,0 123.51,-48.77031 147.8,-74.88113"
     id="path495"
     inkscape:connector-curvature="0"
     style="fill:none;stroke:#000000;stroke-width:1.5;stroke-miterlimit:4;stroke-dasharray:none" />
  <polygon
     points="1164.4,-114.776 1172.54,-121.551 1170.4,-111.175 "
     id="polygon497"
     style="fill:#000000;stroke:#000000;stroke-width:1.5;stroke-miterlimit:4;stroke-dasharray:none"
     transform="translate(-18.139358,488.75)" />
  <g
     class="node"
     id="node19"
     transform="translate(-18.139358,488.75)"
     style="stroke-width:1.5;stroke-miterlimit:4;stroke-dasharray:none">
    <title
       id="title502">19</title>
    <circle
       style="fill:#b0e0e6;stroke:#000000;stroke-width:1.5;stroke-miterlimit:4;stroke-dasharray:none"
       r="18"
       id="ellipse504"
       cy="-141"
       cx="964" />
    <text
       style="font-size:12px;font-family:arial;text-anchor:middle;stroke-width:1.5;stroke-miterlimit:4;stroke-dasharray:none"
       id="text506"
       font-size="12.00"
       y="-137.89999"
       x="964">P18</text>
  </g>
  <path
     d="m 860.53864,322.704 c 15.811,4.696 39.807,11.824 58.164,17.276"
     id="path511"
     inkscape:connector-curvature="0"
     style="fill:none;stroke:#000000;stroke-width:1.5;stroke-miterlimit:4;stroke-dasharray:none" />
  <polygon
     points="938.043,-152.064 946.632,-145.862 936.05,-145.354 "
     id="polygon513"
     style="fill:#000000;stroke:#000000;stroke-width:1.5;stroke-miterlimit:4;stroke-dasharray:none"
     transform="translate(-18.139358,488.75)" />
  <g
     class="node"
     id="node21"
     transform="translate(-18.139358,488.75)"
     style="stroke-width:1.5;stroke-miterlimit:4;stroke-dasharray:none">
    <title
       id="title518">21</title>
    <circle
       style="fill:#b0e0e6;stroke:#000000;stroke-width:1.5;stroke-miterlimit:4;stroke-dasharray:none"
       r="18"
       id="ellipse520"
       cy="-87"
       cx="964" />
    <text
       style="font-size:12px;font-family:arial;text-anchor:middle;stroke-width:1.5;stroke-miterlimit:4;stroke-dasharray:none"
       id="text522"
       font-size="12.00"
       y="-83.900002"
       x="964">P20</text>
  </g>
  <path
     d="m 855.66564,330.947 c 6.56,7.056 15.027,15.723 23.195,22.803 13.657,11.837 30.091,23.796 43.144,32.816"
     id="path527"
     inkscape:connector-curvature="0"
     style="fill:none;stroke:#000000;stroke-width:1.5;stroke-miterlimit:4;stroke-dasharray:none" />
  <polygon
     points="942.271,-104.97 948.564,-96.4468 938.33,-99.1852 "
     id="polygon529"
     style="fill:#000000;stroke:#000000;stroke-width:1.5;stroke-miterlimit:4;stroke-dasharray:none"
     transform="translate(-18.139358,488.75)" />
  <path
     d="m 860.53564,314.059 c 5.781,-1.184 12.318,-2.419 18.325,-3.309 51.768,-7.671 112.69,-12.692 147.27996,-15.172"
     id="path536"
     inkscape:connector-curvature="0"
     style="fill:none;stroke:#000000;stroke-width:1.5;stroke-miterlimit:4;stroke-dasharray:none" />
  <polygon
     points="1044.32,-196.683 1054.54,-193.888 1044.81,-189.7 "
     id="polygon538"
     style="fill:#000000;stroke:#000000;stroke-width:1.5;stroke-miterlimit:4;stroke-dasharray:none"
     transform="translate(-18.139358,488.75)" />
  <path
     d="m 850.10864,334.729 c 10.924,26.681 36.359,77.1248 77.752,94.021 76.81996,31.3555 171.57996,-28.5095 213.40996,-59.739"
     id="path545"
     inkscape:connector-curvature="0"
     style="fill:none;stroke:#000000;stroke-width:1.5;stroke-miterlimit:4;stroke-dasharray:none" />
  <polygon
     points="1157.44,-122.637 1167.51,-125.926 1161.69,-117.074 "
     id="polygon547"
     style="fill:#000000;stroke:#000000;stroke-width:1.5;stroke-miterlimit:4;stroke-dasharray:none"
     transform="translate(-18.139358,488.75)" />
  <path
     d="m 860.08764,63.805 c 15.903,-5.825 40.391,-14.796 58.967,-21.601"
     id="path554"
     inkscape:connector-curvature="0"
     style="fill:none;stroke:#000000;stroke-width:1.5;stroke-miterlimit:4;stroke-dasharray:none" />
  <polygon
     points="936.219,-449.917 946.813,-450.07 938.627,-443.344 "
     id="polygon556"
     style="fill:#000000;stroke:#000000;stroke-width:1.5;stroke-miterlimit:4;stroke-dasharray:none"
     transform="translate(-18.139358,488.75)" />
  <path
     d="m 861.05564,72.007 c 24.141,3.703 68.92,12.55 102.805,30.743 85.19996,45.746 112.13996,61.375 163.99996,143 15.62,24.579 8.64,35.426 18,63 1.87,5.511 4.05,11.349 6.2,16.887"
     id="path563"
     inkscape:connector-curvature="0"
     style="fill:none;stroke:#000000;stroke-width:1.5;stroke-miterlimit:4;stroke-dasharray:none" />
  <polygon
     points="1173.54,-164.189 1173.99,-153.604 1167.04,-161.596 "
     id="polygon565"
     style="fill:#000000;stroke:#000000;stroke-width:1.5;stroke-miterlimit:4;stroke-dasharray:none"
     transform="translate(-18.139358,488.75)" />
  <path
     d="m 964.17164,348.071 c 37.45896,0.693 126.26896,2.338 171.37896,3.173"
     id="path572"
     inkscape:connector-curvature="0"
     style="fill:none;stroke:#000000;stroke-width:1.5;stroke-miterlimit:4;stroke-dasharray:none" />
  <polygon
     points="1153.97,-141.001 1163.91,-137.317 1153.84,-134.002 "
     id="polygon574"
     style="fill:#000000;stroke:#000000;stroke-width:1.5;stroke-miterlimit:4;stroke-dasharray:none"
     transform="translate(-18.139358,488.75)" />
  <path
     d="m 963.93964,34.889 c 35.531,5.341 117.91096,22.502 163.92096,70.861 18.99,19.963 27.73,50.747 31.72,73.083"
     id="path581"
     inkscape:connector-curvature="0"
     style="fill:none;stroke:#000000;stroke-width:1.5;stroke-miterlimit:4;stroke-dasharray:none" />
  <polygon
     points="1181.18,-310.44 1179.27,-300.017 1174.26,-309.351 "
     id="polygon583"
     style="fill:#000000;stroke:#000000;stroke-width:1.5;stroke-miterlimit:4;stroke-dasharray:none"
     transform="translate(-18.139358,488.75)" />
  <path
     d="m 959.13464,389.361 c 18.365,-18.536 53.17596,-53.671 75.09596,-75.798"
     id="path590"
     inkscape:connector-curvature="0"
     style="fill:none;stroke:#000000;stroke-width:1.5;stroke-miterlimit:4;stroke-dasharray:none" />
  <polygon
     points="1050.01,-177.782 1059.54,-182.423 1054.99,-172.856 "
     id="polygon592"
     style="fill:#000000;stroke:#000000;stroke-width:1.5;stroke-miterlimit:4;stroke-dasharray:none"
     transform="translate(-18.139358,488.75)" />
  <g
     class="node"
     id="node25"
     transform="translate(-18.139358,488.75)"
     style="stroke-width:1.5;stroke-miterlimit:4;stroke-dasharray:none">
    <title
       id="title597">25</title>
    <circle
       style="fill:#b0e0e6;stroke:#000000;stroke-width:1.5;stroke-miterlimit:4;stroke-dasharray:none"
       r="18"
       id="ellipse599"
       cy="-173"
       cx="1285" />
    <text
       style="font-size:12px;font-family:arial;text-anchor:middle;stroke-width:1.5;stroke-miterlimit:4;stroke-dasharray:none"
       id="text601"
       font-size="12.00"
       y="-169.89999"
       x="1285">P24</text>
  </g>
  <path
     d="m 964.08564,403.1004 c 39.83496,2.486 140.82496,5.1071 217.77496,-24.3504 24.79,-9.49 48.56,-28.568 64.44,-43.255"
     id="path606"
     inkscape:connector-curvature="0"
     style="fill:none;stroke:#000000;stroke-width:1.5;stroke-miterlimit:4;stroke-dasharray:none" />
  <polygon
     points="1262.34,-156.091 1272,-160.462 1267.18,-151.026 "
     id="polygon608"
     style="fill:#000000;stroke:#000000;stroke-width:1.5;stroke-miterlimit:4;stroke-dasharray:none"
     transform="translate(-18.139358,488.75)" />
  <path
     d="m 1069.4106,282.731 c 18.17,-14.773 50.62,-41.16 72.1,-58.619"
     id="path615"
     inkscape:connector-curvature="0"
     style="fill:none;stroke:#000000;stroke-width:1.5;stroke-miterlimit:4;stroke-dasharray:none" />
  <polygon
     points="1157.59,-267.478 1167.56,-271.071 1162.01,-262.047 "
     id="polygon617"
     style="fill:#000000;stroke:#000000;stroke-width:1.5;stroke-miterlimit:4;stroke-dasharray:none"
     transform="translate(-18.139358,488.75)" />
  <path
     d="m 1068.9306,305.093 c 6.35,5.176 14.26,11.143 21.93,15.657 14.63,8.608 32.1,16.187 46.16,21.696"
     id="path624"
     inkscape:connector-curvature="0"
     style="fill:none;stroke:#000000;stroke-width:1.5;stroke-miterlimit:4;stroke-dasharray:none" />
  <polygon
     points="1156.61,-149.498 1164.71,-142.673 1154.12,-142.955 "
     id="polygon626"
     style="fill:#000000;stroke:#000000;stroke-width:1.5;stroke-miterlimit:4;stroke-dasharray:none"
     transform="translate(-18.139358,488.75)" />
  <path
     d="m 1073.2806,295.18 c 31.49,2.644 100,8.663 157.58,15.57 2.56,0.307 5.22,0.648 7.88,1.003"
     id="path633"
     inkscape:connector-curvature="0"
     style="fill:none;stroke:#000000;stroke-width:1.5;stroke-miterlimit:4;stroke-dasharray:none" />
  <polygon
     points="1257.51,-180.443 1266.93,-175.596 1256.54,-173.51 "
     id="polygon635"
     style="fill:#000000;stroke:#000000;stroke-width:1.5;stroke-miterlimit:4;stroke-dasharray:none"
     transform="translate(-18.139358,488.75)" />
  <path
     d="m 1176.8406,219.682 c 17.31,18.683 49.5,53.414 70.05,75.6"
     id="path642"
     inkscape:connector-curvature="0"
     style="fill:none;stroke:#000000;stroke-width:1.5;stroke-miterlimit:4;stroke-dasharray:none" />
  <polygon
     points="1267.8,-195.629 1272.03,-185.915 1262.67,-190.871 "
     id="polygon644"
     style="fill:#000000;stroke:#000000;stroke-width:1.5;stroke-miterlimit:4;stroke-dasharray:none"
     transform="translate(-18.139358,488.75)" />
  <path
     d="m 1181.0906,345.966 c 15.9,-5.668 40.39,-14.397 58.96,-21.018"
     id="path651"
     inkscape:connector-curvature="0"
     style="fill:none;stroke:#000000;stroke-width:1.5;stroke-miterlimit:4;stroke-dasharray:none" />
  <polygon
     points="1257.22,-167.17 1267.81,-167.23 1259.57,-160.576 "
     id="polygon653"
     style="fill:#000000;stroke:#000000;stroke-width:1.5;stroke-miterlimit:4;stroke-dasharray:none"
     transform="translate(-18.139358,488.75)" />
  <g
     class="node"
     id="node27"
     transform="translate(-52.909423,489.17403)"
     style="stroke-width:1.5;stroke-miterlimit:4;stroke-dasharray:none">
    <title
       id="title658">27</title>
    <circle
       style="fill:#e9967a;stroke:#000000;stroke-width:1.5;stroke-miterlimit:4;stroke-dasharray:none"
       r="18"
       id="ellipse660"
       cy="-173"
       cx="1394" />
    <text
       style="font-size:12px;font-family:arial;text-anchor:middle;stroke-width:1.5;stroke-miterlimit:4;stroke-dasharray:none"
       id="text662"
       font-size="12.00"
       y="-169.89999"
       x="1394">Sink</text>
  </g>
  <g
     id="g5726"
     transform="matrix(0.51221095,0,0,1.0809782,615.74763,-29.082055)">
    <path
       style="fill:none;stroke:#000000;stroke-width:1.5;stroke-miterlimit:4;stroke-dasharray:none"
       inkscape:connector-curvature="0"
       id="path667"
       d="m 1307.19,319 c 16.85,0 42.79,0 62.47,0" />
    <polygon
       transform="translate(4,492)"
       style="fill:#000000;stroke:#000000;stroke-width:1.5;stroke-miterlimit:4;stroke-dasharray:none"
       id="polygon669"
       points="1375.85,-173 1365.85,-169.5 1365.85,-176.5 " />
  </g>
  <g
     class="node"
     id="node26"
     transform="translate(0.75,488.75)"
     style="stroke-width:1.5;stroke-miterlimit:4;stroke-dasharray:none">
    <title
       id="title674">26</title>
    <circle
       style="fill:#228b22;stroke:#000000;stroke-width:1.5;stroke-miterlimit:4;stroke-dasharray:none"
       r="18"
       id="ellipse676"
       cy="-190"
       cx="18" />
    <text
       style="font-size:10px;font-family:arial;text-anchor:middle;stroke-width:1.5;stroke-miterlimit:4;stroke-dasharray:none"
       id="text678"
       font-size="10.00"
       y="-187.5"
       x="18">Source</text>
  </g>
  <g
     id="g5730"
     transform="matrix(0.65267607,0,0,1,10.108731,-3.25)">
    <path
       style="fill:none;stroke:#000000;stroke-width:1.5;stroke-miterlimit:4;stroke-dasharray:none"
       inkscape:connector-curvature="0"
       id="path683"
       d="m 40.1884,302 c 12.1542,0 28.6981,0 42.6301,0" />
    <polygon
       transform="translate(4,492)"
       style="fill:#000000;stroke:#000000;stroke-width:1.5;stroke-miterlimit:4;stroke-dasharray:none"
       id="polygon685"
       points="88.8473,-190 78.8473,-186.5 78.8473,-193.5 " />
  </g>
</svg>
