<?xml version="1.0" encoding="UTF-8" standalone="no"?>
<!DOCTYPE svg PUBLIC "-//W3C//DTD SVG 1.1//EN"
 "http://www.w3.org/Graphics/SVG/1.1/DTD/svg11.dtd">
<!-- Generated by graphviz version 2.38.0 (20140413.2041)
 -->
<!-- Title: %3 Pages: 1 -->
<svg width="716pt" height="152pt"
 viewBox="0.00 0.00 716.00 152.00" xmlns="http://www.w3.org/2000/svg" xmlns:xlink="http://www.w3.org/1999/xlink">
<g id="graph0" class="graph" transform="scale(1 1) rotate(0) translate(4 148)">
<title>%3</title>
<polygon fill="white" stroke="none" points="-4,4 -4,-148 712,-148 712,4 -4,4"/>
<!-- 1 -->
<g id="node1" class="node"><title>1</title>
<ellipse fill="powderblue" stroke="black" cx="107" cy="-65" rx="18" ry="18"/>
<text text-anchor="middle" x="107" y="-61.9" font-family="arial" font-size="12.00">P0</text>
</g>
<!-- 2 -->
<g id="node2" class="node"><title>2</title>
<ellipse fill="powderblue" stroke="black" cx="196" cy="-97" rx="18" ry="18"/>
<text text-anchor="middle" x="196" y="-93.9" font-family="arial" font-size="12.00">P1</text>
</g>
<!-- 1&#45;&gt;2 -->
<g id="edge1" class="edge"><title>1&#45;&gt;2</title>
<path fill="none" stroke="black" d="M124.364,-71.019C137.002,-75.6673 154.727,-82.1871 169.26,-87.5325"/>
<polygon fill="black" stroke="black" points="168.116,-90.8408 178.709,-91.008 170.532,-84.2711 168.116,-90.8408"/>
<text text-anchor="middle" x="151.5" y="-86.4" font-family="arial" font-size="12.00">1.0</text>
</g>
<!-- 3 -->
<g id="node3" class="node"><title>3</title>
<ellipse fill="powderblue" stroke="black" cx="196" cy="-43" rx="18" ry="18"/>
<text text-anchor="middle" x="196" y="-39.9" font-family="arial" font-size="12.00">P2</text>
</g>
<!-- 1&#45;&gt;3 -->
<g id="edge2" class="edge"><title>1&#45;&gt;3</title>
<path fill="none" stroke="black" d="M124.774,-60.7582C137.171,-57.6234 154.296,-53.293 168.531,-49.6933"/>
<polygon fill="black" stroke="black" points="169.44,-53.0736 178.277,-47.2288 167.724,-46.2872 169.44,-53.0736"/>
<text text-anchor="middle" x="151.5" y="-59.4" font-family="arial" font-size="12.00">2.0</text>
</g>
<!-- 4 -->
<g id="node4" class="node"><title>4</title>
<ellipse fill="powderblue" stroke="black" cx="285" cy="-72" rx="18" ry="18"/>
<text text-anchor="middle" x="285" y="-68.9" font-family="arial" font-size="12.00">P3</text>
</g>
<!-- 2&#45;&gt;4 -->
<g id="edge3" class="edge"><title>2&#45;&gt;4</title>
<path fill="none" stroke="black" d="M213.774,-92.1797C226.251,-88.5946 243.516,-83.6334 257.805,-79.5274"/>
<polygon fill="black" stroke="black" points="258.928,-82.8464 267.572,-76.7207 256.994,-76.1187 258.928,-82.8464"/>
<text text-anchor="middle" x="240.5" y="-89.4" font-family="arial" font-size="12.00">8.0</text>
</g>
<!-- 3&#45;&gt;4 -->
<g id="edge4" class="edge"><title>3&#45;&gt;4</title>
<path fill="none" stroke="black" d="M213.364,-48.4547C225.88,-52.6268 243.387,-58.4623 257.84,-63.28"/>
<polygon fill="black" stroke="black" points="257.116,-66.7278 267.709,-66.5698 259.329,-60.087 257.116,-66.7278"/>
<text text-anchor="middle" x="240.5" y="-64.4" font-family="arial" font-size="12.00">2.0</text>
</g>
<!-- 5 -->
<g id="node5" class="node"><title>5</title>
<ellipse fill="powderblue" stroke="black" cx="388" cy="-126" rx="18" ry="18"/>
<text text-anchor="middle" x="388" y="-122.9" font-family="arial" font-size="12.00">P4</text>
</g>
<!-- 4&#45;&gt;5 -->
<g id="edge5" class="edge"><title>4&#45;&gt;5</title>
<path fill="none" stroke="black" d="M301.34,-80.2014C317.674,-88.9346 343.751,-102.877 362.847,-113.086"/>
<polygon fill="black" stroke="black" points="361.378,-116.27 371.847,-117.898 364.678,-110.097 361.378,-116.27"/>
<text text-anchor="middle" x="336.5" y="-109.4" font-family="arial" font-size="12.00">4.0</text>
</g>
<!-- 6 -->
<g id="node6" class="node"><title>6</title>
<ellipse fill="powderblue" stroke="black" cx="388" cy="-72" rx="18" ry="18"/>
<text text-anchor="middle" x="388" y="-68.9" font-family="arial" font-size="12.00">P5</text>
</g>
<!-- 4&#45;&gt;6 -->
<g id="edge6" class="edge"><title>4&#45;&gt;6</title>
<path fill="none" stroke="black" d="M303.133,-72C318.586,-72 341.584,-72 359.591,-72"/>
<polygon fill="black" stroke="black" points="359.783,-75.5001 369.783,-72 359.783,-68.5001 359.783,-75.5001"/>
<text text-anchor="middle" x="336.5" y="-75.4" font-family="arial" font-size="12.00">16.0</text>
</g>
<!-- 7 -->
<g id="node7" class="node"><title>7</title>
<ellipse fill="powderblue" stroke="black" cx="388" cy="-18" rx="18" ry="18"/>
<text text-anchor="middle" x="388" y="-14.9" font-family="arial" font-size="12.00">P6</text>
</g>
<!-- 4&#45;&gt;7 -->
<g id="edge7" class="edge"><title>4&#45;&gt;7</title>
<path fill="none" stroke="black" d="M301.34,-63.7986C317.674,-55.0654 343.751,-41.1234 362.847,-30.9137"/>
<polygon fill="black" stroke="black" points="364.678,-33.9032 371.847,-26.1017 361.378,-27.7301 364.678,-33.9032"/>
<text text-anchor="middle" x="336.5" y="-56.4" font-family="arial" font-size="12.00">0.667</text>
</g>
<!-- 8 -->
<g id="node8" class="node"><title>8</title>
<ellipse fill="powderblue" stroke="black" cx="484" cy="-72" rx="18" ry="18"/>
<text text-anchor="middle" x="484" y="-68.9" font-family="arial" font-size="12.00">P7</text>
</g>
<!-- 5&#45;&gt;8 -->
<g id="edge8" class="edge"><title>5&#45;&gt;8</title>
<path fill="none" stroke="black" d="M404.103,-117.324C418.903,-108.822 441.694,-95.7288 458.982,-85.7975"/>
<polygon fill="black" stroke="black" points="461.007,-88.6707 467.935,-80.6545 457.52,-82.6009 461.007,-88.6707"/>
<text text-anchor="middle" x="436" y="-108.4" font-family="arial" font-size="12.00">6.67</text>
</g>
<!-- 6&#45;&gt;8 -->
<g id="edge9" class="edge"><title>6&#45;&gt;8</title>
<path fill="none" stroke="black" d="M406.241,-72C420.022,-72 439.6,-72 455.535,-72"/>
<polygon fill="black" stroke="black" points="455.868,-75.5001 465.868,-72 455.868,-68.5001 455.868,-75.5001"/>
<text text-anchor="middle" x="436" y="-75.4" font-family="arial" font-size="12.00">5.33</text>
</g>
<!-- 7&#45;&gt;8 -->
<g id="edge10" class="edge"><title>7&#45;&gt;8</title>
<path fill="none" stroke="black" d="M404.103,-26.676C418.903,-35.1785 441.694,-48.2712 458.982,-58.2025"/>
<polygon fill="black" stroke="black" points="457.52,-61.3991 467.935,-63.3455 461.007,-55.3293 457.52,-61.3991"/>
<text text-anchor="middle" x="436" y="-55.4" font-family="arial" font-size="12.00">1.33</text>
</g>
<!-- 9 -->
<g id="node9" class="node"><title>9</title>
<ellipse fill="powderblue" stroke="black" cx="587" cy="-72" rx="18" ry="18"/>
<text text-anchor="middle" x="587" y="-68.9" font-family="arial" font-size="12.00">P8</text>
</g>
<!-- 8&#45;&gt;9 -->
<g id="edge11" class="edge"><title>8&#45;&gt;9</title>
<path fill="none" stroke="black" d="M502.133,-72C517.586,-72 540.584,-72 558.591,-72"/>
<polygon fill="black" stroke="black" points="558.783,-75.5001 568.783,-72 558.783,-68.5001 558.783,-75.5001"/>
<text text-anchor="middle" x="535.5" y="-75.4" font-family="arial" font-size="12.00">0.533</text>
</g>
<!-- 11 -->
<g id="node11" class="node"><title>11</title>
<ellipse fill="darksalmon" stroke="black" cx="690" cy="-72" rx="18" ry="18"/>
<text text-anchor="middle" x="690" y="-68.9" font-family="arial" font-size="12.00">Sink</text>
</g>
<!-- 9&#45;&gt;11 -->
<g id="edge13" class="edge"><title>9&#45;&gt;11</title>
<path fill="none" stroke="black" d="M605.133,-72C620.586,-72 643.584,-72 661.591,-72"/>
<polygon fill="black" stroke="black" points="661.783,-75.5001 671.783,-72 661.783,-68.5001 661.783,-75.5001"/>
<text text-anchor="middle" x="638.5" y="-75.4" font-family="arial" font-size="12.00">0.267</text>
</g>
<!-- 10 -->
<g id="node10" class="node"><title>10</title>
<ellipse fill="forestgreen" stroke="black" cx="18" cy="-65" rx="18" ry="18"/>
<text text-anchor="middle" x="18" y="-62.5" font-family="arial" font-size="10.00">Source</text>
</g>
<!-- 10&#45;&gt;1 -->
<g id="edge12" class="edge"><title>10&#45;&gt;1</title>
<path fill="none" stroke="black" d="M36.1884,-65C48.3426,-65 64.8865,-65 78.8185,-65"/>
<polygon fill="black" stroke="black" points="78.8473,-68.5001 88.8473,-65 78.8473,-61.5001 78.8473,-68.5001"/>
<text text-anchor="middle" x="62.5" y="-68.4" font-family="arial" font-size="12.00">1.0</text>
</g>
</g>
</svg>
