<?xml version="1.0" encoding="UTF-8" standalone="no"?>
<!DOCTYPE svg PUBLIC "-//W3C//DTD SVG 1.1//EN"
 "http://www.w3.org/Graphics/SVG/1.1/DTD/svg11.dtd">
<!-- Generated by graphviz version 2.38.0 (20140413.2041)
 -->
<!-- Title: %3 Pages: 1 -->
<svg width="695pt" height="152pt"
 viewBox="0.00 0.00 695.00 152.00" xmlns="http://www.w3.org/2000/svg" xmlns:xlink="http://www.w3.org/1999/xlink">
<g id="graph0" class="graph" transform="scale(1 1) rotate(0) translate(4 148)">
<title>%3</title>
<polygon fill="white" stroke="none" points="-4,4 -4,-148 691,-148 691,4 -4,4"/>
<!-- 1 -->
<g id="node1" class="node"><title>1</title>
<ellipse fill="powderblue" stroke="black" cx="107" cy="-72" rx="18" ry="18"/>
<text text-anchor="middle" x="107" y="-68.9" font-family="arial" font-size="12.00">P0</text>
</g>
<!-- 2 -->
<g id="node2" class="node"><title>2</title>
<ellipse fill="powderblue" stroke="black" cx="196" cy="-72" rx="18" ry="18"/>
<text text-anchor="middle" x="196" y="-68.9" font-family="arial" font-size="12.00">P1</text>
</g>
<!-- 1&#45;&gt;2 -->
<g id="edge1" class="edge"><title>1&#45;&gt;2</title>
<path fill="none" stroke="black" d="M125.188,-72C137.343,-72 153.886,-72 167.818,-72"/>
<polygon fill="black" stroke="black" points="167.847,-75.5001 177.847,-72 167.847,-68.5001 167.847,-75.5001"/>
<text text-anchor="middle" x="151.5" y="-75.4" font-family="arial" font-size="12.00">1.5</text>
</g>
<!-- 3 -->
<g id="node3" class="node"><title>3</title>
<ellipse fill="powderblue" stroke="black" cx="285" cy="-126" rx="18" ry="18"/>
<text text-anchor="middle" x="285" y="-122.9" font-family="arial" font-size="12.00">P2</text>
</g>
<!-- 2&#45;&gt;3 -->
<g id="edge2" class="edge"><title>2&#45;&gt;3</title>
<path fill="none" stroke="black" d="M211.758,-81.1604C225.132,-89.4612 245.066,-101.834 260.608,-111.481"/>
<polygon fill="black" stroke="black" points="258.827,-114.495 269.169,-116.795 262.519,-108.547 258.827,-114.495"/>
<text text-anchor="middle" x="240.5" y="-106.4" font-family="arial" font-size="12.00">3.5</text>
</g>
<!-- 4 -->
<g id="node4" class="node"><title>4</title>
<ellipse fill="powderblue" stroke="black" cx="285" cy="-72" rx="18" ry="18"/>
<text text-anchor="middle" x="285" y="-68.9" font-family="arial" font-size="12.00">P3</text>
</g>
<!-- 2&#45;&gt;4 -->
<g id="edge3" class="edge"><title>2&#45;&gt;4</title>
<path fill="none" stroke="black" d="M214.188,-72C226.343,-72 242.886,-72 256.818,-72"/>
<polygon fill="black" stroke="black" points="256.847,-75.5001 266.847,-72 256.847,-68.5001 256.847,-75.5001"/>
<text text-anchor="middle" x="240.5" y="-75.4" font-family="arial" font-size="12.00">4.5</text>
</g>
<!-- 5 -->
<g id="node5" class="node"><title>5</title>
<ellipse fill="powderblue" stroke="black" cx="285" cy="-18" rx="18" ry="18"/>
<text text-anchor="middle" x="285" y="-14.9" font-family="arial" font-size="12.00">P4</text>
</g>
<!-- 2&#45;&gt;5 -->
<g id="edge4" class="edge"><title>2&#45;&gt;5</title>
<path fill="none" stroke="black" d="M211.758,-62.8396C225.132,-54.5388 245.066,-42.1662 260.608,-32.519"/>
<polygon fill="black" stroke="black" points="262.519,-35.4527 269.169,-27.2053 258.827,-29.5052 262.519,-35.4527"/>
<text text-anchor="middle" x="240.5" y="-53.4" font-family="arial" font-size="12.00">1.5</text>
</g>
<!-- 6 -->
<g id="node6" class="node"><title>6</title>
<ellipse fill="powderblue" stroke="black" cx="381" cy="-72" rx="18" ry="18"/>
<text text-anchor="middle" x="381" y="-68.9" font-family="arial" font-size="12.00">P5</text>
</g>
<!-- 3&#45;&gt;6 -->
<g id="edge5" class="edge"><title>3&#45;&gt;6</title>
<path fill="none" stroke="black" d="M301.103,-117.324C315.903,-108.822 338.694,-95.7288 355.982,-85.7975"/>
<polygon fill="black" stroke="black" points="358.007,-88.6707 364.935,-80.6545 354.52,-82.6009 358.007,-88.6707"/>
<text text-anchor="middle" x="333" y="-108.4" font-family="arial" font-size="12.00">7.0</text>
</g>
<!-- 4&#45;&gt;6 -->
<g id="edge6" class="edge"><title>4&#45;&gt;6</title>
<path fill="none" stroke="black" d="M303.241,-72C317.022,-72 336.6,-72 352.535,-72"/>
<polygon fill="black" stroke="black" points="352.868,-75.5001 362.868,-72 352.868,-68.5001 352.868,-75.5001"/>
<text text-anchor="middle" x="333" y="-75.4" font-family="arial" font-size="12.00">20.2</text>
</g>
<!-- 5&#45;&gt;6 -->
<g id="edge7" class="edge"><title>5&#45;&gt;6</title>
<path fill="none" stroke="black" d="M301.103,-26.676C315.903,-35.1785 338.694,-48.2712 355.982,-58.2025"/>
<polygon fill="black" stroke="black" points="354.52,-61.3991 364.935,-63.3455 358.007,-55.3293 354.52,-61.3991"/>
<text text-anchor="middle" x="333" y="-55.4" font-family="arial" font-size="12.00">1.5</text>
</g>
<!-- 7 -->
<g id="node7" class="node"><title>7</title>
<ellipse fill="powderblue" stroke="black" cx="477" cy="-104" rx="18" ry="18"/>
<text text-anchor="middle" x="477" y="-100.9" font-family="arial" font-size="12.00">P6</text>
</g>
<!-- 6&#45;&gt;7 -->
<g id="edge8" class="edge"><title>6&#45;&gt;7</title>
<path fill="none" stroke="black" d="M398.374,-77.574C412.661,-82.4379 433.637,-89.5786 450.183,-95.2114"/>
<polygon fill="black" stroke="black" points="449.22,-98.5805 459.814,-98.4899 451.476,-91.9539 449.22,-98.5805"/>
<text text-anchor="middle" x="429" y="-94.4" font-family="arial" font-size="12.00">4.5</text>
</g>
<!-- 8 -->
<g id="node8" class="node"><title>8</title>
<ellipse fill="powderblue" stroke="black" cx="477" cy="-50" rx="18" ry="18"/>
<text text-anchor="middle" x="477" y="-46.9" font-family="arial" font-size="12.00">P7</text>
</g>
<!-- 6&#45;&gt;8 -->
<g id="edge9" class="edge"><title>6&#45;&gt;8</title>
<path fill="none" stroke="black" d="M398.805,-68.0668C412.841,-64.782 433.106,-60.039 449.351,-56.237"/>
<polygon fill="black" stroke="black" points="450.401,-59.5859 459.34,-53.8991 448.806,-52.7701 450.401,-59.5859"/>
<text text-anchor="middle" x="429" y="-67.4" font-family="arial" font-size="12.00">30.4</text>
</g>
<!-- 9 -->
<g id="node9" class="node"><title>9</title>
<ellipse fill="powderblue" stroke="black" cx="573" cy="-79" rx="18" ry="18"/>
<text text-anchor="middle" x="573" y="-75.9" font-family="arial" font-size="12.00">P8</text>
</g>
<!-- 7&#45;&gt;9 -->
<g id="edge10" class="edge"><title>7&#45;&gt;9</title>
<path fill="none" stroke="black" d="M494.805,-99.5305C508.841,-95.7977 529.106,-90.408 545.351,-86.0874"/>
<polygon fill="black" stroke="black" points="546.576,-89.3835 555.34,-83.4308 544.777,-82.6187 546.576,-89.3835"/>
<text text-anchor="middle" x="525" y="-97.4" font-family="arial" font-size="12.00">3.6</text>
</g>
<!-- 8&#45;&gt;9 -->
<g id="edge11" class="edge"><title>8&#45;&gt;9</title>
<path fill="none" stroke="black" d="M494.374,-55.0514C508.574,-59.4324 529.382,-65.8517 545.88,-70.9418"/>
<polygon fill="black" stroke="black" points="544.911,-74.3056 555.499,-73.9092 546.975,-67.6166 544.911,-74.3056"/>
<text text-anchor="middle" x="525" y="-71.4" font-family="arial" font-size="12.00">5.06</text>
</g>
<!-- 11 -->
<g id="node11" class="node"><title>11</title>
<ellipse fill="darksalmon" stroke="black" cx="669" cy="-79" rx="18" ry="18"/>
<text text-anchor="middle" x="669" y="-75.9" font-family="arial" font-size="12.00">Sink</text>
</g>
<!-- 9&#45;&gt;11 -->
<g id="edge13" class="edge"><title>9&#45;&gt;11</title>
<path fill="none" stroke="black" d="M591.241,-79C605.022,-79 624.6,-79 640.535,-79"/>
<polygon fill="black" stroke="black" points="640.868,-82.5001 650.868,-79 640.868,-75.5001 640.868,-82.5001"/>
<text text-anchor="middle" x="621" y="-82.4" font-family="arial" font-size="12.00">5.06</text>
</g>
<!-- 10 -->
<g id="node10" class="node"><title>10</title>
<ellipse fill="forestgreen" stroke="black" cx="18" cy="-72" rx="18" ry="18"/>
<text text-anchor="middle" x="18" y="-69.5" font-family="arial" font-size="10.00">Source</text>
</g>
<!-- 10&#45;&gt;1 -->
<g id="edge12" class="edge"><title>10&#45;&gt;1</title>
<path fill="none" stroke="black" d="M36.1884,-72C48.3426,-72 64.8865,-72 78.8185,-72"/>
<polygon fill="black" stroke="black" points="78.8473,-75.5001 88.8473,-72 78.8473,-68.5001 78.8473,-75.5001"/>
<text text-anchor="middle" x="62.5" y="-75.4" font-family="arial" font-size="12.00">1.0</text>
</g>
</g>
</svg>
