<?xml version="1.0" encoding="UTF-8" standalone="no"?>
<!DOCTYPE svg PUBLIC "-//W3C//DTD SVG 1.1//EN"
 "http://www.w3.org/Graphics/SVG/1.1/DTD/svg11.dtd">
<!-- Generated by graphviz version 2.38.0 (20140413.2041)
 -->
<!-- Title: %3 Pages: 1 -->
<svg width="784pt" height="152pt"
 viewBox="0.00 0.00 784.00 152.00" xmlns="http://www.w3.org/2000/svg" xmlns:xlink="http://www.w3.org/1999/xlink">
<g id="graph0" class="graph" transform="scale(1 1) rotate(0) translate(4 148)">
<title>%3</title>
<polygon fill="white" stroke="none" points="-4,4 -4,-148 780,-148 780,4 -4,4"/>
<!-- 1 -->
<g id="node1" class="node"><title>1</title>
<ellipse fill="powderblue" stroke="black" cx="107" cy="-72" rx="18" ry="18"/>
<text text-anchor="middle" x="107" y="-68.9" font-family="arial" font-size="12.00">P0</text>
</g>
<!-- 2 -->
<g id="node2" class="node"><title>2</title>
<ellipse fill="powderblue" stroke="black" cx="196" cy="-72" rx="18" ry="18"/>
<text text-anchor="middle" x="196" y="-68.9" font-family="arial" font-size="12.00">P1</text>
</g>
<!-- 1&#45;&gt;2 -->
<g id="edge1" class="edge"><title>1&#45;&gt;2</title>
<path fill="none" stroke="black" d="M125.188,-72C137.343,-72 153.886,-72 167.818,-72"/>
<polygon fill="black" stroke="black" points="167.847,-75.5001 177.847,-72 167.847,-68.5001 167.847,-75.5001"/>
<text text-anchor="middle" x="151.5" y="-75.4" font-family="arial" font-size="12.00">5.0</text>
</g>
<!-- 3 -->
<g id="node3" class="node"><title>3</title>
<ellipse fill="powderblue" stroke="black" cx="292" cy="-72" rx="18" ry="18"/>
<text text-anchor="middle" x="292" y="-68.9" font-family="arial" font-size="12.00">P2</text>
</g>
<!-- 2&#45;&gt;3 -->
<g id="edge2" class="edge"><title>2&#45;&gt;3</title>
<path fill="none" stroke="black" d="M214.241,-72C228.022,-72 247.6,-72 263.535,-72"/>
<polygon fill="black" stroke="black" points="263.868,-75.5001 273.868,-72 263.868,-68.5001 263.868,-75.5001"/>
<text text-anchor="middle" x="244" y="-75.4" font-family="arial" font-size="12.00">10.0</text>
</g>
<!-- 4 -->
<g id="node4" class="node"><title>4</title>
<ellipse fill="powderblue" stroke="black" cx="388" cy="-126" rx="18" ry="18"/>
<text text-anchor="middle" x="388" y="-122.9" font-family="arial" font-size="12.00">P3</text>
</g>
<!-- 3&#45;&gt;4 -->
<g id="edge3" class="edge"><title>3&#45;&gt;4</title>
<path fill="none" stroke="black" d="M308.103,-80.676C322.903,-89.1785 345.694,-102.271 362.982,-112.203"/>
<polygon fill="black" stroke="black" points="361.52,-115.399 371.935,-117.345 365.007,-109.329 361.52,-115.399"/>
<text text-anchor="middle" x="340" y="-108.4" font-family="arial" font-size="12.00">20.0</text>
</g>
<!-- 5 -->
<g id="node5" class="node"><title>5</title>
<ellipse fill="powderblue" stroke="black" cx="388" cy="-72" rx="18" ry="18"/>
<text text-anchor="middle" x="388" y="-68.9" font-family="arial" font-size="12.00">P4</text>
</g>
<!-- 3&#45;&gt;5 -->
<g id="edge4" class="edge"><title>3&#45;&gt;5</title>
<path fill="none" stroke="black" d="M310.241,-72C324.022,-72 343.6,-72 359.535,-72"/>
<polygon fill="black" stroke="black" points="359.868,-75.5001 369.868,-72 359.868,-68.5001 359.868,-75.5001"/>
<text text-anchor="middle" x="340" y="-75.4" font-family="arial" font-size="12.00">10.0</text>
</g>
<!-- 6 -->
<g id="node6" class="node"><title>6</title>
<ellipse fill="powderblue" stroke="black" cx="388" cy="-18" rx="18" ry="18"/>
<text text-anchor="middle" x="388" y="-14.9" font-family="arial" font-size="12.00">P5</text>
</g>
<!-- 3&#45;&gt;6 -->
<g id="edge5" class="edge"><title>3&#45;&gt;6</title>
<path fill="none" stroke="black" d="M308.103,-63.324C322.903,-54.8215 345.694,-41.7288 362.982,-31.7975"/>
<polygon fill="black" stroke="black" points="365.007,-34.6707 371.935,-26.6545 361.52,-28.6009 365.007,-34.6707"/>
<text text-anchor="middle" x="340" y="-55.4" font-family="arial" font-size="12.00">40.0</text>
</g>
<!-- 7 -->
<g id="node7" class="node"><title>7</title>
<ellipse fill="powderblue" stroke="black" cx="484" cy="-72" rx="18" ry="18"/>
<text text-anchor="middle" x="484" y="-68.9" font-family="arial" font-size="12.00">P6</text>
</g>
<!-- 4&#45;&gt;7 -->
<g id="edge6" class="edge"><title>4&#45;&gt;7</title>
<path fill="none" stroke="black" d="M404.103,-117.324C418.903,-108.822 441.694,-95.7288 458.982,-85.7975"/>
<polygon fill="black" stroke="black" points="461.007,-88.6707 467.935,-80.6545 457.52,-82.6009 461.007,-88.6707"/>
<text text-anchor="middle" x="436" y="-108.4" font-family="arial" font-size="12.00">40.0</text>
</g>
<!-- 5&#45;&gt;7 -->
<g id="edge7" class="edge"><title>5&#45;&gt;7</title>
<path fill="none" stroke="black" d="M406.241,-72C420.022,-72 439.6,-72 455.535,-72"/>
<polygon fill="black" stroke="black" points="455.868,-75.5001 465.868,-72 455.868,-68.5001 455.868,-75.5001"/>
<text text-anchor="middle" x="436" y="-75.4" font-family="arial" font-size="12.00">6.0</text>
</g>
<!-- 6&#45;&gt;7 -->
<g id="edge8" class="edge"><title>6&#45;&gt;7</title>
<path fill="none" stroke="black" d="M404.103,-26.676C418.903,-35.1785 441.694,-48.2712 458.982,-58.2025"/>
<polygon fill="black" stroke="black" points="457.52,-61.3991 467.935,-63.3455 461.007,-55.3293 457.52,-61.3991"/>
<text text-anchor="middle" x="436" y="-55.4" font-family="arial" font-size="12.00">40.0</text>
</g>
<!-- 8 -->
<g id="node8" class="node"><title>8</title>
<ellipse fill="powderblue" stroke="black" cx="580" cy="-72" rx="18" ry="18"/>
<text text-anchor="middle" x="580" y="-68.9" font-family="arial" font-size="12.00">P7</text>
</g>
<!-- 7&#45;&gt;8 -->
<g id="edge9" class="edge"><title>7&#45;&gt;8</title>
<path fill="none" stroke="black" d="M502.241,-72C516.022,-72 535.6,-72 551.535,-72"/>
<polygon fill="black" stroke="black" points="551.868,-75.5001 561.868,-72 551.868,-68.5001 551.868,-75.5001"/>
<text text-anchor="middle" x="532" y="-75.4" font-family="arial" font-size="12.00">12.0</text>
</g>
<!-- 9 -->
<g id="node9" class="node"><title>9</title>
<ellipse fill="powderblue" stroke="black" cx="669" cy="-72" rx="18" ry="18"/>
<text text-anchor="middle" x="669" y="-68.9" font-family="arial" font-size="12.00">P8</text>
</g>
<!-- 8&#45;&gt;9 -->
<g id="edge10" class="edge"><title>8&#45;&gt;9</title>
<path fill="none" stroke="black" d="M598.188,-72C610.343,-72 626.886,-72 640.818,-72"/>
<polygon fill="black" stroke="black" points="640.847,-75.5001 650.847,-72 640.847,-68.5001 640.847,-75.5001"/>
<text text-anchor="middle" x="624.5" y="-75.4" font-family="arial" font-size="12.00">6.0</text>
</g>
<!-- 11 -->
<g id="node11" class="node"><title>11</title>
<ellipse fill="darksalmon" stroke="black" cx="758" cy="-72" rx="18" ry="18"/>
<text text-anchor="middle" x="758" y="-68.9" font-family="arial" font-size="12.00">Sink</text>
</g>
<!-- 9&#45;&gt;11 -->
<g id="edge12" class="edge"><title>9&#45;&gt;11</title>
<path fill="none" stroke="black" d="M687.188,-72C699.343,-72 715.886,-72 729.818,-72"/>
<polygon fill="black" stroke="black" points="729.847,-75.5001 739.847,-72 729.847,-68.5001 729.847,-75.5001"/>
<text text-anchor="middle" x="713.5" y="-75.4" font-family="arial" font-size="12.00">6.0</text>
</g>
<!-- 10 -->
<g id="node10" class="node"><title>10</title>
<ellipse fill="forestgreen" stroke="black" cx="18" cy="-72" rx="18" ry="18"/>
<text text-anchor="middle" x="18" y="-69.5" font-family="arial" font-size="10.00">Source</text>
</g>
<!-- 10&#45;&gt;1 -->
<g id="edge11" class="edge"><title>10&#45;&gt;1</title>
<path fill="none" stroke="black" d="M36.1884,-72C48.3426,-72 64.8865,-72 78.8185,-72"/>
<polygon fill="black" stroke="black" points="78.8473,-75.5001 88.8473,-72 78.8473,-68.5001 78.8473,-75.5001"/>
<text text-anchor="middle" x="62.5" y="-75.4" font-family="arial" font-size="12.00">1.0</text>
</g>
</g>
</svg>
