<?xml version="1.0" encoding="UTF-8" standalone="no"?>
<!DOCTYPE svg PUBLIC "-//W3C//DTD SVG 1.1//EN"
 "http://www.w3.org/Graphics/SVG/1.1/DTD/svg11.dtd">
<!-- Generated by graphviz version 2.38.0 (20140413.2041)
 -->
<!-- Title: %3 Pages: 1 -->
<svg width="715pt" height="112pt"
 viewBox="0.00 0.00 715.00 112.00" xmlns="http://www.w3.org/2000/svg" xmlns:xlink="http://www.w3.org/1999/xlink">
<g id="graph0" class="graph" transform="scale(1 1) rotate(0) translate(4 108)">
<title>%3</title>
<polygon fill="white" stroke="none" points="-4,4 -4,-108 711,-108 711,4 -4,4"/>
<!-- 1 -->
<g id="node1" class="node"><title>1</title>
<ellipse fill="powderblue" stroke="black" cx="107" cy="-72" rx="18" ry="18"/>
<text text-anchor="middle" x="107" y="-68.9" font-family="arial" font-size="12.00">P0</text>
</g>
<!-- 3 -->
<g id="node3" class="node"><title>3</title>
<ellipse fill="powderblue" stroke="black" cx="196" cy="-47" rx="18" ry="18"/>
<text text-anchor="middle" x="196" y="-43.9" font-family="arial" font-size="12.00">P2</text>
</g>
<!-- 1&#45;&gt;3 -->
<g id="edge1" class="edge"><title>1&#45;&gt;3</title>
<path fill="none" stroke="black" d="M124.774,-67.1797C137.251,-63.5946 154.516,-58.6334 168.805,-54.5274"/>
<polygon fill="black" stroke="black" points="169.928,-57.8464 178.572,-51.7207 167.994,-51.1187 169.928,-57.8464"/>
<text text-anchor="middle" x="151.5" y="-64.4" font-family="arial" font-size="12.00">1.0</text>
</g>
<!-- 2 -->
<g id="node2" class="node"><title>2</title>
<ellipse fill="powderblue" stroke="black" cx="107" cy="-18" rx="18" ry="18"/>
<text text-anchor="middle" x="107" y="-14.9" font-family="arial" font-size="12.00">P1</text>
</g>
<!-- 2&#45;&gt;3 -->
<g id="edge2" class="edge"><title>2&#45;&gt;3</title>
<path fill="none" stroke="black" d="M124.364,-23.4547C136.88,-27.6268 154.387,-33.4623 168.84,-38.28"/>
<polygon fill="black" stroke="black" points="168.116,-41.7278 178.709,-41.5698 170.329,-35.087 168.116,-41.7278"/>
<text text-anchor="middle" x="151.5" y="-38.4" font-family="arial" font-size="12.00">1.0</text>
</g>
<!-- 4 -->
<g id="node4" class="node"><title>4</title>
<ellipse fill="powderblue" stroke="black" cx="285" cy="-47" rx="18" ry="18"/>
<text text-anchor="middle" x="285" y="-43.9" font-family="arial" font-size="12.00">P3</text>
</g>
<!-- 3&#45;&gt;4 -->
<g id="edge3" class="edge"><title>3&#45;&gt;4</title>
<path fill="none" stroke="black" d="M214.188,-47C226.343,-47 242.886,-47 256.818,-47"/>
<polygon fill="black" stroke="black" points="256.847,-50.5001 266.847,-47 256.847,-43.5001 256.847,-50.5001"/>
<text text-anchor="middle" x="240.5" y="-50.4" font-family="arial" font-size="12.00">0.4</text>
</g>
<!-- 5 -->
<g id="node5" class="node"><title>5</title>
<ellipse fill="powderblue" stroke="black" cx="381" cy="-79" rx="18" ry="18"/>
<text text-anchor="middle" x="381" y="-75.9" font-family="arial" font-size="12.00">P4</text>
</g>
<!-- 4&#45;&gt;5 -->
<g id="edge4" class="edge"><title>4&#45;&gt;5</title>
<path fill="none" stroke="black" d="M302.374,-52.574C316.661,-57.4379 337.637,-64.5786 354.183,-70.2114"/>
<polygon fill="black" stroke="black" points="353.22,-73.5805 363.814,-73.4899 355.476,-66.9539 353.22,-73.5805"/>
<text text-anchor="middle" x="333" y="-69.4" font-family="arial" font-size="12.00">0.8</text>
</g>
<!-- 6 -->
<g id="node6" class="node"><title>6</title>
<ellipse fill="powderblue" stroke="black" cx="381" cy="-25" rx="18" ry="18"/>
<text text-anchor="middle" x="381" y="-21.9" font-family="arial" font-size="12.00">P5</text>
</g>
<!-- 4&#45;&gt;6 -->
<g id="edge5" class="edge"><title>4&#45;&gt;6</title>
<path fill="none" stroke="black" d="M302.805,-43.0668C316.841,-39.782 337.106,-35.039 353.351,-31.237"/>
<polygon fill="black" stroke="black" points="354.401,-34.5859 363.34,-28.8991 352.806,-27.7701 354.401,-34.5859"/>
<text text-anchor="middle" x="333" y="-41.4" font-family="arial" font-size="12.00">0.08</text>
</g>
<!-- 7 -->
<g id="node7" class="node"><title>7</title>
<ellipse fill="powderblue" stroke="black" cx="477" cy="-54" rx="18" ry="18"/>
<text text-anchor="middle" x="477" y="-50.9" font-family="arial" font-size="12.00">P6</text>
</g>
<!-- 5&#45;&gt;7 -->
<g id="edge6" class="edge"><title>5&#45;&gt;7</title>
<path fill="none" stroke="black" d="M398.805,-74.5305C412.841,-70.7977 433.106,-65.408 449.351,-61.0874"/>
<polygon fill="black" stroke="black" points="450.576,-64.3835 459.34,-58.4308 448.777,-57.6187 450.576,-64.3835"/>
<text text-anchor="middle" x="429" y="-72.4" font-family="arial" font-size="12.00">0.4</text>
</g>
<!-- 6&#45;&gt;7 -->
<g id="edge7" class="edge"><title>6&#45;&gt;7</title>
<path fill="none" stroke="black" d="M398.374,-30.0514C412.574,-34.4324 433.382,-40.8517 449.88,-45.9418"/>
<polygon fill="black" stroke="black" points="448.911,-49.3056 459.499,-48.9092 450.975,-42.6166 448.911,-49.3056"/>
<text text-anchor="middle" x="429" y="-45.4" font-family="arial" font-size="12.00">0.06</text>
</g>
<!-- 8 -->
<g id="node8" class="node"><title>8</title>
<ellipse fill="powderblue" stroke="black" cx="580" cy="-86" rx="18" ry="18"/>
<text text-anchor="middle" x="580" y="-82.9" font-family="arial" font-size="12.00">P7</text>
</g>
<!-- 7&#45;&gt;8 -->
<g id="edge8" class="edge"><title>7&#45;&gt;8</title>
<path fill="none" stroke="black" d="M494.678,-59.2841C510.562,-64.3168 534.709,-71.9671 553.098,-77.7933"/>
<polygon fill="black" stroke="black" points="552.042,-81.1303 562.632,-80.8142 554.156,-74.4572 552.042,-81.1303"/>
<text text-anchor="middle" x="528.5" y="-77.4" font-family="arial" font-size="12.00">0.133</text>
</g>
<!-- 9 -->
<g id="node9" class="node"><title>9</title>
<ellipse fill="powderblue" stroke="black" cx="580" cy="-32" rx="18" ry="18"/>
<text text-anchor="middle" x="580" y="-28.9" font-family="arial" font-size="12.00">P8</text>
</g>
<!-- 7&#45;&gt;9 -->
<g id="edge9" class="edge"><title>7&#45;&gt;9</title>
<path fill="none" stroke="black" d="M494.723,-50.1215C500.507,-48.7948 507.035,-47.3144 513,-46 525.917,-43.154 540.28,-40.0947 552.301,-37.5641"/>
<polygon fill="black" stroke="black" points="553.097,-40.9733 562.166,-35.495 551.66,-34.1224 553.097,-40.9733"/>
<text text-anchor="middle" x="528.5" y="-49.4" font-family="arial" font-size="12.00">0.12</text>
</g>
<!-- 11 -->
<g id="node11" class="node"><title>11</title>
<ellipse fill="darksalmon" stroke="black" cx="689" cy="-61" rx="18" ry="18"/>
<text text-anchor="middle" x="689" y="-57.9" font-family="arial" font-size="12.00">Sink</text>
</g>
<!-- 8&#45;&gt;11 -->
<g id="edge13" class="edge"><title>8&#45;&gt;11</title>
<path fill="none" stroke="black" d="M597.719,-82.0938C614.758,-78.1126 641.445,-71.8773 661.392,-67.2168"/>
<polygon fill="black" stroke="black" points="662.457,-70.5623 671.399,-64.8788 660.865,-63.7459 662.457,-70.5623"/>
<text text-anchor="middle" x="634.5" y="-80.4" font-family="arial" font-size="12.00">0.0444</text>
</g>
<!-- 9&#45;&gt;11 -->
<g id="edge12" class="edge"><title>9&#45;&gt;11</title>
<path fill="none" stroke="black" d="M597.719,-36.5312C614.837,-41.1707 641.691,-48.4491 661.667,-53.8631"/>
<polygon fill="black" stroke="black" points="660.831,-57.2627 671.399,-56.5006 662.662,-50.5065 660.831,-57.2627"/>
<text text-anchor="middle" x="634.5" y="-53.4" font-family="arial" font-size="12.00">0.12</text>
</g>
<!-- 10 -->
<g id="node10" class="node"><title>10</title>
<ellipse fill="forestgreen" stroke="black" cx="18" cy="-44" rx="18" ry="18"/>
<text text-anchor="middle" x="18" y="-41.5" font-family="arial" font-size="10.00">Source</text>
</g>
<!-- 10&#45;&gt;1 -->
<g id="edge11" class="edge"><title>10&#45;&gt;1</title>
<path fill="none" stroke="black" d="M35.364,-49.2666C47.8803,-53.2948 65.387,-58.9292 79.84,-63.5807"/>
<polygon fill="black" stroke="black" points="79.1179,-67.025 89.7093,-66.757 81.2625,-60.3616 79.1179,-67.025"/>
<text text-anchor="middle" x="62.5" y="-63.4" font-family="arial" font-size="12.00">1.0</text>
</g>
<!-- 10&#45;&gt;2 -->
<g id="edge10" class="edge"><title>10&#45;&gt;2</title>
<path fill="none" stroke="black" d="M35.3072,-38.1545C41.1726,-36.1195 47.857,-33.8777 54,-32 62.1725,-29.5019 71.1384,-27.0029 79.2891,-24.8221"/>
<polygon fill="black" stroke="black" points="80.2752,-28.1819 89.0564,-22.254 78.4951,-21.412 80.2752,-28.1819"/>
<text text-anchor="middle" x="62.5" y="-35.4" font-family="arial" font-size="12.00">1.0</text>
</g>
</g>
</svg>
