<?xml version="1.0" encoding="UTF-8" standalone="no"?>
<!DOCTYPE svg PUBLIC "-//W3C//DTD SVG 1.1//EN"
 "http://www.w3.org/Graphics/SVG/1.1/DTD/svg11.dtd">
<!-- Generated by graphviz version 2.38.0 (20140413.2041)
 -->
<!-- Title: %3 Pages: 1 -->
<svg width="709pt" height="160pt"
 viewBox="0.00 0.00 709.00 160.00" xmlns="http://www.w3.org/2000/svg" xmlns:xlink="http://www.w3.org/1999/xlink">
<g id="graph0" class="graph" transform="scale(1 1) rotate(0) translate(4 156)">
<title>%3</title>
<polygon fill="white" stroke="none" points="-4,4 -4,-156 705,-156 705,4 -4,4"/>
<!-- 1 -->
<g id="node1" class="node"><title>1</title>
<ellipse fill="powderblue" stroke="black" cx="107" cy="-72" rx="18" ry="18"/>
<text text-anchor="middle" x="107" y="-68.9" font-family="arial" font-size="12.00">P0</text>
</g>
<!-- 2 -->
<g id="node2" class="node"><title>2</title>
<ellipse fill="powderblue" stroke="black" cx="196" cy="-72" rx="18" ry="18"/>
<text text-anchor="middle" x="196" y="-68.9" font-family="arial" font-size="12.00">P1</text>
</g>
<!-- 1&#45;&gt;2 -->
<g id="edge1" class="edge"><title>1&#45;&gt;2</title>
<path fill="none" stroke="black" d="M125.188,-72C137.343,-72 153.886,-72 167.818,-72"/>
<polygon fill="black" stroke="black" points="167.847,-75.5001 177.847,-72 167.847,-68.5001 167.847,-75.5001"/>
<text text-anchor="middle" x="151.5" y="-75.4" font-family="arial" font-size="12.00">1.0</text>
</g>
<!-- 3 -->
<g id="node3" class="node"><title>3</title>
<ellipse fill="powderblue" stroke="black" cx="299" cy="-126" rx="18" ry="18"/>
<text text-anchor="middle" x="299" y="-122.9" font-family="arial" font-size="12.00">P2</text>
</g>
<!-- 2&#45;&gt;3 -->
<g id="edge2" class="edge"><title>2&#45;&gt;3</title>
<path fill="none" stroke="black" d="M212.34,-80.2014C228.674,-88.9346 254.751,-102.877 273.847,-113.086"/>
<polygon fill="black" stroke="black" points="272.378,-116.27 282.847,-117.898 275.678,-110.097 272.378,-116.27"/>
<text text-anchor="middle" x="247.5" y="-109.4" font-family="arial" font-size="12.00">1.25</text>
</g>
<!-- 4 -->
<g id="node4" class="node"><title>4</title>
<ellipse fill="powderblue" stroke="black" cx="299" cy="-72" rx="18" ry="18"/>
<text text-anchor="middle" x="299" y="-68.9" font-family="arial" font-size="12.00">P3</text>
</g>
<!-- 2&#45;&gt;4 -->
<g id="edge3" class="edge"><title>2&#45;&gt;4</title>
<path fill="none" stroke="black" d="M214.133,-72C229.586,-72 252.584,-72 270.591,-72"/>
<polygon fill="black" stroke="black" points="270.783,-75.5001 280.783,-72 270.783,-68.5001 270.783,-75.5001"/>
<text text-anchor="middle" x="247.5" y="-75.4" font-family="arial" font-size="12.00">1.0</text>
</g>
<!-- 5 -->
<g id="node5" class="node"><title>5</title>
<ellipse fill="powderblue" stroke="black" cx="299" cy="-18" rx="18" ry="18"/>
<text text-anchor="middle" x="299" y="-14.9" font-family="arial" font-size="12.00">P4</text>
</g>
<!-- 2&#45;&gt;5 -->
<g id="edge4" class="edge"><title>2&#45;&gt;5</title>
<path fill="none" stroke="black" d="M212.34,-63.7986C228.674,-55.0654 254.751,-41.1234 273.847,-30.9137"/>
<polygon fill="black" stroke="black" points="275.678,-33.9032 282.847,-26.1017 272.378,-27.7301 275.678,-33.9032"/>
<text text-anchor="middle" x="247.5" y="-56.4" font-family="arial" font-size="12.00">0.667</text>
</g>
<!-- 6 -->
<g id="node6" class="node"><title>6</title>
<ellipse fill="powderblue" stroke="black" cx="395" cy="-71" rx="18" ry="18"/>
<text text-anchor="middle" x="395" y="-67.9" font-family="arial" font-size="12.00">P5</text>
</g>
<!-- 3&#45;&gt;6 -->
<g id="edge5" class="edge"><title>3&#45;&gt;6</title>
<path fill="none" stroke="black" d="M315.103,-117.163C329.903,-108.503 352.694,-95.1683 369.982,-85.053"/>
<polygon fill="black" stroke="black" points="372.071,-87.8858 378.935,-79.8148 368.536,-81.844 372.071,-87.8858"/>
<text text-anchor="middle" x="347" y="-108.4" font-family="arial" font-size="12.00">2.5</text>
</g>
<!-- 7 -->
<g id="node7" class="node"><title>7</title>
<ellipse fill="powderblue" stroke="black" cx="395" cy="-134" rx="18" ry="18"/>
<text text-anchor="middle" x="395" y="-130.9" font-family="arial" font-size="12.00">P6</text>
</g>
<!-- 3&#45;&gt;7 -->
<g id="edge8" class="edge"><title>3&#45;&gt;7</title>
<path fill="none" stroke="black" d="M317.241,-127.467C331.022,-128.64 350.6,-130.306 366.535,-131.663"/>
<polygon fill="black" stroke="black" points="366.607,-135.181 376.868,-132.542 367.201,-128.206 366.607,-135.181"/>
<text text-anchor="middle" x="347" y="-133.4" font-family="arial" font-size="12.00">5.0</text>
</g>
<!-- 4&#45;&gt;6 -->
<g id="edge6" class="edge"><title>4&#45;&gt;6</title>
<path fill="none" stroke="black" d="M317.056,-69.6569C322.751,-68.9798 329.138,-68.3339 335,-68 345.377,-67.4089 356.785,-67.756 366.78,-68.391"/>
<polygon fill="black" stroke="black" points="366.721,-71.8965 376.957,-69.1624 367.25,-64.9165 366.721,-71.8965"/>
<text text-anchor="middle" x="347" y="-71.4" font-family="arial" font-size="12.00">0.75</text>
</g>
<!-- 5&#45;&gt;6 -->
<g id="edge7" class="edge"><title>5&#45;&gt;6</title>
<path fill="none" stroke="black" d="M315.056,-26.3714C326.991,-33.0194 344.084,-42.5669 359,-51 362.598,-53.0343 366.399,-55.1945 370.118,-57.3142"/>
<polygon fill="black" stroke="black" points="368.61,-60.4837 379.029,-62.4052 372.082,-54.4056 368.61,-60.4837"/>
<text text-anchor="middle" x="347" y="-54.4" font-family="arial" font-size="12.00">1.0</text>
</g>
<!-- 8 -->
<g id="node8" class="node"><title>8</title>
<ellipse fill="powderblue" stroke="black" cx="491" cy="-105" rx="18" ry="18"/>
<text text-anchor="middle" x="491" y="-101.9" font-family="arial" font-size="12.00">P7</text>
</g>
<!-- 6&#45;&gt;8 -->
<g id="edge9" class="edge"><title>6&#45;&gt;8</title>
<path fill="none" stroke="black" d="M412.374,-76.9223C426.661,-82.0902 447.637,-89.6772 464.183,-95.6621"/>
<polygon fill="black" stroke="black" points="463.22,-99.0354 473.814,-99.1455 465.601,-92.4528 463.22,-99.0354"/>
<text text-anchor="middle" x="443" y="-95.4" font-family="arial" font-size="12.00">1.33</text>
</g>
<!-- 7&#45;&gt;8 -->
<g id="edge10" class="edge"><title>7&#45;&gt;8</title>
<path fill="none" stroke="black" d="M412.374,-128.949C426.574,-124.568 447.382,-118.148 463.88,-113.058"/>
<polygon fill="black" stroke="black" points="464.975,-116.383 473.499,-110.091 462.911,-109.694 464.975,-116.383"/>
<text text-anchor="middle" x="443" y="-125.4" font-family="arial" font-size="12.00">3.33</text>
</g>
<!-- 9 -->
<g id="node9" class="node"><title>9</title>
<ellipse fill="powderblue" stroke="black" cx="587" cy="-105" rx="18" ry="18"/>
<text text-anchor="middle" x="587" y="-101.9" font-family="arial" font-size="12.00">P8</text>
</g>
<!-- 8&#45;&gt;9 -->
<g id="edge11" class="edge"><title>8&#45;&gt;9</title>
<path fill="none" stroke="black" d="M509.241,-105C523.022,-105 542.6,-105 558.535,-105"/>
<polygon fill="black" stroke="black" points="558.868,-108.5 568.868,-105 558.868,-101.5 558.868,-108.5"/>
<text text-anchor="middle" x="539" y="-108.4" font-family="arial" font-size="12.00">1.07</text>
</g>
<!-- 11 -->
<g id="node11" class="node"><title>11</title>
<ellipse fill="darksalmon" stroke="black" cx="683" cy="-105" rx="18" ry="18"/>
<text text-anchor="middle" x="683" y="-101.9" font-family="arial" font-size="12.00">Sink</text>
</g>
<!-- 9&#45;&gt;11 -->
<g id="edge13" class="edge"><title>9&#45;&gt;11</title>
<path fill="none" stroke="black" d="M605.241,-105C619.022,-105 638.6,-105 654.535,-105"/>
<polygon fill="black" stroke="black" points="654.868,-108.5 664.868,-105 654.868,-101.5 654.868,-108.5"/>
<text text-anchor="middle" x="635" y="-108.4" font-family="arial" font-size="12.00">1.07</text>
</g>
<!-- 10 -->
<g id="node10" class="node"><title>10</title>
<ellipse fill="forestgreen" stroke="black" cx="18" cy="-72" rx="18" ry="18"/>
<text text-anchor="middle" x="18" y="-69.5" font-family="arial" font-size="10.00">Source</text>
</g>
<!-- 10&#45;&gt;1 -->
<g id="edge12" class="edge"><title>10&#45;&gt;1</title>
<path fill="none" stroke="black" d="M36.1884,-72C48.3426,-72 64.8865,-72 78.8185,-72"/>
<polygon fill="black" stroke="black" points="78.8473,-75.5001 88.8473,-72 78.8473,-68.5001 78.8473,-75.5001"/>
<text text-anchor="middle" x="62.5" y="-75.4" font-family="arial" font-size="12.00">1.0</text>
</g>
</g>
</svg>
