<?xml version="1.0" encoding="UTF-8" standalone="no"?>
<!DOCTYPE svg PUBLIC "-//W3C//DTD SVG 1.1//EN"
 "http://www.w3.org/Graphics/SVG/1.1/DTD/svg11.dtd">
<!-- Generated by graphviz version 2.38.0 (20140413.2041)
 -->
<!-- Title: %3 Pages: 1 -->
<svg width="716pt" height="123pt"
 viewBox="0.00 0.00 716.00 123.00" xmlns="http://www.w3.org/2000/svg" xmlns:xlink="http://www.w3.org/1999/xlink">
<g id="graph0" class="graph" transform="scale(1 1) rotate(0) translate(4 119)">
<title>%3</title>
<polygon fill="white" stroke="none" points="-4,4 -4,-119 712,-119 712,4 -4,4"/>
<!-- 1 -->
<g id="node1" class="node"><title>1</title>
<ellipse fill="powderblue" stroke="black" cx="107" cy="-72" rx="18" ry="18"/>
<text text-anchor="middle" x="107" y="-68.9" font-family="arial" font-size="12.00">P0</text>
</g>
<!-- 3 -->
<g id="node3" class="node"><title>3</title>
<ellipse fill="powderblue" stroke="black" cx="196" cy="-47" rx="18" ry="18"/>
<text text-anchor="middle" x="196" y="-43.9" font-family="arial" font-size="12.00">P2</text>
</g>
<!-- 1&#45;&gt;3 -->
<g id="edge1" class="edge"><title>1&#45;&gt;3</title>
<path fill="none" stroke="black" d="M124.774,-67.1797C137.251,-63.5946 154.516,-58.6334 168.805,-54.5274"/>
<polygon fill="black" stroke="black" points="169.928,-57.8464 178.572,-51.7207 167.994,-51.1187 169.928,-57.8464"/>
<text text-anchor="middle" x="151.5" y="-64.4" font-family="arial" font-size="12.00">2.0</text>
</g>
<!-- 2 -->
<g id="node2" class="node"><title>2</title>
<ellipse fill="powderblue" stroke="black" cx="107" cy="-18" rx="18" ry="18"/>
<text text-anchor="middle" x="107" y="-14.9" font-family="arial" font-size="12.00">P1</text>
</g>
<!-- 2&#45;&gt;3 -->
<g id="edge2" class="edge"><title>2&#45;&gt;3</title>
<path fill="none" stroke="black" d="M124.364,-23.4547C136.88,-27.6268 154.387,-33.4623 168.84,-38.28"/>
<polygon fill="black" stroke="black" points="168.116,-41.7278 178.709,-41.5698 170.329,-35.087 168.116,-41.7278"/>
<text text-anchor="middle" x="151.5" y="-38.4" font-family="arial" font-size="12.00">2.0</text>
</g>
<!-- 4 -->
<g id="node4" class="node"><title>4</title>
<ellipse fill="powderblue" stroke="black" cx="292" cy="-79" rx="18" ry="18"/>
<text text-anchor="middle" x="292" y="-75.9" font-family="arial" font-size="12.00">P3</text>
</g>
<!-- 3&#45;&gt;4 -->
<g id="edge3" class="edge"><title>3&#45;&gt;4</title>
<path fill="none" stroke="black" d="M213.374,-52.574C227.661,-57.4379 248.637,-64.5786 265.183,-70.2114"/>
<polygon fill="black" stroke="black" points="264.22,-73.5805 274.814,-73.4899 266.476,-66.9539 264.22,-73.5805"/>
<text text-anchor="middle" x="244" y="-69.4" font-family="arial" font-size="12.00">3.33</text>
</g>
<!-- 5 -->
<g id="node5" class="node"><title>5</title>
<ellipse fill="powderblue" stroke="black" cx="292" cy="-25" rx="18" ry="18"/>
<text text-anchor="middle" x="292" y="-21.9" font-family="arial" font-size="12.00">P4</text>
</g>
<!-- 3&#45;&gt;5 -->
<g id="edge4" class="edge"><title>3&#45;&gt;5</title>
<path fill="none" stroke="black" d="M213.805,-43.0668C227.841,-39.782 248.106,-35.039 264.351,-31.237"/>
<polygon fill="black" stroke="black" points="265.401,-34.5859 274.34,-28.8991 263.806,-27.7701 265.401,-34.5859"/>
<text text-anchor="middle" x="244" y="-41.4" font-family="arial" font-size="12.00">6.0</text>
</g>
<!-- 6 -->
<g id="node6" class="node"><title>6</title>
<ellipse fill="powderblue" stroke="black" cx="388" cy="-43" rx="18" ry="18"/>
<text text-anchor="middle" x="388" y="-39.9" font-family="arial" font-size="12.00">P5</text>
</g>
<!-- 4&#45;&gt;6 -->
<g id="edge5" class="edge"><title>4&#45;&gt;6</title>
<path fill="none" stroke="black" d="M308.946,-72.8931C323.26,-67.4109 344.531,-59.2647 361.254,-52.8602"/>
<polygon fill="black" stroke="black" points="362.889,-55.9819 370.976,-49.1369 360.386,-49.4449 362.889,-55.9819"/>
<text text-anchor="middle" x="340" y="-68.4" font-family="arial" font-size="12.00">1.67</text>
</g>
<!-- 7 -->
<g id="node7" class="node"><title>7</title>
<ellipse fill="powderblue" stroke="black" cx="388" cy="-97" rx="18" ry="18"/>
<text text-anchor="middle" x="388" y="-93.9" font-family="arial" font-size="12.00">P6</text>
</g>
<!-- 4&#45;&gt;7 -->
<g id="edge7" class="edge"><title>4&#45;&gt;7</title>
<path fill="none" stroke="black" d="M309.805,-82.218C323.754,-84.8891 343.856,-88.7384 360.05,-91.8393"/>
<polygon fill="black" stroke="black" points="359.543,-95.3059 370.023,-93.7491 360.86,-88.4308 359.543,-95.3059"/>
<text text-anchor="middle" x="340" y="-93.4" font-family="arial" font-size="12.00">2.5</text>
</g>
<!-- 5&#45;&gt;6 -->
<g id="edge6" class="edge"><title>5&#45;&gt;6</title>
<path fill="none" stroke="black" d="M310.028,-23.3619C321.946,-22.6802 338.15,-22.6906 352,-26 355.7,-26.8841 359.466,-28.2018 363.089,-29.7196"/>
<polygon fill="black" stroke="black" points="361.671,-32.9206 372.206,-34.0442 364.671,-26.5961 361.671,-32.9206"/>
<text text-anchor="middle" x="340" y="-29.4" font-family="arial" font-size="12.00">4.0</text>
</g>
<!-- 8 -->
<g id="node8" class="node"><title>8</title>
<ellipse fill="powderblue" stroke="black" cx="491" cy="-72" rx="18" ry="18"/>
<text text-anchor="middle" x="491" y="-68.9" font-family="arial" font-size="12.00">P7</text>
</g>
<!-- 6&#45;&gt;8 -->
<g id="edge8" class="edge"><title>6&#45;&gt;8</title>
<path fill="none" stroke="black" d="M405.678,-47.7888C421.395,-52.3014 445.2,-59.1366 463.513,-64.3949"/>
<polygon fill="black" stroke="black" points="462.72,-67.8084 473.297,-67.2041 464.651,-61.0802 462.72,-67.8084"/>
<text text-anchor="middle" x="439.5" y="-64.4" font-family="arial" font-size="12.00">0.556</text>
</g>
<!-- 7&#45;&gt;8 -->
<g id="edge9" class="edge"><title>7&#45;&gt;8</title>
<path fill="none" stroke="black" d="M405.678,-92.8718C421.395,-88.9815 445.2,-83.0891 463.513,-78.5561"/>
<polygon fill="black" stroke="black" points="464.431,-81.9347 473.297,-76.1344 462.749,-75.1397 464.431,-81.9347"/>
<text text-anchor="middle" x="439.5" y="-91.4" font-family="arial" font-size="12.00">2.5</text>
</g>
<!-- 9 -->
<g id="node9" class="node"><title>9</title>
<ellipse fill="powderblue" stroke="black" cx="594" cy="-72" rx="18" ry="18"/>
<text text-anchor="middle" x="594" y="-68.9" font-family="arial" font-size="12.00">P8</text>
</g>
<!-- 8&#45;&gt;9 -->
<g id="edge10" class="edge"><title>8&#45;&gt;9</title>
<path fill="none" stroke="black" d="M509.133,-72C524.586,-72 547.584,-72 565.591,-72"/>
<polygon fill="black" stroke="black" points="565.783,-75.5001 575.783,-72 565.783,-68.5001 565.783,-75.5001"/>
<text text-anchor="middle" x="542.5" y="-75.4" font-family="arial" font-size="12.00">0.556</text>
</g>
<!-- 11 -->
<g id="node11" class="node"><title>11</title>
<ellipse fill="darksalmon" stroke="black" cx="690" cy="-72" rx="18" ry="18"/>
<text text-anchor="middle" x="690" y="-68.9" font-family="arial" font-size="12.00">Sink</text>
</g>
<!-- 9&#45;&gt;11 -->
<g id="edge13" class="edge"><title>9&#45;&gt;11</title>
<path fill="none" stroke="black" d="M612.241,-72C626.022,-72 645.6,-72 661.535,-72"/>
<polygon fill="black" stroke="black" points="661.868,-75.5001 671.868,-72 661.868,-68.5001 661.868,-75.5001"/>
<text text-anchor="middle" x="642" y="-75.4" font-family="arial" font-size="12.00">0.37</text>
</g>
<!-- 10 -->
<g id="node10" class="node"><title>10</title>
<ellipse fill="forestgreen" stroke="black" cx="18" cy="-44" rx="18" ry="18"/>
<text text-anchor="middle" x="18" y="-41.5" font-family="arial" font-size="10.00">Source</text>
</g>
<!-- 10&#45;&gt;1 -->
<g id="edge12" class="edge"><title>10&#45;&gt;1</title>
<path fill="none" stroke="black" d="M35.364,-49.2666C47.8803,-53.2948 65.387,-58.9292 79.84,-63.5807"/>
<polygon fill="black" stroke="black" points="79.1179,-67.025 89.7093,-66.757 81.2625,-60.3616 79.1179,-67.025"/>
<text text-anchor="middle" x="62.5" y="-63.4" font-family="arial" font-size="12.00">1.0</text>
</g>
<!-- 10&#45;&gt;2 -->
<g id="edge11" class="edge"><title>10&#45;&gt;2</title>
<path fill="none" stroke="black" d="M35.3072,-38.1545C41.1726,-36.1195 47.857,-33.8777 54,-32 62.1725,-29.5019 71.1384,-27.0029 79.2891,-24.8221"/>
<polygon fill="black" stroke="black" points="80.2752,-28.1819 89.0564,-22.254 78.4951,-21.412 80.2752,-28.1819"/>
<text text-anchor="middle" x="62.5" y="-35.4" font-family="arial" font-size="12.00">1.0</text>
</g>
</g>
</svg>
