<?xml version="1.0" encoding="UTF-8" standalone="no"?>
<!DOCTYPE svg PUBLIC "-//W3C//DTD SVG 1.1//EN"
 "http://www.w3.org/Graphics/SVG/1.1/DTD/svg11.dtd">
<!-- Generated by graphviz version 2.38.0 (20140413.2041)
 -->
<!-- Title: %3 Pages: 1 -->
<svg width="844pt" height="105pt"
 viewBox="0.00 0.00 844.00 105.00" xmlns="http://www.w3.org/2000/svg" xmlns:xlink="http://www.w3.org/1999/xlink">
<g id="graph0" class="graph" transform="scale(1 1) rotate(0) translate(4 101)">
<title>%3</title>
<polygon fill="white" stroke="none" points="-4,4 -4,-101 840,-101 840,4 -4,4"/>
<!-- 1 -->
<g id="node1" class="node"><title>1</title>
<ellipse fill="powderblue" stroke="black" cx="107" cy="-72" rx="18" ry="18"/>
<text text-anchor="middle" x="107" y="-68.9" font-family="arial" font-size="12.00">P0</text>
</g>
<!-- 3 -->
<g id="node3" class="node"><title>3</title>
<ellipse fill="powderblue" stroke="black" cx="196" cy="-47" rx="18" ry="18"/>
<text text-anchor="middle" x="196" y="-43.9" font-family="arial" font-size="12.00">P2</text>
</g>
<!-- 1&#45;&gt;3 -->
<g id="edge1" class="edge"><title>1&#45;&gt;3</title>
<path fill="none" stroke="black" d="M124.774,-67.1797C137.251,-63.5946 154.516,-58.6334 168.805,-54.5274"/>
<polygon fill="black" stroke="black" points="169.928,-57.8464 178.572,-51.7207 167.994,-51.1187 169.928,-57.8464"/>
<text text-anchor="middle" x="151.5" y="-64.4" font-family="arial" font-size="12.00">1.0</text>
</g>
<!-- 2 -->
<g id="node2" class="node"><title>2</title>
<ellipse fill="powderblue" stroke="black" cx="107" cy="-18" rx="18" ry="18"/>
<text text-anchor="middle" x="107" y="-14.9" font-family="arial" font-size="12.00">P1</text>
</g>
<!-- 2&#45;&gt;3 -->
<g id="edge2" class="edge"><title>2&#45;&gt;3</title>
<path fill="none" stroke="black" d="M124.364,-23.4547C136.88,-27.6268 154.387,-33.4623 168.84,-38.28"/>
<polygon fill="black" stroke="black" points="168.116,-41.7278 178.709,-41.5698 170.329,-35.087 168.116,-41.7278"/>
<text text-anchor="middle" x="151.5" y="-38.4" font-family="arial" font-size="12.00">1.0</text>
</g>
<!-- 4 -->
<g id="node4" class="node"><title>4</title>
<ellipse fill="powderblue" stroke="black" cx="285" cy="-79" rx="18" ry="18"/>
<text text-anchor="middle" x="285" y="-75.9" font-family="arial" font-size="12.00">P3</text>
</g>
<!-- 3&#45;&gt;4 -->
<g id="edge3" class="edge"><title>3&#45;&gt;4</title>
<path fill="none" stroke="black" d="M213.364,-53.019C226.002,-57.6673 243.727,-64.1871 258.26,-69.5325"/>
<polygon fill="black" stroke="black" points="257.116,-72.8408 267.709,-73.008 259.532,-66.2711 257.116,-72.8408"/>
<text text-anchor="middle" x="240.5" y="-68.4" font-family="arial" font-size="12.00">2.0</text>
</g>
<!-- 5 -->
<g id="node5" class="node"><title>5</title>
<ellipse fill="powderblue" stroke="black" cx="285" cy="-25" rx="18" ry="18"/>
<text text-anchor="middle" x="285" y="-21.9" font-family="arial" font-size="12.00">P4</text>
</g>
<!-- 3&#45;&gt;5 -->
<g id="edge4" class="edge"><title>3&#45;&gt;5</title>
<path fill="none" stroke="black" d="M213.774,-42.7582C226.171,-39.6234 243.296,-35.293 257.531,-31.6933"/>
<polygon fill="black" stroke="black" points="258.44,-35.0736 267.277,-29.2288 256.724,-28.2872 258.44,-35.0736"/>
<text text-anchor="middle" x="240.5" y="-40.4" font-family="arial" font-size="12.00">1.0</text>
</g>
<!-- 6 -->
<g id="node6" class="node"><title>6</title>
<ellipse fill="powderblue" stroke="black" cx="388" cy="-54" rx="18" ry="18"/>
<text text-anchor="middle" x="388" y="-50.9" font-family="arial" font-size="12.00">P5</text>
</g>
<!-- 4&#45;&gt;6 -->
<g id="edge5" class="edge"><title>4&#45;&gt;6</title>
<path fill="none" stroke="black" d="M302.678,-74.8718C318.395,-70.9815 342.2,-65.0891 360.513,-60.5561"/>
<polygon fill="black" stroke="black" points="361.431,-63.9347 370.297,-58.1344 359.749,-57.1397 361.431,-63.9347"/>
<text text-anchor="middle" x="336.5" y="-73.4" font-family="arial" font-size="12.00">6.0</text>
</g>
<!-- 5&#45;&gt;6 -->
<g id="edge6" class="edge"><title>5&#45;&gt;6</title>
<path fill="none" stroke="black" d="M302.678,-29.7888C318.395,-34.3014 342.2,-41.1366 360.513,-46.3949"/>
<polygon fill="black" stroke="black" points="359.72,-49.8084 370.297,-49.2041 361.651,-43.0802 359.72,-49.8084"/>
<text text-anchor="middle" x="336.5" y="-46.4" font-family="arial" font-size="12.00">0.333</text>
</g>
<!-- 7 -->
<g id="node7" class="node"><title>7</title>
<ellipse fill="powderblue" stroke="black" cx="491" cy="-54" rx="18" ry="18"/>
<text text-anchor="middle" x="491" y="-50.9" font-family="arial" font-size="12.00">P6</text>
</g>
<!-- 6&#45;&gt;7 -->
<g id="edge7" class="edge"><title>6&#45;&gt;7</title>
<path fill="none" stroke="black" d="M406.133,-54C421.586,-54 444.584,-54 462.591,-54"/>
<polygon fill="black" stroke="black" points="462.783,-57.5001 472.783,-54 462.783,-50.5001 462.783,-57.5001"/>
<text text-anchor="middle" x="439.5" y="-57.4" font-family="arial" font-size="12.00">0.333</text>
</g>
<!-- 8 -->
<g id="node8" class="node"><title>8</title>
<ellipse fill="powderblue" stroke="black" cx="600" cy="-54" rx="18" ry="18"/>
<text text-anchor="middle" x="600" y="-50.9" font-family="arial" font-size="12.00">P7</text>
</g>
<!-- 7&#45;&gt;8 -->
<g id="edge8" class="edge"><title>7&#45;&gt;8</title>
<path fill="none" stroke="black" d="M509.191,-54C526.039,-54 551.982,-54 571.661,-54"/>
<polygon fill="black" stroke="black" points="571.851,-57.5001 581.851,-54 571.851,-50.5001 571.851,-57.5001"/>
<text text-anchor="middle" x="545.5" y="-57.4" font-family="arial" font-size="12.00">0.0667</text>
</g>
<!-- 9 -->
<g id="node9" class="node"><title>9</title>
<ellipse fill="powderblue" stroke="black" cx="709" cy="-54" rx="18" ry="18"/>
<text text-anchor="middle" x="709" y="-50.9" font-family="arial" font-size="12.00">P8</text>
</g>
<!-- 8&#45;&gt;9 -->
<g id="edge9" class="edge"><title>8&#45;&gt;9</title>
<path fill="none" stroke="black" d="M618.191,-54C635.039,-54 660.982,-54 680.661,-54"/>
<polygon fill="black" stroke="black" points="680.851,-57.5001 690.851,-54 680.851,-50.5001 680.851,-57.5001"/>
<text text-anchor="middle" x="654.5" y="-57.4" font-family="arial" font-size="12.00">0.0222</text>
</g>
<!-- 11 -->
<g id="node11" class="node"><title>11</title>
<ellipse fill="darksalmon" stroke="black" cx="818" cy="-54" rx="18" ry="18"/>
<text text-anchor="middle" x="818" y="-50.9" font-family="arial" font-size="12.00">Sink</text>
</g>
<!-- 9&#45;&gt;11 -->
<g id="edge12" class="edge"><title>9&#45;&gt;11</title>
<path fill="none" stroke="black" d="M727.191,-54C744.039,-54 769.982,-54 789.661,-54"/>
<polygon fill="black" stroke="black" points="789.851,-57.5001 799.851,-54 789.851,-50.5001 789.851,-57.5001"/>
<text text-anchor="middle" x="763.5" y="-57.4" font-family="arial" font-size="12.00">0.0667</text>
</g>
<!-- 10 -->
<g id="node10" class="node"><title>10</title>
<ellipse fill="forestgreen" stroke="black" cx="18" cy="-44" rx="18" ry="18"/>
<text text-anchor="middle" x="18" y="-41.5" font-family="arial" font-size="10.00">Source</text>
</g>
<!-- 10&#45;&gt;1 -->
<g id="edge11" class="edge"><title>10&#45;&gt;1</title>
<path fill="none" stroke="black" d="M35.364,-49.2666C47.8803,-53.2948 65.387,-58.9292 79.84,-63.5807"/>
<polygon fill="black" stroke="black" points="79.1179,-67.025 89.7093,-66.757 81.2625,-60.3616 79.1179,-67.025"/>
<text text-anchor="middle" x="62.5" y="-63.4" font-family="arial" font-size="12.00">1.0</text>
</g>
<!-- 10&#45;&gt;2 -->
<g id="edge10" class="edge"><title>10&#45;&gt;2</title>
<path fill="none" stroke="black" d="M35.3072,-38.1545C41.1726,-36.1195 47.857,-33.8777 54,-32 62.1725,-29.5019 71.1384,-27.0029 79.2891,-24.8221"/>
<polygon fill="black" stroke="black" points="80.2752,-28.1819 89.0564,-22.254 78.4951,-21.412 80.2752,-28.1819"/>
<text text-anchor="middle" x="62.5" y="-35.4" font-family="arial" font-size="12.00">1.0</text>
</g>
</g>
</svg>
