<?xml version="1.0" encoding="UTF-8" standalone="no"?>
<!DOCTYPE svg PUBLIC "-//W3C//DTD SVG 1.1//EN"
 "http://www.w3.org/Graphics/SVG/1.1/DTD/svg11.dtd">
<!-- Generated by graphviz version 2.38.0 (20140413.2041)
 -->
<!-- Title: %3 Pages: 1 -->
<svg width="819pt" height="105pt"
 viewBox="0.00 0.00 819.00 105.00" xmlns="http://www.w3.org/2000/svg" xmlns:xlink="http://www.w3.org/1999/xlink">
<g id="graph0" class="graph" transform="scale(1 1) rotate(0) translate(4 101)">
<title>%3</title>
<polygon fill="white" stroke="none" points="-4,4 -4,-101 815,-101 815,4 -4,4"/>
<!-- 1 -->
<g id="node1" class="node"><title>1</title>
<ellipse fill="powderblue" stroke="black" cx="107" cy="-72" rx="18" ry="18"/>
<text text-anchor="middle" x="107" y="-68.9" font-family="arial" font-size="12.00">P0</text>
</g>
<!-- 3 -->
<g id="node3" class="node"><title>3</title>
<ellipse fill="powderblue" stroke="black" cx="203" cy="-47" rx="18" ry="18"/>
<text text-anchor="middle" x="203" y="-43.9" font-family="arial" font-size="12.00">P2</text>
</g>
<!-- 1&#45;&gt;3 -->
<g id="edge1" class="edge"><title>1&#45;&gt;3</title>
<path fill="none" stroke="black" d="M124.805,-67.5305C138.841,-63.7977 159.106,-58.408 175.351,-54.0874"/>
<polygon fill="black" stroke="black" points="176.576,-57.3835 185.34,-51.4308 174.777,-50.6187 176.576,-57.3835"/>
<text text-anchor="middle" x="155" y="-65.4" font-family="arial" font-size="12.00">0.75</text>
</g>
<!-- 2 -->
<g id="node2" class="node"><title>2</title>
<ellipse fill="powderblue" stroke="black" cx="107" cy="-18" rx="18" ry="18"/>
<text text-anchor="middle" x="107" y="-14.9" font-family="arial" font-size="12.00">P1</text>
</g>
<!-- 2&#45;&gt;3 -->
<g id="edge2" class="edge"><title>2&#45;&gt;3</title>
<path fill="none" stroke="black" d="M124.374,-23.0514C138.574,-27.4324 159.382,-33.8517 175.88,-38.9418"/>
<polygon fill="black" stroke="black" points="174.911,-42.3056 185.499,-41.9092 176.975,-35.6166 174.911,-42.3056"/>
<text text-anchor="middle" x="155" y="-38.4" font-family="arial" font-size="12.00">1.33</text>
</g>
<!-- 4 -->
<g id="node4" class="node"><title>4</title>
<ellipse fill="powderblue" stroke="black" cx="306" cy="-79" rx="18" ry="18"/>
<text text-anchor="middle" x="306" y="-75.9" font-family="arial" font-size="12.00">P3</text>
</g>
<!-- 3&#45;&gt;4 -->
<g id="edge3" class="edge"><title>3&#45;&gt;4</title>
<path fill="none" stroke="black" d="M220.678,-52.2841C236.562,-57.3168 260.709,-64.9671 279.098,-70.7933"/>
<polygon fill="black" stroke="black" points="278.042,-74.1303 288.632,-73.8142 280.156,-67.4572 278.042,-74.1303"/>
<text text-anchor="middle" x="254.5" y="-70.4" font-family="arial" font-size="12.00">0.667</text>
</g>
<!-- 5 -->
<g id="node5" class="node"><title>5</title>
<ellipse fill="powderblue" stroke="black" cx="306" cy="-25" rx="18" ry="18"/>
<text text-anchor="middle" x="306" y="-21.9" font-family="arial" font-size="12.00">P4</text>
</g>
<!-- 3&#45;&gt;5 -->
<g id="edge4" class="edge"><title>3&#45;&gt;5</title>
<path fill="none" stroke="black" d="M220.723,-43.1215C226.507,-41.7948 233.035,-40.3144 239,-39 251.917,-36.154 266.28,-33.0947 278.301,-30.5641"/>
<polygon fill="black" stroke="black" points="279.097,-33.9733 288.166,-28.495 277.66,-27.1224 279.097,-33.9733"/>
<text text-anchor="middle" x="254.5" y="-42.4" font-family="arial" font-size="12.00">0.375</text>
</g>
<!-- 6 -->
<g id="node6" class="node"><title>6</title>
<ellipse fill="powderblue" stroke="black" cx="409" cy="-54" rx="18" ry="18"/>
<text text-anchor="middle" x="409" y="-50.9" font-family="arial" font-size="12.00">P5</text>
</g>
<!-- 4&#45;&gt;6 -->
<g id="edge5" class="edge"><title>4&#45;&gt;6</title>
<path fill="none" stroke="black" d="M323.678,-74.8718C339.395,-70.9815 363.2,-65.0891 381.513,-60.5561"/>
<polygon fill="black" stroke="black" points="382.431,-63.9347 391.297,-58.1344 380.749,-57.1397 382.431,-63.9347"/>
<text text-anchor="middle" x="357.5" y="-73.4" font-family="arial" font-size="12.00">0.889</text>
</g>
<!-- 5&#45;&gt;6 -->
<g id="edge6" class="edge"><title>5&#45;&gt;6</title>
<path fill="none" stroke="black" d="M323.678,-29.7888C339.395,-34.3014 363.2,-41.1366 381.513,-46.3949"/>
<polygon fill="black" stroke="black" points="380.72,-49.8084 391.297,-49.2041 382.651,-43.0802 380.72,-49.8084"/>
<text text-anchor="middle" x="357.5" y="-46.4" font-family="arial" font-size="12.00">0.75</text>
</g>
<!-- 7 -->
<g id="node7" class="node"><title>7</title>
<ellipse fill="powderblue" stroke="black" cx="505" cy="-54" rx="18" ry="18"/>
<text text-anchor="middle" x="505" y="-50.9" font-family="arial" font-size="12.00">P6</text>
</g>
<!-- 6&#45;&gt;7 -->
<g id="edge7" class="edge"><title>6&#45;&gt;7</title>
<path fill="none" stroke="black" d="M427.241,-54C441.022,-54 460.6,-54 476.535,-54"/>
<polygon fill="black" stroke="black" points="476.868,-57.5001 486.868,-54 476.868,-50.5001 476.868,-57.5001"/>
<text text-anchor="middle" x="457" y="-57.4" font-family="arial" font-size="12.00">1.78</text>
</g>
<!-- 8 -->
<g id="node8" class="node"><title>8</title>
<ellipse fill="powderblue" stroke="black" cx="601" cy="-54" rx="18" ry="18"/>
<text text-anchor="middle" x="601" y="-50.9" font-family="arial" font-size="12.00">P7</text>
</g>
<!-- 7&#45;&gt;8 -->
<g id="edge8" class="edge"><title>7&#45;&gt;8</title>
<path fill="none" stroke="black" d="M523.241,-54C537.022,-54 556.6,-54 572.535,-54"/>
<polygon fill="black" stroke="black" points="572.868,-57.5001 582.868,-54 572.868,-50.5001 572.868,-57.5001"/>
<text text-anchor="middle" x="553" y="-57.4" font-family="arial" font-size="12.00">7.11</text>
</g>
<!-- 9 -->
<g id="node9" class="node"><title>9</title>
<ellipse fill="powderblue" stroke="black" cx="697" cy="-54" rx="18" ry="18"/>
<text text-anchor="middle" x="697" y="-50.9" font-family="arial" font-size="12.00">P8</text>
</g>
<!-- 8&#45;&gt;9 -->
<g id="edge9" class="edge"><title>8&#45;&gt;9</title>
<path fill="none" stroke="black" d="M619.241,-54C633.022,-54 652.6,-54 668.535,-54"/>
<polygon fill="black" stroke="black" points="668.868,-57.5001 678.868,-54 668.868,-50.5001 668.868,-57.5001"/>
<text text-anchor="middle" x="649" y="-57.4" font-family="arial" font-size="12.00">21.3</text>
</g>
<!-- 11 -->
<g id="node11" class="node"><title>11</title>
<ellipse fill="darksalmon" stroke="black" cx="793" cy="-54" rx="18" ry="18"/>
<text text-anchor="middle" x="793" y="-50.9" font-family="arial" font-size="12.00">Sink</text>
</g>
<!-- 9&#45;&gt;11 -->
<g id="edge12" class="edge"><title>9&#45;&gt;11</title>
<path fill="none" stroke="black" d="M715.241,-54C729.022,-54 748.6,-54 764.535,-54"/>
<polygon fill="black" stroke="black" points="764.868,-57.5001 774.868,-54 764.868,-50.5001 764.868,-57.5001"/>
<text text-anchor="middle" x="745" y="-57.4" font-family="arial" font-size="12.00">21.3</text>
</g>
<!-- 10 -->
<g id="node10" class="node"><title>10</title>
<ellipse fill="forestgreen" stroke="black" cx="18" cy="-44" rx="18" ry="18"/>
<text text-anchor="middle" x="18" y="-41.5" font-family="arial" font-size="10.00">Source</text>
</g>
<!-- 10&#45;&gt;1 -->
<g id="edge11" class="edge"><title>10&#45;&gt;1</title>
<path fill="none" stroke="black" d="M35.364,-49.2666C47.8803,-53.2948 65.387,-58.9292 79.84,-63.5807"/>
<polygon fill="black" stroke="black" points="79.1179,-67.025 89.7093,-66.757 81.2625,-60.3616 79.1179,-67.025"/>
<text text-anchor="middle" x="62.5" y="-63.4" font-family="arial" font-size="12.00">1.0</text>
</g>
<!-- 10&#45;&gt;2 -->
<g id="edge10" class="edge"><title>10&#45;&gt;2</title>
<path fill="none" stroke="black" d="M35.3072,-38.1545C41.1726,-36.1195 47.857,-33.8777 54,-32 62.1725,-29.5019 71.1384,-27.0029 79.2891,-24.8221"/>
<polygon fill="black" stroke="black" points="80.2752,-28.1819 89.0564,-22.254 78.4951,-21.412 80.2752,-28.1819"/>
<text text-anchor="middle" x="62.5" y="-35.4" font-family="arial" font-size="12.00">1.0</text>
</g>
</g>
</svg>
