<?xml version="1.0" encoding="UTF-8" standalone="no"?>
<!DOCTYPE svg PUBLIC "-//W3C//DTD SVG 1.1//EN"
 "http://www.w3.org/Graphics/SVG/1.1/DTD/svg11.dtd">
<!-- Generated by graphviz version 2.38.0 (20140413.2041)
 -->
<!-- Title: %3 Pages: 1 -->
<svg width="742pt" height="116pt"
 viewBox="0.00 0.00 742.00 116.00" xmlns="http://www.w3.org/2000/svg" xmlns:xlink="http://www.w3.org/1999/xlink">
<g id="graph0" class="graph" transform="scale(1 1) rotate(0) translate(4 112)">
<title>%3</title>
<polygon fill="white" stroke="none" points="-4,4 -4,-112 738,-112 738,4 -4,4"/>
<!-- 1 -->
<g id="node1" class="node"><title>1</title>
<ellipse fill="powderblue" stroke="black" cx="107" cy="-40" rx="18" ry="18"/>
<text text-anchor="middle" x="107" y="-36.9" font-family="arial" font-size="12.00">P0</text>
</g>
<!-- 2 -->
<g id="node2" class="node"><title>2</title>
<ellipse fill="powderblue" stroke="black" cx="196" cy="-40" rx="18" ry="18"/>
<text text-anchor="middle" x="196" y="-36.9" font-family="arial" font-size="12.00">P1</text>
</g>
<!-- 1&#45;&gt;2 -->
<g id="edge1" class="edge"><title>1&#45;&gt;2</title>
<path fill="none" stroke="black" d="M125.188,-40C137.343,-40 153.886,-40 167.818,-40"/>
<polygon fill="black" stroke="black" points="167.847,-43.5001 177.847,-40 167.847,-36.5001 167.847,-43.5001"/>
<text text-anchor="middle" x="151.5" y="-43.4" font-family="arial" font-size="12.00">0.5</text>
</g>
<!-- 3 -->
<g id="node3" class="node"><title>3</title>
<ellipse fill="powderblue" stroke="black" cx="292" cy="-72" rx="18" ry="18"/>
<text text-anchor="middle" x="292" y="-68.9" font-family="arial" font-size="12.00">P2</text>
</g>
<!-- 2&#45;&gt;3 -->
<g id="edge2" class="edge"><title>2&#45;&gt;3</title>
<path fill="none" stroke="black" d="M213.374,-45.574C227.661,-50.4379 248.637,-57.5786 265.183,-63.2114"/>
<polygon fill="black" stroke="black" points="264.22,-66.5805 274.814,-66.4899 266.476,-59.9539 264.22,-66.5805"/>
<text text-anchor="middle" x="244" y="-62.4" font-family="arial" font-size="12.00">0.25</text>
</g>
<!-- 4 -->
<g id="node4" class="node"><title>4</title>
<ellipse fill="powderblue" stroke="black" cx="292" cy="-18" rx="18" ry="18"/>
<text text-anchor="middle" x="292" y="-14.9" font-family="arial" font-size="12.00">P3</text>
</g>
<!-- 2&#45;&gt;4 -->
<g id="edge3" class="edge"><title>2&#45;&gt;4</title>
<path fill="none" stroke="black" d="M213.805,-36.0668C227.841,-32.782 248.106,-28.039 264.351,-24.237"/>
<polygon fill="black" stroke="black" points="265.401,-27.5859 274.34,-21.8991 263.806,-20.7701 265.401,-27.5859"/>
<text text-anchor="middle" x="244" y="-35.4" font-family="arial" font-size="12.00">0.75</text>
</g>
<!-- 5 -->
<g id="node5" class="node"><title>5</title>
<ellipse fill="powderblue" stroke="black" cx="395" cy="-36" rx="18" ry="18"/>
<text text-anchor="middle" x="395" y="-32.9" font-family="arial" font-size="12.00">P4</text>
</g>
<!-- 3&#45;&gt;5 -->
<g id="edge4" class="edge"><title>3&#45;&gt;5</title>
<path fill="none" stroke="black" d="M309.227,-66.216C325.13,-60.5477 349.618,-51.8192 368.194,-45.1983"/>
<polygon fill="black" stroke="black" points="369.568,-48.424 377.813,-41.7697 367.218,-41.8304 369.568,-48.424"/>
<text text-anchor="middle" x="343.5" y="-62.4" font-family="arial" font-size="12.00">1.5</text>
</g>
<!-- 6 -->
<g id="node6" class="node"><title>6</title>
<ellipse fill="powderblue" stroke="black" cx="395" cy="-90" rx="18" ry="18"/>
<text text-anchor="middle" x="395" y="-86.9" font-family="arial" font-size="12.00">P5</text>
</g>
<!-- 3&#45;&gt;6 -->
<g id="edge6" class="edge"><title>3&#45;&gt;6</title>
<path fill="none" stroke="black" d="M310.133,-75.0535C325.753,-77.8372 349.081,-81.9946 367.172,-85.2187"/>
<polygon fill="black" stroke="black" points="366.661,-88.6827 377.12,-86.9916 367.889,-81.7913 366.661,-88.6827"/>
<text text-anchor="middle" x="343.5" y="-86.4" font-family="arial" font-size="12.00">0.167</text>
</g>
<!-- 4&#45;&gt;5 -->
<g id="edge5" class="edge"><title>4&#45;&gt;5</title>
<path fill="none" stroke="black" d="M310.07,-16.2496C323.545,-15.3457 342.724,-15.1262 359,-19 362.701,-19.8808 366.467,-21.1966 370.091,-22.7135"/>
<polygon fill="black" stroke="black" points="368.672,-25.9145 379.207,-27.0378 371.672,-19.5899 368.672,-25.9145"/>
<text text-anchor="middle" x="343.5" y="-22.4" font-family="arial" font-size="12.00">0.375</text>
</g>
<!-- 8 -->
<g id="node8" class="node"><title>8</title>
<ellipse fill="powderblue" stroke="black" cx="498" cy="-36" rx="18" ry="18"/>
<text text-anchor="middle" x="498" y="-32.9" font-family="arial" font-size="12.00">P7</text>
</g>
<!-- 5&#45;&gt;8 -->
<g id="edge8" class="edge"><title>5&#45;&gt;8</title>
<path fill="none" stroke="black" d="M413.133,-36C428.586,-36 451.584,-36 469.591,-36"/>
<polygon fill="black" stroke="black" points="469.783,-39.5001 479.783,-36 469.783,-32.5001 469.783,-39.5001"/>
<text text-anchor="middle" x="446.5" y="-39.4" font-family="arial" font-size="12.00">0.188</text>
</g>
<!-- 7 -->
<g id="node7" class="node"><title>7</title>
<ellipse fill="powderblue" stroke="black" cx="498" cy="-90" rx="18" ry="18"/>
<text text-anchor="middle" x="498" y="-86.9" font-family="arial" font-size="12.00">P6</text>
</g>
<!-- 6&#45;&gt;7 -->
<g id="edge7" class="edge"><title>6&#45;&gt;7</title>
<path fill="none" stroke="black" d="M413.133,-90C428.586,-90 451.584,-90 469.591,-90"/>
<polygon fill="black" stroke="black" points="469.783,-93.5001 479.783,-90 469.783,-86.5001 469.783,-93.5001"/>
<text text-anchor="middle" x="446.5" y="-93.4" font-family="arial" font-size="12.00">0.333</text>
</g>
<!-- 9 -->
<g id="node9" class="node"><title>9</title>
<ellipse fill="powderblue" stroke="black" cx="607" cy="-65" rx="18" ry="18"/>
<text text-anchor="middle" x="607" y="-61.9" font-family="arial" font-size="12.00">P8</text>
</g>
<!-- 7&#45;&gt;9 -->
<g id="edge9" class="edge"><title>7&#45;&gt;9</title>
<path fill="none" stroke="black" d="M515.719,-86.0938C532.758,-82.1126 559.445,-75.8773 579.392,-71.2168"/>
<polygon fill="black" stroke="black" points="580.457,-74.5623 589.399,-68.8788 578.865,-67.7459 580.457,-74.5623"/>
<text text-anchor="middle" x="552.5" y="-84.4" font-family="arial" font-size="12.00">0.667</text>
</g>
<!-- 8&#45;&gt;9 -->
<g id="edge10" class="edge"><title>8&#45;&gt;9</title>
<path fill="none" stroke="black" d="M515.719,-40.5312C532.837,-45.1707 559.691,-52.4491 579.667,-57.8631"/>
<polygon fill="black" stroke="black" points="578.831,-61.2627 589.399,-60.5006 580.662,-54.5065 578.831,-61.2627"/>
<text text-anchor="middle" x="552.5" y="-57.4" font-family="arial" font-size="12.00">0.0938</text>
</g>
<!-- 11 -->
<g id="node11" class="node"><title>11</title>
<ellipse fill="darksalmon" stroke="black" cx="716" cy="-65" rx="18" ry="18"/>
<text text-anchor="middle" x="716" y="-61.9" font-family="arial" font-size="12.00">Sink</text>
</g>
<!-- 9&#45;&gt;11 -->
<g id="edge12" class="edge"><title>9&#45;&gt;11</title>
<path fill="none" stroke="black" d="M625.191,-65C642.039,-65 667.982,-65 687.661,-65"/>
<polygon fill="black" stroke="black" points="687.851,-68.5001 697.851,-65 687.851,-61.5001 687.851,-68.5001"/>
<text text-anchor="middle" x="661.5" y="-68.4" font-family="arial" font-size="12.00">0.0234</text>
</g>
<!-- 10 -->
<g id="node10" class="node"><title>10</title>
<ellipse fill="forestgreen" stroke="black" cx="18" cy="-40" rx="18" ry="18"/>
<text text-anchor="middle" x="18" y="-37.5" font-family="arial" font-size="10.00">Source</text>
</g>
<!-- 10&#45;&gt;1 -->
<g id="edge11" class="edge"><title>10&#45;&gt;1</title>
<path fill="none" stroke="black" d="M36.1884,-40C48.3426,-40 64.8865,-40 78.8185,-40"/>
<polygon fill="black" stroke="black" points="78.8473,-43.5001 88.8473,-40 78.8473,-36.5001 78.8473,-43.5001"/>
<text text-anchor="middle" x="62.5" y="-43.4" font-family="arial" font-size="12.00">1.0</text>
</g>
</g>
</svg>
