<?xml version="1.0" encoding="UTF-8" standalone="no"?>
<!DOCTYPE svg PUBLIC "-//W3C//DTD SVG 1.1//EN"
 "http://www.w3.org/Graphics/SVG/1.1/DTD/svg11.dtd">
<!-- Generated by graphviz version 2.38.0 (20140413.2041)
 -->
<!-- Title: %3 Pages: 1 -->
<svg width="844pt" height="152pt"
 viewBox="0.00 0.00 844.00 152.00" xmlns="http://www.w3.org/2000/svg" xmlns:xlink="http://www.w3.org/1999/xlink">
<g id="graph0" class="graph" transform="scale(1 1) rotate(0) translate(4 148)">
<title>%3</title>
<polygon fill="white" stroke="none" points="-4,4 -4,-148 840,-148 840,4 -4,4"/>
<!-- 1 -->
<g id="node1" class="node"><title>1</title>
<ellipse fill="powderblue" stroke="black" cx="107" cy="-72" rx="18" ry="18"/>
<text text-anchor="middle" x="107" y="-68.9" font-family="arial" font-size="12.00">P0</text>
</g>
<!-- 2 -->
<g id="node2" class="node"><title>2</title>
<ellipse fill="powderblue" stroke="black" cx="196" cy="-72" rx="18" ry="18"/>
<text text-anchor="middle" x="196" y="-68.9" font-family="arial" font-size="12.00">P1</text>
</g>
<!-- 1&#45;&gt;2 -->
<g id="edge1" class="edge"><title>1&#45;&gt;2</title>
<path fill="none" stroke="black" d="M125.188,-72C137.343,-72 153.886,-72 167.818,-72"/>
<polygon fill="black" stroke="black" points="167.847,-75.5001 177.847,-72 167.847,-68.5001 167.847,-75.5001"/>
<text text-anchor="middle" x="151.5" y="-75.4" font-family="arial" font-size="12.00">1.0</text>
</g>
<!-- 3 -->
<g id="node3" class="node"><title>3</title>
<ellipse fill="powderblue" stroke="black" cx="285" cy="-126" rx="18" ry="18"/>
<text text-anchor="middle" x="285" y="-122.9" font-family="arial" font-size="12.00">P2</text>
</g>
<!-- 2&#45;&gt;3 -->
<g id="edge2" class="edge"><title>2&#45;&gt;3</title>
<path fill="none" stroke="black" d="M211.758,-81.1604C225.132,-89.4612 245.066,-101.834 260.608,-111.481"/>
<polygon fill="black" stroke="black" points="258.827,-114.495 269.169,-116.795 262.519,-108.547 258.827,-114.495"/>
<text text-anchor="middle" x="240.5" y="-106.4" font-family="arial" font-size="12.00">0.5</text>
</g>
<!-- 4 -->
<g id="node4" class="node"><title>4</title>
<ellipse fill="powderblue" stroke="black" cx="285" cy="-72" rx="18" ry="18"/>
<text text-anchor="middle" x="285" y="-68.9" font-family="arial" font-size="12.00">P3</text>
</g>
<!-- 2&#45;&gt;4 -->
<g id="edge3" class="edge"><title>2&#45;&gt;4</title>
<path fill="none" stroke="black" d="M214.188,-72C226.343,-72 242.886,-72 256.818,-72"/>
<polygon fill="black" stroke="black" points="256.847,-75.5001 266.847,-72 256.847,-68.5001 256.847,-75.5001"/>
<text text-anchor="middle" x="240.5" y="-75.4" font-family="arial" font-size="12.00">0.5</text>
</g>
<!-- 5 -->
<g id="node5" class="node"><title>5</title>
<ellipse fill="powderblue" stroke="black" cx="285" cy="-18" rx="18" ry="18"/>
<text text-anchor="middle" x="285" y="-14.9" font-family="arial" font-size="12.00">P4</text>
</g>
<!-- 2&#45;&gt;5 -->
<g id="edge4" class="edge"><title>2&#45;&gt;5</title>
<path fill="none" stroke="black" d="M211.758,-62.8396C225.132,-54.5388 245.066,-42.1662 260.608,-32.519"/>
<polygon fill="black" stroke="black" points="262.519,-35.4527 269.169,-27.2053 258.827,-29.5052 262.519,-35.4527"/>
<text text-anchor="middle" x="240.5" y="-53.4" font-family="arial" font-size="12.00">0.5</text>
</g>
<!-- 6 -->
<g id="node6" class="node"><title>6</title>
<ellipse fill="powderblue" stroke="black" cx="388" cy="-72" rx="18" ry="18"/>
<text text-anchor="middle" x="388" y="-68.9" font-family="arial" font-size="12.00">P5</text>
</g>
<!-- 3&#45;&gt;6 -->
<g id="edge5" class="edge"><title>3&#45;&gt;6</title>
<path fill="none" stroke="black" d="M301.34,-117.799C317.674,-109.065 343.751,-95.1234 362.847,-84.9137"/>
<polygon fill="black" stroke="black" points="364.678,-87.9032 371.847,-80.1017 361.378,-81.7301 364.678,-87.9032"/>
<text text-anchor="middle" x="336.5" y="-109.4" font-family="arial" font-size="12.00">1.0</text>
</g>
<!-- 4&#45;&gt;6 -->
<g id="edge6" class="edge"><title>4&#45;&gt;6</title>
<path fill="none" stroke="black" d="M303.133,-72C318.586,-72 341.584,-72 359.591,-72"/>
<polygon fill="black" stroke="black" points="359.783,-75.5001 369.783,-72 359.783,-68.5001 359.783,-75.5001"/>
<text text-anchor="middle" x="336.5" y="-75.4" font-family="arial" font-size="12.00">0.625</text>
</g>
<!-- 5&#45;&gt;6 -->
<g id="edge7" class="edge"><title>5&#45;&gt;6</title>
<path fill="none" stroke="black" d="M301.34,-26.2014C317.674,-34.9346 343.751,-48.8766 362.847,-59.0863"/>
<polygon fill="black" stroke="black" points="361.378,-62.2699 371.847,-63.8983 364.678,-56.0968 361.378,-62.2699"/>
<text text-anchor="middle" x="336.5" y="-56.4" font-family="arial" font-size="12.00">0.125</text>
</g>
<!-- 7 -->
<g id="node7" class="node"><title>7</title>
<ellipse fill="powderblue" stroke="black" cx="497" cy="-72" rx="18" ry="18"/>
<text text-anchor="middle" x="497" y="-68.9" font-family="arial" font-size="12.00">P6</text>
</g>
<!-- 6&#45;&gt;7 -->
<g id="edge8" class="edge"><title>6&#45;&gt;7</title>
<path fill="none" stroke="black" d="M406.191,-72C423.039,-72 448.982,-72 468.661,-72"/>
<polygon fill="black" stroke="black" points="468.851,-75.5001 478.851,-72 468.851,-68.5001 468.851,-75.5001"/>
<text text-anchor="middle" x="442.5" y="-75.4" font-family="arial" font-size="12.00">0.0625</text>
</g>
<!-- 8 -->
<g id="node8" class="node"><title>8</title>
<ellipse fill="powderblue" stroke="black" cx="600" cy="-72" rx="18" ry="18"/>
<text text-anchor="middle" x="600" y="-68.9" font-family="arial" font-size="12.00">P7</text>
</g>
<!-- 7&#45;&gt;8 -->
<g id="edge9" class="edge"><title>7&#45;&gt;8</title>
<path fill="none" stroke="black" d="M515.133,-72C530.586,-72 553.584,-72 571.591,-72"/>
<polygon fill="black" stroke="black" points="571.783,-75.5001 581.783,-72 571.783,-68.5001 571.783,-75.5001"/>
<text text-anchor="middle" x="548.5" y="-75.4" font-family="arial" font-size="12.00">0.188</text>
</g>
<!-- 9 -->
<g id="node9" class="node"><title>9</title>
<ellipse fill="powderblue" stroke="black" cx="709" cy="-72" rx="18" ry="18"/>
<text text-anchor="middle" x="709" y="-68.9" font-family="arial" font-size="12.00">P8</text>
</g>
<!-- 8&#45;&gt;9 -->
<g id="edge10" class="edge"><title>8&#45;&gt;9</title>
<path fill="none" stroke="black" d="M618.191,-72C635.039,-72 660.982,-72 680.661,-72"/>
<polygon fill="black" stroke="black" points="680.851,-75.5001 690.851,-72 680.851,-68.5001 680.851,-75.5001"/>
<text text-anchor="middle" x="654.5" y="-75.4" font-family="arial" font-size="12.00">0.0938</text>
</g>
<!-- 11 -->
<g id="node11" class="node"><title>11</title>
<ellipse fill="darksalmon" stroke="black" cx="818" cy="-72" rx="18" ry="18"/>
<text text-anchor="middle" x="818" y="-68.9" font-family="arial" font-size="12.00">Sink</text>
</g>
<!-- 9&#45;&gt;11 -->
<g id="edge12" class="edge"><title>9&#45;&gt;11</title>
<path fill="none" stroke="black" d="M727.191,-72C744.039,-72 769.982,-72 789.661,-72"/>
<polygon fill="black" stroke="black" points="789.851,-75.5001 799.851,-72 789.851,-68.5001 789.851,-75.5001"/>
<text text-anchor="middle" x="763.5" y="-75.4" font-family="arial" font-size="12.00">0.0938</text>
</g>
<!-- 10 -->
<g id="node10" class="node"><title>10</title>
<ellipse fill="forestgreen" stroke="black" cx="18" cy="-72" rx="18" ry="18"/>
<text text-anchor="middle" x="18" y="-69.5" font-family="arial" font-size="10.00">Source</text>
</g>
<!-- 10&#45;&gt;1 -->
<g id="edge11" class="edge"><title>10&#45;&gt;1</title>
<path fill="none" stroke="black" d="M36.1884,-72C48.3426,-72 64.8865,-72 78.8185,-72"/>
<polygon fill="black" stroke="black" points="78.8473,-75.5001 88.8473,-72 78.8473,-68.5001 78.8473,-75.5001"/>
<text text-anchor="middle" x="62.5" y="-75.4" font-family="arial" font-size="12.00">1.0</text>
</g>
</g>
</svg>
