<?xml version="1.0" encoding="UTF-8" standalone="no"?>
<!DOCTYPE svg PUBLIC "-//W3C//DTD SVG 1.1//EN"
 "http://www.w3.org/Graphics/SVG/1.1/DTD/svg11.dtd">
<!-- Generated by graphviz version 2.38.0 (20140413.2041)
 -->
<!-- Title: %3 Pages: 1 -->
<svg width="756pt" height="116pt"
 viewBox="0.00 0.00 756.00 116.00" xmlns="http://www.w3.org/2000/svg" xmlns:xlink="http://www.w3.org/1999/xlink">
<g id="graph0" class="graph" transform="scale(1 1) rotate(0) translate(4 112)">
<title>%3</title>
<polygon fill="white" stroke="none" points="-4,4 -4,-112 752,-112 752,4 -4,4"/>
<!-- 1 -->
<g id="node1" class="node"><title>1</title>
<ellipse fill="powderblue" stroke="black" cx="107" cy="-40" rx="18" ry="18"/>
<text text-anchor="middle" x="107" y="-36.9" font-family="arial" font-size="12.00">P0</text>
</g>
<!-- 2 -->
<g id="node2" class="node"><title>2</title>
<ellipse fill="powderblue" stroke="black" cx="196" cy="-72" rx="18" ry="18"/>
<text text-anchor="middle" x="196" y="-68.9" font-family="arial" font-size="12.00">P1</text>
</g>
<!-- 1&#45;&gt;2 -->
<g id="edge1" class="edge"><title>1&#45;&gt;2</title>
<path fill="none" stroke="black" d="M124.364,-46.019C137.002,-50.6673 154.727,-57.1871 169.26,-62.5325"/>
<polygon fill="black" stroke="black" points="168.116,-65.8408 178.709,-66.008 170.532,-59.2711 168.116,-65.8408"/>
<text text-anchor="middle" x="151.5" y="-61.4" font-family="arial" font-size="12.00">0.5</text>
</g>
<!-- 3 -->
<g id="node3" class="node"><title>3</title>
<ellipse fill="powderblue" stroke="black" cx="196" cy="-18" rx="18" ry="18"/>
<text text-anchor="middle" x="196" y="-14.9" font-family="arial" font-size="12.00">P2</text>
</g>
<!-- 1&#45;&gt;3 -->
<g id="edge2" class="edge"><title>1&#45;&gt;3</title>
<path fill="none" stroke="black" d="M124.774,-35.7582C137.171,-32.6234 154.296,-28.293 168.531,-24.6933"/>
<polygon fill="black" stroke="black" points="169.44,-28.0736 178.277,-22.2288 167.724,-21.2872 169.44,-28.0736"/>
<text text-anchor="middle" x="151.5" y="-34.4" font-family="arial" font-size="12.00">1.0</text>
</g>
<!-- 4 -->
<g id="node4" class="node"><title>4</title>
<ellipse fill="powderblue" stroke="black" cx="285" cy="-36" rx="18" ry="18"/>
<text text-anchor="middle" x="285" y="-32.9" font-family="arial" font-size="12.00">P3</text>
</g>
<!-- 2&#45;&gt;4 -->
<g id="edge3" class="edge"><title>2&#45;&gt;4</title>
<path fill="none" stroke="black" d="M212.957,-65.397C225.711,-60.1194 243.832,-52.6211 258.58,-46.5186"/>
<polygon fill="black" stroke="black" points="260.242,-49.6187 268.144,-42.5611 257.566,-43.1506 260.242,-49.6187"/>
<text text-anchor="middle" x="240.5" y="-60.4" font-family="arial" font-size="12.00">0.5</text>
</g>
<!-- 5 -->
<g id="node5" class="node"><title>5</title>
<ellipse fill="powderblue" stroke="black" cx="285" cy="-90" rx="18" ry="18"/>
<text text-anchor="middle" x="285" y="-86.9" font-family="arial" font-size="12.00">P4</text>
</g>
<!-- 2&#45;&gt;5 -->
<g id="edge5" class="edge"><title>2&#45;&gt;5</title>
<path fill="none" stroke="black" d="M213.774,-75.4706C226.051,-78.0105 242.964,-81.5098 257.116,-84.4378"/>
<polygon fill="black" stroke="black" points="256.775,-87.9414 267.277,-86.5401 258.194,-81.0865 256.775,-87.9414"/>
<text text-anchor="middle" x="240.5" y="-85.4" font-family="arial" font-size="12.00">1.5</text>
</g>
<!-- 3&#45;&gt;4 -->
<g id="edge4" class="edge"><title>3&#45;&gt;4</title>
<path fill="none" stroke="black" d="M214.096,-16.4962C224.355,-16.0439 237.586,-16.2589 249,-19 252.699,-19.8883 256.464,-21.2084 260.087,-22.7273"/>
<polygon fill="black" stroke="black" points="258.669,-25.9283 269.204,-27.0524 261.669,-19.6039 258.669,-25.9283"/>
<text text-anchor="middle" x="240.5" y="-22.4" font-family="arial" font-size="12.00">0.5</text>
</g>
<!-- 6 -->
<g id="node6" class="node"><title>6</title>
<ellipse fill="powderblue" stroke="black" cx="374" cy="-65" rx="18" ry="18"/>
<text text-anchor="middle" x="374" y="-61.9" font-family="arial" font-size="12.00">P5</text>
</g>
<!-- 4&#45;&gt;6 -->
<g id="edge6" class="edge"><title>4&#45;&gt;6</title>
<path fill="none" stroke="black" d="M302.364,-41.4547C314.88,-45.6268 332.387,-51.4623 346.84,-56.28"/>
<polygon fill="black" stroke="black" points="346.116,-59.7278 356.709,-59.5698 348.329,-53.087 346.116,-59.7278"/>
<text text-anchor="middle" x="329.5" y="-56.4" font-family="arial" font-size="12.00">0.2</text>
</g>
<!-- 5&#45;&gt;6 -->
<g id="edge7" class="edge"><title>5&#45;&gt;6</title>
<path fill="none" stroke="black" d="M302.774,-85.1797C315.251,-81.5946 332.516,-76.6334 346.805,-72.5274"/>
<polygon fill="black" stroke="black" points="347.928,-75.8464 356.572,-69.7207 345.994,-69.1187 347.928,-75.8464"/>
<text text-anchor="middle" x="329.5" y="-82.4" font-family="arial" font-size="12.00">1.5</text>
</g>
<!-- 7 -->
<g id="node7" class="node"><title>7</title>
<ellipse fill="powderblue" stroke="black" cx="463" cy="-65" rx="18" ry="18"/>
<text text-anchor="middle" x="463" y="-61.9" font-family="arial" font-size="12.00">P6</text>
</g>
<!-- 6&#45;&gt;7 -->
<g id="edge8" class="edge"><title>6&#45;&gt;7</title>
<path fill="none" stroke="black" d="M392.188,-65C404.343,-65 420.886,-65 434.818,-65"/>
<polygon fill="black" stroke="black" points="434.847,-68.5001 444.847,-65 434.847,-61.5001 434.847,-68.5001"/>
<text text-anchor="middle" x="418.5" y="-68.4" font-family="arial" font-size="12.00">0.8</text>
</g>
<!-- 8 -->
<g id="node8" class="node"><title>8</title>
<ellipse fill="powderblue" stroke="black" cx="552" cy="-65" rx="18" ry="18"/>
<text text-anchor="middle" x="552" y="-61.9" font-family="arial" font-size="12.00">P7</text>
</g>
<!-- 7&#45;&gt;8 -->
<g id="edge9" class="edge"><title>7&#45;&gt;8</title>
<path fill="none" stroke="black" d="M481.188,-65C493.343,-65 509.886,-65 523.818,-65"/>
<polygon fill="black" stroke="black" points="523.847,-68.5001 533.847,-65 523.847,-61.5001 523.847,-68.5001"/>
<text text-anchor="middle" x="507.5" y="-68.4" font-family="arial" font-size="12.00">2.4</text>
</g>
<!-- 9 -->
<g id="node9" class="node"><title>9</title>
<ellipse fill="powderblue" stroke="black" cx="641" cy="-65" rx="18" ry="18"/>
<text text-anchor="middle" x="641" y="-61.9" font-family="arial" font-size="12.00">P8</text>
</g>
<!-- 8&#45;&gt;9 -->
<g id="edge10" class="edge"><title>8&#45;&gt;9</title>
<path fill="none" stroke="black" d="M570.188,-65C582.343,-65 598.886,-65 612.818,-65"/>
<polygon fill="black" stroke="black" points="612.847,-68.5001 622.847,-65 612.847,-61.5001 612.847,-68.5001"/>
<text text-anchor="middle" x="596.5" y="-68.4" font-family="arial" font-size="12.00">2.4</text>
</g>
<!-- 11 -->
<g id="node11" class="node"><title>11</title>
<ellipse fill="darksalmon" stroke="black" cx="730" cy="-65" rx="18" ry="18"/>
<text text-anchor="middle" x="730" y="-61.9" font-family="arial" font-size="12.00">Sink</text>
</g>
<!-- 9&#45;&gt;11 -->
<g id="edge12" class="edge"><title>9&#45;&gt;11</title>
<path fill="none" stroke="black" d="M659.188,-65C671.343,-65 687.886,-65 701.818,-65"/>
<polygon fill="black" stroke="black" points="701.847,-68.5001 711.847,-65 701.847,-61.5001 701.847,-68.5001"/>
<text text-anchor="middle" x="685.5" y="-68.4" font-family="arial" font-size="12.00">0.6</text>
</g>
<!-- 10 -->
<g id="node10" class="node"><title>10</title>
<ellipse fill="forestgreen" stroke="black" cx="18" cy="-40" rx="18" ry="18"/>
<text text-anchor="middle" x="18" y="-37.5" font-family="arial" font-size="10.00">Source</text>
</g>
<!-- 10&#45;&gt;1 -->
<g id="edge11" class="edge"><title>10&#45;&gt;1</title>
<path fill="none" stroke="black" d="M36.1884,-40C48.3426,-40 64.8865,-40 78.8185,-40"/>
<polygon fill="black" stroke="black" points="78.8473,-43.5001 88.8473,-40 78.8473,-36.5001 78.8473,-43.5001"/>
<text text-anchor="middle" x="62.5" y="-43.4" font-family="arial" font-size="12.00">1.0</text>
</g>
</g>
</svg>
