<?xml version="1.0" encoding="UTF-8" standalone="no"?>
<!DOCTYPE svg PUBLIC "-//W3C//DTD SVG 1.1//EN"
 "http://www.w3.org/Graphics/SVG/1.1/DTD/svg11.dtd">
<!-- Generated by graphviz version 2.38.0 (20140413.2041)
 -->
<!-- Title: %3 Pages: 1 -->
<svg width="798pt" height="116pt"
 viewBox="0.00 0.00 798.00 116.00" xmlns="http://www.w3.org/2000/svg" xmlns:xlink="http://www.w3.org/1999/xlink">
<g id="graph0" class="graph" transform="scale(1 1) rotate(0) translate(4 112)">
<title>%3</title>
<polygon fill="white" stroke="none" points="-4,4 -4,-112 794,-112 794,4 -4,4"/>
<!-- 1 -->
<g id="node1" class="node"><title>1</title>
<ellipse fill="powderblue" stroke="black" cx="107" cy="-40" rx="18" ry="18"/>
<text text-anchor="middle" x="107" y="-36.9" font-family="arial" font-size="12.00">P0</text>
</g>
<!-- 2 -->
<g id="node2" class="node"><title>2</title>
<ellipse fill="powderblue" stroke="black" cx="203" cy="-40" rx="18" ry="18"/>
<text text-anchor="middle" x="203" y="-36.9" font-family="arial" font-size="12.00">P1</text>
</g>
<!-- 1&#45;&gt;2 -->
<g id="edge1" class="edge"><title>1&#45;&gt;2</title>
<path fill="none" stroke="black" d="M125.241,-40C139.022,-40 158.6,-40 174.535,-40"/>
<polygon fill="black" stroke="black" points="174.868,-43.5001 184.868,-40 174.868,-36.5001 174.868,-43.5001"/>
<text text-anchor="middle" x="155" y="-43.4" font-family="arial" font-size="12.00">1.25</text>
</g>
<!-- 3 -->
<g id="node3" class="node"><title>3</title>
<ellipse fill="powderblue" stroke="black" cx="292" cy="-40" rx="18" ry="18"/>
<text text-anchor="middle" x="292" y="-36.9" font-family="arial" font-size="12.00">P2</text>
</g>
<!-- 2&#45;&gt;3 -->
<g id="edge2" class="edge"><title>2&#45;&gt;3</title>
<path fill="none" stroke="black" d="M221.188,-40C233.343,-40 249.886,-40 263.818,-40"/>
<polygon fill="black" stroke="black" points="263.847,-43.5001 273.847,-40 263.847,-36.5001 263.847,-43.5001"/>
<text text-anchor="middle" x="247.5" y="-43.4" font-family="arial" font-size="12.00">5.0</text>
</g>
<!-- 4 -->
<g id="node4" class="node"><title>4</title>
<ellipse fill="powderblue" stroke="black" cx="388" cy="-40" rx="18" ry="18"/>
<text text-anchor="middle" x="388" y="-36.9" font-family="arial" font-size="12.00">P3</text>
</g>
<!-- 3&#45;&gt;4 -->
<g id="edge3" class="edge"><title>3&#45;&gt;4</title>
<path fill="none" stroke="black" d="M310.241,-40C324.022,-40 343.6,-40 359.535,-40"/>
<polygon fill="black" stroke="black" points="359.868,-43.5001 369.868,-40 359.868,-36.5001 359.868,-43.5001"/>
<text text-anchor="middle" x="340" y="-43.4" font-family="arial" font-size="12.00">3.33</text>
</g>
<!-- 5 -->
<g id="node5" class="node"><title>5</title>
<ellipse fill="powderblue" stroke="black" cx="484" cy="-72" rx="18" ry="18"/>
<text text-anchor="middle" x="484" y="-68.9" font-family="arial" font-size="12.00">P4</text>
</g>
<!-- 4&#45;&gt;5 -->
<g id="edge4" class="edge"><title>4&#45;&gt;5</title>
<path fill="none" stroke="black" d="M405.374,-45.574C419.661,-50.4379 440.637,-57.5786 457.183,-63.2114"/>
<polygon fill="black" stroke="black" points="456.22,-66.5805 466.814,-66.4899 458.476,-59.9539 456.22,-66.5805"/>
<text text-anchor="middle" x="436" y="-62.4" font-family="arial" font-size="12.00">3.33</text>
</g>
<!-- 6 -->
<g id="node6" class="node"><title>6</title>
<ellipse fill="powderblue" stroke="black" cx="484" cy="-18" rx="18" ry="18"/>
<text text-anchor="middle" x="484" y="-14.9" font-family="arial" font-size="12.00">P5</text>
</g>
<!-- 4&#45;&gt;6 -->
<g id="edge5" class="edge"><title>4&#45;&gt;6</title>
<path fill="none" stroke="black" d="M405.805,-36.0668C419.841,-32.782 440.106,-28.039 456.351,-24.237"/>
<polygon fill="black" stroke="black" points="457.401,-27.5859 466.34,-21.8991 455.806,-20.7701 457.401,-27.5859"/>
<text text-anchor="middle" x="436" y="-35.4" font-family="arial" font-size="12.00">13.3</text>
</g>
<!-- 7 -->
<g id="node7" class="node"><title>7</title>
<ellipse fill="powderblue" stroke="black" cx="580" cy="-36" rx="18" ry="18"/>
<text text-anchor="middle" x="580" y="-32.9" font-family="arial" font-size="12.00">P6</text>
</g>
<!-- 5&#45;&gt;7 -->
<g id="edge6" class="edge"><title>5&#45;&gt;7</title>
<path fill="none" stroke="black" d="M500.946,-65.8931C515.26,-60.4109 536.531,-52.2647 553.254,-45.8602"/>
<polygon fill="black" stroke="black" points="554.889,-48.9819 562.976,-42.1369 552.386,-42.4449 554.889,-48.9819"/>
<text text-anchor="middle" x="532" y="-61.4" font-family="arial" font-size="12.00">1.11</text>
</g>
<!-- 8 -->
<g id="node8" class="node"><title>8</title>
<ellipse fill="powderblue" stroke="black" cx="580" cy="-90" rx="18" ry="18"/>
<text text-anchor="middle" x="580" y="-86.9" font-family="arial" font-size="12.00">P7</text>
</g>
<!-- 5&#45;&gt;8 -->
<g id="edge8" class="edge"><title>5&#45;&gt;8</title>
<path fill="none" stroke="black" d="M501.805,-75.218C515.754,-77.8891 535.856,-81.7384 552.05,-84.8393"/>
<polygon fill="black" stroke="black" points="551.543,-88.3059 562.023,-86.7491 552.86,-81.4308 551.543,-88.3059"/>
<text text-anchor="middle" x="532" y="-86.4" font-family="arial" font-size="12.00">2.22</text>
</g>
<!-- 6&#45;&gt;7 -->
<g id="edge7" class="edge"><title>6&#45;&gt;7</title>
<path fill="none" stroke="black" d="M502.028,-16.3619C513.946,-15.6802 530.15,-15.6906 544,-19 547.7,-19.8841 551.466,-21.2018 555.089,-22.7196"/>
<polygon fill="black" stroke="black" points="553.671,-25.9206 564.206,-27.0442 556.671,-19.5961 553.671,-25.9206"/>
<text text-anchor="middle" x="532" y="-22.4" font-family="arial" font-size="12.00">40.0</text>
</g>
<!-- 9 -->
<g id="node9" class="node"><title>9</title>
<ellipse fill="powderblue" stroke="black" cx="676" cy="-65" rx="18" ry="18"/>
<text text-anchor="middle" x="676" y="-61.9" font-family="arial" font-size="12.00">P8</text>
</g>
<!-- 7&#45;&gt;9 -->
<g id="edge9" class="edge"><title>7&#45;&gt;9</title>
<path fill="none" stroke="black" d="M597.374,-41.0514C611.574,-45.4324 632.382,-51.8517 648.88,-56.9418"/>
<polygon fill="black" stroke="black" points="647.911,-60.3056 658.499,-59.9092 649.975,-53.6166 647.911,-60.3056"/>
<text text-anchor="middle" x="628" y="-56.4" font-family="arial" font-size="12.00">2.22</text>
</g>
<!-- 8&#45;&gt;9 -->
<g id="edge10" class="edge"><title>8&#45;&gt;9</title>
<path fill="none" stroke="black" d="M597.805,-85.5305C611.841,-81.7977 632.106,-76.408 648.351,-72.0874"/>
<polygon fill="black" stroke="black" points="649.576,-75.3835 658.34,-69.4308 647.777,-68.6187 649.576,-75.3835"/>
<text text-anchor="middle" x="628" y="-83.4" font-family="arial" font-size="12.00">1.11</text>
</g>
<!-- 11 -->
<g id="node11" class="node"><title>11</title>
<ellipse fill="darksalmon" stroke="black" cx="772" cy="-65" rx="18" ry="18"/>
<text text-anchor="middle" x="772" y="-61.9" font-family="arial" font-size="12.00">Sink</text>
</g>
<!-- 9&#45;&gt;11 -->
<g id="edge12" class="edge"><title>9&#45;&gt;11</title>
<path fill="none" stroke="black" d="M694.241,-65C708.022,-65 727.6,-65 743.535,-65"/>
<polygon fill="black" stroke="black" points="743.868,-68.5001 753.868,-65 743.868,-61.5001 743.868,-68.5001"/>
<text text-anchor="middle" x="724" y="-68.4" font-family="arial" font-size="12.00">2.22</text>
</g>
<!-- 10 -->
<g id="node10" class="node"><title>10</title>
<ellipse fill="forestgreen" stroke="black" cx="18" cy="-40" rx="18" ry="18"/>
<text text-anchor="middle" x="18" y="-37.5" font-family="arial" font-size="10.00">Source</text>
</g>
<!-- 10&#45;&gt;1 -->
<g id="edge11" class="edge"><title>10&#45;&gt;1</title>
<path fill="none" stroke="black" d="M36.1884,-40C48.3426,-40 64.8865,-40 78.8185,-40"/>
<polygon fill="black" stroke="black" points="78.8473,-43.5001 88.8473,-40 78.8473,-36.5001 78.8473,-43.5001"/>
<text text-anchor="middle" x="62.5" y="-43.4" font-family="arial" font-size="12.00">1.0</text>
</g>
</g>
</svg>
