<?xml version="1.0" encoding="UTF-8" standalone="no"?>
<!DOCTYPE svg PUBLIC "-//W3C//DTD SVG 1.1//EN"
 "http://www.w3.org/Graphics/SVG/1.1/DTD/svg11.dtd">
<!-- Generated by graphviz version 2.38.0 (20140413.2041)
 -->
<!-- Title: %3 Pages: 1 -->
<svg width="723pt" height="116pt"
 viewBox="0.00 0.00 723.00 116.00" xmlns="http://www.w3.org/2000/svg" xmlns:xlink="http://www.w3.org/1999/xlink">
<g id="graph0" class="graph" transform="scale(1 1) rotate(0) translate(4 112)">
<title>%3</title>
<polygon fill="white" stroke="none" points="-4,4 -4,-112 719,-112 719,4 -4,4"/>
<!-- 1 -->
<g id="node1" class="node"><title>1</title>
<ellipse fill="powderblue" stroke="black" cx="107" cy="-72" rx="18" ry="18"/>
<text text-anchor="middle" x="107" y="-68.9" font-family="arial" font-size="12.00">P0</text>
</g>
<!-- 3 -->
<g id="node3" class="node"><title>3</title>
<ellipse fill="powderblue" stroke="black" cx="196" cy="-27" rx="18" ry="18"/>
<text text-anchor="middle" x="196" y="-23.9" font-family="arial" font-size="12.00">P2</text>
</g>
<!-- 1&#45;&gt;3 -->
<g id="edge1" class="edge"><title>1&#45;&gt;3</title>
<path fill="none" stroke="black" d="M123.554,-63.9549C136.544,-57.2358 155.3,-47.5344 170.336,-39.7574"/>
<polygon fill="black" stroke="black" points="172.307,-42.6785 179.581,-34.9754 169.091,-36.461 172.307,-42.6785"/>
<text text-anchor="middle" x="151.5" y="-56.4" font-family="arial" font-size="12.00">1.0</text>
</g>
<!-- 4 -->
<g id="node4" class="node"><title>4</title>
<ellipse fill="powderblue" stroke="black" cx="196" cy="-90" rx="18" ry="18"/>
<text text-anchor="middle" x="196" y="-86.9" font-family="arial" font-size="12.00">P3</text>
</g>
<!-- 1&#45;&gt;4 -->
<g id="edge3" class="edge"><title>1&#45;&gt;4</title>
<path fill="none" stroke="black" d="M124.774,-75.4706C137.051,-78.0105 153.964,-81.5098 168.116,-84.4378"/>
<polygon fill="black" stroke="black" points="167.775,-87.9414 178.277,-86.5401 169.194,-81.0865 167.775,-87.9414"/>
<text text-anchor="middle" x="151.5" y="-85.4" font-family="arial" font-size="12.00">0.5</text>
</g>
<!-- 2 -->
<g id="node2" class="node"><title>2</title>
<ellipse fill="powderblue" stroke="black" cx="107" cy="-18" rx="18" ry="18"/>
<text text-anchor="middle" x="107" y="-14.9" font-family="arial" font-size="12.00">P1</text>
</g>
<!-- 2&#45;&gt;3 -->
<g id="edge2" class="edge"><title>2&#45;&gt;3</title>
<path fill="none" stroke="black" d="M125.396,-17.4454C135.528,-17.3438 148.528,-17.5938 160,-19 162.747,-19.3368 165.595,-19.7974 168.425,-20.3288"/>
<polygon fill="black" stroke="black" points="167.877,-23.7909 178.389,-22.4688 169.347,-16.947 167.877,-23.7909"/>
<text text-anchor="middle" x="151.5" y="-22.4" font-family="arial" font-size="12.00">1.0</text>
</g>
<!-- 5 -->
<g id="node5" class="node"><title>5</title>
<ellipse fill="powderblue" stroke="black" cx="292" cy="-72" rx="18" ry="18"/>
<text text-anchor="middle" x="292" y="-68.9" font-family="arial" font-size="12.00">P4</text>
</g>
<!-- 3&#45;&gt;5 -->
<g id="edge4" class="edge"><title>3&#45;&gt;5</title>
<path fill="none" stroke="black" d="M212.522,-34.4308C227.081,-41.4007 249.099,-51.941 266.111,-60.085"/>
<polygon fill="black" stroke="black" points="264.924,-63.397 275.455,-64.5581 267.946,-57.0832 264.924,-63.397"/>
<text text-anchor="middle" x="244" y="-57.4" font-family="arial" font-size="12.00">0.5</text>
</g>
<!-- 6 -->
<g id="node6" class="node"><title>6</title>
<ellipse fill="powderblue" stroke="black" cx="292" cy="-18" rx="18" ry="18"/>
<text text-anchor="middle" x="292" y="-14.9" font-family="arial" font-size="12.00">P5</text>
</g>
<!-- 3&#45;&gt;6 -->
<g id="edge6" class="edge"><title>3&#45;&gt;6</title>
<path fill="none" stroke="black" d="M213.61,-22.4609C219.386,-21.0812 225.936,-19.7363 232,-19 242.306,-17.7486 253.699,-17.3312 263.703,-17.2837"/>
<polygon fill="black" stroke="black" points="263.871,-20.7849 273.895,-17.3554 263.92,-13.7851 263.871,-20.7849"/>
<text text-anchor="middle" x="244" y="-22.4" font-family="arial" font-size="12.00">3.0</text>
</g>
<!-- 4&#45;&gt;5 -->
<g id="edge5" class="edge"><title>4&#45;&gt;5</title>
<path fill="none" stroke="black" d="M213.805,-86.782C227.754,-84.1109 247.856,-80.2616 264.05,-77.1607"/>
<polygon fill="black" stroke="black" points="264.86,-80.5692 274.023,-75.2509 263.543,-73.6941 264.86,-80.5692"/>
<text text-anchor="middle" x="244" y="-86.4" font-family="arial" font-size="12.00">0.25</text>
</g>
<!-- 7 -->
<g id="node7" class="node"><title>7</title>
<ellipse fill="powderblue" stroke="black" cx="395" cy="-47" rx="18" ry="18"/>
<text text-anchor="middle" x="395" y="-43.9" font-family="arial" font-size="12.00">P6</text>
</g>
<!-- 5&#45;&gt;7 -->
<g id="edge7" class="edge"><title>5&#45;&gt;7</title>
<path fill="none" stroke="black" d="M309.678,-67.8718C325.395,-63.9815 349.2,-58.0891 367.513,-53.5561"/>
<polygon fill="black" stroke="black" points="368.431,-56.9347 377.297,-51.1344 366.749,-50.1397 368.431,-56.9347"/>
<text text-anchor="middle" x="343.5" y="-66.4" font-family="arial" font-size="12.00">0.375</text>
</g>
<!-- 6&#45;&gt;7 -->
<g id="edge8" class="edge"><title>6&#45;&gt;7</title>
<path fill="none" stroke="black" d="M309.678,-22.7888C325.395,-27.3014 349.2,-34.1366 367.513,-39.3949"/>
<polygon fill="black" stroke="black" points="366.72,-42.8084 377.297,-42.2041 368.651,-36.0802 366.72,-42.8084"/>
<text text-anchor="middle" x="343.5" y="-39.4" font-family="arial" font-size="12.00">3.0</text>
</g>
<!-- 8 -->
<g id="node8" class="node"><title>8</title>
<ellipse fill="powderblue" stroke="black" cx="498" cy="-47" rx="18" ry="18"/>
<text text-anchor="middle" x="498" y="-43.9" font-family="arial" font-size="12.00">P7</text>
</g>
<!-- 7&#45;&gt;8 -->
<g id="edge9" class="edge"><title>7&#45;&gt;8</title>
<path fill="none" stroke="black" d="M413.133,-47C428.586,-47 451.584,-47 469.591,-47"/>
<polygon fill="black" stroke="black" points="469.783,-50.5001 479.783,-47 469.783,-43.5001 469.783,-50.5001"/>
<text text-anchor="middle" x="446.5" y="-50.4" font-family="arial" font-size="12.00">0.375</text>
</g>
<!-- 9 -->
<g id="node9" class="node"><title>9</title>
<ellipse fill="powderblue" stroke="black" cx="594" cy="-47" rx="18" ry="18"/>
<text text-anchor="middle" x="594" y="-43.9" font-family="arial" font-size="12.00">P8</text>
</g>
<!-- 8&#45;&gt;9 -->
<g id="edge10" class="edge"><title>8&#45;&gt;9</title>
<path fill="none" stroke="black" d="M516.241,-47C530.022,-47 549.6,-47 565.535,-47"/>
<polygon fill="black" stroke="black" points="565.868,-50.5001 575.868,-47 565.868,-43.5001 565.868,-50.5001"/>
<text text-anchor="middle" x="546" y="-50.4" font-family="arial" font-size="12.00">1.12</text>
</g>
<!-- 11 -->
<g id="node11" class="node"><title>11</title>
<ellipse fill="darksalmon" stroke="black" cx="697" cy="-47" rx="18" ry="18"/>
<text text-anchor="middle" x="697" y="-43.9" font-family="arial" font-size="12.00">Sink</text>
</g>
<!-- 9&#45;&gt;11 -->
<g id="edge13" class="edge"><title>9&#45;&gt;11</title>
<path fill="none" stroke="black" d="M612.133,-47C627.586,-47 650.584,-47 668.591,-47"/>
<polygon fill="black" stroke="black" points="668.783,-50.5001 678.783,-47 668.783,-43.5001 668.783,-50.5001"/>
<text text-anchor="middle" x="645.5" y="-50.4" font-family="arial" font-size="12.00">0.562</text>
</g>
<!-- 10 -->
<g id="node10" class="node"><title>10</title>
<ellipse fill="forestgreen" stroke="black" cx="18" cy="-44" rx="18" ry="18"/>
<text text-anchor="middle" x="18" y="-41.5" font-family="arial" font-size="10.00">Source</text>
</g>
<!-- 10&#45;&gt;1 -->
<g id="edge12" class="edge"><title>10&#45;&gt;1</title>
<path fill="none" stroke="black" d="M35.364,-49.2666C47.8803,-53.2948 65.387,-58.9292 79.84,-63.5807"/>
<polygon fill="black" stroke="black" points="79.1179,-67.025 89.7093,-66.757 81.2625,-60.3616 79.1179,-67.025"/>
<text text-anchor="middle" x="62.5" y="-63.4" font-family="arial" font-size="12.00">1.0</text>
</g>
<!-- 10&#45;&gt;2 -->
<g id="edge11" class="edge"><title>10&#45;&gt;2</title>
<path fill="none" stroke="black" d="M35.3072,-38.1545C41.1726,-36.1195 47.857,-33.8777 54,-32 62.1725,-29.5019 71.1384,-27.0029 79.2891,-24.8221"/>
<polygon fill="black" stroke="black" points="80.2752,-28.1819 89.0564,-22.254 78.4951,-21.412 80.2752,-28.1819"/>
<text text-anchor="middle" x="62.5" y="-35.4" font-family="arial" font-size="12.00">1.0</text>
</g>
</g>
</svg>
