<?xml version="1.0" encoding="UTF-8" standalone="no"?>
<!DOCTYPE svg PUBLIC "-//W3C//DTD SVG 1.1//EN"
 "http://www.w3.org/Graphics/SVG/1.1/DTD/svg11.dtd">
<!-- Generated by graphviz version 2.38.0 (20140413.2041)
 -->
<!-- Title: %3 Pages: 1 -->
<svg width="737pt" height="152pt"
 viewBox="0.00 0.00 737.00 152.00" xmlns="http://www.w3.org/2000/svg" xmlns:xlink="http://www.w3.org/1999/xlink">
<g id="graph0" class="graph" transform="scale(1 1) rotate(0) translate(4 148)">
<title>%3</title>
<polygon fill="white" stroke="none" points="-4,4 -4,-148 733,-148 733,4 -4,4"/>
<!-- 1 -->
<g id="node1" class="node"><title>1</title>
<ellipse fill="powderblue" stroke="black" cx="107" cy="-65" rx="18" ry="18"/>
<text text-anchor="middle" x="107" y="-61.9" font-family="arial" font-size="12.00">P0</text>
</g>
<!-- 2 -->
<g id="node2" class="node"><title>2</title>
<ellipse fill="powderblue" stroke="black" cx="196" cy="-65" rx="18" ry="18"/>
<text text-anchor="middle" x="196" y="-61.9" font-family="arial" font-size="12.00">P1</text>
</g>
<!-- 1&#45;&gt;2 -->
<g id="edge1" class="edge"><title>1&#45;&gt;2</title>
<path fill="none" stroke="black" d="M125.188,-65C137.343,-65 153.886,-65 167.818,-65"/>
<polygon fill="black" stroke="black" points="167.847,-68.5001 177.847,-65 167.847,-61.5001 167.847,-68.5001"/>
<text text-anchor="middle" x="151.5" y="-68.4" font-family="arial" font-size="12.00">1.0</text>
</g>
<!-- 3 -->
<g id="node3" class="node"><title>3</title>
<ellipse fill="powderblue" stroke="black" cx="299" cy="-97" rx="18" ry="18"/>
<text text-anchor="middle" x="299" y="-93.9" font-family="arial" font-size="12.00">P2</text>
</g>
<!-- 2&#45;&gt;3 -->
<g id="edge2" class="edge"><title>2&#45;&gt;3</title>
<path fill="none" stroke="black" d="M213.678,-70.2841C229.562,-75.3168 253.709,-82.9671 272.098,-88.7933"/>
<polygon fill="black" stroke="black" points="271.042,-92.1303 281.632,-91.8142 273.156,-85.4572 271.042,-92.1303"/>
<text text-anchor="middle" x="247.5" y="-88.4" font-family="arial" font-size="12.00">1.0</text>
</g>
<!-- 4 -->
<g id="node4" class="node"><title>4</title>
<ellipse fill="powderblue" stroke="black" cx="299" cy="-43" rx="18" ry="18"/>
<text text-anchor="middle" x="299" y="-39.9" font-family="arial" font-size="12.00">P3</text>
</g>
<!-- 2&#45;&gt;4 -->
<g id="edge3" class="edge"><title>2&#45;&gt;4</title>
<path fill="none" stroke="black" d="M213.723,-61.1215C219.507,-59.7948 226.035,-58.3144 232,-57 244.917,-54.154 259.28,-51.0947 271.301,-48.5641"/>
<polygon fill="black" stroke="black" points="272.097,-51.9733 281.166,-46.495 270.66,-45.1224 272.097,-51.9733"/>
<text text-anchor="middle" x="247.5" y="-60.4" font-family="arial" font-size="12.00">0.667</text>
</g>
<!-- 5 -->
<g id="node5" class="node"><title>5</title>
<ellipse fill="powderblue" stroke="black" cx="402" cy="-72" rx="18" ry="18"/>
<text text-anchor="middle" x="402" y="-68.9" font-family="arial" font-size="12.00">P4</text>
</g>
<!-- 3&#45;&gt;5 -->
<g id="edge4" class="edge"><title>3&#45;&gt;5</title>
<path fill="none" stroke="black" d="M316.678,-92.8718C332.395,-88.9815 356.2,-83.0891 374.513,-78.5561"/>
<polygon fill="black" stroke="black" points="375.431,-81.9347 384.297,-76.1344 373.749,-75.1397 375.431,-81.9347"/>
<text text-anchor="middle" x="350.5" y="-91.4" font-family="arial" font-size="12.00">1.0</text>
</g>
<!-- 4&#45;&gt;5 -->
<g id="edge5" class="edge"><title>4&#45;&gt;5</title>
<path fill="none" stroke="black" d="M316.678,-47.7888C332.395,-52.3014 356.2,-59.1366 374.513,-64.3949"/>
<polygon fill="black" stroke="black" points="373.72,-67.8084 384.297,-67.2041 375.651,-61.0802 373.72,-67.8084"/>
<text text-anchor="middle" x="350.5" y="-65.4" font-family="arial" font-size="12.00">0.889</text>
</g>
<!-- 6 -->
<g id="node6" class="node"><title>6</title>
<ellipse fill="powderblue" stroke="black" cx="505" cy="-126" rx="18" ry="18"/>
<text text-anchor="middle" x="505" y="-122.9" font-family="arial" font-size="12.00">P5</text>
</g>
<!-- 5&#45;&gt;6 -->
<g id="edge6" class="edge"><title>5&#45;&gt;6</title>
<path fill="none" stroke="black" d="M418.34,-80.2014C434.674,-88.9346 460.751,-102.877 479.847,-113.086"/>
<polygon fill="black" stroke="black" points="478.378,-116.27 488.847,-117.898 481.678,-110.097 478.378,-116.27"/>
<text text-anchor="middle" x="453.5" y="-109.4" font-family="arial" font-size="12.00">2.67</text>
</g>
<!-- 7 -->
<g id="node7" class="node"><title>7</title>
<ellipse fill="powderblue" stroke="black" cx="505" cy="-72" rx="18" ry="18"/>
<text text-anchor="middle" x="505" y="-68.9" font-family="arial" font-size="12.00">P6</text>
</g>
<!-- 5&#45;&gt;7 -->
<g id="edge7" class="edge"><title>5&#45;&gt;7</title>
<path fill="none" stroke="black" d="M420.133,-72C435.586,-72 458.584,-72 476.591,-72"/>
<polygon fill="black" stroke="black" points="476.783,-75.5001 486.783,-72 476.783,-68.5001 476.783,-75.5001"/>
<text text-anchor="middle" x="453.5" y="-75.4" font-family="arial" font-size="12.00">0.533</text>
</g>
<!-- 8 -->
<g id="node8" class="node"><title>8</title>
<ellipse fill="powderblue" stroke="black" cx="505" cy="-18" rx="18" ry="18"/>
<text text-anchor="middle" x="505" y="-14.9" font-family="arial" font-size="12.00">P7</text>
</g>
<!-- 5&#45;&gt;8 -->
<g id="edge8" class="edge"><title>5&#45;&gt;8</title>
<path fill="none" stroke="black" d="M418.34,-63.7986C434.674,-55.0654 460.751,-41.1234 479.847,-30.9137"/>
<polygon fill="black" stroke="black" points="481.678,-33.9032 488.847,-26.1017 478.378,-27.7301 481.678,-33.9032"/>
<text text-anchor="middle" x="453.5" y="-56.4" font-family="arial" font-size="12.00">0.667</text>
</g>
<!-- 9 -->
<g id="node9" class="node"><title>9</title>
<ellipse fill="powderblue" stroke="black" cx="608" cy="-72" rx="18" ry="18"/>
<text text-anchor="middle" x="608" y="-68.9" font-family="arial" font-size="12.00">P8</text>
</g>
<!-- 6&#45;&gt;9 -->
<g id="edge9" class="edge"><title>6&#45;&gt;9</title>
<path fill="none" stroke="black" d="M521.34,-117.799C537.674,-109.065 563.751,-95.1234 582.847,-84.9137"/>
<polygon fill="black" stroke="black" points="584.678,-87.9032 591.847,-80.1017 581.378,-81.7301 584.678,-87.9032"/>
<text text-anchor="middle" x="556.5" y="-109.4" font-family="arial" font-size="12.00">1.33</text>
</g>
<!-- 7&#45;&gt;9 -->
<g id="edge10" class="edge"><title>7&#45;&gt;9</title>
<path fill="none" stroke="black" d="M523.133,-72C538.586,-72 561.584,-72 579.591,-72"/>
<polygon fill="black" stroke="black" points="579.783,-75.5001 589.783,-72 579.783,-68.5001 579.783,-75.5001"/>
<text text-anchor="middle" x="556.5" y="-75.4" font-family="arial" font-size="12.00">0.533</text>
</g>
<!-- 8&#45;&gt;9 -->
<g id="edge11" class="edge"><title>8&#45;&gt;9</title>
<path fill="none" stroke="black" d="M521.34,-26.2014C537.674,-34.9346 563.751,-48.8766 582.847,-59.0863"/>
<polygon fill="black" stroke="black" points="581.378,-62.2699 591.847,-63.8983 584.678,-56.0968 581.378,-62.2699"/>
<text text-anchor="middle" x="556.5" y="-56.4" font-family="arial" font-size="12.00">2.0</text>
</g>
<!-- 11 -->
<g id="node11" class="node"><title>11</title>
<ellipse fill="darksalmon" stroke="black" cx="711" cy="-72" rx="18" ry="18"/>
<text text-anchor="middle" x="711" y="-68.9" font-family="arial" font-size="12.00">Sink</text>
</g>
<!-- 9&#45;&gt;11 -->
<g id="edge13" class="edge"><title>9&#45;&gt;11</title>
<path fill="none" stroke="black" d="M626.133,-72C641.586,-72 664.584,-72 682.591,-72"/>
<polygon fill="black" stroke="black" points="682.783,-75.5001 692.783,-72 682.783,-68.5001 682.783,-75.5001"/>
<text text-anchor="middle" x="659.5" y="-75.4" font-family="arial" font-size="12.00">0.533</text>
</g>
<!-- 10 -->
<g id="node10" class="node"><title>10</title>
<ellipse fill="forestgreen" stroke="black" cx="18" cy="-65" rx="18" ry="18"/>
<text text-anchor="middle" x="18" y="-62.5" font-family="arial" font-size="10.00">Source</text>
</g>
<!-- 10&#45;&gt;1 -->
<g id="edge12" class="edge"><title>10&#45;&gt;1</title>
<path fill="none" stroke="black" d="M36.1884,-65C48.3426,-65 64.8865,-65 78.8185,-65"/>
<polygon fill="black" stroke="black" points="78.8473,-68.5001 88.8473,-65 78.8473,-61.5001 78.8473,-68.5001"/>
<text text-anchor="middle" x="62.5" y="-68.4" font-family="arial" font-size="12.00">1.0</text>
</g>
</g>
</svg>
