<?xml version="1.0" encoding="UTF-8" standalone="no"?>
<!DOCTYPE svg PUBLIC "-//W3C//DTD SVG 1.1//EN"
 "http://www.w3.org/Graphics/SVG/1.1/DTD/svg11.dtd">
<!-- Generated by graphviz version 2.38.0 (20140413.2041)
 -->
<!-- Title: %3 Pages: 1 -->
<svg width="755pt" height="116pt"
 viewBox="0.00 0.00 755.00 116.00" xmlns="http://www.w3.org/2000/svg" xmlns:xlink="http://www.w3.org/1999/xlink">
<g id="graph0" class="graph" transform="scale(1 1) rotate(0) translate(4 112)">
<title>%3</title>
<polygon fill="white" stroke="none" points="-4,4 -4,-112 751,-112 751,4 -4,4"/>
<!-- 1 -->
<g id="node1" class="node"><title>1</title>
<ellipse fill="powderblue" stroke="black" cx="107" cy="-40" rx="18" ry="18"/>
<text text-anchor="middle" x="107" y="-36.9" font-family="arial" font-size="12.00">P0</text>
</g>
<!-- 2 -->
<g id="node2" class="node"><title>2</title>
<ellipse fill="powderblue" stroke="black" cx="196" cy="-72" rx="18" ry="18"/>
<text text-anchor="middle" x="196" y="-68.9" font-family="arial" font-size="12.00">P1</text>
</g>
<!-- 1&#45;&gt;2 -->
<g id="edge1" class="edge"><title>1&#45;&gt;2</title>
<path fill="none" stroke="black" d="M124.364,-46.019C137.002,-50.6673 154.727,-57.1871 169.26,-62.5325"/>
<polygon fill="black" stroke="black" points="168.116,-65.8408 178.709,-66.008 170.532,-59.2711 168.116,-65.8408"/>
<text text-anchor="middle" x="151.5" y="-61.4" font-family="arial" font-size="12.00">4.0</text>
</g>
<!-- 3 -->
<g id="node3" class="node"><title>3</title>
<ellipse fill="powderblue" stroke="black" cx="196" cy="-18" rx="18" ry="18"/>
<text text-anchor="middle" x="196" y="-14.9" font-family="arial" font-size="12.00">P2</text>
</g>
<!-- 1&#45;&gt;3 -->
<g id="edge2" class="edge"><title>1&#45;&gt;3</title>
<path fill="none" stroke="black" d="M124.774,-35.7582C137.171,-32.6234 154.296,-28.293 168.531,-24.6933"/>
<polygon fill="black" stroke="black" points="169.44,-28.0736 178.277,-22.2288 167.724,-21.2872 169.44,-28.0736"/>
<text text-anchor="middle" x="151.5" y="-34.4" font-family="arial" font-size="12.00">1.0</text>
</g>
<!-- 4 -->
<g id="node4" class="node"><title>4</title>
<ellipse fill="powderblue" stroke="black" cx="299" cy="-72" rx="18" ry="18"/>
<text text-anchor="middle" x="299" y="-68.9" font-family="arial" font-size="12.00">P3</text>
</g>
<!-- 2&#45;&gt;4 -->
<g id="edge3" class="edge"><title>2&#45;&gt;4</title>
<path fill="none" stroke="black" d="M214.133,-72C229.586,-72 252.584,-72 270.591,-72"/>
<polygon fill="black" stroke="black" points="270.783,-75.5001 280.783,-72 270.783,-68.5001 270.783,-75.5001"/>
<text text-anchor="middle" x="247.5" y="-75.4" font-family="arial" font-size="12.00">2.67</text>
</g>
<!-- 5 -->
<g id="node5" class="node"><title>5</title>
<ellipse fill="powderblue" stroke="black" cx="299" cy="-18" rx="18" ry="18"/>
<text text-anchor="middle" x="299" y="-14.9" font-family="arial" font-size="12.00">P4</text>
</g>
<!-- 3&#45;&gt;5 -->
<g id="edge4" class="edge"><title>3&#45;&gt;5</title>
<path fill="none" stroke="black" d="M214.133,-18C229.586,-18 252.584,-18 270.591,-18"/>
<polygon fill="black" stroke="black" points="270.783,-21.5001 280.783,-18 270.783,-14.5001 270.783,-21.5001"/>
<text text-anchor="middle" x="247.5" y="-21.4" font-family="arial" font-size="12.00">0.667</text>
</g>
<!-- 6 -->
<g id="node6" class="node"><title>6</title>
<ellipse fill="powderblue" stroke="black" cx="402" cy="-36" rx="18" ry="18"/>
<text text-anchor="middle" x="402" y="-32.9" font-family="arial" font-size="12.00">P5</text>
</g>
<!-- 4&#45;&gt;6 -->
<g id="edge5" class="edge"><title>4&#45;&gt;6</title>
<path fill="none" stroke="black" d="M316.227,-66.216C332.13,-60.5477 356.618,-51.8192 375.194,-45.1983"/>
<polygon fill="black" stroke="black" points="376.568,-48.424 384.813,-41.7697 374.218,-41.8304 376.568,-48.424"/>
<text text-anchor="middle" x="350.5" y="-62.4" font-family="arial" font-size="12.00">2.0</text>
</g>
<!-- 7 -->
<g id="node7" class="node"><title>7</title>
<ellipse fill="powderblue" stroke="black" cx="402" cy="-90" rx="18" ry="18"/>
<text text-anchor="middle" x="402" y="-86.9" font-family="arial" font-size="12.00">P6</text>
</g>
<!-- 4&#45;&gt;7 -->
<g id="edge7" class="edge"><title>4&#45;&gt;7</title>
<path fill="none" stroke="black" d="M317.133,-75.0535C332.753,-77.8372 356.081,-81.9946 374.172,-85.2187"/>
<polygon fill="black" stroke="black" points="373.661,-88.6827 384.12,-86.9916 374.889,-81.7913 373.661,-88.6827"/>
<text text-anchor="middle" x="350.5" y="-86.4" font-family="arial" font-size="12.00">5.33</text>
</g>
<!-- 5&#45;&gt;6 -->
<g id="edge6" class="edge"><title>5&#45;&gt;6</title>
<path fill="none" stroke="black" d="M317.07,-16.2496C330.545,-15.3457 349.724,-15.1262 366,-19 369.701,-19.8808 373.467,-21.1966 377.091,-22.7135"/>
<polygon fill="black" stroke="black" points="375.672,-25.9145 386.207,-27.0378 378.672,-19.5899 375.672,-25.9145"/>
<text text-anchor="middle" x="350.5" y="-22.4" font-family="arial" font-size="12.00">0.222</text>
</g>
<!-- 8 -->
<g id="node8" class="node"><title>8</title>
<ellipse fill="powderblue" stroke="black" cx="511" cy="-65" rx="18" ry="18"/>
<text text-anchor="middle" x="511" y="-61.9" font-family="arial" font-size="12.00">P7</text>
</g>
<!-- 6&#45;&gt;8 -->
<g id="edge8" class="edge"><title>6&#45;&gt;8</title>
<path fill="none" stroke="black" d="M419.719,-40.5312C436.837,-45.1707 463.691,-52.4491 483.667,-57.8631"/>
<polygon fill="black" stroke="black" points="482.831,-61.2627 493.399,-60.5006 484.662,-54.5065 482.831,-61.2627"/>
<text text-anchor="middle" x="456.5" y="-57.4" font-family="arial" font-size="12.00">0.0556</text>
</g>
<!-- 7&#45;&gt;8 -->
<g id="edge9" class="edge"><title>7&#45;&gt;8</title>
<path fill="none" stroke="black" d="M419.719,-86.0938C436.758,-82.1126 463.445,-75.8773 483.392,-71.2168"/>
<polygon fill="black" stroke="black" points="484.457,-74.5623 493.399,-68.8788 482.865,-67.7459 484.457,-74.5623"/>
<text text-anchor="middle" x="456.5" y="-84.4" font-family="arial" font-size="12.00">3.56</text>
</g>
<!-- 9 -->
<g id="node9" class="node"><title>9</title>
<ellipse fill="powderblue" stroke="black" cx="620" cy="-65" rx="18" ry="18"/>
<text text-anchor="middle" x="620" y="-61.9" font-family="arial" font-size="12.00">P8</text>
</g>
<!-- 8&#45;&gt;9 -->
<g id="edge10" class="edge"><title>8&#45;&gt;9</title>
<path fill="none" stroke="black" d="M529.191,-65C546.039,-65 571.982,-65 591.661,-65"/>
<polygon fill="black" stroke="black" points="591.851,-68.5001 601.851,-65 591.851,-61.5001 591.851,-68.5001"/>
<text text-anchor="middle" x="565.5" y="-68.4" font-family="arial" font-size="12.00">0.0556</text>
</g>
<!-- 11 -->
<g id="node11" class="node"><title>11</title>
<ellipse fill="darksalmon" stroke="black" cx="729" cy="-65" rx="18" ry="18"/>
<text text-anchor="middle" x="729" y="-61.9" font-family="arial" font-size="12.00">Sink</text>
</g>
<!-- 9&#45;&gt;11 -->
<g id="edge12" class="edge"><title>9&#45;&gt;11</title>
<path fill="none" stroke="black" d="M638.191,-65C655.039,-65 680.982,-65 700.661,-65"/>
<polygon fill="black" stroke="black" points="700.851,-68.5001 710.851,-65 700.851,-61.5001 700.851,-68.5001"/>
<text text-anchor="middle" x="674.5" y="-68.4" font-family="arial" font-size="12.00">0.0139</text>
</g>
<!-- 10 -->
<g id="node10" class="node"><title>10</title>
<ellipse fill="forestgreen" stroke="black" cx="18" cy="-40" rx="18" ry="18"/>
<text text-anchor="middle" x="18" y="-37.5" font-family="arial" font-size="10.00">Source</text>
</g>
<!-- 10&#45;&gt;1 -->
<g id="edge11" class="edge"><title>10&#45;&gt;1</title>
<path fill="none" stroke="black" d="M36.1884,-40C48.3426,-40 64.8865,-40 78.8185,-40"/>
<polygon fill="black" stroke="black" points="78.8473,-43.5001 88.8473,-40 78.8473,-36.5001 78.8473,-43.5001"/>
<text text-anchor="middle" x="62.5" y="-43.4" font-family="arial" font-size="12.00">1.0</text>
</g>
</g>
</svg>
