<?xml version="1.0" encoding="UTF-8" standalone="no"?>
<!DOCTYPE svg PUBLIC "-//W3C//DTD SVG 1.1//EN"
 "http://www.w3.org/Graphics/SVG/1.1/DTD/svg11.dtd">
<!-- Generated by graphviz version 2.38.0 (20140413.2041)
 -->
<!-- Title: %3 Pages: 1 -->
<svg width="749pt" height="123pt"
 viewBox="0.00 0.00 749.00 123.00" xmlns="http://www.w3.org/2000/svg" xmlns:xlink="http://www.w3.org/1999/xlink">
<g id="graph0" class="graph" transform="scale(1 1) rotate(0) translate(4 119)">
<title>%3</title>
<polygon fill="white" stroke="none" points="-4,4 -4,-119 745,-119 745,4 -4,4"/>
<!-- 1 -->
<g id="node1" class="node"><title>1</title>
<ellipse fill="powderblue" stroke="black" cx="107" cy="-40" rx="18" ry="18"/>
<text text-anchor="middle" x="107" y="-36.9" font-family="arial" font-size="12.00">P0</text>
</g>
<!-- 2 -->
<g id="node2" class="node"><title>2</title>
<ellipse fill="powderblue" stroke="black" cx="196" cy="-72" rx="18" ry="18"/>
<text text-anchor="middle" x="196" y="-68.9" font-family="arial" font-size="12.00">P1</text>
</g>
<!-- 1&#45;&gt;2 -->
<g id="edge1" class="edge"><title>1&#45;&gt;2</title>
<path fill="none" stroke="black" d="M124.364,-46.019C137.002,-50.6673 154.727,-57.1871 169.26,-62.5325"/>
<polygon fill="black" stroke="black" points="168.116,-65.8408 178.709,-66.008 170.532,-59.2711 168.116,-65.8408"/>
<text text-anchor="middle" x="151.5" y="-61.4" font-family="arial" font-size="12.00">0.5</text>
</g>
<!-- 3 -->
<g id="node3" class="node"><title>3</title>
<ellipse fill="powderblue" stroke="black" cx="196" cy="-18" rx="18" ry="18"/>
<text text-anchor="middle" x="196" y="-14.9" font-family="arial" font-size="12.00">P2</text>
</g>
<!-- 1&#45;&gt;3 -->
<g id="edge2" class="edge"><title>1&#45;&gt;3</title>
<path fill="none" stroke="black" d="M124.774,-35.7582C137.171,-32.6234 154.296,-28.293 168.531,-24.6933"/>
<polygon fill="black" stroke="black" points="169.44,-28.0736 178.277,-22.2288 167.724,-21.2872 169.44,-28.0736"/>
<text text-anchor="middle" x="151.5" y="-34.4" font-family="arial" font-size="12.00">0.5</text>
</g>
<!-- 4 -->
<g id="node4" class="node"><title>4</title>
<ellipse fill="powderblue" stroke="black" cx="299" cy="-47" rx="18" ry="18"/>
<text text-anchor="middle" x="299" y="-43.9" font-family="arial" font-size="12.00">P3</text>
</g>
<!-- 2&#45;&gt;4 -->
<g id="edge3" class="edge"><title>2&#45;&gt;4</title>
<path fill="none" stroke="black" d="M213.678,-67.8718C229.395,-63.9815 253.2,-58.0891 271.513,-53.5561"/>
<polygon fill="black" stroke="black" points="272.431,-56.9347 281.297,-51.1344 270.749,-50.1397 272.431,-56.9347"/>
<text text-anchor="middle" x="247.5" y="-66.4" font-family="arial" font-size="12.00">1.0</text>
</g>
<!-- 3&#45;&gt;4 -->
<g id="edge4" class="edge"><title>3&#45;&gt;4</title>
<path fill="none" stroke="black" d="M213.678,-22.7888C229.395,-27.3014 253.2,-34.1366 271.513,-39.3949"/>
<polygon fill="black" stroke="black" points="270.72,-42.8084 281.297,-42.2041 272.651,-36.0802 270.72,-42.8084"/>
<text text-anchor="middle" x="247.5" y="-40.4" font-family="arial" font-size="12.00">0.833</text>
</g>
<!-- 5 -->
<g id="node5" class="node"><title>5</title>
<ellipse fill="powderblue" stroke="black" cx="402" cy="-79" rx="18" ry="18"/>
<text text-anchor="middle" x="402" y="-75.9" font-family="arial" font-size="12.00">P4</text>
</g>
<!-- 4&#45;&gt;5 -->
<g id="edge5" class="edge"><title>4&#45;&gt;5</title>
<path fill="none" stroke="black" d="M316.678,-52.2841C332.562,-57.3168 356.709,-64.9671 375.098,-70.7933"/>
<polygon fill="black" stroke="black" points="374.042,-74.1303 384.632,-73.8142 376.156,-67.4572 374.042,-74.1303"/>
<text text-anchor="middle" x="350.5" y="-70.4" font-family="arial" font-size="12.00">0.333</text>
</g>
<!-- 6 -->
<g id="node6" class="node"><title>6</title>
<ellipse fill="powderblue" stroke="black" cx="402" cy="-25" rx="18" ry="18"/>
<text text-anchor="middle" x="402" y="-21.9" font-family="arial" font-size="12.00">P5</text>
</g>
<!-- 4&#45;&gt;6 -->
<g id="edge6" class="edge"><title>4&#45;&gt;6</title>
<path fill="none" stroke="black" d="M316.723,-43.1215C322.507,-41.7948 329.035,-40.3144 335,-39 347.917,-36.154 362.28,-33.0947 374.301,-30.5641"/>
<polygon fill="black" stroke="black" points="375.097,-33.9733 384.166,-28.495 373.66,-27.1224 375.097,-33.9733"/>
<text text-anchor="middle" x="350.5" y="-42.4" font-family="arial" font-size="12.00">0.278</text>
</g>
<!-- 7 -->
<g id="node7" class="node"><title>7</title>
<ellipse fill="powderblue" stroke="black" cx="505" cy="-43" rx="18" ry="18"/>
<text text-anchor="middle" x="505" y="-39.9" font-family="arial" font-size="12.00">P6</text>
</g>
<!-- 5&#45;&gt;7 -->
<g id="edge7" class="edge"><title>5&#45;&gt;7</title>
<path fill="none" stroke="black" d="M419.227,-73.216C435.13,-67.5477 459.618,-58.8192 478.194,-52.1983"/>
<polygon fill="black" stroke="black" points="479.568,-55.424 487.813,-48.7697 477.218,-48.8304 479.568,-55.424"/>
<text text-anchor="middle" x="453.5" y="-69.4" font-family="arial" font-size="12.00">0.5</text>
</g>
<!-- 8 -->
<g id="node8" class="node"><title>8</title>
<ellipse fill="powderblue" stroke="black" cx="505" cy="-97" rx="18" ry="18"/>
<text text-anchor="middle" x="505" y="-93.9" font-family="arial" font-size="12.00">P7</text>
</g>
<!-- 5&#45;&gt;8 -->
<g id="edge9" class="edge"><title>5&#45;&gt;8</title>
<path fill="none" stroke="black" d="M420.133,-82.0535C435.753,-84.8372 459.081,-88.9946 477.172,-92.2187"/>
<polygon fill="black" stroke="black" points="476.661,-95.6827 487.12,-93.9916 477.889,-88.7913 476.661,-95.6827"/>
<text text-anchor="middle" x="453.5" y="-93.4" font-family="arial" font-size="12.00">0.167</text>
</g>
<!-- 6&#45;&gt;7 -->
<g id="edge8" class="edge"><title>6&#45;&gt;7</title>
<path fill="none" stroke="black" d="M420.07,-23.2496C433.545,-22.3457 452.724,-22.1262 469,-26 472.701,-26.8808 476.467,-28.1966 480.091,-29.7135"/>
<polygon fill="black" stroke="black" points="478.672,-32.9145 489.207,-34.0378 481.672,-26.5899 478.672,-32.9145"/>
<text text-anchor="middle" x="453.5" y="-29.4" font-family="arial" font-size="12.00">0.417</text>
</g>
<!-- 9 -->
<g id="node9" class="node"><title>9</title>
<ellipse fill="powderblue" stroke="black" cx="614" cy="-72" rx="18" ry="18"/>
<text text-anchor="middle" x="614" y="-68.9" font-family="arial" font-size="12.00">P8</text>
</g>
<!-- 7&#45;&gt;9 -->
<g id="edge10" class="edge"><title>7&#45;&gt;9</title>
<path fill="none" stroke="black" d="M522.719,-47.5312C539.837,-52.1707 566.691,-59.4491 586.667,-64.8631"/>
<polygon fill="black" stroke="black" points="585.831,-68.2627 596.399,-67.5006 587.662,-61.5065 585.831,-68.2627"/>
<text text-anchor="middle" x="559.5" y="-64.4" font-family="arial" font-size="12.00">0.556</text>
</g>
<!-- 8&#45;&gt;9 -->
<g id="edge11" class="edge"><title>8&#45;&gt;9</title>
<path fill="none" stroke="black" d="M522.719,-93.0938C539.758,-89.1126 566.445,-82.8773 586.392,-78.2168"/>
<polygon fill="black" stroke="black" points="587.457,-81.5623 596.399,-75.8788 585.865,-74.7459 587.457,-81.5623"/>
<text text-anchor="middle" x="559.5" y="-91.4" font-family="arial" font-size="12.00">0.0556</text>
</g>
<!-- 11 -->
<g id="node11" class="node"><title>11</title>
<ellipse fill="darksalmon" stroke="black" cx="723" cy="-72" rx="18" ry="18"/>
<text text-anchor="middle" x="723" y="-68.9" font-family="arial" font-size="12.00">Sink</text>
</g>
<!-- 9&#45;&gt;11 -->
<g id="edge13" class="edge"><title>9&#45;&gt;11</title>
<path fill="none" stroke="black" d="M632.191,-72C649.039,-72 674.982,-72 694.661,-72"/>
<polygon fill="black" stroke="black" points="694.851,-75.5001 704.851,-72 694.851,-68.5001 694.851,-75.5001"/>
<text text-anchor="middle" x="668.5" y="-75.4" font-family="arial" font-size="12.00">0.0556</text>
</g>
<!-- 10 -->
<g id="node10" class="node"><title>10</title>
<ellipse fill="forestgreen" stroke="black" cx="18" cy="-40" rx="18" ry="18"/>
<text text-anchor="middle" x="18" y="-37.5" font-family="arial" font-size="10.00">Source</text>
</g>
<!-- 10&#45;&gt;1 -->
<g id="edge12" class="edge"><title>10&#45;&gt;1</title>
<path fill="none" stroke="black" d="M36.1884,-40C48.3426,-40 64.8865,-40 78.8185,-40"/>
<polygon fill="black" stroke="black" points="78.8473,-43.5001 88.8473,-40 78.8473,-36.5001 78.8473,-43.5001"/>
<text text-anchor="middle" x="62.5" y="-43.4" font-family="arial" font-size="12.00">1.0</text>
</g>
</g>
</svg>
