<?xml version="1.0" encoding="UTF-8" standalone="no"?>
<!DOCTYPE svg PUBLIC "-//W3C//DTD SVG 1.1//EN"
 "http://www.w3.org/Graphics/SVG/1.1/DTD/svg11.dtd">
<!-- Generated by graphviz version 2.38.0 (20140413.2041)
 -->
<!-- Title: %3 Pages: 1 -->
<svg width="770pt" height="105pt"
 viewBox="0.00 0.00 770.00 105.00" xmlns="http://www.w3.org/2000/svg" xmlns:xlink="http://www.w3.org/1999/xlink">
<g id="graph0" class="graph" transform="scale(1 1) rotate(0) translate(4 101)">
<title>%3</title>
<polygon fill="white" stroke="none" points="-4,4 -4,-101 766,-101 766,4 -4,4"/>
<!-- 1 -->
<g id="node1" class="node"><title>1</title>
<ellipse fill="powderblue" stroke="black" cx="107" cy="-72" rx="18" ry="18"/>
<text text-anchor="middle" x="107" y="-68.9" font-family="arial" font-size="12.00">P0</text>
</g>
<!-- 3 -->
<g id="node3" class="node"><title>3</title>
<ellipse fill="powderblue" stroke="black" cx="196" cy="-47" rx="18" ry="18"/>
<text text-anchor="middle" x="196" y="-43.9" font-family="arial" font-size="12.00">P2</text>
</g>
<!-- 1&#45;&gt;3 -->
<g id="edge1" class="edge"><title>1&#45;&gt;3</title>
<path fill="none" stroke="black" d="M124.774,-67.1797C137.251,-63.5946 154.516,-58.6334 168.805,-54.5274"/>
<polygon fill="black" stroke="black" points="169.928,-57.8464 178.572,-51.7207 167.994,-51.1187 169.928,-57.8464"/>
<text text-anchor="middle" x="151.5" y="-64.4" font-family="arial" font-size="12.00">2.0</text>
</g>
<!-- 2 -->
<g id="node2" class="node"><title>2</title>
<ellipse fill="powderblue" stroke="black" cx="107" cy="-18" rx="18" ry="18"/>
<text text-anchor="middle" x="107" y="-14.9" font-family="arial" font-size="12.00">P1</text>
</g>
<!-- 2&#45;&gt;3 -->
<g id="edge2" class="edge"><title>2&#45;&gt;3</title>
<path fill="none" stroke="black" d="M124.364,-23.4547C136.88,-27.6268 154.387,-33.4623 168.84,-38.28"/>
<polygon fill="black" stroke="black" points="168.116,-41.7278 178.709,-41.5698 170.329,-35.087 168.116,-41.7278"/>
<text text-anchor="middle" x="151.5" y="-38.4" font-family="arial" font-size="12.00">1.0</text>
</g>
<!-- 4 -->
<g id="node4" class="node"><title>4</title>
<ellipse fill="powderblue" stroke="black" cx="285" cy="-47" rx="18" ry="18"/>
<text text-anchor="middle" x="285" y="-43.9" font-family="arial" font-size="12.00">P3</text>
</g>
<!-- 3&#45;&gt;4 -->
<g id="edge3" class="edge"><title>3&#45;&gt;4</title>
<path fill="none" stroke="black" d="M214.188,-47C226.343,-47 242.886,-47 256.818,-47"/>
<polygon fill="black" stroke="black" points="256.847,-50.5001 266.847,-47 256.847,-43.5001 256.847,-50.5001"/>
<text text-anchor="middle" x="240.5" y="-50.4" font-family="arial" font-size="12.00">1.0</text>
</g>
<!-- 5 -->
<g id="node5" class="node"><title>5</title>
<ellipse fill="powderblue" stroke="black" cx="381" cy="-79" rx="18" ry="18"/>
<text text-anchor="middle" x="381" y="-75.9" font-family="arial" font-size="12.00">P4</text>
</g>
<!-- 4&#45;&gt;5 -->
<g id="edge4" class="edge"><title>4&#45;&gt;5</title>
<path fill="none" stroke="black" d="M302.374,-52.574C316.661,-57.4379 337.637,-64.5786 354.183,-70.2114"/>
<polygon fill="black" stroke="black" points="353.22,-73.5805 363.814,-73.4899 355.476,-66.9539 353.22,-73.5805"/>
<text text-anchor="middle" x="333" y="-69.4" font-family="arial" font-size="12.00">0.75</text>
</g>
<!-- 6 -->
<g id="node6" class="node"><title>6</title>
<ellipse fill="powderblue" stroke="black" cx="381" cy="-25" rx="18" ry="18"/>
<text text-anchor="middle" x="381" y="-21.9" font-family="arial" font-size="12.00">P5</text>
</g>
<!-- 4&#45;&gt;6 -->
<g id="edge5" class="edge"><title>4&#45;&gt;6</title>
<path fill="none" stroke="black" d="M302.805,-43.0668C316.841,-39.782 337.106,-35.039 353.351,-31.237"/>
<polygon fill="black" stroke="black" points="354.401,-34.5859 363.34,-28.8991 352.806,-27.7701 354.401,-34.5859"/>
<text text-anchor="middle" x="333" y="-41.4" font-family="arial" font-size="12.00">0.2</text>
</g>
<!-- 7 -->
<g id="node7" class="node"><title>7</title>
<ellipse fill="powderblue" stroke="black" cx="470" cy="-54" rx="18" ry="18"/>
<text text-anchor="middle" x="470" y="-50.9" font-family="arial" font-size="12.00">P6</text>
</g>
<!-- 5&#45;&gt;7 -->
<g id="edge6" class="edge"><title>5&#45;&gt;7</title>
<path fill="none" stroke="black" d="M398.774,-74.1797C411.251,-70.5946 428.516,-65.6334 442.805,-61.5274"/>
<polygon fill="black" stroke="black" points="443.928,-64.8464 452.572,-58.7207 441.994,-58.1187 443.928,-64.8464"/>
<text text-anchor="middle" x="425.5" y="-71.4" font-family="arial" font-size="12.00">0.5</text>
</g>
<!-- 6&#45;&gt;7 -->
<g id="edge7" class="edge"><title>6&#45;&gt;7</title>
<path fill="none" stroke="black" d="M398.364,-30.4547C410.88,-34.6268 428.387,-40.4623 442.84,-45.28"/>
<polygon fill="black" stroke="black" points="442.116,-48.7278 452.709,-48.5698 444.329,-42.087 442.116,-48.7278"/>
<text text-anchor="middle" x="425.5" y="-45.4" font-family="arial" font-size="12.00">0.4</text>
</g>
<!-- 8 -->
<g id="node8" class="node"><title>8</title>
<ellipse fill="powderblue" stroke="black" cx="559" cy="-54" rx="18" ry="18"/>
<text text-anchor="middle" x="559" y="-50.9" font-family="arial" font-size="12.00">P7</text>
</g>
<!-- 7&#45;&gt;8 -->
<g id="edge8" class="edge"><title>7&#45;&gt;8</title>
<path fill="none" stroke="black" d="M488.188,-54C500.343,-54 516.886,-54 530.818,-54"/>
<polygon fill="black" stroke="black" points="530.847,-57.5001 540.847,-54 530.847,-50.5001 530.847,-57.5001"/>
<text text-anchor="middle" x="514.5" y="-57.4" font-family="arial" font-size="12.00">1.0</text>
</g>
<!-- 9 -->
<g id="node9" class="node"><title>9</title>
<ellipse fill="powderblue" stroke="black" cx="648" cy="-54" rx="18" ry="18"/>
<text text-anchor="middle" x="648" y="-50.9" font-family="arial" font-size="12.00">P8</text>
</g>
<!-- 8&#45;&gt;9 -->
<g id="edge9" class="edge"><title>8&#45;&gt;9</title>
<path fill="none" stroke="black" d="M577.188,-54C589.343,-54 605.886,-54 619.818,-54"/>
<polygon fill="black" stroke="black" points="619.847,-57.5001 629.847,-54 619.847,-50.5001 619.847,-57.5001"/>
<text text-anchor="middle" x="603.5" y="-57.4" font-family="arial" font-size="12.00">2.0</text>
</g>
<!-- 11 -->
<g id="node11" class="node"><title>11</title>
<ellipse fill="darksalmon" stroke="black" cx="744" cy="-54" rx="18" ry="18"/>
<text text-anchor="middle" x="744" y="-50.9" font-family="arial" font-size="12.00">Sink</text>
</g>
<!-- 9&#45;&gt;11 -->
<g id="edge12" class="edge"><title>9&#45;&gt;11</title>
<path fill="none" stroke="black" d="M666.241,-54C680.022,-54 699.6,-54 715.535,-54"/>
<polygon fill="black" stroke="black" points="715.868,-57.5001 725.868,-54 715.868,-50.5001 715.868,-57.5001"/>
<text text-anchor="middle" x="696" y="-57.4" font-family="arial" font-size="12.00">0.25</text>
</g>
<!-- 10 -->
<g id="node10" class="node"><title>10</title>
<ellipse fill="forestgreen" stroke="black" cx="18" cy="-44" rx="18" ry="18"/>
<text text-anchor="middle" x="18" y="-41.5" font-family="arial" font-size="10.00">Source</text>
</g>
<!-- 10&#45;&gt;1 -->
<g id="edge11" class="edge"><title>10&#45;&gt;1</title>
<path fill="none" stroke="black" d="M35.364,-49.2666C47.8803,-53.2948 65.387,-58.9292 79.84,-63.5807"/>
<polygon fill="black" stroke="black" points="79.1179,-67.025 89.7093,-66.757 81.2625,-60.3616 79.1179,-67.025"/>
<text text-anchor="middle" x="62.5" y="-63.4" font-family="arial" font-size="12.00">1.0</text>
</g>
<!-- 10&#45;&gt;2 -->
<g id="edge10" class="edge"><title>10&#45;&gt;2</title>
<path fill="none" stroke="black" d="M35.3072,-38.1545C41.1726,-36.1195 47.857,-33.8777 54,-32 62.1725,-29.5019 71.1384,-27.0029 79.2891,-24.8221"/>
<polygon fill="black" stroke="black" points="80.2752,-28.1819 89.0564,-22.254 78.4951,-21.412 80.2752,-28.1819"/>
<text text-anchor="middle" x="62.5" y="-35.4" font-family="arial" font-size="12.00">1.0</text>
</g>
</g>
</svg>
