<?xml version="1.0" encoding="UTF-8" standalone="no"?>
<!DOCTYPE svg PUBLIC "-//W3C//DTD SVG 1.1//EN"
 "http://www.w3.org/Graphics/SVG/1.1/DTD/svg11.dtd">
<!-- Generated by graphviz version 2.38.0 (20140413.2041)
 -->
<!-- Title: %3 Pages: 1 -->
<svg width="723pt" height="112pt"
 viewBox="0.00 0.00 723.00 112.00" xmlns="http://www.w3.org/2000/svg" xmlns:xlink="http://www.w3.org/1999/xlink">
<g id="graph0" class="graph" transform="scale(1 1) rotate(0) translate(4 108)">
<title>%3</title>
<polygon fill="white" stroke="none" points="-4,4 -4,-108 719,-108 719,4 -4,4"/>
<!-- 1 -->
<g id="node1" class="node"><title>1</title>
<ellipse fill="powderblue" stroke="black" cx="107" cy="-72" rx="18" ry="18"/>
<text text-anchor="middle" x="107" y="-68.9" font-family="arial" font-size="12.00">P0</text>
</g>
<!-- 3 -->
<g id="node3" class="node"><title>3</title>
<ellipse fill="powderblue" stroke="black" cx="196" cy="-47" rx="18" ry="18"/>
<text text-anchor="middle" x="196" y="-43.9" font-family="arial" font-size="12.00">P2</text>
</g>
<!-- 1&#45;&gt;3 -->
<g id="edge1" class="edge"><title>1&#45;&gt;3</title>
<path fill="none" stroke="black" d="M124.774,-67.1797C137.251,-63.5946 154.516,-58.6334 168.805,-54.5274"/>
<polygon fill="black" stroke="black" points="169.928,-57.8464 178.572,-51.7207 167.994,-51.1187 169.928,-57.8464"/>
<text text-anchor="middle" x="151.5" y="-64.4" font-family="arial" font-size="12.00">1.0</text>
</g>
<!-- 2 -->
<g id="node2" class="node"><title>2</title>
<ellipse fill="powderblue" stroke="black" cx="107" cy="-18" rx="18" ry="18"/>
<text text-anchor="middle" x="107" y="-14.9" font-family="arial" font-size="12.00">P1</text>
</g>
<!-- 2&#45;&gt;3 -->
<g id="edge2" class="edge"><title>2&#45;&gt;3</title>
<path fill="none" stroke="black" d="M124.364,-23.4547C136.88,-27.6268 154.387,-33.4623 168.84,-38.28"/>
<polygon fill="black" stroke="black" points="168.116,-41.7278 178.709,-41.5698 170.329,-35.087 168.116,-41.7278"/>
<text text-anchor="middle" x="151.5" y="-38.4" font-family="arial" font-size="12.00">1.0</text>
</g>
<!-- 4 -->
<g id="node4" class="node"><title>4</title>
<ellipse fill="powderblue" stroke="black" cx="299" cy="-79" rx="18" ry="18"/>
<text text-anchor="middle" x="299" y="-75.9" font-family="arial" font-size="12.00">P3</text>
</g>
<!-- 3&#45;&gt;4 -->
<g id="edge3" class="edge"><title>3&#45;&gt;4</title>
<path fill="none" stroke="black" d="M213.678,-52.2841C229.562,-57.3168 253.709,-64.9671 272.098,-70.7933"/>
<polygon fill="black" stroke="black" points="271.042,-74.1303 281.632,-73.8142 273.156,-67.4572 271.042,-74.1303"/>
<text text-anchor="middle" x="247.5" y="-70.4" font-family="arial" font-size="12.00">6.0</text>
</g>
<!-- 5 -->
<g id="node5" class="node"><title>5</title>
<ellipse fill="powderblue" stroke="black" cx="299" cy="-25" rx="18" ry="18"/>
<text text-anchor="middle" x="299" y="-21.9" font-family="arial" font-size="12.00">P4</text>
</g>
<!-- 3&#45;&gt;5 -->
<g id="edge4" class="edge"><title>3&#45;&gt;5</title>
<path fill="none" stroke="black" d="M213.723,-43.1215C219.507,-41.7948 226.035,-40.3144 232,-39 244.917,-36.154 259.28,-33.0947 271.301,-30.5641"/>
<polygon fill="black" stroke="black" points="272.097,-33.9733 281.166,-28.495 270.66,-27.1224 272.097,-33.9733"/>
<text text-anchor="middle" x="247.5" y="-42.4" font-family="arial" font-size="12.00">0.333</text>
</g>
<!-- 6 -->
<g id="node6" class="node"><title>6</title>
<ellipse fill="powderblue" stroke="black" cx="388" cy="-54" rx="18" ry="18"/>
<text text-anchor="middle" x="388" y="-50.9" font-family="arial" font-size="12.00">P5</text>
</g>
<!-- 4&#45;&gt;6 -->
<g id="edge5" class="edge"><title>4&#45;&gt;6</title>
<path fill="none" stroke="black" d="M316.774,-74.1797C329.251,-70.5946 346.516,-65.6334 360.805,-61.5274"/>
<polygon fill="black" stroke="black" points="361.928,-64.8464 370.572,-58.7207 359.994,-58.1187 361.928,-64.8464"/>
<text text-anchor="middle" x="343.5" y="-71.4" font-family="arial" font-size="12.00">6.0</text>
</g>
<!-- 5&#45;&gt;6 -->
<g id="edge6" class="edge"><title>5&#45;&gt;6</title>
<path fill="none" stroke="black" d="M316.364,-30.4547C328.88,-34.6268 346.387,-40.4623 360.84,-45.28"/>
<polygon fill="black" stroke="black" points="360.116,-48.7278 370.709,-48.5698 362.329,-42.087 360.116,-48.7278"/>
<text text-anchor="middle" x="343.5" y="-45.4" font-family="arial" font-size="12.00">1.0</text>
</g>
<!-- 7 -->
<g id="node7" class="node"><title>7</title>
<ellipse fill="powderblue" stroke="black" cx="491" cy="-54" rx="18" ry="18"/>
<text text-anchor="middle" x="491" y="-50.9" font-family="arial" font-size="12.00">P6</text>
</g>
<!-- 6&#45;&gt;7 -->
<g id="edge7" class="edge"><title>6&#45;&gt;7</title>
<path fill="none" stroke="black" d="M406.133,-54C421.586,-54 444.584,-54 462.591,-54"/>
<polygon fill="black" stroke="black" points="462.783,-57.5001 472.783,-54 462.783,-50.5001 462.783,-57.5001"/>
<text text-anchor="middle" x="439.5" y="-57.4" font-family="arial" font-size="12.00">0.667</text>
</g>
<!-- 8 -->
<g id="node8" class="node"><title>8</title>
<ellipse fill="powderblue" stroke="black" cx="594" cy="-86" rx="18" ry="18"/>
<text text-anchor="middle" x="594" y="-82.9" font-family="arial" font-size="12.00">P7</text>
</g>
<!-- 7&#45;&gt;8 -->
<g id="edge8" class="edge"><title>7&#45;&gt;8</title>
<path fill="none" stroke="black" d="M508.678,-59.2841C524.562,-64.3168 548.709,-71.9671 567.098,-77.7933"/>
<polygon fill="black" stroke="black" points="566.042,-81.1303 576.632,-80.8142 568.156,-74.4572 566.042,-81.1303"/>
<text text-anchor="middle" x="542.5" y="-77.4" font-family="arial" font-size="12.00">1.33</text>
</g>
<!-- 9 -->
<g id="node9" class="node"><title>9</title>
<ellipse fill="powderblue" stroke="black" cx="594" cy="-32" rx="18" ry="18"/>
<text text-anchor="middle" x="594" y="-28.9" font-family="arial" font-size="12.00">P8</text>
</g>
<!-- 7&#45;&gt;9 -->
<g id="edge9" class="edge"><title>7&#45;&gt;9</title>
<path fill="none" stroke="black" d="M508.723,-50.1215C514.507,-48.7948 521.035,-47.3144 527,-46 539.917,-43.154 554.28,-40.0947 566.301,-37.5641"/>
<polygon fill="black" stroke="black" points="567.097,-40.9733 576.166,-35.495 565.66,-34.1224 567.097,-40.9733"/>
<text text-anchor="middle" x="542.5" y="-49.4" font-family="arial" font-size="12.00">0.667</text>
</g>
<!-- 11 -->
<g id="node11" class="node"><title>11</title>
<ellipse fill="darksalmon" stroke="black" cx="697" cy="-61" rx="18" ry="18"/>
<text text-anchor="middle" x="697" y="-57.9" font-family="arial" font-size="12.00">Sink</text>
</g>
<!-- 8&#45;&gt;11 -->
<g id="edge13" class="edge"><title>8&#45;&gt;11</title>
<path fill="none" stroke="black" d="M611.678,-81.8718C627.395,-77.9815 651.2,-72.0891 669.513,-67.5561"/>
<polygon fill="black" stroke="black" points="670.431,-70.9347 679.297,-65.1344 668.749,-64.1397 670.431,-70.9347"/>
<text text-anchor="middle" x="645.5" y="-80.4" font-family="arial" font-size="12.00">2.67</text>
</g>
<!-- 9&#45;&gt;11 -->
<g id="edge12" class="edge"><title>9&#45;&gt;11</title>
<path fill="none" stroke="black" d="M611.678,-36.7888C627.395,-41.3014 651.2,-48.1366 669.513,-53.3949"/>
<polygon fill="black" stroke="black" points="668.72,-56.8084 679.297,-56.2041 670.651,-50.0802 668.72,-56.8084"/>
<text text-anchor="middle" x="645.5" y="-53.4" font-family="arial" font-size="12.00">0.667</text>
</g>
<!-- 10 -->
<g id="node10" class="node"><title>10</title>
<ellipse fill="forestgreen" stroke="black" cx="18" cy="-44" rx="18" ry="18"/>
<text text-anchor="middle" x="18" y="-41.5" font-family="arial" font-size="10.00">Source</text>
</g>
<!-- 10&#45;&gt;1 -->
<g id="edge11" class="edge"><title>10&#45;&gt;1</title>
<path fill="none" stroke="black" d="M35.364,-49.2666C47.8803,-53.2948 65.387,-58.9292 79.84,-63.5807"/>
<polygon fill="black" stroke="black" points="79.1179,-67.025 89.7093,-66.757 81.2625,-60.3616 79.1179,-67.025"/>
<text text-anchor="middle" x="62.5" y="-63.4" font-family="arial" font-size="12.00">1.0</text>
</g>
<!-- 10&#45;&gt;2 -->
<g id="edge10" class="edge"><title>10&#45;&gt;2</title>
<path fill="none" stroke="black" d="M35.3072,-38.1545C41.1726,-36.1195 47.857,-33.8777 54,-32 62.1725,-29.5019 71.1384,-27.0029 79.2891,-24.8221"/>
<polygon fill="black" stroke="black" points="80.2752,-28.1819 89.0564,-22.254 78.4951,-21.412 80.2752,-28.1819"/>
<text text-anchor="middle" x="62.5" y="-35.4" font-family="arial" font-size="12.00">1.0</text>
</g>
</g>
</svg>
