<?xml version="1.0" encoding="UTF-8" standalone="no"?>
<!DOCTYPE svg PUBLIC "-//W3C//DTD SVG 1.1//EN"
 "http://www.w3.org/Graphics/SVG/1.1/DTD/svg11.dtd">
<!-- Generated by graphviz version 2.38.0 (20140413.2041)
 -->
<!-- Title: %3 Pages: 1 -->
<svg width="695pt" height="152pt"
 viewBox="0.00 0.00 695.00 152.00" xmlns="http://www.w3.org/2000/svg" xmlns:xlink="http://www.w3.org/1999/xlink">
<g id="graph0" class="graph" transform="scale(1 1) rotate(0) translate(4 148)">
<title>%3</title>
<polygon fill="white" stroke="none" points="-4,4 -4,-148 691,-148 691,4 -4,4"/>
<!-- 1 -->
<g id="node1" class="node"><title>1</title>
<ellipse fill="powderblue" stroke="black" cx="107" cy="-126" rx="18" ry="18"/>
<text text-anchor="middle" x="107" y="-122.9" font-family="arial" font-size="12.00">P0</text>
</g>
<!-- 4 -->
<g id="node4" class="node"><title>4</title>
<ellipse fill="powderblue" stroke="black" cx="196" cy="-72" rx="18" ry="18"/>
<text text-anchor="middle" x="196" y="-68.9" font-family="arial" font-size="12.00">P3</text>
</g>
<!-- 1&#45;&gt;4 -->
<g id="edge1" class="edge"><title>1&#45;&gt;4</title>
<path fill="none" stroke="black" d="M122.758,-116.84C136.132,-108.539 156.066,-96.1662 171.608,-86.519"/>
<polygon fill="black" stroke="black" points="173.519,-89.4527 180.169,-81.2053 169.827,-83.5052 173.519,-89.4527"/>
<text text-anchor="middle" x="151.5" y="-106.4" font-family="arial" font-size="12.00">0.8</text>
</g>
<!-- 2 -->
<g id="node2" class="node"><title>2</title>
<ellipse fill="powderblue" stroke="black" cx="107" cy="-72" rx="18" ry="18"/>
<text text-anchor="middle" x="107" y="-68.9" font-family="arial" font-size="12.00">P1</text>
</g>
<!-- 2&#45;&gt;4 -->
<g id="edge2" class="edge"><title>2&#45;&gt;4</title>
<path fill="none" stroke="black" d="M125.188,-72C137.343,-72 153.886,-72 167.818,-72"/>
<polygon fill="black" stroke="black" points="167.847,-75.5001 177.847,-72 167.847,-68.5001 167.847,-75.5001"/>
<text text-anchor="middle" x="151.5" y="-75.4" font-family="arial" font-size="12.00">2.0</text>
</g>
<!-- 3 -->
<g id="node3" class="node"><title>3</title>
<ellipse fill="powderblue" stroke="black" cx="107" cy="-18" rx="18" ry="18"/>
<text text-anchor="middle" x="107" y="-14.9" font-family="arial" font-size="12.00">P2</text>
</g>
<!-- 3&#45;&gt;4 -->
<g id="edge3" class="edge"><title>3&#45;&gt;4</title>
<path fill="none" stroke="black" d="M122.758,-27.1604C136.132,-35.4612 156.066,-47.8338 171.608,-57.481"/>
<polygon fill="black" stroke="black" points="169.827,-60.4948 180.169,-62.7947 173.519,-54.5473 169.827,-60.4948"/>
<text text-anchor="middle" x="151.5" y="-52.4" font-family="arial" font-size="12.00">3.0</text>
</g>
<!-- 5 -->
<g id="node5" class="node"><title>5</title>
<ellipse fill="powderblue" stroke="black" cx="285" cy="-104" rx="18" ry="18"/>
<text text-anchor="middle" x="285" y="-100.9" font-family="arial" font-size="12.00">P4</text>
</g>
<!-- 4&#45;&gt;5 -->
<g id="edge4" class="edge"><title>4&#45;&gt;5</title>
<path fill="none" stroke="black" d="M213.364,-78.019C226.002,-82.6673 243.727,-89.1871 258.26,-94.5325"/>
<polygon fill="black" stroke="black" points="257.116,-97.8408 267.709,-98.008 259.532,-91.2711 257.116,-97.8408"/>
<text text-anchor="middle" x="240.5" y="-93.4" font-family="arial" font-size="12.00">1.0</text>
</g>
<!-- 6 -->
<g id="node6" class="node"><title>6</title>
<ellipse fill="powderblue" stroke="black" cx="285" cy="-50" rx="18" ry="18"/>
<text text-anchor="middle" x="285" y="-46.9" font-family="arial" font-size="12.00">P5</text>
</g>
<!-- 4&#45;&gt;6 -->
<g id="edge5" class="edge"><title>4&#45;&gt;6</title>
<path fill="none" stroke="black" d="M213.774,-67.7582C226.171,-64.6234 243.296,-60.293 257.531,-56.6933"/>
<polygon fill="black" stroke="black" points="258.44,-60.0736 267.277,-54.2288 256.724,-53.2872 258.44,-60.0736"/>
<text text-anchor="middle" x="240.5" y="-65.4" font-family="arial" font-size="12.00">1.2</text>
</g>
<!-- 7 -->
<g id="node7" class="node"><title>7</title>
<ellipse fill="powderblue" stroke="black" cx="374" cy="-79" rx="18" ry="18"/>
<text text-anchor="middle" x="374" y="-75.9" font-family="arial" font-size="12.00">P6</text>
</g>
<!-- 5&#45;&gt;7 -->
<g id="edge6" class="edge"><title>5&#45;&gt;7</title>
<path fill="none" stroke="black" d="M302.774,-99.1797C315.251,-95.5946 332.516,-90.6334 346.805,-86.5274"/>
<polygon fill="black" stroke="black" points="347.928,-89.8464 356.572,-83.7207 345.994,-83.1187 347.928,-89.8464"/>
<text text-anchor="middle" x="329.5" y="-96.4" font-family="arial" font-size="12.00">0.5</text>
</g>
<!-- 6&#45;&gt;7 -->
<g id="edge7" class="edge"><title>6&#45;&gt;7</title>
<path fill="none" stroke="black" d="M302.364,-55.4547C314.88,-59.6268 332.387,-65.4623 346.84,-70.28"/>
<polygon fill="black" stroke="black" points="346.116,-73.7278 356.709,-73.5698 348.329,-67.087 346.116,-73.7278"/>
<text text-anchor="middle" x="329.5" y="-70.4" font-family="arial" font-size="12.00">0.6</text>
</g>
<!-- 8 -->
<g id="node8" class="node"><title>8</title>
<ellipse fill="powderblue" stroke="black" cx="470" cy="-79" rx="18" ry="18"/>
<text text-anchor="middle" x="470" y="-75.9" font-family="arial" font-size="12.00">P7</text>
</g>
<!-- 7&#45;&gt;8 -->
<g id="edge8" class="edge"><title>7&#45;&gt;8</title>
<path fill="none" stroke="black" d="M392.241,-79C406.022,-79 425.6,-79 441.535,-79"/>
<polygon fill="black" stroke="black" points="441.868,-82.5001 451.868,-79 441.868,-75.5001 441.868,-82.5001"/>
<text text-anchor="middle" x="422" y="-82.4" font-family="arial" font-size="12.00">0.45</text>
</g>
<!-- 9 -->
<g id="node9" class="node"><title>9</title>
<ellipse fill="powderblue" stroke="black" cx="566" cy="-79" rx="18" ry="18"/>
<text text-anchor="middle" x="566" y="-75.9" font-family="arial" font-size="12.00">P8</text>
</g>
<!-- 8&#45;&gt;9 -->
<g id="edge9" class="edge"><title>8&#45;&gt;9</title>
<path fill="none" stroke="black" d="M488.241,-79C502.022,-79 521.6,-79 537.535,-79"/>
<polygon fill="black" stroke="black" points="537.868,-82.5001 547.868,-79 537.868,-75.5001 537.868,-82.5001"/>
<text text-anchor="middle" x="518" y="-82.4" font-family="arial" font-size="12.00">0.45</text>
</g>
<!-- 11 -->
<g id="node11" class="node"><title>11</title>
<ellipse fill="darksalmon" stroke="black" cx="669" cy="-79" rx="18" ry="18"/>
<text text-anchor="middle" x="669" y="-75.9" font-family="arial" font-size="12.00">Sink</text>
</g>
<!-- 9&#45;&gt;11 -->
<g id="edge13" class="edge"><title>9&#45;&gt;11</title>
<path fill="none" stroke="black" d="M584.133,-79C599.586,-79 622.584,-79 640.591,-79"/>
<polygon fill="black" stroke="black" points="640.783,-82.5001 650.783,-79 640.783,-75.5001 640.783,-82.5001"/>
<text text-anchor="middle" x="617.5" y="-82.4" font-family="arial" font-size="12.00">0.075</text>
</g>
<!-- 10 -->
<g id="node10" class="node"><title>10</title>
<ellipse fill="forestgreen" stroke="black" cx="18" cy="-72" rx="18" ry="18"/>
<text text-anchor="middle" x="18" y="-69.5" font-family="arial" font-size="10.00">Source</text>
</g>
<!-- 10&#45;&gt;1 -->
<g id="edge12" class="edge"><title>10&#45;&gt;1</title>
<path fill="none" stroke="black" d="M33.7584,-81.1604C47.1319,-89.4612 67.0656,-101.834 82.6082,-111.481"/>
<polygon fill="black" stroke="black" points="80.827,-114.495 91.1692,-116.795 84.5186,-108.547 80.827,-114.495"/>
<text text-anchor="middle" x="62.5" y="-106.4" font-family="arial" font-size="12.00">1.0</text>
</g>
<!-- 10&#45;&gt;2 -->
<g id="edge11" class="edge"><title>10&#45;&gt;2</title>
<path fill="none" stroke="black" d="M36.1884,-72C48.3426,-72 64.8865,-72 78.8185,-72"/>
<polygon fill="black" stroke="black" points="78.8473,-75.5001 88.8473,-72 78.8473,-68.5001 78.8473,-75.5001"/>
<text text-anchor="middle" x="62.5" y="-75.4" font-family="arial" font-size="12.00">1.0</text>
</g>
<!-- 10&#45;&gt;3 -->
<g id="edge10" class="edge"><title>10&#45;&gt;3</title>
<path fill="none" stroke="black" d="M33.7584,-62.8396C47.1319,-54.5388 67.0656,-42.1662 82.6082,-32.519"/>
<polygon fill="black" stroke="black" points="84.5186,-35.4527 91.1692,-27.2053 80.827,-29.5052 84.5186,-35.4527"/>
<text text-anchor="middle" x="62.5" y="-52.4" font-family="arial" font-size="12.00">1.0</text>
</g>
</g>
</svg>
