<?xml version="1.0" encoding="UTF-8" standalone="no"?>
<!DOCTYPE svg PUBLIC "-//W3C//DTD SVG 1.1//EN"
 "http://www.w3.org/Graphics/SVG/1.1/DTD/svg11.dtd">
<!-- Generated by graphviz version 2.38.0 (20140413.2041)
 -->
<!-- Title: %3 Pages: 1 -->
<svg width="870pt" height="105pt"
 viewBox="0.00 0.00 870.00 105.00" xmlns="http://www.w3.org/2000/svg" xmlns:xlink="http://www.w3.org/1999/xlink">
<g id="graph0" class="graph" transform="scale(1 1) rotate(0) translate(4 101)">
<title>%3</title>
<polygon fill="white" stroke="none" points="-4,4 -4,-101 866,-101 866,4 -4,4"/>
<!-- 1 -->
<g id="node1" class="node"><title>1</title>
<ellipse fill="powderblue" stroke="black" cx="107" cy="-40" rx="18" ry="18"/>
<text text-anchor="middle" x="107" y="-36.9" font-family="arial" font-size="12.00">P0</text>
</g>
<!-- 2 -->
<g id="node2" class="node"><title>2</title>
<ellipse fill="powderblue" stroke="black" cx="203" cy="-40" rx="18" ry="18"/>
<text text-anchor="middle" x="203" y="-36.9" font-family="arial" font-size="12.00">P1</text>
</g>
<!-- 1&#45;&gt;2 -->
<g id="edge1" class="edge"><title>1&#45;&gt;2</title>
<path fill="none" stroke="black" d="M125.241,-40C139.022,-40 158.6,-40 174.535,-40"/>
<polygon fill="black" stroke="black" points="174.868,-43.5001 184.868,-40 174.868,-36.5001 174.868,-43.5001"/>
<text text-anchor="middle" x="155" y="-43.4" font-family="arial" font-size="12.00">0.25</text>
</g>
<!-- 3 -->
<g id="node3" class="node"><title>3</title>
<ellipse fill="powderblue" stroke="black" cx="299" cy="-40" rx="18" ry="18"/>
<text text-anchor="middle" x="299" y="-36.9" font-family="arial" font-size="12.00">P2</text>
</g>
<!-- 2&#45;&gt;3 -->
<g id="edge2" class="edge"><title>2&#45;&gt;3</title>
<path fill="none" stroke="black" d="M221.241,-40C235.022,-40 254.6,-40 270.535,-40"/>
<polygon fill="black" stroke="black" points="270.868,-43.5001 280.868,-40 270.868,-36.5001 270.868,-43.5001"/>
<text text-anchor="middle" x="251" y="-43.4" font-family="arial" font-size="12.00">0.25</text>
</g>
<!-- 4 -->
<g id="node4" class="node"><title>4</title>
<ellipse fill="powderblue" stroke="black" cx="408" cy="-72" rx="18" ry="18"/>
<text text-anchor="middle" x="408" y="-68.9" font-family="arial" font-size="12.00">P3</text>
</g>
<!-- 3&#45;&gt;4 -->
<g id="edge3" class="edge"><title>3&#45;&gt;4</title>
<path fill="none" stroke="black" d="M316.719,-45C333.837,-50.1194 360.691,-58.1507 380.667,-64.1248"/>
<polygon fill="black" stroke="black" points="379.815,-67.523 390.399,-67.0351 381.821,-60.8165 379.815,-67.523"/>
<text text-anchor="middle" x="353.5" y="-63.4" font-family="arial" font-size="12.00">0.25</text>
</g>
<!-- 5 -->
<g id="node5" class="node"><title>5</title>
<ellipse fill="powderblue" stroke="black" cx="408" cy="-18" rx="18" ry="18"/>
<text text-anchor="middle" x="408" y="-14.9" font-family="arial" font-size="12.00">P4</text>
</g>
<!-- 3&#45;&gt;5 -->
<g id="edge4" class="edge"><title>3&#45;&gt;5</title>
<path fill="none" stroke="black" d="M316.71,-36.0636C322.494,-34.7322 329.024,-33.2637 335,-32 349.844,-28.8612 366.467,-25.6115 379.998,-23.034"/>
<polygon fill="black" stroke="black" points="380.917,-26.4223 390.093,-21.126 379.617,-19.5441 380.917,-26.4223"/>
<text text-anchor="middle" x="353.5" y="-35.4" font-family="arial" font-size="12.00">0.0833</text>
</g>
<!-- 6 -->
<g id="node6" class="node"><title>6</title>
<ellipse fill="powderblue" stroke="black" cx="517" cy="-47" rx="18" ry="18"/>
<text text-anchor="middle" x="517" y="-43.9" font-family="arial" font-size="12.00">P5</text>
</g>
<!-- 4&#45;&gt;6 -->
<g id="edge5" class="edge"><title>4&#45;&gt;6</title>
<path fill="none" stroke="black" d="M425.719,-68.0938C442.758,-64.1126 469.445,-57.8773 489.392,-53.2168"/>
<polygon fill="black" stroke="black" points="490.457,-56.5623 499.399,-50.8788 488.865,-49.7459 490.457,-56.5623"/>
<text text-anchor="middle" x="462.5" y="-66.4" font-family="arial" font-size="12.00">0.167</text>
</g>
<!-- 5&#45;&gt;6 -->
<g id="edge6" class="edge"><title>5&#45;&gt;6</title>
<path fill="none" stroke="black" d="M425.719,-22.5312C442.837,-27.1707 469.691,-34.4491 489.667,-39.8631"/>
<polygon fill="black" stroke="black" points="488.831,-43.2627 499.399,-42.5006 490.662,-36.5065 488.831,-43.2627"/>
<text text-anchor="middle" x="462.5" y="-40.4" font-family="arial" font-size="12.00">0.0278</text>
</g>
<!-- 7 -->
<g id="node7" class="node"><title>7</title>
<ellipse fill="powderblue" stroke="black" cx="626" cy="-47" rx="18" ry="18"/>
<text text-anchor="middle" x="626" y="-43.9" font-family="arial" font-size="12.00">P6</text>
</g>
<!-- 6&#45;&gt;7 -->
<g id="edge7" class="edge"><title>6&#45;&gt;7</title>
<path fill="none" stroke="black" d="M535.191,-47C552.039,-47 577.982,-47 597.661,-47"/>
<polygon fill="black" stroke="black" points="597.851,-50.5001 607.851,-47 597.851,-43.5001 597.851,-50.5001"/>
<text text-anchor="middle" x="571.5" y="-50.4" font-family="arial" font-size="12.00">0.0278</text>
</g>
<!-- 8 -->
<g id="node8" class="node"><title>8</title>
<ellipse fill="powderblue" stroke="black" cx="735" cy="-79" rx="18" ry="18"/>
<text text-anchor="middle" x="735" y="-75.9" font-family="arial" font-size="12.00">P7</text>
</g>
<!-- 7&#45;&gt;8 -->
<g id="edge8" class="edge"><title>7&#45;&gt;8</title>
<path fill="none" stroke="black" d="M643.719,-52C660.837,-57.1194 687.691,-65.1507 707.667,-71.1248"/>
<polygon fill="black" stroke="black" points="706.815,-74.523 717.399,-74.0351 708.821,-67.8165 706.815,-74.523"/>
<text text-anchor="middle" x="680.5" y="-70.4" font-family="arial" font-size="12.00">0.0278</text>
</g>
<!-- 9 -->
<g id="node9" class="node"><title>9</title>
<ellipse fill="powderblue" stroke="black" cx="735" cy="-25" rx="18" ry="18"/>
<text text-anchor="middle" x="735" y="-21.9" font-family="arial" font-size="12.00">P8</text>
</g>
<!-- 7&#45;&gt;9 -->
<g id="edge9" class="edge"><title>7&#45;&gt;9</title>
<path fill="none" stroke="black" d="M643.71,-43.0636C649.494,-41.7322 656.024,-40.2637 662,-39 676.844,-35.8612 693.467,-32.6115 706.998,-30.034"/>
<polygon fill="black" stroke="black" points="707.917,-33.4223 717.093,-28.126 706.617,-26.5441 707.917,-33.4223"/>
<text text-anchor="middle" x="680.5" y="-42.4" font-family="arial" font-size="12.00">0.0139</text>
</g>
<!-- 11 -->
<g id="node11" class="node"><title>11</title>
<ellipse fill="darksalmon" stroke="black" cx="844" cy="-54" rx="18" ry="18"/>
<text text-anchor="middle" x="844" y="-50.9" font-family="arial" font-size="12.00">Sink</text>
</g>
<!-- 8&#45;&gt;11 -->
<g id="edge12" class="edge"><title>8&#45;&gt;11</title>
<path fill="none" stroke="black" d="M752.719,-75.0938C769.758,-71.1126 796.445,-64.8773 816.392,-60.2168"/>
<polygon fill="black" stroke="black" points="817.457,-63.5623 826.399,-57.8788 815.865,-56.7459 817.457,-63.5623"/>
<text text-anchor="middle" x="789.5" y="-73.4" font-family="arial" font-size="12.00">0.0556</text>
</g>
<!-- 9&#45;&gt;11 -->
<g id="edge11" class="edge"><title>9&#45;&gt;11</title>
<path fill="none" stroke="black" d="M752.719,-29.5312C769.837,-34.1707 796.691,-41.4491 816.667,-46.8631"/>
<polygon fill="black" stroke="black" points="815.831,-50.2627 826.399,-49.5006 817.662,-43.5065 815.831,-50.2627"/>
<text text-anchor="middle" x="789.5" y="-46.4" font-family="arial" font-size="12.00">0.0278</text>
</g>
<!-- 10 -->
<g id="node10" class="node"><title>10</title>
<ellipse fill="forestgreen" stroke="black" cx="18" cy="-40" rx="18" ry="18"/>
<text text-anchor="middle" x="18" y="-37.5" font-family="arial" font-size="10.00">Source</text>
</g>
<!-- 10&#45;&gt;1 -->
<g id="edge10" class="edge"><title>10&#45;&gt;1</title>
<path fill="none" stroke="black" d="M36.1884,-40C48.3426,-40 64.8865,-40 78.8185,-40"/>
<polygon fill="black" stroke="black" points="78.8473,-43.5001 88.8473,-40 78.8473,-36.5001 78.8473,-43.5001"/>
<text text-anchor="middle" x="62.5" y="-43.4" font-family="arial" font-size="12.00">1.0</text>
</g>
</g>
</svg>
