<?xml version="1.0" encoding="UTF-8" standalone="no"?>
<!DOCTYPE svg PUBLIC "-//W3C//DTD SVG 1.1//EN"
 "http://www.w3.org/Graphics/SVG/1.1/DTD/svg11.dtd">
<!-- Generated by graphviz version 2.38.0 (20140413.2041)
 -->
<!-- Title: %3 Pages: 1 -->
<svg width="847pt" height="152pt"
 viewBox="0.00 0.00 847.00 152.00" xmlns="http://www.w3.org/2000/svg" xmlns:xlink="http://www.w3.org/1999/xlink">
<g id="graph0" class="graph" transform="scale(1 1) rotate(0) translate(4 148)">
<title>%3</title>
<polygon fill="white" stroke="none" points="-4,4 -4,-148 843,-148 843,4 -4,4"/>
<!-- 1 -->
<g id="node1" class="node"><title>1</title>
<ellipse fill="powderblue" stroke="black" cx="107" cy="-72" rx="18" ry="18"/>
<text text-anchor="middle" x="107" y="-68.9" font-family="arial" font-size="12.00">P0</text>
</g>
<!-- 2 -->
<g id="node2" class="node"><title>2</title>
<ellipse fill="powderblue" stroke="black" cx="210" cy="-72" rx="18" ry="18"/>
<text text-anchor="middle" x="210" y="-68.9" font-family="arial" font-size="12.00">P1</text>
</g>
<!-- 1&#45;&gt;2 -->
<g id="edge1" class="edge"><title>1&#45;&gt;2</title>
<path fill="none" stroke="black" d="M125.133,-72C140.586,-72 163.584,-72 181.591,-72"/>
<polygon fill="black" stroke="black" points="181.783,-75.5001 191.783,-72 181.783,-68.5001 181.783,-75.5001"/>
<text text-anchor="middle" x="158.5" y="-75.4" font-family="arial" font-size="12.00">0.571</text>
</g>
<!-- 3 -->
<g id="node3" class="node"><title>3</title>
<ellipse fill="powderblue" stroke="black" cx="313" cy="-72" rx="18" ry="18"/>
<text text-anchor="middle" x="313" y="-68.9" font-family="arial" font-size="12.00">P2</text>
</g>
<!-- 2&#45;&gt;3 -->
<g id="edge2" class="edge"><title>2&#45;&gt;3</title>
<path fill="none" stroke="black" d="M228.133,-72C243.586,-72 266.584,-72 284.591,-72"/>
<polygon fill="black" stroke="black" points="284.783,-75.5001 294.783,-72 284.783,-68.5001 284.783,-75.5001"/>
<text text-anchor="middle" x="261.5" y="-75.4" font-family="arial" font-size="12.00">0.381</text>
</g>
<!-- 4 -->
<g id="node4" class="node"><title>4</title>
<ellipse fill="powderblue" stroke="black" cx="409" cy="-72" rx="18" ry="18"/>
<text text-anchor="middle" x="409" y="-68.9" font-family="arial" font-size="12.00">P3</text>
</g>
<!-- 3&#45;&gt;4 -->
<g id="edge3" class="edge"><title>3&#45;&gt;4</title>
<path fill="none" stroke="black" d="M331.241,-72C345.022,-72 364.6,-72 380.535,-72"/>
<polygon fill="black" stroke="black" points="380.868,-75.5001 390.868,-72 380.868,-68.5001 380.868,-75.5001"/>
<text text-anchor="middle" x="361" y="-75.4" font-family="arial" font-size="12.00">1.14</text>
</g>
<!-- 5 -->
<g id="node5" class="node"><title>5</title>
<ellipse fill="powderblue" stroke="black" cx="512" cy="-126" rx="18" ry="18"/>
<text text-anchor="middle" x="512" y="-122.9" font-family="arial" font-size="12.00">P4</text>
</g>
<!-- 4&#45;&gt;5 -->
<g id="edge4" class="edge"><title>4&#45;&gt;5</title>
<path fill="none" stroke="black" d="M425.34,-80.2014C441.674,-88.9346 467.751,-102.877 486.847,-113.086"/>
<polygon fill="black" stroke="black" points="485.378,-116.27 495.847,-117.898 488.678,-110.097 485.378,-116.27"/>
<text text-anchor="middle" x="460.5" y="-109.4" font-family="arial" font-size="12.00">1.71</text>
</g>
<!-- 6 -->
<g id="node6" class="node"><title>6</title>
<ellipse fill="powderblue" stroke="black" cx="512" cy="-72" rx="18" ry="18"/>
<text text-anchor="middle" x="512" y="-68.9" font-family="arial" font-size="12.00">P5</text>
</g>
<!-- 4&#45;&gt;6 -->
<g id="edge5" class="edge"><title>4&#45;&gt;6</title>
<path fill="none" stroke="black" d="M427.133,-72C442.586,-72 465.584,-72 483.591,-72"/>
<polygon fill="black" stroke="black" points="483.783,-75.5001 493.783,-72 483.783,-68.5001 483.783,-75.5001"/>
<text text-anchor="middle" x="460.5" y="-75.4" font-family="arial" font-size="12.00">0.286</text>
</g>
<!-- 7 -->
<g id="node7" class="node"><title>7</title>
<ellipse fill="powderblue" stroke="black" cx="512" cy="-18" rx="18" ry="18"/>
<text text-anchor="middle" x="512" y="-14.9" font-family="arial" font-size="12.00">P6</text>
</g>
<!-- 4&#45;&gt;7 -->
<g id="edge6" class="edge"><title>4&#45;&gt;7</title>
<path fill="none" stroke="black" d="M425.34,-63.7986C441.674,-55.0654 467.751,-41.1234 486.847,-30.9137"/>
<polygon fill="black" stroke="black" points="488.678,-33.9032 495.847,-26.1017 485.378,-27.7301 488.678,-33.9032"/>
<text text-anchor="middle" x="460.5" y="-56.4" font-family="arial" font-size="12.00">1.14</text>
</g>
<!-- 8 -->
<g id="node8" class="node"><title>8</title>
<ellipse fill="powderblue" stroke="black" cx="615" cy="-72" rx="18" ry="18"/>
<text text-anchor="middle" x="615" y="-68.9" font-family="arial" font-size="12.00">P7</text>
</g>
<!-- 5&#45;&gt;8 -->
<g id="edge7" class="edge"><title>5&#45;&gt;8</title>
<path fill="none" stroke="black" d="M528.34,-117.799C544.674,-109.065 570.751,-95.1234 589.847,-84.9137"/>
<polygon fill="black" stroke="black" points="591.678,-87.9032 598.847,-80.1017 588.378,-81.7301 591.678,-87.9032"/>
<text text-anchor="middle" x="563.5" y="-109.4" font-family="arial" font-size="12.00">0.857</text>
</g>
<!-- 6&#45;&gt;8 -->
<g id="edge8" class="edge"><title>6&#45;&gt;8</title>
<path fill="none" stroke="black" d="M530.133,-72C545.586,-72 568.584,-72 586.591,-72"/>
<polygon fill="black" stroke="black" points="586.783,-75.5001 596.783,-72 586.783,-68.5001 586.783,-75.5001"/>
<text text-anchor="middle" x="563.5" y="-75.4" font-family="arial" font-size="12.00">0.214</text>
</g>
<!-- 7&#45;&gt;8 -->
<g id="edge9" class="edge"><title>7&#45;&gt;8</title>
<path fill="none" stroke="black" d="M528.34,-26.2014C544.674,-34.9346 570.751,-48.8766 589.847,-59.0863"/>
<polygon fill="black" stroke="black" points="588.378,-62.2699 598.847,-63.8983 591.678,-56.0968 588.378,-62.2699"/>
<text text-anchor="middle" x="563.5" y="-56.4" font-family="arial" font-size="12.00">1.14</text>
</g>
<!-- 9 -->
<g id="node9" class="node"><title>9</title>
<ellipse fill="powderblue" stroke="black" cx="718" cy="-72" rx="18" ry="18"/>
<text text-anchor="middle" x="718" y="-68.9" font-family="arial" font-size="12.00">P8</text>
</g>
<!-- 8&#45;&gt;9 -->
<g id="edge10" class="edge"><title>8&#45;&gt;9</title>
<path fill="none" stroke="black" d="M633.133,-72C648.586,-72 671.584,-72 689.591,-72"/>
<polygon fill="black" stroke="black" points="689.783,-75.5001 699.783,-72 689.783,-68.5001 689.783,-75.5001"/>
<text text-anchor="middle" x="666.5" y="-75.4" font-family="arial" font-size="12.00">0.286</text>
</g>
<!-- 11 -->
<g id="node11" class="node"><title>11</title>
<ellipse fill="darksalmon" stroke="black" cx="821" cy="-72" rx="18" ry="18"/>
<text text-anchor="middle" x="821" y="-68.9" font-family="arial" font-size="12.00">Sink</text>
</g>
<!-- 9&#45;&gt;11 -->
<g id="edge12" class="edge"><title>9&#45;&gt;11</title>
<path fill="none" stroke="black" d="M736.133,-72C751.586,-72 774.584,-72 792.591,-72"/>
<polygon fill="black" stroke="black" points="792.783,-75.5001 802.783,-72 792.783,-68.5001 792.783,-75.5001"/>
<text text-anchor="middle" x="769.5" y="-75.4" font-family="arial" font-size="12.00">0.857</text>
</g>
<!-- 10 -->
<g id="node10" class="node"><title>10</title>
<ellipse fill="forestgreen" stroke="black" cx="18" cy="-72" rx="18" ry="18"/>
<text text-anchor="middle" x="18" y="-69.5" font-family="arial" font-size="10.00">Source</text>
</g>
<!-- 10&#45;&gt;1 -->
<g id="edge11" class="edge"><title>10&#45;&gt;1</title>
<path fill="none" stroke="black" d="M36.1884,-72C48.3426,-72 64.8865,-72 78.8185,-72"/>
<polygon fill="black" stroke="black" points="78.8473,-75.5001 88.8473,-72 78.8473,-68.5001 78.8473,-75.5001"/>
<text text-anchor="middle" x="62.5" y="-75.4" font-family="arial" font-size="12.00">1.0</text>
</g>
</g>
</svg>
