<?xml version="1.0" encoding="UTF-8" standalone="no"?>
<!DOCTYPE svg PUBLIC "-//W3C//DTD SVG 1.1//EN"
 "http://www.w3.org/Graphics/SVG/1.1/DTD/svg11.dtd">
<!-- Generated by graphviz version 2.38.0 (20140413.2041)
 -->
<!-- Title: %3 Pages: 1 -->
<svg width="716pt" height="152pt"
 viewBox="0.00 0.00 716.00 152.00" xmlns="http://www.w3.org/2000/svg" xmlns:xlink="http://www.w3.org/1999/xlink">
<g id="graph0" class="graph" transform="scale(1 1) rotate(0) translate(4 148)">
<title>%3</title>
<polygon fill="white" stroke="none" points="-4,4 -4,-148 712,-148 712,4 -4,4"/>
<!-- 1 -->
<g id="node1" class="node"><title>1</title>
<ellipse fill="powderblue" stroke="black" cx="107" cy="-72" rx="18" ry="18"/>
<text text-anchor="middle" x="107" y="-68.9" font-family="arial" font-size="12.00">P0</text>
</g>
<!-- 2 -->
<g id="node2" class="node"><title>2</title>
<ellipse fill="powderblue" stroke="black" cx="196" cy="-72" rx="18" ry="18"/>
<text text-anchor="middle" x="196" y="-68.9" font-family="arial" font-size="12.00">P1</text>
</g>
<!-- 1&#45;&gt;2 -->
<g id="edge1" class="edge"><title>1&#45;&gt;2</title>
<path fill="none" stroke="black" d="M125.188,-72C137.343,-72 153.886,-72 167.818,-72"/>
<polygon fill="black" stroke="black" points="167.847,-75.5001 177.847,-72 167.847,-68.5001 167.847,-75.5001"/>
<text text-anchor="middle" x="151.5" y="-75.4" font-family="arial" font-size="12.00">1.0</text>
</g>
<!-- 3 -->
<g id="node3" class="node"><title>3</title>
<ellipse fill="powderblue" stroke="black" cx="299" cy="-72" rx="18" ry="18"/>
<text text-anchor="middle" x="299" y="-68.9" font-family="arial" font-size="12.00">P2</text>
</g>
<!-- 2&#45;&gt;3 -->
<g id="edge2" class="edge"><title>2&#45;&gt;3</title>
<path fill="none" stroke="black" d="M214.133,-72C229.586,-72 252.584,-72 270.591,-72"/>
<polygon fill="black" stroke="black" points="270.783,-75.5001 280.783,-72 270.783,-68.5001 270.783,-75.5001"/>
<text text-anchor="middle" x="247.5" y="-75.4" font-family="arial" font-size="12.00">1.0</text>
</g>
<!-- 4 -->
<g id="node4" class="node"><title>4</title>
<ellipse fill="powderblue" stroke="black" cx="299" cy="-18" rx="18" ry="18"/>
<text text-anchor="middle" x="299" y="-14.9" font-family="arial" font-size="12.00">P3</text>
</g>
<!-- 2&#45;&gt;4 -->
<g id="edge3" class="edge"><title>2&#45;&gt;4</title>
<path fill="none" stroke="black" d="M212.34,-63.7986C228.674,-55.0654 254.751,-41.1234 273.847,-30.9137"/>
<polygon fill="black" stroke="black" points="275.678,-33.9032 282.847,-26.1017 272.378,-27.7301 275.678,-33.9032"/>
<text text-anchor="middle" x="247.5" y="-56.4" font-family="arial" font-size="12.00">1.0</text>
</g>
<!-- 5 -->
<g id="node5" class="node"><title>5</title>
<ellipse fill="powderblue" stroke="black" cx="299" cy="-126" rx="18" ry="18"/>
<text text-anchor="middle" x="299" y="-122.9" font-family="arial" font-size="12.00">P4</text>
</g>
<!-- 2&#45;&gt;5 -->
<g id="edge4" class="edge"><title>2&#45;&gt;5</title>
<path fill="none" stroke="black" d="M212.34,-80.2014C228.674,-88.9346 254.751,-102.877 273.847,-113.086"/>
<polygon fill="black" stroke="black" points="272.378,-116.27 282.847,-117.898 275.678,-110.097 272.378,-116.27"/>
<text text-anchor="middle" x="247.5" y="-109.4" font-family="arial" font-size="12.00">0.333</text>
</g>
<!-- 6 -->
<g id="node6" class="node"><title>6</title>
<ellipse fill="powderblue" stroke="black" cx="388" cy="-72" rx="18" ry="18"/>
<text text-anchor="middle" x="388" y="-68.9" font-family="arial" font-size="12.00">P5</text>
</g>
<!-- 3&#45;&gt;6 -->
<g id="edge5" class="edge"><title>3&#45;&gt;6</title>
<path fill="none" stroke="black" d="M317.188,-72C329.343,-72 345.886,-72 359.818,-72"/>
<polygon fill="black" stroke="black" points="359.847,-75.5001 369.847,-72 359.847,-68.5001 359.847,-75.5001"/>
<text text-anchor="middle" x="343.5" y="-75.4" font-family="arial" font-size="12.00">3.0</text>
</g>
<!-- 7 -->
<g id="node7" class="node"><title>7</title>
<ellipse fill="powderblue" stroke="black" cx="388" cy="-18" rx="18" ry="18"/>
<text text-anchor="middle" x="388" y="-14.9" font-family="arial" font-size="12.00">P6</text>
</g>
<!-- 4&#45;&gt;7 -->
<g id="edge7" class="edge"><title>4&#45;&gt;7</title>
<path fill="none" stroke="black" d="M317.188,-18C329.343,-18 345.886,-18 359.818,-18"/>
<polygon fill="black" stroke="black" points="359.847,-21.5001 369.847,-18 359.847,-14.5001 359.847,-21.5001"/>
<text text-anchor="middle" x="343.5" y="-21.4" font-family="arial" font-size="12.00">0.5</text>
</g>
<!-- 5&#45;&gt;6 -->
<g id="edge6" class="edge"><title>5&#45;&gt;6</title>
<path fill="none" stroke="black" d="M314.758,-116.84C328.132,-108.539 348.066,-96.1662 363.608,-86.519"/>
<polygon fill="black" stroke="black" points="365.519,-89.4527 372.169,-81.2053 361.827,-83.5052 365.519,-89.4527"/>
<text text-anchor="middle" x="343.5" y="-106.4" font-family="arial" font-size="12.00">0.5</text>
</g>
<!-- 8 -->
<g id="node8" class="node"><title>8</title>
<ellipse fill="powderblue" stroke="black" cx="484" cy="-47" rx="18" ry="18"/>
<text text-anchor="middle" x="484" y="-43.9" font-family="arial" font-size="12.00">P7</text>
</g>
<!-- 6&#45;&gt;8 -->
<g id="edge8" class="edge"><title>6&#45;&gt;8</title>
<path fill="none" stroke="black" d="M405.805,-67.5305C419.841,-63.7977 440.106,-58.408 456.351,-54.0874"/>
<polygon fill="black" stroke="black" points="457.576,-57.3835 466.34,-51.4308 455.777,-50.6187 457.576,-57.3835"/>
<text text-anchor="middle" x="436" y="-66.4" font-family="arial" font-size="12.00">0.25</text>
</g>
<!-- 7&#45;&gt;8 -->
<g id="edge9" class="edge"><title>7&#45;&gt;8</title>
<path fill="none" stroke="black" d="M405.374,-23.0514C419.574,-27.4324 440.382,-33.8517 456.88,-38.9418"/>
<polygon fill="black" stroke="black" points="455.911,-42.3056 466.499,-41.9092 457.975,-35.6166 455.911,-42.3056"/>
<text text-anchor="middle" x="436" y="-39.4" font-family="arial" font-size="12.00">0.5</text>
</g>
<!-- 9 -->
<g id="node9" class="node"><title>9</title>
<ellipse fill="powderblue" stroke="black" cx="587" cy="-47" rx="18" ry="18"/>
<text text-anchor="middle" x="587" y="-43.9" font-family="arial" font-size="12.00">P8</text>
</g>
<!-- 8&#45;&gt;9 -->
<g id="edge10" class="edge"><title>8&#45;&gt;9</title>
<path fill="none" stroke="black" d="M502.133,-47C517.586,-47 540.584,-47 558.591,-47"/>
<polygon fill="black" stroke="black" points="558.783,-50.5001 568.783,-47 558.783,-43.5001 558.783,-50.5001"/>
<text text-anchor="middle" x="535.5" y="-50.4" font-family="arial" font-size="12.00">0.312</text>
</g>
<!-- 11 -->
<g id="node11" class="node"><title>11</title>
<ellipse fill="darksalmon" stroke="black" cx="690" cy="-47" rx="18" ry="18"/>
<text text-anchor="middle" x="690" y="-43.9" font-family="arial" font-size="12.00">Sink</text>
</g>
<!-- 9&#45;&gt;11 -->
<g id="edge12" class="edge"><title>9&#45;&gt;11</title>
<path fill="none" stroke="black" d="M605.133,-47C620.586,-47 643.584,-47 661.591,-47"/>
<polygon fill="black" stroke="black" points="661.783,-50.5001 671.783,-47 661.783,-43.5001 661.783,-50.5001"/>
<text text-anchor="middle" x="638.5" y="-50.4" font-family="arial" font-size="12.00">0.625</text>
</g>
<!-- 10 -->
<g id="node10" class="node"><title>10</title>
<ellipse fill="forestgreen" stroke="black" cx="18" cy="-72" rx="18" ry="18"/>
<text text-anchor="middle" x="18" y="-69.5" font-family="arial" font-size="10.00">Source</text>
</g>
<!-- 10&#45;&gt;1 -->
<g id="edge11" class="edge"><title>10&#45;&gt;1</title>
<path fill="none" stroke="black" d="M36.1884,-72C48.3426,-72 64.8865,-72 78.8185,-72"/>
<polygon fill="black" stroke="black" points="78.8473,-75.5001 88.8473,-72 78.8473,-68.5001 78.8473,-75.5001"/>
<text text-anchor="middle" x="62.5" y="-75.4" font-family="arial" font-size="12.00">1.0</text>
</g>
</g>
</svg>
