<?xml version="1.0" encoding="UTF-8" standalone="no"?>
<!DOCTYPE svg PUBLIC "-//W3C//DTD SVG 1.1//EN"
 "http://www.w3.org/Graphics/SVG/1.1/DTD/svg11.dtd">
<!-- Generated by graphviz version 2.38.0 (20140413.2041)
 -->
<!-- Title: %3 Pages: 1 -->
<svg width="798pt" height="116pt"
 viewBox="0.00 0.00 798.00 116.00" xmlns="http://www.w3.org/2000/svg" xmlns:xlink="http://www.w3.org/1999/xlink">
<g id="graph0" class="graph" transform="scale(1 1) rotate(0) translate(4 112)">
<title>%3</title>
<polygon fill="white" stroke="none" points="-4,4 -4,-112 794,-112 794,4 -4,4"/>
<!-- 1 -->
<g id="node1" class="node"><title>1</title>
<ellipse fill="powderblue" stroke="black" cx="107" cy="-40" rx="18" ry="18"/>
<text text-anchor="middle" x="107" y="-36.9" font-family="arial" font-size="12.00">P0</text>
</g>
<!-- 2 -->
<g id="node2" class="node"><title>2</title>
<ellipse fill="powderblue" stroke="black" cx="210" cy="-72" rx="18" ry="18"/>
<text text-anchor="middle" x="210" y="-68.9" font-family="arial" font-size="12.00">P1</text>
</g>
<!-- 1&#45;&gt;2 -->
<g id="edge1" class="edge"><title>1&#45;&gt;2</title>
<path fill="none" stroke="black" d="M124.678,-45.2841C140.562,-50.3168 164.709,-57.9671 183.098,-63.7933"/>
<polygon fill="black" stroke="black" points="182.042,-67.1303 192.632,-66.8142 184.156,-60.4572 182.042,-67.1303"/>
<text text-anchor="middle" x="158.5" y="-63.4" font-family="arial" font-size="12.00">0.667</text>
</g>
<!-- 3 -->
<g id="node3" class="node"><title>3</title>
<ellipse fill="powderblue" stroke="black" cx="210" cy="-18" rx="18" ry="18"/>
<text text-anchor="middle" x="210" y="-14.9" font-family="arial" font-size="12.00">P2</text>
</g>
<!-- 1&#45;&gt;3 -->
<g id="edge2" class="edge"><title>1&#45;&gt;3</title>
<path fill="none" stroke="black" d="M124.723,-36.1215C130.507,-34.7948 137.035,-33.3144 143,-32 155.917,-29.154 170.28,-26.0947 182.301,-23.5641"/>
<polygon fill="black" stroke="black" points="183.097,-26.9733 192.166,-21.495 181.66,-20.1224 183.097,-26.9733"/>
<text text-anchor="middle" x="158.5" y="-35.4" font-family="arial" font-size="12.00">1.0</text>
</g>
<!-- 4 -->
<g id="node4" class="node"><title>4</title>
<ellipse fill="powderblue" stroke="black" cx="313" cy="-36" rx="18" ry="18"/>
<text text-anchor="middle" x="313" y="-32.9" font-family="arial" font-size="12.00">P3</text>
</g>
<!-- 2&#45;&gt;4 -->
<g id="edge3" class="edge"><title>2&#45;&gt;4</title>
<path fill="none" stroke="black" d="M227.227,-66.216C243.13,-60.5477 267.618,-51.8192 286.194,-45.1983"/>
<polygon fill="black" stroke="black" points="287.568,-48.424 295.813,-41.7697 285.218,-41.8304 287.568,-48.424"/>
<text text-anchor="middle" x="261.5" y="-62.4" font-family="arial" font-size="12.00">1.0</text>
</g>
<!-- 5 -->
<g id="node5" class="node"><title>5</title>
<ellipse fill="powderblue" stroke="black" cx="313" cy="-90" rx="18" ry="18"/>
<text text-anchor="middle" x="313" y="-86.9" font-family="arial" font-size="12.00">P4</text>
</g>
<!-- 2&#45;&gt;5 -->
<g id="edge5" class="edge"><title>2&#45;&gt;5</title>
<path fill="none" stroke="black" d="M228.133,-75.0535C243.753,-77.8372 267.081,-81.9946 285.172,-85.2187"/>
<polygon fill="black" stroke="black" points="284.661,-88.6827 295.12,-86.9916 285.889,-81.7913 284.661,-88.6827"/>
<text text-anchor="middle" x="261.5" y="-86.4" font-family="arial" font-size="12.00">0.667</text>
</g>
<!-- 3&#45;&gt;4 -->
<g id="edge4" class="edge"><title>3&#45;&gt;4</title>
<path fill="none" stroke="black" d="M228.07,-16.2496C241.545,-15.3457 260.724,-15.1262 277,-19 280.701,-19.8808 284.467,-21.1966 288.091,-22.7135"/>
<polygon fill="black" stroke="black" points="286.672,-25.9145 297.207,-27.0378 289.672,-19.5899 286.672,-25.9145"/>
<text text-anchor="middle" x="261.5" y="-22.4" font-family="arial" font-size="12.00">1.5</text>
</g>
<!-- 6 -->
<g id="node6" class="node"><title>6</title>
<ellipse fill="powderblue" stroke="black" cx="416" cy="-65" rx="18" ry="18"/>
<text text-anchor="middle" x="416" y="-61.9" font-family="arial" font-size="12.00">P5</text>
</g>
<!-- 4&#45;&gt;6 -->
<g id="edge6" class="edge"><title>4&#45;&gt;6</title>
<path fill="none" stroke="black" d="M330.678,-40.7888C346.395,-45.3014 370.2,-52.1366 388.513,-57.3949"/>
<polygon fill="black" stroke="black" points="387.72,-60.8084 398.297,-60.2041 389.651,-54.0802 387.72,-60.8084"/>
<text text-anchor="middle" x="364.5" y="-57.4" font-family="arial" font-size="12.00">0.75</text>
</g>
<!-- 5&#45;&gt;6 -->
<g id="edge7" class="edge"><title>5&#45;&gt;6</title>
<path fill="none" stroke="black" d="M330.678,-85.8718C346.395,-81.9815 370.2,-76.0891 388.513,-71.5561"/>
<polygon fill="black" stroke="black" points="389.431,-74.9347 398.297,-69.1344 387.749,-68.1397 389.431,-74.9347"/>
<text text-anchor="middle" x="364.5" y="-84.4" font-family="arial" font-size="12.00">0.667</text>
</g>
<!-- 7 -->
<g id="node7" class="node"><title>7</title>
<ellipse fill="powderblue" stroke="black" cx="505" cy="-65" rx="18" ry="18"/>
<text text-anchor="middle" x="505" y="-61.9" font-family="arial" font-size="12.00">P6</text>
</g>
<!-- 6&#45;&gt;7 -->
<g id="edge8" class="edge"><title>6&#45;&gt;7</title>
<path fill="none" stroke="black" d="M434.188,-65C446.343,-65 462.886,-65 476.818,-65"/>
<polygon fill="black" stroke="black" points="476.847,-68.5001 486.847,-65 476.847,-61.5001 476.847,-68.5001"/>
<text text-anchor="middle" x="460.5" y="-68.4" font-family="arial" font-size="12.00">1.5</text>
</g>
<!-- 8 -->
<g id="node8" class="node"><title>8</title>
<ellipse fill="powderblue" stroke="black" cx="594" cy="-65" rx="18" ry="18"/>
<text text-anchor="middle" x="594" y="-61.9" font-family="arial" font-size="12.00">P7</text>
</g>
<!-- 7&#45;&gt;8 -->
<g id="edge9" class="edge"><title>7&#45;&gt;8</title>
<path fill="none" stroke="black" d="M523.188,-65C535.343,-65 551.886,-65 565.818,-65"/>
<polygon fill="black" stroke="black" points="565.847,-68.5001 575.847,-65 565.847,-61.5001 565.847,-68.5001"/>
<text text-anchor="middle" x="549.5" y="-68.4" font-family="arial" font-size="12.00">6.0</text>
</g>
<!-- 9 -->
<g id="node9" class="node"><title>9</title>
<ellipse fill="powderblue" stroke="black" cx="683" cy="-65" rx="18" ry="18"/>
<text text-anchor="middle" x="683" y="-61.9" font-family="arial" font-size="12.00">P8</text>
</g>
<!-- 8&#45;&gt;9 -->
<g id="edge10" class="edge"><title>8&#45;&gt;9</title>
<path fill="none" stroke="black" d="M612.188,-65C624.343,-65 640.886,-65 654.818,-65"/>
<polygon fill="black" stroke="black" points="654.847,-68.5001 664.847,-65 654.847,-61.5001 654.847,-68.5001"/>
<text text-anchor="middle" x="638.5" y="-68.4" font-family="arial" font-size="12.00">3.0</text>
</g>
<!-- 11 -->
<g id="node11" class="node"><title>11</title>
<ellipse fill="darksalmon" stroke="black" cx="772" cy="-65" rx="18" ry="18"/>
<text text-anchor="middle" x="772" y="-61.9" font-family="arial" font-size="12.00">Sink</text>
</g>
<!-- 9&#45;&gt;11 -->
<g id="edge12" class="edge"><title>9&#45;&gt;11</title>
<path fill="none" stroke="black" d="M701.188,-65C713.343,-65 729.886,-65 743.818,-65"/>
<polygon fill="black" stroke="black" points="743.847,-68.5001 753.847,-65 743.847,-61.5001 743.847,-68.5001"/>
<text text-anchor="middle" x="727.5" y="-68.4" font-family="arial" font-size="12.00">1.5</text>
</g>
<!-- 10 -->
<g id="node10" class="node"><title>10</title>
<ellipse fill="forestgreen" stroke="black" cx="18" cy="-40" rx="18" ry="18"/>
<text text-anchor="middle" x="18" y="-37.5" font-family="arial" font-size="10.00">Source</text>
</g>
<!-- 10&#45;&gt;1 -->
<g id="edge11" class="edge"><title>10&#45;&gt;1</title>
<path fill="none" stroke="black" d="M36.1884,-40C48.3426,-40 64.8865,-40 78.8185,-40"/>
<polygon fill="black" stroke="black" points="78.8473,-43.5001 88.8473,-40 78.8473,-36.5001 78.8473,-43.5001"/>
<text text-anchor="middle" x="62.5" y="-43.4" font-family="arial" font-size="12.00">1.0</text>
</g>
</g>
</svg>
