<?xml version="1.0" encoding="UTF-8" standalone="no"?>
<!DOCTYPE svg PUBLIC "-//W3C//DTD SVG 1.1//EN"
 "http://www.w3.org/Graphics/SVG/1.1/DTD/svg11.dtd">
<!-- Generated by graphviz version 2.38.0 (20140413.2041)
 -->
<!-- Title: %3 Pages: 1 -->
<svg width="750pt" height="105pt"
 viewBox="0.00 0.00 750.00 105.00" xmlns="http://www.w3.org/2000/svg" xmlns:xlink="http://www.w3.org/1999/xlink">
<g id="graph0" class="graph" transform="scale(1 1) rotate(0) translate(4 101)">
<title>%3</title>
<polygon fill="white" stroke="none" points="-4,4 -4,-101 746,-101 746,4 -4,4"/>
<!-- 1 -->
<g id="node1" class="node"><title>1</title>
<ellipse fill="powderblue" stroke="black" cx="107" cy="-40" rx="18" ry="18"/>
<text text-anchor="middle" x="107" y="-36.9" font-family="arial" font-size="12.00">P0</text>
</g>
<!-- 2 -->
<g id="node2" class="node"><title>2</title>
<ellipse fill="powderblue" stroke="black" cx="210" cy="-72" rx="18" ry="18"/>
<text text-anchor="middle" x="210" y="-68.9" font-family="arial" font-size="12.00">P1</text>
</g>
<!-- 1&#45;&gt;2 -->
<g id="edge1" class="edge"><title>1&#45;&gt;2</title>
<path fill="none" stroke="black" d="M124.678,-45.2841C140.562,-50.3168 164.709,-57.9671 183.098,-63.7933"/>
<polygon fill="black" stroke="black" points="182.042,-67.1303 192.632,-66.8142 184.156,-60.4572 182.042,-67.1303"/>
<text text-anchor="middle" x="158.5" y="-63.4" font-family="arial" font-size="12.00">1.0</text>
</g>
<!-- 3 -->
<g id="node3" class="node"><title>3</title>
<ellipse fill="powderblue" stroke="black" cx="210" cy="-18" rx="18" ry="18"/>
<text text-anchor="middle" x="210" y="-14.9" font-family="arial" font-size="12.00">P2</text>
</g>
<!-- 1&#45;&gt;3 -->
<g id="edge2" class="edge"><title>1&#45;&gt;3</title>
<path fill="none" stroke="black" d="M124.723,-36.1215C130.507,-34.7948 137.035,-33.3144 143,-32 155.917,-29.154 170.28,-26.0947 182.301,-23.5641"/>
<polygon fill="black" stroke="black" points="183.097,-26.9733 192.166,-21.495 181.66,-20.1224 183.097,-26.9733"/>
<text text-anchor="middle" x="158.5" y="-35.4" font-family="arial" font-size="12.00">0.333</text>
</g>
<!-- 4 -->
<g id="node4" class="node"><title>4</title>
<ellipse fill="powderblue" stroke="black" cx="313" cy="-72" rx="18" ry="18"/>
<text text-anchor="middle" x="313" y="-68.9" font-family="arial" font-size="12.00">P3</text>
</g>
<!-- 2&#45;&gt;4 -->
<g id="edge3" class="edge"><title>2&#45;&gt;4</title>
<path fill="none" stroke="black" d="M228.133,-72C243.586,-72 266.584,-72 284.591,-72"/>
<polygon fill="black" stroke="black" points="284.783,-75.5001 294.783,-72 284.783,-68.5001 284.783,-75.5001"/>
<text text-anchor="middle" x="261.5" y="-75.4" font-family="arial" font-size="12.00">0.143</text>
</g>
<!-- 5 -->
<g id="node5" class="node"><title>5</title>
<ellipse fill="powderblue" stroke="black" cx="313" cy="-18" rx="18" ry="18"/>
<text text-anchor="middle" x="313" y="-14.9" font-family="arial" font-size="12.00">P4</text>
</g>
<!-- 3&#45;&gt;5 -->
<g id="edge4" class="edge"><title>3&#45;&gt;5</title>
<path fill="none" stroke="black" d="M228.133,-18C243.586,-18 266.584,-18 284.591,-18"/>
<polygon fill="black" stroke="black" points="284.783,-21.5001 294.783,-18 284.783,-14.5001 284.783,-21.5001"/>
<text text-anchor="middle" x="261.5" y="-21.4" font-family="arial" font-size="12.00">1.33</text>
</g>
<!-- 6 -->
<g id="node6" class="node"><title>6</title>
<ellipse fill="powderblue" stroke="black" cx="422" cy="-47" rx="18" ry="18"/>
<text text-anchor="middle" x="422" y="-43.9" font-family="arial" font-size="12.00">P5</text>
</g>
<!-- 4&#45;&gt;6 -->
<g id="edge5" class="edge"><title>4&#45;&gt;6</title>
<path fill="none" stroke="black" d="M330.719,-68.0938C347.758,-64.1126 374.445,-57.8773 394.392,-53.2168"/>
<polygon fill="black" stroke="black" points="395.457,-56.5623 404.399,-50.8788 393.865,-49.7459 395.457,-56.5623"/>
<text text-anchor="middle" x="367.5" y="-66.4" font-family="arial" font-size="12.00">0.0857</text>
</g>
<!-- 5&#45;&gt;6 -->
<g id="edge6" class="edge"><title>5&#45;&gt;6</title>
<path fill="none" stroke="black" d="M330.719,-22.5312C347.837,-27.1707 374.691,-34.4491 394.667,-39.8631"/>
<polygon fill="black" stroke="black" points="393.831,-43.2627 404.399,-42.5006 395.662,-36.5065 393.831,-43.2627"/>
<text text-anchor="middle" x="367.5" y="-40.4" font-family="arial" font-size="12.00">0.667</text>
</g>
<!-- 7 -->
<g id="node7" class="node"><title>7</title>
<ellipse fill="powderblue" stroke="black" cx="525" cy="-79" rx="18" ry="18"/>
<text text-anchor="middle" x="525" y="-75.9" font-family="arial" font-size="12.00">P6</text>
</g>
<!-- 6&#45;&gt;7 -->
<g id="edge7" class="edge"><title>6&#45;&gt;7</title>
<path fill="none" stroke="black" d="M439.678,-52.2841C455.562,-57.3168 479.709,-64.9671 498.098,-70.7933"/>
<polygon fill="black" stroke="black" points="497.042,-74.1303 507.632,-73.8142 499.156,-67.4572 497.042,-74.1303"/>
<text text-anchor="middle" x="473.5" y="-70.4" font-family="arial" font-size="12.00">0.556</text>
</g>
<!-- 8 -->
<g id="node8" class="node"><title>8</title>
<ellipse fill="powderblue" stroke="black" cx="525" cy="-25" rx="18" ry="18"/>
<text text-anchor="middle" x="525" y="-21.9" font-family="arial" font-size="12.00">P7</text>
</g>
<!-- 6&#45;&gt;8 -->
<g id="edge8" class="edge"><title>6&#45;&gt;8</title>
<path fill="none" stroke="black" d="M439.723,-43.1215C445.507,-41.7948 452.035,-40.3144 458,-39 470.917,-36.154 485.28,-33.0947 497.301,-30.5641"/>
<polygon fill="black" stroke="black" points="498.097,-33.9733 507.166,-28.495 496.66,-27.1224 498.097,-33.9733"/>
<text text-anchor="middle" x="473.5" y="-42.4" font-family="arial" font-size="12.00">0.257</text>
</g>
<!-- 9 -->
<g id="node9" class="node"><title>9</title>
<ellipse fill="powderblue" stroke="black" cx="628" cy="-54" rx="18" ry="18"/>
<text text-anchor="middle" x="628" y="-50.9" font-family="arial" font-size="12.00">P8</text>
</g>
<!-- 7&#45;&gt;9 -->
<g id="edge9" class="edge"><title>7&#45;&gt;9</title>
<path fill="none" stroke="black" d="M542.678,-74.8718C558.395,-70.9815 582.2,-65.0891 600.513,-60.5561"/>
<polygon fill="black" stroke="black" points="601.431,-63.9347 610.297,-58.1344 599.749,-57.1397 601.431,-63.9347"/>
<text text-anchor="middle" x="576.5" y="-73.4" font-family="arial" font-size="12.00">0.926</text>
</g>
<!-- 8&#45;&gt;9 -->
<g id="edge10" class="edge"><title>8&#45;&gt;9</title>
<path fill="none" stroke="black" d="M542.678,-29.7888C558.395,-34.3014 582.2,-41.1366 600.513,-46.3949"/>
<polygon fill="black" stroke="black" points="599.72,-49.8084 610.297,-49.2041 601.651,-43.0802 599.72,-49.8084"/>
<text text-anchor="middle" x="576.5" y="-46.4" font-family="arial" font-size="12.00">1.29</text>
</g>
<!-- 11 -->
<g id="node11" class="node"><title>11</title>
<ellipse fill="darksalmon" stroke="black" cx="724" cy="-54" rx="18" ry="18"/>
<text text-anchor="middle" x="724" y="-50.9" font-family="arial" font-size="12.00">Sink</text>
</g>
<!-- 9&#45;&gt;11 -->
<g id="edge12" class="edge"><title>9&#45;&gt;11</title>
<path fill="none" stroke="black" d="M646.241,-54C660.022,-54 679.6,-54 695.535,-54"/>
<polygon fill="black" stroke="black" points="695.868,-57.5001 705.868,-54 695.868,-50.5001 695.868,-57.5001"/>
<text text-anchor="middle" x="676" y="-57.4" font-family="arial" font-size="12.00">1.29</text>
</g>
<!-- 10 -->
<g id="node10" class="node"><title>10</title>
<ellipse fill="forestgreen" stroke="black" cx="18" cy="-40" rx="18" ry="18"/>
<text text-anchor="middle" x="18" y="-37.5" font-family="arial" font-size="10.00">Source</text>
</g>
<!-- 10&#45;&gt;1 -->
<g id="edge11" class="edge"><title>10&#45;&gt;1</title>
<path fill="none" stroke="black" d="M36.1884,-40C48.3426,-40 64.8865,-40 78.8185,-40"/>
<polygon fill="black" stroke="black" points="78.8473,-43.5001 88.8473,-40 78.8473,-36.5001 78.8473,-43.5001"/>
<text text-anchor="middle" x="62.5" y="-43.4" font-family="arial" font-size="12.00">1.0</text>
</g>
</g>
</svg>
