<?xml version="1.0" encoding="UTF-8" standalone="no"?>
<!DOCTYPE svg PUBLIC "-//W3C//DTD SVG 1.1//EN"
 "http://www.w3.org/Graphics/SVG/1.1/DTD/svg11.dtd">
<!-- Generated by graphviz version 2.38.0 (20140413.2041)
 -->
<!-- Title: %3 Pages: 1 -->
<svg width="743pt" height="123pt"
 viewBox="0.00 0.00 743.00 123.00" xmlns="http://www.w3.org/2000/svg" xmlns:xlink="http://www.w3.org/1999/xlink">
<g id="graph0" class="graph" transform="scale(1 1) rotate(0) translate(4 119)">
<title>%3</title>
<polygon fill="white" stroke="none" points="-4,4 -4,-119 739,-119 739,4 -4,4"/>
<!-- 1 -->
<g id="node1" class="node"><title>1</title>
<ellipse fill="powderblue" stroke="black" cx="107" cy="-40" rx="18" ry="18"/>
<text text-anchor="middle" x="107" y="-36.9" font-family="arial" font-size="12.00">P0</text>
</g>
<!-- 2 -->
<g id="node2" class="node"><title>2</title>
<ellipse fill="powderblue" stroke="black" cx="203" cy="-40" rx="18" ry="18"/>
<text text-anchor="middle" x="203" y="-36.9" font-family="arial" font-size="12.00">P1</text>
</g>
<!-- 1&#45;&gt;2 -->
<g id="edge1" class="edge"><title>1&#45;&gt;2</title>
<path fill="none" stroke="black" d="M125.241,-40C139.022,-40 158.6,-40 174.535,-40"/>
<polygon fill="black" stroke="black" points="174.868,-43.5001 184.868,-40 174.868,-36.5001 174.868,-43.5001"/>
<text text-anchor="middle" x="155" y="-43.4" font-family="arial" font-size="12.00">1.33</text>
</g>
<!-- 3 -->
<g id="node3" class="node"><title>3</title>
<ellipse fill="powderblue" stroke="black" cx="299" cy="-72" rx="18" ry="18"/>
<text text-anchor="middle" x="299" y="-68.9" font-family="arial" font-size="12.00">P2</text>
</g>
<!-- 2&#45;&gt;3 -->
<g id="edge2" class="edge"><title>2&#45;&gt;3</title>
<path fill="none" stroke="black" d="M220.374,-45.574C234.661,-50.4379 255.637,-57.5786 272.183,-63.2114"/>
<polygon fill="black" stroke="black" points="271.22,-66.5805 281.814,-66.4899 273.476,-59.9539 271.22,-66.5805"/>
<text text-anchor="middle" x="251" y="-62.4" font-family="arial" font-size="12.00">1.33</text>
</g>
<!-- 4 -->
<g id="node4" class="node"><title>4</title>
<ellipse fill="powderblue" stroke="black" cx="299" cy="-18" rx="18" ry="18"/>
<text text-anchor="middle" x="299" y="-14.9" font-family="arial" font-size="12.00">P3</text>
</g>
<!-- 2&#45;&gt;4 -->
<g id="edge3" class="edge"><title>2&#45;&gt;4</title>
<path fill="none" stroke="black" d="M220.805,-36.0668C234.841,-32.782 255.106,-28.039 271.351,-24.237"/>
<polygon fill="black" stroke="black" points="272.401,-27.5859 281.34,-21.8991 270.806,-20.7701 272.401,-27.5859"/>
<text text-anchor="middle" x="251" y="-35.4" font-family="arial" font-size="12.00">1.67</text>
</g>
<!-- 5 -->
<g id="node5" class="node"><title>5</title>
<ellipse fill="powderblue" stroke="black" cx="402" cy="-47" rx="18" ry="18"/>
<text text-anchor="middle" x="402" y="-43.9" font-family="arial" font-size="12.00">P4</text>
</g>
<!-- 3&#45;&gt;5 -->
<g id="edge4" class="edge"><title>3&#45;&gt;5</title>
<path fill="none" stroke="black" d="M316.678,-67.8718C332.395,-63.9815 356.2,-58.0891 374.513,-53.5561"/>
<polygon fill="black" stroke="black" points="375.431,-56.9347 384.297,-51.1344 373.749,-50.1397 375.431,-56.9347"/>
<text text-anchor="middle" x="350.5" y="-66.4" font-family="arial" font-size="12.00">0.444</text>
</g>
<!-- 4&#45;&gt;5 -->
<g id="edge5" class="edge"><title>4&#45;&gt;5</title>
<path fill="none" stroke="black" d="M316.678,-22.7888C332.395,-27.3014 356.2,-34.1366 374.513,-39.3949"/>
<polygon fill="black" stroke="black" points="373.72,-42.8084 384.297,-42.2041 375.651,-36.0802 373.72,-42.8084"/>
<text text-anchor="middle" x="350.5" y="-40.4" font-family="arial" font-size="12.00">3.33</text>
</g>
<!-- 6 -->
<g id="node6" class="node"><title>6</title>
<ellipse fill="powderblue" stroke="black" cx="505" cy="-79" rx="18" ry="18"/>
<text text-anchor="middle" x="505" y="-75.9" font-family="arial" font-size="12.00">P5</text>
</g>
<!-- 5&#45;&gt;6 -->
<g id="edge6" class="edge"><title>5&#45;&gt;6</title>
<path fill="none" stroke="black" d="M419.678,-52.2841C435.562,-57.3168 459.709,-64.9671 478.098,-70.7933"/>
<polygon fill="black" stroke="black" points="477.042,-74.1303 487.632,-73.8142 479.156,-67.4572 477.042,-74.1303"/>
<text text-anchor="middle" x="453.5" y="-70.4" font-family="arial" font-size="12.00">0.111</text>
</g>
<!-- 7 -->
<g id="node7" class="node"><title>7</title>
<ellipse fill="powderblue" stroke="black" cx="505" cy="-25" rx="18" ry="18"/>
<text text-anchor="middle" x="505" y="-21.9" font-family="arial" font-size="12.00">P6</text>
</g>
<!-- 5&#45;&gt;7 -->
<g id="edge7" class="edge"><title>5&#45;&gt;7</title>
<path fill="none" stroke="black" d="M419.723,-43.1215C425.507,-41.7948 432.035,-40.3144 438,-39 450.917,-36.154 465.28,-33.0947 477.301,-30.5641"/>
<polygon fill="black" stroke="black" points="478.097,-33.9733 487.166,-28.495 476.66,-27.1224 478.097,-33.9733"/>
<text text-anchor="middle" x="453.5" y="-42.4" font-family="arial" font-size="12.00">0.222</text>
</g>
<!-- 8 -->
<g id="node8" class="node"><title>8</title>
<ellipse fill="powderblue" stroke="black" cx="608" cy="-43" rx="18" ry="18"/>
<text text-anchor="middle" x="608" y="-39.9" font-family="arial" font-size="12.00">P7</text>
</g>
<!-- 6&#45;&gt;8 -->
<g id="edge8" class="edge"><title>6&#45;&gt;8</title>
<path fill="none" stroke="black" d="M522.227,-73.216C538.13,-67.5477 562.618,-58.8192 581.194,-52.1983"/>
<polygon fill="black" stroke="black" points="582.568,-55.424 590.813,-48.7697 580.218,-48.8304 582.568,-55.424"/>
<text text-anchor="middle" x="556.5" y="-69.4" font-family="arial" font-size="12.00">0.111</text>
</g>
<!-- 9 -->
<g id="node9" class="node"><title>9</title>
<ellipse fill="powderblue" stroke="black" cx="608" cy="-97" rx="18" ry="18"/>
<text text-anchor="middle" x="608" y="-93.9" font-family="arial" font-size="12.00">P8</text>
</g>
<!-- 6&#45;&gt;9 -->
<g id="edge10" class="edge"><title>6&#45;&gt;9</title>
<path fill="none" stroke="black" d="M523.133,-82.0535C538.753,-84.8372 562.081,-88.9946 580.172,-92.2187"/>
<polygon fill="black" stroke="black" points="579.661,-95.6827 590.12,-93.9916 580.889,-88.7913 579.661,-95.6827"/>
<text text-anchor="middle" x="556.5" y="-93.4" font-family="arial" font-size="12.00">0.222</text>
</g>
<!-- 7&#45;&gt;8 -->
<g id="edge9" class="edge"><title>7&#45;&gt;8</title>
<path fill="none" stroke="black" d="M523.07,-23.2496C536.545,-22.3457 555.724,-22.1262 572,-26 575.701,-26.8808 579.467,-28.1966 583.091,-29.7135"/>
<polygon fill="black" stroke="black" points="581.672,-32.9145 592.207,-34.0378 584.672,-26.5899 581.672,-32.9145"/>
<text text-anchor="middle" x="556.5" y="-29.4" font-family="arial" font-size="12.00">0.667</text>
</g>
<!-- 11 -->
<g id="node11" class="node"><title>11</title>
<ellipse fill="darksalmon" stroke="black" cx="717" cy="-72" rx="18" ry="18"/>
<text text-anchor="middle" x="717" y="-68.9" font-family="arial" font-size="12.00">Sink</text>
</g>
<!-- 8&#45;&gt;11 -->
<g id="edge13" class="edge"><title>8&#45;&gt;11</title>
<path fill="none" stroke="black" d="M625.719,-47.5312C642.837,-52.1707 669.691,-59.4491 689.667,-64.8631"/>
<polygon fill="black" stroke="black" points="688.831,-68.2627 699.399,-67.5006 690.662,-61.5065 688.831,-68.2627"/>
<text text-anchor="middle" x="662.5" y="-64.4" font-family="arial" font-size="12.00">0.0741</text>
</g>
<!-- 9&#45;&gt;11 -->
<g id="edge12" class="edge"><title>9&#45;&gt;11</title>
<path fill="none" stroke="black" d="M625.719,-93.0938C642.758,-89.1126 669.445,-82.8773 689.392,-78.2168"/>
<polygon fill="black" stroke="black" points="690.457,-81.5623 699.399,-75.8788 688.865,-74.7459 690.457,-81.5623"/>
<text text-anchor="middle" x="662.5" y="-91.4" font-family="arial" font-size="12.00">0.667</text>
</g>
<!-- 10 -->
<g id="node10" class="node"><title>10</title>
<ellipse fill="forestgreen" stroke="black" cx="18" cy="-40" rx="18" ry="18"/>
<text text-anchor="middle" x="18" y="-37.5" font-family="arial" font-size="10.00">Source</text>
</g>
<!-- 10&#45;&gt;1 -->
<g id="edge11" class="edge"><title>10&#45;&gt;1</title>
<path fill="none" stroke="black" d="M36.1884,-40C48.3426,-40 64.8865,-40 78.8185,-40"/>
<polygon fill="black" stroke="black" points="78.8473,-43.5001 88.8473,-40 78.8473,-36.5001 78.8473,-43.5001"/>
<text text-anchor="middle" x="62.5" y="-43.4" font-family="arial" font-size="12.00">1.0</text>
</g>
</g>
</svg>
