<?xml version="1.0" encoding="UTF-8" standalone="no"?>
<!DOCTYPE svg PUBLIC "-//W3C//DTD SVG 1.1//EN"
 "http://www.w3.org/Graphics/SVG/1.1/DTD/svg11.dtd">
<!-- Generated by graphviz version 2.38.0 (20140413.2041)
 -->
<!-- Title: %3 Pages: 1 -->
<svg width="737pt" height="152pt"
 viewBox="0.00 0.00 737.00 152.00" xmlns="http://www.w3.org/2000/svg" xmlns:xlink="http://www.w3.org/1999/xlink">
<g id="graph0" class="graph" transform="scale(1 1) rotate(0) translate(4 148)">
<title>%3</title>
<polygon fill="white" stroke="none" points="-4,4 -4,-148 733,-148 733,4 -4,4"/>
<!-- 1 -->
<g id="node1" class="node"><title>1</title>
<ellipse fill="powderblue" stroke="black" cx="107" cy="-99" rx="18" ry="18"/>
<text text-anchor="middle" x="107" y="-95.9" font-family="arial" font-size="12.00">P0</text>
</g>
<!-- 3 -->
<g id="node3" class="node"><title>3</title>
<ellipse fill="powderblue" stroke="black" cx="210" cy="-126" rx="18" ry="18"/>
<text text-anchor="middle" x="210" y="-122.9" font-family="arial" font-size="12.00">P2</text>
</g>
<!-- 1&#45;&gt;3 -->
<g id="edge1" class="edge"><title>1&#45;&gt;3</title>
<path fill="none" stroke="black" d="M124.678,-103.459C140.395,-107.66 164.2,-114.024 182.513,-118.919"/>
<polygon fill="black" stroke="black" points="181.732,-122.333 192.297,-121.535 183.54,-115.571 181.732,-122.333"/>
<text text-anchor="middle" x="158.5" y="-119.4" font-family="arial" font-size="12.00">0.333</text>
</g>
<!-- 5 -->
<g id="node5" class="node"><title>5</title>
<ellipse fill="powderblue" stroke="black" cx="210" cy="-72" rx="18" ry="18"/>
<text text-anchor="middle" x="210" y="-68.9" font-family="arial" font-size="12.00">P4</text>
</g>
<!-- 1&#45;&gt;5 -->
<g id="edge3" class="edge"><title>1&#45;&gt;5</title>
<path fill="none" stroke="black" d="M124.678,-94.5415C140.395,-90.34 164.2,-83.9762 182.513,-79.0806"/>
<polygon fill="black" stroke="black" points="183.54,-82.429 192.297,-76.4651 181.732,-75.6665 183.54,-82.429"/>
<text text-anchor="middle" x="158.5" y="-92.4" font-family="arial" font-size="12.00">1.5</text>
</g>
<!-- 2 -->
<g id="node2" class="node"><title>2</title>
<ellipse fill="powderblue" stroke="black" cx="107" cy="-45" rx="18" ry="18"/>
<text text-anchor="middle" x="107" y="-41.9" font-family="arial" font-size="12.00">P1</text>
</g>
<!-- 4 -->
<g id="node4" class="node"><title>4</title>
<ellipse fill="powderblue" stroke="black" cx="210" cy="-18" rx="18" ry="18"/>
<text text-anchor="middle" x="210" y="-14.9" font-family="arial" font-size="12.00">P3</text>
</g>
<!-- 2&#45;&gt;4 -->
<g id="edge2" class="edge"><title>2&#45;&gt;4</title>
<path fill="none" stroke="black" d="M120.493,-32.708C126.719,-27.4235 134.685,-21.8206 143,-19 155.339,-14.8146 169.736,-14.1496 181.929,-14.7036"/>
<polygon fill="black" stroke="black" points="181.739,-18.199 191.97,-15.4464 182.255,-11.2181 181.739,-18.199"/>
<text text-anchor="middle" x="158.5" y="-22.4" font-family="arial" font-size="12.00">2.0</text>
</g>
<!-- 2&#45;&gt;5 -->
<g id="edge4" class="edge"><title>2&#45;&gt;5</title>
<path fill="none" stroke="black" d="M124.678,-49.4585C140.395,-53.66 164.2,-60.0238 182.513,-64.9194"/>
<polygon fill="black" stroke="black" points="181.732,-68.3335 192.297,-67.5349 183.54,-61.571 181.732,-68.3335"/>
<text text-anchor="middle" x="158.5" y="-65.4" font-family="arial" font-size="12.00">1.5</text>
</g>
<!-- 6 -->
<g id="node6" class="node"><title>6</title>
<ellipse fill="powderblue" stroke="black" cx="313" cy="-72" rx="18" ry="18"/>
<text text-anchor="middle" x="313" y="-68.9" font-family="arial" font-size="12.00">P5</text>
</g>
<!-- 3&#45;&gt;6 -->
<g id="edge5" class="edge"><title>3&#45;&gt;6</title>
<path fill="none" stroke="black" d="M226.34,-117.799C242.674,-109.065 268.751,-95.1234 287.847,-84.9137"/>
<polygon fill="black" stroke="black" points="289.678,-87.9032 296.847,-80.1017 286.378,-81.7301 289.678,-87.9032"/>
<text text-anchor="middle" x="261.5" y="-109.4" font-family="arial" font-size="12.00">0.333</text>
</g>
<!-- 4&#45;&gt;6 -->
<g id="edge6" class="edge"><title>4&#45;&gt;6</title>
<path fill="none" stroke="black" d="M226.34,-26.2014C242.674,-34.9346 268.751,-48.8766 287.847,-59.0863"/>
<polygon fill="black" stroke="black" points="286.378,-62.2699 296.847,-63.8983 289.678,-56.0968 286.378,-62.2699"/>
<text text-anchor="middle" x="261.5" y="-56.4" font-family="arial" font-size="12.00">0.667</text>
</g>
<!-- 5&#45;&gt;6 -->
<g id="edge7" class="edge"><title>5&#45;&gt;6</title>
<path fill="none" stroke="black" d="M228.133,-72C243.586,-72 266.584,-72 284.591,-72"/>
<polygon fill="black" stroke="black" points="284.783,-75.5001 294.783,-72 284.783,-68.5001 284.783,-75.5001"/>
<text text-anchor="middle" x="261.5" y="-75.4" font-family="arial" font-size="12.00">0.562</text>
</g>
<!-- 7 -->
<g id="node7" class="node"><title>7</title>
<ellipse fill="powderblue" stroke="black" cx="416" cy="-72" rx="18" ry="18"/>
<text text-anchor="middle" x="416" y="-68.9" font-family="arial" font-size="12.00">P6</text>
</g>
<!-- 6&#45;&gt;7 -->
<g id="edge8" class="edge"><title>6&#45;&gt;7</title>
<path fill="none" stroke="black" d="M331.133,-72C346.586,-72 369.584,-72 387.591,-72"/>
<polygon fill="black" stroke="black" points="387.783,-75.5001 397.783,-72 387.783,-68.5001 387.783,-75.5001"/>
<text text-anchor="middle" x="364.5" y="-75.4" font-family="arial" font-size="12.00">0.703</text>
</g>
<!-- 8 -->
<g id="node8" class="node"><title>8</title>
<ellipse fill="powderblue" stroke="black" cx="519" cy="-72" rx="18" ry="18"/>
<text text-anchor="middle" x="519" y="-68.9" font-family="arial" font-size="12.00">P7</text>
</g>
<!-- 7&#45;&gt;8 -->
<g id="edge9" class="edge"><title>7&#45;&gt;8</title>
<path fill="none" stroke="black" d="M434.133,-72C449.586,-72 472.584,-72 490.591,-72"/>
<polygon fill="black" stroke="black" points="490.783,-75.5001 500.783,-72 490.783,-68.5001 490.783,-75.5001"/>
<text text-anchor="middle" x="467.5" y="-75.4" font-family="arial" font-size="12.00">0.527</text>
</g>
<!-- 9 -->
<g id="node9" class="node"><title>9</title>
<ellipse fill="powderblue" stroke="black" cx="615" cy="-72" rx="18" ry="18"/>
<text text-anchor="middle" x="615" y="-68.9" font-family="arial" font-size="12.00">P8</text>
</g>
<!-- 8&#45;&gt;9 -->
<g id="edge10" class="edge"><title>8&#45;&gt;9</title>
<path fill="none" stroke="black" d="M537.241,-72C551.022,-72 570.6,-72 586.535,-72"/>
<polygon fill="black" stroke="black" points="586.868,-75.5001 596.868,-72 586.868,-68.5001 586.868,-75.5001"/>
<text text-anchor="middle" x="567" y="-75.4" font-family="arial" font-size="12.00">2.11</text>
</g>
<!-- 11 -->
<g id="node11" class="node"><title>11</title>
<ellipse fill="darksalmon" stroke="black" cx="711" cy="-72" rx="18" ry="18"/>
<text text-anchor="middle" x="711" y="-68.9" font-family="arial" font-size="12.00">Sink</text>
</g>
<!-- 9&#45;&gt;11 -->
<g id="edge13" class="edge"><title>9&#45;&gt;11</title>
<path fill="none" stroke="black" d="M633.241,-72C647.022,-72 666.6,-72 682.535,-72"/>
<polygon fill="black" stroke="black" points="682.868,-75.5001 692.868,-72 682.868,-68.5001 682.868,-75.5001"/>
<text text-anchor="middle" x="663" y="-75.4" font-family="arial" font-size="12.00">10.5</text>
</g>
<!-- 10 -->
<g id="node10" class="node"><title>10</title>
<ellipse fill="forestgreen" stroke="black" cx="18" cy="-71" rx="18" ry="18"/>
<text text-anchor="middle" x="18" y="-68.5" font-family="arial" font-size="10.00">Source</text>
</g>
<!-- 10&#45;&gt;1 -->
<g id="edge12" class="edge"><title>10&#45;&gt;1</title>
<path fill="none" stroke="black" d="M35.364,-76.2666C47.8803,-80.2948 65.387,-85.9292 79.84,-90.5807"/>
<polygon fill="black" stroke="black" points="79.1179,-94.025 89.7093,-93.757 81.2625,-87.3616 79.1179,-94.025"/>
<text text-anchor="middle" x="62.5" y="-90.4" font-family="arial" font-size="12.00">1.0</text>
</g>
<!-- 10&#45;&gt;2 -->
<g id="edge11" class="edge"><title>10&#45;&gt;2</title>
<path fill="none" stroke="black" d="M35.3072,-65.1545C41.1726,-63.1195 47.857,-60.8777 54,-59 62.1725,-56.5019 71.1384,-54.0029 79.2891,-51.8221"/>
<polygon fill="black" stroke="black" points="80.2752,-55.1819 89.0564,-49.254 78.4951,-48.412 80.2752,-55.1819"/>
<text text-anchor="middle" x="62.5" y="-62.4" font-family="arial" font-size="12.00">1.0</text>
</g>
</g>
</svg>
