<?xml version="1.0" encoding="UTF-8" standalone="no"?>
<!DOCTYPE svg PUBLIC "-//W3C//DTD SVG 1.1//EN"
 "http://www.w3.org/Graphics/SVG/1.1/DTD/svg11.dtd">
<!-- Generated by graphviz version 2.38.0 (20140413.2041)
 -->
<!-- Title: %3 Pages: 1 -->
<svg width="812pt" height="105pt"
 viewBox="0.00 0.00 812.00 105.00" xmlns="http://www.w3.org/2000/svg" xmlns:xlink="http://www.w3.org/1999/xlink">
<g id="graph0" class="graph" transform="scale(1 1) rotate(0) translate(4 101)">
<title>%3</title>
<polygon fill="white" stroke="none" points="-4,4 -4,-101 808,-101 808,4 -4,4"/>
<!-- 1 -->
<g id="node1" class="node"><title>1</title>
<ellipse fill="powderblue" stroke="black" cx="107" cy="-40" rx="18" ry="18"/>
<text text-anchor="middle" x="107" y="-36.9" font-family="arial" font-size="12.00">P0</text>
</g>
<!-- 2 -->
<g id="node2" class="node"><title>2</title>
<ellipse fill="powderblue" stroke="black" cx="203" cy="-72" rx="18" ry="18"/>
<text text-anchor="middle" x="203" y="-68.9" font-family="arial" font-size="12.00">P1</text>
</g>
<!-- 1&#45;&gt;2 -->
<g id="edge1" class="edge"><title>1&#45;&gt;2</title>
<path fill="none" stroke="black" d="M124.374,-45.574C138.661,-50.4379 159.637,-57.5786 176.183,-63.2114"/>
<polygon fill="black" stroke="black" points="175.22,-66.5805 185.814,-66.4899 177.476,-59.9539 175.22,-66.5805"/>
<text text-anchor="middle" x="155" y="-62.4" font-family="arial" font-size="12.00">1.67</text>
</g>
<!-- 3 -->
<g id="node3" class="node"><title>3</title>
<ellipse fill="powderblue" stroke="black" cx="203" cy="-18" rx="18" ry="18"/>
<text text-anchor="middle" x="203" y="-14.9" font-family="arial" font-size="12.00">P2</text>
</g>
<!-- 1&#45;&gt;3 -->
<g id="edge2" class="edge"><title>1&#45;&gt;3</title>
<path fill="none" stroke="black" d="M124.805,-36.0668C138.841,-32.782 159.106,-28.039 175.351,-24.237"/>
<polygon fill="black" stroke="black" points="176.401,-27.5859 185.34,-21.8991 174.806,-20.7701 176.401,-27.5859"/>
<text text-anchor="middle" x="155" y="-35.4" font-family="arial" font-size="12.00">5.0</text>
</g>
<!-- 4 -->
<g id="node4" class="node"><title>4</title>
<ellipse fill="powderblue" stroke="black" cx="299" cy="-47" rx="18" ry="18"/>
<text text-anchor="middle" x="299" y="-43.9" font-family="arial" font-size="12.00">P3</text>
</g>
<!-- 2&#45;&gt;4 -->
<g id="edge3" class="edge"><title>2&#45;&gt;4</title>
<path fill="none" stroke="black" d="M220.805,-67.5305C234.841,-63.7977 255.106,-58.408 271.351,-54.0874"/>
<polygon fill="black" stroke="black" points="272.576,-57.3835 281.34,-51.4308 270.777,-50.6187 272.576,-57.3835"/>
<text text-anchor="middle" x="251" y="-65.4" font-family="arial" font-size="12.00">1.67</text>
</g>
<!-- 3&#45;&gt;4 -->
<g id="edge4" class="edge"><title>3&#45;&gt;4</title>
<path fill="none" stroke="black" d="M220.374,-23.0514C234.574,-27.4324 255.382,-33.8517 271.88,-38.9418"/>
<polygon fill="black" stroke="black" points="270.911,-42.3056 281.499,-41.9092 272.975,-35.6166 270.911,-42.3056"/>
<text text-anchor="middle" x="251" y="-39.4" font-family="arial" font-size="12.00">1.25</text>
</g>
<!-- 5 -->
<g id="node5" class="node"><title>5</title>
<ellipse fill="powderblue" stroke="black" cx="395" cy="-79" rx="18" ry="18"/>
<text text-anchor="middle" x="395" y="-75.9" font-family="arial" font-size="12.00">P4</text>
</g>
<!-- 4&#45;&gt;5 -->
<g id="edge5" class="edge"><title>4&#45;&gt;5</title>
<path fill="none" stroke="black" d="M316.374,-52.574C330.661,-57.4379 351.637,-64.5786 368.183,-70.2114"/>
<polygon fill="black" stroke="black" points="367.22,-73.5805 377.814,-73.4899 369.476,-66.9539 367.22,-73.5805"/>
<text text-anchor="middle" x="347" y="-69.4" font-family="arial" font-size="12.00">1.11</text>
</g>
<!-- 6 -->
<g id="node6" class="node"><title>6</title>
<ellipse fill="powderblue" stroke="black" cx="395" cy="-25" rx="18" ry="18"/>
<text text-anchor="middle" x="395" y="-21.9" font-family="arial" font-size="12.00">P5</text>
</g>
<!-- 4&#45;&gt;6 -->
<g id="edge6" class="edge"><title>4&#45;&gt;6</title>
<path fill="none" stroke="black" d="M316.805,-43.0668C330.841,-39.782 351.106,-35.039 367.351,-31.237"/>
<polygon fill="black" stroke="black" points="368.401,-34.5859 377.34,-28.8991 366.806,-27.7701 368.401,-34.5859"/>
<text text-anchor="middle" x="347" y="-42.4" font-family="arial" font-size="12.00">1.56</text>
</g>
<!-- 7 -->
<g id="node7" class="node"><title>7</title>
<ellipse fill="powderblue" stroke="black" cx="498" cy="-54" rx="18" ry="18"/>
<text text-anchor="middle" x="498" y="-50.9" font-family="arial" font-size="12.00">P6</text>
</g>
<!-- 5&#45;&gt;7 -->
<g id="edge7" class="edge"><title>5&#45;&gt;7</title>
<path fill="none" stroke="black" d="M412.678,-74.8718C428.395,-70.9815 452.2,-65.0891 470.513,-60.5561"/>
<polygon fill="black" stroke="black" points="471.431,-63.9347 480.297,-58.1344 469.749,-57.1397 471.431,-63.9347"/>
<text text-anchor="middle" x="446.5" y="-73.4" font-family="arial" font-size="12.00">0.741</text>
</g>
<!-- 6&#45;&gt;7 -->
<g id="edge8" class="edge"><title>6&#45;&gt;7</title>
<path fill="none" stroke="black" d="M412.678,-29.7888C428.395,-34.3014 452.2,-41.1366 470.513,-46.3949"/>
<polygon fill="black" stroke="black" points="469.72,-49.8084 480.297,-49.2041 471.651,-43.0802 469.72,-49.8084"/>
<text text-anchor="middle" x="446.5" y="-46.4" font-family="arial" font-size="12.00">7.81</text>
</g>
<!-- 8 -->
<g id="node8" class="node"><title>8</title>
<ellipse fill="powderblue" stroke="black" cx="594" cy="-54" rx="18" ry="18"/>
<text text-anchor="middle" x="594" y="-50.9" font-family="arial" font-size="12.00">P7</text>
</g>
<!-- 7&#45;&gt;8 -->
<g id="edge9" class="edge"><title>7&#45;&gt;8</title>
<path fill="none" stroke="black" d="M516.241,-54C530.022,-54 549.6,-54 565.535,-54"/>
<polygon fill="black" stroke="black" points="565.868,-57.5001 575.868,-54 565.868,-50.5001 565.868,-57.5001"/>
<text text-anchor="middle" x="546" y="-57.4" font-family="arial" font-size="12.00">1.04</text>
</g>
<!-- 9 -->
<g id="node9" class="node"><title>9</title>
<ellipse fill="powderblue" stroke="black" cx="690" cy="-54" rx="18" ry="18"/>
<text text-anchor="middle" x="690" y="-50.9" font-family="arial" font-size="12.00">P8</text>
</g>
<!-- 8&#45;&gt;9 -->
<g id="edge10" class="edge"><title>8&#45;&gt;9</title>
<path fill="none" stroke="black" d="M612.241,-54C626.022,-54 645.6,-54 661.535,-54"/>
<polygon fill="black" stroke="black" points="661.868,-57.5001 671.868,-54 661.868,-50.5001 661.868,-57.5001"/>
<text text-anchor="middle" x="642" y="-57.4" font-family="arial" font-size="12.00">3.11</text>
</g>
<!-- 11 -->
<g id="node11" class="node"><title>11</title>
<ellipse fill="darksalmon" stroke="black" cx="786" cy="-54" rx="18" ry="18"/>
<text text-anchor="middle" x="786" y="-50.9" font-family="arial" font-size="12.00">Sink</text>
</g>
<!-- 9&#45;&gt;11 -->
<g id="edge12" class="edge"><title>9&#45;&gt;11</title>
<path fill="none" stroke="black" d="M708.241,-54C722.022,-54 741.6,-54 757.535,-54"/>
<polygon fill="black" stroke="black" points="757.868,-57.5001 767.868,-54 757.868,-50.5001 757.868,-57.5001"/>
<text text-anchor="middle" x="738" y="-57.4" font-family="arial" font-size="12.00">1.56</text>
</g>
<!-- 10 -->
<g id="node10" class="node"><title>10</title>
<ellipse fill="forestgreen" stroke="black" cx="18" cy="-40" rx="18" ry="18"/>
<text text-anchor="middle" x="18" y="-37.5" font-family="arial" font-size="10.00">Source</text>
</g>
<!-- 10&#45;&gt;1 -->
<g id="edge11" class="edge"><title>10&#45;&gt;1</title>
<path fill="none" stroke="black" d="M36.1884,-40C48.3426,-40 64.8865,-40 78.8185,-40"/>
<polygon fill="black" stroke="black" points="78.8473,-43.5001 88.8473,-40 78.8473,-36.5001 78.8473,-43.5001"/>
<text text-anchor="middle" x="62.5" y="-43.4" font-family="arial" font-size="12.00">1.0</text>
</g>
</g>
</svg>
