<?xml version="1.0" encoding="UTF-8" standalone="no"?>
<!DOCTYPE svg PUBLIC "-//W3C//DTD SVG 1.1//EN"
 "http://www.w3.org/Graphics/SVG/1.1/DTD/svg11.dtd">
<!-- Generated by graphviz version 2.38.0 (20140413.2041)
 -->
<!-- Title: %3 Pages: 1 -->
<svg width="730pt" height="152pt"
 viewBox="0.00 0.00 730.00 152.00" xmlns="http://www.w3.org/2000/svg" xmlns:xlink="http://www.w3.org/1999/xlink">
<g id="graph0" class="graph" transform="scale(1 1) rotate(0) translate(4 148)">
<title>%3</title>
<polygon fill="white" stroke="none" points="-4,4 -4,-148 726,-148 726,4 -4,4"/>
<!-- 1 -->
<g id="node1" class="node"><title>1</title>
<ellipse fill="powderblue" stroke="black" cx="107" cy="-65" rx="18" ry="18"/>
<text text-anchor="middle" x="107" y="-61.9" font-family="arial" font-size="12.00">P0</text>
</g>
<!-- 2 -->
<g id="node2" class="node"><title>2</title>
<ellipse fill="powderblue" stroke="black" cx="203" cy="-65" rx="18" ry="18"/>
<text text-anchor="middle" x="203" y="-61.9" font-family="arial" font-size="12.00">P1</text>
</g>
<!-- 1&#45;&gt;2 -->
<g id="edge1" class="edge"><title>1&#45;&gt;2</title>
<path fill="none" stroke="black" d="M125.241,-65C139.022,-65 158.6,-65 174.535,-65"/>
<polygon fill="black" stroke="black" points="174.868,-68.5001 184.868,-65 174.868,-61.5001 174.868,-68.5001"/>
<text text-anchor="middle" x="155" y="-68.4" font-family="arial" font-size="12.00">0.25</text>
</g>
<!-- 3 -->
<g id="node3" class="node"><title>3</title>
<ellipse fill="powderblue" stroke="black" cx="292" cy="-65" rx="18" ry="18"/>
<text text-anchor="middle" x="292" y="-61.9" font-family="arial" font-size="12.00">P2</text>
</g>
<!-- 2&#45;&gt;3 -->
<g id="edge2" class="edge"><title>2&#45;&gt;3</title>
<path fill="none" stroke="black" d="M221.188,-65C233.343,-65 249.886,-65 263.818,-65"/>
<polygon fill="black" stroke="black" points="263.847,-68.5001 273.847,-65 263.847,-61.5001 263.847,-68.5001"/>
<text text-anchor="middle" x="247.5" y="-68.4" font-family="arial" font-size="12.00">0.5</text>
</g>
<!-- 4 -->
<g id="node4" class="node"><title>4</title>
<ellipse fill="powderblue" stroke="black" cx="395" cy="-97" rx="18" ry="18"/>
<text text-anchor="middle" x="395" y="-93.9" font-family="arial" font-size="12.00">P3</text>
</g>
<!-- 3&#45;&gt;4 -->
<g id="edge3" class="edge"><title>3&#45;&gt;4</title>
<path fill="none" stroke="black" d="M309.678,-70.2841C325.562,-75.3168 349.709,-82.9671 368.098,-88.7933"/>
<polygon fill="black" stroke="black" points="367.042,-92.1303 377.632,-91.8142 369.156,-85.4572 367.042,-92.1303"/>
<text text-anchor="middle" x="343.5" y="-88.4" font-family="arial" font-size="12.00">0.25</text>
</g>
<!-- 5 -->
<g id="node5" class="node"><title>5</title>
<ellipse fill="powderblue" stroke="black" cx="395" cy="-43" rx="18" ry="18"/>
<text text-anchor="middle" x="395" y="-39.9" font-family="arial" font-size="12.00">P4</text>
</g>
<!-- 3&#45;&gt;5 -->
<g id="edge4" class="edge"><title>3&#45;&gt;5</title>
<path fill="none" stroke="black" d="M309.723,-61.1215C315.507,-59.7948 322.035,-58.3144 328,-57 340.917,-54.154 355.28,-51.0947 367.301,-48.5641"/>
<polygon fill="black" stroke="black" points="368.097,-51.9733 377.166,-46.495 366.66,-45.1224 368.097,-51.9733"/>
<text text-anchor="middle" x="343.5" y="-60.4" font-family="arial" font-size="12.00">0.417</text>
</g>
<!-- 6 -->
<g id="node6" class="node"><title>6</title>
<ellipse fill="powderblue" stroke="black" cx="498" cy="-72" rx="18" ry="18"/>
<text text-anchor="middle" x="498" y="-68.9" font-family="arial" font-size="12.00">P5</text>
</g>
<!-- 4&#45;&gt;6 -->
<g id="edge5" class="edge"><title>4&#45;&gt;6</title>
<path fill="none" stroke="black" d="M412.678,-92.8718C428.395,-88.9815 452.2,-83.0891 470.513,-78.5561"/>
<polygon fill="black" stroke="black" points="471.431,-81.9347 480.297,-76.1344 469.749,-75.1397 471.431,-81.9347"/>
<text text-anchor="middle" x="446.5" y="-91.4" font-family="arial" font-size="12.00">0.125</text>
</g>
<!-- 5&#45;&gt;6 -->
<g id="edge6" class="edge"><title>5&#45;&gt;6</title>
<path fill="none" stroke="black" d="M412.678,-47.7888C428.395,-52.3014 452.2,-59.1366 470.513,-64.3949"/>
<polygon fill="black" stroke="black" points="469.72,-67.8084 480.297,-67.2041 471.651,-61.0802 469.72,-67.8084"/>
<text text-anchor="middle" x="446.5" y="-65.4" font-family="arial" font-size="12.00">0.278</text>
</g>
<!-- 7 -->
<g id="node7" class="node"><title>7</title>
<ellipse fill="powderblue" stroke="black" cx="601" cy="-126" rx="18" ry="18"/>
<text text-anchor="middle" x="601" y="-122.9" font-family="arial" font-size="12.00">P6</text>
</g>
<!-- 6&#45;&gt;7 -->
<g id="edge7" class="edge"><title>6&#45;&gt;7</title>
<path fill="none" stroke="black" d="M514.34,-80.2014C530.674,-88.9346 556.751,-102.877 575.847,-113.086"/>
<polygon fill="black" stroke="black" points="574.378,-116.27 584.847,-117.898 577.678,-110.097 574.378,-116.27"/>
<text text-anchor="middle" x="549.5" y="-109.4" font-family="arial" font-size="12.00">0.556</text>
</g>
<!-- 8 -->
<g id="node8" class="node"><title>8</title>
<ellipse fill="powderblue" stroke="black" cx="601" cy="-72" rx="18" ry="18"/>
<text text-anchor="middle" x="601" y="-68.9" font-family="arial" font-size="12.00">P7</text>
</g>
<!-- 6&#45;&gt;8 -->
<g id="edge8" class="edge"><title>6&#45;&gt;8</title>
<path fill="none" stroke="black" d="M516.133,-72C531.586,-72 554.584,-72 572.591,-72"/>
<polygon fill="black" stroke="black" points="572.783,-75.5001 582.783,-72 572.783,-68.5001 572.783,-75.5001"/>
<text text-anchor="middle" x="549.5" y="-75.4" font-family="arial" font-size="12.00">0.25</text>
</g>
<!-- 9 -->
<g id="node9" class="node"><title>9</title>
<ellipse fill="powderblue" stroke="black" cx="601" cy="-18" rx="18" ry="18"/>
<text text-anchor="middle" x="601" y="-14.9" font-family="arial" font-size="12.00">P8</text>
</g>
<!-- 6&#45;&gt;9 -->
<g id="edge9" class="edge"><title>6&#45;&gt;9</title>
<path fill="none" stroke="black" d="M514.34,-63.7986C530.674,-55.0654 556.751,-41.1234 575.847,-30.9137"/>
<polygon fill="black" stroke="black" points="577.678,-33.9032 584.847,-26.1017 574.378,-27.7301 577.678,-33.9032"/>
<text text-anchor="middle" x="549.5" y="-56.4" font-family="arial" font-size="12.00">0.556</text>
</g>
<!-- 11 -->
<g id="node11" class="node"><title>11</title>
<ellipse fill="darksalmon" stroke="black" cx="704" cy="-72" rx="18" ry="18"/>
<text text-anchor="middle" x="704" y="-68.9" font-family="arial" font-size="12.00">Sink</text>
</g>
<!-- 7&#45;&gt;11 -->
<g id="edge13" class="edge"><title>7&#45;&gt;11</title>
<path fill="none" stroke="black" d="M617.34,-117.799C633.674,-109.065 659.751,-95.1234 678.847,-84.9137"/>
<polygon fill="black" stroke="black" points="680.678,-87.9032 687.847,-80.1017 677.378,-81.7301 680.678,-87.9032"/>
<text text-anchor="middle" x="652.5" y="-109.4" font-family="arial" font-size="12.00">0.833</text>
</g>
<!-- 8&#45;&gt;11 -->
<g id="edge12" class="edge"><title>8&#45;&gt;11</title>
<path fill="none" stroke="black" d="M619.133,-72C634.586,-72 657.584,-72 675.591,-72"/>
<polygon fill="black" stroke="black" points="675.783,-75.5001 685.783,-72 675.783,-68.5001 675.783,-75.5001"/>
<text text-anchor="middle" x="652.5" y="-75.4" font-family="arial" font-size="12.00">0.25</text>
</g>
<!-- 9&#45;&gt;11 -->
<g id="edge11" class="edge"><title>9&#45;&gt;11</title>
<path fill="none" stroke="black" d="M617.34,-26.2014C633.674,-34.9346 659.751,-48.8766 678.847,-59.0863"/>
<polygon fill="black" stroke="black" points="677.378,-62.2699 687.847,-63.8983 680.678,-56.0968 677.378,-62.2699"/>
<text text-anchor="middle" x="652.5" y="-56.4" font-family="arial" font-size="12.00">0.833</text>
</g>
<!-- 10 -->
<g id="node10" class="node"><title>10</title>
<ellipse fill="forestgreen" stroke="black" cx="18" cy="-65" rx="18" ry="18"/>
<text text-anchor="middle" x="18" y="-62.5" font-family="arial" font-size="10.00">Source</text>
</g>
<!-- 10&#45;&gt;1 -->
<g id="edge10" class="edge"><title>10&#45;&gt;1</title>
<path fill="none" stroke="black" d="M36.1884,-65C48.3426,-65 64.8865,-65 78.8185,-65"/>
<polygon fill="black" stroke="black" points="78.8473,-68.5001 88.8473,-65 78.8473,-61.5001 78.8473,-68.5001"/>
<text text-anchor="middle" x="62.5" y="-68.4" font-family="arial" font-size="12.00">1.0</text>
</g>
</g>
</svg>
