<?xml version="1.0" encoding="UTF-8" standalone="no"?>
<!DOCTYPE svg PUBLIC "-//W3C//DTD SVG 1.1//EN"
 "http://www.w3.org/Graphics/SVG/1.1/DTD/svg11.dtd">
<!-- Generated by graphviz version 2.38.0 (20140413.2041)
 -->
<!-- Title: %3 Pages: 1 -->
<svg width="716pt" height="123pt"
 viewBox="0.00 0.00 716.00 123.00" xmlns="http://www.w3.org/2000/svg" xmlns:xlink="http://www.w3.org/1999/xlink">
<g id="graph0" class="graph" transform="scale(1 1) rotate(0) translate(4 119)">
<title>%3</title>
<polygon fill="white" stroke="none" points="-4,4 -4,-119 712,-119 712,4 -4,4"/>
<!-- 1 -->
<g id="node1" class="node"><title>1</title>
<ellipse fill="powderblue" stroke="black" cx="107" cy="-72" rx="18" ry="18"/>
<text text-anchor="middle" x="107" y="-68.9" font-family="arial" font-size="12.00">P0</text>
</g>
<!-- 3 -->
<g id="node3" class="node"><title>3</title>
<ellipse fill="powderblue" stroke="black" cx="196" cy="-47" rx="18" ry="18"/>
<text text-anchor="middle" x="196" y="-43.9" font-family="arial" font-size="12.00">P2</text>
</g>
<!-- 1&#45;&gt;3 -->
<g id="edge1" class="edge"><title>1&#45;&gt;3</title>
<path fill="none" stroke="black" d="M124.774,-67.1797C137.251,-63.5946 154.516,-58.6334 168.805,-54.5274"/>
<polygon fill="black" stroke="black" points="169.928,-57.8464 178.572,-51.7207 167.994,-51.1187 169.928,-57.8464"/>
<text text-anchor="middle" x="151.5" y="-64.4" font-family="arial" font-size="12.00">1.0</text>
</g>
<!-- 2 -->
<g id="node2" class="node"><title>2</title>
<ellipse fill="powderblue" stroke="black" cx="107" cy="-18" rx="18" ry="18"/>
<text text-anchor="middle" x="107" y="-14.9" font-family="arial" font-size="12.00">P1</text>
</g>
<!-- 2&#45;&gt;3 -->
<g id="edge2" class="edge"><title>2&#45;&gt;3</title>
<path fill="none" stroke="black" d="M124.364,-23.4547C136.88,-27.6268 154.387,-33.4623 168.84,-38.28"/>
<polygon fill="black" stroke="black" points="168.116,-41.7278 178.709,-41.5698 170.329,-35.087 168.116,-41.7278"/>
<text text-anchor="middle" x="151.5" y="-38.4" font-family="arial" font-size="12.00">1.5</text>
</g>
<!-- 4 -->
<g id="node4" class="node"><title>4</title>
<ellipse fill="powderblue" stroke="black" cx="285" cy="-79" rx="18" ry="18"/>
<text text-anchor="middle" x="285" y="-75.9" font-family="arial" font-size="12.00">P3</text>
</g>
<!-- 3&#45;&gt;4 -->
<g id="edge3" class="edge"><title>3&#45;&gt;4</title>
<path fill="none" stroke="black" d="M213.364,-53.019C226.002,-57.6673 243.727,-64.1871 258.26,-69.5325"/>
<polygon fill="black" stroke="black" points="257.116,-72.8408 267.709,-73.008 259.532,-66.2711 257.116,-72.8408"/>
<text text-anchor="middle" x="240.5" y="-68.4" font-family="arial" font-size="12.00">2.5</text>
</g>
<!-- 5 -->
<g id="node5" class="node"><title>5</title>
<ellipse fill="powderblue" stroke="black" cx="285" cy="-25" rx="18" ry="18"/>
<text text-anchor="middle" x="285" y="-21.9" font-family="arial" font-size="12.00">P4</text>
</g>
<!-- 3&#45;&gt;5 -->
<g id="edge4" class="edge"><title>3&#45;&gt;5</title>
<path fill="none" stroke="black" d="M213.774,-42.7582C226.171,-39.6234 243.296,-35.293 257.531,-31.6933"/>
<polygon fill="black" stroke="black" points="258.44,-35.0736 267.277,-29.2288 256.724,-28.2872 258.44,-35.0736"/>
<text text-anchor="middle" x="240.5" y="-40.4" font-family="arial" font-size="12.00">0.5</text>
</g>
<!-- 6 -->
<g id="node6" class="node"><title>6</title>
<ellipse fill="powderblue" stroke="black" cx="381" cy="-43" rx="18" ry="18"/>
<text text-anchor="middle" x="381" y="-39.9" font-family="arial" font-size="12.00">P5</text>
</g>
<!-- 4&#45;&gt;6 -->
<g id="edge5" class="edge"><title>4&#45;&gt;6</title>
<path fill="none" stroke="black" d="M301.946,-72.8931C316.26,-67.4109 337.531,-59.2647 354.254,-52.8602"/>
<polygon fill="black" stroke="black" points="355.889,-55.9819 363.976,-49.1369 353.386,-49.4449 355.889,-55.9819"/>
<text text-anchor="middle" x="333" y="-68.4" font-family="arial" font-size="12.00">7.5</text>
</g>
<!-- 7 -->
<g id="node7" class="node"><title>7</title>
<ellipse fill="powderblue" stroke="black" cx="381" cy="-97" rx="18" ry="18"/>
<text text-anchor="middle" x="381" y="-93.9" font-family="arial" font-size="12.00">P6</text>
</g>
<!-- 4&#45;&gt;7 -->
<g id="edge7" class="edge"><title>4&#45;&gt;7</title>
<path fill="none" stroke="black" d="M302.805,-82.218C316.754,-84.8891 336.856,-88.7384 353.05,-91.8393"/>
<polygon fill="black" stroke="black" points="352.543,-95.3059 363.023,-93.7491 353.86,-88.4308 352.543,-95.3059"/>
<text text-anchor="middle" x="333" y="-93.4" font-family="arial" font-size="12.00">2.5</text>
</g>
<!-- 5&#45;&gt;6 -->
<g id="edge6" class="edge"><title>5&#45;&gt;6</title>
<path fill="none" stroke="black" d="M303.028,-23.3619C314.946,-22.6802 331.15,-22.6906 345,-26 348.7,-26.8841 352.466,-28.2018 356.089,-29.7196"/>
<polygon fill="black" stroke="black" points="354.671,-32.9206 365.206,-34.0442 357.671,-26.5961 354.671,-32.9206"/>
<text text-anchor="middle" x="333" y="-29.4" font-family="arial" font-size="12.00">0.25</text>
</g>
<!-- 8 -->
<g id="node8" class="node"><title>8</title>
<ellipse fill="powderblue" stroke="black" cx="484" cy="-72" rx="18" ry="18"/>
<text text-anchor="middle" x="484" y="-68.9" font-family="arial" font-size="12.00">P7</text>
</g>
<!-- 6&#45;&gt;8 -->
<g id="edge8" class="edge"><title>6&#45;&gt;8</title>
<path fill="none" stroke="black" d="M398.678,-47.7888C414.395,-52.3014 438.2,-59.1366 456.513,-64.3949"/>
<polygon fill="black" stroke="black" points="455.72,-67.8084 466.297,-67.2041 457.651,-61.0802 455.72,-67.8084"/>
<text text-anchor="middle" x="432.5" y="-64.4" font-family="arial" font-size="12.00">0.25</text>
</g>
<!-- 7&#45;&gt;8 -->
<g id="edge9" class="edge"><title>7&#45;&gt;8</title>
<path fill="none" stroke="black" d="M398.678,-92.8718C414.395,-88.9815 438.2,-83.0891 456.513,-78.5561"/>
<polygon fill="black" stroke="black" points="457.431,-81.9347 466.297,-76.1344 455.749,-75.1397 457.431,-81.9347"/>
<text text-anchor="middle" x="432.5" y="-91.4" font-family="arial" font-size="12.00">0.625</text>
</g>
<!-- 9 -->
<g id="node9" class="node"><title>9</title>
<ellipse fill="powderblue" stroke="black" cx="587" cy="-72" rx="18" ry="18"/>
<text text-anchor="middle" x="587" y="-68.9" font-family="arial" font-size="12.00">P8</text>
</g>
<!-- 8&#45;&gt;9 -->
<g id="edge10" class="edge"><title>8&#45;&gt;9</title>
<path fill="none" stroke="black" d="M502.133,-72C517.586,-72 540.584,-72 558.591,-72"/>
<polygon fill="black" stroke="black" points="558.783,-75.5001 568.783,-72 558.783,-68.5001 558.783,-75.5001"/>
<text text-anchor="middle" x="535.5" y="-75.4" font-family="arial" font-size="12.00">0.333</text>
</g>
<!-- 11 -->
<g id="node11" class="node"><title>11</title>
<ellipse fill="darksalmon" stroke="black" cx="690" cy="-72" rx="18" ry="18"/>
<text text-anchor="middle" x="690" y="-68.9" font-family="arial" font-size="12.00">Sink</text>
</g>
<!-- 9&#45;&gt;11 -->
<g id="edge13" class="edge"><title>9&#45;&gt;11</title>
<path fill="none" stroke="black" d="M605.133,-72C620.586,-72 643.584,-72 661.591,-72"/>
<polygon fill="black" stroke="black" points="661.783,-75.5001 671.783,-72 661.783,-68.5001 661.783,-75.5001"/>
<text text-anchor="middle" x="638.5" y="-75.4" font-family="arial" font-size="12.00">0.444</text>
</g>
<!-- 10 -->
<g id="node10" class="node"><title>10</title>
<ellipse fill="forestgreen" stroke="black" cx="18" cy="-44" rx="18" ry="18"/>
<text text-anchor="middle" x="18" y="-41.5" font-family="arial" font-size="10.00">Source</text>
</g>
<!-- 10&#45;&gt;1 -->
<g id="edge12" class="edge"><title>10&#45;&gt;1</title>
<path fill="none" stroke="black" d="M35.364,-49.2666C47.8803,-53.2948 65.387,-58.9292 79.84,-63.5807"/>
<polygon fill="black" stroke="black" points="79.1179,-67.025 89.7093,-66.757 81.2625,-60.3616 79.1179,-67.025"/>
<text text-anchor="middle" x="62.5" y="-63.4" font-family="arial" font-size="12.00">1.0</text>
</g>
<!-- 10&#45;&gt;2 -->
<g id="edge11" class="edge"><title>10&#45;&gt;2</title>
<path fill="none" stroke="black" d="M35.3072,-38.1545C41.1726,-36.1195 47.857,-33.8777 54,-32 62.1725,-29.5019 71.1384,-27.0029 79.2891,-24.8221"/>
<polygon fill="black" stroke="black" points="80.2752,-28.1819 89.0564,-22.254 78.4951,-21.412 80.2752,-28.1819"/>
<text text-anchor="middle" x="62.5" y="-35.4" font-family="arial" font-size="12.00">1.0</text>
</g>
</g>
</svg>
