<?xml version="1.0" encoding="UTF-8" standalone="no"?>
<!DOCTYPE svg PUBLIC "-//W3C//DTD SVG 1.1//EN"
 "http://www.w3.org/Graphics/SVG/1.1/DTD/svg11.dtd">
<!-- Generated by graphviz version 2.38.0 (20140413.2041)
 -->
<!-- Title: %3 Pages: 1 -->
<svg width="695pt" height="112pt"
 viewBox="0.00 0.00 695.00 112.00" xmlns="http://www.w3.org/2000/svg" xmlns:xlink="http://www.w3.org/1999/xlink">
<g id="graph0" class="graph" transform="scale(1 1) rotate(0) translate(4 108)">
<title>%3</title>
<polygon fill="white" stroke="none" points="-4,4 -4,-108 691,-108 691,4 -4,4"/>
<!-- 1 -->
<g id="node1" class="node"><title>1</title>
<ellipse fill="powderblue" stroke="black" cx="107" cy="-72" rx="18" ry="18"/>
<text text-anchor="middle" x="107" y="-68.9" font-family="arial" font-size="12.00">P0</text>
</g>
<!-- 3 -->
<g id="node3" class="node"><title>3</title>
<ellipse fill="powderblue" stroke="black" cx="196" cy="-47" rx="18" ry="18"/>
<text text-anchor="middle" x="196" y="-43.9" font-family="arial" font-size="12.00">P2</text>
</g>
<!-- 1&#45;&gt;3 -->
<g id="edge1" class="edge"><title>1&#45;&gt;3</title>
<path fill="none" stroke="black" d="M124.774,-67.1797C137.251,-63.5946 154.516,-58.6334 168.805,-54.5274"/>
<polygon fill="black" stroke="black" points="169.928,-57.8464 178.572,-51.7207 167.994,-51.1187 169.928,-57.8464"/>
<text text-anchor="middle" x="151.5" y="-64.4" font-family="arial" font-size="12.00">1.0</text>
</g>
<!-- 2 -->
<g id="node2" class="node"><title>2</title>
<ellipse fill="powderblue" stroke="black" cx="107" cy="-18" rx="18" ry="18"/>
<text text-anchor="middle" x="107" y="-14.9" font-family="arial" font-size="12.00">P1</text>
</g>
<!-- 2&#45;&gt;3 -->
<g id="edge2" class="edge"><title>2&#45;&gt;3</title>
<path fill="none" stroke="black" d="M124.364,-23.4547C136.88,-27.6268 154.387,-33.4623 168.84,-38.28"/>
<polygon fill="black" stroke="black" points="168.116,-41.7278 178.709,-41.5698 170.329,-35.087 168.116,-41.7278"/>
<text text-anchor="middle" x="151.5" y="-38.4" font-family="arial" font-size="12.00">1.0</text>
</g>
<!-- 4 -->
<g id="node4" class="node"><title>4</title>
<ellipse fill="powderblue" stroke="black" cx="292" cy="-79" rx="18" ry="18"/>
<text text-anchor="middle" x="292" y="-75.9" font-family="arial" font-size="12.00">P3</text>
</g>
<!-- 3&#45;&gt;4 -->
<g id="edge3" class="edge"><title>3&#45;&gt;4</title>
<path fill="none" stroke="black" d="M213.374,-52.574C227.661,-57.4379 248.637,-64.5786 265.183,-70.2114"/>
<polygon fill="black" stroke="black" points="264.22,-73.5805 274.814,-73.4899 266.476,-66.9539 264.22,-73.5805"/>
<text text-anchor="middle" x="244" y="-69.4" font-family="arial" font-size="12.00">1.0</text>
</g>
<!-- 5 -->
<g id="node5" class="node"><title>5</title>
<ellipse fill="powderblue" stroke="black" cx="292" cy="-25" rx="18" ry="18"/>
<text text-anchor="middle" x="292" y="-21.9" font-family="arial" font-size="12.00">P4</text>
</g>
<!-- 3&#45;&gt;5 -->
<g id="edge4" class="edge"><title>3&#45;&gt;5</title>
<path fill="none" stroke="black" d="M213.805,-43.0668C227.841,-39.782 248.106,-35.039 264.351,-31.237"/>
<polygon fill="black" stroke="black" points="265.401,-34.5859 274.34,-28.8991 263.806,-27.7701 265.401,-34.5859"/>
<text text-anchor="middle" x="244" y="-41.4" font-family="arial" font-size="12.00">1.25</text>
</g>
<!-- 6 -->
<g id="node6" class="node"><title>6</title>
<ellipse fill="powderblue" stroke="black" cx="395" cy="-54" rx="18" ry="18"/>
<text text-anchor="middle" x="395" y="-50.9" font-family="arial" font-size="12.00">P5</text>
</g>
<!-- 4&#45;&gt;6 -->
<g id="edge5" class="edge"><title>4&#45;&gt;6</title>
<path fill="none" stroke="black" d="M309.678,-74.8718C325.395,-70.9815 349.2,-65.0891 367.513,-60.5561"/>
<polygon fill="black" stroke="black" points="368.431,-63.9347 377.297,-58.1344 366.749,-57.1397 368.431,-63.9347"/>
<text text-anchor="middle" x="343.5" y="-73.4" font-family="arial" font-size="12.00">0.4</text>
</g>
<!-- 5&#45;&gt;6 -->
<g id="edge6" class="edge"><title>5&#45;&gt;6</title>
<path fill="none" stroke="black" d="M309.678,-29.7888C325.395,-34.3014 349.2,-41.1366 367.513,-46.3949"/>
<polygon fill="black" stroke="black" points="366.72,-49.8084 377.297,-49.2041 368.651,-43.0802 366.72,-49.8084"/>
<text text-anchor="middle" x="343.5" y="-46.4" font-family="arial" font-size="12.00">0.625</text>
</g>
<!-- 7 -->
<g id="node7" class="node"><title>7</title>
<ellipse fill="powderblue" stroke="black" cx="484" cy="-54" rx="18" ry="18"/>
<text text-anchor="middle" x="484" y="-50.9" font-family="arial" font-size="12.00">P6</text>
</g>
<!-- 6&#45;&gt;7 -->
<g id="edge7" class="edge"><title>6&#45;&gt;7</title>
<path fill="none" stroke="black" d="M413.188,-54C425.343,-54 441.886,-54 455.818,-54"/>
<polygon fill="black" stroke="black" points="455.847,-57.5001 465.847,-54 455.847,-50.5001 455.847,-57.5001"/>
<text text-anchor="middle" x="439.5" y="-57.4" font-family="arial" font-size="12.00">0.2</text>
</g>
<!-- 8 -->
<g id="node8" class="node"><title>8</title>
<ellipse fill="powderblue" stroke="black" cx="580" cy="-86" rx="18" ry="18"/>
<text text-anchor="middle" x="580" y="-82.9" font-family="arial" font-size="12.00">P7</text>
</g>
<!-- 7&#45;&gt;8 -->
<g id="edge8" class="edge"><title>7&#45;&gt;8</title>
<path fill="none" stroke="black" d="M501.374,-59.574C515.661,-64.4379 536.637,-71.5786 553.183,-77.2114"/>
<polygon fill="black" stroke="black" points="552.22,-80.5805 562.814,-80.4899 554.476,-73.9539 552.22,-80.5805"/>
<text text-anchor="middle" x="532" y="-76.4" font-family="arial" font-size="12.00">0.15</text>
</g>
<!-- 9 -->
<g id="node9" class="node"><title>9</title>
<ellipse fill="powderblue" stroke="black" cx="580" cy="-32" rx="18" ry="18"/>
<text text-anchor="middle" x="580" y="-28.9" font-family="arial" font-size="12.00">P8</text>
</g>
<!-- 7&#45;&gt;9 -->
<g id="edge9" class="edge"><title>7&#45;&gt;9</title>
<path fill="none" stroke="black" d="M501.805,-50.0668C515.841,-46.782 536.106,-42.039 552.351,-38.237"/>
<polygon fill="black" stroke="black" points="553.401,-41.5859 562.34,-35.8991 551.806,-34.7701 553.401,-41.5859"/>
<text text-anchor="middle" x="532" y="-48.4" font-family="arial" font-size="12.00">0.6</text>
</g>
<!-- 11 -->
<g id="node11" class="node"><title>11</title>
<ellipse fill="darksalmon" stroke="black" cx="669" cy="-61" rx="18" ry="18"/>
<text text-anchor="middle" x="669" y="-57.9" font-family="arial" font-size="12.00">Sink</text>
</g>
<!-- 8&#45;&gt;11 -->
<g id="edge13" class="edge"><title>8&#45;&gt;11</title>
<path fill="none" stroke="black" d="M597.774,-81.1797C610.251,-77.5946 627.516,-72.6334 641.805,-68.5274"/>
<polygon fill="black" stroke="black" points="642.928,-71.8464 651.572,-65.7207 640.994,-65.1187 642.928,-71.8464"/>
<text text-anchor="middle" x="624.5" y="-78.4" font-family="arial" font-size="12.00">0.3</text>
</g>
<!-- 9&#45;&gt;11 -->
<g id="edge12" class="edge"><title>9&#45;&gt;11</title>
<path fill="none" stroke="black" d="M597.364,-37.4547C609.88,-41.6268 627.387,-47.4623 641.84,-52.28"/>
<polygon fill="black" stroke="black" points="641.116,-55.7278 651.709,-55.5698 643.329,-49.087 641.116,-55.7278"/>
<text text-anchor="middle" x="624.5" y="-52.4" font-family="arial" font-size="12.00">2.4</text>
</g>
<!-- 10 -->
<g id="node10" class="node"><title>10</title>
<ellipse fill="forestgreen" stroke="black" cx="18" cy="-44" rx="18" ry="18"/>
<text text-anchor="middle" x="18" y="-41.5" font-family="arial" font-size="10.00">Source</text>
</g>
<!-- 10&#45;&gt;1 -->
<g id="edge11" class="edge"><title>10&#45;&gt;1</title>
<path fill="none" stroke="black" d="M35.364,-49.2666C47.8803,-53.2948 65.387,-58.9292 79.84,-63.5807"/>
<polygon fill="black" stroke="black" points="79.1179,-67.025 89.7093,-66.757 81.2625,-60.3616 79.1179,-67.025"/>
<text text-anchor="middle" x="62.5" y="-63.4" font-family="arial" font-size="12.00">1.0</text>
</g>
<!-- 10&#45;&gt;2 -->
<g id="edge10" class="edge"><title>10&#45;&gt;2</title>
<path fill="none" stroke="black" d="M35.3072,-38.1545C41.1726,-36.1195 47.857,-33.8777 54,-32 62.1725,-29.5019 71.1384,-27.0029 79.2891,-24.8221"/>
<polygon fill="black" stroke="black" points="80.2752,-28.1819 89.0564,-22.254 78.4951,-21.412 80.2752,-28.1819"/>
<text text-anchor="middle" x="62.5" y="-35.4" font-family="arial" font-size="12.00">1.0</text>
</g>
</g>
</svg>
