<?xml version="1.0" encoding="UTF-8" standalone="no"?>
<!DOCTYPE svg PUBLIC "-//W3C//DTD SVG 1.1//EN"
 "http://www.w3.org/Graphics/SVG/1.1/DTD/svg11.dtd">
<!-- Generated by graphviz version 2.38.0 (20140413.2041)
 -->
<!-- Title: %3 Pages: 1 -->
<svg width="777pt" height="105pt"
 viewBox="0.00 0.00 777.00 105.00" xmlns="http://www.w3.org/2000/svg" xmlns:xlink="http://www.w3.org/1999/xlink">
<g id="graph0" class="graph" transform="scale(1 1) rotate(0) translate(4 101)">
<title>%3</title>
<polygon fill="white" stroke="none" points="-4,4 -4,-101 773,-101 773,4 -4,4"/>
<!-- 1 -->
<g id="node1" class="node"><title>1</title>
<ellipse fill="powderblue" stroke="black" cx="107" cy="-40" rx="18" ry="18"/>
<text text-anchor="middle" x="107" y="-36.9" font-family="arial" font-size="12.00">P0</text>
</g>
<!-- 2 -->
<g id="node2" class="node"><title>2</title>
<ellipse fill="powderblue" stroke="black" cx="210" cy="-72" rx="18" ry="18"/>
<text text-anchor="middle" x="210" y="-68.9" font-family="arial" font-size="12.00">P1</text>
</g>
<!-- 1&#45;&gt;2 -->
<g id="edge1" class="edge"><title>1&#45;&gt;2</title>
<path fill="none" stroke="black" d="M124.678,-45.2841C140.562,-50.3168 164.709,-57.9671 183.098,-63.7933"/>
<polygon fill="black" stroke="black" points="182.042,-67.1303 192.632,-66.8142 184.156,-60.4572 182.042,-67.1303"/>
<text text-anchor="middle" x="158.5" y="-63.4" font-family="arial" font-size="12.00">0.333</text>
</g>
<!-- 3 -->
<g id="node3" class="node"><title>3</title>
<ellipse fill="powderblue" stroke="black" cx="210" cy="-18" rx="18" ry="18"/>
<text text-anchor="middle" x="210" y="-14.9" font-family="arial" font-size="12.00">P2</text>
</g>
<!-- 1&#45;&gt;3 -->
<g id="edge2" class="edge"><title>1&#45;&gt;3</title>
<path fill="none" stroke="black" d="M124.723,-36.1215C130.507,-34.7948 137.035,-33.3144 143,-32 155.917,-29.154 170.28,-26.0947 182.301,-23.5641"/>
<polygon fill="black" stroke="black" points="183.097,-26.9733 192.166,-21.495 181.66,-20.1224 183.097,-26.9733"/>
<text text-anchor="middle" x="158.5" y="-35.4" font-family="arial" font-size="12.00">4.0</text>
</g>
<!-- 4 -->
<g id="node4" class="node"><title>4</title>
<ellipse fill="powderblue" stroke="black" cx="299" cy="-47" rx="18" ry="18"/>
<text text-anchor="middle" x="299" y="-43.9" font-family="arial" font-size="12.00">P3</text>
</g>
<!-- 2&#45;&gt;4 -->
<g id="edge3" class="edge"><title>2&#45;&gt;4</title>
<path fill="none" stroke="black" d="M227.774,-67.1797C240.251,-63.5946 257.516,-58.6334 271.805,-54.5274"/>
<polygon fill="black" stroke="black" points="272.928,-57.8464 281.572,-51.7207 270.994,-51.1187 272.928,-57.8464"/>
<text text-anchor="middle" x="254.5" y="-64.4" font-family="arial" font-size="12.00">1.0</text>
</g>
<!-- 3&#45;&gt;4 -->
<g id="edge4" class="edge"><title>3&#45;&gt;4</title>
<path fill="none" stroke="black" d="M227.364,-23.4547C239.88,-27.6268 257.387,-33.4623 271.84,-38.28"/>
<polygon fill="black" stroke="black" points="271.116,-41.7278 281.709,-41.5698 273.329,-35.087 271.116,-41.7278"/>
<text text-anchor="middle" x="254.5" y="-39.4" font-family="arial" font-size="12.00">4.0</text>
</g>
<!-- 5 -->
<g id="node5" class="node"><title>5</title>
<ellipse fill="powderblue" stroke="black" cx="388" cy="-47" rx="18" ry="18"/>
<text text-anchor="middle" x="388" y="-43.9" font-family="arial" font-size="12.00">P4</text>
</g>
<!-- 4&#45;&gt;5 -->
<g id="edge5" class="edge"><title>4&#45;&gt;5</title>
<path fill="none" stroke="black" d="M317.188,-47C329.343,-47 345.886,-47 359.818,-47"/>
<polygon fill="black" stroke="black" points="359.847,-50.5001 369.847,-47 359.847,-43.5001 359.847,-50.5001"/>
<text text-anchor="middle" x="343.5" y="-50.4" font-family="arial" font-size="12.00">1.5</text>
</g>
<!-- 6 -->
<g id="node6" class="node"><title>6</title>
<ellipse fill="powderblue" stroke="black" cx="477" cy="-79" rx="18" ry="18"/>
<text text-anchor="middle" x="477" y="-75.9" font-family="arial" font-size="12.00">P5</text>
</g>
<!-- 5&#45;&gt;6 -->
<g id="edge6" class="edge"><title>5&#45;&gt;6</title>
<path fill="none" stroke="black" d="M405.364,-53.019C418.002,-57.6673 435.727,-64.1871 450.26,-69.5325"/>
<polygon fill="black" stroke="black" points="449.116,-72.8408 459.709,-73.008 451.532,-66.2711 449.116,-72.8408"/>
<text text-anchor="middle" x="432.5" y="-68.4" font-family="arial" font-size="12.00">3.0</text>
</g>
<!-- 7 -->
<g id="node7" class="node"><title>7</title>
<ellipse fill="powderblue" stroke="black" cx="477" cy="-25" rx="18" ry="18"/>
<text text-anchor="middle" x="477" y="-21.9" font-family="arial" font-size="12.00">P6</text>
</g>
<!-- 5&#45;&gt;7 -->
<g id="edge7" class="edge"><title>5&#45;&gt;7</title>
<path fill="none" stroke="black" d="M405.774,-42.7582C418.171,-39.6234 435.296,-35.293 449.531,-31.6933"/>
<polygon fill="black" stroke="black" points="450.44,-35.0736 459.277,-29.2288 448.724,-28.2872 450.44,-35.0736"/>
<text text-anchor="middle" x="432.5" y="-41.4" font-family="arial" font-size="12.00">3.0</text>
</g>
<!-- 8 -->
<g id="node8" class="node"><title>8</title>
<ellipse fill="powderblue" stroke="black" cx="573" cy="-54" rx="18" ry="18"/>
<text text-anchor="middle" x="573" y="-50.9" font-family="arial" font-size="12.00">P7</text>
</g>
<!-- 6&#45;&gt;8 -->
<g id="edge8" class="edge"><title>6&#45;&gt;8</title>
<path fill="none" stroke="black" d="M494.805,-74.5305C508.841,-70.7977 529.106,-65.408 545.351,-61.0874"/>
<polygon fill="black" stroke="black" points="546.576,-64.3835 555.34,-58.4308 544.777,-57.6187 546.576,-64.3835"/>
<text text-anchor="middle" x="525" y="-72.4" font-family="arial" font-size="12.00">15.0</text>
</g>
<!-- 7&#45;&gt;8 -->
<g id="edge9" class="edge"><title>7&#45;&gt;8</title>
<path fill="none" stroke="black" d="M494.374,-30.0514C508.574,-34.4324 529.382,-40.8517 545.88,-45.9418"/>
<polygon fill="black" stroke="black" points="544.911,-49.3056 555.499,-48.9092 546.975,-42.6166 544.911,-49.3056"/>
<text text-anchor="middle" x="525" y="-45.4" font-family="arial" font-size="12.00">1.0</text>
</g>
<!-- 9 -->
<g id="node9" class="node"><title>9</title>
<ellipse fill="powderblue" stroke="black" cx="662" cy="-54" rx="18" ry="18"/>
<text text-anchor="middle" x="662" y="-50.9" font-family="arial" font-size="12.00">P8</text>
</g>
<!-- 8&#45;&gt;9 -->
<g id="edge10" class="edge"><title>8&#45;&gt;9</title>
<path fill="none" stroke="black" d="M591.188,-54C603.343,-54 619.886,-54 633.818,-54"/>
<polygon fill="black" stroke="black" points="633.847,-57.5001 643.847,-54 633.847,-50.5001 633.847,-57.5001"/>
<text text-anchor="middle" x="617.5" y="-57.4" font-family="arial" font-size="12.00">4.0</text>
</g>
<!-- 11 -->
<g id="node11" class="node"><title>11</title>
<ellipse fill="darksalmon" stroke="black" cx="751" cy="-54" rx="18" ry="18"/>
<text text-anchor="middle" x="751" y="-50.9" font-family="arial" font-size="12.00">Sink</text>
</g>
<!-- 9&#45;&gt;11 -->
<g id="edge12" class="edge"><title>9&#45;&gt;11</title>
<path fill="none" stroke="black" d="M680.188,-54C692.343,-54 708.886,-54 722.818,-54"/>
<polygon fill="black" stroke="black" points="722.847,-57.5001 732.847,-54 722.847,-50.5001 722.847,-57.5001"/>
<text text-anchor="middle" x="706.5" y="-57.4" font-family="arial" font-size="12.00">4.0</text>
</g>
<!-- 10 -->
<g id="node10" class="node"><title>10</title>
<ellipse fill="forestgreen" stroke="black" cx="18" cy="-40" rx="18" ry="18"/>
<text text-anchor="middle" x="18" y="-37.5" font-family="arial" font-size="10.00">Source</text>
</g>
<!-- 10&#45;&gt;1 -->
<g id="edge11" class="edge"><title>10&#45;&gt;1</title>
<path fill="none" stroke="black" d="M36.1884,-40C48.3426,-40 64.8865,-40 78.8185,-40"/>
<polygon fill="black" stroke="black" points="78.8473,-43.5001 88.8473,-40 78.8473,-36.5001 78.8473,-43.5001"/>
<text text-anchor="middle" x="62.5" y="-43.4" font-family="arial" font-size="12.00">1.0</text>
</g>
</g>
</svg>
