<?xml version="1.0" encoding="UTF-8" standalone="no"?>
<!DOCTYPE svg PUBLIC "-//W3C//DTD SVG 1.1//EN"
 "http://www.w3.org/Graphics/SVG/1.1/DTD/svg11.dtd">
<!-- Generated by graphviz version 2.38.0 (20140413.2041)
 -->
<!-- Title: %3 Pages: 1 -->
<svg width="846pt" height="105pt"
 viewBox="0.00 0.00 846.00 105.00" xmlns="http://www.w3.org/2000/svg" xmlns:xlink="http://www.w3.org/1999/xlink">
<g id="graph0" class="graph" transform="scale(1 1) rotate(0) translate(4 101)">
<title>%3</title>
<polygon fill="white" stroke="none" points="-4,4 -4,-101 842,-101 842,4 -4,4"/>
<!-- 1 -->
<g id="node1" class="node"><title>1</title>
<ellipse fill="powderblue" stroke="black" cx="107" cy="-72" rx="18" ry="18"/>
<text text-anchor="middle" x="107" y="-68.9" font-family="arial" font-size="12.00">P0</text>
</g>
<!-- 3 -->
<g id="node3" class="node"><title>3</title>
<ellipse fill="powderblue" stroke="black" cx="203" cy="-47" rx="18" ry="18"/>
<text text-anchor="middle" x="203" y="-43.9" font-family="arial" font-size="12.00">P2</text>
</g>
<!-- 1&#45;&gt;3 -->
<g id="edge1" class="edge"><title>1&#45;&gt;3</title>
<path fill="none" stroke="black" d="M124.805,-67.5305C138.841,-63.7977 159.106,-58.408 175.351,-54.0874"/>
<polygon fill="black" stroke="black" points="176.576,-57.3835 185.34,-51.4308 174.777,-50.6187 176.576,-57.3835"/>
<text text-anchor="middle" x="155" y="-65.4" font-family="arial" font-size="12.00">2.0</text>
</g>
<!-- 2 -->
<g id="node2" class="node"><title>2</title>
<ellipse fill="powderblue" stroke="black" cx="107" cy="-18" rx="18" ry="18"/>
<text text-anchor="middle" x="107" y="-14.9" font-family="arial" font-size="12.00">P1</text>
</g>
<!-- 2&#45;&gt;3 -->
<g id="edge2" class="edge"><title>2&#45;&gt;3</title>
<path fill="none" stroke="black" d="M124.374,-23.0514C138.574,-27.4324 159.382,-33.8517 175.88,-38.9418"/>
<polygon fill="black" stroke="black" points="174.911,-42.3056 185.499,-41.9092 176.975,-35.6166 174.911,-42.3056"/>
<text text-anchor="middle" x="155" y="-38.4" font-family="arial" font-size="12.00">1.33</text>
</g>
<!-- 4 -->
<g id="node4" class="node"><title>4</title>
<ellipse fill="powderblue" stroke="black" cx="299" cy="-47" rx="18" ry="18"/>
<text text-anchor="middle" x="299" y="-43.9" font-family="arial" font-size="12.00">P3</text>
</g>
<!-- 3&#45;&gt;4 -->
<g id="edge3" class="edge"><title>3&#45;&gt;4</title>
<path fill="none" stroke="black" d="M221.241,-47C235.022,-47 254.6,-47 270.535,-47"/>
<polygon fill="black" stroke="black" points="270.868,-50.5001 280.868,-47 270.868,-43.5001 270.868,-50.5001"/>
<text text-anchor="middle" x="251" y="-50.4" font-family="arial" font-size="12.00">1.78</text>
</g>
<!-- 5 -->
<g id="node5" class="node"><title>5</title>
<ellipse fill="powderblue" stroke="black" cx="402" cy="-47" rx="18" ry="18"/>
<text text-anchor="middle" x="402" y="-43.9" font-family="arial" font-size="12.00">P4</text>
</g>
<!-- 4&#45;&gt;5 -->
<g id="edge4" class="edge"><title>4&#45;&gt;5</title>
<path fill="none" stroke="black" d="M317.133,-47C332.586,-47 355.584,-47 373.591,-47"/>
<polygon fill="black" stroke="black" points="373.783,-50.5001 383.783,-47 373.783,-43.5001 373.783,-50.5001"/>
<text text-anchor="middle" x="350.5" y="-50.4" font-family="arial" font-size="12.00">0.593</text>
</g>
<!-- 6 -->
<g id="node6" class="node"><title>6</title>
<ellipse fill="powderblue" stroke="black" cx="505" cy="-79" rx="18" ry="18"/>
<text text-anchor="middle" x="505" y="-75.9" font-family="arial" font-size="12.00">P5</text>
</g>
<!-- 5&#45;&gt;6 -->
<g id="edge5" class="edge"><title>5&#45;&gt;6</title>
<path fill="none" stroke="black" d="M419.678,-52.2841C435.562,-57.3168 459.709,-64.9671 478.098,-70.7933"/>
<polygon fill="black" stroke="black" points="477.042,-74.1303 487.632,-73.8142 479.156,-67.4572 477.042,-74.1303"/>
<text text-anchor="middle" x="453.5" y="-70.4" font-family="arial" font-size="12.00">0.395</text>
</g>
<!-- 7 -->
<g id="node7" class="node"><title>7</title>
<ellipse fill="powderblue" stroke="black" cx="505" cy="-25" rx="18" ry="18"/>
<text text-anchor="middle" x="505" y="-21.9" font-family="arial" font-size="12.00">P6</text>
</g>
<!-- 5&#45;&gt;7 -->
<g id="edge6" class="edge"><title>5&#45;&gt;7</title>
<path fill="none" stroke="black" d="M419.723,-43.1215C425.507,-41.7948 432.035,-40.3144 438,-39 450.917,-36.154 465.28,-33.0947 477.301,-30.5641"/>
<polygon fill="black" stroke="black" points="478.097,-33.9733 487.166,-28.495 476.66,-27.1224 478.097,-33.9733"/>
<text text-anchor="middle" x="453.5" y="-42.4" font-family="arial" font-size="12.00">0.593</text>
</g>
<!-- 8 -->
<g id="node8" class="node"><title>8</title>
<ellipse fill="powderblue" stroke="black" cx="608" cy="-54" rx="18" ry="18"/>
<text text-anchor="middle" x="608" y="-50.9" font-family="arial" font-size="12.00">P7</text>
</g>
<!-- 6&#45;&gt;8 -->
<g id="edge7" class="edge"><title>6&#45;&gt;8</title>
<path fill="none" stroke="black" d="M522.678,-74.8718C538.395,-70.9815 562.2,-65.0891 580.513,-60.5561"/>
<polygon fill="black" stroke="black" points="581.431,-63.9347 590.297,-58.1344 579.749,-57.1397 581.431,-63.9347"/>
<text text-anchor="middle" x="556.5" y="-73.4" font-family="arial" font-size="12.00">0.296</text>
</g>
<!-- 7&#45;&gt;8 -->
<g id="edge8" class="edge"><title>7&#45;&gt;8</title>
<path fill="none" stroke="black" d="M522.678,-29.7888C538.395,-34.3014 562.2,-41.1366 580.513,-46.3949"/>
<polygon fill="black" stroke="black" points="579.72,-49.8084 590.297,-49.2041 581.651,-43.0802 579.72,-49.8084"/>
<text text-anchor="middle" x="556.5" y="-46.4" font-family="arial" font-size="12.00">0.395</text>
</g>
<!-- 9 -->
<g id="node9" class="node"><title>9</title>
<ellipse fill="powderblue" stroke="black" cx="711" cy="-54" rx="18" ry="18"/>
<text text-anchor="middle" x="711" y="-50.9" font-family="arial" font-size="12.00">P8</text>
</g>
<!-- 8&#45;&gt;9 -->
<g id="edge9" class="edge"><title>8&#45;&gt;9</title>
<path fill="none" stroke="black" d="M626.133,-54C641.586,-54 664.584,-54 682.591,-54"/>
<polygon fill="black" stroke="black" points="682.783,-57.5001 692.783,-54 682.783,-50.5001 682.783,-57.5001"/>
<text text-anchor="middle" x="659.5" y="-57.4" font-family="arial" font-size="12.00">0.296</text>
</g>
<!-- 11 -->
<g id="node11" class="node"><title>11</title>
<ellipse fill="darksalmon" stroke="black" cx="820" cy="-54" rx="18" ry="18"/>
<text text-anchor="middle" x="820" y="-50.9" font-family="arial" font-size="12.00">Sink</text>
</g>
<!-- 9&#45;&gt;11 -->
<g id="edge12" class="edge"><title>9&#45;&gt;11</title>
<path fill="none" stroke="black" d="M729.191,-54C746.039,-54 771.982,-54 791.661,-54"/>
<polygon fill="black" stroke="black" points="791.851,-57.5001 801.851,-54 791.851,-50.5001 791.851,-57.5001"/>
<text text-anchor="middle" x="765.5" y="-57.4" font-family="arial" font-size="12.00">0.0988</text>
</g>
<!-- 10 -->
<g id="node10" class="node"><title>10</title>
<ellipse fill="forestgreen" stroke="black" cx="18" cy="-44" rx="18" ry="18"/>
<text text-anchor="middle" x="18" y="-41.5" font-family="arial" font-size="10.00">Source</text>
</g>
<!-- 10&#45;&gt;1 -->
<g id="edge11" class="edge"><title>10&#45;&gt;1</title>
<path fill="none" stroke="black" d="M35.364,-49.2666C47.8803,-53.2948 65.387,-58.9292 79.84,-63.5807"/>
<polygon fill="black" stroke="black" points="79.1179,-67.025 89.7093,-66.757 81.2625,-60.3616 79.1179,-67.025"/>
<text text-anchor="middle" x="62.5" y="-63.4" font-family="arial" font-size="12.00">1.0</text>
</g>
<!-- 10&#45;&gt;2 -->
<g id="edge10" class="edge"><title>10&#45;&gt;2</title>
<path fill="none" stroke="black" d="M35.3072,-38.1545C41.1726,-36.1195 47.857,-33.8777 54,-32 62.1725,-29.5019 71.1384,-27.0029 79.2891,-24.8221"/>
<polygon fill="black" stroke="black" points="80.2752,-28.1819 89.0564,-22.254 78.4951,-21.412 80.2752,-28.1819"/>
<text text-anchor="middle" x="62.5" y="-35.4" font-family="arial" font-size="12.00">1.0</text>
</g>
</g>
</svg>
