<?xml version="1.0" encoding="UTF-8" standalone="no"?>
<!DOCTYPE svg PUBLIC "-//W3C//DTD SVG 1.1//EN"
 "http://www.w3.org/Graphics/SVG/1.1/DTD/svg11.dtd">
<!-- Generated by graphviz version 2.38.0 (20140413.2041)
 -->
<!-- Title: %3 Pages: 1 -->
<svg width="854pt" height="105pt"
 viewBox="0.00 0.00 854.00 105.00" xmlns="http://www.w3.org/2000/svg" xmlns:xlink="http://www.w3.org/1999/xlink">
<g id="graph0" class="graph" transform="scale(1 1) rotate(0) translate(4 101)">
<title>%3</title>
<polygon fill="white" stroke="none" points="-4,4 -4,-101 850,-101 850,4 -4,4"/>
<!-- 1 -->
<g id="node1" class="node"><title>1</title>
<ellipse fill="powderblue" stroke="black" cx="107" cy="-40" rx="18" ry="18"/>
<text text-anchor="middle" x="107" y="-36.9" font-family="arial" font-size="12.00">P0</text>
</g>
<!-- 2 -->
<g id="node2" class="node"><title>2</title>
<ellipse fill="powderblue" stroke="black" cx="210" cy="-40" rx="18" ry="18"/>
<text text-anchor="middle" x="210" y="-36.9" font-family="arial" font-size="12.00">P1</text>
</g>
<!-- 1&#45;&gt;2 -->
<g id="edge1" class="edge"><title>1&#45;&gt;2</title>
<path fill="none" stroke="black" d="M125.133,-40C140.586,-40 163.584,-40 181.591,-40"/>
<polygon fill="black" stroke="black" points="181.783,-43.5001 191.783,-40 181.783,-36.5001 181.783,-43.5001"/>
<text text-anchor="middle" x="158.5" y="-43.4" font-family="arial" font-size="12.00">0.333</text>
</g>
<!-- 3 -->
<g id="node3" class="node"><title>3</title>
<ellipse fill="powderblue" stroke="black" cx="313" cy="-72" rx="18" ry="18"/>
<text text-anchor="middle" x="313" y="-68.9" font-family="arial" font-size="12.00">P2</text>
</g>
<!-- 2&#45;&gt;3 -->
<g id="edge2" class="edge"><title>2&#45;&gt;3</title>
<path fill="none" stroke="black" d="M227.678,-45.2841C243.562,-50.3168 267.709,-57.9671 286.098,-63.7933"/>
<polygon fill="black" stroke="black" points="285.042,-67.1303 295.632,-66.8142 287.156,-60.4572 285.042,-67.1303"/>
<text text-anchor="middle" x="261.5" y="-63.4" font-family="arial" font-size="12.00">0.333</text>
</g>
<!-- 4 -->
<g id="node4" class="node"><title>4</title>
<ellipse fill="powderblue" stroke="black" cx="313" cy="-18" rx="18" ry="18"/>
<text text-anchor="middle" x="313" y="-14.9" font-family="arial" font-size="12.00">P3</text>
</g>
<!-- 2&#45;&gt;4 -->
<g id="edge3" class="edge"><title>2&#45;&gt;4</title>
<path fill="none" stroke="black" d="M227.723,-36.1215C233.507,-34.7948 240.035,-33.3144 246,-32 258.917,-29.154 273.28,-26.0947 285.301,-23.5641"/>
<polygon fill="black" stroke="black" points="286.097,-26.9733 295.166,-21.495 284.66,-20.1224 286.097,-26.9733"/>
<text text-anchor="middle" x="261.5" y="-35.4" font-family="arial" font-size="12.00">0.167</text>
</g>
<!-- 5 -->
<g id="node5" class="node"><title>5</title>
<ellipse fill="powderblue" stroke="black" cx="416" cy="-47" rx="18" ry="18"/>
<text text-anchor="middle" x="416" y="-43.9" font-family="arial" font-size="12.00">P4</text>
</g>
<!-- 3&#45;&gt;5 -->
<g id="edge4" class="edge"><title>3&#45;&gt;5</title>
<path fill="none" stroke="black" d="M330.678,-67.8718C346.395,-63.9815 370.2,-58.0891 388.513,-53.5561"/>
<polygon fill="black" stroke="black" points="389.431,-56.9347 398.297,-51.1344 387.749,-50.1397 389.431,-56.9347"/>
<text text-anchor="middle" x="364.5" y="-66.4" font-family="arial" font-size="12.00">0.667</text>
</g>
<!-- 4&#45;&gt;5 -->
<g id="edge5" class="edge"><title>4&#45;&gt;5</title>
<path fill="none" stroke="black" d="M330.678,-22.7888C346.395,-27.3014 370.2,-34.1366 388.513,-39.3949"/>
<polygon fill="black" stroke="black" points="387.72,-42.8084 398.297,-42.2041 389.651,-36.0802 387.72,-42.8084"/>
<text text-anchor="middle" x="364.5" y="-40.4" font-family="arial" font-size="12.00">0.222</text>
</g>
<!-- 6 -->
<g id="node6" class="node"><title>6</title>
<ellipse fill="powderblue" stroke="black" cx="519" cy="-79" rx="18" ry="18"/>
<text text-anchor="middle" x="519" y="-75.9" font-family="arial" font-size="12.00">P5</text>
</g>
<!-- 5&#45;&gt;6 -->
<g id="edge6" class="edge"><title>5&#45;&gt;6</title>
<path fill="none" stroke="black" d="M433.678,-52.2841C449.562,-57.3168 473.709,-64.9671 492.098,-70.7933"/>
<polygon fill="black" stroke="black" points="491.042,-74.1303 501.632,-73.8142 493.156,-67.4572 491.042,-74.1303"/>
<text text-anchor="middle" x="467.5" y="-70.4" font-family="arial" font-size="12.00">0.267</text>
</g>
<!-- 7 -->
<g id="node7" class="node"><title>7</title>
<ellipse fill="powderblue" stroke="black" cx="519" cy="-25" rx="18" ry="18"/>
<text text-anchor="middle" x="519" y="-21.9" font-family="arial" font-size="12.00">P6</text>
</g>
<!-- 5&#45;&gt;7 -->
<g id="edge7" class="edge"><title>5&#45;&gt;7</title>
<path fill="none" stroke="black" d="M433.723,-43.1215C439.507,-41.7948 446.035,-40.3144 452,-39 464.917,-36.154 479.28,-33.0947 491.301,-30.5641"/>
<polygon fill="black" stroke="black" points="492.097,-33.9733 501.166,-28.495 490.66,-27.1224 492.097,-33.9733"/>
<text text-anchor="middle" x="467.5" y="-42.4" font-family="arial" font-size="12.00">0.37</text>
</g>
<!-- 8 -->
<g id="node8" class="node"><title>8</title>
<ellipse fill="powderblue" stroke="black" cx="622" cy="-54" rx="18" ry="18"/>
<text text-anchor="middle" x="622" y="-50.9" font-family="arial" font-size="12.00">P7</text>
</g>
<!-- 6&#45;&gt;8 -->
<g id="edge8" class="edge"><title>6&#45;&gt;8</title>
<path fill="none" stroke="black" d="M536.678,-74.8718C552.395,-70.9815 576.2,-65.0891 594.513,-60.5561"/>
<polygon fill="black" stroke="black" points="595.431,-63.9347 604.297,-58.1344 593.749,-57.1397 595.431,-63.9347"/>
<text text-anchor="middle" x="570.5" y="-73.4" font-family="arial" font-size="12.00">0.267</text>
</g>
<!-- 7&#45;&gt;8 -->
<g id="edge9" class="edge"><title>7&#45;&gt;8</title>
<path fill="none" stroke="black" d="M536.678,-29.7888C552.395,-34.3014 576.2,-41.1366 594.513,-46.3949"/>
<polygon fill="black" stroke="black" points="593.72,-49.8084 604.297,-49.2041 595.651,-43.0802 593.72,-49.8084"/>
<text text-anchor="middle" x="570.5" y="-46.4" font-family="arial" font-size="12.00">0.37</text>
</g>
<!-- 9 -->
<g id="node9" class="node"><title>9</title>
<ellipse fill="powderblue" stroke="black" cx="725" cy="-54" rx="18" ry="18"/>
<text text-anchor="middle" x="725" y="-50.9" font-family="arial" font-size="12.00">P8</text>
</g>
<!-- 8&#45;&gt;9 -->
<g id="edge10" class="edge"><title>8&#45;&gt;9</title>
<path fill="none" stroke="black" d="M640.133,-54C655.586,-54 678.584,-54 696.591,-54"/>
<polygon fill="black" stroke="black" points="696.783,-57.5001 706.783,-54 696.783,-50.5001 696.783,-57.5001"/>
<text text-anchor="middle" x="673.5" y="-57.4" font-family="arial" font-size="12.00">0.123</text>
</g>
<!-- 11 -->
<g id="node11" class="node"><title>11</title>
<ellipse fill="darksalmon" stroke="black" cx="828" cy="-54" rx="18" ry="18"/>
<text text-anchor="middle" x="828" y="-50.9" font-family="arial" font-size="12.00">Sink</text>
</g>
<!-- 9&#45;&gt;11 -->
<g id="edge12" class="edge"><title>9&#45;&gt;11</title>
<path fill="none" stroke="black" d="M743.133,-54C758.586,-54 781.584,-54 799.591,-54"/>
<polygon fill="black" stroke="black" points="799.783,-57.5001 809.783,-54 799.783,-50.5001 799.783,-57.5001"/>
<text text-anchor="middle" x="776.5" y="-57.4" font-family="arial" font-size="12.00">0.123</text>
</g>
<!-- 10 -->
<g id="node10" class="node"><title>10</title>
<ellipse fill="forestgreen" stroke="black" cx="18" cy="-40" rx="18" ry="18"/>
<text text-anchor="middle" x="18" y="-37.5" font-family="arial" font-size="10.00">Source</text>
</g>
<!-- 10&#45;&gt;1 -->
<g id="edge11" class="edge"><title>10&#45;&gt;1</title>
<path fill="none" stroke="black" d="M36.1884,-40C48.3426,-40 64.8865,-40 78.8185,-40"/>
<polygon fill="black" stroke="black" points="78.8473,-43.5001 88.8473,-40 78.8473,-36.5001 78.8473,-43.5001"/>
<text text-anchor="middle" x="62.5" y="-43.4" font-family="arial" font-size="12.00">1.0</text>
</g>
</g>
</svg>
