<?xml version="1.0" encoding="UTF-8" standalone="no"?>
<!DOCTYPE svg PUBLIC "-//W3C//DTD SVG 1.1//EN"
 "http://www.w3.org/Graphics/SVG/1.1/DTD/svg11.dtd">
<!-- Generated by graphviz version 2.38.0 (20140413.2041)
 -->
<!-- Title: %3 Pages: 1 -->
<svg width="716pt" height="152pt"
 viewBox="0.00 0.00 716.00 152.00" xmlns="http://www.w3.org/2000/svg" xmlns:xlink="http://www.w3.org/1999/xlink">
<g id="graph0" class="graph" transform="scale(1 1) rotate(0) translate(4 148)">
<title>%3</title>
<polygon fill="white" stroke="none" points="-4,4 -4,-148 712,-148 712,4 -4,4"/>
<!-- 1 -->
<g id="node1" class="node"><title>1</title>
<ellipse fill="powderblue" stroke="black" cx="107" cy="-65" rx="18" ry="18"/>
<text text-anchor="middle" x="107" y="-61.9" font-family="arial" font-size="12.00">P0</text>
</g>
<!-- 2 -->
<g id="node2" class="node"><title>2</title>
<ellipse fill="powderblue" stroke="black" cx="196" cy="-97" rx="18" ry="18"/>
<text text-anchor="middle" x="196" y="-93.9" font-family="arial" font-size="12.00">P1</text>
</g>
<!-- 1&#45;&gt;2 -->
<g id="edge1" class="edge"><title>1&#45;&gt;2</title>
<path fill="none" stroke="black" d="M124.364,-71.019C137.002,-75.6673 154.727,-82.1871 169.26,-87.5325"/>
<polygon fill="black" stroke="black" points="168.116,-90.8408 178.709,-91.008 170.532,-84.2711 168.116,-90.8408"/>
<text text-anchor="middle" x="151.5" y="-86.4" font-family="arial" font-size="12.00">0.5</text>
</g>
<!-- 3 -->
<g id="node3" class="node"><title>3</title>
<ellipse fill="powderblue" stroke="black" cx="196" cy="-43" rx="18" ry="18"/>
<text text-anchor="middle" x="196" y="-39.9" font-family="arial" font-size="12.00">P2</text>
</g>
<!-- 1&#45;&gt;3 -->
<g id="edge2" class="edge"><title>1&#45;&gt;3</title>
<path fill="none" stroke="black" d="M124.774,-60.7582C137.171,-57.6234 154.296,-53.293 168.531,-49.6933"/>
<polygon fill="black" stroke="black" points="169.44,-53.0736 178.277,-47.2288 167.724,-46.2872 169.44,-53.0736"/>
<text text-anchor="middle" x="151.5" y="-59.4" font-family="arial" font-size="12.00">5.0</text>
</g>
<!-- 4 -->
<g id="node4" class="node"><title>4</title>
<ellipse fill="powderblue" stroke="black" cx="292" cy="-72" rx="18" ry="18"/>
<text text-anchor="middle" x="292" y="-68.9" font-family="arial" font-size="12.00">P3</text>
</g>
<!-- 2&#45;&gt;4 -->
<g id="edge3" class="edge"><title>2&#45;&gt;4</title>
<path fill="none" stroke="black" d="M213.805,-92.5305C227.841,-88.7977 248.106,-83.408 264.351,-79.0874"/>
<polygon fill="black" stroke="black" points="265.576,-82.3835 274.34,-76.4308 263.777,-75.6187 265.576,-82.3835"/>
<text text-anchor="middle" x="244" y="-90.4" font-family="arial" font-size="12.00">0.2</text>
</g>
<!-- 3&#45;&gt;4 -->
<g id="edge4" class="edge"><title>3&#45;&gt;4</title>
<path fill="none" stroke="black" d="M213.374,-48.0514C227.574,-52.4324 248.382,-58.8517 264.88,-63.9418"/>
<polygon fill="black" stroke="black" points="263.911,-67.3056 274.499,-66.9092 265.975,-60.6166 263.911,-67.3056"/>
<text text-anchor="middle" x="244" y="-64.4" font-family="arial" font-size="12.00">10.0</text>
</g>
<!-- 5 -->
<g id="node5" class="node"><title>5</title>
<ellipse fill="powderblue" stroke="black" cx="381" cy="-72" rx="18" ry="18"/>
<text text-anchor="middle" x="381" y="-68.9" font-family="arial" font-size="12.00">P4</text>
</g>
<!-- 4&#45;&gt;5 -->
<g id="edge5" class="edge"><title>4&#45;&gt;5</title>
<path fill="none" stroke="black" d="M310.188,-72C322.343,-72 338.886,-72 352.818,-72"/>
<polygon fill="black" stroke="black" points="352.847,-75.5001 362.847,-72 352.847,-68.5001 352.847,-75.5001"/>
<text text-anchor="middle" x="336.5" y="-75.4" font-family="arial" font-size="12.00">0.2</text>
</g>
<!-- 6 -->
<g id="node6" class="node"><title>6</title>
<ellipse fill="powderblue" stroke="black" cx="484" cy="-126" rx="18" ry="18"/>
<text text-anchor="middle" x="484" y="-122.9" font-family="arial" font-size="12.00">P5</text>
</g>
<!-- 5&#45;&gt;6 -->
<g id="edge6" class="edge"><title>5&#45;&gt;6</title>
<path fill="none" stroke="black" d="M397.34,-80.2014C413.674,-88.9346 439.751,-102.877 458.847,-113.086"/>
<polygon fill="black" stroke="black" points="457.378,-116.27 467.847,-117.898 460.678,-110.097 457.378,-116.27"/>
<text text-anchor="middle" x="432.5" y="-109.4" font-family="arial" font-size="12.00">0.5</text>
</g>
<!-- 7 -->
<g id="node7" class="node"><title>7</title>
<ellipse fill="powderblue" stroke="black" cx="484" cy="-72" rx="18" ry="18"/>
<text text-anchor="middle" x="484" y="-68.9" font-family="arial" font-size="12.00">P6</text>
</g>
<!-- 5&#45;&gt;7 -->
<g id="edge7" class="edge"><title>5&#45;&gt;7</title>
<path fill="none" stroke="black" d="M399.133,-72C414.586,-72 437.584,-72 455.591,-72"/>
<polygon fill="black" stroke="black" points="455.783,-75.5001 465.783,-72 455.783,-68.5001 455.783,-75.5001"/>
<text text-anchor="middle" x="432.5" y="-75.4" font-family="arial" font-size="12.00">0.2</text>
</g>
<!-- 8 -->
<g id="node8" class="node"><title>8</title>
<ellipse fill="powderblue" stroke="black" cx="484" cy="-18" rx="18" ry="18"/>
<text text-anchor="middle" x="484" y="-14.9" font-family="arial" font-size="12.00">P7</text>
</g>
<!-- 5&#45;&gt;8 -->
<g id="edge8" class="edge"><title>5&#45;&gt;8</title>
<path fill="none" stroke="black" d="M397.34,-63.7986C413.674,-55.0654 439.751,-41.1234 458.847,-30.9137"/>
<polygon fill="black" stroke="black" points="460.678,-33.9032 467.847,-26.1017 457.378,-27.7301 460.678,-33.9032"/>
<text text-anchor="middle" x="432.5" y="-56.4" font-family="arial" font-size="12.00">0.133</text>
</g>
<!-- 9 -->
<g id="node9" class="node"><title>9</title>
<ellipse fill="powderblue" stroke="black" cx="587" cy="-72" rx="18" ry="18"/>
<text text-anchor="middle" x="587" y="-68.9" font-family="arial" font-size="12.00">P8</text>
</g>
<!-- 6&#45;&gt;9 -->
<g id="edge9" class="edge"><title>6&#45;&gt;9</title>
<path fill="none" stroke="black" d="M500.34,-117.799C516.674,-109.065 542.751,-95.1234 561.847,-84.9137"/>
<polygon fill="black" stroke="black" points="563.678,-87.9032 570.847,-80.1017 560.378,-81.7301 563.678,-87.9032"/>
<text text-anchor="middle" x="535.5" y="-109.4" font-family="arial" font-size="12.00">0.167</text>
</g>
<!-- 7&#45;&gt;9 -->
<g id="edge10" class="edge"><title>7&#45;&gt;9</title>
<path fill="none" stroke="black" d="M502.133,-72C517.586,-72 540.584,-72 558.591,-72"/>
<polygon fill="black" stroke="black" points="558.783,-75.5001 568.783,-72 558.783,-68.5001 558.783,-75.5001"/>
<text text-anchor="middle" x="535.5" y="-75.4" font-family="arial" font-size="12.00">0.4</text>
</g>
<!-- 8&#45;&gt;9 -->
<g id="edge11" class="edge"><title>8&#45;&gt;9</title>
<path fill="none" stroke="black" d="M500.34,-26.2014C516.674,-34.9346 542.751,-48.8766 561.847,-59.0863"/>
<polygon fill="black" stroke="black" points="560.378,-62.2699 570.847,-63.8983 563.678,-56.0968 560.378,-62.2699"/>
<text text-anchor="middle" x="535.5" y="-56.4" font-family="arial" font-size="12.00">0.667</text>
</g>
<!-- 11 -->
<g id="node11" class="node"><title>11</title>
<ellipse fill="darksalmon" stroke="black" cx="690" cy="-72" rx="18" ry="18"/>
<text text-anchor="middle" x="690" y="-68.9" font-family="arial" font-size="12.00">Sink</text>
</g>
<!-- 9&#45;&gt;11 -->
<g id="edge13" class="edge"><title>9&#45;&gt;11</title>
<path fill="none" stroke="black" d="M605.133,-72C620.586,-72 643.584,-72 661.591,-72"/>
<polygon fill="black" stroke="black" points="661.783,-75.5001 671.783,-72 661.783,-68.5001 661.783,-75.5001"/>
<text text-anchor="middle" x="638.5" y="-75.4" font-family="arial" font-size="12.00">0.267</text>
</g>
<!-- 10 -->
<g id="node10" class="node"><title>10</title>
<ellipse fill="forestgreen" stroke="black" cx="18" cy="-65" rx="18" ry="18"/>
<text text-anchor="middle" x="18" y="-62.5" font-family="arial" font-size="10.00">Source</text>
</g>
<!-- 10&#45;&gt;1 -->
<g id="edge12" class="edge"><title>10&#45;&gt;1</title>
<path fill="none" stroke="black" d="M36.1884,-65C48.3426,-65 64.8865,-65 78.8185,-65"/>
<polygon fill="black" stroke="black" points="78.8473,-68.5001 88.8473,-65 78.8473,-61.5001 78.8473,-68.5001"/>
<text text-anchor="middle" x="62.5" y="-68.4" font-family="arial" font-size="12.00">1.0</text>
</g>
</g>
</svg>
