<?xml version="1.0" encoding="UTF-8" standalone="no"?>
<!DOCTYPE svg PUBLIC "-//W3C//DTD SVG 1.1//EN"
 "http://www.w3.org/Graphics/SVG/1.1/DTD/svg11.dtd">
<!-- Generated by graphviz version 2.38.0 (20140413.2041)
 -->
<!-- Title: %3 Pages: 1 -->
<svg width="743pt" height="123pt"
 viewBox="0.00 0.00 743.00 123.00" xmlns="http://www.w3.org/2000/svg" xmlns:xlink="http://www.w3.org/1999/xlink">
<g id="graph0" class="graph" transform="scale(1 1) rotate(0) translate(4 119)">
<title>%3</title>
<polygon fill="white" stroke="none" points="-4,4 -4,-119 739,-119 739,4 -4,4"/>
<!-- 1 -->
<g id="node1" class="node"><title>1</title>
<ellipse fill="powderblue" stroke="black" cx="107" cy="-72" rx="18" ry="18"/>
<text text-anchor="middle" x="107" y="-68.9" font-family="arial" font-size="12.00">P0</text>
</g>
<!-- 3 -->
<g id="node3" class="node"><title>3</title>
<ellipse fill="powderblue" stroke="black" cx="210" cy="-36" rx="18" ry="18"/>
<text text-anchor="middle" x="210" y="-32.9" font-family="arial" font-size="12.00">P2</text>
</g>
<!-- 1&#45;&gt;3 -->
<g id="edge1" class="edge"><title>1&#45;&gt;3</title>
<path fill="none" stroke="black" d="M124.227,-66.216C140.13,-60.5477 164.618,-51.8192 183.194,-45.1983"/>
<polygon fill="black" stroke="black" points="184.568,-48.424 192.813,-41.7697 182.218,-41.8304 184.568,-48.424"/>
<text text-anchor="middle" x="158.5" y="-62.4" font-family="arial" font-size="12.00">0.667</text>
</g>
<!-- 4 -->
<g id="node4" class="node"><title>4</title>
<ellipse fill="powderblue" stroke="black" cx="210" cy="-90" rx="18" ry="18"/>
<text text-anchor="middle" x="210" y="-86.9" font-family="arial" font-size="12.00">P3</text>
</g>
<!-- 1&#45;&gt;4 -->
<g id="edge3" class="edge"><title>1&#45;&gt;4</title>
<path fill="none" stroke="black" d="M125.133,-75.0535C140.753,-77.8372 164.081,-81.9946 182.172,-85.2187"/>
<polygon fill="black" stroke="black" points="181.661,-88.6827 192.12,-86.9916 182.889,-81.7913 181.661,-88.6827"/>
<text text-anchor="middle" x="158.5" y="-86.4" font-family="arial" font-size="12.00">0.333</text>
</g>
<!-- 2 -->
<g id="node2" class="node"><title>2</title>
<ellipse fill="powderblue" stroke="black" cx="107" cy="-18" rx="18" ry="18"/>
<text text-anchor="middle" x="107" y="-14.9" font-family="arial" font-size="12.00">P1</text>
</g>
<!-- 2&#45;&gt;3 -->
<g id="edge2" class="edge"><title>2&#45;&gt;3</title>
<path fill="none" stroke="black" d="M125.07,-16.2496C138.545,-15.3457 157.724,-15.1262 174,-19 177.701,-19.8808 181.467,-21.1966 185.091,-22.7135"/>
<polygon fill="black" stroke="black" points="183.672,-25.9145 194.207,-27.0378 186.672,-19.5899 183.672,-25.9145"/>
<text text-anchor="middle" x="158.5" y="-22.4" font-family="arial" font-size="12.00">1.0</text>
</g>
<!-- 5 -->
<g id="node5" class="node"><title>5</title>
<ellipse fill="powderblue" stroke="black" cx="313" cy="-65" rx="18" ry="18"/>
<text text-anchor="middle" x="313" y="-61.9" font-family="arial" font-size="12.00">P4</text>
</g>
<!-- 3&#45;&gt;5 -->
<g id="edge4" class="edge"><title>3&#45;&gt;5</title>
<path fill="none" stroke="black" d="M227.678,-40.7888C243.395,-45.3014 267.2,-52.1366 285.513,-57.3949"/>
<polygon fill="black" stroke="black" points="284.72,-60.8084 295.297,-60.2041 286.651,-54.0802 284.72,-60.8084"/>
<text text-anchor="middle" x="261.5" y="-57.4" font-family="arial" font-size="12.00">0.444</text>
</g>
<!-- 4&#45;&gt;5 -->
<g id="edge5" class="edge"><title>4&#45;&gt;5</title>
<path fill="none" stroke="black" d="M227.678,-85.8718C243.395,-81.9815 267.2,-76.0891 285.513,-71.5561"/>
<polygon fill="black" stroke="black" points="286.431,-74.9347 295.297,-69.1344 284.749,-68.1397 286.431,-74.9347"/>
<text text-anchor="middle" x="261.5" y="-84.4" font-family="arial" font-size="12.00">0.167</text>
</g>
<!-- 6 -->
<g id="node6" class="node"><title>6</title>
<ellipse fill="powderblue" stroke="black" cx="422" cy="-97" rx="18" ry="18"/>
<text text-anchor="middle" x="422" y="-93.9" font-family="arial" font-size="12.00">P5</text>
</g>
<!-- 5&#45;&gt;6 -->
<g id="edge6" class="edge"><title>5&#45;&gt;6</title>
<path fill="none" stroke="black" d="M330.719,-70C347.837,-75.1194 374.691,-83.1507 394.667,-89.1248"/>
<polygon fill="black" stroke="black" points="393.815,-92.523 404.399,-92.0351 395.821,-85.8165 393.815,-92.523"/>
<text text-anchor="middle" x="367.5" y="-88.4" font-family="arial" font-size="12.00">0.222</text>
</g>
<!-- 7 -->
<g id="node7" class="node"><title>7</title>
<ellipse fill="powderblue" stroke="black" cx="422" cy="-43" rx="18" ry="18"/>
<text text-anchor="middle" x="422" y="-39.9" font-family="arial" font-size="12.00">P6</text>
</g>
<!-- 5&#45;&gt;7 -->
<g id="edge7" class="edge"><title>5&#45;&gt;7</title>
<path fill="none" stroke="black" d="M330.71,-61.0636C336.494,-59.7322 343.024,-58.2637 349,-57 363.844,-53.8612 380.467,-50.6115 393.998,-48.034"/>
<polygon fill="black" stroke="black" points="394.917,-51.4223 404.093,-46.126 393.617,-44.5441 394.917,-51.4223"/>
<text text-anchor="middle" x="367.5" y="-60.4" font-family="arial" font-size="12.00">0.0556</text>
</g>
<!-- 8 -->
<g id="node8" class="node"><title>8</title>
<ellipse fill="powderblue" stroke="black" cx="525" cy="-72" rx="18" ry="18"/>
<text text-anchor="middle" x="525" y="-68.9" font-family="arial" font-size="12.00">P7</text>
</g>
<!-- 6&#45;&gt;8 -->
<g id="edge8" class="edge"><title>6&#45;&gt;8</title>
<path fill="none" stroke="black" d="M439.678,-92.8718C455.395,-88.9815 479.2,-83.0891 497.513,-78.5561"/>
<polygon fill="black" stroke="black" points="498.431,-81.9347 507.297,-76.1344 496.749,-75.1397 498.431,-81.9347"/>
<text text-anchor="middle" x="473.5" y="-91.4" font-family="arial" font-size="12.00">0.333</text>
</g>
<!-- 7&#45;&gt;8 -->
<g id="edge9" class="edge"><title>7&#45;&gt;8</title>
<path fill="none" stroke="black" d="M439.678,-47.7888C455.395,-52.3014 479.2,-59.1366 497.513,-64.3949"/>
<polygon fill="black" stroke="black" points="496.72,-67.8084 507.297,-67.2041 498.651,-61.0802 496.72,-67.8084"/>
<text text-anchor="middle" x="473.5" y="-64.4" font-family="arial" font-size="12.00">0.167</text>
</g>
<!-- 9 -->
<g id="node9" class="node"><title>9</title>
<ellipse fill="powderblue" stroke="black" cx="621" cy="-72" rx="18" ry="18"/>
<text text-anchor="middle" x="621" y="-68.9" font-family="arial" font-size="12.00">P8</text>
</g>
<!-- 8&#45;&gt;9 -->
<g id="edge10" class="edge"><title>8&#45;&gt;9</title>
<path fill="none" stroke="black" d="M543.241,-72C557.022,-72 576.6,-72 592.535,-72"/>
<polygon fill="black" stroke="black" points="592.868,-75.5001 602.868,-72 592.868,-68.5001 592.868,-75.5001"/>
<text text-anchor="middle" x="573" y="-75.4" font-family="arial" font-size="12.00">0.25</text>
</g>
<!-- 11 -->
<g id="node11" class="node"><title>11</title>
<ellipse fill="darksalmon" stroke="black" cx="717" cy="-72" rx="18" ry="18"/>
<text text-anchor="middle" x="717" y="-68.9" font-family="arial" font-size="12.00">Sink</text>
</g>
<!-- 9&#45;&gt;11 -->
<g id="edge13" class="edge"><title>9&#45;&gt;11</title>
<path fill="none" stroke="black" d="M639.241,-72C653.022,-72 672.6,-72 688.535,-72"/>
<polygon fill="black" stroke="black" points="688.868,-75.5001 698.868,-72 688.868,-68.5001 688.868,-75.5001"/>
<text text-anchor="middle" x="669" y="-75.4" font-family="arial" font-size="12.00">0.25</text>
</g>
<!-- 10 -->
<g id="node10" class="node"><title>10</title>
<ellipse fill="forestgreen" stroke="black" cx="18" cy="-44" rx="18" ry="18"/>
<text text-anchor="middle" x="18" y="-41.5" font-family="arial" font-size="10.00">Source</text>
</g>
<!-- 10&#45;&gt;1 -->
<g id="edge12" class="edge"><title>10&#45;&gt;1</title>
<path fill="none" stroke="black" d="M35.364,-49.2666C47.8803,-53.2948 65.387,-58.9292 79.84,-63.5807"/>
<polygon fill="black" stroke="black" points="79.1179,-67.025 89.7093,-66.757 81.2625,-60.3616 79.1179,-67.025"/>
<text text-anchor="middle" x="62.5" y="-63.4" font-family="arial" font-size="12.00">1.0</text>
</g>
<!-- 10&#45;&gt;2 -->
<g id="edge11" class="edge"><title>10&#45;&gt;2</title>
<path fill="none" stroke="black" d="M35.3072,-38.1545C41.1726,-36.1195 47.857,-33.8777 54,-32 62.1725,-29.5019 71.1384,-27.0029 79.2891,-24.8221"/>
<polygon fill="black" stroke="black" points="80.2752,-28.1819 89.0564,-22.254 78.4951,-21.412 80.2752,-28.1819"/>
<text text-anchor="middle" x="62.5" y="-35.4" font-family="arial" font-size="12.00">1.0</text>
</g>
</g>
</svg>
