<?xml version="1.0" encoding="UTF-8" standalone="no"?>
<!DOCTYPE svg PUBLIC "-//W3C//DTD SVG 1.1//EN"
 "http://www.w3.org/Graphics/SVG/1.1/DTD/svg11.dtd">
<!-- Generated by graphviz version 2.38.0 (20140413.2041)
 -->
<!-- Title: %3 Pages: 1 -->
<svg width="736pt" height="156pt"
 viewBox="0.00 0.00 736.00 156.00" xmlns="http://www.w3.org/2000/svg" xmlns:xlink="http://www.w3.org/1999/xlink">
<g id="graph0" class="graph" transform="scale(1 1) rotate(0) translate(4 152)">
<title>%3</title>
<polygon fill="white" stroke="none" points="-4,4 -4,-152 732,-152 732,4 -4,4"/>
<!-- 1 -->
<g id="node1" class="node"><title>1</title>
<ellipse fill="powderblue" stroke="black" cx="107" cy="-89" rx="18" ry="18"/>
<text text-anchor="middle" x="107" y="-85.9" font-family="arial" font-size="12.00">P0</text>
</g>
<!-- 2 -->
<g id="node2" class="node"><title>2</title>
<ellipse fill="powderblue" stroke="black" cx="196" cy="-89" rx="18" ry="18"/>
<text text-anchor="middle" x="196" y="-85.9" font-family="arial" font-size="12.00">P1</text>
</g>
<!-- 1&#45;&gt;2 -->
<g id="edge1" class="edge"><title>1&#45;&gt;2</title>
<path fill="none" stroke="black" d="M125.188,-89C137.343,-89 153.886,-89 167.818,-89"/>
<polygon fill="black" stroke="black" points="167.847,-92.5001 177.847,-89 167.847,-85.5001 167.847,-92.5001"/>
<text text-anchor="middle" x="151.5" y="-92.4" font-family="arial" font-size="12.00">3.0</text>
</g>
<!-- 3 -->
<g id="node3" class="node"><title>3</title>
<ellipse fill="powderblue" stroke="black" cx="292" cy="-67" rx="18" ry="18"/>
<text text-anchor="middle" x="292" y="-63.9" font-family="arial" font-size="12.00">P2</text>
</g>
<!-- 2&#45;&gt;3 -->
<g id="edge2" class="edge"><title>2&#45;&gt;3</title>
<path fill="none" stroke="black" d="M213.805,-85.0668C227.841,-81.782 248.106,-77.039 264.351,-73.237"/>
<polygon fill="black" stroke="black" points="265.401,-76.5859 274.34,-70.8991 263.806,-69.7701 265.401,-76.5859"/>
<text text-anchor="middle" x="244" y="-84.4" font-family="arial" font-size="12.00">0.75</text>
</g>
<!-- 4 -->
<g id="node4" class="node"><title>4</title>
<ellipse fill="powderblue" stroke="black" cx="292" cy="-130" rx="18" ry="18"/>
<text text-anchor="middle" x="292" y="-126.9" font-family="arial" font-size="12.00">P3</text>
</g>
<!-- 2&#45;&gt;4 -->
<g id="edge3" class="edge"><title>2&#45;&gt;4</title>
<path fill="none" stroke="black" d="M212.946,-95.9551C227.483,-102.296 249.194,-111.766 266.031,-119.109"/>
<polygon fill="black" stroke="black" points="264.724,-122.358 275.29,-123.148 267.523,-115.941 264.724,-122.358"/>
<text text-anchor="middle" x="244" y="-117.4" font-family="arial" font-size="12.00">3.0</text>
</g>
<!-- 5 -->
<g id="node5" class="node"><title>5</title>
<ellipse fill="powderblue" stroke="black" cx="401" cy="-126" rx="18" ry="18"/>
<text text-anchor="middle" x="401" y="-122.9" font-family="arial" font-size="12.00">P4</text>
</g>
<!-- 3&#45;&gt;5 -->
<g id="edge4" class="edge"><title>3&#45;&gt;5</title>
<path fill="none" stroke="black" d="M308.33,-75.4533C325.97,-85.1795 355.16,-101.275 375.858,-112.688"/>
<polygon fill="black" stroke="black" points="374.251,-115.799 384.698,-117.562 377.631,-109.669 374.251,-115.799"/>
<text text-anchor="middle" x="346.5" y="-108.4" font-family="arial" font-size="12.00">0.0938</text>
</g>
<!-- 6 -->
<g id="node6" class="node"><title>6</title>
<ellipse fill="powderblue" stroke="black" cx="401" cy="-18" rx="18" ry="18"/>
<text text-anchor="middle" x="401" y="-14.9" font-family="arial" font-size="12.00">P5</text>
</g>
<!-- 3&#45;&gt;6 -->
<g id="edge6" class="edge"><title>3&#45;&gt;6</title>
<path fill="none" stroke="black" d="M307.677,-57.4359C313.825,-53.6315 321.128,-49.3678 328,-46 342.925,-38.6862 360.271,-31.8921 374.198,-26.8284"/>
<polygon fill="black" stroke="black" points="375.403,-30.1146 383.651,-23.4643 373.056,-23.5198 375.403,-30.1146"/>
<text text-anchor="middle" x="346.5" y="-49.4" font-family="arial" font-size="12.00">0.45</text>
</g>
<!-- 7 -->
<g id="node7" class="node"><title>7</title>
<ellipse fill="powderblue" stroke="black" cx="401" cy="-72" rx="18" ry="18"/>
<text text-anchor="middle" x="401" y="-68.9" font-family="arial" font-size="12.00">P6</text>
</g>
<!-- 3&#45;&gt;7 -->
<g id="edge7" class="edge"><title>3&#45;&gt;7</title>
<path fill="none" stroke="black" d="M309.927,-64.831C324.551,-63.3063 346.228,-61.8819 365,-64 367.75,-64.3103 370.6,-64.7537 373.431,-65.2747"/>
<polygon fill="black" stroke="black" points="372.886,-68.7372 383.397,-67.4021 374.348,-61.8914 372.886,-68.7372"/>
<text text-anchor="middle" x="346.5" y="-67.4" font-family="arial" font-size="12.00">1.5</text>
</g>
<!-- 4&#45;&gt;5 -->
<g id="edge5" class="edge"><title>4&#45;&gt;5</title>
<path fill="none" stroke="black" d="M310.191,-129.357C327.039,-128.728 352.982,-127.758 372.661,-127.022"/>
<polygon fill="black" stroke="black" points="372.989,-130.512 382.851,-126.641 372.727,-123.517 372.989,-130.512"/>
<text text-anchor="middle" x="346.5" y="-131.4" font-family="arial" font-size="12.00">2.0</text>
</g>
<!-- 9 -->
<g id="node9" class="node"><title>9</title>
<ellipse fill="powderblue" stroke="black" cx="607" cy="-105" rx="18" ry="18"/>
<text text-anchor="middle" x="607" y="-101.9" font-family="arial" font-size="12.00">P8</text>
</g>
<!-- 5&#45;&gt;9 -->
<g id="edge10" class="edge"><title>5&#45;&gt;9</title>
<path fill="none" stroke="black" d="M419.302,-124.635C449.932,-122.158 515.687,-116.566 571,-110 573.56,-109.696 576.222,-109.357 578.884,-109.003"/>
<polygon fill="black" stroke="black" points="579.51,-112.45 588.931,-107.604 578.544,-105.517 579.51,-112.45"/>
<text text-anchor="middle" x="504" y="-121.4" font-family="arial" font-size="12.00">0.469</text>
</g>
<!-- 8 -->
<g id="node8" class="node"><title>8</title>
<ellipse fill="powderblue" stroke="black" cx="504" cy="-72" rx="18" ry="18"/>
<text text-anchor="middle" x="504" y="-68.9" font-family="arial" font-size="12.00">P7</text>
</g>
<!-- 6&#45;&gt;8 -->
<g id="edge8" class="edge"><title>6&#45;&gt;8</title>
<path fill="none" stroke="black" d="M417.34,-26.2014C433.674,-34.9346 459.751,-48.8766 478.847,-59.0863"/>
<polygon fill="black" stroke="black" points="477.378,-62.2699 487.847,-63.8983 480.678,-56.0968 477.378,-62.2699"/>
<text text-anchor="middle" x="452.5" y="-56.4" font-family="arial" font-size="12.00">0.112</text>
</g>
<!-- 7&#45;&gt;8 -->
<g id="edge9" class="edge"><title>7&#45;&gt;8</title>
<path fill="none" stroke="black" d="M419.133,-72C434.586,-72 457.584,-72 475.591,-72"/>
<polygon fill="black" stroke="black" points="475.783,-75.5001 485.783,-72 475.783,-68.5001 475.783,-75.5001"/>
<text text-anchor="middle" x="452.5" y="-75.4" font-family="arial" font-size="12.00">4.5</text>
</g>
<!-- 8&#45;&gt;9 -->
<g id="edge11" class="edge"><title>8&#45;&gt;9</title>
<path fill="none" stroke="black" d="M521.227,-77.302C537.036,-82.4672 561.329,-90.4045 579.863,-96.4603"/>
<polygon fill="black" stroke="black" points="578.885,-99.8226 589.477,-99.6015 581.059,-93.1688 578.885,-99.8226"/>
<text text-anchor="middle" x="555.5" y="-96.4" font-family="arial" font-size="12.00">0.112</text>
</g>
<!-- 11 -->
<g id="node11" class="node"><title>11</title>
<ellipse fill="darksalmon" stroke="black" cx="710" cy="-105" rx="18" ry="18"/>
<text text-anchor="middle" x="710" y="-101.9" font-family="arial" font-size="12.00">Sink</text>
</g>
<!-- 9&#45;&gt;11 -->
<g id="edge13" class="edge"><title>9&#45;&gt;11</title>
<path fill="none" stroke="black" d="M625.133,-105C640.586,-105 663.584,-105 681.591,-105"/>
<polygon fill="black" stroke="black" points="681.783,-108.5 691.783,-105 681.783,-101.5 681.783,-108.5"/>
<text text-anchor="middle" x="658.5" y="-108.4" font-family="arial" font-size="12.00">0.112</text>
</g>
<!-- 10 -->
<g id="node10" class="node"><title>10</title>
<ellipse fill="forestgreen" stroke="black" cx="18" cy="-89" rx="18" ry="18"/>
<text text-anchor="middle" x="18" y="-86.5" font-family="arial" font-size="10.00">Source</text>
</g>
<!-- 10&#45;&gt;1 -->
<g id="edge12" class="edge"><title>10&#45;&gt;1</title>
<path fill="none" stroke="black" d="M36.1884,-89C48.3426,-89 64.8865,-89 78.8185,-89"/>
<polygon fill="black" stroke="black" points="78.8473,-92.5001 88.8473,-89 78.8473,-85.5001 78.8473,-92.5001"/>
<text text-anchor="middle" x="62.5" y="-92.4" font-family="arial" font-size="12.00">1.0</text>
</g>
</g>
</svg>
