<?xml version="1.0" encoding="UTF-8" standalone="no"?>
<!DOCTYPE svg PUBLIC "-//W3C//DTD SVG 1.1//EN"
 "http://www.w3.org/Graphics/SVG/1.1/DTD/svg11.dtd">
<!-- Generated by graphviz version 2.38.0 (20140413.2041)
 -->
<!-- Title: %3 Pages: 1 -->
<svg width="681pt" height="206pt"
 viewBox="0.00 0.00 681.00 206.00" xmlns="http://www.w3.org/2000/svg" xmlns:xlink="http://www.w3.org/1999/xlink">
<g id="graph0" class="graph" transform="scale(1 1) rotate(0) translate(4 202)">
<title>%3</title>
<polygon fill="white" stroke="none" points="-4,4 -4,-202 677,-202 677,4 -4,4"/>
<!-- 1 -->
<g id="node1" class="node"><title>1</title>
<ellipse fill="powderblue" stroke="black" cx="107" cy="-94" rx="18" ry="18"/>
<text text-anchor="middle" x="107" y="-90.9" font-family="arial" font-size="12.00">P0</text>
</g>
<!-- 2 -->
<g id="node2" class="node"><title>2</title>
<ellipse fill="powderblue" stroke="black" cx="196" cy="-94" rx="18" ry="18"/>
<text text-anchor="middle" x="196" y="-90.9" font-family="arial" font-size="12.00">P1</text>
</g>
<!-- 1&#45;&gt;2 -->
<g id="edge1" class="edge"><title>1&#45;&gt;2</title>
<path fill="none" stroke="black" d="M125.188,-94C137.343,-94 153.886,-94 167.818,-94"/>
<polygon fill="black" stroke="black" points="167.847,-97.5001 177.847,-94 167.847,-90.5001 167.847,-97.5001"/>
<text text-anchor="middle" x="151.5" y="-97.4" font-family="arial" font-size="12.00">1.5</text>
</g>
<!-- 3 -->
<g id="node3" class="node"><title>3</title>
<ellipse fill="powderblue" stroke="black" cx="285" cy="-94" rx="18" ry="18"/>
<text text-anchor="middle" x="285" y="-90.9" font-family="arial" font-size="12.00">P2</text>
</g>
<!-- 2&#45;&gt;3 -->
<g id="edge2" class="edge"><title>2&#45;&gt;3</title>
<path fill="none" stroke="black" d="M214.188,-94C226.343,-94 242.886,-94 256.818,-94"/>
<polygon fill="black" stroke="black" points="256.847,-97.5001 266.847,-94 256.847,-90.5001 256.847,-97.5001"/>
<text text-anchor="middle" x="240.5" y="-97.4" font-family="arial" font-size="12.00">1.5</text>
</g>
<!-- 4 -->
<g id="node4" class="node"><title>4</title>
<ellipse fill="powderblue" stroke="black" cx="374" cy="-180" rx="18" ry="18"/>
<text text-anchor="middle" x="374" y="-176.9" font-family="arial" font-size="12.00">P3</text>
</g>
<!-- 3&#45;&gt;4 -->
<g id="edge3" class="edge"><title>3&#45;&gt;4</title>
<path fill="none" stroke="black" d="M298.281,-106.34C304.981,-113.056 313.429,-121.502 321,-129 331.634,-139.531 343.551,-151.226 353.291,-160.758"/>
<polygon fill="black" stroke="black" points="350.972,-163.386 360.569,-167.874 355.866,-158.381 350.972,-163.386"/>
<text text-anchor="middle" x="329.5" y="-147.4" font-family="arial" font-size="12.00">1.5</text>
</g>
<!-- 5 -->
<g id="node5" class="node"><title>5</title>
<ellipse fill="powderblue" stroke="black" cx="374" cy="-126" rx="18" ry="18"/>
<text text-anchor="middle" x="374" y="-122.9" font-family="arial" font-size="12.00">P4</text>
</g>
<!-- 3&#45;&gt;5 -->
<g id="edge4" class="edge"><title>3&#45;&gt;5</title>
<path fill="none" stroke="black" d="M302.364,-100.019C315.002,-104.667 332.727,-111.187 347.26,-116.532"/>
<polygon fill="black" stroke="black" points="346.116,-119.841 356.709,-120.008 348.532,-113.271 346.116,-119.841"/>
<text text-anchor="middle" x="329.5" y="-115.4" font-family="arial" font-size="12.00">1.5</text>
</g>
<!-- 6 -->
<g id="node6" class="node"><title>6</title>
<ellipse fill="powderblue" stroke="black" cx="374" cy="-72" rx="18" ry="18"/>
<text text-anchor="middle" x="374" y="-68.9" font-family="arial" font-size="12.00">P5</text>
</g>
<!-- 3&#45;&gt;6 -->
<g id="edge5" class="edge"><title>3&#45;&gt;6</title>
<path fill="none" stroke="black" d="M302.774,-89.7582C315.171,-86.6234 332.296,-82.293 346.531,-78.6933"/>
<polygon fill="black" stroke="black" points="347.44,-82.0736 356.277,-76.2288 345.724,-75.2872 347.44,-82.0736"/>
<text text-anchor="middle" x="329.5" y="-88.4" font-family="arial" font-size="12.00">1.5</text>
</g>
<!-- 7 -->
<g id="node7" class="node"><title>7</title>
<ellipse fill="powderblue" stroke="black" cx="374" cy="-18" rx="18" ry="18"/>
<text text-anchor="middle" x="374" y="-14.9" font-family="arial" font-size="12.00">P6</text>
</g>
<!-- 3&#45;&gt;7 -->
<g id="edge6" class="edge"><title>3&#45;&gt;7</title>
<path fill="none" stroke="black" d="M299.213,-82.4572C313.219,-70.2223 335.541,-50.723 351.969,-36.372"/>
<polygon fill="black" stroke="black" points="354.719,-38.6172 359.947,-29.4024 350.114,-33.3454 354.719,-38.6172"/>
<text text-anchor="middle" x="329.5" y="-66.4" font-family="arial" font-size="12.00">6.0</text>
</g>
<!-- 8 -->
<g id="node8" class="node"><title>8</title>
<ellipse fill="powderblue" stroke="black" cx="477" cy="-98" rx="18" ry="18"/>
<text text-anchor="middle" x="477" y="-94.9" font-family="arial" font-size="12.00">P7</text>
</g>
<!-- 4&#45;&gt;8 -->
<g id="edge7" class="edge"><title>4&#45;&gt;8</title>
<path fill="none" stroke="black" d="M389.675,-170.575C403.403,-161.525 424.246,-147.172 441,-133 446.466,-128.376 452.081,-123.055 457.17,-117.98"/>
<polygon fill="black" stroke="black" points="459.674,-120.425 464.169,-110.831 454.672,-115.528 459.674,-120.425"/>
<text text-anchor="middle" x="425.5" y="-158.4" font-family="arial" font-size="12.00">1.12</text>
</g>
<!-- 5&#45;&gt;8 -->
<g id="edge8" class="edge"><title>5&#45;&gt;8</title>
<path fill="none" stroke="black" d="M391.678,-121.376C407.395,-117.019 431.2,-110.42 449.513,-105.343"/>
<polygon fill="black" stroke="black" points="450.596,-108.675 459.297,-102.63 448.726,-101.929 450.596,-108.675"/>
<text text-anchor="middle" x="425.5" y="-119.4" font-family="arial" font-size="12.00">0.3</text>
</g>
<!-- 6&#45;&gt;8 -->
<g id="edge9" class="edge"><title>6&#45;&gt;8</title>
<path fill="none" stroke="black" d="M391.955,-75.0097C405.368,-77.5312 424.517,-81.4441 441,-86 443.999,-86.8289 447.116,-87.7737 450.199,-88.7609"/>
<polygon fill="black" stroke="black" points="449.153,-92.1015 459.747,-91.969 451.382,-85.4661 449.153,-92.1015"/>
<text text-anchor="middle" x="425.5" y="-89.4" font-family="arial" font-size="12.00">0.375</text>
</g>
<!-- 7&#45;&gt;8 -->
<g id="edge10" class="edge"><title>7&#45;&gt;8</title>
<path fill="none" stroke="black" d="M390.05,-26.7689C403.855,-35.1003 424.588,-48.3514 441,-62 446.584,-66.6437 452.24,-72.0776 457.33,-77.2957"/>
<polygon fill="black" stroke="black" points="454.893,-79.812 464.309,-84.6692 459.977,-75.0003 454.893,-79.812"/>
<text text-anchor="middle" x="425.5" y="-65.4" font-family="arial" font-size="12.00">6.0</text>
</g>
<!-- 9 -->
<g id="node9" class="node"><title>9</title>
<ellipse fill="powderblue" stroke="black" cx="566" cy="-98" rx="18" ry="18"/>
<text text-anchor="middle" x="566" y="-94.9" font-family="arial" font-size="12.00">P8</text>
</g>
<!-- 8&#45;&gt;9 -->
<g id="edge11" class="edge"><title>8&#45;&gt;9</title>
<path fill="none" stroke="black" d="M495.188,-98C507.343,-98 523.886,-98 537.818,-98"/>
<polygon fill="black" stroke="black" points="537.847,-101.5 547.847,-98 537.847,-94.5001 537.847,-101.5"/>
<text text-anchor="middle" x="521.5" y="-101.4" font-family="arial" font-size="12.00">0.1</text>
</g>
<!-- 11 -->
<g id="node11" class="node"><title>11</title>
<ellipse fill="darksalmon" stroke="black" cx="655" cy="-98" rx="18" ry="18"/>
<text text-anchor="middle" x="655" y="-94.9" font-family="arial" font-size="12.00">Sink</text>
</g>
<!-- 9&#45;&gt;11 -->
<g id="edge13" class="edge"><title>9&#45;&gt;11</title>
<path fill="none" stroke="black" d="M584.188,-98C596.343,-98 612.886,-98 626.818,-98"/>
<polygon fill="black" stroke="black" points="626.847,-101.5 636.847,-98 626.847,-94.5001 626.847,-101.5"/>
<text text-anchor="middle" x="610.5" y="-101.4" font-family="arial" font-size="12.00">0.1</text>
</g>
<!-- 10 -->
<g id="node10" class="node"><title>10</title>
<ellipse fill="forestgreen" stroke="black" cx="18" cy="-94" rx="18" ry="18"/>
<text text-anchor="middle" x="18" y="-91.5" font-family="arial" font-size="10.00">Source</text>
</g>
<!-- 10&#45;&gt;1 -->
<g id="edge12" class="edge"><title>10&#45;&gt;1</title>
<path fill="none" stroke="black" d="M36.1884,-94C48.3426,-94 64.8865,-94 78.8185,-94"/>
<polygon fill="black" stroke="black" points="78.8473,-97.5001 88.8473,-94 78.8473,-90.5001 78.8473,-97.5001"/>
<text text-anchor="middle" x="62.5" y="-97.4" font-family="arial" font-size="12.00">1.0</text>
</g>
</g>
</svg>
