<?xml version="1.0" encoding="UTF-8" standalone="no"?>
<!DOCTYPE svg PUBLIC "-//W3C//DTD SVG 1.1//EN"
 "http://www.w3.org/Graphics/SVG/1.1/DTD/svg11.dtd">
<!-- Generated by graphviz version 2.38.0 (20140413.2041)
 -->
<!-- Title: %3 Pages: 1 -->
<svg width="723pt" height="116pt"
 viewBox="0.00 0.00 723.00 116.00" xmlns="http://www.w3.org/2000/svg" xmlns:xlink="http://www.w3.org/1999/xlink">
<g id="graph0" class="graph" transform="scale(1 1) rotate(0) translate(4 112)">
<title>%3</title>
<polygon fill="white" stroke="none" points="-4,4 -4,-112 719,-112 719,4 -4,4"/>
<!-- 1 -->
<g id="node1" class="node"><title>1</title>
<ellipse fill="powderblue" stroke="black" cx="107" cy="-72" rx="18" ry="18"/>
<text text-anchor="middle" x="107" y="-68.9" font-family="arial" font-size="12.00">P0</text>
</g>
<!-- 3 -->
<g id="node3" class="node"><title>3</title>
<ellipse fill="powderblue" stroke="black" cx="196" cy="-27" rx="18" ry="18"/>
<text text-anchor="middle" x="196" y="-23.9" font-family="arial" font-size="12.00">P2</text>
</g>
<!-- 1&#45;&gt;3 -->
<g id="edge1" class="edge"><title>1&#45;&gt;3</title>
<path fill="none" stroke="black" d="M123.554,-63.9549C136.544,-57.2358 155.3,-47.5344 170.336,-39.7574"/>
<polygon fill="black" stroke="black" points="172.307,-42.6785 179.581,-34.9754 169.091,-36.461 172.307,-42.6785"/>
<text text-anchor="middle" x="151.5" y="-56.4" font-family="arial" font-size="12.00">0.5</text>
</g>
<!-- 4 -->
<g id="node4" class="node"><title>4</title>
<ellipse fill="powderblue" stroke="black" cx="196" cy="-90" rx="18" ry="18"/>
<text text-anchor="middle" x="196" y="-86.9" font-family="arial" font-size="12.00">P3</text>
</g>
<!-- 1&#45;&gt;4 -->
<g id="edge3" class="edge"><title>1&#45;&gt;4</title>
<path fill="none" stroke="black" d="M124.774,-75.4706C137.051,-78.0105 153.964,-81.5098 168.116,-84.4378"/>
<polygon fill="black" stroke="black" points="167.775,-87.9414 178.277,-86.5401 169.194,-81.0865 167.775,-87.9414"/>
<text text-anchor="middle" x="151.5" y="-85.4" font-family="arial" font-size="12.00">2.0</text>
</g>
<!-- 2 -->
<g id="node2" class="node"><title>2</title>
<ellipse fill="powderblue" stroke="black" cx="107" cy="-18" rx="18" ry="18"/>
<text text-anchor="middle" x="107" y="-14.9" font-family="arial" font-size="12.00">P1</text>
</g>
<!-- 2&#45;&gt;3 -->
<g id="edge2" class="edge"><title>2&#45;&gt;3</title>
<path fill="none" stroke="black" d="M125.396,-17.4454C135.528,-17.3438 148.528,-17.5938 160,-19 162.747,-19.3368 165.595,-19.7974 168.425,-20.3288"/>
<polygon fill="black" stroke="black" points="167.877,-23.7909 178.389,-22.4688 169.347,-16.947 167.877,-23.7909"/>
<text text-anchor="middle" x="151.5" y="-22.4" font-family="arial" font-size="12.00">0.5</text>
</g>
<!-- 5 -->
<g id="node5" class="node"><title>5</title>
<ellipse fill="powderblue" stroke="black" cx="285" cy="-72" rx="18" ry="18"/>
<text text-anchor="middle" x="285" y="-68.9" font-family="arial" font-size="12.00">P4</text>
</g>
<!-- 3&#45;&gt;5 -->
<g id="edge4" class="edge"><title>3&#45;&gt;5</title>
<path fill="none" stroke="black" d="M212.554,-35.0451C225.544,-41.7642 244.3,-51.4656 259.336,-59.2426"/>
<polygon fill="black" stroke="black" points="258.091,-62.539 268.581,-64.0246 261.307,-56.3215 258.091,-62.539"/>
<text text-anchor="middle" x="240.5" y="-56.4" font-family="arial" font-size="12.00">2.5</text>
</g>
<!-- 6 -->
<g id="node6" class="node"><title>6</title>
<ellipse fill="powderblue" stroke="black" cx="285" cy="-18" rx="18" ry="18"/>
<text text-anchor="middle" x="285" y="-14.9" font-family="arial" font-size="12.00">P5</text>
</g>
<!-- 3&#45;&gt;6 -->
<g id="edge6" class="edge"><title>3&#45;&gt;6</title>
<path fill="none" stroke="black" d="M213.611,-22.4688C219.387,-21.0897 225.937,-19.7432 232,-19 239.887,-18.0332 248.496,-17.613 256.399,-17.4777"/>
<polygon fill="black" stroke="black" points="256.615,-20.9771 266.604,-17.4454 256.593,-13.9772 256.615,-20.9771"/>
<text text-anchor="middle" x="240.5" y="-22.4" font-family="arial" font-size="12.00">0.5</text>
</g>
<!-- 4&#45;&gt;5 -->
<g id="edge5" class="edge"><title>4&#45;&gt;5</title>
<path fill="none" stroke="black" d="M213.774,-86.5294C226.051,-83.9895 242.964,-80.4902 257.116,-77.5622"/>
<polygon fill="black" stroke="black" points="258.194,-80.9135 267.277,-75.4599 256.775,-74.0586 258.194,-80.9135"/>
<text text-anchor="middle" x="240.5" y="-85.4" font-family="arial" font-size="12.00">1.0</text>
</g>
<!-- 7 -->
<g id="node7" class="node"><title>7</title>
<ellipse fill="powderblue" stroke="black" cx="388" cy="-47" rx="18" ry="18"/>
<text text-anchor="middle" x="388" y="-43.9" font-family="arial" font-size="12.00">P6</text>
</g>
<!-- 5&#45;&gt;7 -->
<g id="edge7" class="edge"><title>5&#45;&gt;7</title>
<path fill="none" stroke="black" d="M302.678,-67.8718C318.395,-63.9815 342.2,-58.0891 360.513,-53.5561"/>
<polygon fill="black" stroke="black" points="361.431,-56.9347 370.297,-51.1344 359.749,-50.1397 361.431,-56.9347"/>
<text text-anchor="middle" x="336.5" y="-66.4" font-family="arial" font-size="12.00">0.667</text>
</g>
<!-- 6&#45;&gt;7 -->
<g id="edge8" class="edge"><title>6&#45;&gt;7</title>
<path fill="none" stroke="black" d="M302.678,-22.7888C318.395,-27.3014 342.2,-34.1366 360.513,-39.3949"/>
<polygon fill="black" stroke="black" points="359.72,-42.8084 370.297,-42.2041 361.651,-36.0802 359.72,-42.8084"/>
<text text-anchor="middle" x="336.5" y="-39.4" font-family="arial" font-size="12.00">0.5</text>
</g>
<!-- 8 -->
<g id="node8" class="node"><title>8</title>
<ellipse fill="powderblue" stroke="black" cx="491" cy="-47" rx="18" ry="18"/>
<text text-anchor="middle" x="491" y="-43.9" font-family="arial" font-size="12.00">P7</text>
</g>
<!-- 7&#45;&gt;8 -->
<g id="edge9" class="edge"><title>7&#45;&gt;8</title>
<path fill="none" stroke="black" d="M406.133,-47C421.586,-47 444.584,-47 462.591,-47"/>
<polygon fill="black" stroke="black" points="462.783,-50.5001 472.783,-47 462.783,-43.5001 462.783,-50.5001"/>
<text text-anchor="middle" x="439.5" y="-50.4" font-family="arial" font-size="12.00">0.444</text>
</g>
<!-- 9 -->
<g id="node9" class="node"><title>9</title>
<ellipse fill="powderblue" stroke="black" cx="594" cy="-47" rx="18" ry="18"/>
<text text-anchor="middle" x="594" y="-43.9" font-family="arial" font-size="12.00">P8</text>
</g>
<!-- 8&#45;&gt;9 -->
<g id="edge10" class="edge"><title>8&#45;&gt;9</title>
<path fill="none" stroke="black" d="M509.133,-47C524.586,-47 547.584,-47 565.591,-47"/>
<polygon fill="black" stroke="black" points="565.783,-50.5001 575.783,-47 565.783,-43.5001 565.783,-50.5001"/>
<text text-anchor="middle" x="542.5" y="-50.4" font-family="arial" font-size="12.00">0.148</text>
</g>
<!-- 11 -->
<g id="node11" class="node"><title>11</title>
<ellipse fill="darksalmon" stroke="black" cx="697" cy="-47" rx="18" ry="18"/>
<text text-anchor="middle" x="697" y="-43.9" font-family="arial" font-size="12.00">Sink</text>
</g>
<!-- 9&#45;&gt;11 -->
<g id="edge13" class="edge"><title>9&#45;&gt;11</title>
<path fill="none" stroke="black" d="M612.133,-47C627.586,-47 650.584,-47 668.591,-47"/>
<polygon fill="black" stroke="black" points="668.783,-50.5001 678.783,-47 668.783,-43.5001 668.783,-50.5001"/>
<text text-anchor="middle" x="645.5" y="-50.4" font-family="arial" font-size="12.00">0.296</text>
</g>
<!-- 10 -->
<g id="node10" class="node"><title>10</title>
<ellipse fill="forestgreen" stroke="black" cx="18" cy="-44" rx="18" ry="18"/>
<text text-anchor="middle" x="18" y="-41.5" font-family="arial" font-size="10.00">Source</text>
</g>
<!-- 10&#45;&gt;1 -->
<g id="edge12" class="edge"><title>10&#45;&gt;1</title>
<path fill="none" stroke="black" d="M35.364,-49.2666C47.8803,-53.2948 65.387,-58.9292 79.84,-63.5807"/>
<polygon fill="black" stroke="black" points="79.1179,-67.025 89.7093,-66.757 81.2625,-60.3616 79.1179,-67.025"/>
<text text-anchor="middle" x="62.5" y="-63.4" font-family="arial" font-size="12.00">1.0</text>
</g>
<!-- 10&#45;&gt;2 -->
<g id="edge11" class="edge"><title>10&#45;&gt;2</title>
<path fill="none" stroke="black" d="M35.3072,-38.1545C41.1726,-36.1195 47.857,-33.8777 54,-32 62.1725,-29.5019 71.1384,-27.0029 79.2891,-24.8221"/>
<polygon fill="black" stroke="black" points="80.2752,-28.1819 89.0564,-22.254 78.4951,-21.412 80.2752,-28.1819"/>
<text text-anchor="middle" x="62.5" y="-35.4" font-family="arial" font-size="12.00">1.0</text>
</g>
</g>
</svg>
