<?xml version="1.0" encoding="UTF-8" standalone="no"?>
<!DOCTYPE svg PUBLIC "-//W3C//DTD SVG 1.1//EN"
 "http://www.w3.org/Graphics/SVG/1.1/DTD/svg11.dtd">
<!-- Generated by graphviz version 2.38.0 (20140413.2041)
 -->
<!-- Title: %3 Pages: 1 -->
<svg width="723pt" height="123pt"
 viewBox="0.00 0.00 723.00 123.00" xmlns="http://www.w3.org/2000/svg" xmlns:xlink="http://www.w3.org/1999/xlink">
<g id="graph0" class="graph" transform="scale(1 1) rotate(0) translate(4 119)">
<title>%3</title>
<polygon fill="white" stroke="none" points="-4,4 -4,-119 719,-119 719,4 -4,4"/>
<!-- 1 -->
<g id="node1" class="node"><title>1</title>
<ellipse fill="powderblue" stroke="black" cx="107" cy="-40" rx="18" ry="18"/>
<text text-anchor="middle" x="107" y="-36.9" font-family="arial" font-size="12.00">P0</text>
</g>
<!-- 2 -->
<g id="node2" class="node"><title>2</title>
<ellipse fill="powderblue" stroke="black" cx="203" cy="-72" rx="18" ry="18"/>
<text text-anchor="middle" x="203" y="-68.9" font-family="arial" font-size="12.00">P1</text>
</g>
<!-- 1&#45;&gt;2 -->
<g id="edge1" class="edge"><title>1&#45;&gt;2</title>
<path fill="none" stroke="black" d="M124.374,-45.574C138.661,-50.4379 159.637,-57.5786 176.183,-63.2114"/>
<polygon fill="black" stroke="black" points="175.22,-66.5805 185.814,-66.4899 177.476,-59.9539 175.22,-66.5805"/>
<text text-anchor="middle" x="155" y="-62.4" font-family="arial" font-size="12.00">2.0</text>
</g>
<!-- 3 -->
<g id="node3" class="node"><title>3</title>
<ellipse fill="powderblue" stroke="black" cx="203" cy="-18" rx="18" ry="18"/>
<text text-anchor="middle" x="203" y="-14.9" font-family="arial" font-size="12.00">P2</text>
</g>
<!-- 1&#45;&gt;3 -->
<g id="edge2" class="edge"><title>1&#45;&gt;3</title>
<path fill="none" stroke="black" d="M124.805,-36.0668C138.841,-32.782 159.106,-28.039 175.351,-24.237"/>
<polygon fill="black" stroke="black" points="176.401,-27.5859 185.34,-21.8991 174.806,-20.7701 176.401,-27.5859"/>
<text text-anchor="middle" x="155" y="-35.4" font-family="arial" font-size="12.00">1.75</text>
</g>
<!-- 4 -->
<g id="node4" class="node"><title>4</title>
<ellipse fill="powderblue" stroke="black" cx="299" cy="-36" rx="18" ry="18"/>
<text text-anchor="middle" x="299" y="-32.9" font-family="arial" font-size="12.00">P3</text>
</g>
<!-- 2&#45;&gt;4 -->
<g id="edge3" class="edge"><title>2&#45;&gt;4</title>
<path fill="none" stroke="black" d="M219.946,-65.8931C234.26,-60.4109 255.531,-52.2647 272.254,-45.8602"/>
<polygon fill="black" stroke="black" points="273.889,-48.9819 281.976,-42.1369 271.386,-42.4449 273.889,-48.9819"/>
<text text-anchor="middle" x="251" y="-61.4" font-family="arial" font-size="12.00">2.0</text>
</g>
<!-- 5 -->
<g id="node5" class="node"><title>5</title>
<ellipse fill="powderblue" stroke="black" cx="299" cy="-90" rx="18" ry="18"/>
<text text-anchor="middle" x="299" y="-86.9" font-family="arial" font-size="12.00">P4</text>
</g>
<!-- 2&#45;&gt;5 -->
<g id="edge5" class="edge"><title>2&#45;&gt;5</title>
<path fill="none" stroke="black" d="M220.805,-75.218C234.754,-77.8891 254.856,-81.7384 271.05,-84.8393"/>
<polygon fill="black" stroke="black" points="270.543,-88.3059 281.023,-86.7491 271.86,-81.4308 270.543,-88.3059"/>
<text text-anchor="middle" x="251" y="-86.4" font-family="arial" font-size="12.00">4.0</text>
</g>
<!-- 3&#45;&gt;4 -->
<g id="edge4" class="edge"><title>3&#45;&gt;4</title>
<path fill="none" stroke="black" d="M221.028,-16.3619C232.946,-15.6802 249.15,-15.6906 263,-19 266.7,-19.8841 270.466,-21.2018 274.089,-22.7196"/>
<polygon fill="black" stroke="black" points="272.671,-25.9206 283.206,-27.0442 275.671,-19.5961 272.671,-25.9206"/>
<text text-anchor="middle" x="251" y="-22.4" font-family="arial" font-size="12.00">5.25</text>
</g>
<!-- 6 -->
<g id="node6" class="node"><title>6</title>
<ellipse fill="powderblue" stroke="black" cx="395" cy="-65" rx="18" ry="18"/>
<text text-anchor="middle" x="395" y="-61.9" font-family="arial" font-size="12.00">P5</text>
</g>
<!-- 4&#45;&gt;6 -->
<g id="edge6" class="edge"><title>4&#45;&gt;6</title>
<path fill="none" stroke="black" d="M316.374,-41.0514C330.574,-45.4324 351.382,-51.8517 367.88,-56.9418"/>
<polygon fill="black" stroke="black" points="366.911,-60.3056 377.499,-59.9092 368.975,-53.6166 366.911,-60.3056"/>
<text text-anchor="middle" x="347" y="-56.4" font-family="arial" font-size="12.00">5.25</text>
</g>
<!-- 5&#45;&gt;6 -->
<g id="edge7" class="edge"><title>5&#45;&gt;6</title>
<path fill="none" stroke="black" d="M316.805,-85.5305C330.841,-81.7977 351.106,-76.408 367.351,-72.0874"/>
<polygon fill="black" stroke="black" points="368.576,-75.3835 377.34,-69.4308 366.777,-68.6187 368.576,-75.3835"/>
<text text-anchor="middle" x="347" y="-83.4" font-family="arial" font-size="12.00">12.0</text>
</g>
<!-- 7 -->
<g id="node7" class="node"><title>7</title>
<ellipse fill="powderblue" stroke="black" cx="491" cy="-97" rx="18" ry="18"/>
<text text-anchor="middle" x="491" y="-93.9" font-family="arial" font-size="12.00">P6</text>
</g>
<!-- 6&#45;&gt;7 -->
<g id="edge8" class="edge"><title>6&#45;&gt;7</title>
<path fill="none" stroke="black" d="M412.374,-70.574C426.661,-75.4379 447.637,-82.5786 464.183,-88.2114"/>
<polygon fill="black" stroke="black" points="463.22,-91.5805 473.814,-91.4899 465.476,-84.9539 463.22,-91.5805"/>
<text text-anchor="middle" x="443" y="-87.4" font-family="arial" font-size="12.00">21.0</text>
</g>
<!-- 8 -->
<g id="node8" class="node"><title>8</title>
<ellipse fill="powderblue" stroke="black" cx="491" cy="-43" rx="18" ry="18"/>
<text text-anchor="middle" x="491" y="-39.9" font-family="arial" font-size="12.00">P7</text>
</g>
<!-- 6&#45;&gt;8 -->
<g id="edge9" class="edge"><title>6&#45;&gt;8</title>
<path fill="none" stroke="black" d="M412.805,-61.0668C426.841,-57.782 447.106,-53.039 463.351,-49.237"/>
<polygon fill="black" stroke="black" points="464.401,-52.5859 473.34,-46.8991 462.806,-45.7701 464.401,-52.5859"/>
<text text-anchor="middle" x="443" y="-59.4" font-family="arial" font-size="12.00">2.62</text>
</g>
<!-- 9 -->
<g id="node9" class="node"><title>9</title>
<ellipse fill="powderblue" stroke="black" cx="594" cy="-72" rx="18" ry="18"/>
<text text-anchor="middle" x="594" y="-68.9" font-family="arial" font-size="12.00">P8</text>
</g>
<!-- 7&#45;&gt;9 -->
<g id="edge10" class="edge"><title>7&#45;&gt;9</title>
<path fill="none" stroke="black" d="M508.678,-92.8718C524.395,-88.9815 548.2,-83.0891 566.513,-78.5561"/>
<polygon fill="black" stroke="black" points="567.431,-81.9347 576.297,-76.1344 565.749,-75.1397 567.431,-81.9347"/>
<text text-anchor="middle" x="542.5" y="-91.4" font-family="arial" font-size="12.00">84.0</text>
</g>
<!-- 8&#45;&gt;9 -->
<g id="edge11" class="edge"><title>8&#45;&gt;9</title>
<path fill="none" stroke="black" d="M508.678,-47.7888C524.395,-52.3014 548.2,-59.1366 566.513,-64.3949"/>
<polygon fill="black" stroke="black" points="565.72,-67.8084 576.297,-67.2041 567.651,-61.0802 565.72,-67.8084"/>
<text text-anchor="middle" x="542.5" y="-64.4" font-family="arial" font-size="12.00">0.656</text>
</g>
<!-- 11 -->
<g id="node11" class="node"><title>11</title>
<ellipse fill="darksalmon" stroke="black" cx="697" cy="-72" rx="18" ry="18"/>
<text text-anchor="middle" x="697" y="-68.9" font-family="arial" font-size="12.00">Sink</text>
</g>
<!-- 9&#45;&gt;11 -->
<g id="edge13" class="edge"><title>9&#45;&gt;11</title>
<path fill="none" stroke="black" d="M612.133,-72C627.586,-72 650.584,-72 668.591,-72"/>
<polygon fill="black" stroke="black" points="668.783,-75.5001 678.783,-72 668.783,-68.5001 668.783,-75.5001"/>
<text text-anchor="middle" x="645.5" y="-75.4" font-family="arial" font-size="12.00">0.219</text>
</g>
<!-- 10 -->
<g id="node10" class="node"><title>10</title>
<ellipse fill="forestgreen" stroke="black" cx="18" cy="-40" rx="18" ry="18"/>
<text text-anchor="middle" x="18" y="-37.5" font-family="arial" font-size="10.00">Source</text>
</g>
<!-- 10&#45;&gt;1 -->
<g id="edge12" class="edge"><title>10&#45;&gt;1</title>
<path fill="none" stroke="black" d="M36.1884,-40C48.3426,-40 64.8865,-40 78.8185,-40"/>
<polygon fill="black" stroke="black" points="78.8473,-43.5001 88.8473,-40 78.8473,-36.5001 78.8473,-43.5001"/>
<text text-anchor="middle" x="62.5" y="-43.4" font-family="arial" font-size="12.00">1.0</text>
</g>
</g>
</svg>
