<?xml version="1.0" encoding="UTF-8" standalone="no"?>
<!DOCTYPE svg PUBLIC "-//W3C//DTD SVG 1.1//EN"
 "http://www.w3.org/Graphics/SVG/1.1/DTD/svg11.dtd">
<!-- Generated by graphviz version 2.38.0 (20140413.2041)
 -->
<!-- Title: %3 Pages: 1 -->
<svg width="782pt" height="112pt"
 viewBox="0.00 0.00 782.00 112.00" xmlns="http://www.w3.org/2000/svg" xmlns:xlink="http://www.w3.org/1999/xlink">
<g id="graph0" class="graph" transform="scale(1 1) rotate(0) translate(4 108)">
<title>%3</title>
<polygon fill="white" stroke="none" points="-4,4 -4,-108 778,-108 778,4 -4,4"/>
<!-- 1 -->
<g id="node1" class="node"><title>1</title>
<ellipse fill="powderblue" stroke="black" cx="107" cy="-72" rx="18" ry="18"/>
<text text-anchor="middle" x="107" y="-68.9" font-family="arial" font-size="12.00">P0</text>
</g>
<!-- 3 -->
<g id="node3" class="node"><title>3</title>
<ellipse fill="powderblue" stroke="black" cx="210" cy="-47" rx="18" ry="18"/>
<text text-anchor="middle" x="210" y="-43.9" font-family="arial" font-size="12.00">P2</text>
</g>
<!-- 1&#45;&gt;3 -->
<g id="edge1" class="edge"><title>1&#45;&gt;3</title>
<path fill="none" stroke="black" d="M124.678,-67.8718C140.395,-63.9815 164.2,-58.0891 182.513,-53.5561"/>
<polygon fill="black" stroke="black" points="183.431,-56.9347 192.297,-51.1344 181.749,-50.1397 183.431,-56.9347"/>
<text text-anchor="middle" x="158.5" y="-66.4" font-family="arial" font-size="12.00">0.667</text>
</g>
<!-- 2 -->
<g id="node2" class="node"><title>2</title>
<ellipse fill="powderblue" stroke="black" cx="107" cy="-18" rx="18" ry="18"/>
<text text-anchor="middle" x="107" y="-14.9" font-family="arial" font-size="12.00">P1</text>
</g>
<!-- 2&#45;&gt;3 -->
<g id="edge2" class="edge"><title>2&#45;&gt;3</title>
<path fill="none" stroke="black" d="M124.678,-22.7888C140.395,-27.3014 164.2,-34.1366 182.513,-39.3949"/>
<polygon fill="black" stroke="black" points="181.72,-42.8084 192.297,-42.2041 183.651,-36.0802 181.72,-42.8084"/>
<text text-anchor="middle" x="158.5" y="-39.4" font-family="arial" font-size="12.00">0.333</text>
</g>
<!-- 4 -->
<g id="node4" class="node"><title>4</title>
<ellipse fill="powderblue" stroke="black" cx="319" cy="-79" rx="18" ry="18"/>
<text text-anchor="middle" x="319" y="-75.9" font-family="arial" font-size="12.00">P3</text>
</g>
<!-- 3&#45;&gt;4 -->
<g id="edge3" class="edge"><title>3&#45;&gt;4</title>
<path fill="none" stroke="black" d="M227.719,-52C244.837,-57.1194 271.691,-65.1507 291.667,-71.1248"/>
<polygon fill="black" stroke="black" points="290.815,-74.523 301.399,-74.0351 292.821,-67.8165 290.815,-74.523"/>
<text text-anchor="middle" x="264.5" y="-70.4" font-family="arial" font-size="12.00">0.0833</text>
</g>
<!-- 5 -->
<g id="node5" class="node"><title>5</title>
<ellipse fill="powderblue" stroke="black" cx="319" cy="-25" rx="18" ry="18"/>
<text text-anchor="middle" x="319" y="-21.9" font-family="arial" font-size="12.00">P4</text>
</g>
<!-- 3&#45;&gt;5 -->
<g id="edge4" class="edge"><title>3&#45;&gt;5</title>
<path fill="none" stroke="black" d="M227.71,-43.0636C233.494,-41.7322 240.024,-40.2637 246,-39 260.844,-35.8612 277.467,-32.6115 290.998,-30.034"/>
<polygon fill="black" stroke="black" points="291.917,-33.4223 301.093,-28.126 290.617,-26.5441 291.917,-33.4223"/>
<text text-anchor="middle" x="264.5" y="-42.4" font-family="arial" font-size="12.00">1.0</text>
</g>
<!-- 6 -->
<g id="node6" class="node"><title>6</title>
<ellipse fill="powderblue" stroke="black" cx="428" cy="-54" rx="18" ry="18"/>
<text text-anchor="middle" x="428" y="-50.9" font-family="arial" font-size="12.00">P5</text>
</g>
<!-- 4&#45;&gt;6 -->
<g id="edge5" class="edge"><title>4&#45;&gt;6</title>
<path fill="none" stroke="black" d="M336.719,-75.0938C353.758,-71.1126 380.445,-64.8773 400.392,-60.2168"/>
<polygon fill="black" stroke="black" points="401.457,-63.5623 410.399,-57.8788 399.865,-56.7459 401.457,-63.5623"/>
<text text-anchor="middle" x="373.5" y="-73.4" font-family="arial" font-size="12.00">0.0417</text>
</g>
<!-- 5&#45;&gt;6 -->
<g id="edge6" class="edge"><title>5&#45;&gt;6</title>
<path fill="none" stroke="black" d="M336.719,-29.5312C353.837,-34.1707 380.691,-41.4491 400.667,-46.8631"/>
<polygon fill="black" stroke="black" points="399.831,-50.2627 410.399,-49.5006 401.662,-43.5065 399.831,-50.2627"/>
<text text-anchor="middle" x="373.5" y="-46.4" font-family="arial" font-size="12.00">1.0</text>
</g>
<!-- 7 -->
<g id="node7" class="node"><title>7</title>
<ellipse fill="powderblue" stroke="black" cx="544" cy="-86" rx="18" ry="18"/>
<text text-anchor="middle" x="544" y="-82.9" font-family="arial" font-size="12.00">P6</text>
</g>
<!-- 6&#45;&gt;7 -->
<g id="edge7" class="edge"><title>6&#45;&gt;7</title>
<path fill="none" stroke="black" d="M445.821,-58.7217C464.535,-63.9747 495.005,-72.5276 516.838,-78.6563"/>
<polygon fill="black" stroke="black" points="515.907,-82.0301 526.481,-81.363 517.799,-75.2906 515.907,-82.0301"/>
<text text-anchor="middle" x="486" y="-78.4" font-family="arial" font-size="12.00">0.00833</text>
</g>
<!-- 8 -->
<g id="node8" class="node"><title>8</title>
<ellipse fill="powderblue" stroke="black" cx="544" cy="-32" rx="18" ry="18"/>
<text text-anchor="middle" x="544" y="-28.9" font-family="arial" font-size="12.00">P7</text>
</g>
<!-- 6&#45;&gt;8 -->
<g id="edge8" class="edge"><title>6&#45;&gt;8</title>
<path fill="none" stroke="black" d="M445.698,-50.0067C451.481,-48.6707 458.013,-47.2139 464,-46 481.136,-42.5253 500.463,-39.092 515.71,-36.495"/>
<polygon fill="black" stroke="black" points="516.722,-39.874 526.003,-34.7631 515.56,-32.9711 516.722,-39.874"/>
<text text-anchor="middle" x="486" y="-49.4" font-family="arial" font-size="12.00">0.25</text>
</g>
<!-- 9 -->
<g id="node9" class="node"><title>9</title>
<ellipse fill="powderblue" stroke="black" cx="653" cy="-61" rx="18" ry="18"/>
<text text-anchor="middle" x="653" y="-57.9" font-family="arial" font-size="12.00">P8</text>
</g>
<!-- 7&#45;&gt;9 -->
<g id="edge9" class="edge"><title>7&#45;&gt;9</title>
<path fill="none" stroke="black" d="M561.719,-82.0938C578.758,-78.1126 605.445,-71.8773 625.392,-67.2168"/>
<polygon fill="black" stroke="black" points="626.457,-70.5623 635.399,-64.8788 624.865,-63.7459 626.457,-70.5623"/>
<text text-anchor="middle" x="598.5" y="-80.4" font-family="arial" font-size="12.00">0.005</text>
</g>
<!-- 8&#45;&gt;9 -->
<g id="edge10" class="edge"><title>8&#45;&gt;9</title>
<path fill="none" stroke="black" d="M561.719,-36.5312C578.837,-41.1707 605.691,-48.4491 625.667,-53.8631"/>
<polygon fill="black" stroke="black" points="624.831,-57.2627 635.399,-56.5006 626.662,-50.5065 624.831,-57.2627"/>
<text text-anchor="middle" x="598.5" y="-53.4" font-family="arial" font-size="12.00">0.0833</text>
</g>
<!-- 11 -->
<g id="node11" class="node"><title>11</title>
<ellipse fill="darksalmon" stroke="black" cx="756" cy="-61" rx="18" ry="18"/>
<text text-anchor="middle" x="756" y="-57.9" font-family="arial" font-size="12.00">Sink</text>
</g>
<!-- 9&#45;&gt;11 -->
<g id="edge13" class="edge"><title>9&#45;&gt;11</title>
<path fill="none" stroke="black" d="M671.133,-61C686.586,-61 709.584,-61 727.591,-61"/>
<polygon fill="black" stroke="black" points="727.783,-64.5001 737.783,-61 727.783,-57.5001 727.783,-64.5001"/>
<text text-anchor="middle" x="704.5" y="-64.4" font-family="arial" font-size="12.00">0.005</text>
</g>
<!-- 10 -->
<g id="node10" class="node"><title>10</title>
<ellipse fill="forestgreen" stroke="black" cx="18" cy="-44" rx="18" ry="18"/>
<text text-anchor="middle" x="18" y="-41.5" font-family="arial" font-size="10.00">Source</text>
</g>
<!-- 10&#45;&gt;1 -->
<g id="edge12" class="edge"><title>10&#45;&gt;1</title>
<path fill="none" stroke="black" d="M35.364,-49.2666C47.8803,-53.2948 65.387,-58.9292 79.84,-63.5807"/>
<polygon fill="black" stroke="black" points="79.1179,-67.025 89.7093,-66.757 81.2625,-60.3616 79.1179,-67.025"/>
<text text-anchor="middle" x="62.5" y="-63.4" font-family="arial" font-size="12.00">1.0</text>
</g>
<!-- 10&#45;&gt;2 -->
<g id="edge11" class="edge"><title>10&#45;&gt;2</title>
<path fill="none" stroke="black" d="M35.3072,-38.1545C41.1726,-36.1195 47.857,-33.8777 54,-32 62.1725,-29.5019 71.1384,-27.0029 79.2891,-24.8221"/>
<polygon fill="black" stroke="black" points="80.2752,-28.1819 89.0564,-22.254 78.4951,-21.412 80.2752,-28.1819"/>
<text text-anchor="middle" x="62.5" y="-35.4" font-family="arial" font-size="12.00">1.0</text>
</g>
</g>
</svg>
