<?xml version="1.0" encoding="UTF-8" standalone="no"?>
<!DOCTYPE svg PUBLIC "-//W3C//DTD SVG 1.1//EN"
 "http://www.w3.org/Graphics/SVG/1.1/DTD/svg11.dtd">
<!-- Generated by graphviz version 2.38.0 (20140413.2041)
 -->
<!-- Title: %3 Pages: 1 -->
<svg width="723pt" height="152pt"
 viewBox="0.00 0.00 723.00 152.00" xmlns="http://www.w3.org/2000/svg" xmlns:xlink="http://www.w3.org/1999/xlink">
<g id="graph0" class="graph" transform="scale(1 1) rotate(0) translate(4 148)">
<title>%3</title>
<polygon fill="white" stroke="none" points="-4,4 -4,-148 719,-148 719,4 -4,4"/>
<!-- 1 -->
<g id="node1" class="node"><title>1</title>
<ellipse fill="powderblue" stroke="black" cx="107" cy="-97" rx="18" ry="18"/>
<text text-anchor="middle" x="107" y="-93.9" font-family="arial" font-size="12.00">P0</text>
</g>
<!-- 3 -->
<g id="node3" class="node"><title>3</title>
<ellipse fill="powderblue" stroke="black" cx="210" cy="-72" rx="18" ry="18"/>
<text text-anchor="middle" x="210" y="-68.9" font-family="arial" font-size="12.00">P2</text>
</g>
<!-- 1&#45;&gt;3 -->
<g id="edge1" class="edge"><title>1&#45;&gt;3</title>
<path fill="none" stroke="black" d="M124.678,-92.8718C140.395,-88.9815 164.2,-83.0891 182.513,-78.5561"/>
<polygon fill="black" stroke="black" points="183.431,-81.9347 192.297,-76.1344 181.749,-75.1397 183.431,-81.9347"/>
<text text-anchor="middle" x="158.5" y="-91.4" font-family="arial" font-size="12.00">0.667</text>
</g>
<!-- 2 -->
<g id="node2" class="node"><title>2</title>
<ellipse fill="powderblue" stroke="black" cx="107" cy="-43" rx="18" ry="18"/>
<text text-anchor="middle" x="107" y="-39.9" font-family="arial" font-size="12.00">P1</text>
</g>
<!-- 2&#45;&gt;3 -->
<g id="edge2" class="edge"><title>2&#45;&gt;3</title>
<path fill="none" stroke="black" d="M124.678,-47.7888C140.395,-52.3014 164.2,-59.1366 182.513,-64.3949"/>
<polygon fill="black" stroke="black" points="181.72,-67.8084 192.297,-67.2041 183.651,-61.0802 181.72,-67.8084"/>
<text text-anchor="middle" x="158.5" y="-64.4" font-family="arial" font-size="12.00">1.0</text>
</g>
<!-- 4 -->
<g id="node4" class="node"><title>4</title>
<ellipse fill="powderblue" stroke="black" cx="299" cy="-72" rx="18" ry="18"/>
<text text-anchor="middle" x="299" y="-68.9" font-family="arial" font-size="12.00">P3</text>
</g>
<!-- 3&#45;&gt;4 -->
<g id="edge3" class="edge"><title>3&#45;&gt;4</title>
<path fill="none" stroke="black" d="M228.188,-72C240.343,-72 256.886,-72 270.818,-72"/>
<polygon fill="black" stroke="black" points="270.847,-75.5001 280.847,-72 270.847,-68.5001 270.847,-75.5001"/>
<text text-anchor="middle" x="254.5" y="-75.4" font-family="arial" font-size="12.00">1.0</text>
</g>
<!-- 5 -->
<g id="node5" class="node"><title>5</title>
<ellipse fill="powderblue" stroke="black" cx="388" cy="-126" rx="18" ry="18"/>
<text text-anchor="middle" x="388" y="-122.9" font-family="arial" font-size="12.00">P4</text>
</g>
<!-- 4&#45;&gt;5 -->
<g id="edge4" class="edge"><title>4&#45;&gt;5</title>
<path fill="none" stroke="black" d="M314.758,-81.1604C328.132,-89.4612 348.066,-101.834 363.608,-111.481"/>
<polygon fill="black" stroke="black" points="361.827,-114.495 372.169,-116.795 365.519,-108.547 361.827,-114.495"/>
<text text-anchor="middle" x="343.5" y="-106.4" font-family="arial" font-size="12.00">1.0</text>
</g>
<!-- 6 -->
<g id="node6" class="node"><title>6</title>
<ellipse fill="powderblue" stroke="black" cx="388" cy="-72" rx="18" ry="18"/>
<text text-anchor="middle" x="388" y="-68.9" font-family="arial" font-size="12.00">P5</text>
</g>
<!-- 4&#45;&gt;6 -->
<g id="edge5" class="edge"><title>4&#45;&gt;6</title>
<path fill="none" stroke="black" d="M317.188,-72C329.343,-72 345.886,-72 359.818,-72"/>
<polygon fill="black" stroke="black" points="359.847,-75.5001 369.847,-72 359.847,-68.5001 359.847,-75.5001"/>
<text text-anchor="middle" x="343.5" y="-75.4" font-family="arial" font-size="12.00">1.0</text>
</g>
<!-- 7 -->
<g id="node7" class="node"><title>7</title>
<ellipse fill="powderblue" stroke="black" cx="388" cy="-18" rx="18" ry="18"/>
<text text-anchor="middle" x="388" y="-14.9" font-family="arial" font-size="12.00">P6</text>
</g>
<!-- 4&#45;&gt;7 -->
<g id="edge6" class="edge"><title>4&#45;&gt;7</title>
<path fill="none" stroke="black" d="M314.758,-62.8396C328.132,-54.5388 348.066,-42.1662 363.608,-32.519"/>
<polygon fill="black" stroke="black" points="365.519,-35.4527 372.169,-27.2053 361.827,-29.5052 365.519,-35.4527"/>
<text text-anchor="middle" x="343.5" y="-53.4" font-family="arial" font-size="12.00">1.0</text>
</g>
<!-- 8 -->
<g id="node8" class="node"><title>8</title>
<ellipse fill="powderblue" stroke="black" cx="491" cy="-72" rx="18" ry="18"/>
<text text-anchor="middle" x="491" y="-68.9" font-family="arial" font-size="12.00">P7</text>
</g>
<!-- 5&#45;&gt;8 -->
<g id="edge7" class="edge"><title>5&#45;&gt;8</title>
<path fill="none" stroke="black" d="M404.34,-117.799C420.674,-109.065 446.751,-95.1234 465.847,-84.9137"/>
<polygon fill="black" stroke="black" points="467.678,-87.9032 474.847,-80.1017 464.378,-81.7301 467.678,-87.9032"/>
<text text-anchor="middle" x="439.5" y="-109.4" font-family="arial" font-size="12.00">2.0</text>
</g>
<!-- 6&#45;&gt;8 -->
<g id="edge8" class="edge"><title>6&#45;&gt;8</title>
<path fill="none" stroke="black" d="M406.133,-72C421.586,-72 444.584,-72 462.591,-72"/>
<polygon fill="black" stroke="black" points="462.783,-75.5001 472.783,-72 462.783,-68.5001 462.783,-75.5001"/>
<text text-anchor="middle" x="439.5" y="-75.4" font-family="arial" font-size="12.00">0.333</text>
</g>
<!-- 7&#45;&gt;8 -->
<g id="edge9" class="edge"><title>7&#45;&gt;8</title>
<path fill="none" stroke="black" d="M404.34,-26.2014C420.674,-34.9346 446.751,-48.8766 465.847,-59.0863"/>
<polygon fill="black" stroke="black" points="464.378,-62.2699 474.847,-63.8983 467.678,-56.0968 464.378,-62.2699"/>
<text text-anchor="middle" x="439.5" y="-56.4" font-family="arial" font-size="12.00">1.25</text>
</g>
<!-- 9 -->
<g id="node9" class="node"><title>9</title>
<ellipse fill="powderblue" stroke="black" cx="594" cy="-72" rx="18" ry="18"/>
<text text-anchor="middle" x="594" y="-68.9" font-family="arial" font-size="12.00">P8</text>
</g>
<!-- 8&#45;&gt;9 -->
<g id="edge10" class="edge"><title>8&#45;&gt;9</title>
<path fill="none" stroke="black" d="M509.133,-72C524.586,-72 547.584,-72 565.591,-72"/>
<polygon fill="black" stroke="black" points="565.783,-75.5001 575.783,-72 565.783,-68.5001 565.783,-75.5001"/>
<text text-anchor="middle" x="542.5" y="-75.4" font-family="arial" font-size="12.00">0.312</text>
</g>
<!-- 11 -->
<g id="node11" class="node"><title>11</title>
<ellipse fill="darksalmon" stroke="black" cx="697" cy="-72" rx="18" ry="18"/>
<text text-anchor="middle" x="697" y="-68.9" font-family="arial" font-size="12.00">Sink</text>
</g>
<!-- 9&#45;&gt;11 -->
<g id="edge13" class="edge"><title>9&#45;&gt;11</title>
<path fill="none" stroke="black" d="M612.133,-72C627.586,-72 650.584,-72 668.591,-72"/>
<polygon fill="black" stroke="black" points="668.783,-75.5001 678.783,-72 668.783,-68.5001 668.783,-75.5001"/>
<text text-anchor="middle" x="645.5" y="-75.4" font-family="arial" font-size="12.00">0.208</text>
</g>
<!-- 10 -->
<g id="node10" class="node"><title>10</title>
<ellipse fill="forestgreen" stroke="black" cx="18" cy="-69" rx="18" ry="18"/>
<text text-anchor="middle" x="18" y="-66.5" font-family="arial" font-size="10.00">Source</text>
</g>
<!-- 10&#45;&gt;1 -->
<g id="edge12" class="edge"><title>10&#45;&gt;1</title>
<path fill="none" stroke="black" d="M35.364,-74.2666C47.8803,-78.2948 65.387,-83.9292 79.84,-88.5807"/>
<polygon fill="black" stroke="black" points="79.1179,-92.025 89.7093,-91.757 81.2625,-85.3616 79.1179,-92.025"/>
<text text-anchor="middle" x="62.5" y="-88.4" font-family="arial" font-size="12.00">1.0</text>
</g>
<!-- 10&#45;&gt;2 -->
<g id="edge11" class="edge"><title>10&#45;&gt;2</title>
<path fill="none" stroke="black" d="M35.3072,-63.1545C41.1726,-61.1195 47.857,-58.8777 54,-57 62.1725,-54.5019 71.1384,-52.0029 79.2891,-49.8221"/>
<polygon fill="black" stroke="black" points="80.2752,-53.1819 89.0564,-47.254 78.4951,-46.412 80.2752,-53.1819"/>
<text text-anchor="middle" x="62.5" y="-60.4" font-family="arial" font-size="12.00">1.0</text>
</g>
</g>
</svg>
