<?xml version="1.0" encoding="UTF-8" standalone="no"?>
<!DOCTYPE svg PUBLIC "-//W3C//DTD SVG 1.1//EN"
 "http://www.w3.org/Graphics/SVG/1.1/DTD/svg11.dtd">
<!-- Generated by graphviz version 2.38.0 (20140413.2041)
 -->
<!-- Title: %3 Pages: 1 -->
<svg width="716pt" height="105pt"
 viewBox="0.00 0.00 716.00 105.00" xmlns="http://www.w3.org/2000/svg" xmlns:xlink="http://www.w3.org/1999/xlink">
<g id="graph0" class="graph" transform="scale(1 1) rotate(0) translate(4 101)">
<title>%3</title>
<polygon fill="white" stroke="none" points="-4,4 -4,-101 712,-101 712,4 -4,4"/>
<!-- 1 -->
<g id="node1" class="node"><title>1</title>
<ellipse fill="powderblue" stroke="black" cx="107" cy="-40" rx="18" ry="18"/>
<text text-anchor="middle" x="107" y="-36.9" font-family="arial" font-size="12.00">P0</text>
</g>
<!-- 2 -->
<g id="node2" class="node"><title>2</title>
<ellipse fill="powderblue" stroke="black" cx="210" cy="-72" rx="18" ry="18"/>
<text text-anchor="middle" x="210" y="-68.9" font-family="arial" font-size="12.00">P1</text>
</g>
<!-- 1&#45;&gt;2 -->
<g id="edge1" class="edge"><title>1&#45;&gt;2</title>
<path fill="none" stroke="black" d="M124.678,-45.2841C140.562,-50.3168 164.709,-57.9671 183.098,-63.7933"/>
<polygon fill="black" stroke="black" points="182.042,-67.1303 192.632,-66.8142 184.156,-60.4572 182.042,-67.1303"/>
<text text-anchor="middle" x="158.5" y="-63.4" font-family="arial" font-size="12.00">1.0</text>
</g>
<!-- 3 -->
<g id="node3" class="node"><title>3</title>
<ellipse fill="powderblue" stroke="black" cx="210" cy="-18" rx="18" ry="18"/>
<text text-anchor="middle" x="210" y="-14.9" font-family="arial" font-size="12.00">P2</text>
</g>
<!-- 1&#45;&gt;3 -->
<g id="edge2" class="edge"><title>1&#45;&gt;3</title>
<path fill="none" stroke="black" d="M124.723,-36.1215C130.507,-34.7948 137.035,-33.3144 143,-32 155.917,-29.154 170.28,-26.0947 182.301,-23.5641"/>
<polygon fill="black" stroke="black" points="183.097,-26.9733 192.166,-21.495 181.66,-20.1224 183.097,-26.9733"/>
<text text-anchor="middle" x="158.5" y="-35.4" font-family="arial" font-size="12.00">0.333</text>
</g>
<!-- 4 -->
<g id="node4" class="node"><title>4</title>
<ellipse fill="powderblue" stroke="black" cx="313" cy="-72" rx="18" ry="18"/>
<text text-anchor="middle" x="313" y="-68.9" font-family="arial" font-size="12.00">P3</text>
</g>
<!-- 2&#45;&gt;4 -->
<g id="edge3" class="edge"><title>2&#45;&gt;4</title>
<path fill="none" stroke="black" d="M228.133,-72C243.586,-72 266.584,-72 284.591,-72"/>
<polygon fill="black" stroke="black" points="284.783,-75.5001 294.783,-72 284.783,-68.5001 284.783,-75.5001"/>
<text text-anchor="middle" x="261.5" y="-75.4" font-family="arial" font-size="12.00">1.0</text>
</g>
<!-- 5 -->
<g id="node5" class="node"><title>5</title>
<ellipse fill="powderblue" stroke="black" cx="313" cy="-18" rx="18" ry="18"/>
<text text-anchor="middle" x="313" y="-14.9" font-family="arial" font-size="12.00">P4</text>
</g>
<!-- 3&#45;&gt;5 -->
<g id="edge4" class="edge"><title>3&#45;&gt;5</title>
<path fill="none" stroke="black" d="M228.133,-18C243.586,-18 266.584,-18 284.591,-18"/>
<polygon fill="black" stroke="black" points="284.783,-21.5001 294.783,-18 284.783,-14.5001 284.783,-21.5001"/>
<text text-anchor="middle" x="261.5" y="-21.4" font-family="arial" font-size="12.00">0.667</text>
</g>
<!-- 6 -->
<g id="node6" class="node"><title>6</title>
<ellipse fill="powderblue" stroke="black" cx="409" cy="-47" rx="18" ry="18"/>
<text text-anchor="middle" x="409" y="-43.9" font-family="arial" font-size="12.00">P5</text>
</g>
<!-- 4&#45;&gt;6 -->
<g id="edge5" class="edge"><title>4&#45;&gt;6</title>
<path fill="none" stroke="black" d="M330.805,-67.5305C344.841,-63.7977 365.106,-58.408 381.351,-54.0874"/>
<polygon fill="black" stroke="black" points="382.576,-57.3835 391.34,-51.4308 380.777,-50.6187 382.576,-57.3835"/>
<text text-anchor="middle" x="361" y="-65.4" font-family="arial" font-size="12.00">0.25</text>
</g>
<!-- 5&#45;&gt;6 -->
<g id="edge6" class="edge"><title>5&#45;&gt;6</title>
<path fill="none" stroke="black" d="M330.374,-23.0514C344.574,-27.4324 365.382,-33.8517 381.88,-38.9418"/>
<polygon fill="black" stroke="black" points="380.911,-42.3056 391.499,-41.9092 382.975,-35.6166 380.911,-42.3056"/>
<text text-anchor="middle" x="361" y="-39.4" font-family="arial" font-size="12.00">1.33</text>
</g>
<!-- 7 -->
<g id="node7" class="node"><title>7</title>
<ellipse fill="powderblue" stroke="black" cx="505" cy="-79" rx="18" ry="18"/>
<text text-anchor="middle" x="505" y="-75.9" font-family="arial" font-size="12.00">P6</text>
</g>
<!-- 6&#45;&gt;7 -->
<g id="edge7" class="edge"><title>6&#45;&gt;7</title>
<path fill="none" stroke="black" d="M426.374,-52.574C440.661,-57.4379 461.637,-64.5786 478.183,-70.2114"/>
<polygon fill="black" stroke="black" points="477.22,-73.5805 487.814,-73.4899 479.476,-66.9539 477.22,-73.5805"/>
<text text-anchor="middle" x="457" y="-69.4" font-family="arial" font-size="12.00">2.67</text>
</g>
<!-- 8 -->
<g id="node8" class="node"><title>8</title>
<ellipse fill="powderblue" stroke="black" cx="505" cy="-25" rx="18" ry="18"/>
<text text-anchor="middle" x="505" y="-21.9" font-family="arial" font-size="12.00">P7</text>
</g>
<!-- 6&#45;&gt;8 -->
<g id="edge8" class="edge"><title>6&#45;&gt;8</title>
<path fill="none" stroke="black" d="M426.805,-43.0668C440.841,-39.782 461.106,-35.039 477.351,-31.237"/>
<polygon fill="black" stroke="black" points="478.401,-34.5859 487.34,-28.8991 476.806,-27.7701 478.401,-34.5859"/>
<text text-anchor="middle" x="457" y="-42.4" font-family="arial" font-size="12.00">0.2</text>
</g>
<!-- 9 -->
<g id="node9" class="node"><title>9</title>
<ellipse fill="powderblue" stroke="black" cx="601" cy="-54" rx="18" ry="18"/>
<text text-anchor="middle" x="601" y="-50.9" font-family="arial" font-size="12.00">P8</text>
</g>
<!-- 7&#45;&gt;9 -->
<g id="edge9" class="edge"><title>7&#45;&gt;9</title>
<path fill="none" stroke="black" d="M522.805,-74.5305C536.841,-70.7977 557.106,-65.408 573.351,-61.0874"/>
<polygon fill="black" stroke="black" points="574.576,-64.3835 583.34,-58.4308 572.777,-57.6187 574.576,-64.3835"/>
<text text-anchor="middle" x="553" y="-72.4" font-family="arial" font-size="12.00">5.33</text>
</g>
<!-- 8&#45;&gt;9 -->
<g id="edge10" class="edge"><title>8&#45;&gt;9</title>
<path fill="none" stroke="black" d="M522.374,-30.0514C536.574,-34.4324 557.382,-40.8517 573.88,-45.9418"/>
<polygon fill="black" stroke="black" points="572.911,-49.3056 583.499,-48.9092 574.975,-42.6166 572.911,-49.3056"/>
<text text-anchor="middle" x="553" y="-45.4" font-family="arial" font-size="12.00">0.6</text>
</g>
<!-- 11 -->
<g id="node11" class="node"><title>11</title>
<ellipse fill="darksalmon" stroke="black" cx="690" cy="-54" rx="18" ry="18"/>
<text text-anchor="middle" x="690" y="-50.9" font-family="arial" font-size="12.00">Sink</text>
</g>
<!-- 9&#45;&gt;11 -->
<g id="edge12" class="edge"><title>9&#45;&gt;11</title>
<path fill="none" stroke="black" d="M619.188,-54C631.343,-54 647.886,-54 661.818,-54"/>
<polygon fill="black" stroke="black" points="661.847,-57.5001 671.847,-54 661.847,-50.5001 661.847,-57.5001"/>
<text text-anchor="middle" x="645.5" y="-57.4" font-family="arial" font-size="12.00">0.6</text>
</g>
<!-- 10 -->
<g id="node10" class="node"><title>10</title>
<ellipse fill="forestgreen" stroke="black" cx="18" cy="-40" rx="18" ry="18"/>
<text text-anchor="middle" x="18" y="-37.5" font-family="arial" font-size="10.00">Source</text>
</g>
<!-- 10&#45;&gt;1 -->
<g id="edge11" class="edge"><title>10&#45;&gt;1</title>
<path fill="none" stroke="black" d="M36.1884,-40C48.3426,-40 64.8865,-40 78.8185,-40"/>
<polygon fill="black" stroke="black" points="78.8473,-43.5001 88.8473,-40 78.8473,-36.5001 78.8473,-43.5001"/>
<text text-anchor="middle" x="62.5" y="-43.4" font-family="arial" font-size="12.00">1.0</text>
</g>
</g>
</svg>
