<?xml version="1.0" encoding="UTF-8" standalone="no"?>
<!DOCTYPE svg PUBLIC "-//W3C//DTD SVG 1.1//EN"
 "http://www.w3.org/Graphics/SVG/1.1/DTD/svg11.dtd">
<!-- Generated by graphviz version 2.38.0 (20140413.2041)
 -->
<!-- Title: %3 Pages: 1 -->
<svg width="819pt" height="116pt"
 viewBox="0.00 0.00 819.00 116.00" xmlns="http://www.w3.org/2000/svg" xmlns:xlink="http://www.w3.org/1999/xlink">
<g id="graph0" class="graph" transform="scale(1 1) rotate(0) translate(4 112)">
<title>%3</title>
<polygon fill="white" stroke="none" points="-4,4 -4,-112 815,-112 815,4 -4,4"/>
<!-- 1 -->
<g id="node1" class="node"><title>1</title>
<ellipse fill="powderblue" stroke="black" cx="107" cy="-72" rx="18" ry="18"/>
<text text-anchor="middle" x="107" y="-68.9" font-family="arial" font-size="12.00">P0</text>
</g>
<!-- 3 -->
<g id="node3" class="node"><title>3</title>
<ellipse fill="powderblue" stroke="black" cx="196" cy="-36" rx="18" ry="18"/>
<text text-anchor="middle" x="196" y="-32.9" font-family="arial" font-size="12.00">P2</text>
</g>
<!-- 1&#45;&gt;3 -->
<g id="edge1" class="edge"><title>1&#45;&gt;3</title>
<path fill="none" stroke="black" d="M123.957,-65.397C136.711,-60.1194 154.832,-52.6211 169.58,-46.5186"/>
<polygon fill="black" stroke="black" points="171.242,-49.6187 179.144,-42.5611 168.566,-43.1506 171.242,-49.6187"/>
<text text-anchor="middle" x="151.5" y="-60.4" font-family="arial" font-size="12.00">1.0</text>
</g>
<!-- 4 -->
<g id="node4" class="node"><title>4</title>
<ellipse fill="powderblue" stroke="black" cx="196" cy="-90" rx="18" ry="18"/>
<text text-anchor="middle" x="196" y="-86.9" font-family="arial" font-size="12.00">P3</text>
</g>
<!-- 1&#45;&gt;4 -->
<g id="edge3" class="edge"><title>1&#45;&gt;4</title>
<path fill="none" stroke="black" d="M124.774,-75.4706C137.051,-78.0105 153.964,-81.5098 168.116,-84.4378"/>
<polygon fill="black" stroke="black" points="167.775,-87.9414 178.277,-86.5401 169.194,-81.0865 167.775,-87.9414"/>
<text text-anchor="middle" x="151.5" y="-85.4" font-family="arial" font-size="12.00">0.5</text>
</g>
<!-- 2 -->
<g id="node2" class="node"><title>2</title>
<ellipse fill="powderblue" stroke="black" cx="107" cy="-18" rx="18" ry="18"/>
<text text-anchor="middle" x="107" y="-14.9" font-family="arial" font-size="12.00">P1</text>
</g>
<!-- 2&#45;&gt;3 -->
<g id="edge2" class="edge"><title>2&#45;&gt;3</title>
<path fill="none" stroke="black" d="M125.096,-16.4962C135.355,-16.0439 148.586,-16.2589 160,-19 163.699,-19.8883 167.464,-21.2084 171.087,-22.7273"/>
<polygon fill="black" stroke="black" points="169.669,-25.9283 180.204,-27.0524 172.669,-19.6039 169.669,-25.9283"/>
<text text-anchor="middle" x="151.5" y="-22.4" font-family="arial" font-size="12.00">5.0</text>
</g>
<!-- 5 -->
<g id="node5" class="node"><title>5</title>
<ellipse fill="powderblue" stroke="black" cx="299" cy="-65" rx="18" ry="18"/>
<text text-anchor="middle" x="299" y="-61.9" font-family="arial" font-size="12.00">P4</text>
</g>
<!-- 3&#45;&gt;5 -->
<g id="edge4" class="edge"><title>3&#45;&gt;5</title>
<path fill="none" stroke="black" d="M213.678,-40.7888C229.395,-45.3014 253.2,-52.1366 271.513,-57.3949"/>
<polygon fill="black" stroke="black" points="270.72,-60.8084 281.297,-60.2041 272.651,-54.0802 270.72,-60.8084"/>
<text text-anchor="middle" x="247.5" y="-57.4" font-family="arial" font-size="12.00">1.0</text>
</g>
<!-- 4&#45;&gt;5 -->
<g id="edge5" class="edge"><title>4&#45;&gt;5</title>
<path fill="none" stroke="black" d="M213.678,-85.8718C229.395,-81.9815 253.2,-76.0891 271.513,-71.5561"/>
<polygon fill="black" stroke="black" points="272.431,-74.9347 281.297,-69.1344 270.749,-68.1397 272.431,-74.9347"/>
<text text-anchor="middle" x="247.5" y="-84.4" font-family="arial" font-size="12.00">0.667</text>
</g>
<!-- 6 -->
<g id="node6" class="node"><title>6</title>
<ellipse fill="powderblue" stroke="black" cx="395" cy="-65" rx="18" ry="18"/>
<text text-anchor="middle" x="395" y="-61.9" font-family="arial" font-size="12.00">P5</text>
</g>
<!-- 5&#45;&gt;6 -->
<g id="edge6" class="edge"><title>5&#45;&gt;6</title>
<path fill="none" stroke="black" d="M317.241,-65C331.022,-65 350.6,-65 366.535,-65"/>
<polygon fill="black" stroke="black" points="366.868,-68.5001 376.868,-65 366.868,-61.5001 366.868,-68.5001"/>
<text text-anchor="middle" x="347" y="-68.4" font-family="arial" font-size="12.00">1.33</text>
</g>
<!-- 7 -->
<g id="node7" class="node"><title>7</title>
<ellipse fill="powderblue" stroke="black" cx="491" cy="-65" rx="18" ry="18"/>
<text text-anchor="middle" x="491" y="-61.9" font-family="arial" font-size="12.00">P6</text>
</g>
<!-- 6&#45;&gt;7 -->
<g id="edge7" class="edge"><title>6&#45;&gt;7</title>
<path fill="none" stroke="black" d="M413.241,-65C427.022,-65 446.6,-65 462.535,-65"/>
<polygon fill="black" stroke="black" points="462.868,-68.5001 472.868,-65 462.868,-61.5001 462.868,-68.5001"/>
<text text-anchor="middle" x="443" y="-68.4" font-family="arial" font-size="12.00">2.67</text>
</g>
<!-- 8 -->
<g id="node8" class="node"><title>8</title>
<ellipse fill="powderblue" stroke="black" cx="587" cy="-65" rx="18" ry="18"/>
<text text-anchor="middle" x="587" y="-61.9" font-family="arial" font-size="12.00">P7</text>
</g>
<!-- 7&#45;&gt;8 -->
<g id="edge8" class="edge"><title>7&#45;&gt;8</title>
<path fill="none" stroke="black" d="M509.241,-65C523.022,-65 542.6,-65 558.535,-65"/>
<polygon fill="black" stroke="black" points="558.868,-68.5001 568.868,-65 558.868,-61.5001 558.868,-68.5001"/>
<text text-anchor="middle" x="539" y="-68.4" font-family="arial" font-size="12.00">1.78</text>
</g>
<!-- 9 -->
<g id="node9" class="node"><title>9</title>
<ellipse fill="powderblue" stroke="black" cx="690" cy="-65" rx="18" ry="18"/>
<text text-anchor="middle" x="690" y="-61.9" font-family="arial" font-size="12.00">P8</text>
</g>
<!-- 8&#45;&gt;9 -->
<g id="edge9" class="edge"><title>8&#45;&gt;9</title>
<path fill="none" stroke="black" d="M605.133,-65C620.586,-65 643.584,-65 661.591,-65"/>
<polygon fill="black" stroke="black" points="661.783,-68.5001 671.783,-65 661.783,-61.5001 661.783,-68.5001"/>
<text text-anchor="middle" x="638.5" y="-68.4" font-family="arial" font-size="12.00">0.889</text>
</g>
<!-- 11 -->
<g id="node11" class="node"><title>11</title>
<ellipse fill="darksalmon" stroke="black" cx="793" cy="-65" rx="18" ry="18"/>
<text text-anchor="middle" x="793" y="-61.9" font-family="arial" font-size="12.00">Sink</text>
</g>
<!-- 9&#45;&gt;11 -->
<g id="edge12" class="edge"><title>9&#45;&gt;11</title>
<path fill="none" stroke="black" d="M708.133,-65C723.586,-65 746.584,-65 764.591,-65"/>
<polygon fill="black" stroke="black" points="764.783,-68.5001 774.783,-65 764.783,-61.5001 764.783,-68.5001"/>
<text text-anchor="middle" x="741.5" y="-68.4" font-family="arial" font-size="12.00">0.889</text>
</g>
<!-- 10 -->
<g id="node10" class="node"><title>10</title>
<ellipse fill="forestgreen" stroke="black" cx="18" cy="-44" rx="18" ry="18"/>
<text text-anchor="middle" x="18" y="-41.5" font-family="arial" font-size="10.00">Source</text>
</g>
<!-- 10&#45;&gt;1 -->
<g id="edge11" class="edge"><title>10&#45;&gt;1</title>
<path fill="none" stroke="black" d="M35.364,-49.2666C47.8803,-53.2948 65.387,-58.9292 79.84,-63.5807"/>
<polygon fill="black" stroke="black" points="79.1179,-67.025 89.7093,-66.757 81.2625,-60.3616 79.1179,-67.025"/>
<text text-anchor="middle" x="62.5" y="-63.4" font-family="arial" font-size="12.00">1.0</text>
</g>
<!-- 10&#45;&gt;2 -->
<g id="edge10" class="edge"><title>10&#45;&gt;2</title>
<path fill="none" stroke="black" d="M35.3072,-38.1545C41.1726,-36.1195 47.857,-33.8777 54,-32 62.1725,-29.5019 71.1384,-27.0029 79.2891,-24.8221"/>
<polygon fill="black" stroke="black" points="80.2752,-28.1819 89.0564,-22.254 78.4951,-21.412 80.2752,-28.1819"/>
<text text-anchor="middle" x="62.5" y="-35.4" font-family="arial" font-size="12.00">1.0</text>
</g>
</g>
</svg>
