<?xml version="1.0" encoding="UTF-8" standalone="no"?>
<!DOCTYPE svg PUBLIC "-//W3C//DTD SVG 1.1//EN"
 "http://www.w3.org/Graphics/SVG/1.1/DTD/svg11.dtd">
<!-- Generated by graphviz version 2.38.0 (20140413.2041)
 -->
<!-- Title: %3 Pages: 1 -->
<svg width="548pt" height="152pt"
 viewBox="0.00 0.00 548.00 152.00" xmlns="http://www.w3.org/2000/svg" xmlns:xlink="http://www.w3.org/1999/xlink">
<g id="graph0" class="graph" transform="scale(1 1) rotate(0) translate(4 148)">
<title>%3</title>
<polygon fill="white" stroke="none" points="-4,4 -4,-148 544,-148 544,4 -4,4"/>
<!-- 1 -->
<g id="node1" class="node"><title>1</title>
<ellipse fill="powderblue" stroke="black" cx="90" cy="-72" rx="18" ry="18"/>
</g>
<!-- 2 -->
<g id="node2" class="node"><title>2</title>
<ellipse fill="powderblue" stroke="black" cx="162" cy="-72" rx="18" ry="18"/>
</g>
<!-- 1&#45;&gt;2 -->
<g id="edge1" class="edge"><title>1&#45;&gt;2</title>
<path fill="none" stroke="black" d="M108.303,-72C116.017,-72 125.288,-72 133.888,-72"/>
<polygon fill="black" stroke="black" points="133.896,-75.5001 143.896,-72 133.896,-68.5001 133.896,-75.5001"/>
</g>
<!-- 3 -->
<g id="node3" class="node"><title>3</title>
<ellipse fill="powderblue" stroke="black" cx="234" cy="-99" rx="18" ry="18"/>
</g>
<!-- 2&#45;&gt;3 -->
<g id="edge2" class="edge"><title>2&#45;&gt;3</title>
<path fill="none" stroke="black" d="M179.235,-78.2622C187.629,-81.4996 198.066,-85.5253 207.505,-89.1661"/>
<polygon fill="black" stroke="black" points="206.263,-92.4385 216.853,-92.7718 208.782,-85.9075 206.263,-92.4385"/>
</g>
<!-- 4 -->
<g id="node4" class="node"><title>4</title>
<ellipse fill="powderblue" stroke="black" cx="234" cy="-45" rx="18" ry="18"/>
</g>
<!-- 2&#45;&gt;4 -->
<g id="edge3" class="edge"><title>2&#45;&gt;4</title>
<path fill="none" stroke="black" d="M179.235,-65.7378C187.629,-62.5004 198.066,-58.4747 207.505,-54.8339"/>
<polygon fill="black" stroke="black" points="208.782,-58.0925 216.853,-51.2282 206.263,-51.5615 208.782,-58.0925"/>
</g>
<!-- 5 -->
<g id="node5" class="node"><title>5</title>
<ellipse fill="powderblue" stroke="black" cx="306" cy="-72" rx="18" ry="18"/>
</g>
<!-- 3&#45;&gt;5 -->
<g id="edge4" class="edge"><title>3&#45;&gt;5</title>
<path fill="none" stroke="black" d="M251.235,-92.7378C259.629,-89.5004 270.066,-85.4747 279.505,-81.8339"/>
<polygon fill="black" stroke="black" points="280.782,-85.0925 288.853,-78.2282 278.263,-78.5615 280.782,-85.0925"/>
</g>
<!-- 4&#45;&gt;5 -->
<g id="edge5" class="edge"><title>4&#45;&gt;5</title>
<path fill="none" stroke="black" d="M251.235,-51.2622C259.629,-54.4996 270.066,-58.5253 279.505,-62.1661"/>
<polygon fill="black" stroke="black" points="278.263,-65.4385 288.853,-65.7718 280.782,-58.9075 278.263,-65.4385"/>
</g>
<!-- 6 -->
<g id="node6" class="node"><title>6</title>
<ellipse fill="powderblue" stroke="black" cx="378" cy="-126" rx="18" ry="18"/>
</g>
<!-- 5&#45;&gt;6 -->
<g id="edge6" class="edge"><title>5&#45;&gt;6</title>
<path fill="none" stroke="black" d="M320.83,-82.6687C330.609,-90.2126 343.92,-100.481 355.13,-109.129"/>
<polygon fill="black" stroke="black" points="353.143,-112.017 363.199,-115.354 357.419,-106.474 353.143,-112.017"/>
</g>
<!-- 7 -->
<g id="node7" class="node"><title>7</title>
<ellipse fill="powderblue" stroke="black" cx="378" cy="-72" rx="18" ry="18"/>
</g>
<!-- 5&#45;&gt;7 -->
<g id="edge7" class="edge"><title>5&#45;&gt;7</title>
<path fill="none" stroke="black" d="M324.303,-72C332.017,-72 341.288,-72 349.888,-72"/>
<polygon fill="black" stroke="black" points="349.896,-75.5001 359.896,-72 349.896,-68.5001 349.896,-75.5001"/>
</g>
<!-- 8 -->
<g id="node8" class="node"><title>8</title>
<ellipse fill="powderblue" stroke="black" cx="378" cy="-18" rx="18" ry="18"/>
</g>
<!-- 5&#45;&gt;8 -->
<g id="edge8" class="edge"><title>5&#45;&gt;8</title>
<path fill="none" stroke="black" d="M320.83,-61.3313C330.609,-53.7874 343.92,-43.5188 355.13,-34.8713"/>
<polygon fill="black" stroke="black" points="357.419,-37.5258 363.199,-28.6465 353.143,-31.9833 357.419,-37.5258"/>
</g>
<!-- 9 -->
<g id="node9" class="node"><title>9</title>
<ellipse fill="powderblue" stroke="black" cx="450" cy="-72" rx="18" ry="18"/>
</g>
<!-- 6&#45;&gt;9 -->
<g id="edge9" class="edge"><title>6&#45;&gt;9</title>
<path fill="none" stroke="black" d="M392.83,-115.331C402.609,-107.787 415.92,-97.5188 427.13,-88.8713"/>
<polygon fill="black" stroke="black" points="429.419,-91.5258 435.199,-82.6465 425.143,-85.9833 429.419,-91.5258"/>
</g>
<!-- 7&#45;&gt;9 -->
<g id="edge10" class="edge"><title>7&#45;&gt;9</title>
<path fill="none" stroke="black" d="M396.303,-72C404.017,-72 413.288,-72 421.888,-72"/>
<polygon fill="black" stroke="black" points="421.896,-75.5001 431.896,-72 421.896,-68.5001 421.896,-75.5001"/>
</g>
<!-- 8&#45;&gt;9 -->
<g id="edge11" class="edge"><title>8&#45;&gt;9</title>
<path fill="none" stroke="black" d="M392.83,-28.6687C402.609,-36.2126 415.92,-46.4812 427.13,-55.1287"/>
<polygon fill="black" stroke="black" points="425.143,-58.0167 435.199,-61.3535 429.419,-52.4742 425.143,-58.0167"/>
</g>
<!-- 11 -->
<g id="node11" class="node"><title>11</title>
<ellipse fill="darksalmon" stroke="black" cx="522" cy="-72" rx="18" ry="18"/>
</g>
<!-- 9&#45;&gt;11 -->
<g id="edge13" class="edge"><title>9&#45;&gt;11</title>
<path fill="none" stroke="black" d="M468.303,-72C476.017,-72 485.288,-72 493.888,-72"/>
<polygon fill="black" stroke="black" points="493.896,-75.5001 503.896,-72 493.896,-68.5001 493.896,-75.5001"/>
</g>
<!-- 10 -->
<g id="node10" class="node"><title>10</title>
<ellipse fill="forestgreen" stroke="black" cx="18" cy="-72" rx="18" ry="18"/>
</g>
<!-- 10&#45;&gt;1 -->
<g id="edge12" class="edge"><title>10&#45;&gt;1</title>
<path fill="none" stroke="black" d="M36.3034,-72C44.0173,-72 53.2875,-72 61.8876,-72"/>
<polygon fill="black" stroke="black" points="61.8957,-75.5001 71.8957,-72 61.8956,-68.5001 61.8957,-75.5001"/>
</g>
</g>
</svg>
